<?xml version="1.0" standalone="no"?>
<!DOCTYPE svg PUBLIC "-//W3C//DTD SVG 1.1//EN" "http://www.w3.org/Graphics/SVG/1.1/DTD/svg11.dtd" >
<svg xmlns="http://www.w3.org/2000/svg" xmlns:xlink="http://www.w3.org/1999/xlink" version="1.1">
<metadata>
Created by FontForge 20230101 at Fri Feb 22 21:57:11 2008
 By Unknown
Copyright (URW)++, copyright 1999 by (URW)++ Design &#38; Development; Cyrillic glyphs added by Valek Filippov, copyright 2001-2002; Vietnamese characters were added by Han The Thanh; copyright 2006, 2008 for TeX Gyre extensions by B. Jackowski and J.M. Nowacki (on behalf of TeX users groups). This work is released under the GUST Font License --  see http://tug.org/fonts/licenses/GUST-FONT-LICENSE.txt for details.
</metadata>
<defs>
<font id="TeXGyrePagella-Italic" horiz-adv-x="333" >
  <font-face 
    font-family="TeXGyrePagella"
    font-weight="400"
    font-style="italic"
    font-stretch="normal"
    units-per-em="1000"
    panose-1="0 0 5 0 0 0 0 0 0 0"
    ascent="733"
    descent="-267"
    x-height="482"
    cap-height="692"
    bbox="-420 -276 1292 1094"
    underline-thickness="50"
    underline-position="-100"
    slope="-10"
    unicode-range="U+0020-FB04"
  />
<missing-glyph horiz-adv-x="280" 
 />
    <glyph glyph-name="I_J" unicode="IJ" horiz-adv-x="633" 
d="M315 -3q-63 3 -126 3t-126 -3l3 28l36 3q30 2 38.5 16t19.5 81l72 434q9 49 9 77q0 25 -35 26l-47 2l3 28q68 -3 136 -3q56 0 112 3l-3 -28l-35 -3q-29 -2 -37.5 -10t-13.5 -38l-89 -535q-2 -10 -2 -21q0 -15 8 -21t28 -8l52 -3zM711 664l-42 -3q-28 -2 -37 -10.5
t-14 -37.5l-85 -559q-11 -78 -34 -132q-25 -61 -62 -94.5t-78 -33.5q-19 0 -35 10l-3 26q11 -4 29 -4q70 0 92 153l95 643q1 5 1 13q0 26 -35 27l-47 2l3 28q69 -3 141 -3q56 0 114 3z" />
    <glyph glyph-name="i_j" unicode="ij" horiz-adv-x="541" 
d="M315 85q-73 -54 -107 -74t-53 -20q-30 0 -30 39q0 31 13 77l66 240q8 30 8 44q0 21 -17 21q-13 0 -48 -23l-32 -21l-7 20l28 20q104 74 134 74q25 0 25 -26q0 -10 -6 -36l-77 -304q-7 -26 -7 -40q0 -20 13 -20q16 0 61 30l26 17zM338 616q0 -29 -15.5 -48t-38.5 -19
q-19 0 -29.5 11t-10.5 30q0 26 18 46.5t40 20.5q16 0 26 -11.5t10 -29.5zM574 420l-76 -350q-37 -167 -64 -228q-54 -118 -114 -118q-24 0 -38 7l8 57q32 -19 53 -19q29 0 47 87l100 495q7 30 7 40t-5 16.5t-13 6.5q-9 0 -26 -11.5t-21 -13.5l-32 -21l-7 20l28 20
q104 74 134 74q25 0 25 -25q0 -11 -6 -37zM623 616q0 -29 -15.5 -48t-38.5 -19q-19 0 -29.5 11t-10.5 30q0 26 18 46.5t40 20.5q16 0 26 -11.5t10 -29.5z" />
    <glyph glyph-name="f_k" unicode="fk" horiz-adv-x="731" 
d="M714 67l-46 -32q-64 -44 -81 -44q-19 0 -46.5 59t-79.5 209q-53 -53 -67 -127l-23 -124l-67 -17l-9 10q66 268 82 353l48 268q2 16 2 24q0 24 -32 24q-8 -24 -10 -32l-10 -4q-24 39 -72 39q-67 0 -90 -124l-21 -112h16q59 0 91 9l4 -7q-10 -24 -17 -56h-104
q-3 -19 -10 -49t-9 -39q-56 -266 -83.5 -352.5t-72.5 -140.5q-29 -35 -66 -56.5t-68 -21.5q-21 0 -35 8q13 24 23 80l14 4q22 -29 52 -29q55 0 84 90q35 109 89 450l9 56h-81l5 22q39 14 86 37l15 79q15 79 45 109q17 18 64 53t65 43q14 7 35 7q42 0 70 -13q-7 -19 -8 -22
q53 10 104 35l12 -11l-107 -492q94 132 159 192t115 60q22 0 48 -9l-17 -63q-26 6 -36 6q-71 0 -157 -86l-14 -14q49 -156 96 -241q12 -23 26 -23q12 0 29 10l43 24z" />
    <glyph glyph-name="f_f" unicode="ff" horiz-adv-x="518" 
d="M653 720l-28 -82l-10 -4q-24 39 -72 39q-67 0 -90 -124l-21 -112h16q59 0 91 9l4 -7q-10 -24 -17 -56h-104q-3 -19 -10 -49t-9 -39q-56 -266 -83.5 -352.5t-72.5 -140.5q-29 -35 -66 -56.5t-68 -21.5q-21 0 -35 8q13 24 23 80l14 4q22 -29 52 -29q55 0 84 90
q35 109 89 450l9 56h-167q-3 -19 -10 -49t-9 -39q-56 -266 -83.5 -352.5t-72.5 -140.5q-29 -35 -66 -56.5t-68 -21.5q-21 0 -35 8q13 24 23 80l14 4q22 -29 52 -29q55 0 84 90q35 109 89 450l9 56h-81l5 22q39 14 86 37l15 79q15 79 45 109q17 18 64 53t65 43q14 7 35 7
q42 0 70 -13l-28 -82l-10 -4q-24 39 -72 39q-67 0 -90 -124l-21 -112h166l16 84q15 79 45 109q17 18 64 53t65 43q14 7 35 7q42 0 70 -13z" />
    <glyph glyph-name="f_i" unicode="fi" horiz-adv-x="528" 
d="M502 671q0 17 -11 29t-26 12q-22 0 -39.5 -20.5t-17.5 -46.5q0 -19 10.5 -30t28.5 -11q23 0 39 19.5t16 47.5zM482 81q-112 -90 -151 -90q-34 0 -34 42q0 21 6 48l59 274l1 2q0 4 3.5 16t3.5 20q0 22 -19 22q-7 0 -27 -9l-52 -23h-90l-19 -88q-58 -268 -84.5 -354
t-71.5 -139q-29 -35 -66 -56.5t-68 -21.5q-21 0 -35 8q13 24 23 80l14 4q22 -29 52 -29q55 0 84 90q35 109 89 450l9 56h-81l5 22q39 14 86 37l15 79q15 79 45 109q23 24 63.5 57t53.5 39q16 7 35 7q18 0 44 -9q-8 -24 -21 -89l-12 -3q-16 41 -50 41q-55 0 -79 -124
l-21 -112l89 -5q34 -1 112 35q33 15 42 15q15 0 15 -34q0 -18 -5 -42l-61 -298q-5 -21 -5 -34q0 -20 12 -20q19 0 48 21l34 26z" />
    <glyph glyph-name="f_l" unicode="fl" horiz-adv-x="545" 
d="M500 87l-35 -26q-61 -45 -83.5 -57.5t-45.5 -12.5q-29 0 -29 39q0 20 13 77l84 399q20 97 22 136q0 15 -6 22q-7 9 -33 9h-16l-6 -41h-10q-13 37 -55 37q-35 0 -55 -27.5t-32 -92.5l-21 -112h16q59 0 91 9l4 -7q-10 -24 -17 -56h-104q-3 -19 -10 -49t-9 -39
q-56 -266 -83.5 -352.5t-72.5 -140.5q-29 -35 -66 -56.5t-68 -21.5q-21 0 -35 8q13 24 23 80l14 4q22 -29 52 -29q55 0 84 90q35 109 89 450l9 56h-81l5 22q39 14 86 37l15 79q15 78 45 109q18 18 64.5 53t64.5 43q16 7 37 7q14 0 38 -8l-7 -28q69 2 128 36l16 -8l-123 -575
q-10 -46 -10 -71q0 -23 16 -23q15 0 40 18l48 34z" />
    <glyph glyph-name="f_f_i" unicode="ffi" horiz-adv-x="756" 
d="M722 81q-112 -90 -151 -90q-34 0 -34 42q0 21 6 48l59 274q1 3 4.5 19t3.5 19q0 22 -19 22q-7 0 -27 -9l-52 -23h-90l-19 -88q-58 -268 -84.5 -354t-71.5 -139q-29 -35 -66 -56.5t-68 -21.5q-21 0 -35 8q13 24 23 80l14 4q22 -29 52 -29q55 0 84 90q35 109 89 450l9 56
h-167q-3 -19 -10 -49t-9 -39q-56 -266 -83.5 -352.5t-72.5 -140.5q-29 -35 -66 -56.5t-68 -21.5q-21 0 -35 8q13 24 23 80l14 4q22 -29 52 -29q55 0 84 90q35 109 89 450l9 56h-81l5 22q39 14 86 37l15 79q15 79 45 109q17 18 64 53t65 43q14 7 35 7q42 0 70 -13l-28 -82
l-10 -4q-24 39 -72 39q-67 0 -90 -124l-21 -112h166q1 3 16 84q15 79 45 109q23 24 63.5 57t53.5 39q16 7 35 7q18 0 44 -9q-8 -24 -21 -89l-12 -3q-16 41 -50 41q-55 0 -79 -124l-21 -112l89 -5q34 -1 112 35q33 15 42 15q15 0 15 -34q0 -18 -5 -42l-61 -298q-5 -21 -5 -34
q0 -20 12 -20q19 0 48 21l34 26zM742 671q0 17 -11 29t-26 12q-22 0 -39.5 -20.5t-17.5 -46.5q0 -19 10.5 -30t28.5 -11q23 0 39 19.5t16 47.5z" />
    <glyph glyph-name="f_f_l" unicode="ffl" horiz-adv-x="787" 
d="M740 87l-35 -26q-61 -45 -83.5 -57.5t-45.5 -12.5q-29 0 -29 39q0 20 13 77l84 399q20 97 22 136q-5 18 -12.5 24.5t-26.5 6.5h-16l-6 -41h-10q-13 37 -55 37q-35 0 -55 -27.5t-32 -92.5l-21 -112h16q59 0 91 9l4 -7q-10 -24 -17 -56h-104q-3 -19 -10 -49t-9 -39
q-56 -266 -83.5 -352.5t-72.5 -140.5q-29 -35 -66 -56.5t-68 -21.5q-21 0 -35 8q13 24 23 80l14 4q22 -29 52 -29q55 0 84 90q35 109 89 450l9 56h-167q-3 -19 -10 -49t-9 -39q-56 -266 -83.5 -352.5t-72.5 -140.5q-29 -35 -66 -56.5t-68 -21.5q-21 0 -35 8q13 24 23 80
l14 4q22 -29 52 -29q55 0 84 90q35 109 89 450l9 56h-81l5 22q39 14 86 37l15 79q15 79 45 109q17 18 64 53t65 43q14 7 35 7q42 0 70 -13l-28 -82l-10 -4q-24 39 -72 39q-67 0 -90 -124l-21 -112h166q1 3 16 84q15 78 45 109q18 18 64.5 53t64.5 43q16 7 37 7q14 0 38 -8
l-7 -28q69 2 128 36l16 -8l-123 -575q-10 -46 -10 -71q0 -23 16 -23q15 0 40 18l48 34z" />
    <glyph glyph-name=".notdef" horiz-adv-x="280" 
 />
    <glyph glyph-name=".null" horiz-adv-x="0" 
 />
    <glyph glyph-name="nonmarkingreturn" 
 />
    <glyph glyph-name="space" unicode=" " horiz-adv-x="250" 
 />
    <glyph glyph-name="exclam" unicode="!" 
d="M181 61q0 -28 -18 -48.5t-43 -20.5q-20 0 -32 12.5t-12 34.5q0 29 17.5 49.5t42.5 20.5q19 0 32 -14t13 -34zM292 724l-123 -516l-30 -17l-6 3l21 154l35 288l7 71l85 26z" />
    <glyph glyph-name="quotedbl" unicode="&#x22;" horiz-adv-x="500" 
d="M288 694q0 -21 -9 -33l-109 -153h-30l62 187q12 38 45 38q17 0 29 -11.5t12 -27.5zM455 694q0 -21 -9 -33l-109 -153h-30l62 187q12 38 45 38q17 0 29 -11.5t12 -27.5z" />
    <glyph glyph-name="numbersign" unicode="#" horiz-adv-x="500" 
d="M470 227h-109l-31 -227h-58l31 227h-134l-33 -227h-58l33 227h-107v56h116l21 140h-110v56h118l31 213h58l-31 -213h133l30 213h58l-30 -213h97v-56h-105l-20 -140h100v-56zM312 283l20 140h-133l-21 -140h134z" />
    <glyph glyph-name="dollar" unicode="$" horiz-adv-x="500" 
d="M434 224q0 -54 -29 -104t-81 -86q-51 -35 -119 -45l-14 -102h-41l20 101q-118 13 -155 42q13 56 22 145h26v-90q34 -39 115 -53l44 273q-82 18 -116 50.5t-34 93.5q0 99 82 164q43 35 126 58l9 62h37l-10 -60q84 -1 134 -34l2 -10q-16 -61 -25 -115h-24v72q-32 35 -95 42
l-41 -257q88 -14 124 -45q43 -35 43 -102zM360 193q0 47 -23 70.5t-82 37.5l-43 -269q49 3 82 27q31 22 48.5 58t17.5 76zM234 377l40 251q-45 -1 -74 -23q-28 -20 -44.5 -54t-16.5 -71q0 -41 22 -65t73 -38z" />
    <glyph glyph-name="percent" unicode="%" horiz-adv-x="889" 
d="M386 562q0 -77 -49.5 -130t-121.5 -53q-61 0 -101 40.5t-40 102.5q0 70 54.5 123.5t125.5 53.5q57 0 94.5 -39t37.5 -98zM320 589q0 41 -17.5 64t-48.5 23q-47 0 -78.5 -51t-31.5 -126q0 -45 19 -71t51 -26q44 0 74 51q32 57 32 136zM809 183q0 -77 -49.5 -130
t-121.5 -53q-61 0 -101 40.5t-40 102.5q0 70 54.5 123.5t125.5 53.5q57 0 94.5 -39t37.5 -98zM743 210q0 41 -17.5 64t-48.5 23q-47 0 -78.5 -51t-31.5 -126q0 -45 19 -71t51 -26q44 0 74 51q32 57 32 136zM674 710l-427 -717h-41l424 717h44z" />
    <glyph glyph-name="ampersand" unicode="&#x26;" horiz-adv-x="778" 
d="M766 444q0 -50 -33.5 -82.5t-92.5 -40.5l-85 -12l17 -2q24 -3 43 -29t19 -55q0 -54 -45.5 -107.5t-125.5 -93.5t-176 -40q-110 0 -175 51.5t-65 139.5q0 90 60 141q27 24 57.5 39.5t91.5 36.5q-42 20 -60.5 43t-18.5 57q0 51 45.5 104t114.5 82q36 16 80 16q50 0 97 -25
l-26 -119h-23v62q-49 32 -90 32q-53 0 -89.5 -35t-36.5 -85q0 -69 69 -94q24 -9 71 -9q-20 -40 -20 -48v-2h-36q-90 0 -146.5 -49t-56.5 -126q0 -74 56 -119.5t147 -45.5q92 0 161.5 51t69.5 119q0 40 -25 64.5t-65 24.5q-35 0 -50.5 -16.5t-26.5 -66.5l-23 2l8 99
q23 23 47 32.5t78 18.5l111 18q113 18 113 81q0 19 -8 29.5t-30 22.5l21 16q28 -13 40 -31.5t12 -48.5z" />
    <glyph glyph-name="quotesingle" unicode="'" 
d="M288 694q0 -21 -9 -33l-109 -153h-30l62 187q12 38 45 38q17 0 29 -11.5t12 -27.5z" />
    <glyph glyph-name="parenleft" unicode="(" 
d="M200 -93l-22 -13q-80 129 -103 210q-21 76 -21 153q0 148 85 282q31 48 66.5 89t102.5 105l23 -21q-69 -78 -102 -129t-58 -114q-45 -115 -45 -259q0 -148 48 -248z" />
    <glyph glyph-name="parenright" unicode=")" 
d="M279 370q0 -149 -86 -282q-52 -82 -168 -194l-23 21q69 78 102 129t58 114q45 116 45 259q0 147 -48 248l-26 55l22 13q80 -129 103 -210q21 -76 21 -153z" />
    <glyph glyph-name="asterisk" unicode="*" horiz-adv-x="389" 
d="M400 511l-6 -6l-145 19l65 -120l-4 -8l-58 -28l-7 4l-22 142l-107 -97h-12l-26 57l4 7l127 56l-128 62l-5 9l33 57h10l104 -105l22 141l10 5l63 -18v-8l-71 -131l140 25l7 -5z" />
    <glyph glyph-name="plus" unicode="+" horiz-adv-x="606" 
d="M566 222h-235v-235h-56v235h-235v56h235v235h56v-235h235v-56z" />
    <glyph glyph-name="comma" unicode="," horiz-adv-x="250" 
d="M203 110q-47 -109 -153 -240l-35 -13l-7 10q57 72 87 195l8 32l91 29z" />
    <glyph glyph-name="hyphen" unicode="-" 
d="M304 281l-18 -58h-267l19 58h266z" />
    <glyph glyph-name="period" unicode="." horiz-adv-x="250" 
d="M158 64q0 -28 -18 -48.5t-43 -20.5q-20 0 -32 12.5t-12 34.5q0 29 17.5 49.5t42.5 20.5q19 0 32 -14t13 -34z" />
    <glyph glyph-name="slash" unicode="/" horiz-adv-x="296" 
d="M392 733l-372 -852h-60l372 852h60z" />
    <glyph glyph-name="zero" unicode="0" horiz-adv-x="500" 
d="M480 468q0 -92 -21.5 -186t-58.5 -161q-72 -132 -192 -132q-83 0 -127.5 63t-44.5 179q0 102 26.5 202t70.5 164q71 102 175 102q80 0 126 -62t46 -169zM351 171q22 65 37.5 161t15.5 170q0 168 -102 168q-53 0 -88.5 -48t-63.5 -157q-38 -154 -38 -287q0 -160 100 -160
q45 0 78.5 37t60.5 116z" />
    <glyph glyph-name="one" unicode="1" horiz-adv-x="500" 
d="M398 24l-5 -27q-84 3 -169 3q-84 0 -170 -3l5 27l85 10q23 3 32.5 16t15.5 52l86 527q-15 -6 -27 -9.5t-27 -9.5t-49 -23l-84 -41l-7 5l11 59l24 6q99 25 140 42l100 41l15 -11l-24 -115l-74 -437q-8 -48 -8 -60q0 -26 12 -36t47 -12z" />
    <glyph glyph-name="two" unicode="2" horiz-adv-x="500" 
d="M432 66l-17 -69q-101 3 -201 3q-102 0 -202 -3v18l49 52q108 113 190 219q101 131 101 237q0 49 -31 80t-80 31q-43 0 -74.5 -24t-68.5 -84l-22 9l60 120q61 44 132 44q77 0 123 -43.5t46 -117.5q0 -109 -89 -206l-247 -269h210q52 0 115 11z" />
    <glyph glyph-name="three" unicode="3" horiz-adv-x="500" 
d="M447 235q0 -102 -81 -174t-196 -72q-82 0 -148 44l28 145l24 -5q-4 -32 -4 -43q0 -50 33 -78.5t90 -28.5q63 0 104 43q64 66 64 162q0 64 -35.5 99t-99.5 35q-34 0 -78 -16l-6 12l18 43q16 0 44 -2q64 -3 110 40.5t46 105.5q0 42 -27.5 67.5t-73.5 25.5q-33 0 -55.5 -12
t-51.5 -46l-21 -24l-19 13l58 99q67 31 116 31q68 0 110.5 -36t42.5 -94q0 -54 -33 -94.5t-112 -81.5q69 -17 101 -40q52 -40 52 -118z" />
    <glyph glyph-name="four" unicode="4" horiz-adv-x="500" 
d="M441 24l-5 -27q-82 3 -165 3t-166 -3l5 27l86 10q25 3 35.5 14t16.5 42l20 102h-253v31l337 461l69 15l8 -5l-83 -446h128l4 -5l-16 -55q-51 3 -53 3h-73l-9 -53q-9 -52 -9 -84q0 -16 36 -20zM345 621l-270 -373h203z" />
    <glyph glyph-name="five" unicode="5" horiz-adv-x="500" 
d="M445 266q0 -68 -38 -138q-35 -65 -98.5 -102t-139.5 -37q-88 0 -155 52q14 49 29 139l23 -5q-3 -24 -3 -39q0 -50 34 -80.5t90 -30.5q65 0 106 43q66 68 66 179q0 68 -32.5 105t-91.5 37q-34 0 -61 -13.5t-59 -46.5l-21 9l64 350l8 5l21 -1q122 -6 146 -6l120 3l32 1
l6 -9l-35 -58q-85 -5 -147 -5q-53 0 -121 5l-51 -241q58 52 139 52q77 0 123 -45.5t46 -122.5z" />
    <glyph glyph-name="six" unicode="6" horiz-adv-x="500" 
d="M448 263q0 -76 -35 -138q-33 -60 -92 -98t-119 -38q-72 0 -112.5 56t-40.5 155q0 206 133 368q55 68 112.5 99.5t126.5 31.5q25 0 48 -5l-16 -59h-8q-37 18 -65 18q-102 0 -171 -122q-45 -79 -76 -220q47 57 88 81.5t91 24.5q64 0 100 -40.5t36 -113.5zM372 236
q0 59 -28.5 92.5t-78.5 33.5q-61 0 -100.5 -53t-39.5 -135q0 -63 30 -101t79 -38q59 0 98.5 57t39.5 144z" />
    <glyph glyph-name="seven" unicode="7" horiz-adv-x="500" 
d="M502 653l-126 -203q-120 -193 -236 -453q-23 3 -38 3q-23 0 -44 -3l-5 8q38 57 101 159l278 449h-242q-16 0 -99 -5l-6 4q1 5 2.5 13t5 25.5t5.5 28.5t2 10q147 -3 295 -3q53 0 107 3v-36z" />
    <glyph glyph-name="eight" unicode="8" horiz-adv-x="500" 
d="M431 228q0 -94 -73.5 -166.5t-169.5 -72.5q-69 0 -110.5 38.5t-41.5 102.5q0 77 62 142q41 42 119 80q-100 57 -100 138q0 78 69 143.5t150 65.5q61 0 97 -33.5t36 -89.5q0 -57 -31.5 -99t-117.5 -99q65 -36 88 -67t23 -83zM355 195q0 45 -17 71.5t-65 54.5l-29 17
q-132 -69 -132 -190q0 -55 28.5 -86t80.5 -31q58 0 96 46.5t38 117.5zM401 556q0 45 -27 73t-70 28q-51 0 -85 -38.5t-34 -96.5q0 -68 72 -109l34 -19q110 71 110 162z" />
    <glyph glyph-name="nine" unicode="9" horiz-adv-x="500" 
d="M468 481q0 -102 -29.5 -197t-83.5 -166q-46 -61 -102 -95t-111 -34q-41 0 -79 19q-1 4 -3 11.5t-4 14.5q-13 52 -24 77l21 8q23 -44 50 -63t65 -19q97 0 156 125q33 70 62 215q-44 -55 -82 -78t-85 -23q-67 0 -107.5 45t-40.5 119q0 104 72 181.5t169 77.5
q76 0 116 -55.5t40 -162.5zM392 508q0 66 -30 106t-79 40q-59 0 -97.5 -52t-38.5 -133q0 -66 29.5 -102.5t82.5 -36.5q58 0 95.5 50.5t37.5 127.5z" />
    <glyph glyph-name="colon" unicode=":" horiz-adv-x="250" 
d="M149 64q0 -28 -18 -48.5t-43 -20.5q-20 0 -32 12.5t-12 34.5q0 29 17.5 49.5t42.5 20.5q19 0 32 -14t13 -34zM207 410q0 -29 -18 -49t-43 -20q-20 0 -32 12.5t-12 34.5q0 29 17.5 49.5t42.5 20.5q19 0 32 -14t13 -34z" />
    <glyph glyph-name="semicolon" unicode=";" horiz-adv-x="250" 
d="M186 107q-47 -109 -153 -240l-35 -13l-7 10q57 72 87 195l8 32l91 29zM219 408q0 -29 -18 -49t-43 -20q-20 0 -32 12.5t-12 34.5q0 29 17.5 49.5t42.5 20.5q19 0 32 -14t13 -34z" />
    <glyph glyph-name="less" unicode="&#x3c;" horiz-adv-x="606" 
d="M526 7l-458 218v50l458 218v-62l-381 -181l381 -181v-62z" />
    <glyph glyph-name="equal" unicode="=" horiz-adv-x="606" 
d="M566 309h-526v56h526v-56zM566 136h-526v56h526v-56z" />
    <glyph glyph-name="greater" unicode="&#x3e;" horiz-adv-x="606" 
d="M526 225l-458 -218v62l381 181l-381 181v62l458 -218v-50z" />
    <glyph glyph-name="question" unicode="?" horiz-adv-x="500" 
d="M427 572q0 -74 -74 -145l-104 -100q-50 -47 -50 -77q0 -23 27 -51l-25 -6q-38 24 -38 63q0 49 55 111l70 79q57 64 57 116q0 37 -28 61t-71 24q-31 0 -50 -11.5t-39 -40.5l-20 -30l-22 6l40 98q60 37 115 37q70 0 113.5 -37t43.5 -97zM219 61q0 -28 -18 -48.5t-43 -20.5
q-20 0 -32 12.5t-12 34.5q0 29 17.5 49.5t42.5 20.5q19 0 32 -14t13 -34z" />
    <glyph glyph-name="at" unicode="@" horiz-adv-x="747" 
d="M713 176q-38 -66 -77 -101q-104 -93 -242 -93q-155 0 -261 103t-106 253q0 155 105 261.5t257 106.5q139 0 234 -84.5t95 -208.5q0 -114 -73 -192q-34 -37 -79 -60t-80 -23q-31 0 -50 23t-22 65q-37 -49 -61.5 -65.5t-60.5 -16.5q-56 0 -94 43t-38 105q0 86 66.5 156
t147.5 70q38 0 59 -20t30 -65l20 76h75l-79 -291q-2 -8 -2 -16q0 -16 9 -26.5t22 -10.5q37 0 89 52q80 83 80 193q0 105 -83 178t-203 73q-136 0 -227.5 -91.5t-91.5 -225.5q0 -136 93.5 -226.5t233.5 -90.5q107 0 190 65q38 29 77 84h47zM446 417q0 33 -16 55t-41 22
q-41 0 -74 -35q-35 -37 -57 -92.5t-22 -106.5q0 -39 19.5 -65.5t47.5 -26.5q55 0 95 73q20 35 34 86.5t14 89.5z" />
    <glyph glyph-name="A" unicode="A" horiz-adv-x="722" 
d="M677 -3q-60 3 -122 3q-61 0 -122 -3v28l44 3q43 3 43 27q0 4 -2 22l-27 200h-246l-102 -175q-26 -44 -26 -55q0 -7 9 -12.5t22 -6.5l52 -3v-28q-52 3 -107 3q-57 0 -112 -3v30l20 5q26 6 44 22.5t44 57.5l373 593h46l87 -625q4 -34 12.5 -41t43.5 -11l26 -3v-28zM486 313
l-37 288l-179 -288h216z" />
    <glyph glyph-name="B" unicode="B" horiz-adv-x="611" 
d="M543 227q0 -118 -123 -191q-65 -39 -142 -39q-27 0 -80.5 1.5t-80.5 1.5q-46 0 -91 -3l5 26q32 5 44 12t14 20l87 504q9 54 9 76q0 26 -35 27l-53 2l3 28q75 -3 151 -3q25 0 75 1.5t75 1.5q62 0 110 -36t48 -94q0 -76 -69 -137q-41 -35 -113 -60q92 -13 125 -40
q41 -33 41 -98zM455 211q0 129 -153 129h-85l-51 -299q26 -2 34 -3q44 -4 82 -4q75 0 124 50t49 127zM473 544q0 111 -121 111q-14 0 -40 -2.5t-40 -2.5l-49 -274h52q93 0 145.5 44.5t52.5 123.5z" />
    <glyph glyph-name="C" unicode="C" horiz-adv-x="667" 
d="M610 103l-10 -36q-68 -46 -126.5 -65.5t-130.5 -19.5q-144 0 -221 78t-77 224q0 230 177 350q107 72 234 72q86 0 195 -41q-20 -66 -27 -146h-27v84q-78 50 -179 50q-120 0 -190 -72q-95 -97 -95 -272q0 -134 62.5 -204t180.5 -70q59 0 106.5 16t117.5 59z" />
    <glyph glyph-name="D" unicode="D" horiz-adv-x="778" 
d="M741 431q0 -124 -67.5 -230.5t-184.5 -166.5q-74 -37 -173 -37q-32 0 -97 1.5t-98 1.5q-47 0 -93 -3l5 26q2 0 10 2t11.5 3t10.5 4t10 5.5t6.5 7t4.5 10.5l87 504q9 54 9 76q0 26 -35 27l-53 2l3 28q61 -3 123 -3q34 0 102 1.5t102 1.5q67 0 130 -13t96 -37
q91 -64 91 -211zM649 415q0 123 -64.5 181.5t-200.5 58.5q-20 0 -58 -2.5t-58 -2.5l-96 -557q-4 -24 -4 -37q102 -15 161 -15q133 0 214 83q106 108 106 291z" />
    <glyph glyph-name="E" unicode="E" horiz-adv-x="611" 
d="M514 0q-5 0 -29.5 -1.5t-75.5 -1.5q-37 0 -112 1.5t-113 1.5q-78 0 -154 -3l5 26q33 5 45.5 11.5t14.5 20.5l87 504q9 48 9 77q0 25 -35 26l-54 2l3 28q80 -3 160 -3q40 0 118.5 1.5t117.5 1.5q36 0 69 -3q-17 -57 -21 -152h-24l-8 89q-2 24 -107 24q-41 -1 -130 -4
q-5 -10 -9 -32l-42 -238h37l219 6l4 -7l-19 -45q-9 0 -17.5 1.5t-33.5 2t-81 0.5h-117l-43 -253q-2 -12 -2 -35q74 -7 131 -7q112 0 150 10q16 4 24 15t15 37l16 60h27q-16 -80 -21 -125z" />
    <glyph glyph-name="F" unicode="F" horiz-adv-x="556" 
d="M527 537h-24l-8 89q-2 24 -103 24q-101 -4 -123 -4q-5 -11 -9 -32l-46 -271h37l219 6l4 -7l-19 -45q-9 0 -17.5 1.5t-33.5 2t-81 0.5h-117l-36 -223q-2 -8 -2 -21q0 -15 8 -21.5t28 -7.5l64 -3l-3 -28q-69 3 -138 3q-64 0 -127 -3l4 28l36 3q31 2 38.5 15t19.5 82l75 434
q9 54 9 76q0 26 -35 27l-56 2l3 28q75 -3 152 -3q39 0 117.5 1.5t117.5 1.5q34 0 67 -3q-16 -57 -21 -152z" />
    <glyph glyph-name="G" unicode="G" horiz-adv-x="722" 
d="M692 246l-32 -6q-23 -4 -27 -21l-23 -135q-2 -13 2 -40l-4 -7q-23 -4 -56 -15q-120 -40 -197 -40q-147 0 -226 76t-79 216q0 229 179 358q104 74 237 74q96 0 209 -41q-20 -66 -27 -146h-27v84q-78 50 -187 50q-124 0 -197 -74q-99 -99 -99 -282q0 -133 64 -201.5
t188 -68.5q76 0 138 33l18 93q7 34 7 59q0 18 -14 23.5t-70 8.5l-34 2l5 26q64 -3 129 -3q62 0 125 3l-2 -26v0z" />
    <glyph glyph-name="H" unicode="H" horiz-adv-x="778" 
d="M705 -3q-66 3 -132 3q-71 0 -141 -3l4 28l50 3q31 1 37 14q7 9 21 83l40 215q-112 3 -184 3l-184 -3l-42 -247q-4 -25 -4 -35q0 -16 8 -22t28 -8l49 -3l-3 -28q-62 3 -123 3q-66 0 -132 -3l4 28l41 3q30 2 38 15t20 82l74 434q9 56 9 76q0 26 -35 27l-47 2l3 28
q70 -3 141 -3q57 0 114 3l-3 -28l-42 -3q-28 -2 -37 -10.5t-14 -37.5l-42 -228h370l30 174q9 54 9 76q0 26 -35 27l-48 2l3 28q70 -3 143 -3q53 0 107 3l-3 -28l-36 -3q-28 -2 -37 -10.5t-14 -37.5l-92 -520q-4 -23 -4 -35q0 -29 36 -30l58 -3z" />
    <glyph glyph-name="I" unicode="I" 
d="M259 -3q-63 3 -126 3t-126 -3l3 28l36 3q30 2 38.5 16t19.5 81l72 434q9 49 9 77q0 25 -35 26l-47 2l3 28q68 -3 136 -3q56 0 112 3l-3 -28l-35 -3q-29 -2 -37.5 -10t-13.5 -38l-89 -535q-2 -10 -2 -21q0 -15 8 -21t28 -8l52 -3z" />
    <glyph glyph-name="J" unicode="J" 
d="M355 664l-42 -3q-28 -2 -37 -10.5t-14 -37.5l-85 -559q-11 -78 -34 -132q-25 -61 -62 -94.5t-78 -33.5q-19 0 -35 10l-3 26q11 -4 29 -4q70 0 92 153l95 643q1 5 1 13q0 26 -35 27l-47 2l3 28q71 -3 141 -3q57 0 114 3z" />
    <glyph glyph-name="K" unicode="K" horiz-adv-x="667" 
d="M646 -3q-33 3 -68 3q-34 0 -69 -3q-80 109 -123.5 162.5t-154.5 180.5l-43 -262q-2 -8 -2 -21q0 -15 8 -21t28 -8l49 -3l-3 -28q-62 3 -123 3q-66 0 -132 -3l4 28l41 3q30 2 38 15t20 82l73 434q9 49 9 76q0 26 -35 27l-47 2l3 28q71 -3 141 -3q57 0 114 3l-3 -28l-42 -3
q-28 -2 -37 -10.5t-14 -37.5l-45 -260q89 69 149 131l128 130q38 38 38 49v29q33 -3 67 -3q33 0 68 3v-27h-21q-27 0 -54 -25l-292 -273l246 -302q31 -38 64 -38h20v-30z" />
    <glyph glyph-name="L" unicode="L" horiz-adv-x="556" 
d="M500 0q-35 -3 -105 -3q-37 0 -112 1.5t-113 1.5q-78 0 -154 -3l5 26q33 5 45.5 11.5t14.5 20.5l86 504q9 49 9 77q0 25 -35 26l-47 2l3 28q67 -3 135 -3q60 0 120 3l-3 -28l-42 -3q-28 -2 -37 -10.5t-14 -37.5l-92 -532q-2 -12 -2 -35q72 -7 142 -7q122 0 144 11
q14 5 27 53l17 62h31q-25 -119 -23 -165z" />
    <glyph glyph-name="M" unicode="M" horiz-adv-x="944" 
d="M899 -3q-66 3 -133 3q-66 0 -134 -3l3 28l31 3q39 4 52.5 11t14.5 28l37 520l-52 -87l-239 -414l-57 -104h-23l-149 578l-124 -464q-7 -25 -7 -41q0 -22 49 -27l38 -3l-3 -28q-54 3 -110 3q-57 0 -112 -3l3 26q41 4 58 17.5t28 52.5l145 509q3 10 3 20q0 19 -15.5 28
t-54.5 12l-26 2l3 28q41 -3 83 -3t84 3l150 -578l246 422q30 51 46.5 81t20.5 38t8.5 17.5t9.5 19.5q41 -3 83 -3t84 3l-3 -28l-38 -2q-45 -3 -46 -31l-41 -531l-1 -37q-1 -16 13 -24.5t41 -10.5l37 -3z" />
    <glyph glyph-name="N" unicode="N" horiz-adv-x="778" 
d="M804 692l-5 -28l-37 -2q-20 -1 -28.5 -8t-15 -29.5t-16.5 -82.5l-94 -553h-50l-338 577l-80 -464q-3 -16 -3 -30q0 -25 9.5 -33.5t39.5 -10.5l42 -3l-5 -28q-54 3 -110 3q-55 0 -111 -3l5 28l31 3q27 2 36 14.5t18 59.5l88 474q5 15 5 30t-30 39q-19 15 -50 17l-35 2
l5 28q41 -3 81 -3t81 3l345 -589l80 489q5 32 5 46q0 23 -36 24l-47 2l5 28q53 -3 105 -3q54 0 110 3z" />
    <glyph glyph-name="O" unicode="O" horiz-adv-x="778" 
d="M748 425q0 -119 -55 -222t-149 -161q-95 -60 -221 -60q-132 0 -201 74t-69 216q0 188 116.5 311t294.5 123q135 0 209.5 -73.5t74.5 -207.5zM660 409q0 166 -97 223q-53 32 -130 32q-113 0 -183 -71q-52 -52 -80.5 -135t-28.5 -181q0 -125 55.5 -189t163.5 -64
q118 0 192 76q51 53 79.5 134t28.5 175z" />
    <glyph glyph-name="P" unicode="P" horiz-adv-x="611" 
d="M594 541q0 -102 -71 -177.5t-168 -75.5q-39 0 -86 23l-2 31q50 -19 79 -19q66 0 113 57.5t47 138.5q0 137 -151 137q-23 0 -71 -8q-2 -7 -4.5 -16.5t-2.5 -11.5l-9 -40l-82 -487q-4 -25 -4 -35q0 -29 36 -30l65 -3l-3 -28q-69 3 -139 3q-66 0 -132 -3l4 28l41 3
q30 2 38 15.5t20 81.5l74 434q9 56 9 76q0 26 -35 27l-55 2l3 28q82 -3 166 -3q23 0 69 1.5t69 1.5q72 0 127 -40t55 -111z" />
    <glyph glyph-name="Q" unicode="Q" horiz-adv-x="778" 
d="M708 -61q-8 -73 -36.5 -106.5t-84.5 -33.5q-30 0 -51.5 7t-66.5 30l-145 76q-54 29 -96 29q-77 0 -77 -113l-24 13l-1 17q-3 56 33 91.5t92 35.5q31 0 66 -14l236 -96q39 -15 62 -15q59 0 68 79h25zM748 425q0 -119 -55 -222t-149 -161q-95 -60 -221 -60q-132 0 -201 74
t-69 216q0 188 116.5 311t294.5 123q135 0 209.5 -73.5t74.5 -207.5zM660 409q0 166 -97 223q-53 32 -130 32q-113 0 -183 -71q-52 -52 -80.5 -135t-28.5 -181q0 -125 55.5 -189t163.5 -64q118 0 192 76q51 53 79.5 134t28.5 175z" />
    <glyph glyph-name="R" unicode="R" horiz-adv-x="667" 
d="M639 -3q-29 3 -58 3q-37 0 -74 -3q-87 148 -240 370l3 11h44q78 0 130 47t52 118q0 113 -133 113q-37 0 -76 -8l-7 -28l-9 -40l-85 -487q-4 -23 -4 -35q0 -15 8 -22t28 -8l49 -3l-3 -28q-62 3 -123 3q-66 0 -132 -3l4 28l41 3q30 2 38 15.5t20 81.5l75 434q9 54 9 76
q0 26 -35 27l-56 2l3 28q75 -3 151 -3q25 0 75 1.5t75 1.5q68 0 121.5 -35.5t53.5 -96.5q0 -94 -89 -158q-48 -35 -120 -48l184 -275q21 -31 35.5 -41t44.5 -14v-27z" />
    <glyph glyph-name="S" unicode="S" horiz-adv-x="556" 
d="M485 234q0 -102 -86 -177t-202 -75q-79 0 -155 38q15 72 24 152h30v-99q61 -43 136 -43q77 0 125.5 44.5t48.5 116.5q0 86 -81 105l-95 23q-63 15 -92.5 51.5t-29.5 100.5q0 88 63 151q86 84 203 84q67 0 132 -34q-19 -60 -25 -135h-30v76q-42 45 -112 45
q-69 0 -114 -42.5t-45 -107.5q0 -97 96 -117l65 -14q76 -17 110 -50.5t34 -92.5z" />
    <glyph glyph-name="T" unicode="T" horiz-adv-x="611" 
d="M608 528h-28l4 64q2 21 -4 37q-4 17 -117 17h-73l-94 -553q-4 -21 -4 -35q0 -29 36 -30l59 -3l-3 -28q-66 3 -133 3q-71 0 -142 -3l4 28l51 3q30 2 38.5 15.5t19.5 81.5l86 521h-112q-70 0 -81 -13q-11 -12 -18 -45l-15 -60h-29l18 164q141 -3 282 -3t282 3z" />
    <glyph glyph-name="U" unicode="U" horiz-adv-x="778" 
d="M709 25l-5 -28q-42 3 -85 3q-44 0 -89 -3l-5 5q19 79 27 127q-39 -45 -68.5 -68t-74.5 -46q-68 -34 -133 -34q-84 0 -131.5 43.5t-47.5 120.5q0 28 6 61l64 375q7 40 7 58q0 13 -7 17.5t-27 5.5l-52 2l3 28q45 -3 90 -3q44 0 89 3l-88 -477q-7 -36 -7 -60q0 -54 37 -85
t102 -31q129 0 242 138l71 445q3 21 -4.5 30t-29.5 10l-48 2l3 28q67 -3 137 -3q56 0 113 3l-3 -28l-36 -3q-28 -2 -37 -10.5t-14 -37.5l-85 -507q-6 -38 -6 -56t32 -21z" />
    <glyph glyph-name="V" unicode="V" horiz-adv-x="722" 
d="M754 664l-18 -2q-21 -2 -32 -11t-30 -40l-378 -619h-49l-88 622q-4 27 -15 36t-44 12l-25 2v28q61 -3 124 -3t124 3v-28l-42 -2q-24 -1 -34.5 -8.5t-7.5 -29.5l71 -528l291 492q16 27 16 42q0 28 -57 32l-26 2v28q61 -3 124 -3q48 0 96 3v-28z" />
    <glyph glyph-name="W" unicode="W" horiz-adv-x="944" 
d="M980 664l-20 -2q-33 -3 -43 -31l-171 -507q-11 -32 -31 -106l-7 -26h-51q-22 103 -39 162l-112 392l-224 -444q-30 -60 -50 -110h-50q-2 81 -8 166l-32 430q-3 43 -12.5 56.5t-40.5 17.5l-18 2v28q55 -3 111 -3q61 0 121 3v-28l-37 -2q-48 -3 -45 -46l31 -484l224 456
l52 112h18l158 -572l147 462q9 27 9 49t-41 23l-39 2l5 28q48 -3 98 -3q49 0 97 3v-28z" />
    <glyph glyph-name="X" unicode="X" horiz-adv-x="722" 
d="M684 -3q-66 3 -133 3t-135 -3v28q32 3 54 4q20 2 26 3.5t6 7.5q0 12 -14 40l-119 226l-182 -231q-10 -13 -10 -25q0 -16 55 -22l32 -3v-28q-58 3 -119 3q-62 0 -125 -3v28l28 3q39 5 62 33l238 282l-146 270q-15 28 -30 37t-51 12l-26 2v28q66 -3 133 -3t133 3v-28
l-37 -2q-43 -3 -43 -20q0 -10 14 -38l104 -199l161 196q23 28 23 42q0 16 -45 19l-33 2v28q57 -3 115 -3q57 0 114 3v-28l-28 -2q-20 -2 -31.5 -9.5t-33.5 -32.5l-221 -252l171 -307q11 -18 24 -25t44 -9l25 -2v-28z" />
    <glyph glyph-name="Y" unicode="Y" horiz-adv-x="667" 
d="M669 626q-44 -8 -80 -33.5t-79 -80.5q-55 -69 -98 -146.5t-50 -119.5l-26 -168q-2 -10 -2 -21q0 -15 8 -21t28 -8l49 -3l-3 -28q-62 3 -123 3q-70 0 -139 -3l4 28l48 3q30 2 38.5 15.5t19.5 81.5l22 132q0 12 -22 91.5t-40 128.5q-31 84 -60 121t-64 37q-14 0 -45 -12
l-3 24l79 58q69 -1 114 -83.5t101 -311.5q42 111 128 226q55 75 100 111t101 50z" />
    <glyph glyph-name="Z" unicode="Z" horiz-adv-x="667" 
d="M583 -3q-234 3 -322 3l-241 -3v22l502 633h-180q-107 0 -180 -13l-6 -20q-17 -54 -21 -86h-26q11 100 11 158l118 1q118 -3 237 -3q81 0 162 3v-20l-504 -633h281q62 0 127 13q20 51 32 90l7 22h26q-20 -106 -23 -167z" />
    <glyph glyph-name="bracketleft" unicode="[" 
d="M213 -72l-7 -28l-94 3l-94 -3l-2 5l51 285q61 362 77 539l8 4q58 -2 87 -2l87 2v-28l-88 -7q-10 -1 -13.5 -6.5t-7.5 -24.5l-16 -85l-41 -253l-51 -343q-6 -19 -2.5 -34t27.5 -17z" />
    <glyph glyph-name="backslash" unicode="\" horiz-adv-x="606" 
d="M513 0h-60l-372 733h60z" />
    <glyph glyph-name="bracketright" unicode="]" 
d="M187 -96l-8 -4l-86 2l-86 -2v28l88 7q10 1 13.5 6.5t7.5 24.5l16 85l66 422l12 84q1 5 9 51t8 69q0 18 -28 21l-79 7l5 28l94 -3l94 3l2 -5l-51 -285q-60 -357 -77 -539z" />
    <glyph glyph-name="asciicircum" unicode="^" horiz-adv-x="606" 
d="M554 283h-61l-190 344l-191 -344h-61l219 406h66z" />
    <glyph glyph-name="underscore" unicode="_" horiz-adv-x="500" 
d="M500 -125h-500v50h500v-50z" />
    <glyph glyph-name="grave" unicode="`" 
d="M357 518h-34l-126 101q-22 17 -15 37q5 12 19.5 21.5t29.5 9.5t27 -18z" />
    <glyph glyph-name="a" unicode="a" horiz-adv-x="444" 
d="M406 85q-116 -96 -146 -96q-24 0 -24 37q0 24 6 51l29 127q-78 -110 -138 -162q-61 -53 -95 -53q-14 0 -24 22.5t-10 54.5q0 60 21 140.5t54 147.5q19 37 46 62t74 48q37 18 75 18q36 0 85 -19l33 18l10 -9l-92 -379q-1 -3 -1 -10q0 -24 15 -24q19 0 62 36q2 2 13 11z
M319 414q-54 19 -85 19q-37 0 -58 -16.5t-39 -59.5q-26 -62 -43.5 -136t-17.5 -122q0 -40 18 -40q25 0 67.5 41t83.5 104q45 70 74 210z" />
    <glyph glyph-name="b" unicode="b" horiz-adv-x="463" 
d="M433 376q0 -99 -45 -192.5t-117 -144.5q-69 -50 -131 -50q-41 0 -72 21.5t-31 50.5q0 7 1 10l101 551q2 12 2 24q0 24 -34 24h-48l4 21q94 9 160 42l12 -11l-86 -398q46 59 76.5 87.5t69.5 48.5q44 22 82 22q24 0 35 -14q21 -26 21 -92zM361 352q0 72 -39 72
q-22 0 -55.5 -18.5t-58.5 -44.5q-57 -60 -83 -170q-13 -53 -13 -90q0 -65 71 -65q79 0 127 101q51 111 51 215z" />
    <glyph glyph-name="c" unicode="c" horiz-adv-x="407" 
d="M354 95l-50 -41q-79 -65 -157 -65q-122 0 -122 147q0 80 26 151.5t69 109.5t91 61.5t82 23.5q59 0 96 -24q-13 -37 -24 -128h-23v60q0 18 -23.5 30.5t-57.5 12.5q-48 0 -78 -26q-36 -29 -59 -98.5t-23 -149.5q0 -119 85 -119q48 0 145 65l15 10z" />
    <glyph glyph-name="d" unicode="d" horiz-adv-x="500" 
d="M456 88l-81 -60q-53 -39 -75 -39q-26 0 -26 35q0 38 16 102l23 91q-50 -75 -81.5 -113t-72.5 -71q-55 -44 -98 -44q-44 0 -44 97q0 63 14 128.5t37 108.5q35 65 96 112t113 47q35 0 82 -14l28 154q2 14 2 24q0 24 -34 24h-48l4 21q94 9 160 42l12 -11l-126 -594
q-8 -39 -8 -46q0 -23 14 -23q15 0 39 17l44 31zM349 410q-45 23 -106 23q-39 0 -59 -15q-37 -28 -66 -126.5t-29 -193.5q0 -39 25 -39q14 0 41 16t53 41q100 96 129 235z" />
    <glyph glyph-name="e" unicode="e" horiz-adv-x="389" 
d="M336 92q-70 -56 -116 -79.5t-89 -23.5q-54 0 -85 32.5t-31 90.5q0 52 19 127t42 112q30 48 97.5 89.5t116.5 41.5q38 0 61 -21.5t23 -56.5q0 -90 -124 -145q-47 -20 -69 -25l-82 -20q-8 -39 -8 -80q0 -46 20 -72t56 -26q56 0 137 58l24 17zM300 388q0 24 -13 38t-35 14
q-43 0 -76 -31q-39 -37 -63 -135l-9 -37q64 14 109 35q39 19 63 51t24 65z" />
    <glyph glyph-name="f" unicode="f" horiz-adv-x="278" 
d="M413 720l-5 -15l-23 -67l-10 -4q-24 39 -72 39q-67 0 -90 -124l-21 -112h16q60 0 84 7l7 2l4 -7q-10 -24 -17 -56h-104q-3 -19 -10 -49t-9 -39q-56 -266 -83.5 -352.5t-72.5 -140.5q-29 -35 -66 -56.5t-68 -21.5q-21 0 -35 8q13 24 23 80l14 4q22 -29 52 -29q55 0 84 90
q35 109 89 450l9 56h-81l5 22q39 14 86 37l15 79q15 79 45 109q17 18 64 53t65 43q14 7 35 7q42 0 70 -13z" />
    <glyph glyph-name="g" unicode="g" horiz-adv-x="500" 
d="M498 427l-9 -45q-31 -4 -50 -4h-34l1 -3q3 -15 3 -33q0 -67 -48 -122.5t-121 -73.5q-1 -1 -1.5 -2t-2 -3t-2.5 -3q-21 -27 -21 -38q0 -28 47 -65l60 -49q64 -52 64 -107q0 -62 -72.5 -108.5t-169.5 -46.5q-82 0 -130.5 32t-48.5 85q0 63 53 107q46 39 144 71
q-21 18 -21 33q0 22 27 47l41 38q-11 -1 -30 -1q-58 0 -90 32.5t-32 90.5q0 107 85 171q69 52 135 52q33 0 67 -13q31 -12 51 -45q66 0 102 9zM318 -154q0 45 -65 96l-77 59q-66 -19 -99 -46q-50 -42 -50 -100q0 -46 38.5 -74.5t100.5 -28.5t107 27.5t45 66.5zM337 341
q0 107 -87 107q-55 0 -89.5 -44.5t-34.5 -115.5q0 -120 93 -120q53 0 85.5 48t32.5 125z" />
    <glyph glyph-name="h" unicode="h" horiz-adv-x="500" 
d="M471 85q-73 -55 -106.5 -74.5t-53.5 -19.5q-30 0 -30 39q0 25 13 77l51 196q15 55 15 89q0 22 -22 22q-32 0 -94.5 -58.5t-95.5 -119.5q-40 -74 -62 -229l-69 -16l-7 11q41 123 88 386l42 234q2 14 2 24q0 24 -34 24h-48l4 21q94 9 160 42l12 -11l-98 -457l20 25
q61 75 98 106q102 86 158 86q29 0 29 -36q0 -26 -11 -74l-64 -256q-7 -26 -7 -40q0 -20 13 -20q15 0 61 30l26 17z" />
    <glyph glyph-name="i" unicode="i" horiz-adv-x="278" 
d="M241 85q-73 -54 -107 -74t-53 -20q-30 0 -30 39q0 31 13 77l66 240q8 30 8 44q0 21 -17 21q-13 0 -48 -23l-32 -21l-7 20l28 20q104 74 134 74q25 0 25 -26q0 -10 -6 -36l-77 -304q-7 -26 -7 -40q0 -20 13 -20q16 0 61 30l26 17zM264 616q0 -29 -15.5 -48t-38.5 -19
q-19 0 -29.5 11t-10.5 30q0 26 18 46.5t40 20.5q16 0 26 -11.5t10 -29.5z" />
    <glyph glyph-name="j" unicode="j" horiz-adv-x="278" 
d="M222 420l-76 -350q-37 -167 -64 -228q-54 -118 -114 -118q-24 0 -38 7l8 57q32 -19 53 -19q29 0 47 87l100 495q7 30 7 40t-5 16.5t-13 6.5q-9 0 -26 -11.5t-21 -13.5l-32 -21l-7 20l28 20q104 74 134 74q25 0 25 -25q0 -11 -6 -37zM271 616q0 -29 -15.5 -48t-38.5 -19
q-19 0 -29.5 11t-10.5 30q0 26 18 46.5t40 20.5q16 0 26 -11.5t10 -29.5z" />
    <glyph glyph-name="k" unicode="k" horiz-adv-x="444" 
d="M427 67l-46 -32q-62 -44 -81 -44t-46.5 59t-79.5 209q-53 -53 -67 -127l-23 -124l-67 -17l-9 10q69 276 82 353l48 268q2 14 2 24q0 24 -34 24h-48l4 21q94 9 160 42l12 -11l-107 -492q94 132 159.5 192t114.5 60q21 0 48 -9l-17 -63q-25 6 -36 6q-71 0 -157 -86l-14 -14
q49 -156 96 -241q12 -23 26 -23q11 0 29 10l43 24z" />
    <glyph glyph-name="l" unicode="l" horiz-adv-x="278" 
d="M226 85q-73 -54 -107 -74t-53 -20q-30 0 -30 39q0 31 19 102l96 468q6 36 6 48q0 22 -34 22h-48l4 21q94 9 160 42l12 -11l-129 -609q-6 -24 -6 -37q0 -20 13 -20q16 0 61 30l26 17z" />
    <glyph glyph-name="m" unicode="m" horiz-adv-x="778" 
d="M740 85q-73 -55 -106.5 -74.5t-53.5 -19.5q-30 0 -30 40q0 31 13 76l43 157q25 91 25 125q0 25 -13 25q-50 0 -137 -96q-69 -76 -94 -205l-21 -107l-69 -15l-5 11l16 67q63 263 63 324q0 21 -11 21q-46 0 -115 -76q-41 -45 -64.5 -96t-41.5 -134l-22 -102l-68 -15l-3 11
q31 107 56.5 228t25.5 159q0 25 -18 25q-10 0 -47 -25l-32 -21l-7 20l28 20q103 74 133 74q23 0 23 -31q0 -19 -6 -43l-33 -133q48 65 71.5 91t57.5 52q84 64 131 64q26 0 26 -31q0 -7 -7 -42l-30 -137q37 51 68 83t79 66q87 61 128 61q26 0 26 -28q0 -11 -7 -41l-75 -297
q-7 -29 -7 -40q0 -20 13 -20q15 0 61 30l26 17z" />
    <glyph glyph-name="n" unicode="n" horiz-adv-x="556" 
d="M514 85q-73 -55 -106.5 -74.5t-53.5 -19.5q-30 0 -30 40q0 23 13 76l52 212q11 44 11 71q0 24 -17 24q-34 0 -83.5 -41.5t-90.5 -104.5q-34 -52 -53 -109t-33 -151q-26 -5 -70 -17l-7 11q31 107 56.5 228t25.5 159q0 25 -18 25q-10 0 -47 -25l-32 -21l-7 20l28 20
q104 74 133 74q23 0 23 -33q0 -14 -6 -41l-38 -161q69 97 118 142q44 41 91.5 67t78.5 26t31 -36q0 -28 -11 -74l-66 -276q-2 -8 -2 -20q0 -20 13 -20q15 0 61 30l26 17z" />
    <glyph glyph-name="o" unicode="o" horiz-adv-x="444" 
d="M411 331q0 -76 -30 -153t-76 -121q-73 -68 -160 -68q-62 0 -95 42t-33 121q0 92 32.5 165t93.5 116q69 49 135 49q62 0 97.5 -40t35.5 -111zM335 315q0 129 -94 129q-40 0 -60 -17q-37 -30 -62.5 -110.5t-25.5 -165.5q0 -59 24 -91.5t68 -32.5q47 0 75 33q33 40 54 111.5
t21 143.5z" />
    <glyph glyph-name="p" unicode="p" horiz-adv-x="500" 
d="M465 371q0 -56 -22 -128t-53 -118q-32 -47 -102 -91.5t-112 -44.5q-20 0 -52 11l-9 3l-42 -262q-41 -6 -73 -17l-7 6l8 37l49 241l58 343q4 20 4 38q0 23 -17 23q-12 0 -48 -23l-32 -21l-7 20l28 20q103 74 133 74q22 0 22 -30q0 -16 -5 -44l-24 -119q44 73 97 120
q84 73 147 73q27 0 43 -30.5t16 -80.5zM393 356q0 68 -38 68q-62 0 -128.5 -81.5t-83.5 -177.5l-18 -106q37 -23 82 -23q63 0 93 44q40 57 66.5 136t26.5 140z" />
    <glyph glyph-name="q" unicode="q" horiz-adv-x="463" 
d="M432 474q-13 -40 -27 -118l-86 -456q-12 -68 -19 -159q-39 -5 -86 -17l-9 14q21 23 27 57l76 414q-57 -101 -167 -184l-8 -6q-40 -30 -73 -30q-36 0 -36 89q0 77 24.5 169t54.5 127q39 45 102 83q41 25 79 25q40 0 101 -24l33 22zM351 406q-62 27 -97 27q-54 0 -73 -24
q-31 -37 -58 -130.5t-27 -165.5q0 -54 22 -54t62.5 31.5t79.5 79.5q54 67 70 141z" />
    <glyph glyph-name="r" unicode="r" horiz-adv-x="389" 
d="M368 365h-14q-15 19 -36 19q-33 0 -83 -65q-60 -78 -85 -193l-26 -120q-44 -8 -67 -15l-10 7q30 95 56.5 221.5t26.5 170.5q0 22 -17 22q-12 0 -48 -23l-32 -21l-7 20l28 20q103 74 133 74q23 0 23 -32q0 -15 -12 -68l-26 -126q22 47 94 151q53 75 98 75q7 0 20 -6
q-12 -62 -16 -111z" />
    <glyph glyph-name="s" unicode="s" horiz-adv-x="389" 
d="M334 174q0 -71 -72 -127q-74 -58 -146 -58q-53 0 -107 27q15 64 22 132h25v-84q41 -35 94 -35t85 29.5t32 79.5q0 30 -13.5 44.5t-46.5 20.5l-63 12q-97 19 -97 101q0 50 37 88q76 78 161 78q45 0 100 -27q-13 -60 -19 -113h-23v55q-12 20 -38 32.5t-57 12.5
q-43 0 -72.5 -27t-29.5 -67q0 -31 17 -46t62 -23l43 -8q56 -10 81 -33t25 -64z" />
    <glyph glyph-name="t" unicode="t" 
d="M265 99q-9 -7 -15.5 -12.5t-15.5 -12.5q-60 -48 -91 -65.5t-57 -17.5q-30 0 -30 40q0 11 13 76l56 283h-84l2 13q25 7 88 37l25 170q51 20 78 36l11 -15q-23 -70 -45 -197q53 0 110 6l-11 -50h-107l-13 -62q-43 -205 -43 -252q0 -20 13 -20q18 0 61 30l45 31z" />
    <glyph glyph-name="u" unicode="u" horiz-adv-x="556" 
d="M512 85q-75 -56 -108 -76t-52 -20q-30 0 -30 42q0 27 11 66l37 142q-63 -103 -142 -176.5t-126 -73.5q-15 0 -25 11.5t-10 28.5q0 28 4 48l63 297q2 10 2 18q0 20 -17 20q-13 0 -48 -23l-32 -21l-7 20l28 20q103 74 133 74q22 0 22 -31q0 -16 -5 -43l-57 -271
q-7 -36 -7 -52q0 -26 13 -26q31 0 83.5 48.5t96.5 117.5q45 71 68 189l10 51l68 17l7 -9l-84 -357q-6 -24 -6 -40q0 -17 13 -17q19 0 61 27l26 17z" />
    <glyph glyph-name="v" unicode="v" horiz-adv-x="500" 
d="M477 384q0 -68 -39 -157q-49 -108 -126 -179q-66 -59 -126 -59q-48 0 -79 37t-31 95q0 75 35 144t118 159q-35 -4 -63 -4q-9 0 -27.5 1t-27.5 1q-39 0 -51 -28l-17 -42h-22q19 82 38 118q18 8 32 7q96 -7 123 -7q34 0 61 12l10 -18q-73 -91 -105 -165t-32 -153
q0 -49 21.5 -78t58.5 -29q66 0 125.5 100t59.5 211q0 63 -43 63q-14 0 -27 -9l-11 19l50 47q12 12 33 12q27 0 44.5 -27.5t17.5 -70.5z" />
    <glyph glyph-name="w" unicode="w" horiz-adv-x="722" 
d="M699 384q0 -68 -39 -157q-47 -103 -117 -170.5t-131 -67.5q-34 0 -54 29t-20 77q0 33 12 92q-56 -108 -99 -153t-91 -45q-40 0 -64 37.5t-24 99.5q0 64 28.5 123.5t95.5 138.5l30 36q-33 -4 -59 -4q-9 0 -28 1t-28 1q-39 0 -51 -28l-17 -42h-22q19 82 38 118q18 8 32 7
q96 -7 123 -7q34 0 61 12l10 -18q-74 -84 -107 -161.5t-33 -166.5q0 -44 16 -70.5t42 -26.5q46 0 108 116q39 72 55 156l29 149l74 22l7 -8l-52 -184q-21 -75 -21 -156q0 -41 14 -68t36 -27q41 0 84 47t70.5 120t27.5 144q0 63 -43 63q-14 0 -27 -9l-11 19l50 47
q12 12 33 12q27 0 44.5 -27.5t17.5 -70.5z" />
    <glyph glyph-name="x" unicode="x" horiz-adv-x="500" 
d="M449 79l-49 -44q-51 -46 -86 -46q-52 0 -72 124l-11 69l-76 -117q-50 -76 -103 -76q-21 0 -43 12q1 3 2 9.5t2 12.5q8 43 8 65l20 3l11 -28q4 -9 28 -9q41 0 105 99l40 62l-11 62q-24 139 -72 139q-27 0 -69 -48l-17 10l58 83q15 21 57 21q44 0 66.5 -30.5t31.5 -104.5
l6 -48l37 55q46 69 79 98.5t63 29.5q13 0 30 -10l-15 -85l-14 -4q-8 23 -33 23q-23 0 -46.5 -19.5t-58.5 -68.5l-35 -49l18 -101q9 -51 25 -85q15 -30 38 -30t77 45z" />
    <glyph glyph-name="y" unicode="y" horiz-adv-x="500" 
d="M490 473l-141 -440q-44 -139 -120 -224t-155 -85q-34 0 -58 23t-24 55q0 11 1 18l48 34l10 -4q-2 -18 -2 -22q0 -26 18 -44t44 -18q53 0 93 58.5t78 191.5l49 171q-56 -85 -112 -141.5t-84 -56.5q-19 0 -31.5 20t-11.5 51l1 40l17 243q4 67 -21 67q-10 0 -25 -12l-50 -30
l-11 18l82 56q58 40 75 40q24 0 24 -63q0 -35 -4 -97l-15 -194q-5 -61 19 -61q16 0 48 28.5t58 66.5q59 88 80 169l35 132q31 3 74 19z" />
    <glyph glyph-name="z" unicode="z" horiz-adv-x="444" 
d="M402 142q-19 -82 -30 -143q-36 -10 -50 -10q-32 0 -118 20q-68 17 -105 17q-51 0 -91 -32l-9 27l353 400q-45 -23 -93 -23q-32 0 -81 10q-25 5 -45 5q-18 0 -39 -5l-30 -58h-21l32 122q34 10 61 10q21 0 80 -16q78 -21 134 -21q20 0 34 14l23 23l9 -9l-6 -32l-339 -382
q50 21 95 21q29 0 86 -12q48 -11 67 -11q29 0 39 25l22 60h22z" />
    <glyph glyph-name="braceleft" unicode="{" 
d="M175 -100q-68 1 -95 13q-40 18 -40 77q0 24 5 56l27 156q4 21 4 45q0 28 -13 42.5t-48 25.5q46 13 67 37.5t29 74.5l29 172q13 77 51.5 105.5t127.5 28.5q-48 -12 -71 -38.5t-33 -81.5l-30 -172q-10 -61 -32.5 -87t-73.5 -39q37 -11 52 -27.5t15 -46.5q0 -25 -6 -59
l-28 -162q-3 -20 -3 -37q0 -37 14.5 -55t51.5 -28z" />
    <glyph glyph-name="bar" unicode="|" horiz-adv-x="606" 
d="M331 -100h-56v833h56v-833z" />
    <glyph glyph-name="braceright" unicode="}" 
d="M318 318q-46 -13 -67 -37.5t-29 -74.5l-29 -172q-13 -77 -51.5 -105.5t-127.5 -28.5q48 12 71 38.5t33 81.5l30 172q10 61 32.5 87t73.5 39q-37 10 -52 27t-15 47q0 24 6 59l28 162q3 18 3 37q0 37 -14.5 55t-51.5 28q68 -1 95 -13q40 -18 40 -78q0 -23 -5 -55l-27 -156
q-4 -21 -4 -46q0 -27 13.5 -42t47.5 -25z" />
    <glyph glyph-name="asciitilde" unicode="~" horiz-adv-x="606" 
d="M555 301q-62 -113 -138 -113q-33 0 -130 41q-48 20 -63 25t-33 5q-30 0 -53 -19.5t-53 -70.5l-34 27q37 65 69 92.5t70 27.5q39 0 128 -39q75 -33 98 -33q58 0 105 84z" />
    <glyph glyph-name="uni00A0" unicode="&#xa0;" 
 />
    <glyph glyph-name="exclamdown" unicode="&#xa1;" 
d="M338 423q0 -29 -17.5 -49.5t-42.5 -20.5q-19 0 -32 14t-13 34q0 28 18 48.5t43 20.5q20 0 32 -12.5t12 -34.5zM218 -245l-85 -26l-11 9l123 516l30 17l6 -3l-21 -154l-35 -288z" />
    <glyph glyph-name="cent" unicode="&#xa2;" horiz-adv-x="500" 
d="M386 95l-60 -49q-69 -55 -163 -57l-34 -85h-32l35 94q-23 7 -34.5 16.5t-22.5 30.5q-19 38 -19 95q0 82 32.5 160t81.5 113q84 59 146 67l27 71h33l-27 -71q37 0 69 -22q-18 -82 -21 -128h-23v64q0 17 -44 33l-146 -382q15 -5 26 -5q69 0 169 75zM297 432q-6 1 -14 1
q-28 0 -54 -14t-40 -37q-20 -31 -39.5 -109t-19.5 -124q0 -53 27 -85z" />
    <glyph glyph-name="sterling" unicode="&#xa3;" horiz-adv-x="500" 
d="M477 159l-36 -158q-24 -15 -59 -15q-26 0 -152 25l-5 1l-6 1l-6 1q-67 12 -97 12q-21 0 -29.5 -2.5t-22.5 -13.5q-19 -15 -41 -28q-21 9 -21 45q57 30 82 87t42 185l3 23h-95l7 35h94q18 106 41.5 166t66.5 109q67 76 142 76q49 0 94 -28q-18 -53 -19 -122h-23v54
q0 20 -26.5 35.5t-61.5 15.5q-76 0 -94 -94l-5 -25l-31 -144l-10 -43h142l-7 -35h-143q-29 -114 -52.5 -168.5t-57.5 -89.5q52 15 85 15q20 0 60 -5l59 -8q26 -4 44 -4h30q20 0 26 1q24 3 36 36l22 60h24z" />
    <glyph glyph-name="currency" unicode="&#xa4;" horiz-adv-x="500" 
d="M486 149l-31 -31l-55 53q-70 -56 -150 -56q-81 0 -150 56l-55 -53l-31 31l54 54q-51 66 -51 143q0 83 53 143l-56 56l31 32l57 -56q64 54 148 54q83 0 148 -54l57 56l31 -32l-56 -56q53 -62 53 -143q0 -75 -51 -143zM431 346q0 75 -52.5 126t-130.5 51q-75 0 -127 -52
t-52 -126t52.5 -126t128.5 -52t128.5 52t52.5 127z" />
    <glyph glyph-name="yen" unicode="&#xa5;" horiz-adv-x="500" 
d="M508 621q-38 -9 -67.5 -41t-78.5 -113l-6 -10q-20 -33 -35 -70l-19 -43h96l-6 -34h-102q-10 -23 -15 -73h111l-6 -34h-110l-16 -110q-3 -24 -3 -35q0 -16 7 -22t24 -8l41 -3l-2 -28h-23l-82 3l-72 -2l-46 -1l3 28l41 3q26 1 32 15q5 7 18 82l13 78h-115l6 34h114
q2 11 2 22q0 19 -7 51h-99l6 34h84l-9 42q-29 132 -55.5 188t-60.5 56q-12 0 -36 -12v24q34 29 61 57q50 2 88 -85.5t77 -294.5q71 179 130 266t121 106z" />
    <glyph glyph-name="brokenbar" unicode="&#xa6;" horiz-adv-x="606" 
d="M331 400h-56v333h56v-333zM331 -100h-56v333h56v-333z" />
    <glyph glyph-name="section" unicode="&#xa7;" horiz-adv-x="500" 
d="M446 252q0 -91 -107 -157q29 -26 40 -47t11 -51q0 -81 -78 -152q-69 -65 -153 -65q-83 0 -145 52l33 141l24 -2l-6 -86q51 -59 126 -59q59 0 99 37.5t40 92.5q0 37 -20 62t-74 54l-51 28q-76 42 -106 76t-30 79q0 46 23.5 79.5t85.5 78.5q-41 45 -41 84q0 76 74 147
q63 62 145 62q71 0 127 -40l-31 -129h-25l5 80q-44 44 -108 44q-55 0 -92.5 -34t-37.5 -84q0 -53 46 -82l123 -76q60 -37 77 -58q26 -32 26 -75zM384 217q0 33 -20 58t-68 54l-119 70q-65 -54 -65 -111q0 -60 90 -111l116 -66q36 29 51 53t15 53z" />
    <glyph glyph-name="dieresis" unicode="&#xa8;" 
d="M239 616q0 -29 -15.5 -48t-38.5 -19q-19 0 -29.5 11t-10.5 30q0 26 18 46.5t40 20.5q16 0 26 -11.5t10 -29.5zM399 616q0 -29 -15.5 -48t-38.5 -19q-19 0 -29.5 11t-10.5 30q0 26 18 46.5t40 20.5q16 0 26 -11.5t10 -29.5z" />
    <glyph glyph-name="copyright" unicode="&#xa9;" horiz-adv-x="747" 
d="M718 324q0 -142 -100.5 -242.5t-243.5 -100.5q-142 0 -242.5 100.5t-100.5 242.5q0 143 100.5 243.5t242.5 100.5t243 -101t101 -243zM682 324q0 128 -90 218t-218 90q-127 0 -217 -90t-90 -218t89.5 -217.5t217.5 -89.5t218 90t90 217zM561 503q-11 -34 -16 -86h-23
l-1 48q-45 26 -106 26q-67 0 -108 -38q-56 -51 -54 -148q2 -72 38.5 -110t105.5 -38q35 0 63.5 9t71.5 33l10 -6l-7 -24q-77 -48 -159 -48q-90 0 -139.5 44t-50.5 126q-2 128 106 195q67 41 147 41q53 0 122 -24z" />
    <glyph glyph-name="ordfeminine" unicode="&#xaa;" 
d="M321 461q-76 -57 -94 -57q-16 0 -16 22q0 9 4 31l16 78q-36 -49 -58.5 -72.5t-49.5 -40.5q-29 -18 -41 -18q-9 0 -15.5 14.5t-6.5 35.5q0 45 21.5 110.5t43.5 85.5q54 49 110 49q24 0 56 -11l21 11l7 -5l-59 -223l-1 -8q0 -17 12 -17q10 0 32 17q8 6 10 8l4 2zM265 659
q-37 11 -57 11q-29 0 -41.5 -11t-25.5 -46l-17 -47q-17 -46 -17 -98q0 -21 11 -21q17 0 51 32t52 64q22 37 44 116zM301 350h-263l6 34h263z" />
    <glyph glyph-name="guillemotleft" unicode="&#xab;" horiz-adv-x="500" 
d="M228 85l-20 -15l-151 181v16l194 173l19 -16l-137 -168zM395 85l-20 -15l-151 181v16l194 173l19 -16l-137 -168z" />
    <glyph glyph-name="logicalnot" unicode="&#xac;" horiz-adv-x="606" 
d="M566 164h-56v144l-470 1v56h526v-201z" />
    <glyph glyph-name="uni00AD" unicode="&#xad;" 
d="M304 281l-18 -58h-267l19 58h266z" />
    <glyph glyph-name="registered" unicode="&#xae;" horiz-adv-x="747" 
d="M718 324q0 -142 -100.5 -242.5t-243.5 -100.5q-142 0 -242.5 100.5t-100.5 242.5q0 143 100.5 243.5t242.5 100.5t243 -101t101 -243zM682 324q0 128 -90 218t-218 90q-127 0 -217 -90t-90 -218t89.5 -217.5t217.5 -89.5t218 90t90 217zM567 128q-19 3 -38 3
q-25 0 -49 -3l-147 202l3 16h29q40 0 71 26t30 61q-1 28 -22.5 44t-52.5 16q-14 0 -40 -4l-3 -13l-5 -22l-47 -268q-2 -14 -2 -19q0 -12 17 -14l30 -2l-2 -23q-39 3 -77 3q-40 0 -81 -3l3 23l26 2q7 0 11.5 4t7.5 13.5t4.5 14.5t3.5 18l42 240q5 31 4 41q0 12 -16 12l-34 1
l2 23q31 -2 93 -2q16 0 46 1t45 1q48 0 80.5 -19.5t33.5 -57.5q0 -54 -54 -89q-29 -19 -69 -26l112 -149q20 -25 44 -28z" />
    <glyph glyph-name="macron" unicode="&#xaf;" 
d="M429 629l-11 -51h-301l11 51h301z" />
    <glyph glyph-name="degree" unicode="&#xb0;" horiz-adv-x="400" 
d="M390 537q0 -60 -44.5 -104t-105.5 -44q-62 0 -106 44t-44 107q0 62 44 105.5t106 43.5t106 -44.5t44 -107.5zM350 538q0 46 -32.5 78.5t-78.5 32.5q-45 0 -77 -32t-32 -77q0 -46 32 -78.5t78 -32.5q45 0 77.5 32.5t32.5 76.5z" />
    <glyph glyph-name="plusminus" unicode="&#xb1;" horiz-adv-x="606" 
d="M566 278h-235v-172h-56v172h-235v56h235v235h56v-235h235v-56zM566 0h-526v56h526v-56z" />
    <glyph glyph-name="two.superior" unicode="&#xb2;" horiz-adv-x="300" 
d="M286 319l-11 -41l-62 1q-10 0 -36 0.5t-32 0.5q-7 0 -34 -0.5t-36 -0.5l-62 -1v21q124 122 168.5 183.5t44.5 110.5q0 59 -64 59q-30 0 -48.5 -13t-40.5 -48l-18 10l39 72q38 26 86 26q50 0 80 -26.5t30 -71.5q0 -64 -58 -122l-160 -158h136q35 0 74 9z" />
    <glyph glyph-name="three.superior" unicode="&#xb3;" horiz-adv-x="300" 
d="M304 421q0 -61 -53 -104.5t-128 -43.5q-54 0 -95 26l18 87l22 -3q-3 -13 -3 -26q0 -28 20 -43t57 -15q41 0 70.5 35t29.5 83q0 35 -21.5 54.5t-61.5 19.5q-20 0 -49 -10l-4 13l11 30h16l14 -1q39 -3 66.5 23.5t27.5 63.5q0 20 -18 34t-45 14q-37 0 -64 -34l-13 -17
l-15 10l38 63q45 19 76 19q44 0 71.5 -22t27.5 -56q0 -33 -22 -57.5t-74 -48.5q55 -11 78 -32.5t23 -61.5z" />
    <glyph glyph-name="acute" unicode="&#xb4;" 
d="M382 656q0 -20 -28 -37l-162 -101h-34l153 151q18 18 33 18t26.5 -9.5t11.5 -21.5z" />
    <glyph glyph-name="mu" unicode="&#xb5;" horiz-adv-x="556" 
d="M513 85q-74 -55 -107.5 -74.5t-53.5 -19.5q-30 0 -30 40q0 20 14 76l36 132q-33 -56 -90 -121q-51 -57 -97 -93t-68 -36q-9 0 -18 3l-5 1l-9 -175q-2 -20 -33 -32l-30 -12l-9 8l124 592q0 2 1 9t2 9q0 8 -5 14t-12 6q-12 0 -49 -23l-32 -21l-7 20l29 20q103 74 133 74
q22 0 22 -32q0 -17 -5 -42l-60 -271q-7 -35 -7 -52q0 -26 13 -26q30 0 81.5 47t96.5 115q48 74 73 193l10 51l68 17l7 -9l-87 -357l-1 -6q-5 -25 -5 -34q0 -17 13 -17q20 0 61 27l26 17z" />
    <glyph glyph-name="paragraph" unicode="&#xb6;" horiz-adv-x="500" 
d="M470 -224q-21 0 -66.5 2t-133.5 1q-94 -1 -137 -2t-51 -1l5 30h30q31 0 43.5 14.5t19.5 60.5l63 369q-63 9 -110 48q-100 83 -100 218q0 86 45 131t131 45l201 -3q71 -4 129 -0.5t72 3.5l-5 -30h-23q-39 0 -53.5 -13.5t-22.5 -56.5l-125 -729q-5 -32 5.5 -44.5
t44.5 -12.5h43zM304 -189l147 846h-68l-147 -846h68zM249 288l63 364q-42 5 -56 5q-58 0 -85.5 -40t-27.5 -124q0 -176 106 -205z" />
    <glyph glyph-name="periodcentered" unicode="&#xb7;" horiz-adv-x="250" 
d="M183 250q0 -24 -17 -41t-41 -17t-41 17t-17 41t17 41t41 17t41 -17t17 -41z" />
    <glyph glyph-name="cedilla" unicode="&#xb8;" 
d="M202 -132q0 -38 -33.5 -61t-89.5 -23q-35 0 -88 20l17 29q45 -14 69 -14q23 0 38 12.5t15 32.5q0 17 -13 27.5t-34 10.5q-13 0 -26 -4l-7 -2l-9 8l62 101h38l-45 -69q22 2 24 2q38 0 60 -19t22 -51z" />
    <glyph glyph-name="one.superior" unicode="&#xb9;" horiz-adv-x="300" 
d="M281 278l-52 1q-5 0 -29.5 0.5t-28.5 0.5t-28.5 -0.5t-29.5 -0.5l-52 -1l5 24l49 6q15 1 21 9.5t10 31.5l54 300q-23 -11 -30 -12q-7 -3 -14.5 -6t-11.5 -5t-5 -2l-54 -24l-5 3l7 43q59 12 107 29l69 24l10 -6l-4 -14q-6 -22 -10 -46l-52 -280q-2 -10 -2 -20q0 -15 8 -21
t30 -7l42 -3z" />
    <glyph glyph-name="ordmasculine" unicode="&#xba;" 
d="M322 609q0 -84 -51 -144.5t-122 -60.5q-40 0 -61.5 25t-21.5 71q0 83 49.5 141t119.5 58q41 0 64 -23.5t23 -66.5zM273 601q0 75 -61 75q-43 0 -70 -47.5t-27 -122.5q0 -79 60 -79q41 0 68 46q30 55 30 128zM280 350h-244l6 34h244z" />
    <glyph glyph-name="guillemotright" unicode="&#xbb;" horiz-adv-x="500" 
d="M276 243l-194 -173l-19 16l137 168l-95 171l20 15l151 -181v-16zM443 243l-194 -173l-19 16l137 168l-95 171l20 15l151 -181v-16z" />
    <glyph glyph-name="onequarter" unicode="&#xbc;" horiz-adv-x="750" 
d="M715 142l-11 -32q-21 3 -34 3h-43l-7 -28q-4 -16 -4 -35q0 -24 21 -25l54 -3l-4 -24h-22q-12 0 -29 1q-9 1 -56 1q-48 0 -56 -1l-30 -1h-22l3 24l51 3q16 1 23.5 9t12.5 28l13 51h-165v25l219 276l45 9l9 -7l-47 -266h76zM632 386l-185 -236h137zM251 278l-52 1
q-5 0 -29.5 0.5t-28.5 0.5t-28.5 -0.5t-29.5 -0.5l-52 -1l5 24l49 6q15 1 21 9.5t10 31.5l54 300q-23 -11 -30 -12q-7 -3 -14.5 -6t-11.5 -5t-5 -2l-54 -24l-5 3l7 43q59 12 107 29l69 24l10 -6l-4 -14q-6 -22 -10 -46l-52 -280q-2 -10 -2 -20q0 -15 8 -21t30 -7l42 -3z
M661 699l-451 -699h-56l451 699h56z" />
    <glyph glyph-name="onehalf" unicode="&#xbd;" horiz-adv-x="750" 
d="M637 699l-451 -699h-56l451 699h56zM251 278l-52 1q-5 0 -29.5 0.5t-28.5 0.5t-28.5 -0.5t-29.5 -0.5l-52 -1l5 24l49 6q15 1 21 9.5t10 31.5l54 300q-23 -11 -30 -12q-7 -3 -14.5 -6t-11.5 -5t-5 -2l-54 -24l-5 3l7 43q59 12 107 29l69 24l10 -6l-4 -14q-6 -22 -10 -46
l-52 -280q-2 -10 -2 -20q0 -15 8 -21t30 -7l42 -3zM717 39l-11 -41h-26q-15 0 -36 1q-10 1 -68 1q-59 0 -70 -1l-36 -1h-26v21q124 122 168.5 183.5t44.5 110.5q0 59 -64 59q-30 0 -48.5 -13t-40.5 -48l-18 10l39 72q38 26 86 26q50 0 80 -26.5t30 -71.5q0 -64 -58 -122
l-160 -158h136q35 0 74 9z" />
    <glyph glyph-name="threequarters" unicode="&#xbe;" horiz-adv-x="750" 
d="M311 421q0 -61 -53 -104.5t-128 -43.5q-54 0 -95 26l18 87l22 -3q-3 -13 -3 -26q0 -28 20 -43t57 -15q41 0 70.5 35t29.5 83q0 35 -21.5 54.5t-61.5 19.5q-20 0 -49 -10l-4 13l11 30h16l14 -1q39 -3 66.5 23.5t27.5 63.5q0 20 -18 34t-45 14q-37 0 -64 -34l-13 -17
l-15 10l38 63q45 19 76 19q44 0 71.5 -22t27.5 -56q0 -33 -22 -57.5t-74 -48.5q55 -11 78 -32.5t23 -61.5zM661 699l-451 -699h-56l451 699h56zM715 142l-11 -32q-21 3 -34 3h-43l-7 -28q-4 -16 -4 -35q0 -24 21 -25l54 -3l-4 -24h-22q-12 0 -29 1q-9 1 -56 1q-48 0 -56 -1
l-30 -1h-22l3 24l51 3q16 1 23.5 9t12.5 28l13 51h-165v25l219 276l45 9l9 -7l-47 -266h76zM632 386l-185 -236h137z" />
    <glyph glyph-name="questiondown" unicode="&#xbf;" horiz-adv-x="500" 
d="M466 -109l-40 -98q-60 -37 -115 -37q-70 0 -113.5 37t-43.5 97q0 74 74 145l104 100q50 47 50 77q0 23 -27 51l25 6q38 -24 38 -63q0 -49 -55 -111l-70 -79q-57 -65 -57 -116q0 -37 28 -61t71 -24q31 0 50 11.5t39 40.5l20 30zM467 423q0 -29 -17.5 -49.5t-42.5 -20.5
q-19 0 -32 14t-13 34q0 28 18 48.5t43 20.5q20 0 32 -12.5t12 -34.5z" />
    <glyph glyph-name="Agrave" unicode="&#xc0;" horiz-adv-x="722" 
d="M677 -3q-60 3 -122 3q-61 0 -122 -3v28l44 3q43 3 43 27q0 4 -2 22l-27 200h-246l-102 -175q-26 -44 -26 -55q0 -7 9 -12.5t22 -6.5l52 -3v-28q-52 3 -107 3q-57 0 -112 -3v30l20 5q26 6 44 22.5t44 57.5l373 593h46l87 -625q4 -34 12.5 -41t43.5 -11l26 -3v-28zM486 313
l-37 288l-179 -288h216zM604 748h-37l-146 82q-25 15 -20 30q3 10 18 17.5t32 7.5q18 0 29 -14z" />
    <glyph glyph-name="Aacute" unicode="&#xc1;" horiz-adv-x="722" 
d="M677 -3q-60 3 -122 3q-61 0 -122 -3v28l44 3q43 3 43 27q0 4 -2 22l-27 200h-246l-102 -175q-26 -44 -26 -55q0 -7 9 -12.5t22 -6.5l52 -3v-28q-52 3 -107 3q-57 0 -112 -3v30l20 5q26 6 44 22.5t44 57.5l373 593h46l87 -625q4 -34 12.5 -41t43.5 -11l26 -3v-28zM486 313
l-37 288l-179 -288h216zM625 860q-1 -15 -32 -30l-174 -82h-37l167 123q17 14 34 14q16 0 29 -7.5t13 -17.5z" />
    <glyph glyph-name="Acircumflex" unicode="&#xc2;" horiz-adv-x="722" 
d="M677 -3q-60 3 -122 3q-61 0 -122 -3v28l44 3q43 3 43 27q0 4 -2 22l-27 200h-246l-102 -175q-26 -44 -26 -55q0 -7 9 -12.5t22 -6.5l52 -3v-28q-52 3 -107 3q-57 0 -112 -3v30l20 5q26 6 44 22.5t44 57.5l373 593h46l87 -625q4 -34 12.5 -41t43.5 -11l26 -3v-28zM486 313
l-37 288l-179 -288h216zM635 749h-40l-87 85l-149 -85h-42l170 137h53z" />
    <glyph glyph-name="Atilde" unicode="&#xc3;" horiz-adv-x="722" 
d="M677 -3q-60 3 -122 3q-61 0 -122 -3v28l44 3q43 3 43 27q0 4 -2 22l-27 200h-246l-102 -175q-26 -44 -26 -55q0 -7 9 -12.5t22 -6.5l52 -3v-28q-52 3 -107 3q-57 0 -112 -3v30l20 5q26 6 44 22.5t44 57.5l373 593h46l87 -625q4 -34 12.5 -41t43.5 -11l26 -3v-28zM486 313
l-37 288l-179 -288h216zM669 869q-9 -49 -34.5 -76t-62.5 -27q-23 0 -64 16q-46 18 -47 19q-22 9 -38 9q-19 0 -30 -9.5t-22 -34.5h-29q15 55 38 79t60 24q27 0 63 -14l60 -24q12 -5 27 -5t25.5 9t25.5 34h28z" />
    <glyph glyph-name="Adieresis" unicode="&#xc4;" horiz-adv-x="722" 
d="M677 -3q-60 3 -122 3q-61 0 -122 -3v28l44 3q43 3 43 27q0 4 -2 22l-27 200h-246l-102 -175q-26 -44 -26 -55q0 -7 9 -12.5t22 -6.5l52 -3v-28q-52 3 -107 3q-57 0 -112 -3v30l20 5q26 6 44 22.5t44 57.5l373 593h46l87 -625q4 -34 12.5 -41t43.5 -11l26 -3v-28zM486 313
l-37 288l-179 -288h216zM471 830q0 -29 -15.5 -48t-38.5 -19q-19 0 -29.5 11t-10.5 30q0 26 18 46.5t40 20.5q16 0 26 -11.5t10 -29.5zM631 830q0 -29 -15.5 -48t-38.5 -19q-19 0 -29.5 11t-10.5 30q0 26 18 46.5t40 20.5q16 0 26 -11.5t10 -29.5z" />
    <glyph glyph-name="Aring" unicode="&#xc5;" horiz-adv-x="722" 
d="M677 -3q-60 3 -122 3q-61 0 -122 -3v28l44 3q43 3 43 27q0 4 -2 22l-27 200h-246l-102 -175q-26 -44 -26 -55q0 -7 9 -12.5t22 -6.5l52 -3v-28q-52 3 -107 3q-57 0 -112 -3v30l20 5q26 6 44 22.5t44 57.5l373 593h46l87 -625q4 -34 12.5 -41t43.5 -11l26 -3v-28zM486 313
l-37 288l-179 -288h216zM609 837q0 -42 -29.5 -71t-70.5 -29q-42 0 -71 29t-29 71t29.5 71t71.5 29q41 0 70 -29.5t29 -70.5zM571 837q0 29 -17 46.5t-45 17.5t-45 -17.5t-17 -46.5t17 -46.5t45 -17.5t45 17.5t17 46.5z" />
    <glyph glyph-name="AE" unicode="&#xc6;" horiz-adv-x="941" 
d="M846 0q-14 0 -24 -1t-26.5 -1.5t-53.5 -0.5q-35 0 -105 1.5t-105 1.5q-74 0 -148 -3l5 26q32 5 43.5 13.5t15.5 29.5l38 213h-222l-108 -181q-20 -36 -20 -44q0 -27 61 -27h24v-30q-67 3 -107 3l-118 -3v30l34 5q18 3 36 30l368 545q13 20 13 36q0 7 -11.5 13t-25.5 6
h-66v30q122 -3 243 -3q41 0 123 1.5t123 1.5q37 0 69 -3q-17 -57 -21 -152h-24l-8 89q-1 11 -27.5 17.5t-66.5 6.5l-76 -2l-47 -2q-5 -10 -9 -32l-42 -238h17l219 6l4 -7l-19 -45q-9 0 -17.5 1.5t-33.5 2t-81 0.5h-97l-43 -253q-2 -12 -2 -35q86 -7 112 -7q111 0 147 9
q16 4 24.5 15t16.5 38l16 60h27l-5 -26q-13 -73 -16 -99zM492 319l54 336h-14q-14 0 -37 -35l-205 -301h202z" />
    <glyph glyph-name="Ccedilla" unicode="&#xc7;" horiz-adv-x="667" 
d="M610 103l-10 -36q-68 -46 -126.5 -65.5t-130.5 -19.5h-5h-3l-32 -46q16 2 23 2q39 0 61 -18.5t22 -51.5q0 -38 -33.5 -61t-89.5 -23q-35 0 -88 20l17 29q43 -14 69 -14q23 0 38 12.5t15 32.5q0 17 -13 27.5t-34 10.5q-10 0 -33 -6l-9 8l51 80l-3 1q-122 12 -186.5 89
t-64.5 210q0 230 177 350q107 72 234 72q86 0 195 -41q-20 -66 -27 -146h-27v84q-78 50 -179 50q-120 0 -190 -72q-95 -97 -95 -272q0 -134 62.5 -204t180.5 -70q59 0 106.5 16t117.5 59z" />
    <glyph glyph-name="Egrave" unicode="&#xc8;" horiz-adv-x="611" 
d="M514 0q-5 0 -29.5 -1.5t-75.5 -1.5q-37 0 -112 1.5t-113 1.5q-78 0 -154 -3l5 26q33 5 45.5 11.5t14.5 20.5l87 504q9 48 9 77q0 25 -35 26l-54 2l3 28q80 -3 160 -3q40 0 118.5 1.5t117.5 1.5q36 0 69 -3q-17 -57 -21 -152h-24l-8 89q-2 24 -107 24q-41 -1 -130 -4
q-5 -10 -9 -32l-42 -238h37l219 6l4 -7l-19 -45q-9 0 -17.5 1.5t-33.5 2t-81 0.5h-117l-43 -253q-2 -12 -2 -35q74 -7 131 -7q112 0 150 10q16 4 24 15t15 37l16 60h27q-16 -80 -21 -125zM505 748h-37l-146 82q-25 15 -20 30q3 10 18.5 17.5t31.5 7.5q18 0 29 -14z" />
    <glyph glyph-name="Eacute" unicode="&#xc9;" horiz-adv-x="611" 
d="M514 0q-5 0 -29.5 -1.5t-75.5 -1.5q-37 0 -112 1.5t-113 1.5q-78 0 -154 -3l5 26q33 5 45.5 11.5t14.5 20.5l87 504q9 48 9 77q0 25 -35 26l-54 2l3 28q80 -3 160 -3q40 0 118.5 1.5t117.5 1.5q36 0 69 -3q-17 -57 -21 -152h-24l-8 89q-2 24 -107 24q-41 -1 -130 -4
q-5 -10 -9 -32l-42 -238h37l219 6l4 -7l-19 -45q-9 0 -17.5 1.5t-33.5 2t-81 0.5h-117l-43 -253q-2 -12 -2 -35q74 -7 131 -7q112 0 150 10q16 4 24 15t15 37l16 60h27q-16 -80 -21 -125zM526 860q-1 -15 -32 -30l-174 -82h-37l167 123q17 14 34 14q16 0 29 -7.5t13 -17.5z
" />
    <glyph glyph-name="Ecircumflex" unicode="&#xca;" horiz-adv-x="611" 
d="M514 0q-5 0 -29.5 -1.5t-75.5 -1.5q-37 0 -112 1.5t-113 1.5q-78 0 -154 -3l5 26q33 5 45.5 11.5t14.5 20.5l87 504q9 48 9 77q0 25 -35 26l-54 2l3 28q80 -3 160 -3q40 0 118.5 1.5t117.5 1.5q36 0 69 -3q-17 -57 -21 -152h-24l-8 89q-2 24 -107 24q-41 -1 -130 -4
q-5 -10 -9 -32l-42 -238h37l219 6l4 -7l-19 -45q-9 0 -17.5 1.5t-33.5 2t-81 0.5h-117l-43 -253q-2 -12 -2 -35q74 -7 131 -7q112 0 150 10q16 4 24 15t15 37l16 60h27q-16 -80 -21 -125zM536 749h-40l-87 85l-149 -85h-42l170 137h53z" />
    <glyph glyph-name="Edieresis" unicode="&#xcb;" horiz-adv-x="611" 
d="M514 0q-5 0 -29.5 -1.5t-75.5 -1.5q-37 0 -112 1.5t-113 1.5q-78 0 -154 -3l5 26q33 5 45.5 11.5t14.5 20.5l87 504q9 48 9 77q0 25 -35 26l-54 2l3 28q80 -3 160 -3q40 0 118.5 1.5t117.5 1.5q36 0 69 -3q-17 -57 -21 -152h-24l-8 89q-2 24 -107 24q-41 -1 -130 -4
q-5 -10 -9 -32l-42 -238h37l219 6l4 -7l-19 -45q-9 0 -17.5 1.5t-33.5 2t-81 0.5h-117l-43 -253q-2 -12 -2 -35q74 -7 131 -7q112 0 150 10q16 4 24 15t15 37l16 60h27q-16 -80 -21 -125zM372 830q0 -29 -15.5 -48t-38.5 -19q-19 0 -29.5 11t-10.5 30q0 26 18 46.5t40 20.5
q16 0 26 -11.5t10 -29.5zM532 830q0 -29 -15.5 -48t-38.5 -19q-19 0 -29.5 11t-10.5 30q0 26 18 46.5t40 20.5q16 0 26 -11.5t10 -29.5z" />
    <glyph glyph-name="Igrave" unicode="&#xcc;" 
d="M259 -3q-63 3 -126 3t-126 -3l3 28l36 3q30 2 38.5 16t19.5 81l72 434q9 49 9 77q0 25 -35 26l-47 2l3 28q68 -3 136 -3q56 0 112 3l-3 -28l-35 -3q-29 -2 -37.5 -10t-13.5 -38l-89 -535q-2 -10 -2 -21q0 -15 8 -21t28 -8l52 -3zM360 748h-37l-146 82q-25 15 -20 30
q3 10 18 17.5t32 7.5q18 0 29 -14z" />
    <glyph glyph-name="Iacute" unicode="&#xcd;" 
d="M259 -3q-63 3 -126 3t-126 -3l3 28l36 3q30 2 38.5 16t19.5 81l72 434q9 49 9 77q0 25 -35 26l-47 2l3 28q68 -3 136 -3q56 0 112 3l-3 -28l-35 -3q-29 -2 -37.5 -10t-13.5 -38l-89 -535q-2 -10 -2 -21q0 -15 8 -21t28 -8l52 -3zM381 860q-1 -15 -32 -30l-174 -82h-37
l167 123q17 14 34 14q16 0 29 -7.5t13 -17.5z" />
    <glyph glyph-name="Icircumflex" unicode="&#xce;" 
d="M259 -3q-63 3 -126 3t-126 -3l3 28l36 3q30 2 38.5 16t19.5 81l72 434q9 49 9 77q0 25 -35 26l-47 2l3 28q68 -3 136 -3q56 0 112 3l-3 -28l-35 -3q-29 -2 -37.5 -10t-13.5 -38l-89 -535q-2 -10 -2 -21q0 -15 8 -21t28 -8l52 -3zM391 749h-40l-87 85l-149 -85h-42
l170 137h53z" />
    <glyph glyph-name="Idieresis" unicode="&#xcf;" 
d="M259 -3q-63 3 -126 3t-126 -3l3 28l36 3q30 2 38.5 16t19.5 81l72 434q9 49 9 77q0 25 -35 26l-47 2l3 28q68 -3 136 -3q56 0 112 3l-3 -28l-35 -3q-29 -2 -37.5 -10t-13.5 -38l-89 -535q-2 -10 -2 -21q0 -15 8 -21t28 -8l52 -3zM227 830q0 -29 -15.5 -48t-38.5 -19
q-19 0 -29.5 11t-10.5 30q0 26 18 46.5t40 20.5q16 0 26 -11.5t10 -29.5zM387 830q0 -29 -15.5 -48t-38.5 -19q-19 0 -29.5 11t-10.5 30q0 26 18 46.5t40 20.5q16 0 26 -11.5t10 -29.5z" />
    <glyph glyph-name="Eth" unicode="&#xd0;" horiz-adv-x="778" 
d="M741 431q0 -125 -67.5 -231.5t-184.5 -165.5q-71 -37 -173 -37q-4 0 -19.5 0.5t-26.5 0.5l-94 2h-32h-23l-93 -3l5 26l8 2q24 6 33.5 12t11.5 18l50 291h-117l6 32h117l31 181q9 56 9 76q0 26 -35 27l-53 2l3 28l123 -3l204 3q156 0 226 -50q91 -64 91 -211zM649 415
q0 124 -64 182t-201 58q-22 0 -69 -3q-12 0 -25.5 -1t-21.5 -1l-46 -272h187l-6 -32h-187l-44 -253q-4 -24 -4 -37q94 -15 161 -15q133 0 214 83q106 109 106 291z" />
    <glyph glyph-name="Ntilde" unicode="&#xd1;" horiz-adv-x="778" 
d="M804 692l-5 -28l-37 -2q-20 -1 -28.5 -8t-15 -29.5t-16.5 -82.5l-94 -553h-50l-338 577l-80 -464q-3 -16 -3 -30q0 -25 9.5 -33.5t39.5 -10.5l42 -3l-5 -28q-54 3 -110 3q-55 0 -111 -3l5 28l31 3q27 2 36 14.5t18 59.5l88 474q5 15 5 30t-30 39q-19 15 -50 17l-35 2
l5 28q41 -3 81 -3t81 3l345 -589l80 489q5 32 5 46q0 23 -36 24l-47 2l5 28q53 -3 105 -3q54 0 110 3zM662 869q-9 -49 -34.5 -76t-62.5 -27q-23 0 -64 16q-46 18 -47 19q-22 9 -38 9q-19 0 -30 -9.5t-22 -34.5h-29q15 55 38 79t60 24q27 0 63 -14l60 -24q12 -5 27 -5
t25.5 9t25.5 34h28z" />
    <glyph glyph-name="Ograve" unicode="&#xd2;" horiz-adv-x="778" 
d="M748 425q0 -119 -55 -222t-149 -161q-95 -60 -221 -60q-132 0 -201 74t-69 216q0 188 116.5 311t294.5 123q135 0 209.5 -73.5t74.5 -207.5zM660 409q0 166 -97 223q-53 32 -130 32q-113 0 -183 -71q-52 -52 -80.5 -135t-28.5 -181q0 -125 55.5 -189t163.5 -64
q118 0 192 76q51 53 79.5 134t28.5 175zM583 748h-37l-146 82q-25 15 -20 30q3 10 18.5 17.5t31.5 7.5q18 0 29 -14z" />
    <glyph glyph-name="Oacute" unicode="&#xd3;" horiz-adv-x="778" 
d="M748 425q0 -119 -55 -222t-149 -161q-95 -60 -221 -60q-132 0 -201 74t-69 216q0 188 116.5 311t294.5 123q135 0 209.5 -73.5t74.5 -207.5zM660 409q0 166 -97 223q-53 32 -130 32q-113 0 -183 -71q-52 -52 -80.5 -135t-28.5 -181q0 -125 55.5 -189t163.5 -64
q118 0 192 76q51 53 79.5 134t28.5 175zM604 860q-1 -15 -32 -30l-174 -82h-37l167 123q17 14 34 14q16 0 29 -7.5t13 -17.5z" />
    <glyph glyph-name="Ocircumflex" unicode="&#xd4;" horiz-adv-x="778" 
d="M748 425q0 -119 -55 -222t-149 -161q-95 -60 -221 -60q-132 0 -201 74t-69 216q0 188 116.5 311t294.5 123q135 0 209.5 -73.5t74.5 -207.5zM660 409q0 166 -97 223q-53 32 -130 32q-113 0 -183 -71q-52 -52 -80.5 -135t-28.5 -181q0 -125 55.5 -189t163.5 -64
q118 0 192 76q51 53 79.5 134t28.5 175zM614 749h-40l-87 85l-149 -85h-42l170 137h53z" />
    <glyph glyph-name="Otilde" unicode="&#xd5;" horiz-adv-x="778" 
d="M748 425q0 -119 -55 -222t-149 -161q-95 -60 -221 -60q-132 0 -201 74t-69 216q0 188 116.5 311t294.5 123q135 0 209.5 -73.5t74.5 -207.5zM660 409q0 166 -97 223q-53 32 -130 32q-113 0 -183 -71q-52 -52 -80.5 -135t-28.5 -181q0 -125 55.5 -189t163.5 -64
q118 0 192 76q51 53 79.5 134t28.5 175zM648 869q-9 -49 -34.5 -76t-62.5 -27q-23 0 -64 16q-46 18 -47 19q-22 9 -38 9q-19 0 -30 -9.5t-22 -34.5h-29q15 55 38 79t60 24q27 0 63 -14l60 -24q12 -5 27 -5t25.5 9t25.5 34h28z" />
    <glyph glyph-name="Odieresis" unicode="&#xd6;" horiz-adv-x="778" 
d="M748 425q0 -119 -55 -222t-149 -161q-95 -60 -221 -60q-132 0 -201 74t-69 216q0 188 116.5 311t294.5 123q135 0 209.5 -73.5t74.5 -207.5zM660 409q0 166 -97 223q-53 32 -130 32q-113 0 -183 -71q-52 -52 -80.5 -135t-28.5 -181q0 -125 55.5 -189t163.5 -64
q118 0 192 76q51 53 79.5 134t28.5 175zM450 830q0 -29 -15.5 -48t-38.5 -19q-19 0 -29.5 11t-10.5 30q0 26 18 46.5t40 20.5q16 0 26 -11.5t10 -29.5zM610 830q0 -29 -15.5 -48t-38.5 -19q-19 0 -29.5 11t-10.5 30q0 26 18 46.5t40 20.5q16 0 26 -11.5t10 -29.5z" />
    <glyph glyph-name="multiply" unicode="&#xd7;" horiz-adv-x="606" 
d="M509 84l-40 -40l-166 166l-166 -166l-40 40l166 166l-166 166l40 40l166 -166l166 166l40 -40l-166 -166z" />
    <glyph glyph-name="Oslash" unicode="&#xd8;" horiz-adv-x="778" 
d="M748 432q0 -193 -120 -321.5t-299 -128.5q-116 0 -195 61l-74 -82l-28 24l78 83q-31 45 -44 91.5t-13 113.5q0 187 116.5 310t293.5 123q113 0 198 -63l72 78l29 -26l-74 -79q34 -42 47 -82.5t13 -101.5zM660 412q0 88 -36 155l-435 -470q63 -73 172 -73q117 0 191 76
q108 111 108 312zM602 600q-39 35 -77 49.5t-92 14.5q-114 0 -183 -71q-52 -53 -80.5 -136t-28.5 -182q0 -82 27 -144z" />
    <glyph glyph-name="Ugrave" unicode="&#xd9;" horiz-adv-x="778" 
d="M709 25l-5 -28q-42 3 -85 3q-44 0 -89 -3l-5 5q19 79 27 127q-39 -45 -68.5 -68t-74.5 -46q-68 -34 -133 -34q-84 0 -131.5 43.5t-47.5 120.5q0 28 6 61l64 375q7 40 7 58q0 13 -7 17.5t-27 5.5l-52 2l3 28q45 -3 90 -3q44 0 89 3l-88 -477q-7 -36 -7 -60q0 -54 37 -85
t102 -31q129 0 242 138l71 445q3 21 -4.5 30t-29.5 10l-48 2l3 28q67 -3 137 -3q56 0 113 3l-3 -28l-36 -3q-28 -2 -37 -10.5t-14 -37.5l-85 -507q-6 -38 -6 -56t32 -21zM574 748h-37l-146 82q-25 15 -20 30q3 10 18 17.5t32 7.5q18 0 29 -14z" />
    <glyph glyph-name="Uacute" unicode="&#xda;" horiz-adv-x="778" 
d="M709 25l-5 -28q-42 3 -85 3q-44 0 -89 -3l-5 5q19 79 27 127q-39 -45 -68.5 -68t-74.5 -46q-68 -34 -133 -34q-84 0 -131.5 43.5t-47.5 120.5q0 28 6 61l64 375q7 40 7 58q0 13 -7 17.5t-27 5.5l-52 2l3 28q45 -3 90 -3q44 0 89 3l-88 -477q-7 -36 -7 -60q0 -54 37 -85
t102 -31q129 0 242 138l71 445q3 21 -4.5 30t-29.5 10l-48 2l3 28q67 -3 137 -3q56 0 113 3l-3 -28l-36 -3q-28 -2 -37 -10.5t-14 -37.5l-85 -507q-6 -38 -6 -56t32 -21zM595 860q-1 -15 -32 -30l-174 -82h-37l167 123q17 14 34 14q16 0 29 -7.5t13 -17.5z" />
    <glyph glyph-name="Ucircumflex" unicode="&#xdb;" horiz-adv-x="778" 
d="M709 25l-5 -28q-42 3 -85 3q-44 0 -89 -3l-5 5q19 79 27 127q-39 -45 -68.5 -68t-74.5 -46q-68 -34 -133 -34q-84 0 -131.5 43.5t-47.5 120.5q0 28 6 61l64 375q7 40 7 58q0 13 -7 17.5t-27 5.5l-52 2l3 28q45 -3 90 -3q44 0 89 3l-88 -477q-7 -36 -7 -60q0 -54 37 -85
t102 -31q129 0 242 138l71 445q3 21 -4.5 30t-29.5 10l-48 2l3 28q67 -3 137 -3q56 0 113 3l-3 -28l-36 -3q-28 -2 -37 -10.5t-14 -37.5l-85 -507q-6 -38 -6 -56t32 -21zM605 749h-40l-87 85l-149 -85h-42l170 137h53z" />
    <glyph glyph-name="Udieresis" unicode="&#xdc;" horiz-adv-x="778" 
d="M709 25l-5 -28q-42 3 -85 3q-44 0 -89 -3l-5 5q19 79 27 127q-39 -45 -68.5 -68t-74.5 -46q-68 -34 -133 -34q-84 0 -131.5 43.5t-47.5 120.5q0 28 6 61l64 375q7 40 7 58q0 13 -7 17.5t-27 5.5l-52 2l3 28q45 -3 90 -3q44 0 89 3l-88 -477q-7 -36 -7 -60q0 -54 37 -85
t102 -31q129 0 242 138l71 445q3 21 -4.5 30t-29.5 10l-48 2l3 28q67 -3 137 -3q56 0 113 3l-3 -28l-36 -3q-28 -2 -37 -10.5t-14 -37.5l-85 -507q-6 -38 -6 -56t32 -21zM441 830q0 -29 -15.5 -48t-38.5 -19q-19 0 -29.5 11t-10.5 30q0 26 18 46.5t40 20.5q16 0 26 -11.5
t10 -29.5zM601 830q0 -29 -15.5 -48t-38.5 -19q-19 0 -29.5 11t-10.5 30q0 26 18 46.5t40 20.5q16 0 26 -11.5t10 -29.5z" />
    <glyph glyph-name="Yacute" unicode="&#xdd;" horiz-adv-x="667" 
d="M669 626q-44 -8 -80 -33.5t-79 -80.5q-55 -69 -98 -146.5t-50 -119.5l-26 -168q-2 -10 -2 -21q0 -15 8 -21t28 -8l49 -3l-3 -28q-62 3 -123 3q-70 0 -139 -3l4 28l48 3q30 2 38.5 15.5t19.5 81.5l22 132q0 12 -22 91.5t-40 128.5q-31 84 -60 121t-64 37q-14 0 -45 -12
l-3 24l79 58q69 -1 114 -83.5t101 -311.5q42 111 128 226q55 75 100 111t101 50zM544 860q-1 -15 -32 -30l-174 -82h-37l167 123q17 14 34 14q16 0 29 -7.5t13 -17.5z" />
    <glyph glyph-name="Thorn" unicode="&#xde;" horiz-adv-x="611" 
d="M570 386q0 -97 -68 -165t-165 -68q-47 0 -90 21l-4 32q40 -18 80 -18q75 0 117 45.5t42 127.5q0 147 -151 147q-23 0 -72 -8l-6 -24l-9 -44l-58 -339q-4 -24 -4 -35q0 -29 36 -30l65 -3l-3 -28l-53 1l-86 2l-90 -2l-42 -1l4 28l41 3q30 2 38 15t20 82l74 434q9 56 9 76
q0 26 -35 27l-47 2l3 28l64 -2l77 -1l90 3h24l-3 -28l-42 -3q-28 -2 -37 -10.5t-14 -37.5l-13 -71q72 0 83 1q22 1 49 1q85 0 130.5 -41t45.5 -117z" />
    <glyph glyph-name="germandbls" unicode="&#xdf;" horiz-adv-x="500" 
d="M445 165q0 -59 -59 -120t-117 -61q-35 0 -78 21q16 46 21 107h20v-56q26 -28 65 -28q36 0 59.5 25.5t23.5 65.5q0 28 -14 55l-54 105q-17 34 -17 53q0 23 32 68q5 6 13.5 18.5t12.5 18.5q42 58 57.5 92.5t15.5 67.5q0 38 -24.5 63t-61.5 25t-66.5 -22.5t-43.5 -61.5
q-10 -28 -18.5 -67t-17.5 -87.5t-13 -68.5l-72 -339q-37 -173 -112 -253q-59 -62 -121 -62q-21 0 -36 4q12 34 22 83l11 2q26 -30 53 -30q23 0 45 19t34 50q19 47 38 148l68 383h-81l4 22l56 23q32 13 33 21l15 81q8 44 24.5 68.5t57.5 56.5q44 33 93.5 55.5t80.5 22.5
q38 0 66 -30t28 -71t-18.5 -79.5t-67.5 -96.5q-27 -32 -36 -49t-9 -35q0 -29 39 -97l18 -31q31 -53 31 -79z" />
    <glyph glyph-name="agrave" unicode="&#xe0;" horiz-adv-x="444" 
d="M406 85q-116 -96 -146 -96q-24 0 -24 37q0 24 6 51l29 127q-78 -110 -138 -162q-61 -53 -95 -53q-14 0 -24 22.5t-10 54.5q0 60 21 140.5t54 147.5q19 37 46 62t74 48q37 18 75 18q36 0 85 -19l33 18l10 -9l-92 -379q-1 -3 -1 -10q0 -24 15 -24q19 0 62 36q2 2 13 11z
M319 414q-54 19 -85 19q-37 0 -58 -16.5t-39 -59.5q-26 -62 -43.5 -136t-17.5 -122q0 -40 18 -40q25 0 67.5 41t83.5 104q45 70 74 210zM380 518h-34l-126 101q-22 17 -15 37q5 12 19.5 21.5t29.5 9.5t27 -18z" />
    <glyph glyph-name="aacute" unicode="&#xe1;" horiz-adv-x="444" 
d="M406 85q-116 -96 -146 -96q-24 0 -24 37q0 24 6 51l29 127q-78 -110 -138 -162q-61 -53 -95 -53q-14 0 -24 22.5t-10 54.5q0 60 21 140.5t54 147.5q19 37 46 62t74 48q37 18 75 18q36 0 85 -19l33 18l10 -9l-92 -379q-1 -3 -1 -10q0 -24 15 -24q19 0 62 36q2 2 13 11z
M319 414q-54 19 -85 19q-37 0 -58 -16.5t-39 -59.5q-26 -62 -43.5 -136t-17.5 -122q0 -40 18 -40q25 0 67.5 41t83.5 104q45 70 74 210zM404 656q0 -20 -28 -37l-162 -101h-34l153 151q18 18 33 18t26.5 -9.5t11.5 -21.5z" />
    <glyph glyph-name="acircumflex" unicode="&#xe2;" horiz-adv-x="444" 
d="M406 85q-116 -96 -146 -96q-24 0 -24 37q0 24 6 51l29 127q-78 -110 -138 -162q-61 -53 -95 -53q-14 0 -24 22.5t-10 54.5q0 60 21 140.5t54 147.5q19 37 46 62t74 48q37 18 75 18q36 0 85 -19l33 18l10 -9l-92 -379q-1 -3 -1 -10q0 -24 15 -24q19 0 62 36q2 2 13 11z
M319 414q-54 19 -85 19q-37 0 -58 -16.5t-39 -59.5q-26 -62 -43.5 -136t-17.5 -122q0 -40 18 -40q25 0 67.5 41t83.5 104q45 70 74 210zM416 519h-36l-82 104l-137 -104h-39l157 169h49z" />
    <glyph glyph-name="atilde" unicode="&#xe3;" horiz-adv-x="444" 
d="M406 85q-116 -96 -146 -96q-24 0 -24 37q0 24 6 51l29 127q-78 -110 -138 -162q-61 -53 -95 -53q-14 0 -24 22.5t-10 54.5q0 60 21 140.5t54 147.5q19 37 46 62t74 48q37 18 75 18q36 0 85 -19l33 18l10 -9l-92 -379q-1 -3 -1 -10q0 -24 15 -24q19 0 62 36q2 2 13 11z
M319 414q-54 19 -85 19q-37 0 -58 -16.5t-39 -59.5q-26 -62 -43.5 -136t-17.5 -122q0 -40 18 -40q25 0 67.5 41t83.5 104q45 70 74 210zM459 655q-9 -49 -34.5 -76t-62.5 -27q-23 0 -64 16q-46 18 -47 19q-22 9 -38 9q-19 0 -30 -9.5t-22 -34.5h-29q15 55 38 79t60 24
q27 0 63 -14l60 -24q12 -5 27 -5t25.5 9t25.5 34h28z" />
    <glyph glyph-name="adieresis" unicode="&#xe4;" horiz-adv-x="444" 
d="M406 85q-116 -96 -146 -96q-24 0 -24 37q0 24 6 51l29 127q-78 -110 -138 -162q-61 -53 -95 -53q-14 0 -24 22.5t-10 54.5q0 60 21 140.5t54 147.5q19 37 46 62t74 48q37 18 75 18q36 0 85 -19l33 18l10 -9l-92 -379q-1 -3 -1 -10q0 -24 15 -24q19 0 62 36q2 2 13 11z
M319 414q-54 19 -85 19q-37 0 -58 -16.5t-39 -59.5q-26 -62 -43.5 -136t-17.5 -122q0 -40 18 -40q25 0 67.5 41t83.5 104q45 70 74 210zM261 616q0 -29 -15.5 -48t-38.5 -19q-19 0 -29.5 11t-10.5 30q0 26 18 46.5t40 20.5q16 0 26 -11.5t10 -29.5zM421 616q0 -29 -15.5 -48
t-38.5 -19q-19 0 -29.5 11t-10.5 30q0 26 18 46.5t40 20.5q16 0 26 -11.5t10 -29.5z" />
    <glyph glyph-name="aring" unicode="&#xe5;" horiz-adv-x="444" 
d="M406 85q-116 -96 -146 -96q-24 0 -24 37q0 24 6 51l29 127q-78 -110 -138 -162q-61 -53 -95 -53q-14 0 -24 22.5t-10 54.5q0 60 21 140.5t54 147.5q19 37 46 62t74 48q37 18 75 18q36 0 85 -19l33 18l10 -9l-92 -379q-1 -3 -1 -10q0 -24 15 -24q19 0 62 36q2 2 13 11z
M319 414q-54 19 -85 19q-37 0 -58 -16.5t-39 -59.5q-26 -62 -43.5 -136t-17.5 -122q0 -40 18 -40q25 0 67.5 41t83.5 104q45 70 74 210zM395 603q0 -42 -29.5 -71t-70.5 -29q-42 0 -71 29t-29 71t29.5 71t71.5 29q41 0 70 -29.5t29 -70.5zM357 603q0 29 -17 46.5t-45 17.5
t-45 -17.5t-17 -46.5t17 -46.5t45 -17.5t45 17.5t17 46.5z" />
    <glyph glyph-name="ae" unicode="&#xe6;" horiz-adv-x="638" 
d="M586 91q-74 -59 -116 -80.5t-87 -21.5q-47 0 -74 21.5t-41 70.5q-53 -51 -90.5 -71.5t-80.5 -20.5q-96 0 -96 103q0 160 215 160h68q6 18 6 55q0 127 -110 127q-26 0 -53 -9q-8 -7 -11 -14l-20 -58l-18 5l-6 68q5 3 12 7.5t13 8.5q36 24 59 32t56 8q53 0 84.5 -21
t54.5 -73q62 51 105 72.5t83 21.5q37 0 60.5 -22t23.5 -57q0 -37 -27.5 -73t-73.5 -59q-68 -35 -173 -41q-13 -69 -13 -98q0 -44 22.5 -70t61.5 -26q44 0 121 52q3 2 6.5 4.5t5.5 4t6 3.5l20 13zM272 170q5 16 10 58h-38q-170 0 -170 -124q0 -32 17.5 -50t49.5 -18
q43 0 79 37t52 97zM549 388q0 52 -56 52q-59 0 -102 -67q-30 -47 -38 -118q44 5 51 6q66 12 105.5 46.5t39.5 80.5z" />
    <glyph glyph-name="ccedilla" unicode="&#xe7;" horiz-adv-x="407" 
d="M354 95l-50 -41q-68 -57 -134 -64l-37 -54q16 2 23 2q39 0 61 -18.5t22 -51.5q0 -38 -33.5 -61t-89.5 -23q-35 0 -88 20l17 29q43 -14 69 -14q23 0 38 12.5t15 32.5q0 17 -13 27.5t-34 10.5q-10 0 -33 -6l-9 8l54 86q-107 11 -107 146q0 80 26 151.5t69 109.5t91 61.5
t82 23.5q59 0 96 -24q-13 -37 -24 -128h-23v60q0 18 -23.5 30.5t-57.5 12.5q-48 0 -78 -26q-36 -29 -59 -98.5t-23 -149.5q0 -119 85 -119q48 0 145 65l15 10z" />
    <glyph glyph-name="egrave" unicode="&#xe8;" horiz-adv-x="389" 
d="M336 92q-70 -56 -116 -79.5t-89 -23.5q-54 0 -85 32.5t-31 90.5q0 52 19 127t42 112q30 48 97.5 89.5t116.5 41.5q38 0 61 -21.5t23 -56.5q0 -90 -124 -145q-47 -20 -69 -25l-82 -20q-8 -39 -8 -80q0 -46 20 -72t56 -26q56 0 137 58l24 17zM300 388q0 24 -13 38t-35 14
q-43 0 -76 -31q-39 -37 -63 -135l-9 -37q64 14 109 35q39 19 63 51t24 65zM356 518h-34l-126 101q-22 17 -15 37q5 12 19.5 21.5t29.5 9.5t27 -18z" />
    <glyph glyph-name="eacute" unicode="&#xe9;" horiz-adv-x="389" 
d="M336 92q-70 -56 -116 -79.5t-89 -23.5q-54 0 -85 32.5t-31 90.5q0 52 19 127t42 112q30 48 97.5 89.5t116.5 41.5q38 0 61 -21.5t23 -56.5q0 -90 -124 -145q-47 -20 -69 -25l-82 -20q-8 -39 -8 -80q0 -46 20 -72t56 -26q56 0 137 58l24 17zM300 388q0 24 -13 38t-35 14
q-43 0 -76 -31q-39 -37 -63 -135l-9 -37q64 14 109 35q39 19 63 51t24 65zM380 656q0 -20 -28 -37l-162 -101h-34l153 151q18 18 33 18t26.5 -9.5t11.5 -21.5z" />
    <glyph glyph-name="ecircumflex" unicode="&#xea;" horiz-adv-x="389" 
d="M336 92q-70 -56 -116 -79.5t-89 -23.5q-54 0 -85 32.5t-31 90.5q0 52 19 127t42 112q30 48 97.5 89.5t116.5 41.5q38 0 61 -21.5t23 -56.5q0 -90 -124 -145q-47 -20 -69 -25l-82 -20q-8 -39 -8 -80q0 -46 20 -72t56 -26q56 0 137 58l24 17zM300 388q0 24 -13 38t-35 14
q-43 0 -76 -31q-39 -37 -63 -135l-9 -37q64 14 109 35q39 19 63 51t24 65zM392 519h-36l-82 104l-137 -104h-39l157 169h49z" />
    <glyph glyph-name="edieresis" unicode="&#xeb;" horiz-adv-x="389" 
d="M336 92q-70 -56 -116 -79.5t-89 -23.5q-54 0 -85 32.5t-31 90.5q0 52 19 127t42 112q30 48 97.5 89.5t116.5 41.5q38 0 61 -21.5t23 -56.5q0 -90 -124 -145q-47 -20 -69 -25l-82 -20q-8 -39 -8 -80q0 -46 20 -72t56 -26q56 0 137 58l24 17zM300 388q0 24 -13 38t-35 14
q-43 0 -76 -31q-39 -37 -63 -135l-9 -37q64 14 109 35q39 19 63 51t24 65zM237 616q0 -29 -15.5 -48t-38.5 -19q-19 0 -29.5 11t-10.5 30q0 26 18 46.5t40 20.5q16 0 26 -11.5t10 -29.5zM397 616q0 -29 -15.5 -48t-38.5 -19q-19 0 -29.5 11t-10.5 30q0 26 18 46.5t40 20.5
q16 0 26 -11.5t10 -29.5z" />
    <glyph glyph-name="igrave" unicode="&#xec;" horiz-adv-x="278" 
d="M241 85q-73 -54 -107 -74t-53 -20q-30 0 -30 39q0 31 13 77l66 240q8 30 8 44q0 21 -17 21q-13 0 -48 -23l-32 -21l-7 20l28 20q104 74 134 74q25 0 25 -26q0 -10 -6 -36l-77 -304q-7 -26 -7 -40q0 -20 13 -20q16 0 61 30l26 17zM302 518h-34l-126 101q-22 17 -15 37
q5 12 19.5 21.5t29.5 9.5t27 -18z" />
    <glyph glyph-name="iacute" unicode="&#xed;" horiz-adv-x="278" 
d="M241 85q-73 -54 -107 -74t-53 -20q-30 0 -30 39q0 31 13 77l66 240q8 30 8 44q0 21 -17 21q-13 0 -48 -23l-32 -21l-7 20l28 20q104 74 134 74q25 0 25 -26q0 -10 -6 -36l-77 -304q-7 -26 -7 -40q0 -20 13 -20q16 0 61 30l26 17zM326 656q0 -20 -28 -37l-162 -101h-34
l153 151q18 18 33 18t26.5 -9.5t11.5 -21.5z" />
    <glyph glyph-name="icircumflex" unicode="&#xee;" horiz-adv-x="278" 
d="M241 85q-73 -54 -107 -74t-53 -20q-30 0 -30 39q0 31 13 77l66 240q8 30 8 44q0 21 -17 21q-13 0 -48 -23l-32 -21l-7 20l28 20q104 74 134 74q25 0 25 -26q0 -10 -6 -36l-77 -304q-7 -26 -7 -40q0 -20 13 -20q16 0 61 30l26 17zM338 519h-36l-82 104l-137 -104h-39
l157 169h49z" />
    <glyph glyph-name="idieresis" unicode="&#xef;" horiz-adv-x="278" 
d="M241 85q-73 -54 -107 -74t-53 -20q-30 0 -30 39q0 31 13 77l66 240q8 30 8 44q0 21 -17 21q-13 0 -48 -23l-32 -21l-7 20l28 20q104 74 134 74q25 0 25 -26q0 -10 -6 -36l-77 -304q-7 -26 -7 -40q0 -20 13 -20q16 0 61 30l26 17zM183 616q0 -29 -15.5 -48t-38.5 -19
q-19 0 -29.5 11t-10.5 30q0 26 18 46.5t40 20.5q16 0 26 -11.5t10 -29.5zM343 616q0 -29 -15.5 -48t-38.5 -19q-19 0 -29.5 11t-10.5 30q0 26 18 46.5t40 20.5q16 0 26 -11.5t10 -29.5z" />
    <glyph glyph-name="eth" unicode="&#xf0;" horiz-adv-x="444" 
d="M478 667l-130 -63q59 -129 59 -252q0 -85 -30 -165t-82 -135q-60 -63 -146 -63q-132 0 -132 160q0 77 27 148.5t76 121.5q61 63 147 63q34 0 69 -20q-2 60 -33 120l-135 -66l-12 29l129 65q-45 60 -105 78l20 45q85 -44 131 -103l135 66zM336 326q0 118 -91 118
q-65 0 -105 -68q-21 -37 -34 -97.5t-13 -119.5q0 -132 92 -132q62 0 101 70q22 39 36 103t14 126z" />
    <glyph glyph-name="ntilde" unicode="&#xf1;" horiz-adv-x="556" 
d="M514 85q-73 -55 -106.5 -74.5t-53.5 -19.5q-30 0 -30 40q0 23 13 76l52 212q11 44 11 71q0 24 -17 24q-34 0 -83.5 -41.5t-90.5 -104.5q-34 -52 -53 -109t-33 -151q-26 -5 -70 -17l-7 11q31 107 56.5 228t25.5 159q0 25 -18 25q-10 0 -47 -25l-32 -21l-7 20l28 20
q104 74 133 74q23 0 23 -33q0 -14 -6 -41l-38 -161q69 97 118 142q44 41 91.5 67t78.5 26t31 -36q0 -28 -11 -74l-66 -276q-2 -8 -2 -20q0 -20 13 -20q15 0 61 30l26 17zM503 655q-9 -49 -34.5 -76t-62.5 -27q-23 0 -64 16q-46 18 -47 19q-22 9 -38 9q-19 0 -30 -9.5
t-22 -34.5h-29q15 55 38 79t60 24q27 0 63 -14l60 -24q12 -5 27 -5t25.5 9t25.5 34h28z" />
    <glyph glyph-name="ograve" unicode="&#xf2;" horiz-adv-x="444" 
d="M411 331q0 -76 -30 -153t-76 -121q-73 -68 -160 -68q-62 0 -95 42t-33 121q0 92 32.5 165t93.5 116q69 49 135 49q62 0 97.5 -40t35.5 -111zM335 315q0 129 -94 129q-40 0 -60 -17q-37 -30 -62.5 -110.5t-25.5 -165.5q0 -59 24 -91.5t68 -32.5q47 0 75 33q33 40 54 111.5
t21 143.5zM369 518h-34l-126 101q-22 17 -15 37q5 12 19.5 21.5t29.5 9.5t27 -18z" />
    <glyph glyph-name="oacute" unicode="&#xf3;" horiz-adv-x="444" 
d="M411 331q0 -76 -30 -153t-76 -121q-73 -68 -160 -68q-62 0 -95 42t-33 121q0 92 32.5 165t93.5 116q69 49 135 49q62 0 97.5 -40t35.5 -111zM335 315q0 129 -94 129q-40 0 -60 -17q-37 -30 -62.5 -110.5t-25.5 -165.5q0 -59 24 -91.5t68 -32.5q47 0 75 33q33 40 54 111.5
t21 143.5zM393 656q0 -20 -28 -37l-162 -101h-34l153 151q18 18 33 18t26.5 -9.5t11.5 -21.5z" />
    <glyph glyph-name="ocircumflex" unicode="&#xf4;" horiz-adv-x="444" 
d="M411 331q0 -76 -30 -153t-76 -121q-73 -68 -160 -68q-62 0 -95 42t-33 121q0 92 32.5 165t93.5 116q69 49 135 49q62 0 97.5 -40t35.5 -111zM335 315q0 129 -94 129q-40 0 -60 -17q-37 -30 -62.5 -110.5t-25.5 -165.5q0 -59 24 -91.5t68 -32.5q47 0 75 33q33 40 54 111.5
t21 143.5zM405 519h-36l-82 104l-137 -104h-39l157 169h49z" />
    <glyph glyph-name="otilde" unicode="&#xf5;" horiz-adv-x="444" 
d="M411 331q0 -76 -30 -153t-76 -121q-73 -68 -160 -68q-62 0 -95 42t-33 121q0 92 32.5 165t93.5 116q69 49 135 49q62 0 97.5 -40t35.5 -111zM335 315q0 129 -94 129q-40 0 -60 -17q-37 -30 -62.5 -110.5t-25.5 -165.5q0 -59 24 -91.5t68 -32.5q47 0 75 33q33 40 54 111.5
t21 143.5zM448 655q-9 -49 -34.5 -76t-62.5 -27q-23 0 -64 16q-46 18 -47 19q-22 9 -38 9q-19 0 -30 -9.5t-22 -34.5h-29q15 55 38 79t60 24q27 0 63 -14l60 -24q12 -5 27 -5t25.5 9t25.5 34h28z" />
    <glyph glyph-name="odieresis" unicode="&#xf6;" horiz-adv-x="444" 
d="M411 331q0 -76 -30 -153t-76 -121q-73 -68 -160 -68q-62 0 -95 42t-33 121q0 92 32.5 165t93.5 116q69 49 135 49q62 0 97.5 -40t35.5 -111zM335 315q0 129 -94 129q-40 0 -60 -17q-37 -30 -62.5 -110.5t-25.5 -165.5q0 -59 24 -91.5t68 -32.5q47 0 75 33q33 40 54 111.5
t21 143.5zM250 616q0 -29 -15.5 -48t-38.5 -19q-19 0 -29.5 11t-10.5 30q0 26 18 46.5t40 20.5q16 0 26 -11.5t10 -29.5zM410 616q0 -29 -15.5 -48t-38.5 -19q-19 0 -29.5 11t-10.5 30q0 26 18 46.5t40 20.5q16 0 26 -11.5t10 -29.5z" />
    <glyph glyph-name="divide" unicode="&#xf7;" horiz-adv-x="606" 
d="M566 222h-526v56h526v-56zM361 423q0 -24 -17 -41t-41 -17t-41 17t-17 41t17 41t41 17t41 -17t17 -41zM361 77q0 -24 -17 -41t-41 -17t-41 17t-17 41t17 41t41 17t41 -17t17 -41z" />
    <glyph glyph-name="oslash" unicode="&#xf8;" horiz-adv-x="444" 
d="M460 490l-66 -75q17 -42 17 -85q0 -65 -24 -134.5t-61 -115.5q-34 -41 -83.5 -66t-96.5 -25q-58 0 -94 40l-46 -53l-24 20l53 60q-19 38 -19 94q0 158 101 264q65 68 160 68q62 0 99 -40l60 68zM335 312q0 5 -2 23v11l-230 -260q24 -59 82 -59q61 0 100 70q21 37 35.5 99
t14.5 116zM325 384q-26 60 -83 60q-63 0 -103 -68q-21 -37 -34 -97.5t-13 -119.5q0 -13 3 -35z" />
    <glyph glyph-name="ugrave" unicode="&#xf9;" horiz-adv-x="556" 
d="M512 85q-75 -56 -108 -76t-52 -20q-30 0 -30 42q0 27 11 66l37 142q-63 -103 -142 -176.5t-126 -73.5q-15 0 -25 11.5t-10 28.5q0 28 4 48l63 297q2 10 2 18q0 20 -17 20q-13 0 -48 -23l-32 -21l-7 20l28 20q103 74 133 74q22 0 22 -31q0 -16 -5 -43l-57 -271
q-7 -36 -7 -52q0 -26 13 -26q31 0 83.5 48.5t96.5 117.5q45 71 68 189l10 51l68 17l7 -9l-84 -357q-6 -24 -6 -40q0 -17 13 -17q19 0 61 27l26 17zM427 518h-34l-126 101q-22 17 -15 37q5 12 19.5 21.5t29.5 9.5t27 -18z" />
    <glyph glyph-name="uacute" unicode="&#xfa;" horiz-adv-x="556" 
d="M512 85q-75 -56 -108 -76t-52 -20q-30 0 -30 42q0 27 11 66l37 142q-63 -103 -142 -176.5t-126 -73.5q-15 0 -25 11.5t-10 28.5q0 28 4 48l63 297q2 10 2 18q0 20 -17 20q-13 0 -48 -23l-32 -21l-7 20l28 20q103 74 133 74q22 0 22 -31q0 -16 -5 -43l-57 -271
q-7 -36 -7 -52q0 -26 13 -26q31 0 83.5 48.5t96.5 117.5q45 71 68 189l10 51l68 17l7 -9l-84 -357q-6 -24 -6 -40q0 -17 13 -17q19 0 61 27l26 17zM451 656q0 -20 -28 -37l-162 -101h-34l153 151q18 18 33 18t26.5 -9.5t11.5 -21.5z" />
    <glyph glyph-name="ucircumflex" unicode="&#xfb;" horiz-adv-x="556" 
d="M512 85q-75 -56 -108 -76t-52 -20q-30 0 -30 42q0 27 11 66l37 142q-63 -103 -142 -176.5t-126 -73.5q-15 0 -25 11.5t-10 28.5q0 28 4 48l63 297q2 10 2 18q0 20 -17 20q-13 0 -48 -23l-32 -21l-7 20l28 20q103 74 133 74q22 0 22 -31q0 -16 -5 -43l-57 -271
q-7 -36 -7 -52q0 -26 13 -26q31 0 83.5 48.5t96.5 117.5q45 71 68 189l10 51l68 17l7 -9l-84 -357q-6 -24 -6 -40q0 -17 13 -17q19 0 61 27l26 17zM463 519h-36l-82 104l-137 -104h-39l157 169h49z" />
    <glyph glyph-name="udieresis" unicode="&#xfc;" horiz-adv-x="556" 
d="M512 85q-75 -56 -108 -76t-52 -20q-30 0 -30 42q0 27 11 66l37 142q-63 -103 -142 -176.5t-126 -73.5q-15 0 -25 11.5t-10 28.5q0 28 4 48l63 297q2 10 2 18q0 20 -17 20q-13 0 -48 -23l-32 -21l-7 20l28 20q103 74 133 74q22 0 22 -31q0 -16 -5 -43l-57 -271
q-7 -36 -7 -52q0 -26 13 -26q31 0 83.5 48.5t96.5 117.5q45 71 68 189l10 51l68 17l7 -9l-84 -357q-6 -24 -6 -40q0 -17 13 -17q19 0 61 27l26 17zM308 616q0 -29 -15.5 -48t-38.5 -19q-19 0 -29.5 11t-10.5 30q0 26 18 46.5t40 20.5q16 0 26 -11.5t10 -29.5zM468 616
q0 -29 -15.5 -48t-38.5 -19q-19 0 -29.5 11t-10.5 30q0 26 18 46.5t40 20.5q16 0 26 -11.5t10 -29.5z" />
    <glyph glyph-name="yacute" unicode="&#xfd;" horiz-adv-x="500" 
d="M490 473l-141 -440q-44 -139 -120 -224t-155 -85q-34 0 -58 23t-24 55q0 11 1 18l48 34l10 -4q-2 -18 -2 -22q0 -26 18 -44t44 -18q53 0 93 58.5t78 191.5l49 171q-56 -85 -112 -141.5t-84 -56.5q-19 0 -31.5 20t-11.5 51l1 40l17 243q4 67 -21 67q-10 0 -25 -12l-50 -30
l-11 18l82 56q58 40 75 40q24 0 24 -63q0 -35 -4 -97l-15 -194q-5 -61 19 -61q16 0 48 28.5t58 66.5q59 88 80 169l35 132q31 3 74 19zM427 656q0 -20 -28 -37l-162 -101h-34l153 151q18 18 33 18t26.5 -9.5t11.5 -21.5z" />
    <glyph glyph-name="thorn" unicode="&#xfe;" horiz-adv-x="500" 
d="M433 371q0 -56 -22 -128t-53 -118q-32 -47 -102 -91.5t-112 -44.5q-20 0 -52 11l-9 3l-42 -262l-73 -17l-7 6l8 37l49 241l112 614q2 14 2 24q0 24 -34 24h-48l4 21q94 9 160 42l12 -11l-94 -434q25 43 43.5 67t47.5 51q82 76 151 76q27 0 43 -30.5t16 -80.5zM361 356
q0 68 -38 68q-62 0 -128.5 -81.5t-83.5 -177.5l-18 -106q37 -23 82 -23q63 0 93 44q40 57 66.5 136t26.5 140z" />
    <glyph glyph-name="ydieresis" unicode="&#xff;" horiz-adv-x="500" 
d="M490 473l-141 -440q-44 -139 -120 -224t-155 -85q-34 0 -58 23t-24 55q0 11 1 18l48 34l10 -4q-2 -18 -2 -22q0 -26 18 -44t44 -18q53 0 93 58.5t78 191.5l49 171q-56 -85 -112 -141.5t-84 -56.5q-19 0 -31.5 20t-11.5 51l1 40l17 243q4 67 -21 67q-10 0 -25 -12l-50 -30
l-11 18l82 56q58 40 75 40q24 0 24 -63q0 -35 -4 -97l-15 -194q-5 -61 19 -61q16 0 48 28.5t58 66.5q59 88 80 169l35 132q31 3 74 19zM284 616q0 -29 -15.5 -48t-38.5 -19q-19 0 -29.5 11t-10.5 30q0 26 18 46.5t40 20.5q16 0 26 -11.5t10 -29.5zM444 616q0 -29 -15.5 -48
t-38.5 -19q-19 0 -29.5 11t-10.5 30q0 26 18 46.5t40 20.5q16 0 26 -11.5t10 -29.5z" />
    <glyph glyph-name="Amacron" unicode="&#x100;" horiz-adv-x="722" 
d="M677 -3q-60 3 -122 3q-61 0 -122 -3v28l44 3q43 3 43 27q0 4 -2 22l-27 200h-246l-102 -175q-26 -44 -26 -55q0 -7 9 -12.5t22 -6.5l52 -3v-28q-52 3 -107 3q-57 0 -112 -3v30l20 5q26 6 44 22.5t44 57.5l373 593h46l87 -625q4 -34 12.5 -41t43.5 -11l26 -3v-28zM486 313
l-37 288l-179 -288h216zM662 843l-11 -51h-301l11 51h301z" />
    <glyph glyph-name="amacron" unicode="&#x101;" horiz-adv-x="444" 
d="M406 85q-116 -96 -146 -96q-24 0 -24 37q0 24 6 51l29 127q-78 -110 -138 -162q-61 -53 -95 -53q-14 0 -24 22.5t-10 54.5q0 60 21 140.5t54 147.5q19 37 46 62t74 48q37 18 75 18q36 0 85 -19l33 18l10 -9l-92 -379q-1 -3 -1 -10q0 -24 15 -24q19 0 62 36q2 2 13 11z
M319 414q-54 19 -85 19q-37 0 -58 -16.5t-39 -59.5q-26 -62 -43.5 -136t-17.5 -122q0 -40 18 -40q25 0 67.5 41t83.5 104q45 70 74 210zM451 629l-11 -51h-301l11 51h301z" />
    <glyph glyph-name="Abreve" unicode="&#x102;" horiz-adv-x="722" 
d="M677 -3q-60 3 -122 3q-61 0 -122 -3v28l44 3q43 3 43 27q0 4 -2 22l-27 200h-246l-102 -175q-26 -44 -26 -55q0 -7 9 -12.5t22 -6.5l52 -3v-28q-52 3 -107 3q-57 0 -112 -3v30l20 5q26 6 44 22.5t44 57.5l373 593h46l87 -625q4 -34 12.5 -41t43.5 -11l26 -3v-28zM486 313
l-37 288l-179 -288h216zM679 882q-26 -69 -70.5 -99t-113.5 -30q-71 0 -106.5 31.5t-34.5 97.5h31q8 -81 117 -81q48 0 81 18.5t65 62.5h31z" />
    <glyph glyph-name="abreve" unicode="&#x103;" horiz-adv-x="444" 
d="M406 85q-116 -96 -146 -96q-24 0 -24 37q0 24 6 51l29 127q-78 -110 -138 -162q-61 -53 -95 -53q-14 0 -24 22.5t-10 54.5q0 60 21 140.5t54 147.5q19 37 46 62t74 48q37 18 75 18q36 0 85 -19l33 18l10 -9l-92 -379q-1 -3 -1 -10q0 -24 15 -24q19 0 62 36q2 2 13 11z
M319 414q-54 19 -85 19q-37 0 -58 -16.5t-39 -59.5q-26 -62 -43.5 -136t-17.5 -122q0 -40 18 -40q25 0 67.5 41t83.5 104q45 70 74 210zM451 683q-18 -66 -45 -100q-47 -59 -125 -59q-79 0 -111 58q-20 36 -20 101h29q9 -100 109 -100q45 0 75 22.5t59 77.5h29z" />
    <glyph glyph-name="Aogonek" unicode="&#x104;" horiz-adv-x="722" 
d="M648 -166q-60 -51 -89.5 -67.5t-56.5 -16.5q-26 0 -39.5 24.5t-5.5 67.5q16 89 123 158h-25l-122 -3v28l44 3q43 3 43 27q0 4 -2 22l-27 200h-246l-102 -175q-26 -44 -26 -55q0 -7 9 -12.5t22 -6.5l52 -3v-28q-52 3 -107 3q-57 0 -112 -3v30l20 5q26 6 44 22.5t44 57.5
l373 593h46l87 -625q4 -34 12.5 -41t43.5 -11l26 -3v-28l-36 2q-45 1 -87 -58q-23 -33 -33 -83q-4 -23 8 -36.5t33 -13.5q19 0 68 36q3 2 15 11zM486 313l-37 288l-179 -288h216z" />
    <glyph glyph-name="aogonek" unicode="&#x105;" horiz-adv-x="444" 
d="M406 85l-63 -51q-72 -52 -93 -78q-34 -39 -45 -98q-4 -23 7.5 -36.5t32.5 -13.5q20 0 69 36q10 8 14 11l4 -21q-61 -52 -90 -68t-56 -16q-26 0 -39.5 24.5t-6.5 67.5q15 84 111 149q-15 7 -15 35q0 24 6 51l29 127q-78 -110 -138 -162q-61 -53 -95 -53q-14 0 -24 22.5
t-10 54.5q0 60 21 140.5t54 147.5q19 37 46 62t74 48q37 18 75 18q36 0 85 -19l33 18l10 -9l-92 -379q-1 -3 -1 -10q0 -24 15 -24q19 0 62 36q2 2 13 11zM319 414q-54 19 -85 19q-37 0 -58 -16.5t-39 -59.5q-26 -62 -43.5 -136t-17.5 -122q0 -40 18 -40q25 0 67.5 41
t83.5 104q45 70 74 210z" />
    <glyph glyph-name="Cacute" unicode="&#x106;" horiz-adv-x="667" 
d="M610 103l-10 -36q-68 -46 -126.5 -65.5t-130.5 -19.5q-144 0 -221 78t-77 224q0 230 177 350q107 72 234 72q86 0 195 -41q-20 -66 -27 -146h-27v84q-78 50 -179 50q-120 0 -190 -72q-95 -97 -95 -272q0 -134 62.5 -204t180.5 -70q59 0 106.5 16t117.5 59zM596 860
q-1 -15 -32 -30l-174 -82h-37l167 123q17 14 34 14q16 0 29 -7.5t13 -17.5z" />
    <glyph glyph-name="cacute" unicode="&#x107;" horiz-adv-x="407" 
d="M354 95l-50 -41q-79 -65 -157 -65q-122 0 -122 147q0 80 26 151.5t69 109.5t91 61.5t82 23.5q59 0 96 -24q-13 -37 -24 -128h-23v60q0 18 -23.5 30.5t-57.5 12.5q-48 0 -78 -26q-36 -29 -59 -98.5t-23 -149.5q0 -119 85 -119q48 0 145 65l15 10zM400 656q0 -20 -28 -37
l-162 -101h-34l153 151q18 18 33 18t26.5 -9.5t11.5 -21.5z" />
    <glyph glyph-name="Ccircumflex" unicode="&#x108;" horiz-adv-x="667" 
d="M610 103l-10 -36q-68 -46 -126.5 -65.5t-130.5 -19.5q-144 0 -221 78t-77 224q0 230 177 350q107 72 234 72q86 0 195 -41q-20 -66 -27 -146h-27v84q-78 50 -179 50q-120 0 -190 -72q-95 -97 -95 -272q0 -134 62.5 -204t180.5 -70q59 0 106.5 16t117.5 59zM606 749h-40
l-87 85l-149 -85h-42l170 137h53z" />
    <glyph glyph-name="ccircumflex" unicode="&#x109;" horiz-adv-x="407" 
d="M354 95l-50 -41q-79 -65 -157 -65q-122 0 -122 147q0 80 26 151.5t69 109.5t91 61.5t82 23.5q59 0 96 -24q-13 -37 -24 -128h-23v60q0 18 -23.5 30.5t-57.5 12.5q-48 0 -78 -26q-36 -29 -59 -98.5t-23 -149.5q0 -119 85 -119q48 0 145 65l15 10zM412 519h-36l-82 104
l-137 -104h-39l157 169h49z" />
    <glyph glyph-name="Cdotaccent" unicode="&#x10a;" horiz-adv-x="667" 
d="M610 103l-10 -36q-68 -46 -126.5 -65.5t-130.5 -19.5q-144 0 -221 78t-77 224q0 230 177 350q107 72 234 72q86 0 195 -41q-20 -66 -27 -146h-27v84q-78 50 -179 50q-120 0 -190 -72q-95 -97 -95 -272q0 -134 62.5 -204t180.5 -70q59 0 106.5 16t117.5 59zM523 830
q0 -29 -15.5 -48t-38.5 -19q-19 0 -29.5 11t-10.5 30q0 26 18 46.5t40 20.5q16 0 26 -11.5t10 -29.5z" />
    <glyph glyph-name="cdotaccent" unicode="&#x10b;" horiz-adv-x="407" 
d="M354 95l-50 -41q-79 -65 -157 -65q-122 0 -122 147q0 80 26 151.5t69 109.5t91 61.5t82 23.5q59 0 96 -24q-13 -37 -24 -128h-23v60q0 18 -23.5 30.5t-57.5 12.5q-48 0 -78 -26q-36 -29 -59 -98.5t-23 -149.5q0 -119 85 -119q48 0 145 65l15 10zM338 616q0 -29 -15.5 -48
t-38.5 -19q-19 0 -29.5 11t-10.5 30q0 26 18 46.5t40 20.5q16 0 26 -11.5t10 -29.5z" />
    <glyph glyph-name="Ccaron" unicode="&#x10c;" horiz-adv-x="667" 
d="M610 103l-10 -36q-68 -46 -126.5 -65.5t-130.5 -19.5q-144 0 -221 78t-77 224q0 230 177 350q107 72 234 72q86 0 195 -41q-20 -66 -27 -146h-27v84q-78 50 -179 50q-120 0 -190 -72q-95 -97 -95 -272q0 -134 62.5 -204t180.5 -70q59 0 106.5 16t117.5 59zM661 886
l-171 -137h-53l-94 137h40l87 -85l149 85h42z" />
    <glyph glyph-name="ccaron" unicode="&#x10d;" horiz-adv-x="407" 
d="M354 95l-50 -41q-79 -65 -157 -65q-122 0 -122 147q0 80 26 151.5t69 109.5t91 61.5t82 23.5q59 0 96 -24q-13 -37 -24 -128h-23v60q0 18 -23.5 30.5t-57.5 12.5q-48 0 -78 -26q-36 -29 -59 -98.5t-23 -149.5q0 -119 85 -119q48 0 145 65l15 10zM462 688l-163 -169h-46
l-96 169h37l90 -105l142 105h36z" />
    <glyph glyph-name="Dcaron" unicode="&#x10e;" horiz-adv-x="778" 
d="M741 431q0 -124 -67.5 -230.5t-184.5 -166.5q-74 -37 -173 -37q-32 0 -97 1.5t-98 1.5q-47 0 -93 -3l5 26q2 0 10 2t11.5 3t10.5 4t10 5.5t6.5 7t4.5 10.5l87 504q9 54 9 76q0 26 -35 27l-53 2l3 28q61 -3 123 -3q34 0 102 1.5t102 1.5q67 0 130 -13t96 -37
q91 -64 91 -211zM649 415q0 123 -64.5 181.5t-200.5 58.5q-20 0 -58 -2.5t-58 -2.5l-96 -557q-4 -24 -4 -37q102 -15 161 -15q133 0 214 83q106 108 106 291zM631 886l-171 -137h-53l-94 137h40l87 -85l149 85h42z" />
    <glyph glyph-name="dcaron" unicode="&#x10f;" horiz-adv-x="500" 
d="M456 88l-81 -60q-53 -39 -75 -39q-26 0 -26 35q0 38 16 102l23 91q-50 -75 -81.5 -113t-72.5 -71q-55 -44 -98 -44q-44 0 -44 97q0 63 14 128.5t37 108.5q35 65 96 112t113 47q35 0 82 -14l28 154q2 14 2 24q0 24 -34 24h-48l4 21q94 9 160 42l12 -11l-126 -594
q-8 -39 -8 -46q0 -23 14 -23q15 0 39 17l44 31zM349 410q-45 23 -106 23q-39 0 -59 -15q-37 -28 -66 -126.5t-29 -193.5q0 -39 25 -39q14 0 41 16t53 41q100 96 129 235zM648 715q-37 -71 -60 -106.5t-61 -78.5l-32 -13l-7 9q33 51 43.5 84.5t18.5 97.5q35 5 89 25z" />
    <glyph glyph-name="Dcroat" unicode="&#x110;" horiz-adv-x="778" 
d="M741 431q0 -125 -67.5 -231.5t-184.5 -165.5q-71 -37 -173 -37q-4 0 -19.5 0.5t-26.5 0.5l-94 2h-32h-23l-93 -3l5 26l8 2q24 6 33.5 12t11.5 18l50 291h-117l6 32h117l31 181q9 56 9 76q0 26 -35 27l-53 2l3 28l123 -3l204 3q156 0 226 -50q91 -64 91 -211zM649 415
q0 124 -64 182t-201 58q-22 0 -69 -3q-12 0 -25.5 -1t-21.5 -1l-46 -272h187l-6 -32h-187l-44 -253q-4 -24 -4 -37q94 -15 161 -15q133 0 214 83q106 109 106 291z" />
    <glyph glyph-name="dcroat" unicode="&#x111;" horiz-adv-x="500" 
d="M545 589l-10 -40h-84l-93 -421q-8 -33 -8 -46q0 -23 14 -23q15 0 39 17l44 31l10 -19l-82 -60q-50 -37 -75 -37q-26 0 -26 33q0 34 17 102l24 91q-51 -76 -83 -113.5t-73 -70.5q-55 -44 -98 -44q-44 0 -43 97q2 144 53 237q35 65 96.5 112t113.5 47q35 0 82 -14l16 81
h-145l10 40h142l7 33q2 14 2 24q0 24 -34 24h-48l4 21q94 9 161 42l11 -11l-29 -133h85zM353 410q-45 23 -106 23q-39 0 -59 -15q-37 -28 -67 -126.5t-31 -193.5q0 -39 25 -39q14 0 41 16t53 41q47 44 82 106.5t49 128.5z" />
    <glyph glyph-name="Emacron" unicode="&#x112;" horiz-adv-x="611" 
d="M514 0q-5 0 -29.5 -1.5t-75.5 -1.5q-37 0 -112 1.5t-113 1.5q-78 0 -154 -3l5 26q33 5 45.5 11.5t14.5 20.5l87 504q9 48 9 77q0 25 -35 26l-54 2l3 28q80 -3 160 -3q40 0 118.5 1.5t117.5 1.5q36 0 69 -3q-17 -57 -21 -152h-24l-8 89q-2 24 -107 24q-41 -1 -130 -4
q-5 -10 -9 -32l-42 -238h37l219 6l4 -7l-19 -45q-9 0 -17.5 1.5t-33.5 2t-81 0.5h-117l-43 -253q-2 -12 -2 -35q74 -7 131 -7q112 0 150 10q16 4 24 15t15 37l16 60h27q-16 -80 -21 -125zM563 843l-11 -51h-301l11 51h301z" />
    <glyph glyph-name="emacron" unicode="&#x113;" horiz-adv-x="389" 
d="M336 92q-70 -56 -116 -79.5t-89 -23.5q-54 0 -85 32.5t-31 90.5q0 52 19 127t42 112q30 48 97.5 89.5t116.5 41.5q38 0 61 -21.5t23 -56.5q0 -90 -124 -145q-47 -20 -69 -25l-82 -20q-8 -39 -8 -80q0 -46 20 -72t56 -26q56 0 137 58l24 17zM300 388q0 24 -13 38t-35 14
q-43 0 -76 -31q-39 -37 -63 -135l-9 -37q64 14 109 35q39 19 63 51t24 65zM427 629l-11 -51h-301l11 51h301z" />
    <glyph glyph-name="Ebreve" unicode="&#x114;" horiz-adv-x="611" 
d="M514 0q-5 0 -29.5 -1.5t-75.5 -1.5q-37 0 -112 1.5t-113 1.5q-78 0 -154 -3l5 26q33 5 45.5 11.5t14.5 20.5l87 504q9 48 9 77q0 25 -35 26l-54 2l3 28q80 -3 160 -3q40 0 118.5 1.5t117.5 1.5q36 0 69 -3q-17 -57 -21 -152h-24l-8 89q-2 24 -107 24q-41 -1 -130 -4
q-5 -10 -9 -32l-42 -238h37l219 6l4 -7l-19 -45q-9 0 -17.5 1.5t-33.5 2t-81 0.5h-117l-43 -253q-2 -12 -2 -35q74 -7 131 -7q112 0 150 10q16 4 24 15t15 37l16 60h27q-16 -80 -21 -125zM580 882q-26 -69 -70.5 -99t-113.5 -30q-71 0 -106.5 31.5t-34.5 97.5h31
q8 -81 117 -81q48 0 81 18.5t65 62.5h31z" />
    <glyph glyph-name="ebreve" unicode="&#x115;" horiz-adv-x="389" 
d="M336 92q-70 -56 -116 -79.5t-89 -23.5q-54 0 -85 32.5t-31 90.5q0 52 19 127t42 112q30 48 97.5 89.5t116.5 41.5q38 0 61 -21.5t23 -56.5q0 -90 -124 -145q-47 -20 -69 -25l-82 -20q-8 -39 -8 -80q0 -46 20 -72t56 -26q56 0 137 58l24 17zM300 388q0 24 -13 38t-35 14
q-43 0 -76 -31q-39 -37 -63 -135l-9 -37q64 14 109 35q39 19 63 51t24 65zM427 683q-18 -66 -45 -100q-47 -59 -125 -59q-79 0 -111 58q-20 36 -20 101h29q9 -100 109 -100q45 0 75 22.5t59 77.5h29z" />
    <glyph glyph-name="Edotaccent" unicode="&#x116;" horiz-adv-x="611" 
d="M514 0q-5 0 -29.5 -1.5t-75.5 -1.5q-37 0 -112 1.5t-113 1.5q-78 0 -154 -3l5 26q33 5 45.5 11.5t14.5 20.5l87 504q9 48 9 77q0 25 -35 26l-54 2l3 28q80 -3 160 -3q40 0 118.5 1.5t117.5 1.5q36 0 69 -3q-17 -57 -21 -152h-24l-8 89q-2 24 -107 24q-41 -1 -130 -4
q-5 -10 -9 -32l-42 -238h37l219 6l4 -7l-19 -45q-9 0 -17.5 1.5t-33.5 2t-81 0.5h-117l-43 -253q-2 -12 -2 -35q74 -7 131 -7q112 0 150 10q16 4 24 15t15 37l16 60h27q-16 -80 -21 -125zM453 830q0 -29 -15.5 -48t-38.5 -19q-19 0 -29.5 11t-10.5 30q0 26 18 46.5t40 20.5
q16 0 26 -11.5t10 -29.5z" />
    <glyph glyph-name="edotaccent" unicode="&#x117;" horiz-adv-x="389" 
d="M336 92q-70 -56 -116 -79.5t-89 -23.5q-54 0 -85 32.5t-31 90.5q0 52 19 127t42 112q30 48 97.5 89.5t116.5 41.5q38 0 61 -21.5t23 -56.5q0 -90 -124 -145q-47 -20 -69 -25l-82 -20q-8 -39 -8 -80q0 -46 20 -72t56 -26q56 0 137 58l24 17zM300 388q0 24 -13 38t-35 14
q-43 0 -76 -31q-39 -37 -63 -135l-9 -37q64 14 109 35q39 19 63 51t24 65zM318 616q0 -29 -15.5 -48t-38.5 -19q-19 0 -29.5 11t-10.5 30q0 26 18 46.5t40 20.5q16 0 26 -11.5t10 -29.5z" />
    <glyph glyph-name="Eogonek" unicode="&#x118;" horiz-adv-x="611" 
d="M514 0l-18 -1q-78 -4 -115 -58q-25 -36 -33 -83q-4 -23 7.5 -36.5t32.5 -13.5q20 0 68 36q3 2 15 11l4 -21q-61 -52 -90 -68t-56 -16q-26 0 -39.5 24.5t-6.5 67.5q16 87 120 155l-219 3l-154 -3l5 26q33 5 45.5 11.5t14.5 20.5l87 504q9 48 9 77q0 25 -35 26l-54 2l3 28
q80 -3 160 -3q40 0 118.5 1.5t117.5 1.5q36 0 69 -3q-17 -57 -21 -152h-24l-8 89q-2 24 -107 24q-41 -1 -130 -4q-5 -10 -9 -32l-42 -238h37l219 6l4 -7l-19 -45q-9 0 -17.5 1.5t-33.5 2t-81 0.5h-117l-43 -253q-2 -12 -2 -35q74 -7 131 -7q112 0 150 10q16 4 24 15t15 37
l16 60h27q-16 -80 -21 -125z" />
    <glyph glyph-name="eogonek" unicode="&#x119;" horiz-adv-x="389" 
d="M336 92q-25 -20 -52 -40q-89 -64 -115 -96q-36 -41 -45 -98q-4 -23 7.5 -36.5t32.5 -13.5q20 0 68 36q3 2 15 11l4 -21q-61 -52 -90 -68t-56 -16q-26 0 -40 24.5t-6 67.5q15 85 116 153q-23 -6 -44 -6q-54 0 -85 32.5t-31 90.5q0 52 19 127t42 112q30 48 97.5 89.5
t116.5 41.5q38 0 61 -21.5t23 -56.5q0 -90 -124 -145q-47 -20 -69 -25l-82 -20q-8 -39 -8 -80q0 -46 20 -72t56 -26q56 0 137 58l24 17zM300 388q0 24 -13 38t-35 14q-43 0 -76 -31q-39 -37 -63 -135l-9 -37q64 14 109 35q39 19 63 51t24 65z" />
    <glyph glyph-name="Ecaron" unicode="&#x11a;" horiz-adv-x="611" 
d="M514 0q-5 0 -29.5 -1.5t-75.5 -1.5q-37 0 -112 1.5t-113 1.5q-78 0 -154 -3l5 26q33 5 45.5 11.5t14.5 20.5l87 504q9 48 9 77q0 25 -35 26l-54 2l3 28q80 -3 160 -3q40 0 118.5 1.5t117.5 1.5q36 0 69 -3q-17 -57 -21 -152h-24l-8 89q-2 24 -107 24q-41 -1 -130 -4
q-5 -10 -9 -32l-42 -238h37l219 6l4 -7l-19 -45q-9 0 -17.5 1.5t-33.5 2t-81 0.5h-117l-43 -253q-2 -12 -2 -35q74 -7 131 -7q112 0 150 10q16 4 24 15t15 37l16 60h27q-16 -80 -21 -125zM591 886l-171 -137h-53l-94 137h40l87 -85l149 85h42z" />
    <glyph glyph-name="ecaron" unicode="&#x11b;" horiz-adv-x="389" 
d="M336 92q-70 -56 -116 -79.5t-89 -23.5q-54 0 -85 32.5t-31 90.5q0 52 19 127t42 112q30 48 97.5 89.5t116.5 41.5q38 0 61 -21.5t23 -56.5q0 -90 -124 -145q-47 -20 -69 -25l-82 -20q-8 -39 -8 -80q0 -46 20 -72t56 -26q56 0 137 58l24 17zM300 388q0 24 -13 38t-35 14
q-43 0 -76 -31q-39 -37 -63 -135l-9 -37q64 14 109 35q39 19 63 51t24 65zM442 688l-163 -169h-46l-96 169h37l90 -105l142 105h36z" />
    <glyph glyph-name="Gcircumflex" unicode="&#x11c;" horiz-adv-x="722" 
d="M692 246l-32 -6q-23 -4 -27 -21l-23 -135q-2 -13 2 -40l-4 -7q-23 -4 -56 -15q-120 -40 -197 -40q-147 0 -226 76t-79 216q0 229 179 358q104 74 237 74q96 0 209 -41q-20 -66 -27 -146h-27v84q-78 50 -187 50q-124 0 -197 -74q-99 -99 -99 -282q0 -133 64 -201.5
t188 -68.5q76 0 138 33l18 93q7 34 7 59q0 18 -14 23.5t-70 8.5l-34 2l5 26q64 -3 129 -3q62 0 125 3l-2 -26v0zM616 749h-40l-87 85l-149 -85h-42l170 137h53z" />
    <glyph glyph-name="gcircumflex" unicode="&#x11d;" horiz-adv-x="500" 
d="M498 427l-9 -45q-31 -4 -50 -4h-34l1 -3q3 -15 3 -33q0 -67 -48 -122.5t-121 -73.5q-1 -1 -1.5 -2t-2 -3t-2.5 -3q-21 -27 -21 -38q0 -28 47 -65l60 -49q64 -52 64 -107q0 -62 -72.5 -108.5t-169.5 -46.5q-82 0 -130.5 32t-48.5 85q0 63 53 107q46 39 144 71
q-21 18 -21 33q0 22 27 47l41 38q-11 -1 -30 -1q-58 0 -90 32.5t-32 90.5q0 107 85 171q69 52 135 52q33 0 67 -13q31 -12 51 -45q66 0 102 9zM318 -154q0 45 -65 96l-77 59q-66 -19 -99 -46q-50 -42 -50 -100q0 -46 38.5 -74.5t100.5 -28.5t107 27.5t45 66.5zM337 341
q0 107 -87 107q-55 0 -89.5 -44.5t-34.5 -115.5q0 -120 93 -120q53 0 85.5 48t32.5 125zM398 519h-36l-82 104l-137 -104h-39l157 169h49z" />
    <glyph glyph-name="Gbreve" unicode="&#x11e;" horiz-adv-x="722" 
d="M692 246l-32 -6q-23 -4 -27 -21l-23 -135q-2 -13 2 -40l-4 -7q-23 -4 -56 -15q-120 -40 -197 -40q-147 0 -226 76t-79 216q0 229 179 358q104 74 237 74q96 0 209 -41q-20 -66 -27 -146h-27v84q-78 50 -187 50q-124 0 -197 -74q-99 -99 -99 -282q0 -133 64 -201.5
t188 -68.5q76 0 138 33l18 93q7 34 7 59q0 18 -14 23.5t-70 8.5l-34 2l5 26q64 -3 129 -3q62 0 125 3l-2 -26v0zM660 882q-26 -69 -70.5 -99t-113.5 -30q-71 0 -106.5 31.5t-34.5 97.5h31q8 -81 117 -81q48 0 81 18.5t65 62.5h31z" />
    <glyph glyph-name="gbreve" unicode="&#x11f;" horiz-adv-x="500" 
d="M498 427l-9 -45q-31 -4 -50 -4h-34l1 -3q3 -15 3 -33q0 -67 -48 -122.5t-121 -73.5q-1 -1 -1.5 -2t-2 -3t-2.5 -3q-21 -27 -21 -38q0 -28 47 -65l60 -49q64 -52 64 -107q0 -62 -72.5 -108.5t-169.5 -46.5q-82 0 -130.5 32t-48.5 85q0 63 53 107q46 39 144 71
q-21 18 -21 33q0 22 27 47l41 38q-11 -1 -30 -1q-58 0 -90 32.5t-32 90.5q0 107 85 171q69 52 135 52q33 0 67 -13q31 -12 51 -45q66 0 102 9zM318 -154q0 45 -65 96l-77 59q-66 -19 -99 -46q-50 -42 -50 -100q0 -46 38.5 -74.5t100.5 -28.5t107 27.5t45 66.5zM337 341
q0 107 -87 107q-55 0 -89.5 -44.5t-34.5 -115.5q0 -120 93 -120q53 0 85.5 48t32.5 125zM433 683q-18 -66 -45 -100q-47 -59 -125 -59q-79 0 -111 58q-20 36 -20 101h29q9 -100 109 -100q45 0 75 22.5t59 77.5h29z" />
    <glyph glyph-name="Gdotaccent" unicode="&#x120;" horiz-adv-x="722" 
d="M692 246l-32 -6q-23 -4 -27 -21l-23 -135q-2 -13 2 -40l-4 -7q-23 -4 -56 -15q-120 -40 -197 -40q-147 0 -226 76t-79 216q0 229 179 358q104 74 237 74q96 0 209 -41q-20 -66 -27 -146h-27v84q-78 50 -187 50q-124 0 -197 -74q-99 -99 -99 -282q0 -133 64 -201.5
t188 -68.5q76 0 138 33l18 93q7 34 7 59q0 18 -14 23.5t-70 8.5l-34 2l5 26q64 -3 129 -3q62 0 125 3l-2 -26v0zM533 830q0 -29 -15.5 -48t-38.5 -19q-19 0 -29.5 11t-10.5 30q0 26 18 46.5t40 20.5q16 0 26 -11.5t10 -29.5z" />
    <glyph glyph-name="gdotaccent" unicode="&#x121;" horiz-adv-x="500" 
d="M498 427l-9 -45q-31 -4 -50 -4h-34l1 -3q3 -15 3 -33q0 -67 -48 -122.5t-121 -73.5q-1 -1 -1.5 -2t-2 -3t-2.5 -3q-21 -27 -21 -38q0 -28 47 -65l60 -49q64 -52 64 -107q0 -62 -72.5 -108.5t-169.5 -46.5q-82 0 -130.5 32t-48.5 85q0 63 53 107q46 39 144 71
q-21 18 -21 33q0 22 27 47l41 38q-11 -1 -30 -1q-58 0 -90 32.5t-32 90.5q0 107 85 171q69 52 135 52q33 0 67 -13q31 -12 51 -45q66 0 102 9zM318 -154q0 45 -65 96l-77 59q-66 -19 -99 -46q-50 -42 -50 -100q0 -46 38.5 -74.5t100.5 -28.5t107 27.5t45 66.5zM337 341
q0 107 -87 107q-55 0 -89.5 -44.5t-34.5 -115.5q0 -120 93 -120q53 0 85.5 48t32.5 125zM324 616q0 -29 -15.5 -48t-38.5 -19q-19 0 -29.5 11t-10.5 30q0 26 18 46.5t40 20.5q16 0 26 -11.5t10 -29.5z" />
    <glyph glyph-name="Gcommaaccent" unicode="&#x122;" horiz-adv-x="722" 
d="M692 246l-32 -6q-23 -4 -27 -21l-23 -135q-2 -13 2 -40l-4 -7q-23 -4 -56 -15q-120 -40 -197 -40q-147 0 -226 76t-79 216q0 229 179 358q104 74 237 74q96 0 209 -41q-20 -66 -27 -146h-27v84q-78 50 -187 50q-124 0 -197 -74q-99 -99 -99 -282q0 -133 64 -201.5
t188 -68.5q76 0 138 33l18 93q7 34 7 59q0 18 -14 23.5t-70 8.5l-34 2l5 26q64 -3 129 -3q62 0 125 3l-2 -26v0zM376 -78q-37 -71 -60 -106.5t-61 -78.5l-32 -13l-7 9q33 51 43.5 84.5t18.5 97.5q35 5 89 25z" />
    <glyph glyph-name="gcommaaccent" unicode="&#x123;" horiz-adv-x="500" 
d="M361 722q-33 -51 -43.5 -84.5t-18.5 -97.5q-35 -5 -89 -25l-9 18q37 71 60 106.5t61 78.5l32 13zM498 427l-9 -45q-31 -4 -50 -4h-34l1 -3q3 -15 3 -33q0 -67 -48 -122.5t-121 -73.5q-1 -1 -1.5 -2t-2 -3t-2.5 -3q-21 -27 -21 -38q0 -28 47 -65l60 -49q64 -52 64 -107
q0 -62 -72.5 -108.5t-169.5 -46.5q-82 0 -130.5 32t-48.5 85q0 63 53 107q46 39 144 71q-21 18 -21 33q0 22 27 47l41 38q-11 -1 -30 -1q-58 0 -90 32.5t-32 90.5q0 107 85 171q69 52 135 52q33 0 67 -13q31 -12 51 -45q66 0 102 9zM318 -154q0 45 -65 96l-77 59
q-66 -19 -99 -46q-50 -42 -50 -100q0 -46 38.5 -74.5t100.5 -28.5t107 27.5t45 66.5zM337 341q0 107 -87 107q-55 0 -89.5 -44.5t-34.5 -115.5q0 -120 93 -120q53 0 85.5 48t32.5 125z" />
    <glyph glyph-name="Hcircumflex" unicode="&#x124;" horiz-adv-x="778" 
d="M705 -3q-66 3 -132 3q-71 0 -141 -3l4 28l50 3q31 1 37 14q7 9 21 83l40 215q-112 3 -184 3l-184 -3l-42 -247q-4 -25 -4 -35q0 -16 8 -22t28 -8l49 -3l-3 -28q-62 3 -123 3q-66 0 -132 -3l4 28l41 3q30 2 38 15t20 82l74 434q9 56 9 76q0 26 -35 27l-47 2l3 28
q70 -3 141 -3q57 0 114 3l-3 -28l-42 -3q-28 -2 -37 -10.5t-14 -37.5l-42 -228h370l30 174q9 54 9 76q0 26 -35 27l-48 2l3 28q70 -3 143 -3q53 0 107 3l-3 -28l-36 -3q-28 -2 -37 -10.5t-14 -37.5l-92 -520q-4 -23 -4 -35q0 -29 36 -30l58 -3zM614 749h-40l-87 85l-149 -85
h-42l170 137h53z" />
    <glyph glyph-name="hcircumflex" unicode="&#x125;" horiz-adv-x="500" 
d="M471 85q-73 -55 -106.5 -74.5t-53.5 -19.5q-30 0 -30 39q0 25 13 77l51 196q15 55 15 89q0 22 -22 22q-32 0 -94.5 -58.5t-95.5 -119.5q-40 -74 -62 -229l-69 -16l-7 11q41 123 88 386l42 234q2 14 2 24q0 24 -34 24h-48l4 21q94 9 160 42l12 -11l-98 -457l20 25
q61 75 98 106q102 86 158 86q29 0 29 -36q0 -26 -11 -74l-64 -256q-7 -26 -7 -40q0 -20 13 -20q15 0 61 30l26 17zM531 790h-40l-87 85l-149 -85h-42l170 137h53z" />
    <glyph glyph-name="Hbar" unicode="&#x126;" horiz-adv-x="778" 
d="M794 497h-105l-71 -404q-4 -23 -4 -35q0 -29 36 -30l58 -3l-3 -28q-66 3 -132 3q-71 0 -141 -3l4 28l50 3q31 1 37 14q7 9 21 83l40 215q-112 3 -184 3l-184 -3l-42 -247q-4 -25 -4 -35q0 -16 8 -22t28 -8l49 -3l-3 -28q-62 3 -123 3q-66 0 -132 -3l4 28l41 3q30 2 38 15
t20 82l63 372h-93l7 44h94l3 18q9 56 9 76q0 26 -35 27l-47 2l3 28q70 -3 141 -3q57 0 114 3l-3 -28l-42 -3q-28 -2 -37 -10.5t-14 -37.5l-13 -72h368l3 18q9 54 9 76q0 26 -35 27l-48 2l3 28q70 -3 143 -3q53 0 107 3l-3 -28l-36 -3q-28 -2 -37 -10.5t-14 -37.5l-13 -72
h104zM591 385l19 112h-368l-21 -112h370z" />
    <glyph glyph-name="hbar" unicode="&#x127;" horiz-adv-x="594" 
d="M569 85q-73 -55 -106.5 -74.5t-53.5 -19.5q-30 0 -30 39q0 25 13 77l51 196q15 55 15 89q0 22 -22 22q-32 0 -94.5 -58.5t-95.5 -119.5q-40 -74 -62 -229l-69 -16l-7 11q41 123 88 386l28 156h-88l11 51h86l5 27q2 14 2 24q0 24 -34 24h-48l4 21q94 9 160 42l12 -11
l-27 -127h141l-11 -51h-141l-60 -279l20 25q61 75 98 106q102 86 158 86q29 0 29 -36q0 -26 -11 -74l-64 -256q-7 -26 -7 -40q0 -20 13 -20q15 0 61 30l26 17z" />
    <glyph glyph-name="Itilde" unicode="&#x128;" 
d="M259 -3q-63 3 -126 3t-126 -3l3 28l36 3q30 2 38.5 16t19.5 81l72 434q9 49 9 77q0 25 -35 26l-47 2l3 28q68 -3 136 -3q56 0 112 3l-3 -28l-35 -3q-29 -2 -37.5 -10t-13.5 -38l-89 -535q-2 -10 -2 -21q0 -15 8 -21t28 -8l52 -3zM425 869q-9 -49 -34.5 -76t-62.5 -27
q-23 0 -64 16q-46 18 -47 19q-22 9 -38 9q-19 0 -30 -9.5t-22 -34.5h-29q15 55 38 79t60 24q27 0 63 -14l60 -24q12 -5 27 -5t25.5 9t25.5 34h28z" />
    <glyph glyph-name="itilde" unicode="&#x129;" horiz-adv-x="278" 
d="M241 85q-73 -54 -107 -74t-53 -20q-30 0 -30 39q0 31 13 77l66 240q8 30 8 44q0 21 -17 21q-13 0 -48 -23l-32 -21l-7 20l28 20q104 74 134 74q25 0 25 -26q0 -10 -6 -36l-77 -304q-7 -26 -7 -40q0 -20 13 -20q16 0 61 30l26 17zM381 655q-9 -49 -34.5 -76t-62.5 -27
q-23 0 -64 16q-46 18 -47 19q-22 9 -38 9q-19 0 -30 -9.5t-22 -34.5h-29q15 55 38 79t60 24q27 0 63 -14l60 -24q12 -5 27 -5t25.5 9t25.5 34h28z" />
    <glyph glyph-name="Imacron" unicode="&#x12a;" 
d="M259 -3q-63 3 -126 3t-126 -3l3 28l36 3q30 2 38.5 16t19.5 81l72 434q9 49 9 77q0 25 -35 26l-47 2l3 28q68 -3 136 -3q56 0 112 3l-3 -28l-35 -3q-29 -2 -37.5 -10t-13.5 -38l-89 -535q-2 -10 -2 -21q0 -15 8 -21t28 -8l52 -3zM418 843l-11 -51h-301l11 51h301z" />
    <glyph glyph-name="imacron" unicode="&#x12b;" horiz-adv-x="278" 
d="M241 85q-73 -54 -107 -74t-53 -20q-30 0 -30 39q0 31 13 77l66 240q8 30 8 44q0 21 -17 21q-13 0 -48 -23l-32 -21l-7 20l28 20q104 74 134 74q25 0 25 -26q0 -10 -6 -36l-77 -304q-7 -26 -7 -40q0 -20 13 -20q16 0 61 30l26 17zM373 629l-11 -51h-301l11 51h301z" />
    <glyph glyph-name="Ibreve" unicode="&#x12c;" 
d="M259 -3q-63 3 -126 3t-126 -3l3 28l36 3q30 2 38.5 16t19.5 81l72 434q9 49 9 77q0 25 -35 26l-47 2l3 28q68 -3 136 -3q56 0 112 3l-3 -28l-35 -3q-29 -2 -37.5 -10t-13.5 -38l-89 -535q-2 -10 -2 -21q0 -15 8 -21t28 -8l52 -3zM435 882q-26 -69 -70.5 -99t-113.5 -30
q-71 0 -106.5 31.5t-34.5 97.5h31q8 -81 117 -81q48 0 81 18.5t65 62.5h31z" />
    <glyph glyph-name="ibreve" unicode="&#x12d;" horiz-adv-x="278" 
d="M241 85q-73 -54 -107 -74t-53 -20q-30 0 -30 39q0 31 13 77l66 240q8 30 8 44q0 21 -17 21q-13 0 -48 -23l-32 -21l-7 20l28 20q104 74 134 74q25 0 25 -26q0 -10 -6 -36l-77 -304q-7 -26 -7 -40q0 -20 13 -20q16 0 61 30l26 17zM373 683q-18 -66 -45 -100
q-47 -59 -125 -59q-79 0 -111 58q-20 36 -20 101h29q9 -100 109 -100q45 0 75 22.5t59 77.5h29z" />
    <glyph glyph-name="Iogonek" unicode="&#x12e;" 
d="M230 -166q-60 -51 -89.5 -67.5t-56.5 -16.5q-26 0 -39.5 24.5t-5.5 67.5q16 89 123 158h-29l-126 -3l3 28l36 3q30 2 38.5 16t19.5 81l72 434q9 49 9 77q0 25 -35 26l-47 2l3 28q68 -3 136 -3q56 0 112 3l-3 -28l-35 -3q-29 -2 -37.5 -10t-13.5 -38l-89 -535
q-2 -10 -2 -21q0 -15 8 -21t28 -8l52 -3l-3 -28l-38 2q-43 1 -85 -58q-23 -33 -33 -83q-4 -23 8 -36.5t33 -13.5q19 0 68 36q3 2 15 11z" />
    <glyph glyph-name="iogonek" unicode="&#x12f;" horiz-adv-x="278" 
d="M241 85l-27 -20q-98 -70 -130 -121q-27 -42 -34 -86q-4 -23 7.5 -36.5t32.5 -13.5q20 0 69 36q10 8 14 11l4 -21q-61 -52 -90 -68t-56 -16q-26 0 -39.5 24.5t-6.5 67.5q16 88 92 149q-26 3 -26 39q0 31 13 77l66 240q8 30 8 44q0 21 -17 21q-13 0 -48 -23l-32 -21l-7 20
l28 20q104 74 134 74q25 0 25 -26q0 -10 -6 -36l-77 -304q-7 -26 -7 -40q0 -20 13 -20q16 0 61 30l26 17zM264 616q0 -29 -15.5 -48t-38.5 -19q-19 0 -29.5 11t-10.5 30q0 26 18 46.5t40 20.5q16 0 26 -11.5t10 -29.5z" />
    <glyph glyph-name="Idotaccent" unicode="&#x130;" 
d="M259 -3q-63 3 -126 3t-126 -3l3 28l36 3q30 2 38.5 16t19.5 81l72 434q9 49 9 77q0 25 -35 26l-47 2l3 28q68 -3 136 -3q56 0 112 3l-3 -28l-35 -3q-29 -2 -37.5 -10t-13.5 -38l-89 -535q-2 -10 -2 -21q0 -15 8 -21t28 -8l52 -3zM308 830q0 -29 -15.5 -48t-38.5 -19
q-19 0 -29.5 11t-10.5 30q0 26 18 46.5t40 20.5q16 0 26 -11.5t10 -29.5z" />
    <glyph glyph-name="dotlessi" unicode="&#x131;" horiz-adv-x="278" 
d="M241 85q-73 -54 -107 -74t-53 -20q-30 0 -30 39q0 31 13 77l66 240q8 30 8 44q0 21 -17 21q-13 0 -48 -23l-32 -21l-7 20l28 20q104 74 134 74q25 0 25 -26q0 -10 -6 -36l-77 -304q-7 -26 -7 -40q0 -20 13 -20q16 0 61 30l26 17z" />
    <glyph glyph-name="Jcircumflex" unicode="&#x134;" 
d="M355 664l-42 -3q-28 -2 -37 -10.5t-14 -37.5l-85 -559q-11 -78 -34 -132q-25 -61 -62 -94.5t-78 -33.5q-19 0 -35 10l-3 26q11 -4 29 -4q70 0 92 153l95 643q1 5 1 13q0 26 -35 27l-47 2l3 28q71 -3 141 -3q57 0 114 3zM387 749h-40l-87 85l-149 -85h-42l170 137h53z" />
    <glyph glyph-name="jcircumflex" unicode="&#x135;" horiz-adv-x="278" 
d="M222 420l-76 -350q-37 -167 -64 -228q-54 -118 -114 -118q-24 0 -38 7l8 57q32 -19 53 -19q29 0 47 87l100 495q7 30 7 40t-5 16.5t-13 6.5q-9 0 -26 -11.5t-21 -13.5l-32 -21l-7 20l28 20q104 74 134 74q25 0 25 -25q0 -11 -6 -37zM345 519h-36l-82 104l-137 -104h-39
l157 169h49z" />
    <glyph glyph-name="Kcommaaccent" unicode="&#x136;" horiz-adv-x="667" 
d="M646 -3q-33 3 -68 3q-34 0 -69 -3q-80 109 -123.5 162.5t-154.5 180.5l-43 -262q-2 -8 -2 -21q0 -15 8 -21t28 -8l49 -3l-3 -28q-62 3 -123 3q-66 0 -132 -3l4 28l41 3q30 2 38 15t20 82l73 434q9 49 9 76q0 26 -35 27l-47 2l3 28q71 -3 141 -3q57 0 114 3l-3 -28l-42 -3
q-28 -2 -37 -10.5t-14 -37.5l-45 -260q89 69 149 131l128 130q38 38 38 49v29q33 -3 67 -3q33 0 68 3v-27h-21q-27 0 -54 -25l-292 -273l246 -302q31 -38 64 -38h20v-30zM331 -78q-37 -71 -60 -106.5t-61 -78.5l-32 -13l-7 9q33 51 43.5 84.5t18.5 97.5q35 5 89 25z" />
    <glyph glyph-name="kcommaaccent" unicode="&#x137;" horiz-adv-x="444" 
d="M427 67l-46 -32q-62 -44 -81 -44t-46.5 59t-79.5 209q-53 -53 -67 -127l-23 -124l-67 -17l-9 10q69 276 82 353l48 268q2 14 2 24q0 24 -34 24h-48l4 21q94 9 160 42l12 -11l-107 -492q94 132 159.5 192t114.5 60q21 0 48 -9l-17 -63q-25 6 -36 6q-71 0 -157 -86l-14 -14
q49 -156 96 -241q12 -23 26 -23q11 0 29 10l43 24zM215 -78q-37 -71 -60 -106.5t-61 -78.5l-32 -13l-7 9q33 51 43.5 84.5t18.5 97.5q35 5 89 25z" />
    <glyph glyph-name="Lacute" unicode="&#x139;" horiz-adv-x="556" 
d="M500 0q-35 -3 -105 -3q-37 0 -112 1.5t-113 1.5q-78 0 -154 -3l5 26q33 5 45.5 11.5t14.5 20.5l86 504q9 49 9 77q0 25 -35 26l-47 2l3 28q67 -3 135 -3q60 0 120 3l-3 -28l-42 -3q-28 -2 -37 -10.5t-14 -37.5l-92 -532q-2 -12 -2 -35q72 -7 142 -7q122 0 144 11
q14 5 27 53l17 62h31q-25 -119 -23 -165zM367 860q-1 -15 -32 -30l-174 -82h-37l167 123q17 14 34 14q16 0 29 -7.5t13 -17.5z" />
    <glyph glyph-name="lacute" unicode="&#x13a;" horiz-adv-x="278" 
d="M226 85q-73 -54 -107 -74t-53 -20q-30 0 -30 39q0 31 19 102l96 468q6 36 6 48q0 22 -34 22h-48l4 21q94 9 160 42l12 -11l-129 -609q-6 -24 -6 -37q0 -20 13 -20q16 0 61 30l26 17zM339 901q-1 -15 -32 -30l-174 -82h-37l167 123q17 14 34 14q16 0 29 -7.5t13 -17.5z
" />
    <glyph glyph-name="Lcommaaccent" unicode="&#x13b;" horiz-adv-x="556" 
d="M500 0q-35 -3 -105 -3q-37 0 -112 1.5t-113 1.5q-78 0 -154 -3l5 26q33 5 45.5 11.5t14.5 20.5l86 504q9 49 9 77q0 25 -35 26l-47 2l3 28q67 -3 135 -3q60 0 120 3l-3 -28l-42 -3q-28 -2 -37 -10.5t-14 -37.5l-92 -532q-2 -12 -2 -35q72 -7 142 -7q122 0 144 11
q14 5 27 53l17 62h31q-25 -119 -23 -165zM312 -78q-37 -71 -60 -106.5t-61 -78.5l-32 -13l-7 9q33 51 43.5 84.5t18.5 97.5q35 5 89 25z" />
    <glyph glyph-name="lcommaaccent" unicode="&#x13c;" horiz-adv-x="278" 
d="M226 85q-73 -54 -107 -74t-53 -20q-30 0 -30 39q0 31 19 102l96 468q6 36 6 48q0 22 -34 22h-48l4 21q94 9 160 42l12 -11l-129 -609q-6 -24 -6 -37q0 -20 13 -20q16 0 61 30l26 17zM112 -78q-37 -71 -60 -106.5t-61 -78.5l-32 -13l-7 9q33 51 43.5 84.5t18.5 97.5
q35 5 89 25z" />
    <glyph glyph-name="Lcaron" unicode="&#x13d;" horiz-adv-x="556" 
d="M500 0q-35 -3 -105 -3q-37 0 -112 1.5t-113 1.5q-78 0 -154 -3l5 26q33 5 45.5 11.5t14.5 20.5l86 504q9 49 9 77q0 25 -35 26l-47 2l3 28q67 -3 135 -3q60 0 120 3l-3 -28l-42 -3q-28 -2 -37 -10.5t-14 -37.5l-92 -532q-2 -12 -2 -35q72 -7 142 -7q122 0 144 11
q14 5 27 53l17 62h31q-25 -119 -23 -165zM517 674q-37 -71 -60 -106.5t-61 -78.5l-32 -13l-7 9q33 51 43.5 84.5t18.5 97.5q35 5 89 25z" />
    <glyph glyph-name="lcaron" unicode="&#x13e;" horiz-adv-x="278" 
d="M226 85q-73 -54 -107 -74t-53 -20q-30 0 -30 39q0 31 19 102l96 468q6 36 6 48q0 22 -34 22h-48l4 21q94 9 160 42l12 -11l-129 -609q-6 -24 -6 -37q0 -20 13 -20q16 0 61 30l26 17zM416 715q-37 -71 -60 -106.5t-61 -78.5l-32 -13l-7 9q33 51 43.5 84.5t18.5 97.5
q35 5 89 25z" />
    <glyph glyph-name="Ldot" unicode="&#x13f;" horiz-adv-x="556" 
d="M500 0q-35 -3 -105 -3q-37 0 -112 1.5t-113 1.5q-78 0 -154 -3l5 26q33 5 45.5 11.5t14.5 20.5l86 504q9 49 9 77q0 25 -35 26l-47 2l3 28q67 -3 135 -3q60 0 120 3l-3 -28l-42 -3q-28 -2 -37 -10.5t-14 -37.5l-92 -532q-2 -12 -2 -35q72 -7 142 -7q122 0 144 11
q14 5 27 53l17 62h31q-25 -119 -23 -165zM502 400q0 -29 -15.5 -48t-38.5 -19q-19 0 -29.5 11t-10.5 30q0 26 18 46.5t40 20.5q16 0 26 -11.5t10 -29.5z" />
    <glyph glyph-name="ldot" unicode="&#x140;" horiz-adv-x="278" 
d="M226 85q-73 -54 -107 -74t-53 -20q-30 0 -30 39q0 31 19 102l96 468q6 36 6 48q0 22 -34 22h-48l4 21q94 9 160 42l12 -11l-129 -609q-6 -24 -6 -37q0 -20 13 -20q16 0 61 30l26 17zM330 400q0 -29 -15.5 -48t-38.5 -19q-19 0 -29.5 11t-10.5 30q0 26 18 46.5t40 20.5
q16 0 26 -11.5t10 -29.5z" />
    <glyph glyph-name="Lslash" unicode="&#x141;" horiz-adv-x="556" 
d="M500 0q-35 -3 -105 -3q-37 0 -112 1.5t-113 1.5q-78 0 -154 -3l5 26q33 5 45.5 11.5t14.5 20.5l42 246l-81 -62l-15 27l104 80l36 213q9 49 9 77q0 25 -35 26l-47 2l3 28q67 -3 135 -3q60 0 120 3l-3 -28l-42 -3q-28 -2 -37 -10.5t-14 -37.5l-36 -205l150 117l15 -27
l-173 -135l-48 -282q-2 -12 -2 -35q72 -7 142 -7q122 0 144 11q14 5 27 53l17 62h31q-25 -119 -23 -165z" />
    <glyph glyph-name="lslash" unicode="&#x142;" horiz-adv-x="278" 
d="M307 527l-118 -99l-67 -315q-6 -24 -6 -37q0 -20 13 -20q16 0 61 30l26 17l10 -18q-73 -54 -107 -74t-53 -20q-30 0 -30 39q0 31 19 102l54 238l-81 -69l-15 27l105 89l33 183q6 36 6 48q0 22 -34 22h-48l4 21q94 9 160 42l12 -11l-52 -246l93 78z" />
    <glyph glyph-name="Nacute" unicode="&#x143;" horiz-adv-x="778" 
d="M804 692l-5 -28l-37 -2q-20 -1 -28.5 -8t-15 -29.5t-16.5 -82.5l-94 -553h-50l-338 577l-80 -464q-3 -16 -3 -30q0 -25 9.5 -33.5t39.5 -10.5l42 -3l-5 -28q-54 3 -110 3q-55 0 -111 -3l5 28l31 3q27 2 36 14.5t18 59.5l88 474q5 15 5 30t-30 39q-19 15 -50 17l-35 2
l5 28q41 -3 81 -3t81 3l345 -589l80 489q5 32 5 46q0 23 -36 24l-47 2l5 28q53 -3 105 -3q54 0 110 3zM618 860q-1 -15 -32 -30l-174 -82h-37l167 123q17 14 34 14q16 0 29 -7.5t13 -17.5z" />
    <glyph glyph-name="nacute" unicode="&#x144;" horiz-adv-x="556" 
d="M514 85q-73 -55 -106.5 -74.5t-53.5 -19.5q-30 0 -30 40q0 23 13 76l52 212q11 44 11 71q0 24 -17 24q-34 0 -83.5 -41.5t-90.5 -104.5q-34 -52 -53 -109t-33 -151q-26 -5 -70 -17l-7 11q31 107 56.5 228t25.5 159q0 25 -18 25q-10 0 -47 -25l-32 -21l-7 20l28 20
q104 74 133 74q23 0 23 -33q0 -14 -6 -41l-38 -161q69 97 118 142q44 41 91.5 67t78.5 26t31 -36q0 -28 -11 -74l-66 -276q-2 -8 -2 -20q0 -20 13 -20q15 0 61 30l26 17zM448 656q0 -20 -28 -37l-162 -101h-34l153 151q18 18 33 18t26.5 -9.5t11.5 -21.5z" />
    <glyph glyph-name="Ncommaaccent" unicode="&#x145;" horiz-adv-x="778" 
d="M804 692l-5 -28l-37 -2q-20 -1 -28.5 -8t-15 -29.5t-16.5 -82.5l-94 -553h-50l-338 577l-80 -464q-3 -16 -3 -30q0 -25 9.5 -33.5t39.5 -10.5l42 -3l-5 -28q-54 3 -110 3q-55 0 -111 -3l5 28l31 3q27 2 36 14.5t18 59.5l88 474q5 15 5 30t-30 39q-19 15 -50 17l-35 2
l5 28q41 -3 81 -3t81 3l345 -589l80 489q5 32 5 46q0 23 -36 24l-47 2l5 28q53 -3 105 -3q54 0 110 3zM388 -78q-37 -71 -60 -106.5t-61 -78.5l-32 -13l-7 9q33 51 43.5 84.5t18.5 97.5q35 5 89 25z" />
    <glyph glyph-name="ncommaaccent" unicode="&#x146;" horiz-adv-x="556" 
d="M514 85q-73 -55 -106.5 -74.5t-53.5 -19.5q-30 0 -30 40q0 23 13 76l52 212q11 44 11 71q0 24 -17 24q-34 0 -83.5 -41.5t-90.5 -104.5q-34 -52 -53 -109t-33 -151q-26 -5 -70 -17l-7 11q31 107 56.5 228t25.5 159q0 25 -18 25q-10 0 -47 -25l-32 -21l-7 20l28 20
q104 74 133 74q23 0 23 -33q0 -14 -6 -41l-38 -161q69 97 118 142q44 41 91.5 67t78.5 26t31 -36q0 -28 -11 -74l-66 -276q-2 -8 -2 -20q0 -20 13 -20q15 0 61 30l26 17zM267 -78q-37 -71 -60 -106.5t-61 -78.5l-32 -13l-7 9q33 51 43.5 84.5t18.5 97.5q35 5 89 25z" />
    <glyph glyph-name="Ncaron" unicode="&#x147;" horiz-adv-x="778" 
d="M804 692l-5 -28l-37 -2q-20 -1 -28.5 -8t-15 -29.5t-16.5 -82.5l-94 -553h-50l-338 577l-80 -464q-3 -16 -3 -30q0 -25 9.5 -33.5t39.5 -10.5l42 -3l-5 -28q-54 3 -110 3q-55 0 -111 -3l5 28l31 3q27 2 36 14.5t18 59.5l88 474q5 15 5 30t-30 39q-19 15 -50 17l-35 2
l5 28q41 -3 81 -3t81 3l345 -589l80 489q5 32 5 46q0 23 -36 24l-47 2l5 28q53 -3 105 -3q54 0 110 3zM683 886l-171 -137h-53l-94 137h40l87 -85l149 85h42z" />
    <glyph glyph-name="ncaron" unicode="&#x148;" horiz-adv-x="556" 
d="M514 85q-73 -55 -106.5 -74.5t-53.5 -19.5q-30 0 -30 40q0 23 13 76l52 212q11 44 11 71q0 24 -17 24q-34 0 -83.5 -41.5t-90.5 -104.5q-34 -52 -53 -109t-33 -151q-26 -5 -70 -17l-7 11q31 107 56.5 228t25.5 159q0 25 -18 25q-10 0 -47 -25l-32 -21l-7 20l28 20
q104 74 133 74q23 0 23 -33q0 -14 -6 -41l-38 -161q69 97 118 142q44 41 91.5 67t78.5 26t31 -36q0 -28 -11 -74l-66 -276q-2 -8 -2 -20q0 -20 13 -20q15 0 61 30l26 17zM510 688l-163 -169h-46l-96 169h37l90 -105l142 105h36z" />
    <glyph glyph-name="Eng" unicode="&#x14a;" horiz-adv-x="778" 
d="M804 692l-5 -28l-37 -2q-20 -1 -28.5 -8t-15 -29.5t-16.5 -82.5l-94 -553q-12 -71 -61.5 -123.5t-112.5 -52.5q-91 0 -145 62l52 44q27 -62 101 -62q43 0 74.5 39t41.5 93l-338 577l-80 -464q-3 -16 -3 -30q0 -25 9.5 -33.5t39.5 -10.5l42 -3l-5 -28q-54 3 -110 3
q-55 0 -111 -3l5 28l31 3q27 2 36 14.5t18 59.5l88 474q5 15 5 30t-30 39q-19 15 -50 17l-35 2l5 28q41 -3 81 -3t81 3l345 -589l80 489q5 32 5 46q0 23 -36 24l-47 2l5 28q53 -3 105 -3q54 0 110 3z" />
    <glyph glyph-name="eng" unicode="&#x14b;" horiz-adv-x="556" 
d="M472 372l-66 -276q-26 -108 -94 -185.5t-156 -77.5l6 34q36 0 65.5 20.5t50 58t34 75t25.5 86.5l52 212q11 44 11 71q0 24 -17 24q-34 0 -83.5 -41.5t-90.5 -104.5q-34 -52 -53 -109t-33 -151q-26 -5 -70 -17l-7 11q31 107 56.5 228t25.5 159q0 25 -18 25q-10 0 -47 -25
l-32 -21l-7 20l28 20q104 74 133 74q23 0 23 -33q0 -14 -6 -41l-38 -161q69 97 118 142q44 41 91.5 67t78.5 26t31 -36q0 -28 -11 -74z" />
    <glyph glyph-name="Omacron" unicode="&#x14c;" horiz-adv-x="778" 
d="M748 425q0 -119 -55 -222t-149 -161q-95 -60 -221 -60q-132 0 -201 74t-69 216q0 188 116.5 311t294.5 123q135 0 209.5 -73.5t74.5 -207.5zM660 409q0 166 -97 223q-53 32 -130 32q-113 0 -183 -71q-52 -52 -80.5 -135t-28.5 -181q0 -125 55.5 -189t163.5 -64
q118 0 192 76q51 53 79.5 134t28.5 175zM641 843l-11 -51h-301l11 51h301z" />
    <glyph glyph-name="omacron" unicode="&#x14d;" horiz-adv-x="444" 
d="M411 331q0 -76 -30 -153t-76 -121q-73 -68 -160 -68q-62 0 -95 42t-33 121q0 92 32.5 165t93.5 116q69 49 135 49q62 0 97.5 -40t35.5 -111zM335 315q0 129 -94 129q-40 0 -60 -17q-37 -30 -62.5 -110.5t-25.5 -165.5q0 -59 24 -91.5t68 -32.5q47 0 75 33q33 40 54 111.5
t21 143.5zM440 629l-11 -51h-301l11 51h301z" />
    <glyph glyph-name="Obreve" unicode="&#x14e;" horiz-adv-x="778" 
d="M748 425q0 -119 -55 -222t-149 -161q-95 -60 -221 -60q-132 0 -201 74t-69 216q0 188 116.5 311t294.5 123q135 0 209.5 -73.5t74.5 -207.5zM660 409q0 166 -97 223q-53 32 -130 32q-113 0 -183 -71q-52 -52 -80.5 -135t-28.5 -181q0 -125 55.5 -189t163.5 -64
q118 0 192 76q51 53 79.5 134t28.5 175zM658 882q-26 -69 -70.5 -99t-113.5 -30q-71 0 -106.5 31.5t-34.5 97.5h31q8 -81 117 -81q48 0 81 18.5t65 62.5h31z" />
    <glyph glyph-name="obreve" unicode="&#x14f;" horiz-adv-x="444" 
d="M411 331q0 -76 -30 -153t-76 -121q-73 -68 -160 -68q-62 0 -95 42t-33 121q0 92 32.5 165t93.5 116q69 49 135 49q62 0 97.5 -40t35.5 -111zM335 315q0 129 -94 129q-40 0 -60 -17q-37 -30 -62.5 -110.5t-25.5 -165.5q0 -59 24 -91.5t68 -32.5q47 0 75 33q33 40 54 111.5
t21 143.5zM440 683q-18 -66 -45 -100q-47 -59 -125 -59q-79 0 -111 58q-20 36 -20 101h29q9 -100 109 -100q45 0 75 22.5t59 77.5h29z" />
    <glyph glyph-name="Ohungarumlaut" unicode="&#x150;" horiz-adv-x="778" 
d="M748 425q0 -119 -55 -222t-149 -161q-95 -60 -221 -60q-132 0 -201 74t-69 216q0 188 116.5 311t294.5 123q135 0 209.5 -73.5t74.5 -207.5zM660 409q0 166 -97 223q-53 32 -130 32q-113 0 -183 -71q-52 -52 -80.5 -135t-28.5 -181q0 -125 55.5 -189t163.5 -64
q118 0 192 76q51 53 79.5 134t28.5 175zM754 860q-1 -15 -32 -30l-174 -82h-37l167 123q17 14 34 14q16 0 29 -7.5t13 -17.5zM594 860q-1 -15 -32 -30l-174 -82h-37l167 123q17 14 34 14q16 0 29 -7.5t13 -17.5z" />
    <glyph glyph-name="ohungarumlaut" unicode="&#x151;" horiz-adv-x="444" 
d="M411 331q0 -76 -30 -153t-76 -121q-73 -68 -160 -68q-62 0 -95 42t-33 121q0 92 32.5 165t93.5 116q69 49 135 49q62 0 97.5 -40t35.5 -111zM335 315q0 129 -94 129q-40 0 -60 -17q-37 -30 -62.5 -110.5t-25.5 -165.5q0 -59 24 -91.5t68 -32.5q47 0 75 33q33 40 54 111.5
t21 143.5zM363 656q0 -20 -28 -37l-162 -101h-34l153 151q18 18 33 18t26.5 -9.5t11.5 -21.5zM493 656q0 -20 -28 -37l-162 -101h-34l153 151q18 18 33 18t26.5 -9.5t11.5 -21.5z" />
    <glyph glyph-name="OE" unicode="&#x152;" horiz-adv-x="1028" 
d="M954 0q-5 0 -29.5 -1.5t-75.5 -1.5q-37 0 -112 1.5t-113 1.5q-52 0 -104 -3l24 93q-53 -58 -106 -82q-60 -26 -128 -26q-121 0 -187.5 74t-66.5 208q0 96 34.5 185t95.5 150q106 108 262 108q65 0 106 -18.5t81 -65.5l10 69q30 -3 60 -3q40 0 118.5 1.5t117.5 1.5
q36 0 69 -3q-17 -57 -21 -152h-24l-8 89q-1 12 -30 18.5t-77 5.5q-41 -1 -130 -4q-5 -10 -9 -32l-42 -238h37l219 6l4 -7l-19 -45q-9 0 -17.5 1.5t-33.5 2t-81 0.5h-117l-43 -253q-2 -12 -2 -35q74 -7 131 -7q112 0 150 10q16 4 24 15t15 37l16 60h27q-16 -80 -21 -125z
M571 270l29 169q5 32 5 57q0 82 -46 125.5t-132 43.5q-106 0 -172 -69q-52 -55 -81.5 -137t-29.5 -174q0 -121 48.5 -191t132.5 -70q86 0 157 71t89 175z" />
    <glyph glyph-name="oe" unicode="&#x153;" horiz-adv-x="669" 
d="M619 88q-67 -55 -111.5 -77t-88.5 -22q-90 0 -109 82q-44 -46 -80 -64t-82 -18q-131 0 -131 163q0 147 86 244q35 40 81.5 63t89.5 23q84 0 126 -86q67 50 103.5 68t70.5 18q35 0 57.5 -23t22.5 -58q0 -68 -76 -117q-56 -36 -194 -74q-9 -50 -9 -83q0 -42 21 -66.5
t58 -24.5q54 0 137 59l22 16zM332 326q0 118 -94 118q-37 0 -63 -23t-46 -75q-36 -92 -36 -193q0 -126 94 -126q57 0 86 49q26 44 42.5 114.5t16.5 135.5zM580 387q0 53 -45 53q-32 0 -61.5 -20t-48.5 -54q-20 -38 -37 -132q93 21 142.5 60.5t49.5 92.5z" />
    <glyph glyph-name="Racute" unicode="&#x154;" horiz-adv-x="667" 
d="M639 -3q-29 3 -58 3q-37 0 -74 -3q-87 148 -240 370l3 11h44q78 0 130 47t52 118q0 113 -133 113q-37 0 -76 -8l-7 -28l-9 -40l-85 -487q-4 -23 -4 -35q0 -15 8 -22t28 -8l49 -3l-3 -28q-62 3 -123 3q-66 0 -132 -3l4 28l41 3q30 2 38 15.5t20 81.5l75 434q9 54 9 76
q0 26 -35 27l-56 2l3 28q75 -3 151 -3q25 0 75 1.5t75 1.5q68 0 121.5 -35.5t53.5 -96.5q0 -94 -89 -158q-48 -35 -120 -48l184 -275q21 -31 35.5 -41t44.5 -14v-27zM551 860q-1 -15 -32 -30l-174 -82h-37l167 123q17 14 34 14q16 0 29 -7.5t13 -17.5z" />
    <glyph glyph-name="racute" unicode="&#x155;" horiz-adv-x="389" 
d="M368 365h-14q-15 19 -36 19q-33 0 -83 -65q-60 -78 -85 -193l-26 -120q-44 -8 -67 -15l-10 7q30 95 56.5 221.5t26.5 170.5q0 22 -17 22q-12 0 -48 -23l-32 -21l-7 20l28 20q103 74 133 74q23 0 23 -32q0 -15 -12 -68l-26 -126q22 47 94 151q53 75 98 75q7 0 20 -6
q-12 -62 -16 -111zM346 656q0 -20 -28 -37l-162 -101h-34l153 151q18 18 33 18t26.5 -9.5t11.5 -21.5z" />
    <glyph glyph-name="Rcommaaccent" unicode="&#x156;" horiz-adv-x="667" 
d="M639 -3q-29 3 -58 3q-37 0 -74 -3q-87 148 -240 370l3 11h44q78 0 130 47t52 118q0 113 -133 113q-37 0 -76 -8l-7 -28l-9 -40l-85 -487q-4 -23 -4 -35q0 -15 8 -22t28 -8l49 -3l-3 -28q-62 3 -123 3q-66 0 -132 -3l4 28l41 3q30 2 38 15.5t20 81.5l75 434q9 54 9 76
q0 26 -35 27l-56 2l3 28q75 -3 151 -3q25 0 75 1.5t75 1.5q68 0 121.5 -35.5t53.5 -96.5q0 -94 -89 -158q-48 -35 -120 -48l184 -275q21 -31 35.5 -41t44.5 -14v-27zM321 -78q-37 -71 -60 -106.5t-61 -78.5l-32 -13l-7 9q33 51 43.5 84.5t18.5 97.5q35 5 89 25z" />
    <glyph glyph-name="rcommaaccent" unicode="&#x157;" horiz-adv-x="389" 
d="M368 365h-14q-15 19 -36 19q-33 0 -83 -65q-60 -78 -85 -193l-26 -120q-44 -8 -67 -15l-10 7q30 95 56.5 221.5t26.5 170.5q0 22 -17 22q-12 0 -48 -23l-32 -21l-7 20l28 20q103 74 133 74q23 0 23 -32q0 -15 -12 -68l-26 -126q22 47 94 151q53 75 98 75q7 0 20 -6
q-12 -62 -16 -111zM121 -78q-37 -71 -60 -106.5t-61 -78.5l-32 -13l-7 9q33 51 43.5 84.5t18.5 97.5q35 5 89 25z" />
    <glyph glyph-name="Rcaron" unicode="&#x158;" horiz-adv-x="667" 
d="M639 -3q-29 3 -58 3q-37 0 -74 -3q-87 148 -240 370l3 11h44q78 0 130 47t52 118q0 113 -133 113q-37 0 -76 -8l-7 -28l-9 -40l-85 -487q-4 -23 -4 -35q0 -15 8 -22t28 -8l49 -3l-3 -28q-62 3 -123 3q-66 0 -132 -3l4 28l41 3q30 2 38 15.5t20 81.5l75 434q9 54 9 76
q0 26 -35 27l-56 2l3 28q75 -3 151 -3q25 0 75 1.5t75 1.5q68 0 121.5 -35.5t53.5 -96.5q0 -94 -89 -158q-48 -35 -120 -48l184 -275q21 -31 35.5 -41t44.5 -14v-27zM616 886l-171 -137h-53l-94 137h40l87 -85l149 85h42z" />
    <glyph glyph-name="rcaron" unicode="&#x159;" horiz-adv-x="389" 
d="M368 365h-14q-15 19 -36 19q-33 0 -83 -65q-60 -78 -85 -193l-26 -120q-44 -8 -67 -15l-10 7q30 95 56.5 221.5t26.5 170.5q0 22 -17 22q-12 0 -48 -23l-32 -21l-7 20l28 20q103 74 133 74q23 0 23 -32q0 -15 -12 -68l-26 -126q22 47 94 151q53 75 98 75q7 0 20 -6
q-12 -62 -16 -111zM408 688l-163 -169h-46l-96 169h37l90 -105l142 105h36z" />
    <glyph glyph-name="Sacute" unicode="&#x15a;" horiz-adv-x="556" 
d="M485 234q0 -102 -86 -177t-202 -75q-79 0 -155 38q15 72 24 152h30v-99q61 -43 136 -43q77 0 125.5 44.5t48.5 116.5q0 86 -81 105l-95 23q-63 15 -92.5 51.5t-29.5 100.5q0 88 63 151q86 84 203 84q67 0 132 -34q-19 -60 -25 -135h-30v76q-42 45 -112 45
q-69 0 -114 -42.5t-45 -107.5q0 -97 96 -117l65 -14q76 -17 110 -50.5t34 -92.5zM487 860q-1 -15 -32 -30l-174 -82h-37l167 123q17 14 34 14q16 0 29 -7.5t13 -17.5z" />
    <glyph glyph-name="sacute" unicode="&#x15b;" horiz-adv-x="389" 
d="M334 174q0 -71 -72 -127q-74 -58 -146 -58q-53 0 -107 27q15 64 22 132h25v-84q41 -35 94 -35t85 29.5t32 79.5q0 30 -13.5 44.5t-46.5 20.5l-63 12q-97 19 -97 101q0 50 37 88q76 78 161 78q45 0 100 -27q-13 -60 -19 -113h-23v55q-12 20 -38 32.5t-57 12.5
q-43 0 -72.5 -27t-29.5 -67q0 -31 17 -46t62 -23l43 -8q56 -10 81 -33t25 -64zM360 656q0 -20 -28 -37l-162 -101h-34l153 151q18 18 33 18t26.5 -9.5t11.5 -21.5z" />
    <glyph glyph-name="Scircumflex" unicode="&#x15c;" horiz-adv-x="556" 
d="M485 234q0 -102 -86 -177t-202 -75q-79 0 -155 38q15 72 24 152h30v-99q61 -43 136 -43q77 0 125.5 44.5t48.5 116.5q0 86 -81 105l-95 23q-63 15 -92.5 51.5t-29.5 100.5q0 88 63 151q86 84 203 84q67 0 132 -34q-19 -60 -25 -135h-30v76q-42 45 -112 45
q-69 0 -114 -42.5t-45 -107.5q0 -97 96 -117l65 -14q76 -17 110 -50.5t34 -92.5zM497 749h-40l-87 85l-149 -85h-42l170 137h53z" />
    <glyph glyph-name="scircumflex" unicode="&#x15d;" horiz-adv-x="389" 
d="M334 174q0 -71 -72 -127q-74 -58 -146 -58q-53 0 -107 27q15 64 22 132h25v-84q41 -35 94 -35t85 29.5t32 79.5q0 30 -13.5 44.5t-46.5 20.5l-63 12q-97 19 -97 101q0 50 37 88q76 78 161 78q45 0 100 -27q-13 -60 -19 -113h-23v55q-12 20 -38 32.5t-57 12.5
q-43 0 -72.5 -27t-29.5 -67q0 -31 17 -46t62 -23l43 -8q56 -10 81 -33t25 -64zM372 519h-36l-82 104l-137 -104h-39l157 169h49z" />
    <glyph glyph-name="Scedilla" unicode="&#x15e;" horiz-adv-x="549" 
d="M484 225q0 -106 -85 -175q-60 -49 -147 -62l-36 -52q18 2 23 2q39 0 61 -18.5t22 -51.5q0 -38 -33.5 -61t-89.5 -23q-35 0 -88 20l17 29q43 -14 69 -14q23 0 38 12.5t15 32.5q0 17 -13 27.5t-34 10.5q-11 0 -26 -4l-7 -2l-9 8l51 80q-8 -1 -25 -1q-87 0 -138 36
q12 42 23 154q6 0 16 0.5t16 0.5q-3 -48 -3 -50q0 -44 14 -59t51 -27q33 -10 72 -10q79 0 124 44q47 46 47 121q0 48 -31 78q-19 17 -97 38q-31 8 -46.5 13t-39 16.5t-37.5 26.5q-43 43 -43 114q0 97 74 163.5t177 66.5q82 0 138 -32q-19 -77 -23 -135q-5 0 -13 -0.5
t-13 -0.5q0 53 -2 62q-5 21 -15 31q-31 33 -100 33t-112 -44q-42 -45 -42 -115q0 -30 15 -56.5t42 -40.5q16 -8 109 -36q69 -20 97 -48q37 -38 37 -102z" />
    <glyph glyph-name="scedilla" unicode="&#x15f;" horiz-adv-x="384" 
d="M334 174q0 -82 -66 -137q-33 -29 -82 -42l-40 -59q18 2 23 2q39 0 61 -18.5t22 -51.5q0 -38 -33.5 -61t-89.5 -23q-35 0 -88 20l17 29q43 -14 69 -14q23 0 38 12.5t15 32.5q0 17 -13 27.5t-34 10.5q-11 0 -26 -4l-7 -2l-9 8l52 83q-20 -2 -31 -2q-56 0 -99 26
q14 62 22 132h23v-79q40 -43 100 -43q45 0 78 31t33 75q0 37 -26 57q-17 14 -78 25q-49 9 -76 32q-32 27 -32 73q0 64 52 110q60 55 135 55q59 0 96 -24q-14 -57 -15 -115h-24q0 46 -1 49q-1 13 -11 24q-24 26 -79 26q-35 0 -57 -14q-40 -24 -40 -70q0 -37 24 -56
q20 -16 81 -29q63 -13 85 -31q31 -26 31 -65z" />
    <glyph glyph-name="Scaron" unicode="&#x160;" horiz-adv-x="556" 
d="M485 234q0 -102 -86 -177t-202 -75q-79 0 -155 38q15 72 24 152h30v-99q61 -43 136 -43q77 0 125.5 44.5t48.5 116.5q0 86 -81 105l-95 23q-63 15 -92.5 51.5t-29.5 100.5q0 88 63 151q86 84 203 84q67 0 132 -34q-19 -60 -25 -135h-30v76q-42 45 -112 45
q-69 0 -114 -42.5t-45 -107.5q0 -97 96 -117l65 -14q76 -17 110 -50.5t34 -92.5zM552 886l-171 -137h-53l-94 137h40l87 -85l149 85h42z" />
    <glyph glyph-name="scaron" unicode="&#x161;" horiz-adv-x="389" 
d="M334 174q0 -71 -72 -127q-74 -58 -146 -58q-53 0 -107 27q15 64 22 132h25v-84q41 -35 94 -35t85 29.5t32 79.5q0 30 -13.5 44.5t-46.5 20.5l-63 12q-97 19 -97 101q0 50 37 88q76 78 161 78q45 0 100 -27q-13 -60 -19 -113h-23v55q-12 20 -38 32.5t-57 12.5
q-43 0 -72.5 -27t-29.5 -67q0 -31 17 -46t62 -23l43 -8q56 -10 81 -33t25 -64zM422 688l-163 -169h-46l-96 169h37l90 -105l142 105h36z" />
    <glyph glyph-name="Tcedilla" unicode="&#x162;" horiz-adv-x="611" 
d="M608 528h-28l4 64q2 21 -4 37q-4 17 -117 17h-73l-94 -553q-4 -21 -4 -35q0 -29 36 -30l59 -3l-3 -28l-44 1l-71 2l-43 -64q18 2 23 2q39 0 61 -18.5t22 -51.5q0 -38 -33.5 -61t-89.5 -23q-35 0 -88 20l17 29q43 -14 69 -14q23 0 38 12.5t15 32.5q0 17 -13 27.5t-34 10.5
q-11 0 -26 -4l-7 -2l-9 8l60 96q-32 -2 -65 -2l-57 -1l4 28l51 3q30 2 38.5 15.5t19.5 81.5l86 521h-112q-70 0 -81 -13q-11 -12 -18 -45l-15 -60h-29l18 163h95l187 -2l191 2h91z" />
    <glyph glyph-name="tcedilla" unicode="&#x163;" 
d="M265 99l-16 -13l-15 -12q-82 -66 -116 -77l-42 -61q18 2 23 2q39 0 61 -18.5t22 -51.5q0 -38 -33.5 -61t-89.5 -23q-35 0 -88 20l17 29q43 -14 69 -14q23 0 38 12.5t15 32.5q0 17 -13 27.5t-34 10.5q-11 0 -26 -4l-7 -2l-9 8l56 88q-21 6 -21 39q0 22 8 55q4 15 5 21
l56 283h-84l2 13q25 7 88 37l25 170q51 20 78 36l11 -15q-23 -70 -45 -197q53 0 110 6l-11 -50h-107l-13 -62q-43 -205 -43 -252q0 -20 13 -20q18 0 61 30l45 31z" />
    <glyph glyph-name="Tcaron" unicode="&#x164;" horiz-adv-x="611" 
d="M608 528h-28l4 64q2 21 -4 37q-4 17 -117 17h-73l-94 -553q-4 -21 -4 -35q0 -29 36 -30l59 -3l-3 -28q-66 3 -133 3q-71 0 -142 -3l4 28l51 3q30 2 38.5 15.5t19.5 81.5l86 521h-112q-70 0 -81 -13q-11 -12 -18 -45l-15 -60h-29l18 164q141 -3 282 -3t282 3zM564 886
l-171 -137h-53l-94 137h40l87 -85l149 85h42z" />
    <glyph glyph-name="tcaron" unicode="&#x165;" 
d="M265 99q-9 -7 -15.5 -12.5t-15.5 -12.5q-60 -48 -91 -65.5t-57 -17.5q-30 0 -30 40q0 11 13 76l56 283h-84l2 13q25 7 88 37l25 170q51 20 78 36l11 -15q-23 -70 -45 -197q53 0 110 6l-11 -50h-107l-13 -62q-43 -205 -43 -252q0 -20 13 -20q18 0 61 30l45 31zM400 680
q-37 -71 -60 -106.5t-61 -78.5l-32 -13l-7 9q33 51 43.5 84.5t18.5 97.5q35 5 89 25z" />
    <glyph glyph-name="Utilde" unicode="&#x168;" horiz-adv-x="778" 
d="M709 25l-5 -28q-42 3 -85 3q-44 0 -89 -3l-5 5q19 79 27 127q-39 -45 -68.5 -68t-74.5 -46q-68 -34 -133 -34q-84 0 -131.5 43.5t-47.5 120.5q0 28 6 61l64 375q7 40 7 58q0 13 -7 17.5t-27 5.5l-52 2l3 28q45 -3 90 -3q44 0 89 3l-88 -477q-7 -36 -7 -60q0 -54 37 -85
t102 -31q129 0 242 138l71 445q3 21 -4.5 30t-29.5 10l-48 2l3 28q67 -3 137 -3q56 0 113 3l-3 -28l-36 -3q-28 -2 -37 -10.5t-14 -37.5l-85 -507q-6 -38 -6 -56t32 -21zM639 869q-9 -49 -34.5 -76t-62.5 -27q-23 0 -64 16q-46 18 -47 19q-22 9 -38 9q-19 0 -30 -9.5
t-22 -34.5h-29q15 55 38 79t60 24q27 0 63 -14l60 -24q12 -5 27 -5t25.5 9t25.5 34h28z" />
    <glyph glyph-name="utilde" unicode="&#x169;" horiz-adv-x="556" 
d="M512 85q-75 -56 -108 -76t-52 -20q-30 0 -30 42q0 27 11 66l37 142q-63 -103 -142 -176.5t-126 -73.5q-15 0 -25 11.5t-10 28.5q0 28 4 48l63 297q2 10 2 18q0 20 -17 20q-13 0 -48 -23l-32 -21l-7 20l28 20q103 74 133 74q22 0 22 -31q0 -16 -5 -43l-57 -271
q-7 -36 -7 -52q0 -26 13 -26q31 0 83.5 48.5t96.5 117.5q45 71 68 189l10 51l68 17l7 -9l-84 -357q-6 -24 -6 -40q0 -17 13 -17q19 0 61 27l26 17zM506 655q-9 -49 -34.5 -76t-62.5 -27q-23 0 -64 16q-46 18 -47 19q-22 9 -38 9q-19 0 -30 -9.5t-22 -34.5h-29q15 55 38 79
t60 24q27 0 63 -14l60 -24q12 -5 27 -5t25.5 9t25.5 34h28z" />
    <glyph glyph-name="Umacron" unicode="&#x16a;" horiz-adv-x="778" 
d="M709 25l-5 -28q-42 3 -85 3q-44 0 -89 -3l-5 5q19 79 27 127q-39 -45 -68.5 -68t-74.5 -46q-68 -34 -133 -34q-84 0 -131.5 43.5t-47.5 120.5q0 28 6 61l64 375q7 40 7 58q0 13 -7 17.5t-27 5.5l-52 2l3 28q45 -3 90 -3q44 0 89 3l-88 -477q-7 -36 -7 -60q0 -54 37 -85
t102 -31q129 0 242 138l71 445q3 21 -4.5 30t-29.5 10l-48 2l3 28q67 -3 137 -3q56 0 113 3l-3 -28l-36 -3q-28 -2 -37 -10.5t-14 -37.5l-85 -507q-6 -38 -6 -56t32 -21zM632 843l-11 -51h-301l11 51h301z" />
    <glyph glyph-name="umacron" unicode="&#x16b;" horiz-adv-x="556" 
d="M512 85q-75 -56 -108 -76t-52 -20q-30 0 -30 42q0 27 11 66l37 142q-63 -103 -142 -176.5t-126 -73.5q-15 0 -25 11.5t-10 28.5q0 28 4 48l63 297q2 10 2 18q0 20 -17 20q-13 0 -48 -23l-32 -21l-7 20l28 20q103 74 133 74q22 0 22 -31q0 -16 -5 -43l-57 -271
q-7 -36 -7 -52q0 -26 13 -26q31 0 83.5 48.5t96.5 117.5q45 71 68 189l10 51l68 17l7 -9l-84 -357q-6 -24 -6 -40q0 -17 13 -17q19 0 61 27l26 17zM498 629l-11 -51h-301l11 51h301z" />
    <glyph glyph-name="Ubreve" unicode="&#x16c;" horiz-adv-x="778" 
d="M709 25l-5 -28q-42 3 -85 3q-44 0 -89 -3l-5 5q19 79 27 127q-39 -45 -68.5 -68t-74.5 -46q-68 -34 -133 -34q-84 0 -131.5 43.5t-47.5 120.5q0 28 6 61l64 375q7 40 7 58q0 13 -7 17.5t-27 5.5l-52 2l3 28q45 -3 90 -3q44 0 89 3l-88 -477q-7 -36 -7 -60q0 -54 37 -85
t102 -31q129 0 242 138l71 445q3 21 -4.5 30t-29.5 10l-48 2l3 28q67 -3 137 -3q56 0 113 3l-3 -28l-36 -3q-28 -2 -37 -10.5t-14 -37.5l-85 -507q-6 -38 -6 -56t32 -21zM649 882q-26 -69 -70.5 -99t-113.5 -30q-71 0 -106.5 31.5t-34.5 97.5h31q8 -81 117 -81q48 0 81 18.5
t65 62.5h31z" />
    <glyph glyph-name="ubreve" unicode="&#x16d;" horiz-adv-x="556" 
d="M512 85q-75 -56 -108 -76t-52 -20q-30 0 -30 42q0 27 11 66l37 142q-63 -103 -142 -176.5t-126 -73.5q-15 0 -25 11.5t-10 28.5q0 28 4 48l63 297q2 10 2 18q0 20 -17 20q-13 0 -48 -23l-32 -21l-7 20l28 20q103 74 133 74q22 0 22 -31q0 -16 -5 -43l-57 -271
q-7 -36 -7 -52q0 -26 13 -26q31 0 83.5 48.5t96.5 117.5q45 71 68 189l10 51l68 17l7 -9l-84 -357q-6 -24 -6 -40q0 -17 13 -17q19 0 61 27l26 17zM498 683q-18 -66 -45 -100q-47 -59 -125 -59q-79 0 -111 58q-20 36 -20 101h29q9 -100 109 -100q45 0 75 22.5t59 77.5h29z
" />
    <glyph glyph-name="Uring" unicode="&#x16e;" horiz-adv-x="778" 
d="M709 25l-5 -28q-42 3 -85 3q-44 0 -89 -3l-5 5q19 79 27 127q-39 -45 -68.5 -68t-74.5 -46q-68 -34 -133 -34q-84 0 -131.5 43.5t-47.5 120.5q0 28 6 61l64 375q7 40 7 58q0 13 -7 17.5t-27 5.5l-52 2l3 28q45 -3 90 -3q44 0 89 3l-88 -477q-7 -36 -7 -60q0 -54 37 -85
t102 -31q129 0 242 138l71 445q3 21 -4.5 30t-29.5 10l-48 2l3 28q67 -3 137 -3q56 0 113 3l-3 -28l-36 -3q-28 -2 -37 -10.5t-14 -37.5l-85 -507q-6 -38 -6 -56t32 -21zM579 837q0 -42 -29.5 -71t-70.5 -29q-42 0 -71 29t-29 71t29.5 71t71.5 29q41 0 70 -29.5t29 -70.5z
M541 837q0 29 -17 46.5t-45 17.5t-45 -17.5t-17 -46.5t17 -46.5t45 -17.5t45 17.5t17 46.5z" />
    <glyph glyph-name="uring" unicode="&#x16f;" horiz-adv-x="556" 
d="M512 85q-75 -56 -108 -76t-52 -20q-30 0 -30 42q0 27 11 66l37 142q-63 -103 -142 -176.5t-126 -73.5q-15 0 -25 11.5t-10 28.5q0 28 4 48l63 297q2 10 2 18q0 20 -17 20q-13 0 -48 -23l-32 -21l-7 20l28 20q103 74 133 74q22 0 22 -31q0 -16 -5 -43l-57 -271
q-7 -36 -7 -52q0 -26 13 -26q31 0 83.5 48.5t96.5 117.5q45 71 68 189l10 51l68 17l7 -9l-84 -357q-6 -24 -6 -40q0 -17 13 -17q19 0 61 27l26 17zM442 603q0 -42 -29.5 -71t-70.5 -29q-42 0 -71 29t-29 71t29.5 71t71.5 29q41 0 70 -29.5t29 -70.5zM404 603q0 29 -17 46.5
t-45 17.5t-45 -17.5t-17 -46.5t17 -46.5t45 -17.5t45 17.5t17 46.5z" />
    <glyph glyph-name="Uhungarumlaut" unicode="&#x170;" horiz-adv-x="778" 
d="M709 25l-5 -28q-42 3 -85 3q-44 0 -89 -3l-5 5q19 79 27 127q-39 -45 -68.5 -68t-74.5 -46q-68 -34 -133 -34q-84 0 -131.5 43.5t-47.5 120.5q0 28 6 61l64 375q7 40 7 58q0 13 -7 17.5t-27 5.5l-52 2l3 28q45 -3 90 -3q44 0 89 3l-88 -477q-7 -36 -7 -60q0 -54 37 -85
t102 -31q129 0 242 138l71 445q3 21 -4.5 30t-29.5 10l-48 2l3 28q67 -3 137 -3q56 0 113 3l-3 -28l-36 -3q-28 -2 -37 -10.5t-14 -37.5l-85 -507q-6 -38 -6 -56t32 -21zM745 860q-1 -15 -32 -30l-174 -82h-37l167 123q17 14 34 14q16 0 29 -7.5t13 -17.5zM585 860
q-1 -15 -32 -30l-174 -82h-37l167 123q17 14 34 14q16 0 29 -7.5t13 -17.5z" />
    <glyph glyph-name="uhungarumlaut" unicode="&#x171;" horiz-adv-x="556" 
d="M512 85q-75 -56 -108 -76t-52 -20q-30 0 -30 42q0 27 11 66l37 142q-63 -103 -142 -176.5t-126 -73.5q-15 0 -25 11.5t-10 28.5q0 28 4 48l63 297q2 10 2 18q0 20 -17 20q-13 0 -48 -23l-32 -21l-7 20l28 20q103 74 133 74q22 0 22 -31q0 -16 -5 -43l-57 -271
q-7 -36 -7 -52q0 -26 13 -26q31 0 83.5 48.5t96.5 117.5q45 71 68 189l10 51l68 17l7 -9l-84 -357q-6 -24 -6 -40q0 -17 13 -17q19 0 61 27l26 17zM421 656q0 -20 -28 -37l-162 -101h-34l153 151q18 18 33 18t26.5 -9.5t11.5 -21.5zM551 656q0 -20 -28 -37l-162 -101h-34
l153 151q18 18 33 18t26.5 -9.5t11.5 -21.5z" />
    <glyph glyph-name="Uogonek" unicode="&#x172;" horiz-adv-x="778" 
d="M675 -166q-60 -52 -89 -68t-56 -16q-26 0 -40 24.5t-6 67.5q16 90 124 158q-39 0 -78 -3l-5 5q19 79 27 127q-39 -45 -68.5 -68t-74.5 -46q-68 -34 -133 -34q-84 0 -131.5 43.5t-47.5 120.5q0 28 6 61l64 375q7 40 7 58q0 13 -7 17.5t-27 5.5l-52 2l3 28q45 -3 90 -3
q44 0 89 3l-88 -477q-7 -36 -7 -60q0 -54 37 -85t102 -31q129 0 242 138l71 445q3 21 -4.5 30t-29.5 10l-48 2l3 28q67 -3 137 -3q56 0 113 3l-3 -28l-36 -3q-28 -2 -37 -10.5t-14 -37.5l-85 -507q-6 -38 -6 -56t32 -21l60 -4l-5 -28l-17 1q-64 3 -106 -57q-23 -34 -32 -83
q-4 -23 7.5 -36.5t32.5 -13.5q19 0 68 36q3 2 15 11z" />
    <glyph glyph-name="uogonek" unicode="&#x173;" horiz-adv-x="556" 
d="M512 85l-72 -52q-67 -45 -94 -77q-34 -39 -45 -98q-4 -23 7.5 -36.5t32.5 -13.5q20 0 69 36q10 8 14 11l4 -21q-61 -52 -90 -68t-56 -16q-26 0 -39.5 24.5t-6.5 67.5q15 83 109 148q-23 5 -23 41q0 27 11 66l37 142q-63 -103 -142 -176.5t-126 -73.5q-15 0 -25 11.5
t-10 28.5q0 28 4 48l63 297q2 10 2 18q0 20 -17 20q-13 0 -48 -23l-32 -21l-7 20l28 20q103 74 133 74q22 0 22 -31q0 -16 -5 -43l-57 -271q-7 -36 -7 -52q0 -26 13 -26q31 0 83.5 48.5t96.5 117.5q45 71 68 189l10 51l68 17l7 -9l-84 -357q-6 -24 -6 -40q0 -17 13 -17
q19 0 61 27l26 17z" />
    <glyph glyph-name="Wcircumflex" unicode="&#x174;" horiz-adv-x="944" 
d="M980 664l-20 -2q-33 -3 -43 -31l-171 -507q-11 -32 -31 -106l-7 -26h-51q-22 103 -39 162l-112 392l-224 -444q-30 -60 -50 -110h-50q-2 81 -8 166l-32 430q-3 43 -12.5 56.5t-40.5 17.5l-18 2v28q55 -3 111 -3q61 0 121 3v-28l-37 -2q-48 -3 -45 -46l31 -484l224 456
l52 112h18l158 -572l147 462q9 27 9 49t-41 23l-39 2l5 28q48 -3 98 -3q49 0 97 3v-28zM684 749h-40l-87 85l-149 -85h-42l170 137h53z" />
    <glyph glyph-name="wcircumflex" unicode="&#x175;" horiz-adv-x="722" 
d="M699 384q0 -68 -39 -157q-47 -103 -117 -170.5t-131 -67.5q-34 0 -54 29t-20 77q0 33 12 92q-56 -108 -99 -153t-91 -45q-40 0 -64 37.5t-24 99.5q0 64 28.5 123.5t95.5 138.5l30 36q-33 -4 -59 -4q-9 0 -28 1t-28 1q-39 0 -51 -28l-17 -42h-22q19 82 38 118q18 8 32 7
q96 -7 123 -7q34 0 61 12l10 -18q-74 -84 -107 -161.5t-33 -166.5q0 -44 16 -70.5t42 -26.5q46 0 108 116q39 72 55 156l29 149l74 22l7 -8l-52 -184q-21 -75 -21 -156q0 -41 14 -68t36 -27q41 0 84 47t70.5 120t27.5 144q0 63 -43 63q-14 0 -27 -9l-11 19l50 47
q12 12 33 12q27 0 44.5 -27.5t17.5 -70.5zM541 519h-36l-82 104l-137 -104h-39l157 169h49z" />
    <glyph glyph-name="Ycircumflex" unicode="&#x176;" horiz-adv-x="667" 
d="M669 626q-44 -8 -80 -33.5t-79 -80.5q-55 -69 -98 -146.5t-50 -119.5l-26 -168q-2 -10 -2 -21q0 -15 8 -21t28 -8l49 -3l-3 -28q-62 3 -123 3q-70 0 -139 -3l4 28l48 3q30 2 38.5 15.5t19.5 81.5l22 132q0 12 -22 91.5t-40 128.5q-31 84 -60 121t-64 37q-14 0 -45 -12
l-3 24l79 58q69 -1 114 -83.5t101 -311.5q42 111 128 226q55 75 100 111t101 50zM554 749h-40l-87 85l-149 -85h-42l170 137h53z" />
    <glyph glyph-name="ycircumflex" unicode="&#x177;" horiz-adv-x="500" 
d="M490 473l-141 -440q-44 -139 -120 -224t-155 -85q-34 0 -58 23t-24 55q0 11 1 18l48 34l10 -4q-2 -18 -2 -22q0 -26 18 -44t44 -18q53 0 93 58.5t78 191.5l49 171q-56 -85 -112 -141.5t-84 -56.5q-19 0 -31.5 20t-11.5 51l1 40l17 243q4 67 -21 67q-10 0 -25 -12l-50 -30
l-11 18l82 56q58 40 75 40q24 0 24 -63q0 -35 -4 -97l-15 -194q-5 -61 19 -61q16 0 48 28.5t58 66.5q59 88 80 169l35 132q31 3 74 19zM439 519h-36l-82 104l-137 -104h-39l157 169h49z" />
    <glyph glyph-name="Ydieresis" unicode="&#x178;" horiz-adv-x="667" 
d="M669 626q-44 -8 -80 -33.5t-79 -80.5q-55 -69 -98 -146.5t-50 -119.5l-26 -168q-2 -10 -2 -21q0 -15 8 -21t28 -8l49 -3l-3 -28q-62 3 -123 3q-70 0 -139 -3l4 28l48 3q30 2 38.5 15.5t19.5 81.5l22 132q0 12 -22 91.5t-40 128.5q-31 84 -60 121t-64 37q-14 0 -45 -12
l-3 24l79 58q69 -1 114 -83.5t101 -311.5q42 111 128 226q55 75 100 111t101 50zM390 830q0 -29 -15.5 -48t-38.5 -19q-19 0 -29.5 11t-10.5 30q0 26 18 46.5t40 20.5q16 0 26 -11.5t10 -29.5zM550 830q0 -29 -15.5 -48t-38.5 -19q-19 0 -29.5 11t-10.5 30q0 26 18 46.5
t40 20.5q16 0 26 -11.5t10 -29.5z" />
    <glyph glyph-name="Zacute" unicode="&#x179;" horiz-adv-x="667" 
d="M583 -3q-234 3 -322 3l-241 -3v22l502 633h-180q-107 0 -180 -13l-6 -20q-17 -54 -21 -86h-26q11 100 11 158l118 1q118 -3 237 -3q81 0 162 3v-20l-504 -633h281q62 0 127 13q20 51 32 90l7 22h26q-20 -106 -23 -167zM520 860q-1 -15 -32 -30l-174 -82h-37l167 123
q17 14 34 14q16 0 29 -7.5t13 -17.5z" />
    <glyph glyph-name="zacute" unicode="&#x17a;" horiz-adv-x="444" 
d="M402 142q-19 -82 -30 -143q-36 -10 -50 -10q-32 0 -118 20q-68 17 -105 17q-51 0 -91 -32l-9 27l353 400q-45 -23 -93 -23q-32 0 -81 10q-25 5 -45 5q-18 0 -39 -5l-30 -58h-21l32 122q34 10 61 10q21 0 80 -16q78 -21 134 -21q20 0 34 14l23 23l9 -9l-6 -32l-339 -382
q50 21 95 21q29 0 86 -12q48 -11 67 -11q29 0 39 25l22 60h22zM372 656q0 -20 -28 -37l-162 -101h-34l153 151q18 18 33 18t26.5 -9.5t11.5 -21.5z" />
    <glyph glyph-name="Zdotaccent" unicode="&#x17b;" horiz-adv-x="667" 
d="M583 -3q-234 3 -322 3l-241 -3v22l502 633h-180q-107 0 -180 -13l-6 -20q-17 -54 -21 -86h-26q11 100 11 158l118 1q118 -3 237 -3q81 0 162 3v-20l-504 -633h281q62 0 127 13q20 51 32 90l7 22h26q-20 -106 -23 -167zM447 830q0 -29 -15.5 -48t-38.5 -19q-19 0 -29.5 11
t-10.5 30q0 26 18 46.5t40 20.5q16 0 26 -11.5t10 -29.5z" />
    <glyph glyph-name="zdotaccent" unicode="&#x17c;" horiz-adv-x="444" 
d="M402 142q-19 -82 -30 -143q-36 -10 -50 -10q-32 0 -118 20q-68 17 -105 17q-51 0 -91 -32l-9 27l353 400q-45 -23 -93 -23q-32 0 -81 10q-25 5 -45 5q-18 0 -39 -5l-30 -58h-21l32 122q34 10 61 10q21 0 80 -16q78 -21 134 -21q20 0 34 14l23 23l9 -9l-6 -32l-339 -382
q50 21 95 21q29 0 86 -12q48 -11 67 -11q29 0 39 25l22 60h22zM310 616q0 -29 -15.5 -48t-38.5 -19q-19 0 -29.5 11t-10.5 30q0 26 18 46.5t40 20.5q16 0 26 -11.5t10 -29.5z" />
    <glyph glyph-name="Zcaron" unicode="&#x17d;" horiz-adv-x="667" 
d="M583 -3q-234 3 -322 3l-241 -3v22l502 633h-180q-107 0 -180 -13l-6 -20q-17 -54 -21 -86h-26q11 100 11 158l118 1q118 -3 237 -3q81 0 162 3v-20l-504 -633h281q62 0 127 13q20 51 32 90l7 22h26q-20 -106 -23 -167zM585 886l-171 -137h-53l-94 137h40l87 -85l149 85
h42z" />
    <glyph glyph-name="zcaron" unicode="&#x17e;" horiz-adv-x="444" 
d="M402 142q-19 -82 -30 -143q-36 -10 -50 -10q-32 0 -118 20q-68 17 -105 17q-51 0 -91 -32l-9 27l353 400q-45 -23 -93 -23q-32 0 -81 10q-25 5 -45 5q-18 0 -39 -5l-30 -58h-21l32 122q34 10 61 10q21 0 80 -16q78 -21 134 -21q20 0 34 14l23 23l9 -9l-6 -32l-339 -382
q50 21 95 21q29 0 86 -12q48 -11 67 -11q29 0 39 25l22 60h22zM434 688l-163 -169h-46l-96 169h37l90 -105l142 105h36z" />
    <glyph glyph-name="longs" unicode="&#x17f;" horiz-adv-x="278" 
d="M413 720l-5 -15l-23 -67l-10 -4q-24 39 -72 39q-67 0 -90 -124l-50 -254q-56 -266 -83.5 -352.5t-72.5 -140.5q-29 -35 -66 -56.5t-68 -21.5q-21 0 -35 8q13 24 23 80l14 4q22 -29 52 -29q55 0 84 90q35 109 89 450l9 56h-81l5 22q39 14 86 37l15 79q15 79 45 109
q17 18 64 53t65 43q14 7 35 7q42 0 70 -13z" />
    <glyph glyph-name="Ereversed" unicode="&#x18e;" horiz-adv-x="611" 
d="M636 692l-7 -28l-55 -2q-35 -1 -44 -26q-11 -34 -18 -77l-91 -504q-2 -13 8 -20t41 -12l-4 -26q-76 3 -153 3q-38 0 -113.5 -1.5t-112.5 -1.5q-38 0 -54.5 0.5t-26 1.5t-23.5 1l9 36q8 38 23 125h27l-5 -60q-3 -26 1.5 -37t18.5 -15q34 -10 147 -10q57 0 133 7
q9 27 11 35l46 253h-117q-44 0 -69.5 -0.5t-32.5 -1t-15 -1.5t-17 -1l-3 45l7 7l217 -6h37l42 238q3 24 2 32q-86 3 -129 4q-105 0 -115 -24l-40 -89h-24q30 96 33 152q34 3 70 3q40 0 117.5 -1.5t117.5 -1.5q80 0 161 3z" />
    <glyph glyph-name="florin" unicode="&#x192;" horiz-adv-x="500" 
d="M422 404l-8 -34h-109l-51 -247q-19 -90 -55 -190.5t-64 -142.5q-17 -24 -57 -45t-73 -21l12 80l11 4q19 -20 46 -20q19 0 34.5 17.5t24.5 48.5l1 6q11 38 14 53l84 457h-113l9 34h109q27 118 78 196q34 52 67.5 81t57.5 28q2 0 5 -1l25 -5l-12 -79q-26 23 -54 23
q-15 0 -29 -9.5t-20 -23.5q-14 -34 -34 -147l-11 -63h112z" />
    <glyph glyph-name="Ohorn" unicode="&#x1a0;" horiz-adv-x="778" 
d="M813 746q-15 -31 -45.5 -70.5t-70.5 -63.5q56 -74 55 -187q-2 -119 -57.5 -222t-150.5 -161q-95 -60 -221 -60q-132 0 -200.5 74t-67.5 216q2 188 119.5 311t295.5 123q126 0 200 -65q46 24 54 95q22 5 39 8.5t40 8.5zM664 409q2 166 -95 223q-53 32 -130 32
q-113 0 -184 -71q-52 -52 -81 -135t-31 -181q-1 -125 54 -189t163 -64q117 0 193 76q52 53 81 134t30 175z" />
    <glyph glyph-name="ohorn" unicode="&#x1a1;" horiz-adv-x="479" 
d="M526 525q-45 -92 -119 -135q7 -32 7 -59q-1 -76 -31 -153t-77 -121q-74 -68 -161 -68q-62 0 -95 42t-32 121q2 191 129 281q69 49 135 49q74 0 110 -57q37 25 45 90q22 5 39 8.5t40 8.5zM338 315q1 63 -23 96t-70 33q-40 0 -60 -17q-37 -30 -63.5 -110.5t-27.5 -165.5
q0 -59 24 -91.5t67 -32.5q46 0 76 33q33 40 54.5 111.5t22.5 143.5z" />
    <glyph glyph-name="Uhorn" unicode="&#x1af;" horiz-adv-x="793" 
d="M866 746q-18 -39 -59.5 -86.5t-95.5 -64.5l-87 -489q-6 -45 -7 -56q0 -18 32 -21l60 -4l-5 -28l-32 1l-58 2l-62 -3h-22l-5 5q19 73 28 127q-38 -44 -68.5 -68t-75.5 -46q-68 -34 -133 -34q-84 0 -131.5 43.5t-46.5 119.5q0 25 7 62l67 375q8 42 8 58q0 13 -7 17.5
t-27 5.5l-52 2l3 28l32 -1q56 -2 58 -2q4 0 58 2l31 1l-92 -477q-7 -37 -8 -61q0 -53 37 -84t101 -31q57 0 114 29q38 19 65.5 42t64.5 67l75 445q1 4 1 12q0 27 -35 28l-48 2l3 28l63 -2l80 -1l31 1l-9 -51q29 14 41.5 37t16.5 60q22 5 39 8.5t40 8.5z" />
    <glyph glyph-name="uhorn" unicode="&#x1b0;" horiz-adv-x="577" 
d="M623 525q-11 -22 -28 -47.5t-52.5 -58t-72.5 -44.5l-61 -259l-1 -6q-5 -25 -5 -34q0 -17 13 -17q20 0 61 27l26 17l10 -18q-74 -55 -107.5 -74.5t-53.5 -19.5q-30 0 -30 40q0 25 12 66l38 142q-64 -103 -143.5 -176.5t-126.5 -73.5q-15 0 -25 12t-10 29q0 24 5 47l65 297
q1 2 2 9t1 9q0 8 -5 14t-12 6q-12 0 -49 -23l-32 -21l-7 20l29 20q103 74 132 74q23 0 23 -31q0 -16 -5 -43l-60 -271q-7 -35 -7 -52q0 -26 13 -26q30 0 81.5 47t96.5 115q48 74 73 193l10 51l68 17l7 -9l-14 -52q44 24 52 94q22 5 39 8.5t40 8.5z" />
    <glyph glyph-name="eturned" unicode="&#x1dd;" horiz-adv-x="389" 
d="M378 359q0 -52 -19 -127t-42 -112q-30 -48 -97.5 -89.5t-116.5 -41.5q-38 0 -61 21.5t-23 56.5q0 90 124 145q47 20 69 25l82 20q8 39 8 80q0 46 -20 72t-56 26q-56 0 -137 -58l-24 -17l-8 19q70 56 116 79.5t89 23.5q54 0 85 -32.5t31 -90.5zM289 234q-64 -14 -109 -35
q-39 -19 -63 -51t-24 -65q0 -24 13 -38t35 -14q43 0 76 31q39 37 63 135z" />
    <glyph glyph-name="Gcaron" unicode="&#x1e6;" horiz-adv-x="722" 
d="M692 246l-32 -6q-23 -4 -27 -21l-23 -135q-2 -13 2 -40l-4 -7q-23 -4 -56 -15q-120 -40 -197 -40q-147 0 -226 76t-79 216q0 229 179 358q104 74 237 74q96 0 209 -41q-20 -66 -27 -146h-27v84q-78 50 -187 50q-124 0 -197 -74q-99 -99 -99 -282q0 -133 64 -201.5
t188 -68.5q76 0 138 33l18 93q7 34 7 59q0 18 -14 23.5t-70 8.5l-34 2l5 26q64 -3 129 -3q62 0 125 3l-2 -26v0zM671 886l-171 -137h-53l-94 137h40l87 -85l149 85h42z" />
    <glyph glyph-name="gcaron" unicode="&#x1e7;" horiz-adv-x="500" 
d="M498 427l-9 -45q-31 -4 -50 -4h-34l1 -3q3 -15 3 -33q0 -67 -48 -122.5t-121 -73.5q-1 -1 -1.5 -2t-2 -3t-2.5 -3q-21 -27 -21 -38q0 -28 47 -65l60 -49q64 -52 64 -107q0 -62 -72.5 -108.5t-169.5 -46.5q-82 0 -130.5 32t-48.5 85q0 63 53 107q46 39 144 71
q-21 18 -21 33q0 22 27 47l41 38q-11 -1 -30 -1q-58 0 -90 32.5t-32 90.5q0 107 85 171q69 52 135 52q33 0 67 -13q31 -12 51 -45q66 0 102 9zM318 -154q0 45 -65 96l-77 59q-66 -19 -99 -46q-50 -42 -50 -100q0 -46 38.5 -74.5t100.5 -28.5t107 27.5t45 66.5zM337 341
q0 107 -87 107q-55 0 -89.5 -44.5t-34.5 -115.5q0 -120 93 -120q53 0 85.5 48t32.5 125zM448 688l-163 -169h-46l-96 169h37l90 -105l142 105h36z" />
    <glyph glyph-name="Oogonek" unicode="&#x1ea;" horiz-adv-x="778" 
d="M748 425q0 -119 -55 -222t-149 -161q-4 -2 -10.5 -6t-9.5 -6q-19 -11 -85.5 -27.5t-92.5 -46.5q-34 -39 -45 -98q-4 -23 8 -36.5t33 -13.5q19 0 68 36q3 2 15 11l3 -21q-60 -51 -89.5 -67.5t-56.5 -16.5q-26 0 -39.5 24.5t-5.5 67.5q14 79 97 140h-11q-132 0 -201 74
t-69 216q0 188 116.5 311t294.5 123q135 0 209.5 -73.5t74.5 -207.5zM660 409q0 166 -97 223q-53 32 -130 32q-113 0 -183 -71q-52 -52 -80.5 -135t-28.5 -181q0 -125 55.5 -189t163.5 -64q118 0 192 76q51 53 79.5 134t28.5 175z" />
    <glyph glyph-name="oogonek" unicode="&#x1eb;" horiz-adv-x="444" 
d="M411 331q0 -76 -30 -153t-76 -121q-3 -2 -7.5 -6t-6.5 -6q-21 -16 -79 -39.5t-80 -49.5q-34 -39 -45 -98q-4 -23 7.5 -36.5t32.5 -13.5q20 0 68 36q3 2 15 11l4 -21q-61 -52 -90 -68t-56 -16q-26 0 -39.5 24.5t-6.5 67.5q15 83 109 148q-114 9 -114 162q0 92 32.5 165
t93.5 116q69 49 135 49q62 0 97.5 -40t35.5 -111zM335 315q0 129 -94 129q-40 0 -60 -17q-37 -30 -62.5 -110.5t-25.5 -165.5q0 -59 24 -91.5t68 -32.5q47 0 75 33q33 40 54 111.5t21 143.5z" />
    <glyph glyph-name="Gacute" unicode="&#x1f4;" horiz-adv-x="722" 
d="M692 246l-32 -6q-23 -4 -27 -21l-23 -135q-2 -13 2 -40l-4 -7q-23 -4 -56 -15q-120 -40 -197 -40q-147 0 -226 76t-79 216q0 229 179 358q104 74 237 74q96 0 209 -41q-20 -66 -27 -146h-27v84q-78 50 -187 50q-124 0 -197 -74q-99 -99 -99 -282q0 -133 64 -201.5
t188 -68.5q76 0 138 33l18 93q7 34 7 59q0 18 -14 23.5t-70 8.5l-34 2l5 26q64 -3 129 -3q62 0 125 3l-2 -26v0zM606 860q-1 -15 -32 -30l-174 -82h-37l167 123q17 14 34 14q16 0 29 -7.5t13 -17.5z" />
    <glyph glyph-name="gacute" unicode="&#x1f5;" horiz-adv-x="500" 
d="M498 427l-9 -45q-31 -4 -50 -4h-34l1 -3q3 -15 3 -33q0 -67 -48 -122.5t-121 -73.5q-1 -1 -1.5 -2t-2 -3t-2.5 -3q-21 -27 -21 -38q0 -28 47 -65l60 -49q64 -52 64 -107q0 -62 -72.5 -108.5t-169.5 -46.5q-82 0 -130.5 32t-48.5 85q0 63 53 107q46 39 144 71
q-21 18 -21 33q0 22 27 47l41 38q-11 -1 -30 -1q-58 0 -90 32.5t-32 90.5q0 107 85 171q69 52 135 52q33 0 67 -13q31 -12 51 -45q66 0 102 9zM318 -154q0 45 -65 96l-77 59q-66 -19 -99 -46q-50 -42 -50 -100q0 -46 38.5 -74.5t100.5 -28.5t107 27.5t45 66.5zM337 341
q0 107 -87 107q-55 0 -89.5 -44.5t-34.5 -115.5q0 -120 93 -120q53 0 85.5 48t32.5 125zM386 656q0 -20 -28 -37l-162 -101h-34l153 151q18 18 33 18t26.5 -9.5t11.5 -21.5z" />
    <glyph glyph-name="Aringacute" unicode="&#x1fa;" horiz-adv-x="722" 
d="M677 -3q-60 3 -122 3q-61 0 -122 -3v28l44 3q43 3 43 27q0 4 -2 22l-27 200h-246l-102 -175q-26 -44 -26 -55q0 -7 9 -12.5t22 -6.5l52 -3v-28q-52 3 -107 3q-57 0 -112 -3v30l20 5q26 6 44 22.5t44 57.5l373 593h46l87 -625q4 -34 12.5 -41t43.5 -11l26 -3v-28zM486 313
l-37 288l-179 -288h216zM661 1069q0 -15 -31 -30l-175 -82h-37l167 123q17 14 34 14q16 0 29 -7.5t13 -17.5zM609 837q0 -42 -29.5 -71t-70.5 -29q-42 0 -71 29t-29 71t29.5 71t71.5 29q41 0 70 -29.5t29 -70.5zM571 837q0 29 -17 46.5t-45 17.5t-45 -17.5t-17 -46.5
t17 -46.5t45 -17.5t45 17.5t17 46.5z" />
    <glyph glyph-name="aringacute" unicode="&#x1fb;" horiz-adv-x="444" 
d="M406 85q-116 -96 -146 -96q-24 0 -24 37q0 24 6 51l29 127q-78 -110 -138 -162q-61 -53 -95 -53q-14 0 -24 22.5t-10 54.5q0 60 21 140.5t54 147.5q19 37 46 62t74 48q37 18 75 18q36 0 85 -19l33 18l10 -9l-92 -379q-1 -3 -1 -10q0 -24 15 -24q19 0 62 36q2 2 13 11z
M319 414q-54 19 -85 19q-37 0 -58 -16.5t-39 -59.5q-26 -62 -43.5 -136t-17.5 -122q0 -40 18 -40q25 0 67.5 41t83.5 104q45 70 74 210zM449 839q0 -15 -31 -30l-175 -82h-37l167 123q17 14 34 14q16 0 29 -7.5t13 -17.5zM397 607q0 -42 -29.5 -71t-70.5 -29q-42 0 -71 29
t-29 71t29.5 71t71.5 29q41 0 70 -29.5t29 -70.5zM359 607q0 29 -17 46.5t-45 17.5t-45 -17.5t-17 -46.5t17 -46.5t45 -17.5t45 17.5t17 46.5z" />
    <glyph glyph-name="AEacute" unicode="&#x1fc;" horiz-adv-x="941" 
d="M846 0q-14 0 -24 -1t-26.5 -1.5t-53.5 -0.5q-35 0 -105 1.5t-105 1.5q-74 0 -148 -3l5 26q32 5 43.5 13.5t15.5 29.5l38 213h-222l-108 -181q-20 -36 -20 -44q0 -27 61 -27h24v-30q-67 3 -107 3l-118 -3v30l34 5q18 3 36 30l368 545q13 20 13 36q0 7 -11.5 13t-25.5 6
h-66v30q122 -3 243 -3q41 0 123 1.5t123 1.5q37 0 69 -3q-17 -57 -21 -152h-24l-8 89q-1 11 -27.5 17.5t-66.5 6.5l-76 -2l-47 -2q-5 -10 -9 -32l-42 -238h17l219 6l4 -7l-19 -45q-9 0 -17.5 1.5t-33.5 2t-81 0.5h-97l-43 -253q-2 -12 -2 -35q86 -7 112 -7q111 0 147 9
q16 4 24.5 15t16.5 38l16 60h27l-5 -26q-13 -73 -16 -99zM492 319l54 336h-14q-14 0 -37 -35l-205 -301h202zM730 860q-1 -15 -32 -30l-174 -82h-37l167 123q17 14 34 14q16 0 29 -7.5t13 -17.5z" />
    <glyph glyph-name="aeacute" unicode="&#x1fd;" horiz-adv-x="638" 
d="M586 91q-74 -59 -116 -80.5t-87 -21.5q-47 0 -74 21.5t-41 70.5q-53 -51 -90.5 -71.5t-80.5 -20.5q-96 0 -96 103q0 160 215 160h68q6 18 6 55q0 127 -110 127q-26 0 -53 -9q-8 -7 -11 -14l-20 -58l-18 5l-6 68q5 3 12 7.5t13 8.5q36 24 59 32t56 8q53 0 84.5 -21
t54.5 -73q62 51 105 72.5t83 21.5q37 0 60.5 -22t23.5 -57q0 -37 -27.5 -73t-73.5 -59q-68 -35 -173 -41q-13 -69 -13 -98q0 -44 22.5 -70t61.5 -26q44 0 121 52q3 2 6.5 4.5t5.5 4t6 3.5l20 13zM272 170q5 16 10 58h-38q-170 0 -170 -124q0 -32 17.5 -50t49.5 -18
q43 0 79 37t52 97zM549 388q0 52 -56 52q-59 0 -102 -67q-30 -47 -38 -118q44 5 51 6q66 12 105.5 46.5t39.5 80.5zM498 656q0 -20 -28 -37l-162 -101h-34l153 151q18 18 33 18t26.5 -9.5t11.5 -21.5z" />
    <glyph glyph-name="Oslashacute" unicode="&#x1fe;" horiz-adv-x="778" 
d="M748 432q0 -193 -120 -321.5t-299 -128.5q-116 0 -195 61l-74 -82l-28 24l78 83q-31 45 -44 91.5t-13 113.5q0 187 116.5 310t293.5 123q113 0 198 -63l72 78l29 -26l-74 -79q34 -42 47 -82.5t13 -101.5zM660 412q0 88 -36 155l-435 -470q63 -73 172 -73q117 0 191 76
q108 111 108 312zM602 600q-39 35 -77 49.5t-92 14.5q-114 0 -183 -71q-52 -53 -80.5 -136t-28.5 -182q0 -82 27 -144zM653 860q-1 -15 -32 -30l-174 -82h-37l167 123q17 14 34 14q16 0 29 -7.5t13 -17.5z" />
    <glyph glyph-name="oslashacute" unicode="&#x1ff;" horiz-adv-x="444" 
d="M460 490l-66 -75q17 -42 17 -85q0 -65 -24 -134.5t-61 -115.5q-34 -41 -83.5 -66t-96.5 -25q-58 0 -94 40l-46 -53l-24 20l53 60q-19 38 -19 94q0 158 101 264q65 68 160 68q62 0 99 -40l60 68zM335 312q0 5 -2 23v11l-230 -260q24 -59 82 -59q61 0 100 70q21 37 35.5 99
t14.5 116zM325 384q-26 60 -83 60q-63 0 -103 -68q-21 -37 -34 -97.5t-13 -119.5q0 -13 3 -35zM437 656q0 -20 -28 -37l-162 -101h-34l153 151q18 18 33 18t26.5 -9.5t11.5 -21.5z" />
    <glyph glyph-name="Adblgrave" unicode="&#x200;" horiz-adv-x="722" 
d="M677 -3q-60 3 -122 3q-61 0 -122 -3v28l44 3q43 3 43 27q0 4 -2 22l-27 200h-246l-102 -175q-26 -44 -26 -55q0 -7 9 -12.5t22 -6.5l52 -3v-28q-52 3 -107 3q-57 0 -112 -3v30l20 5q26 6 44 22.5t44 57.5l373 593h46l87 -625q4 -34 12.5 -41t43.5 -11l26 -3v-28zM486 313
l-37 288l-179 -288h216zM454 748h-37l-146 82q-25 15 -20 30q3 10 18 17.5t32 7.5q18 0 29 -14zM614 748h-37l-146 82q-25 15 -20 30q3 10 18 17.5t32 7.5q18 0 29 -14z" />
    <glyph glyph-name="adblgrave" unicode="&#x201;" horiz-adv-x="444" 
d="M406 85q-116 -96 -146 -96q-24 0 -24 37q0 24 6 51l29 127q-78 -110 -138 -162q-61 -53 -95 -53q-14 0 -24 22.5t-10 54.5q0 60 21 140.5t54 147.5q19 37 46 62t74 48q37 18 75 18q36 0 85 -19l33 18l10 -9l-92 -379q-1 -3 -1 -10q0 -24 15 -24q19 0 62 36q2 2 13 11z
M319 414q-54 19 -85 19q-37 0 -58 -16.5t-39 -59.5q-26 -62 -43.5 -136t-17.5 -122q0 -40 18 -40q25 0 67.5 41t83.5 104q45 70 74 210zM410 518h-34l-126 101q-22 17 -15 37q5 12 19.5 21.5t29.5 9.5t27 -18zM280 518h-34l-126 101q-22 17 -15 37q5 12 19.5 21.5t29.5 9.5
t27 -18z" />
    <glyph glyph-name="Edblgrave" unicode="&#x204;" horiz-adv-x="611" 
d="M514 0q-5 0 -29.5 -1.5t-75.5 -1.5q-37 0 -112 1.5t-113 1.5q-78 0 -154 -3l5 26q33 5 45.5 11.5t14.5 20.5l87 504q9 48 9 77q0 25 -35 26l-54 2l3 28q80 -3 160 -3q40 0 118.5 1.5t117.5 1.5q36 0 69 -3q-17 -57 -21 -152h-24l-8 89q-2 24 -107 24q-41 -1 -130 -4
q-5 -10 -9 -32l-42 -238h37l219 6l4 -7l-19 -45q-9 0 -17.5 1.5t-33.5 2t-81 0.5h-117l-43 -253q-2 -12 -2 -35q74 -7 131 -7q112 0 150 10q16 4 24 15t15 37l16 60h27q-16 -80 -21 -125zM355 748h-37l-146 82q-25 15 -20 30q3 10 18.5 17.5t31.5 7.5q18 0 29 -14zM515 748
h-37l-146 82q-25 15 -20 30q3 10 18.5 17.5t31.5 7.5q18 0 29 -14z" />
    <glyph glyph-name="edblgrave" unicode="&#x205;" horiz-adv-x="389" 
d="M336 92q-70 -56 -116 -79.5t-89 -23.5q-54 0 -85 32.5t-31 90.5q0 52 19 127t42 112q30 48 97.5 89.5t116.5 41.5q38 0 61 -21.5t23 -56.5q0 -90 -124 -145q-47 -20 -69 -25l-82 -20q-8 -39 -8 -80q0 -46 20 -72t56 -26q56 0 137 58l24 17zM300 388q0 24 -13 38t-35 14
q-43 0 -76 -31q-39 -37 -63 -135l-9 -37q64 14 109 35q39 19 63 51t24 65zM386 518h-34l-126 101q-22 17 -15 37q5 12 19.5 21.5t29.5 9.5t27 -18zM256 518h-34l-126 101q-22 17 -15 37q5 12 19.5 21.5t29.5 9.5t27 -18z" />
    <glyph glyph-name="Idblgrave" unicode="&#x208;" 
d="M259 -3q-63 3 -126 3t-126 -3l3 28l36 3q30 2 38.5 16t19.5 81l72 434q9 49 9 77q0 25 -35 26l-47 2l3 28q68 -3 136 -3q56 0 112 3l-3 -28l-35 -3q-29 -2 -37.5 -10t-13.5 -38l-89 -535q-2 -10 -2 -21q0 -15 8 -21t28 -8l52 -3zM210 748h-37l-146 82q-25 15 -20 30
q3 10 18 17.5t32 7.5q18 0 29 -14zM370 748h-37l-146 82q-25 15 -20 30q3 10 18 17.5t32 7.5q18 0 29 -14z" />
    <glyph glyph-name="idblgrave" unicode="&#x209;" horiz-adv-x="278" 
d="M241 85q-73 -54 -107 -74t-53 -20q-30 0 -30 39q0 31 13 77l66 240q8 30 8 44q0 21 -17 21q-13 0 -48 -23l-32 -21l-7 20l28 20q104 74 134 74q25 0 25 -26q0 -10 -6 -36l-77 -304q-7 -26 -7 -40q0 -20 13 -20q16 0 61 30l26 17zM332 518h-34l-126 101q-22 17 -15 37
q5 12 19.5 21.5t29.5 9.5t27 -18zM202 518h-34l-126 101q-22 17 -15 37q5 12 19.5 21.5t29.5 9.5t27 -18z" />
    <glyph glyph-name="Odblgrave" unicode="&#x20c;" horiz-adv-x="778" 
d="M748 425q0 -119 -55 -222t-149 -161q-95 -60 -221 -60q-132 0 -201 74t-69 216q0 188 116.5 311t294.5 123q135 0 209.5 -73.5t74.5 -207.5zM660 409q0 166 -97 223q-53 32 -130 32q-113 0 -183 -71q-52 -52 -80.5 -135t-28.5 -181q0 -125 55.5 -189t163.5 -64
q118 0 192 76q51 53 79.5 134t28.5 175zM433 748h-37l-146 82q-25 15 -20 30q3 10 18.5 17.5t31.5 7.5q18 0 29 -14zM593 748h-37l-146 82q-25 15 -20 30q3 10 18.5 17.5t31.5 7.5q18 0 29 -14z" />
    <glyph glyph-name="odblgrave" unicode="&#x20d;" horiz-adv-x="444" 
d="M411 331q0 -76 -30 -153t-76 -121q-73 -68 -160 -68q-62 0 -95 42t-33 121q0 92 32.5 165t93.5 116q69 49 135 49q62 0 97.5 -40t35.5 -111zM335 315q0 129 -94 129q-40 0 -60 -17q-37 -30 -62.5 -110.5t-25.5 -165.5q0 -59 24 -91.5t68 -32.5q47 0 75 33q33 40 54 111.5
t21 143.5zM399 518h-34l-126 101q-22 17 -15 37q5 12 19.5 21.5t29.5 9.5t27 -18zM269 518h-34l-126 101q-22 17 -15 37q5 12 19.5 21.5t29.5 9.5t27 -18z" />
    <glyph glyph-name="Rdblgrave" unicode="&#x210;" horiz-adv-x="667" 
d="M639 -3q-29 3 -58 3q-37 0 -74 -3q-87 148 -240 370l3 11h44q78 0 130 47t52 118q0 113 -133 113q-37 0 -76 -8l-7 -28l-9 -40l-85 -487q-4 -23 -4 -35q0 -15 8 -22t28 -8l49 -3l-3 -28q-62 3 -123 3q-66 0 -132 -3l4 28l41 3q30 2 38 15.5t20 81.5l75 434q9 54 9 76
q0 26 -35 27l-56 2l3 28q75 -3 151 -3q25 0 75 1.5t75 1.5q68 0 121.5 -35.5t53.5 -96.5q0 -94 -89 -158q-48 -35 -120 -48l184 -275q21 -31 35.5 -41t44.5 -14v-27zM380 748h-37l-146 82q-25 15 -20 30q3 10 18 17.5t32 7.5q18 0 29 -14zM540 748h-37l-146 82
q-25 15 -20 30q3 10 18 17.5t32 7.5q18 0 29 -14z" />
    <glyph glyph-name="rdblgrave" unicode="&#x211;" horiz-adv-x="389" 
d="M368 365h-14q-15 19 -36 19q-33 0 -83 -65q-60 -78 -85 -193l-26 -120q-44 -8 -67 -15l-10 7q30 95 56.5 221.5t26.5 170.5q0 22 -17 22q-12 0 -48 -23l-32 -21l-7 20l28 20q103 74 133 74q23 0 23 -32q0 -15 -12 -68l-26 -126q22 47 94 151q53 75 98 75q7 0 20 -6
q-12 -62 -16 -111zM352 518h-34l-126 101q-22 17 -15 37q5 12 19.5 21.5t29.5 9.5t27 -18zM222 518h-34l-126 101q-22 17 -15 37q5 12 19.5 21.5t29.5 9.5t27 -18z" />
    <glyph glyph-name="Udblgrave" unicode="&#x214;" horiz-adv-x="778" 
d="M709 25l-5 -28q-42 3 -85 3q-44 0 -89 -3l-5 5q19 79 27 127q-39 -45 -68.5 -68t-74.5 -46q-68 -34 -133 -34q-84 0 -131.5 43.5t-47.5 120.5q0 28 6 61l64 375q7 40 7 58q0 13 -7 17.5t-27 5.5l-52 2l3 28q45 -3 90 -3q44 0 89 3l-88 -477q-7 -36 -7 -60q0 -54 37 -85
t102 -31q129 0 242 138l71 445q3 21 -4.5 30t-29.5 10l-48 2l3 28q67 -3 137 -3q56 0 113 3l-3 -28l-36 -3q-28 -2 -37 -10.5t-14 -37.5l-85 -507q-6 -38 -6 -56t32 -21zM424 748h-37l-146 82q-25 15 -20 30q3 10 18 17.5t32 7.5q18 0 29 -14zM584 748h-37l-146 82
q-25 15 -20 30q3 10 18 17.5t32 7.5q18 0 29 -14z" />
    <glyph glyph-name="udblgrave" unicode="&#x215;" horiz-adv-x="556" 
d="M512 85q-75 -56 -108 -76t-52 -20q-30 0 -30 42q0 27 11 66l37 142q-63 -103 -142 -176.5t-126 -73.5q-15 0 -25 11.5t-10 28.5q0 28 4 48l63 297q2 10 2 18q0 20 -17 20q-13 0 -48 -23l-32 -21l-7 20l28 20q103 74 133 74q22 0 22 -31q0 -16 -5 -43l-57 -271
q-7 -36 -7 -52q0 -26 13 -26q31 0 83.5 48.5t96.5 117.5q45 71 68 189l10 51l68 17l7 -9l-84 -357q-6 -24 -6 -40q0 -17 13 -17q19 0 61 27l26 17zM457 518h-34l-126 101q-22 17 -15 37q5 12 19.5 21.5t29.5 9.5t27 -18zM327 518h-34l-126 101q-22 17 -15 37q5 12 19.5 21.5
t29.5 9.5t27 -18z" />
    <glyph glyph-name="uni0218" unicode="&#x218;" horiz-adv-x="556" 
d="M485 234q0 -102 -86 -177t-202 -75q-79 0 -155 38q15 72 24 152h30v-99q61 -43 136 -43q77 0 125.5 44.5t48.5 116.5q0 86 -81 105l-95 23q-63 15 -92.5 51.5t-29.5 100.5q0 88 63 151q86 84 203 84q67 0 132 -34q-19 -60 -25 -135h-30v76q-42 45 -112 45
q-69 0 -114 -42.5t-45 -107.5q0 -97 96 -117l65 -14q76 -17 110 -50.5t34 -92.5zM257 -78q-37 -71 -60 -106.5t-61 -78.5l-32 -13l-7 9q33 51 43.5 84.5t18.5 97.5q35 5 89 25z" />
    <glyph glyph-name="uni0219" unicode="&#x219;" horiz-adv-x="389" 
d="M334 174q0 -71 -72 -127q-74 -58 -146 -58q-53 0 -107 27q15 64 22 132h25v-84q41 -35 94 -35t85 29.5t32 79.5q0 30 -13.5 44.5t-46.5 20.5l-63 12q-97 19 -97 101q0 50 37 88q76 78 161 78q45 0 100 -27q-13 -60 -19 -113h-23v55q-12 20 -38 32.5t-57 12.5
q-43 0 -72.5 -27t-29.5 -67q0 -31 17 -46t62 -23l43 -8q56 -10 81 -33t25 -64zM179 -78q-37 -71 -60 -106.5t-61 -78.5l-32 -13l-7 9q33 51 43.5 84.5t18.5 97.5q35 5 89 25z" />
    <glyph glyph-name="uni021A" unicode="&#x21a;" horiz-adv-x="611" 
d="M608 528h-28l4 64q2 21 -4 37q-4 17 -117 17h-73l-94 -553q-4 -21 -4 -35q0 -29 36 -30l59 -3l-3 -28q-66 3 -133 3q-71 0 -142 -3l4 28l51 3q30 2 38.5 15.5t19.5 81.5l86 521h-112q-70 0 -81 -13q-11 -12 -18 -45l-15 -60h-29l18 164q141 -3 282 -3t282 3zM269 -78
q-37 -71 -60 -106.5t-61 -78.5l-32 -13l-7 9q33 51 43.5 84.5t18.5 97.5q35 5 89 25z" />
    <glyph glyph-name="uni021B" unicode="&#x21b;" 
d="M265 99q-9 -7 -15.5 -12.5t-15.5 -12.5q-60 -48 -91 -65.5t-57 -17.5q-30 0 -30 40q0 11 13 76l56 283h-84l2 13q25 7 88 37l25 170q51 20 78 36l11 -15q-23 -70 -45 -197q53 0 110 6l-11 -50h-107l-13 -62q-43 -205 -43 -252q0 -20 13 -20q18 0 61 30l45 31zM155 -78
q-37 -71 -60 -106.5t-61 -78.5l-32 -13l-7 9q33 51 43.5 84.5t18.5 97.5q35 5 89 25z" />
    <glyph glyph-name="ereversed" unicode="&#x258;" horiz-adv-x="389" 
d="M334 112q-20 -58 -62.5 -90.5t-96.5 -32.5q-43 0 -81 23t-88 80l15 19l18 -17q60 -58 116 -58q36 0 65 26t46 72q15 43 20 80l-75 20q-21 6 -60 25q-105 55 -73 145q13 35 43.5 56.5t68.5 21.5q49 0 101.5 -41.5t65.5 -89.5q10 -36 3 -111.5t-26 -127.5zM289 237l4 37
q12 98 -15 135q-22 31 -65 31q-47 0 -67 -52q-11 -33 1.5 -65t45.5 -51q36 -20 96 -35z" />
    <glyph glyph-name="schwa" unicode="&#x259;" horiz-adv-x="389" 
d="M378 359q0 -52 -19 -127t-42 -112q-30 -48 -97.5 -89.5t-116.5 -41.5q-38 0 -61 21.5t-23 56.5q0 90 124 145q47 20 69 25l82 20q8 39 8 80q0 46 -20 72t-56 26q-56 0 -137 -58l-24 -17l-8 19q70 56 116 79.5t89 23.5q54 0 85 -32.5t31 -90.5zM289 234q-64 -14 -109 -35
q-39 -19 -63 -51t-24 -65q0 -24 13 -38t35 -14q43 0 76 31q39 37 63 135z" />
    <glyph glyph-name="ringhalfright" unicode="&#x2be;" horiz-adv-x="325" 
d="M363 575q0 -55 -18.5 -105t-48.5 -76q-29 -26 -63 -42.5t-58 -16.5q-41 0 -67 17q-5 3 -3 8q8 22 15 84q2 8 9 8h16q7 0 7 -6v-40q0 -22 47 -22q30 0 46 15q24 18 37.5 62t13.5 96q0 73 -49 73q-28 0 -92 -42l-10 -7q-2 -1 -5 -1q-6 0 -6 4l-6 13q-2 6 4 10l33 27
q55 46 111 46q87 0 87 -105z" />
    <glyph glyph-name="ringhalfleft" unicode="&#x2bf;" horiz-adv-x="325" 
d="M339 418q3 -5 -4 -10l-32 -27q-56 -46 -111 -46q-88 0 -88 105q0 55 18.5 105t48.5 76q29 26 63 42.5t58 16.5q41 0 67 -17q6 -4 3 -8q-8 -22 -15 -84q-2 -8 -9 -8h-16q-7 0 -7 6v40q0 22 -47 22q-30 0 -46 -15q-23 -19 -37 -62.5t-14 -95.5q0 -73 49 -73q29 0 92 42
l10 7q2 1 5 1q6 0 6 -4z" />
    <glyph glyph-name="circumflex" unicode="&#x2c6;" 
d="M394 519h-36l-82 104l-137 -104h-39l157 169h49z" />
    <glyph glyph-name="caron" unicode="&#x2c7;" 
d="M444 688l-163 -169h-46l-96 169h37l90 -105l142 105h36z" />
    <glyph glyph-name="breve" unicode="&#x2d8;" 
d="M429 683q-18 -66 -45 -100q-47 -59 -125 -59q-79 0 -111 58q-20 36 -20 101h29q9 -100 109 -100q45 0 75 22.5t59 77.5h29z" />
    <glyph glyph-name="dotaccent" unicode="&#x2d9;" 
d="M320 616q0 -29 -15.5 -48t-38.5 -19q-19 0 -29.5 11t-10.5 30q0 26 18 46.5t40 20.5q16 0 26 -11.5t10 -29.5z" />
    <glyph glyph-name="ring" unicode="&#x2da;" 
d="M373 603q0 -42 -29.5 -71t-70.5 -29q-42 0 -71 29t-29 71t29.5 71t71.5 29q41 0 70 -29.5t29 -70.5zM335 603q0 29 -17 46.5t-45 17.5t-45 -17.5t-17 -46.5t17 -46.5t45 -17.5t45 17.5t17 46.5z" />
    <glyph glyph-name="ogonek" unicode="&#x2db;" 
d="M234 -166q-61 -52 -90 -68t-56 -16q-26 0 -39.5 24.5t-6.5 67.5q17 96 149 173h35q-50 -30 -79.5 -64.5t-39.5 -92.5q-4 -23 7.5 -36.5t32.5 -13.5q20 0 68 36q3 2 15 11z" />
    <glyph glyph-name="tilde" unicode="&#x2dc;" 
d="M437 655q-9 -49 -34.5 -76t-62.5 -27q-23 0 -64 16q-46 18 -47 19q-22 9 -38 9q-19 0 -30 -9.5t-22 -34.5h-29q15 55 38 79t60 24q27 0 63 -14l60 -24q12 -5 27 -5t25.5 9t25.5 34h28z" />
    <glyph glyph-name="hungarumlaut" unicode="&#x2dd;" 
d="M352 656q0 -20 -28 -37l-162 -101h-34l153 151q18 18 33 18t26.5 -9.5t11.5 -21.5zM482 656q0 -20 -28 -37l-162 -101h-34l153 151q18 18 33 18t26.5 -9.5t11.5 -21.5z" />
    <glyph glyph-name="uni0300" unicode="&#x300;" horiz-adv-x="0" 
d="M-31 518h-34l-126 101q-22 17 -15 37q5 12 19.5 21.5t29.5 9.5t27 -18z" />
    <glyph glyph-name="uni0301" unicode="&#x301;" horiz-adv-x="0" 
d="M-6 656q0 -20 -28 -37l-162 -101h-34l153 151q18 18 33 18t26.5 -9.5t11.5 -21.5z" />
    <glyph glyph-name="uni0302" unicode="&#x302;" horiz-adv-x="0" 
d="M6 519h-36l-82 104l-137 -104h-39l157 169h49z" />
    <glyph glyph-name="uni0303" unicode="&#x303;" horiz-adv-x="0" 
d="M49 655q-9 -49 -34.5 -76t-62.5 -27q-23 0 -64 16q-46 18 -47 19q-22 9 -38 9q-19 0 -30 -9.5t-22 -34.5h-29q15 55 38 79t60 24q27 0 63 -14l60 -24q12 -5 27 -5t25.5 9t25.5 34h28z" />
    <glyph glyph-name="uni0304" unicode="&#x304;" horiz-adv-x="0" 
d="M41 629l-11 -51h-301l11 51h301z" />
    <glyph glyph-name="uni0306" unicode="&#x306;" horiz-adv-x="0" 
d="M41 683q-18 -66 -45 -100q-47 -59 -125 -59q-79 0 -111 58q-20 36 -20 101h29q9 -100 109 -100q45 0 75 22.5t59 77.5h29z" />
    <glyph glyph-name="uni0307" unicode="&#x307;" horiz-adv-x="0" 
d="M-68 616q0 -29 -15.5 -48t-38.5 -19q-19 0 -29.5 11t-10.5 30q0 26 18 46.5t40 20.5q16 0 26 -11.5t10 -29.5z" />
    <glyph glyph-name="uni0308" unicode="&#x308;" horiz-adv-x="0" 
d="M-149 616q0 -29 -15.5 -48t-38.5 -19q-19 0 -29.5 11t-10.5 30q0 26 18 46.5t40 20.5q16 0 26 -11.5t10 -29.5zM11 616q0 -29 -15.5 -48t-38.5 -19q-19 0 -29.5 11t-10.5 30q0 26 18 46.5t40 20.5q16 0 26 -11.5t10 -29.5z" />
    <glyph glyph-name="uni0309" unicode="&#x309;" horiz-adv-x="0" 
d="M-29 663q0 -27 -36 -54l-46 -30q-18 -12 -18 -18q7 -7 25 -20l-34 -8q-24 13 -24 30q0 19 27 42l30 25q23 19 23 29q0 17 -33 17q-23 0 -33 -12l-12 -14l-22 3l20 48q29 12 56 12q35 0 56 -13.5t21 -36.5z" />
    <glyph glyph-name="uni030A" unicode="&#x30a;" horiz-adv-x="0" 
d="M-15 603q0 -42 -29.5 -71t-70.5 -29q-42 0 -71 29t-29 71t29.5 71t71.5 29q41 0 70 -29.5t29 -70.5zM-53 603q0 29 -17 46.5t-45 17.5t-45 -17.5t-17 -46.5t17 -46.5t45 -17.5t45 17.5t17 46.5z" />
    <glyph glyph-name="uni030B" unicode="&#x30b;" horiz-adv-x="0" 
d="M-36 656q0 -20 -28 -37l-162 -101h-34l153 151q18 18 33 18t26.5 -9.5t11.5 -21.5zM94 656q0 -20 -28 -37l-162 -101h-34l153 151q18 18 33 18t26.5 -9.5t11.5 -21.5z" />
    <glyph glyph-name="uni030C" unicode="&#x30c;" horiz-adv-x="0" 
d="M56 688l-163 -169h-46l-96 169h37l90 -105l142 105h36z" />
    <glyph glyph-name="uni030F" unicode="&#x30f;" horiz-adv-x="0" 
d="M-1 518h-34l-126 101q-22 17 -15 37q5 12 19.5 21.5t29.5 9.5t27 -18zM-131 518h-34l-126 101q-22 17 -15 37q5 12 19.5 21.5t29.5 9.5t27 -18z" />
    <glyph glyph-name="uni0311" unicode="&#x311;" horiz-adv-x="0" 
d="M13 524h-29q-9 100 -109 100q-45 0 -75 -22.5t-59 -77.5h-29q18 66 45 100q47 59 125 59q79 0 111 -58q20 -36 20 -101z" />
    <glyph glyph-name="uni0323" unicode="&#x323;" horiz-adv-x="0" 
d="M-199 -128q0 -29 -15.5 -48t-38.5 -19q-19 0 -29.5 11t-10.5 30q0 26 18 46.5t40 20.5q16 0 26 -11.5t10 -29.5z" />
    <glyph glyph-name="uni0326" unicode="&#x326;" horiz-adv-x="0" 
d="M-188 -78q-37 -71 -60 -106.5t-61 -78.5l-32 -13l-7 9q33 51 43.5 84.5t18.5 97.5q35 5 89 25z" />
    <glyph glyph-name="uni032E" unicode="&#x32e;" horiz-adv-x="0" 
d="M-72 -76q-26 -69 -71 -99t-114 -30q-71 0 -106 31.5t-34 97.5h31q8 -81 117 -81q48 0 81 18.5t65 62.5h31z" />
    <glyph glyph-name="uni032F" unicode="&#x32f;" horiz-adv-x="0" 
d="M-95 -205h-31q-9 81 -118 81q-48 0 -81 -18.5t-64 -62.5h-31q26 69 70.5 99t113.5 30q71 0 106.5 -31.5t34.5 -97.5z" />
    <glyph glyph-name="uni0330" unicode="&#x330;" horiz-adv-x="0" 
d="M-82 -89q-9 -49 -34.5 -76t-62.5 -27q-23 0 -64 16q-46 18 -47 19q-22 9 -38 9q-19 0 -30 -9.5t-22 -34.5h-29q15 55 38 79t60 24q27 0 63 -14l60 -24q12 -5 27 -5t25.5 9t25.5 34h28z" />
    <glyph glyph-name="uni0331" unicode="&#x331;" horiz-adv-x="0" 
d="M-90 -115l-11 -51h-301l11 51h301z" />
    <glyph glyph-name="uni0332" unicode="&#x332;" horiz-adv-x="0" 
d="M-90 -115l-11 -51h-301l11 51h301z" />
    <glyph glyph-name="Alpha" unicode="&#x391;" horiz-adv-x="722" 
d="M677 -3q-60 3 -122 3q-61 0 -122 -3v28l44 3q43 3 43 27q0 4 -2 22l-27 200h-246l-102 -175q-26 -44 -26 -55q0 -7 9 -12.5t22 -6.5l52 -3v-28q-52 3 -107 3q-57 0 -112 -3v30l20 5q26 6 44 22.5t44 57.5l373 593h46l87 -625q4 -34 12.5 -41t43.5 -11l26 -3v-28zM486 313
l-37 288l-179 -288h216z" />
    <glyph glyph-name="Beta" unicode="&#x392;" horiz-adv-x="611" 
d="M543 227q0 -118 -123 -191q-65 -39 -142 -39q-27 0 -80.5 1.5t-80.5 1.5q-46 0 -91 -3l5 26q32 5 44 12t14 20l87 504q9 54 9 76q0 26 -35 27l-53 2l3 28q75 -3 151 -3q25 0 75 1.5t75 1.5q62 0 110 -36t48 -94q0 -76 -69 -137q-41 -35 -113 -60q92 -13 125 -40
q41 -33 41 -98zM455 211q0 129 -153 129h-85l-51 -299q26 -2 34 -3q44 -4 82 -4q75 0 124 50t49 127zM473 544q0 111 -121 111q-14 0 -40 -2.5t-40 -2.5l-49 -274h52q93 0 145.5 44.5t52.5 123.5z" />
    <glyph glyph-name="Gamma" unicode="&#x393;" horiz-adv-x="556" 
d="M527 537h-24l-8 89q-2 24 -103 24q-101 -4 -123 -4q-5 -11 -9 -32l-90 -536q-2 -8 -2 -21q0 -15 8 -21.5t28 -7.5l64 -3l-3 -28q-69 3 -138 3q-64 0 -127 -3l4 28l36 3q31 2 38.5 15t19.5 82l75 434q9 54 9 76q0 26 -35 27l-56 2l3 28q75 -3 152 -3q39 0 117.5 1.5
t117.5 1.5q34 0 67 -3q-16 -57 -21 -152z" />
    <glyph glyph-name="Delta" unicode="&#x394;" horiz-adv-x="590" 
d="M576 0h-562l404 731h14zM470 83l-96 509l-279 -509h375z" />
    <glyph glyph-name="Epsilon" unicode="&#x395;" horiz-adv-x="611" 
d="M514 0q-5 0 -29.5 -1.5t-75.5 -1.5q-37 0 -112 1.5t-113 1.5q-78 0 -154 -3l5 26q33 5 45.5 11.5t14.5 20.5l87 504q9 48 9 77q0 25 -35 26l-54 2l3 28q80 -3 160 -3q40 0 118.5 1.5t117.5 1.5q36 0 69 -3q-17 -57 -21 -152h-24l-8 89q-2 24 -107 24q-41 -1 -130 -4
q-5 -10 -9 -32l-42 -238h37l219 6l4 -7l-19 -45q-9 0 -17.5 1.5t-33.5 2t-81 0.5h-117l-43 -253q-2 -12 -2 -35q74 -7 131 -7q112 0 150 10q16 4 24 15t15 37l16 60h27q-16 -80 -21 -125z" />
    <glyph glyph-name="Zeta" unicode="&#x396;" horiz-adv-x="667" 
d="M583 -3q-234 3 -322 3l-241 -3v22l502 633h-180q-107 0 -180 -13l-6 -20q-17 -54 -21 -86h-26q11 100 11 158l118 1q118 -3 237 -3q81 0 162 3v-20l-504 -633h281q62 0 127 13q20 51 32 90l7 22h26q-20 -106 -23 -167z" />
    <glyph glyph-name="Eta" unicode="&#x397;" horiz-adv-x="778" 
d="M705 -3q-66 3 -132 3q-71 0 -141 -3l4 28l50 3q31 1 37 14q7 9 21 83l40 215q-112 3 -184 3l-184 -3l-42 -247q-4 -25 -4 -35q0 -16 8 -22t28 -8l49 -3l-3 -28q-62 3 -123 3q-66 0 -132 -3l4 28l41 3q30 2 38 15t20 82l74 434q9 56 9 76q0 26 -35 27l-47 2l3 28
q70 -3 141 -3q57 0 114 3l-3 -28l-42 -3q-28 -2 -37 -10.5t-14 -37.5l-42 -228h370l30 174q9 54 9 76q0 26 -35 27l-48 2l3 28q70 -3 143 -3q53 0 107 3l-3 -28l-36 -3q-28 -2 -37 -10.5t-14 -37.5l-92 -520q-4 -23 -4 -35q0 -29 36 -30l58 -3z" />
    <glyph glyph-name="Theta" unicode="&#x398;" horiz-adv-x="778" 
d="M748 425q0 -119 -55 -222t-149 -161q-95 -60 -221 -60q-132 0 -201 74t-69 216q0 188 116.5 311t294.5 123q135 0 209.5 -73.5t74.5 -207.5zM660 409q0 166 -97 223q-53 32 -130 32q-113 0 -183 -71q-52 -52 -80.5 -135t-28.5 -181q0 -125 55.5 -189t163.5 -64
q118 0 192 76q51 53 79.5 134t28.5 175zM557 250h-22q0 42 -4 54q-4 9 -6.5 12.5t-12 7t-26.5 3.5h-178q-42 0 -55 -27q0 -1 -21 -50h-22l22 113l18 114h22q2 -48 4 -55q4 -8 7 -11.5t12.5 -7t25.5 -3.5h178q24 0 35 5.5t20 20.5q9 19 21 51h22l-22 -114z" />
    <glyph glyph-name="Iota" unicode="&#x399;" 
d="M259 -3q-63 3 -126 3t-126 -3l3 28l36 3q30 2 38.5 16t19.5 81l72 434q9 49 9 77q0 25 -35 26l-47 2l3 28q68 -3 136 -3q56 0 112 3l-3 -28l-35 -3q-29 -2 -37.5 -10t-13.5 -38l-89 -535q-2 -10 -2 -21q0 -15 8 -21t28 -8l52 -3z" />
    <glyph glyph-name="Kappa" unicode="&#x39a;" horiz-adv-x="667" 
d="M646 -3q-33 3 -68 3q-34 0 -69 -3q-80 109 -123.5 162.5t-154.5 180.5l-43 -262q-2 -8 -2 -21q0 -15 8 -21t28 -8l49 -3l-3 -28q-62 3 -123 3q-66 0 -132 -3l4 28l41 3q30 2 38 15t20 82l73 434q9 49 9 76q0 26 -35 27l-47 2l3 28q71 -3 141 -3q57 0 114 3l-3 -28l-42 -3
q-28 -2 -37 -10.5t-14 -37.5l-45 -260q89 69 149 131l128 130q38 38 38 49v29q33 -3 67 -3q33 0 68 3v-27h-21q-27 0 -54 -25l-292 -273l246 -302q31 -38 64 -38h20v-30z" />
    <glyph glyph-name="Lambda" unicode="&#x39b;" horiz-adv-x="722" 
d="M677 -3q-60 3 -122 3q-61 0 -122 -3v28l44 3q43 3 43 27l-71 546l-306 -499q-26 -44 -26 -55q0 -7 9 -12.5t22 -6.5l52 -3v-28q-52 3 -107 3q-57 0 -112 -3v30l20 5q26 6 44 22.5t44 57.5l373 593h46l87 -625q4 -34 12.5 -41t43.5 -11l26 -3v-28z" />
    <glyph glyph-name="Mu" unicode="&#x39c;" horiz-adv-x="944" 
d="M899 -3q-66 3 -133 3q-66 0 -134 -3l3 28l31 3q39 4 52.5 11t14.5 28l37 520l-52 -87l-239 -414l-57 -104h-23l-149 578l-124 -464q-7 -25 -7 -41q0 -22 49 -27l38 -3l-3 -28q-54 3 -110 3q-57 0 -112 -3l3 26q41 4 58 17.5t28 52.5l145 509q3 10 3 20q0 19 -15.5 28
t-54.5 12l-26 2l3 28q41 -3 83 -3t84 3l150 -578l246 422q30 51 46.5 81t20.5 38t8.5 17.5t9.5 19.5q41 -3 83 -3t84 3l-3 -28l-38 -2q-45 -3 -46 -31l-41 -531l-1 -37q-1 -16 13 -24.5t41 -10.5l37 -3z" />
    <glyph glyph-name="Nu" unicode="&#x39d;" horiz-adv-x="778" 
d="M804 692l-5 -28l-37 -2q-20 -1 -28.5 -8t-15 -29.5t-16.5 -82.5l-94 -553h-50l-338 577l-80 -464q-3 -16 -3 -30q0 -25 9.5 -33.5t39.5 -10.5l42 -3l-5 -28q-54 3 -110 3q-55 0 -111 -3l5 28l31 3q27 2 36 14.5t18 59.5l88 474q5 15 5 30t-30 39q-19 15 -50 17l-35 2
l5 28q41 -3 81 -3t81 3l345 -589l80 489q5 32 5 46q0 23 -36 24l-47 2l5 28q53 -3 105 -3q54 0 110 3z" />
    <glyph glyph-name="Xi" unicode="&#x39e;" horiz-adv-x="688" 
d="M700 503h-27q2 79 -8 95q-10 17 -69 17h-283q-41 0 -56 -5t-26 -22q-12 -17 -34 -85h-27l30 143q1 4 2.5 18t3.5 23l3 3q2 0 96 -2l162 -1l125 1l135 2l1 -3q-1 -7 -4 -20.5t-4 -19.5zM684 190q-26 -77 -56 -190l-4 -4l-94 2l-184 2l-251 -3l-28 -1l-3 4q8 81 12 190h29
q8 -85 24 -100q11 -14 73 -14h314q60 0 80 14q20 17 60 100h28zM562 250h-22q-1 43 -5 54q-4 13 -12 18t-33 5h-178q-42 0 -55 -27q-3 -5 -20 -50h-22l22 113l18 114h22q0 -46 3 -55q4 -8 7 -11.5t12.5 -7t25.5 -3.5h178q24 0 35 5.5t21 20.5q1 3 8 20t13 31h22l-22 -114z
" />
    <glyph glyph-name="Omicron" unicode="&#x39f;" horiz-adv-x="778" 
d="M748 425q0 -119 -55 -222t-149 -161q-95 -60 -221 -60q-132 0 -201 74t-69 216q0 188 116.5 311t294.5 123q135 0 209.5 -73.5t74.5 -207.5zM660 409q0 166 -97 223q-53 32 -130 32q-113 0 -183 -71q-52 -52 -80.5 -135t-28.5 -181q0 -125 55.5 -189t163.5 -64
q118 0 192 76q51 53 79.5 134t28.5 175z" />
    <glyph glyph-name="Pi" unicode="&#x3a0;" horiz-adv-x="728" 
d="M655 -3q-66 3 -132 3q-71 0 -141 -3l4 28l50 3q29 1 37 14q8 11 21 83l93 515h-318l-95 -547q-4 -21 -4 -35q0 -16 8 -22t28 -8l49 -3l-3 -28q-64 3 -130 3q-62 0 -125 -3l4 28l41 3q30 2 38 15t20 82l74 434q9 49 9 77q0 25 -35 26l-47 2l3 28l64 -2l566 2h16l-3 -28
l-36 -3q-28 -2 -37 -10.5t-14 -37.5l-92 -520q-4 -24 -4 -35q0 -16 8 -22.5t28 -7.5l58 -3z" />
    <glyph glyph-name="Rho" unicode="&#x3a1;" horiz-adv-x="611" 
d="M594 541q0 -102 -71 -177.5t-168 -75.5q-39 0 -86 23l-2 31q50 -19 79 -19q66 0 113 57.5t47 138.5q0 137 -151 137q-23 0 -71 -8q-2 -7 -4.5 -16.5t-2.5 -11.5l-9 -40l-82 -487q-4 -25 -4 -35q0 -29 36 -30l65 -3l-3 -28q-69 3 -139 3q-66 0 -132 -3l4 28l41 3
q30 2 38 15.5t20 81.5l74 434q9 56 9 76q0 26 -35 27l-55 2l3 28q82 -3 166 -3q23 0 69 1.5t69 1.5q72 0 127 -40t55 -111z" />
    <glyph glyph-name="Sigma" unicode="&#x3a3;" horiz-adv-x="615" 
d="M620 181l-120 -250h-36q3 8 9.5 22t11 23.5t4.5 11.5q0 12 -14 12h-475l3 15l421 313l-304 366l4 25h400q39 0 41 10q1 8 1 24q0 19 -1 28h37l23 -184h-36q-6 87 -51 87h-293l263 -317l-3 -17l-355 -264h336q40 0 51 11q5 5 46 84h37z" />
    <glyph glyph-name="Tau" unicode="&#x3a4;" horiz-adv-x="611" 
d="M608 528h-28l4 64q2 21 -4 37q-4 17 -117 17h-73l-94 -553q-4 -21 -4 -35q0 -29 36 -30l59 -3l-3 -28q-66 3 -133 3q-71 0 -142 -3l4 28l51 3q30 2 38.5 15.5t19.5 81.5l86 521h-112q-70 0 -81 -13q-11 -12 -18 -45l-15 -60h-29l18 164q141 -3 282 -3t282 3z" />
    <glyph glyph-name="Upsilon" unicode="&#x3a5;" horiz-adv-x="740" 
d="M830 546l-17 -9q0 82 -80 82q-43 0 -90 -26.5t-85 -76.5q-66 -83 -96 -249l-36 -205q-3 -19 10.5 -25t73.5 -10q0 -1 -0.5 -2.5t-1 -5.5t-1.5 -7.5t-1.5 -7t-1.5 -5.5v-2q-68 3 -138 3q-69 0 -138 -3l2 7l2 16l2 7q37 1 61 5q30 5 35 31l36 204q25 139 -12 244
q-38 111 -116 111q-62 0 -122 -75l-9 -1l-6 12q83 132 194 132q59 0 92.5 -40.5t39.5 -116.5q7 -120 -5 -217h5q26 101 89 218q41 75 101.5 116t124.5 41q56 0 79 -34t12 -93z" />
    <glyph glyph-name="Phi" unicode="&#x3a6;" horiz-adv-x="653" 
d="M674 345q-14 -82 -94 -131t-186 -58l-13 -78q-2 -10 -2 -21q0 -15 8 -21t28 -8l52 -3l-3 -28q-63 3 -126 3t-126 -3l3 28l36 3q30 2 38.5 16t19.5 81l5 31q-103 9 -165 58t-48 131q14 81 92.5 129.5t183.5 58.5l4 26q9 49 9 77q0 25 -35 26l-47 2l3 28q67 -3 136 -3
q57 0 112 3l-3 -28l-35 -3q-29 -2 -37.5 -10t-13.5 -38l-13 -80q104 -8 167.5 -57t49.5 -131zM320 192l51 305q-66 -12 -116 -53.5t-60 -98.5q-10 -59 26 -100.5t99 -52.5zM580 345q10 60 -27 101.5t-102 51.5l-51 -306q67 11 118.5 52.5t61.5 100.5z" />
    <glyph glyph-name="Chi" unicode="&#x3a7;" horiz-adv-x="722" 
d="M684 -3q-66 3 -133 3t-135 -3v28q32 3 54 4q20 2 26 3.5t6 7.5q0 12 -14 40l-119 226l-182 -231q-10 -13 -10 -25q0 -16 55 -22l32 -3v-28q-58 3 -119 3q-62 0 -125 -3v28l28 3q39 5 62 33l238 282l-146 270q-15 28 -30 37t-51 12l-26 2v28q66 -3 133 -3t133 3v-28
l-37 -2q-43 -3 -43 -20q0 -10 14 -38l104 -199l161 196q23 28 23 42q0 16 -45 19l-33 2v28q57 -3 115 -3q57 0 114 3v-28l-28 -2q-20 -2 -31.5 -9.5t-33.5 -32.5l-221 -252l171 -307q11 -18 24 -25t44 -9l25 -2v-28z" />
    <glyph glyph-name="Psi" unicode="&#x3a8;" horiz-adv-x="680" 
d="M734 537q-39 0 -63 -39t-34 -97q-16 -89 -80.5 -157.5t-148.5 -83.5l-14 -82q-2 -10 -2 -21q0 -15 8 -21t28 -8l52 -3l-3 -28q-63 3 -126 3t-126 -3l3 28l36 3q30 2 38.5 16t19.5 81l6 35q-78 15 -119 83.5t-25 157.5q12 49 0.5 92.5t-49.5 43.5l6 34q69 0 109 -50
t28 -120q-14 -64 0 -124.5t56 -78.5l60 361q9 49 9 77q0 25 -35 26l-47 2l3 28q68 -3 136 -3q56 0 112 3l-3 -28l-35 -3q-29 -2 -37.5 -10t-13.5 -38l-69 -416q49 18 83 75.5t46 128.5q13 70 70.5 120t126.5 50z" />
    <glyph glyph-name="Omega" unicode="&#x3a9;" horiz-adv-x="765" 
d="M783 179l-84 -179h-244q172 235 206 422q8 46 6 107q-2 59 -24 97q-39 70 -138 70q-97 0 -166 -75q-63 -69 -85 -199q-10 -53 -10 -110q0 -108 28 -192l41 -120h-244l-23 179h30l16 -100h153l2 13q-72 114 -88 191q-8 42 -8 80q0 33 6 66q23 132 121 215q100 87 233 87
q131 0 203 -87q51 -63 51 -158q0 -25 -5 -58q-15 -85 -64 -165q-34 -56 -143 -171l-2 -13h153l50 100h29z" />
    <glyph glyph-name="alpha" unicode="&#x3b1;" horiz-adv-x="635" 
d="M611 93q-7 -46 -31 -79.5t-59 -33.5q-92 0 -109 114q-70 -114 -157 -114q-94 0 -143 75t-31 178q18 101 93.5 175t168.5 74q58 0 98 -33t56 -88q40 78 82 114l41 -33l8 -27q-83 -70 -121 -127q0 -28 -6 -56q-7 -32 -10 -51t-7 -48.5t-3 -47.5t4.5 -36t14 -26.5t27.5 -8.5
q37 0 50 79h34zM408 152q2 41 9 81q9 55 8.5 102.5t-23 80t-65.5 32.5q-63 0 -104.5 -63t-57.5 -152q-8 -56 -7 -104.5t25 -81.5t68 -33q84 0 147 138z" />
    <glyph glyph-name="beta" unicode="&#x3b2;" horiz-adv-x="497" 
d="M495 190q-16 -88 -91 -149t-166 -61q-65 0 -111 37l-3 -17q-23 -127 -79 -233l-61 -11l-28 11q64 121 84 233l81 462q18 101 88 175.5t158 74.5q74 0 117.5 -50.5t30.5 -122.5q-10 -54 -56 -95.5t-108 -60.5q73 -22 114.5 -73t29.5 -120zM401 190q13 75 -38 125t-133 50
l6 34q65 0 119.5 40t65.5 100q10 57 -4 98t-56 41q-62 0 -100.5 -62.5t-55.5 -153.5l-70 -401q41 -47 109 -47q58 0 101 52.5t56 123.5z" />
    <glyph glyph-name="gamma" unicode="&#x3b3;" horiz-adv-x="564" 
d="M605 462q-8 -46 -27.5 -92t-55 -96.5t-59.5 -80.5t-71 -87l-25 -28l-24 -140q-7 -39 -14.5 -68t-21 -58.5t-34.5 -45.5t-48 -16q-37 0 -53 30t-5.5 76t44.5 90q22 28 123 141q9 68 10.5 119t-7 97t-34.5 70.5t-70 24.5t-74 -42.5t-40 -101.5h-34q17 96 57.5 162t105.5 66
q67 0 101 -49t35 -126t-9 -172q113 139 146 327l59 10zM309 -62l17 93q-50 -53 -89 -102q-26 -33 -36.5 -67t-3 -56t33.5 -22q18 0 31.5 12.5t22.5 39.5t13.5 47t10.5 55z" />
    <glyph glyph-name="delta" unicode="&#x3b4;" horiz-adv-x="467" 
d="M464 208q-17 -93 -84 -160.5t-150 -67.5q-84 0 -127 68t-26 160q12 73 77 122t152 62q-75 98 -61 182q10 56 45.5 97t81.5 41q60 0 99.5 -32.5t34.5 -85.5l-58 -14l-27 7q3 38 -11 64.5t-44 26.5q-49 0 -68 -104q-5 -31 6 -63.5t23.5 -50.5t38.5 -51q34 -41 52 -66
t34.5 -64.5t11.5 -70.5zM370 208q14 80 -39 153q-59 -9 -104.5 -52t-55.5 -101q-35 -194 65 -194q99 0 134 194z" />
    <glyph glyph-name="epsilon" unicode="&#x3b5;" horiz-adv-x="436" 
d="M413 99q-17 -50 -60.5 -82.5t-93.5 -32.5q-90 0 -148 46.5t-44 121.5q13 75 113 106q-54 35 -43 97q9 53 59 88t110 35q92 0 130 -76l-32 -19q-14 29 -42 45t-62 16q-29 0 -51 -26.5t-28 -62.5q-10 -53 41 -82q36 3 73 3v-36l-9 -18q-47 0 -84 10q-82 -23 -91 -80
q-10 -56 23.5 -95t90.5 -39q37 0 70 24.5t46 61.5z" />
    <glyph glyph-name="zeta" unicode="&#x3b6;" horiz-adv-x="410" 
d="M368 -127q-23 -123 -83 -123q-21 0 -35.5 12.5t-16.5 32.5l34 10q3 -21 24 -21q10 0 17 7.5t12 23t8 27t6 31.5q6 33 -3 58t-34 31l-91 21q-69 16 -108 68.5t-27 121.5q25 146 80.5 261.5t140.5 161.5q-30 43 -6 96l40 7l18 -7q-19 -41 -2 -76q30 7 53 7q32 0 51 -7.5
t16 -27.5q-7 -34 -79 -34q-35 0 -62 16q-28 -16 -51 -49.5t-37.5 -67.5t-29 -89.5t-21 -92t-17.5 -98.5q-13 -51 0 -98.5t55 -57.5l90 -21q36 -9 50.5 -43.5t7.5 -79.5z" />
    <glyph glyph-name="eta" unicode="&#x3b7;" horiz-adv-x="546" 
d="M561 313q-9 -53 -50 -156.5t-50 -156.5q-20 -113 1 -233l-61 -11l-28 11q-18 106 4 233q9 51 45 155t45 158q10 55 -6.5 95t-58.5 40q-44 0 -76.5 -40t-42.5 -95l-55 -313h-84l55 313q5 30 7.5 47.5t4 41t-4.5 35t-18 11.5t-21.5 -8.5t-15.5 -26t-9 -30.5t-7 -36h-34
q25 135 93 135q70 0 89 -82q50 82 125 82t120.5 -49t32.5 -120z" />
    <glyph glyph-name="theta" unicode="&#x3b8;" horiz-adv-x="490" 
d="M511 348q-12 -71 -34 -133.5t-54 -117t-79 -86t-103 -31.5q-55 0 -91 31.5t-49 86t-12.5 117t12.5 133.5q13 70 34.5 132t54 115.5t79.5 85t102 31.5t90.5 -31.5t49 -85t13.5 -115.5t-13 -132zM420 365q6 33 9.5 56t7.5 54t5 53.5t0 47.5t-6.5 42t-14 31.5t-23 21.5
t-33.5 7q-26 0 -47.5 -12t-38 -37.5t-28.5 -51.5t-22.5 -67t-16.5 -70.5t-14 -74.5h222zM414 331h-222q-8 -45 -12.5 -75.5t-8.5 -71.5t-1 -67.5t10 -52t24 -38t43 -12.5t47.5 12.5t38 38t28.5 52t22.5 67.5t16.5 71t14 76z" />
    <glyph glyph-name="iota" unicode="&#x3b9;" horiz-adv-x="341" 
d="M321 116q-9 -56 -36.5 -96t-68.5 -40q-58 0 -92 39.5t-24 96.5l61 346h84l-61 -346q-16 -102 38 -102q48 0 65 102h34z" />
    <glyph glyph-name="kappa" unicode="&#x3ba;" horiz-adv-x="457" 
d="M437 116q-10 -56 -41.5 -96t-74.5 -40q-55 0 -77 51.5t-10 122.5q6 31 -14 51t-55 28l-41 -233h-84l81 462h84l-30 -175q27 20 62 79q70 116 143 116q40 0 59 -31.5t3 -69.5l-32 8q10 22 -1.5 40.5t-34.5 18.5q-22 0 -43.5 -16t-34 -33t-30.5 -46q-35 -59 -69 -87
q58 -8 93.5 -37t27.5 -75q-4 -21 -5.5 -32.5t-4.5 -31t-2.5 -30.5t2 -23t6.5 -17.5t13 -5.5q30 0 49.5 30t26.5 72h34z" />
    <glyph glyph-name="lambda" unicode="&#x3bb;" horiz-adv-x="585" 
d="M565 115q-9 -53 -36.5 -91t-66.5 -38q-14 0 -25 7t-19 22.5t-13.5 30t-10 38.5t-6.5 39.5t-5 41.5l-21 174l-225 -322l-65 -11l-29 11l305 438l-9 83q-3 25 -5.5 39.5t-8.5 34t-15.5 29t-23.5 9.5q-22 0 -36 -21.5t-19 -51.5h-34q9 53 34.5 91t64.5 38q14 0 25 -6t19 -20
t13 -25.5t9 -34.5l6 -34.5t5 -37.5l44 -374q2 -20 3.5 -30t5 -29t7 -29t9 -21.5t13.5 -17t17 -5.5q23 0 38.5 21.5t20.5 51.5h34z" />
    <glyph glyph-name="mu.greek" unicode="&#x3bc;" horiz-adv-x="644" 
d="M624 116q-9 -55 -37.5 -95.5t-69.5 -40.5q-37 0 -66 17t-43 46q-58 -63 -130 -63q-84 0 -129 45q-17 -140 -9 -275l-72 -12l-32 12q51 177 85 366l61 346h84l-61 -346q-8 -42 15 -72t64 -30q65 0 113 65q-2 21 2 37l61 346h84l-61 -346q-8 -42 1 -72t39 -30q50 0 67 102
h34z" />
    <glyph glyph-name="nu" unicode="&#x3bd;" horiz-adv-x="497" 
d="M508 291q-32 -186 -150 -248l-126 -66l-8 362q-2 109 -30 109q-25 0 -37 -24.5t-20 -65.5h-34q9 51 34 87.5t63 36.5q45 0 74 -30t31 -75l7 -322l34 17q99 52 128 219q5 28 -4.5 55.5t-22 44.5t-35.5 43l39 48l28 14q56 -61 29 -205z" />
    <glyph glyph-name="xi" unicode="&#x3be;" horiz-adv-x="457" 
d="M415 -127q-23 -123 -87 -123q-22 0 -37 12t-19 32l33 12q5 -22 29 -22q11 0 19 7t13.5 23.5t7.5 26t7 32.5q6 33 -6 59t-39 30l-129 21q-70 12 -113.5 45t-33.5 87q20 109 153 164q-91 27 -78 108q12 71 63 127.5t123 85.5q-28 40 -15 92l39 7l17 -7q-12 -44 10 -76
q35 7 62 7q22 0 36 -1t30.5 -4t23.5 -10.5t5 -19.5q-3 -16 -22 -24t-36.5 -9t-49.5 -1q-36 0 -66 16q-47 -24 -81 -74t-45 -109q-11 -64 71 -83q58 11 113 11v-37l-9 -18q-52 0 -102 3q-58 -20 -98.5 -58t-49.5 -90q-6 -37 12 -65t53 -33l128 -21q39 -7 57.5 -42t10.5 -81z
" />
    <glyph glyph-name="omicron" unicode="&#x3bf;" horiz-adv-x="444" 
d="M411 331q0 -76 -30 -153t-76 -121q-73 -68 -160 -68q-62 0 -95 42t-33 121q0 92 32.5 165t93.5 116q69 49 135 49q62 0 97.5 -40t35.5 -111zM335 315q0 129 -94 129q-40 0 -60 -17q-37 -30 -62.5 -110.5t-25.5 -165.5q0 -59 24 -91.5t68 -32.5q47 0 75 33q33 40 54 111.5
t21 143.5z" />
    <glyph glyph-name="pi" unicode="&#x3c0;" horiz-adv-x="656" 
d="M687 404q-71 -35 -141 -42l-48 -274q-5 -30 11 -52t46 -22l-6 -34q-62 0 -103 29t-32 79l48 273q-30 3 -85 15t-66 14l-30 -169q-17 -100 -81 -174t-148 -74l10 56q67 0 119.5 57t65.5 135l31 174q-23 4 -52 4q-33 0 -60 -13.5t-31 -38.5h-34q10 55 50 95.5t90 40.5
q47 0 137.5 -20.5t139.5 -19.5q74 0 142 35l28 -45z" />
    <glyph glyph-name="rho" unicode="&#x3c1;" horiz-adv-x="465" 
d="M466 233q-18 -102 -84.5 -177.5t-152.5 -75.5q-36 0 -66 16q-4 -54 -9 -79q-14 -85 -74 -156l-49 23l-13 23q41 51 52 110q10 53 6 158t5 158q18 101 84.5 175t151.5 74q86 0 126.5 -74.5t22.5 -174.5zM372 233q8 44 10.5 77t-1 67t-21.5 52.5t-49 18.5t-55 -18.5
t-39.5 -52.5t-24.5 -67t-17 -77q-9 -52 -11 -193q29 -26 71 -26q32 0 56 18.5t39.5 53t24.5 68t17 79.5z" />
    <glyph glyph-name="uni03C2" unicode="&#x3c2;" horiz-adv-x="426" 
d="M463 437l-29 -30l-19 -7q-35 48 -75 48q-60 0 -107.5 -50.5t-59.5 -118.5q-18 -106 22 -146q18 -18 62 -47.5t63 -49.5q44 -45 34 -98q-5 -33 -26.5 -56.5t-49.5 -23.5q-56 0 -89 39l28 24q24 -29 67 -29q13 0 23 13.5t13 32.5q7 38 -27 72q-19 20 -66.5 45.5t-65.5 43.5
q-89 89 -72 180q16 86 91.5 144.5t165.5 58.5q85 0 117 -45z" />
    <glyph glyph-name="sigma" unicode="&#x3c3;" horiz-adv-x="533" 
d="M579 489q-72 -26 -161 -34q50 -39 50 -124q0 -76 -30 -153t-76 -121q-73 -68 -160 -68q-62 0 -95 42t-33 121q0 92 32.5 165t93.5 116q69 49 135 49q14 0 20 -1q86 8 214 56l13 -30zM392 315q0 129 -94 129q-40 0 -60 -17q-37 -30 -62.5 -110.5t-25.5 -165.5
q0 -59 24 -91.5t68 -32.5q47 0 75 33q33 40 54 111.5t21 143.5z" />
    <glyph glyph-name="tau" unicode="&#x3c4;" horiz-adv-x="554" 
d="M586 410q-96 -76 -207 -66l-40 -228q-18 -102 37 -102q49 0 66 102h34q-10 -56 -37.5 -96t-68.5 -40q-57 0 -91 39.5t-24 96.5l45 251l-74 32q-33 0 -60 -13.5t-31 -38.5h-34q10 55 50 95.5t90 40.5q19 0 115 -43q42 -19 92 -10.5t92 42.5l39 -35z" />
    <glyph glyph-name="upsilon" unicode="&#x3c5;" horiz-adv-x="514" 
d="M518 250q-20 -110 -80 -190t-145 -80q-73 0 -116.5 51t-30.5 123q6 32 29.5 96t29.5 97q9 35 7.5 68t-24.5 33q-12 0 -21.5 -8.5t-15.5 -26t-9 -30.5t-7 -36h-34q25 135 93 135q51 0 78 -40t17 -95q-6 -34 -24.5 -98.5t-24.5 -94.5q-10 -58 3.5 -99t55.5 -41
q71 0 119.5 69.5t65.5 166.5q9 49 -9.5 92.5t-55.5 94.5l43 45l29 11q57 -76 27 -243z" />
    <glyph glyph-name="phi" unicode="&#x3c6;" horiz-adv-x="534" 
d="M535 231q-15 -85 -73.5 -152.5t-136.5 -89.5q-6 -48 -11 -72q-17 -100 -103 -165l-38 36l-6 28q52 39 63 101q3 18 10 64q-86 10 -131 82t-28 168q11 65 54.5 123t112.5 122l22 -22q-30 -28 -50 -69t-28 -72t-17 -82q-14 -79 2 -140t67 -74q17 187 25 233q17 97 61 164.5
t112 67.5q50 0 75.5 -38t26 -93.5t-8.5 -119.5zM441 231q27 156 17 194q-6 23 -22 23q-17 0 -30.5 -17t-23.5 -51.5t-15.5 -60t-13.5 -69.5q-7 -38 -24 -220q42 25 71 80t41 121z" />
    <glyph glyph-name="chi" unicode="&#x3c7;" horiz-adv-x="540" 
d="M522 -104q-10 -58 -37 -99t-68 -41q-18 0 -31.5 9t-22 20.5t-15.5 33t-10 35.5t-8 40l-31 166q-73 -79 -116.5 -146.5t-57.5 -143.5l-58 -10l-26 10q9 48 29 92.5t58.5 94t62 76t77.5 82.5q12 13 18 19l-33 174q-6 34 -11 53.5t-17.5 39t-30.5 19.5q-24 0 -39.5 -24.5
t-21.5 -59.5h-34q10 58 37 99t68 41q19 0 33.5 -13t24 -41t14 -47t11.5 -55l29 -154q75 80 120 149.5t59 146.5l59 10l25 -10q-4 -24 -10.5 -46.5t-19 -46.5t-21 -41t-29 -43t-29 -38.5t-34.5 -41t-33 -36.5t-37.5 -40t-35.5 -37l34 -187q4 -21 7 -33.5t10 -28.5t18.5 -23.5
t27.5 -7.5q45 0 61 84h34z" />
    <glyph glyph-name="psi" unicode="&#x3c8;" horiz-adv-x="580" 
d="M584 250q-19 -107 -87.5 -187t-157.5 -83l-41 -230h-34l41 231q-78 9 -124.5 56t-34.5 117q6 32 29.5 96t29.5 97q9 35 7.5 68t-24.5 33q-12 0 -21.5 -8.5t-15.5 -26t-9 -30.5t-7 -36h-34q25 135 93 135q51 0 78 -40t17 -95q-6 -34 -24.5 -98.5t-24.5 -94.5
q-8 -49 11.5 -87.5t59.5 -48.5l38 213q41 235 56 461l58 10l26 -10q-67 -238 -106 -461l-38 -217q75 3 131.5 72.5t73.5 163.5q9 49 -9.5 92.5t-55.5 94.5l43 45l29 11q57 -76 27 -243z" />
    <glyph glyph-name="omega" unicode="&#x3c9;" horiz-adv-x="585" 
d="M585 230q-17 -102 -71.5 -176t-131.5 -74q-67 0 -88 59q-40 -59 -98 -59q-52 0 -83 37t-36.5 92.5t3.5 120.5q20 107 156 243l23 -22q-41 -41 -61.5 -94.5t-33.5 -126.5q-22 -130 -12 -172q10 -44 50 -44q53 0 82 66q-7 68 21 228l58 10l26 -10q-12 -68 -17 -102.5
t-10.5 -88t1.5 -78.5t25 -25q22 0 39 14t28 32.5t20.5 52t14 56t11.5 61.5q13 54 12 117t-28 104l30 22q90 -136 70 -243z" />
    <glyph glyph-name="uni03D1" unicode="&#x3d1;" horiz-adv-x="630" 
d="M672 463q-28 -8 -52 -12q-1 -48 -11 -104q-12 -70 -36.5 -134t-60 -117t-85.5 -84.5t-107 -31.5q-91 0 -149.5 48.5t-44.5 125.5q6 33 39.5 96t39.5 97q9 34 8.5 67.5t-19.5 33.5t-32 -17.5t-17.5 -35t-9.5 -48.5h-34q10 57 35 96t64 39q49 0 74 -40t15 -95
q-6 -33 -34.5 -96.5t-34.5 -96.5q-10 -58 20.5 -99t85.5 -41q31 0 56.5 12.5t44.5 40.5t32 54t24.5 72t17 74.5t14.5 79.5l16 98q-96 3 -157.5 33.5t-60.5 98.5q1 53 42 94t94 41q83 0 125 -63t46 -165q15 3 47 11zM535 479q5 55 2 99.5t-26.5 72t-67.5 27.5
q-37 0 -65.5 -29t-29.5 -66q-1 -57 50.5 -79.5t136.5 -24.5z" />
    <glyph glyph-name="uni03D5" unicode="&#x3d5;" horiz-adv-x="455" 
d="M468 331q0 -76 -30 -153t-76 -121q-52 -49 -118 -63l-43 -244h-34l42 239h-7q-62 0 -95 42t-33 121q0 92 32.5 165t93.5 116q42 30 88 43l20 216l58 10l26 -10l-55 -210q61 -1 96 -41t35 -110zM216 30l35 201l33 212q-32 -3 -46 -16q-37 -30 -62.5 -110.5t-25.5 -165.5
q0 -102 66 -121zM392 315q0 105 -65 125l-42 -209l-35 -204q40 3 67 33q33 40 54 111.5t21 143.5z" />
    <glyph glyph-name="uni03D6" unicode="&#x3d6;" horiz-adv-x="585" 
d="M585 230q-17 -102 -71.5 -176t-131.5 -74q-67 0 -88 59q-40 -59 -98 -59q-52 0 -83 37t-36.5 92.5t3.5 120.5q20 107 156 243l23 -22q-41 -41 -61.5 -94.5t-33.5 -126.5q-22 -130 -12 -172q10 -44 50 -44q53 0 82 66q-7 68 21 228l58 10l26 -10q-12 -68 -17 -102.5
t-10.5 -88t1.5 -78.5t25 -25q22 0 39 14t28 32.5t20.5 52t14 56t11.5 61.5q10 55 15 94.5t5.5 87.5t-9 77.5t-33.5 50t-63 20.5q-97 0 -193 -33l-6 32q103 35 205 35q57 0 97 -31.5t56.5 -83t20 -116.5t-10.5 -133z" />
    <glyph glyph-name="epsilon.alt" unicode="&#x3f5;" horiz-adv-x="422" 
d="M392 56q-22 -36 -61 -56t-82 -20q-93 0 -139 79t-27 186q18 100 108 168.5t198 68.5h52l-6 -34h-52q-72 0 -130 -58t-75 -138q23 0 63.5 10.5t64 14.5t58.5 -7l-33 -51q-20 10 -46 10.5t-60.5 -5t-51.5 -5.5q-30 -205 82 -205q52 0 89 63l36 -8z" />
    <glyph glyph-name="uni0400" unicode="&#x400;" horiz-adv-x="611" 
d="M515 792h-34l-161 101q-28 17 -28 37q1 13 12.5 22t26.5 9q14 0 32 -18zM514 0l-33 -1l-72 -2h-10l-215 3l-113 -2l-41 -1l5 26q33 5 45 11.5t15 20.5l92 504q10 60 10 76q0 26 -35 27l-54 2l3 28l45 -1l115 -2q69 0 78 1l120 1l38 1q37 0 69 -3q-18 -61 -22 -152h-24
l-7 89q-2 24 -104 24l-86 -2l-47 -2q-5 -10 -9 -32l-45 -238h37l219 6l4 -7l-19 -45l-26 1l-106 3h-117l-45 -253q-2 -20 -3 -31v-4q80 -7 132 -7q102 0 147 9q17 4 26 15t16 38l16 60h27l-5 -26q-12 -64 -17 -99z" />
    <glyph glyph-name="afii10023" unicode="&#x401;" horiz-adv-x="611" 
d="M514 0l-33 -1l-72 -2h-10l-215 3l-113 -2l-41 -1l5 26q33 5 45 11.5t15 20.5l92 504q10 60 10 76q0 26 -35 27l-54 2l3 28l45 -1l115 -2q69 0 78 1l120 1l38 1q37 0 69 -3q-18 -61 -22 -152h-24l-7 89q-2 24 -104 24l-86 -2l-47 -2q-5 -10 -9 -32l-45 -238h37l219 6l4 -7
l-19 -45l-26 1l-106 3h-117l-45 -253q-2 -20 -3 -31v-4q80 -7 132 -7q102 0 147 9q17 4 26 15t16 38l16 60h27l-5 -26q-12 -64 -17 -99zM327 798q0 -20 -15.5 -35.5t-34.5 -15.5t-34.5 15.5t-15.5 35.5q0 19 15.5 34t35.5 15q19 0 34 -15t15 -34zM527 798q0 -20 -15.5 -35.5
t-34.5 -15.5t-34.5 15.5t-15.5 35.5q0 19 15.5 34t35.5 15q19 0 34 -15t15 -34z" />
    <glyph glyph-name="afii10051" unicode="&#x402;" horiz-adv-x="672" 
d="M703 341l-39 -211q-14 -77 -37 -132q-26 -61 -63 -94.5t-78 -33.5q-19 0 -35 10l-3 26q11 -4 29 -4q35 0 56.5 37.5t36.5 115.5l54 280l1 7q0 18 -29 35t-50 17q-71 0 -111 -17.5t-99 -63.5l-39 -220q-4 -25 -4 -35q-1 -16 7 -22.5t28 -7.5l59 -3l-3 -28l-44 1
q-78 2 -89 2q-5 0 -85 -2l-57 -1l4 28l51 3q30 2 38 15.5t21 81.5l91 521h-72q-70 0 -81 -13q-12 -14 -19 -45l-15 -60h-29l19 164l95 -1q40 0 84 -1t63 -1q18 0 64 1t87 1l91 1l-28 -164h-28l4 64q2 23 -3 37q-4 17 -117 17h-33l-52 -287q8 6 34 28.5t39.5 30t50 17
t84.5 9.5q30 0 54.5 -3.5t48 -12.5t36.5 -26.5t13 -43.5q0 -11 -1 -17z" />
    <glyph glyph-name="afii10052" unicode="&#x403;" horiz-adv-x="556" 
d="M454 898q0 -20 -28 -37l-163 -101h-34l154 151q18 18 33 18t26.5 -9.5t11.5 -21.5zM532 537h-24l-7 89q-2 24 -103 24l-106 -4h-17q-5 -11 -9 -32l-95 -536q-2 -15 -2 -21q-1 -15 7 -21.5t28 -7.5l64 -3l-3 -28l-52 1q-78 2 -86 2q-13 0 -93 -2l-34 -1l4 28l36 3
q31 3 38 15.5t21 81.5l79 434q10 60 10 76q0 26 -35 27l-56 2l3 28l49 -1l103 -2h29l165 2l41 1q34 0 67 -3q-18 -61 -22 -152z" />
    <glyph glyph-name="afii10053" unicode="&#x404;" horiz-adv-x="667" 
d="M611 103l-10 -36q-68 -46 -127 -65.5t-131 -19.5q-143 0 -219.5 78.5t-75.5 223.5q2 231 180 350q107 72 234 72q88 0 195 -41q-21 -70 -28 -146h-27v84q-76 50 -178 50q-119 0 -191 -72q-73 -75 -92 -204q70 46 123 51q48 5 93.5 -11.5t92 -34t93.5 -14.5q4 0 14 0.5
t11.5 0.5t9 1.5t10.5 3t11 5t15.5 8.5t19.5 12l-1 -29q-22 -22 -34 -33t-44.5 -29t-61.5 -18q-44 0 -137 32.5t-157 31.5q-11 0 -26.5 -4t-24.5 -8l-10 -3q-2 -20 -2 -30q-1 -133 60.5 -203.5t179.5 -70.5q58 0 105.5 16t119.5 59z" />
    <glyph glyph-name="afii10054" unicode="&#x405;" horiz-adv-x="556" 
d="M487 234q-1 -101 -87.5 -176.5t-202.5 -75.5q-81 0 -155 38q15 64 26 152h30l-1 -99q60 -43 135 -43q77 0 126 45t50 116q0 86 -80 105l-95 23q-63 15 -92.5 51.5t-28.5 100.5q2 90 66 150q39 40 93 62.5t109 22.5q68 0 132 -34q-21 -64 -26 -135h-30l1 76
q-42 45 -112 45q-69 0 -114.5 -42.5t-45.5 -107.5q-1 -97 95 -117l64 -14q76 -17 110 -50.5t33 -92.5z" />
    <glyph glyph-name="afii10055" unicode="&#x406;" 
d="M259 -3h-32l-94 3l-94 -3h-32l3 28l36 3q30 2 38.5 16t20.5 81l76 434q10 57 10 77q0 25 -35 26l-47 2l3 28l64 -2l78 -1l97 3h9l-3 -28l-35 -3q-29 -3 -37.5 -11t-13.5 -37l-94 -535q-2 -8 -2 -21q-1 -15 7 -21t28 -8l52 -3z" />
    <glyph glyph-name="afii10056" unicode="&#x407;" 
d="M259 -3h-32l-94 3l-94 -3h-32l3 28l36 3q30 2 38.5 16t20.5 81l76 434q10 57 10 77q0 25 -35 26l-47 2l3 28l64 -2l78 -1l97 3h9l-3 -28l-35 -3q-29 -3 -37.5 -11t-13.5 -37l-94 -535q-2 -8 -2 -21q-1 -15 7 -21t28 -8l52 -3zM205 798q0 -20 -15.5 -35.5t-34.5 -15.5
t-34.5 15.5t-15.5 35.5q0 19 15.5 34t35.5 15q19 0 34 -15t15 -34zM405 798q0 -20 -15.5 -35.5t-34.5 -15.5t-34.5 15.5t-15.5 35.5q0 19 15.5 34t35.5 15q19 0 34 -15t15 -34z" />
    <glyph glyph-name="afii10057" unicode="&#x408;" 
d="M361 664l-42 -3q-28 -2 -37 -10.5t-14 -37.5l-91 -559q-12 -80 -35 -132q-25 -60 -62.5 -94t-78.5 -34q-19 0 -35 10l-3 26q11 -4 29 -4q70 0 94 153l101 643q1 5 1 13q0 26 -35 27l-47 2l3 28l64 -2l77 -1l90 3h24z" />
    <glyph glyph-name="afii10058" unicode="&#x409;" horiz-adv-x="991" 
d="M947 189q-1 -59 -24.5 -99.5t-81.5 -74.5q-44 -26 -173 -26q-3 0 -5.5 0.5t-7 1t-12.5 0.5l-20 1l-29 1q-52 2 -63 2q-4 0 -21.5 -1t-32.5 -1l-65 -1v28l42 2q46 2 43 31v7l-67 528l-295 -492q-16 -26 -17 -42q0 -28 57 -32l26 -2v-28l-46 1q-16 0 -35 0.5t-29 1t-14 0.5
q-12 0 -66 -2l-30 -1v28l18 2q21 2 32 11t31 40l383 619h49l86 -656q13 -1 26 -3q44 -4 67 -4q76 0 126.5 47t51.5 123q0 53 -28.5 91t-82.5 39q-42 2 -74 -8l14 34q10 3 27 4t29 1l12 -1q78 1 138 -47q22 -18 41.5 -55t19.5 -68z" />
    <glyph glyph-name="afii10059" unicode="&#x40a;" horiz-adv-x="1053" 
d="M1009 194q-1 -59 -24.5 -99.5t-81.5 -74.5q-44 -26 -179 -26q-2 0 -40 2l-20 1l-37 1q-22 1 -34.5 1.5t-19.5 0.5q-5 0 -16 -0.5t-31.5 -1t-37.5 -0.5l-56 -1l4 28l50 3q31 1 37 14q9 10 22 83l42 215l-61 1q-24 0 -53.5 0.5t-45.5 1t-24 0.5t-24 -0.5t-46 -1t-53 -0.5
l-61 -1l-44 -247q-4 -25 -4 -35q-1 -16 7 -22t28 -8l49 -3l-3 -28h-26l-97 3h-21t-28.5 -1t-40.5 -1l-42 -1l4 28l41 3q30 2 37.5 15t21.5 82l78 434q10 62 10 76q0 26 -35 27l-47 2l3 28l64 -2q68 -2 77 -1l90 3h24l-3 -28l-42 -3q-28 -2 -37 -10.5t-14 -37.5l-45 -228h370
l32 174q10 60 10 76q0 26 -35 27l-48 2l3 28l63 -2l80 -1l91 3h16l-3 -28l-36 -3q-28 -2 -37 -10.5t-14 -37.5l-103 -572q26 -2 34 -3q44 -4 82 -4q77 0 130 47t54 123q0 53 -28.5 91t-82.5 39q-42 2 -74 -8l14 34q10 3 27 4t29 0h12q78 1 138 -47q22 -18 41.5 -55t19.5 -68
z" />
    <glyph glyph-name="afii10060" unicode="&#x40b;" horiz-adv-x="686" 
d="M733 -3l-64 2q-68 2 -77 1l-90 -3h-24l3 28l42 3q28 2 37 10.5t15 37.5l49 259l1 7q0 18 -29 35t-50 17q-71 0 -111 -17.5t-99 -63.5l-39 -220q-4 -25 -4 -35q-1 -16 7 -22.5t28 -7.5l59 -3l-3 -28l-44 1q-78 2 -89 2q-5 0 -85 -2l-57 -1l4 28l51 3q30 2 38 15.5t21 81.5
l91 521h-72q-70 0 -81 -13q-12 -14 -19 -45l-15 -60h-29l19 164l95 -1q40 0 84 -1t63 -1q18 0 64 1t87 1l91 1l-28 -164h-28l4 64q2 23 -3 37q-4 17 -117 17h-33l-52 -287q8 6 34 28.5t39.5 30t50 17t84.5 9.5q30 0 54.5 -3.5t48 -12.5t36.5 -26.5t13 -43.5q0 -11 -1 -17
l-39 -211q-8 -51 -10 -76q0 -26 35 -27l47 -2z" />
    <glyph glyph-name="afii10061" unicode="&#x40c;" horiz-adv-x="699" 
d="M470 898q0 -20 -28 -37l-163 -101h-34l154 151q18 18 33 18t26.5 -9.5t11.5 -21.5zM646 -3q-9 0 -28 1t-40 2l-69 -3l-276 331l-44 -250q-2 -8 -2 -21q-1 -15 7 -21t28 -8l49 -3l-3 -28h-26l-97 3h-21t-28.5 -1t-40.5 -1l-42 -1l4 28l41 3q30 2 37.5 15t21.5 82l77 434
q10 55 10 76q0 26 -35 27l-47 2l3 28l64 -2q68 -2 77 -1l90 3h24l-3 -28l-42 -3q-28 -2 -37 -10.5t-14 -37.5l-45 -245l163 131l146 115q38 31 38 49v29l20 -1q42 -2 47 -2q3 0 45 2l23 1v-27h-21q-24 0 -54 -25l-333 -276l250 -299q31 -38 63 -38h20v-30z" />
    <glyph glyph-name="uni040D" unicode="&#x40d;" horiz-adv-x="778" 
d="M610 792h-34l-161 101q-28 17 -28 37q1 13 12.5 22t26.5 9q14 0 32 -18zM705 -3l-42 1q-86 2 -90 2q-5 0 -16 -0.5t-31.5 -1t-37.5 -0.5l-56 -1l4 28l50 3q31 1 37 14q9 10 22 83l66 358l-428 -349l-8 -41q-4 -25 -4 -35q-1 -16 7 -22t28 -8l49 -3l-3 -28h-26l-97 3h-21
t-28.5 -1t-40.5 -1l-42 -1l4 28l41 3q30 2 37.5 15t21.5 82l78 434q10 62 10 76q0 26 -35 27l-47 2l3 28l64 -2q68 -2 77 -1l90 3h24l-3 -28l-42 -3q-28 -2 -37 -10.5t-14 -37.5l-80 -434l430 349l7 31q10 43 10 76q0 26 -35 27l-48 2l3 28l63 -2l80 -1l91 3h16l-3 -28
l-36 -3q-28 -2 -37 -10.5t-14 -37.5l-97 -520q-4 -23 -4 -35q-1 -16 7 -22.5t28 -7.5l58 -3z" />
    <glyph glyph-name="afii10062" unicode="&#x40e;" horiz-adv-x="679" 
d="M607 887q-17 -65 -46 -100q-47 -59 -125 -59q-79 0 -111 58q-19 34 -19 101h29q8 -100 108 -100q45 0 75.5 22.5t59.5 77.5h29zM688 618q-34 -12 -81.5 -71.5t-91 -135.5t-82 -151t-61.5 -126l-24 -51q-24 -36 -49 -59.5t-43.5 -32t-34.5 -11t-24 -0.5l-8 2l-53 19l1 74
l12 10q25 -26 68 -26q44 0 106 94l-114 368q-18 56 -48.5 87.5t-56.5 26.5l-40 -8l-6 21l74 60q39 -2 80.5 -38.5t54.5 -81.5l108 -357l3 6q146 316 255 424q33 33 60 41z" />
    <glyph glyph-name="afii10145" unicode="&#x40f;" horiz-adv-x="778" 
d="M693 -3l-64 2l-77 1h-120q-57 -8 -68 -22q-23 -29 -27 -92h-24l-7 89q-2 25 -103 25h-99l-91 -3h-16l3 28l36 3q28 2 37 10.5t15 37.5l96 520q5 21 5 35q0 29 -36 30l-58 3l3 28l42 -1q86 -2 90 -2q5 0 16 0.5t31.5 1t37.5 0.5l56 1l-4 -28l-50 -3q-31 -1 -37 -14
q-9 -10 -22 -83l-93 -513l61 -1q24 0 53.5 -0.5t45.5 -1t24 -0.5t24 0.5t46 1t53 0.5l61 1l95 545q5 24 5 35q0 16 -8 22t-28 8l-49 3l3 28h26l97 -3h21t28.5 1t40.5 1l42 1l-4 -28l-41 -3q-30 -2 -37.5 -15t-21.5 -82l-78 -434q-8 -51 -10 -76q0 -26 35 -27l47 -2z" />
    <glyph glyph-name="afii10017" unicode="&#x410;" horiz-adv-x="722" 
d="M677 -3q-102 3 -122 3t-122 -3v28l44 3q43 3 43 27q1 5 -1 22l-2 9v3l-24 188h-246l-103 -175q-27 -47 -27 -55q0 -7 9.5 -12.5t21.5 -6.5l52 -3v-28q-86 3 -107 3q-20 0 -112 -3v30l20 5q26 6 44 22.5t45 57.5l378 593h46l82 -625q5 -33 12 -40t43 -12l26 -3v-28z
M489 313l-35 288l-181 -288h216z" />
    <glyph glyph-name="afii10018" unicode="&#x411;" horiz-adv-x="559" 
d="M545 227q-2 -118 -125 -191q-70 -42 -143 -42q-2 0 -40 2l-20 1l-37 1q-52 2 -63 2l-54 -2l-37 -1l5 26q31 5 43 11.5t15 20.5l92 504q10 60 10 80q0 26 -35 27l-56 2l3 28l49 -1l103 -2h29l165 2l41 1q34 0 67 -3q-18 -61 -22 -152h-24l-7 89q-1 11 -29 18.5t-74 7.5
l-106 -4l-17 -2l-52 -274h52l102 -1q62 1 125 -50q40 -33 40 -98zM457 211q1 65 -37 97t-115 32h-85l-54 -299q26 -2 34 -3q44 -4 82 -4q75 0 124.5 50t50.5 127z" />
    <glyph glyph-name="afii10019" unicode="&#x412;" horiz-adv-x="611" 
d="M545 227q-2 -118 -125 -191q-70 -42 -143 -42q-2 0 -40 2l-20 1l-37 1q-52 2 -63 2q-27 0 -54 -2l-37 -1l5 26q31 5 43 11.5t15 20.5l92 504q10 60 10 76q0 26 -35 27l-53 2l3 28l52 -1l99 -2q48 0 60 1l63 1l27 1q75 0 116.5 -34.5t40.5 -95.5q0 -78 -70 -137
q-36 -33 -114 -60q92 -13 125 -40q40 -33 40 -98zM457 211q1 65 -37 97t-115 32h-85l-54 -299q26 -2 34 -3q44 -4 82 -4q75 0 124.5 50t50.5 127zM478 544q1 56 -29 83.5t-91 27.5q-14 0 -46 -3q-10 0 -19 -1t-15 -1l-52 -274h52q93 0 146 44.5t54 123.5z" />
    </font>
</defs>
</svg>
