<?xml version="1.0" standalone="no"?>
<!DOCTYPE svg PUBLIC "-//W3C//DTD SVG 1.1//EN" "http://www.w3.org/Graphics/SVG/1.1/DTD/svg11.dtd" >
<svg xmlns="http://www.w3.org/2000/svg" xmlns:xlink="http://www.w3.org/1999/xlink" version="1.1">
<metadata>
Created by FontForge 20230101 at Fri Feb 22 21:57:24 2008
 By Unknown
Copyright (URW)++, copyright 1999 by (URW)++ Design &#38; Development; Cyrillic glyphs added by Valek Filippov, copyright 2001-2002; Vietnamese characters were added by Han The Thanh; copyright 2006, 2008 for TeX Gyre extensions by B. Jackowski and J.M. Nowacki (on behalf of TeX users groups). This work is released under the GUST Font License --  see http://tug.org/fonts/licenses/GUST-FONT-LICENSE.txt for details.
</metadata>
<defs>
<font id="TeXGyrePagella-BoldItalic" horiz-adv-x="556" >
  <font-face 
    font-family="TeXGyrePagella"
    font-weight="700"
    font-style="italic"
    font-stretch="normal"
    units-per-em="1000"
    panose-1="0 0 8 0 0 0 0 0 0 0"
    ascent="729"
    descent="-271"
    x-height="469"
    cap-height="681"
    bbox="-487 -271 1292 1109"
    underline-thickness="50"
    underline-position="-100"
    slope="-10"
    unicode-range="U+0020-FB04"
  />
<missing-glyph horiz-adv-x="280" 
 />
    <glyph glyph-name="I_J" unicode="IJ" horiz-adv-x="775" 
d="M384 -3q-99 3 -163 3l-157 -3l4 35l49 3q25 2 34 18t20 79l72 409q9 54 9 72q0 27 -38 30l-52 3l4 35q93 -3 152 -3l159 3l-4 -35l-45 -3q-25 -2 -33.5 -9.5t-12.5 -34.5l-87 -499q-3 -16 -3 -34q0 -16 8.5 -23t28.5 -8l59 -3zM843 646l-46 -3q-25 -2 -33.5 -9.5
t-12.5 -34.5l-98 -556q-17 -98 -77.5 -174t-121.5 -76q-21 0 -52 10v35q19 -8 36 -8q38 0 56 39q8 16 21 96l96 576q10 58 10 73q0 26 -38 29l-51 3l5 35q93 -3 153 -3l158 3z" />
    <glyph glyph-name="i_j" unicode="ij" horiz-adv-x="662" 
d="M374 84q-4 -3 -12.5 -8.5t-15.5 -11.5q-113 -81 -166 -81q-14 0 -23 12t-9 31q0 24 6 52l59 241q8 33 8 41q0 10 -10 10q-7 0 -30.5 -11.5t-38.5 -22.5l-22 -16l-13 26l63 47q102 76 150 76q11 0 18 -10t7 -27q0 -33 -9 -67l-54 -196q-20 -71 -20 -93q0 -11 11 -11
q14 0 62 30l27 17zM382 615q0 -31 -19.5 -51t-49.5 -20q-25 0 -39.5 15.5t-14.5 41.5q0 31 19.5 52.5t47.5 21.5q25 0 40.5 -17t15.5 -43zM679 365l-67 -274q-48 -194 -110 -279q-58 -83 -118 -83q-14 0 -34 5q8 44 10 79l14 3q20 -33 44 -33q30 0 46 78l86 408q14 66 14 88
q0 13 -10 13q-7 0 -30.5 -11.5t-38.5 -22.5l-22 -16l-13 26l63 47q102 76 149 76q26 0 26 -40q0 -27 -9 -64zM725 615q0 -31 -19.5 -51t-49.5 -20q-25 0 -39.5 15.5t-14.5 41.5q0 31 19.5 52.5t47.5 21.5q25 0 40.5 -17t15.5 -43z" />
    <glyph glyph-name="f_k" unicode="fk" horiz-adv-x="883" 
d="M847 73l-44 -31q-83 -59 -122 -59q-17 0 -31.5 21t-34.5 76l-57 155l-31 -34q-16 -18 -21.5 -32.5t-15.5 -64.5q-11 -55 -14 -100q-32 -2 -105 -18l-10 9q22 55 76.5 317t54.5 314q0 26 -39 26h-21q-2 -7 -11 -59l-15 -3q-23 33 -38 44.5t-35 11.5q-28 0 -42 -30.5
t-35 -132.5l-6 -29q45 0 123 8l5 -8q-6 -14 -16 -51h-123l-55 -235q-36 -154 -65 -226.5t-75 -126.5q-31 -35 -71 -60.5t-65 -25.5q-22 0 -38 9q21 46 32 107l17 3q20 -44 51 -44q27 0 40.5 33t35.5 149l79 417h-91l5 25q82 26 100 35q0 3 1.5 8.5t2.5 11.5q9 45 21.5 67
t45.5 52l56 49q29 25 84 59q26 16 52 16q19 0 47 -8l-9 -34q112 18 173 42l10 -9q-3 -11 -8.5 -32.5t-8.5 -32.5l-95 -431q66 89 155 172q84 76 146 76q19 0 43 -9l-20 -70q-29 8 -49 8q-78 0 -146 -80l65 -173q13 -36 29.5 -58t29.5 -22q15 0 46 20l27 17z" />
    <glyph glyph-name="f_f" unicode="ff" horiz-adv-x="593" 
d="M709 718q-17 -63 -28 -125l-15 -3q-23 33 -38 44.5t-35 11.5q-28 0 -42 -30.5t-35 -132.5l-6 -29q58 1 123 8l5 -8q-6 -14 -16 -51h-123l-55 -235q-36 -154 -65 -226.5t-75 -126.5q-31 -35 -71 -60.5t-65 -25.5q-22 0 -38 9q21 46 32 107l17 3q20 -44 51 -44
q27 0 40.5 33t35.5 149l79 417h-146l-55 -235q-36 -154 -65 -226.5t-75 -126.5q-31 -35 -71 -60.5t-65 -25.5q-22 0 -38 9q21 46 32 107l17 3q20 -44 51 -44q27 0 40.5 33t35.5 149l79 417h-91l5 25q82 26 100 35q0 3 1.5 8.5t2.5 11.5q9 45 21.5 67t45.5 52l56 49
q29 25 84 59q26 16 52 16q19 0 47 -8q-17 -63 -28 -125l-15 -3q-23 33 -38 44.5t-35 11.5q-28 0 -42 -30.5t-35 -132.5l-6 -29h147q2 7 4 17.5t2 11.5q9 45 21.5 67t45.5 52l56 49q29 25 84 59q26 16 52 16q19 0 47 -8z" />
    <glyph glyph-name="f_i" unicode="fi" horiz-adv-x="611" 
d="M588 642q0 27 -15.5 44.5t-39.5 17.5q-28 0 -47.5 -21.5t-19.5 -50.5q0 -27 15.5 -43.5t41.5 -16.5q29 0 47 19.5t18 50.5zM562 84q-4 -3 -12.5 -8.5t-15.5 -11.5q-113 -81 -166 -81q-14 0 -23 12t-9 31q0 24 6 52l69 281q6 26 6 37q0 17 -11 17h-64q-42 0 -103 -10
l-55 -235q-36 -154 -65 -226.5t-75 -126.5q-31 -35 -71 -60.5t-65 -25.5q-22 0 -38 9q21 46 32 107l17 3q20 -44 51 -44q26 0 39.5 32t34.5 142l81 425h-91l5 25q82 26 100 35l4 20q10 53 30.5 81t88.5 83q58 47 86.5 63t55.5 16q16 0 44 -8q-15 -58 -27 -125l-15 -3
q-38 56 -78 56q-38 0 -55 -77l-25 -115h160l60 11q24 4 30 4q37 0 37 -40q0 -25 -11 -64l-54 -196q-20 -71 -20 -93q0 -11 11 -11q14 0 62 30l27 17z" />
    <glyph glyph-name="f_l" unicode="fl" horiz-adv-x="611" 
d="M604 78q-88 -64 -125.5 -84t-69.5 -20t-32 52q0 40 16 111l101 459q4 16 4 31q0 25 -35 25h-30l-12 -59l-15 -3q-38 56 -78 56q-38 0 -54 -77l-24 -115q45 0 123 8l5 -8q-6 -14 -16 -51h-123l-55 -235q-36 -154 -65 -226.5t-75 -126.5q-31 -35 -71 -60.5t-65 -25.5
q-22 0 -38 9q21 46 32 107l17 3q20 -44 51 -44q26 0 39.5 32t34.5 142l81 425h-91l5 25q82 26 100 35q9 54 21 78t46 59q55 55 135 106q31 20 63 20q16 0 44 -8q-3 -7 -8 -33q35 1 92 12t87 23l12 -12l-7 -28q-2 -7 -5.5 -19.5t-4.5 -17.5l-107 -482q-12 -53 -12 -91
q0 -14 12 -14q20 0 53 26l30 23z" />
    <glyph glyph-name="f_f_i" unicode="ffi" horiz-adv-x="869" 
d="M822 84q-4 -3 -12.5 -8.5t-15.5 -11.5q-113 -81 -166 -81q-14 0 -23 12t-9 31q0 24 6 52l69 281q6 26 6 37q0 17 -11 17h-64q-42 0 -103 -10l-55 -235q-36 -154 -65 -226.5t-75 -126.5q-31 -35 -71 -60.5t-65 -25.5q-22 0 -38 9q21 46 32 107l17 3q20 -44 51 -44
q26 0 39.5 32t34.5 142l81 425h-146l-55 -235q-36 -154 -65 -226.5t-75 -126.5q-31 -35 -71 -60.5t-65 -25.5q-22 0 -38 9q21 46 32 107l17 3q20 -44 51 -44q27 0 40.5 33t35.5 149l79 417h-91l5 25q82 26 100 35q0 3 1.5 8.5t2.5 11.5q9 45 21.5 67t45.5 52l56 49
q29 25 84 59q26 16 52 16q19 0 47 -8q-17 -63 -28 -125l-15 -3q-23 33 -38 44.5t-35 11.5q-28 0 -42 -30.5t-35 -132.5l-6 -29h146l7 29q13 54 33 82.5t86 81.5q58 47 86.5 63t55.5 16q16 0 44 -8q-15 -58 -27 -125l-15 -3q-38 56 -78 56q-38 0 -55 -77l-25 -115h160
q71 15 90 15q37 0 37 -40q0 -25 -11 -64l-54 -196q-20 -71 -20 -93q0 -11 11 -11q14 0 62 30l27 17zM848 642q0 27 -15.5 44.5t-39.5 17.5q-28 0 -47.5 -21.5t-19.5 -50.5q0 -27 15.5 -43.5t41.5 -16.5q29 0 47 19.5t18 50.5z" />
    <glyph glyph-name="f_f_l" unicode="ffl" horiz-adv-x="906" 
d="M864 78q-88 -64 -125.5 -84t-69.5 -20t-32 52q0 40 16 111l101 459q4 16 4 31q0 25 -35 25h-30l-12 -59l-15 -3q-38 56 -78 56q-38 0 -54 -77l-24 -115q58 1 123 8l5 -8q-6 -14 -16 -51h-123l-55 -235q-36 -154 -65 -226.5t-75 -126.5q-31 -35 -71 -60.5t-65 -25.5
q-22 0 -38 9q21 46 32 107l17 3q20 -44 51 -44q26 0 39.5 32t34.5 142l81 425h-146l-55 -235q-36 -154 -65 -226.5t-75 -126.5q-31 -35 -71 -60.5t-65 -25.5q-22 0 -38 9q21 46 32 107l17 3q20 -44 51 -44q27 0 40.5 33t35.5 149l79 417h-91l5 25q82 26 100 35q0 3 1.5 8.5
t2.5 11.5q9 45 21.5 67t45.5 52l56 49q29 25 84 59q26 16 52 16q19 0 47 -8q-17 -63 -28 -125l-15 -3q-23 33 -38 44.5t-35 11.5q-28 0 -42 -30.5t-35 -132.5l-6 -29h147l2 9q13 57 24 80.5t43 56.5q55 55 135 106q31 20 63 20q16 0 44 -8q-3 -7 -8 -33q35 1 92 12t87 23
l12 -12q-2 -10 -8.5 -32t-8.5 -33l-107 -482q-12 -53 -12 -91q0 -14 12 -14q20 0 53 26l30 23z" />
    <glyph glyph-name=".notdef" horiz-adv-x="280" 
 />
    <glyph glyph-name=".null" horiz-adv-x="0" 
 />
    <glyph glyph-name="nonmarkingreturn" horiz-adv-x="333" 
 />
    <glyph glyph-name="space" unicode=" " horiz-adv-x="250" 
 />
    <glyph glyph-name="exclam" unicode="!" horiz-adv-x="333" 
d="M322 686l-110 -346q-18 -60 -33 -122l-39 -24l-13 9l43 430v33h13l127 29zM197 71q0 -38 -21 -63t-53 -25q-29 0 -47 18t-18 48q0 37 22 61.5t55 24.5q28 0 45 -17.5t17 -46.5z" />
    <glyph glyph-name="quotedbl" unicode="&#x22;" horiz-adv-x="500" 
d="M303 675q0 -23 -10 -36l-122 -172h-34l70 210q14 43 50 43q20 0 33 -12.5t13 -32.5zM493 675q0 -23 -10 -36l-122 -172h-34l70 210q14 43 50 43q20 0 33 -12.5t13 -32.5z" />
    <glyph glyph-name="numbersign" unicode="#" horiz-adv-x="500" 
d="M470 215h-105l-32 -215h-75l32 215h-108l-32 -215h-75l32 215h-103v75h115l16 107h-103v75h114l30 201h75l-30 -201h107l29 201h75l-29 -201h93v-75h-104l-16 -107h94v-75zM301 290l16 107h-107l-16 -107h107z" />
    <glyph glyph-name="dollar" unicode="$" horiz-adv-x="500" 
d="M460 228q0 -60 -33.5 -112.5t-92.5 -87.5q-49 -28 -119 -36l-17 -100h-43l19 101q-63 9 -94 18.5t-60 28.5q18 60 26 143h34l-3 -60q-1 -21 3 -29t18 -17q34 -21 85 -36l44 244q-82 14 -120 51t-38 103q0 57 27.5 106.5t76.5 80.5q46 30 122 43l11 68h38l-10 -65
q62 -1 122 -32q14 -7 21 -10q-15 -46 -27 -135h-30v71q0 14 -26.5 29.5t-67.5 24.5l-40 -231q100 -21 137 -60q37 -40 37 -101zM361 174q0 41 -22 64t-74 37l-42 -236q42 0 71 17q31 17 49 49t18 69zM287 620q-42 -3 -69 -18q-27 -17 -44 -47.5t-17 -64.5q0 -65 90 -91z" />
    <glyph glyph-name="percent" unicode="%" horiz-adv-x="889" 
d="M378 525q0 -77 -50.5 -126t-129.5 -49q-67 0 -104.5 39.5t-37.5 108.5q0 77 52.5 125.5t135.5 48.5q62 0 98 -40t36 -107zM292 576q0 30 -15 49t-38 19q-34 0 -60 -44q-15 -25 -26 -71t-11 -83q0 -30 15 -49t38 -19q36 0 60 44q16 28 26.5 72.5t10.5 81.5zM790 171
q0 -77 -50.5 -126t-129.5 -49q-67 0 -104.5 39.5t-37.5 108.5q0 77 52.5 125.5t135.5 48.5q62 0 98 -40t36 -107zM704 222q0 30 -15 49t-38 19q-34 0 -60 -44q-15 -25 -26 -71t-11 -83q0 -30 15 -49t38 -19q36 0 60 44q16 28 26.5 72.5t10.5 81.5zM671 697l-442 -714h-53
l444 714h51z" />
    <glyph glyph-name="ampersand" unicode="&#x26;" horiz-adv-x="833" 
d="M811 439q0 -49 -30.5 -82.5t-85.5 -44.5l-80 -15q63 -15 63 -77q0 -92 -94 -157q-52 -37 -125.5 -58.5t-144.5 -21.5q-111 0 -175.5 51.5t-64.5 139.5q0 78 54 130q29 28 60 45t92 37q-46 8 -71 35.5t-25 70.5q0 73 91 141q83 62 163 62q64 0 114 -28q-20 -75 -21 -128
h-30v60q-52 41 -104 41q-50 0 -82.5 -32.5t-32.5 -81.5t35 -75t89 -26h14l-14 -57q-13 3 -27 3q-83 0 -135.5 -46.5t-52.5 -121.5t53 -121t141 -46q87 0 144.5 45.5t57.5 113.5q0 37 -23.5 60t-61.5 23q-54 0 -71 -64l-4 -15h-24l10 105q16 18 52 34.5t72 21.5l120 18
q62 9 89 26.5t27 49.5q0 33 -36 47l14 25q60 -29 60 -87z" />
    <glyph glyph-name="quotesingle" unicode="'" horiz-adv-x="250" 
d="M293 675q0 -23 -10 -36l-122 -172h-34l70 210q14 43 50 43q20 0 33 -12.5t13 -32.5z" />
    <glyph glyph-name="parenleft" unicode="(" horiz-adv-x="333" 
d="M252 -108l-26 -21q-81 102 -112 162q-56 109 -56 218q0 110 52.5 213.5t149.5 186.5l84 72l24 -25q-69 -75 -102.5 -130t-59.5 -138q-38 -117 -38 -245q0 -93 18.5 -156t65.5 -137z" />
    <glyph glyph-name="parenright" unicode=")" horiz-adv-x="333" 
d="M298 342q0 -109 -52.5 -212.5t-149.5 -186.5l-84 -72l-24 25q69 75 102.5 130t59.5 138q38 115 38 245q0 92 -18.5 155.5t-65.5 137.5l26 21q81 -102 112 -162q56 -106 56 -219z" />
    <glyph glyph-name="asterisk" unicode="*" horiz-adv-x="444" 
d="M439 473l-9 -11q-63 25 -154 34q51 -84 80 -118l-2 -12q-35 -7 -85 -34l-15 7q0 76 -11 145q-54 -39 -101 -105l-19 8q-15 42 -39 70l4 7q66 17 137 53q-50 34 -138 59l-3 7q29 45 44 77h16q50 -58 102 -114q13 66 13 142l8 7q41 -15 92 -22l5 -14q-39 -39 -82 -127
q15 3 45 8.5t54 10.5t42 12l6 -3q-4 -38 10 -87z" />
    <glyph glyph-name="plus" unicode="+" horiz-adv-x="606" 
d="M565 207h-214v-214h-86v214h-214v86h214v214h86v-214h214v-86z" />
    <glyph glyph-name="comma" unicode="," horiz-adv-x="250" 
d="M208 132q-45 -89 -64 -121q-22 -36 -61.5 -87.5t-44.5 -51.5l-53 -36l-18 14l41 78q17 32 34.5 88.5t23.5 95.5q77 16 126 35z" />
    <glyph glyph-name="hyphen" unicode="-" horiz-adv-x="389" 
d="M362 288q-16 -24 -30 -90q-29 1 -68 3t-68 2q-96 0 -153 -4l-6 9q22 56 29 92q59 -6 146 -6l143 3z" />
    <glyph glyph-name="period" unicode="." horiz-adv-x="250" 
d="M187 71q0 -38 -21 -63t-53 -25q-29 0 -47 18t-18 48q0 37 22 61.5t55 24.5q28 0 45 -17.5t17 -46.5z" />
    <glyph glyph-name="slash" unicode="/" horiz-adv-x="315" 
d="M315 720l-224 -737h-90l224 737h90z" />
    <glyph glyph-name="zero" unicode="0" horiz-adv-x="500" 
d="M490 437q0 -180 -79 -322q-74 -132 -191 -132q-87 0 -132.5 62.5t-45.5 182.5q0 181 78 321q39 70 85.5 102t108.5 32q86 0 131 -63t45 -183zM303 116q26 84 49.5 224t23.5 213q0 43 -17 68t-46 25q-36 0 -58.5 -39.5t-46.5 -136.5l-9 -39q-18 -78 -30.5 -170.5
t-12.5 -146.5q0 -44 17 -69t46 -25q55 0 84 96z" />
    <glyph glyph-name="one" unicode="1" horiz-adv-x="500" 
d="M434 30l-6 -33q-118 3 -194 3l-193 -3l5 33l54 3q49 3 60 11.5t18 47.5l88 486l-183 -78l-9 9l16 63q122 31 196 60q58 23 103 46l17 -9q-8 -35 -13 -63l-89 -506q-4 -20 -4 -29q0 -21 11.5 -29t45.5 -9z" />
    <glyph glyph-name="two" unicode="2" horiz-adv-x="500" 
d="M454 100q-15 -28 -33 -103q-119 3 -195 3l-225 -3v25l97 94q230 222 230 375q0 46 -29 74t-78 28q-37 0 -61 -17.5t-52 -64.5l-14 -24l-30 9l56 136q70 51 146 51q83 0 133.5 -46.5t50.5 -123.5q0 -102 -91 -193l-221 -222h226q38 0 82 8z" />
    <glyph glyph-name="three" unicode="3" horiz-adv-x="500" 
d="M448 221q0 -100 -80.5 -169t-197.5 -69q-79 0 -162 41l30 161l34 -2q-5 -32 -5 -55q0 -48 29.5 -78t78.5 -30q73 0 115 73q30 52 30 118q0 62 -27.5 95.5t-78.5 33.5q-25 0 -76 -15l-6 6l16 51q11 -4 29 -4q57 0 90 19q64 38 64 115q0 43 -25 67t-70 24q-81 0 -126 -88
l-29 11l56 111q64 46 145 46q78 0 123 -36.5t45 -98.5q0 -56 -42 -101q-37 -40 -113 -72l-1 -4q154 -19 154 -150z" />
    <glyph glyph-name="four" unicode="4" horiz-adv-x="500" 
d="M454 -3q-109 3 -178 3l-178 -3l5 33l63 3q41 2 51.5 12t17.5 50l14 81h-246l5 38q137 225 310 438q59 5 122 31l13 -10l-77 -421l107 3l4 -2l-18 -77h-107l-13 -83q-3 -20 -3 -32q0 -11 9 -19t23 -9l81 -3zM325 597q-148 -189 -239 -345h178z" />
    <glyph glyph-name="five" unicode="5" horiz-adv-x="500" 
d="M456 244q0 -110 -80 -185.5t-198 -75.5q-91 0 -164 47q14 57 27 148l29 -5q-2 -24 -2 -29q0 -56 31 -90t81 -34q77 0 119 88q29 61 29 131q0 57 -29.5 90t-79.5 33q-33 0 -57 -13t-50 -47l-31 12l64 353l5 8q123 -7 232 -7h93l6 -9l-46 -89l-159 -4h-102l-43 -200
q34 28 64.5 39.5t74.5 11.5q86 0 136 -46.5t50 -126.5z" />
    <glyph glyph-name="six" unicode="6" horiz-adv-x="500" 
d="M476 260q0 -111 -78.5 -194t-183.5 -83q-85 0 -130 57.5t-45 165.5q0 102 35.5 195.5t100.5 161.5q115 120 240 120q40 0 73 -14l-22 -69l-8 -4q-36 35 -85 35q-85 0 -139 -109q-32 -64 -58 -188q42 44 76.5 62.5t75.5 18.5q64 0 106 -43.5t42 -111.5zM351 234
q0 114 -78 114q-53 0 -83.5 -52.5t-30.5 -144.5q0 -122 85 -122q45 0 71 46q36 60 36 159z" />
    <glyph glyph-name="seven" unicode="7" horiz-adv-x="500" 
d="M544 629l-58 -81q-77 -107 -159.5 -264t-135.5 -287q-39 3 -58 3q-12 0 -57 -3l-7 13l291 438l79 109h-269q-30 0 -89 -7l-8 6q14 67 21 109l6 9l184 -6h260v-39z" />
    <glyph glyph-name="eight" unicode="8" horiz-adv-x="500" 
d="M454 218q0 -98 -85 -167q-85 -68 -173 -68q-77 0 -123.5 40t-46.5 107q0 106 131 179l34 19l-14 9q-80 51 -80 132q0 98 104 170q64 44 131 44q69 0 110.5 -35t41.5 -94q0 -81 -93 -145l-53 -36l14 -8q102 -59 102 -147zM348 155q0 90 -112 145l-18 9
q-59 -39 -84.5 -77.5t-25.5 -88.5q0 -51 31 -82.5t81 -31.5q54 0 91 36.5t37 89.5zM404 533q0 49 -26.5 76.5t-72.5 27.5q-49 0 -80 -32.5t-31 -82.5q0 -40 24 -67.5t91 -64.5q55 42 75 72.5t20 70.5z" />
    <glyph glyph-name="nine" unicode="9" horiz-adv-x="500" 
d="M491 456q0 -116 -50 -226.5t-131 -178.5t-167 -68q-34 0 -91 15l-25 103l23 10q36 -79 115 -79q86 0 134 114q23 54 49 167l4 18q-38 -46 -72.5 -65.5t-78.5 -19.5q-67 0 -106 46t-39 125q0 137 119 215q79 51 138 51q84 0 131 -60t47 -167zM366 503q0 63 -21 97t-60 34
q-50 0 -79.5 -49t-29.5 -133q0 -135 83 -135q50 0 78.5 49t28.5 137z" />
    <glyph glyph-name="colon" unicode=":" horiz-adv-x="250" 
d="M236 388q0 -38 -21 -63t-53 -25q-29 0 -47 18t-18 48q0 38 21.5 62t55.5 24q28 0 45 -17.5t17 -46.5zM177 71q0 -38 -21 -63t-53 -25q-29 0 -47 18t-18 48q0 37 22 61.5t55 24.5q28 0 45 -17.5t17 -46.5z" />
    <glyph glyph-name="semicolon" unicode=";" horiz-adv-x="250" 
d="M208 132q-45 -89 -64 -121q-22 -36 -61.5 -87.5t-44.5 -51.5l-53 -36l-18 14l41 78q17 32 34.5 88.5t23.5 95.5q77 16 126 35zM247 388q0 -38 -21 -63t-53 -25q-29 0 -47 18t-18 46q0 38 21.5 63t54.5 25q29 0 46 -17t17 -47z" />
    <glyph glyph-name="less" unicode="&#x3c;" horiz-adv-x="606" 
d="M519 0l-441 211v78l441 211v-96l-322 -154l322 -154v-96z" />
    <glyph glyph-name="equal" unicode="=" horiz-adv-x="606" 
d="M565 292h-514v86h514v-86zM565 122h-514v86h514v-86z" />
    <glyph glyph-name="greater" unicode="&#x3e;" horiz-adv-x="606" 
d="M519 211l-441 -211v96l322 154l-322 154v96l441 -211v-78z" />
    <glyph glyph-name="question" unicode="?" horiz-adv-x="444" 
d="M450 543q0 -81 -74 -135l-103 -76q-42 -31 -56 -47.5t-14 -35.5q0 -21 20 -42l-22 -18q-42 35 -42 77q0 45 51 99l63 66q51 54 51 105q0 37 -24.5 58t-66.5 21q-28 0 -56 -14q-25 -12 -46 -62l-7 -17l-33 4q28 62 43 126q45 25 74 34t66 9q80 0 128 -41t48 -111zM236 71
q0 -38 -21 -63t-53 -25q-29 0 -47 18t-18 48q0 37 22 61.5t55 24.5q28 0 45 -17.5t17 -46.5z" />
    <glyph glyph-name="at" unicode="@" horiz-adv-x="833" 
d="M739 173q-37 -64 -76 -98q-99 -87 -231 -87q-148 0 -249 98.5t-101 242.5q0 148 101 250t248 102q132 0 222.5 -81.5t90.5 -200.5q0 -110 -73 -186q-34 -34 -75 -55t-75 -21q-60 0 -69 82q-33 -45 -57.5 -60.5t-60.5 -15.5q-55 0 -89.5 37.5t-34.5 97.5q0 88 62 155.5
t144 67.5q66 0 81 -72l16 64h94l-74 -274q-4 -18 -4 -25q0 -24 19 -24q34 0 80 55q65 78 65 178q0 94 -74 158t-183 64q-128 0 -213 -82.5t-85 -207.5q0 -126 86.5 -208.5t218.5 -82.5q59 0 107 22q39 17 65 39.5t60 67.5h64zM478 403q0 29 -12.5 48t-33.5 20
q-43 3 -85 -72.5t-42 -156.5q0 -31 13.5 -50.5t35.5 -19.5q42 0 80 68q44 76 44 163z" />
    <glyph glyph-name="A" unicode="A" horiz-adv-x="722" 
d="M685 -3q-89 3 -146 3l-155 -3v35l42 3q45 3 42 31l-25 198q-12 0 -33 1t-39.5 1.5t-37.5 0.5l-111 -3l-86 -152q-19 -34 -19 -57q0 -17 43 -20l44 -3l-5 -35q-76 3 -124 3l-110 -3l5 35l34 3q28 3 47 35l363 613h96q2 -11 4.5 -35t3.5 -36l76 -522q7 -51 54 -55l37 -3
v-35zM438 307l-38 266l-155 -266h193z" />
    <glyph glyph-name="B" unicode="B" horiz-adv-x="667" 
d="M601 214q0 -62 -39.5 -115t-107.5 -81q-54 -22 -122 -21q-21 0 -56.5 1t-66.5 1.5t-63 0.5l-138 -3l5 32l28 3q23 2 32.5 14t15.5 46l87 502q2 14 2 21q0 16 -10 23t-36 8l-46 3l5 32l158 -3q37 0 95 2t95 2q64 0 105 -16q40 -16 62.5 -49t22.5 -75q0 -66 -47 -108
q-28 -25 -59.5 -40.5t-95.5 -34.5q83 -8 124 -37q50 -37 50 -108zM497 535q0 56 -33 80q-37 27 -97 24q-10 0 -17 -1l-39 -3l-47 -260h43q190 0 190 160zM469 208q0 59 -30 88q-39 39 -117 39l-66 -3l-45 -281q68 -11 112 -11q68 0 107 45t39 123z" />
    <glyph glyph-name="C" unicode="C" horiz-adv-x="685" 
d="M629 116l-13 -39q-83 -52 -144.5 -73t-131.5 -21q-120 0 -191 58q-80 68 -80 209q0 185 127 315t308 130q98 0 191 -43q-32 -114 -38 -168h-35l5 88q2 25 -51.5 44.5t-122.5 19.5q-113 0 -179.5 -98.5t-66.5 -265.5q0 -115 47 -169.5t145 -54.5q90 0 198 64l22 13z" />
    <glyph glyph-name="D" unicode="D" horiz-adv-x="778" 
d="M747 422q0 -92 -37 -177.5t-102 -144.5q-55 -50 -129 -77.5t-149 -25.5q-85 3 -189 3l-141 -3l5 32l28 3q23 2 32.5 14t15.5 46l87 502q2 14 2 20q0 17 -10 24t-36 8l-46 3l5 32l160 -3q37 0 95 2t113 2q87 0 141.5 -19t92.5 -62q62 -70 62 -179zM609 434q0 129 -76 174
q-57 32 -157 32q-4 0 -34 -2l-39 -3l-100 -584q77 -11 111 -11q87 0 140.5 26t86.5 85q31 55 49.5 132t18.5 151z" />
    <glyph glyph-name="E" unicode="E" horiz-adv-x="611" 
d="M556 168q-14 -59 -34 -168l-167 -3q-35 0 -97.5 2t-105.5 1l-141 -3l5 32l28 3q23 2 32.5 14t15.5 46l87 502q2 14 2 21q0 16 -10 23t-36 8l-46 3l5 32q96 -3 157 -3q35 0 91 1.5t92 1.5l162 -3l10 -6l-25 -152h-32v53q0 42 -12 47q-12 4 -67.5 9t-88.5 5q-18 0 -27 -1
l-39 -3l-45 -252h86l140 3l5 -9l-14 -47l-170 5h-55l-48 -274q38 -8 98 -6q13 0 45 -1t48.5 0t39 5t35 15t18.5 29l22 70h36z" />
    <glyph glyph-name="F" unicode="F" 
d="M568 520h-32v53q0 36 -7 44q-7 6 -50 10.5t-69 4.5q-71 0 -93 -2l-50 -286h86l140 3l5 -9l-14 -47l-170 5h-55l-36 -196q-4 -20 -4 -35q0 -16 8 -22.5t28 -7.5l63 -3l-5 -35q-101 3 -165 3l-154 -3l5 35l43 3q24 2 36 20.5t22 76.5l82 462q2 14 2 20q0 17 -9.5 24
t-36.5 8l-50 3l5 32q97 -3 159 -3q30 0 78 1.5t79 1.5l174 -3l10 -6z" />
    <glyph glyph-name="G" unicode="G" horiz-adv-x="778" 
d="M745 253l-25 -2q-20 -1 -30 -11t-15 -34l-20 -96q-8 -38 -3 -62q-108 -39 -164.5 -52t-119.5 -13q-151 0 -228 77q-68 67 -68 196q0 138 74.5 245.5t205.5 159.5q87 34 171 34q103 0 199 -43q-32 -114 -38 -168h-35l5 90q1 23 -51 41t-121 18q-105 0 -166 -53
q-47 -40 -76.5 -129.5t-29.5 -191.5q0 -111 48 -170t138 -59q69 0 121 29l32 141q3 12 3 23q0 27 -44 28l-60 2l5 33q91 -3 149 -3l148 3z" />
    <glyph glyph-name="H" unicode="H" horiz-adv-x="778" 
d="M723 -3q-102 3 -168 3l-148 -3l5 35l49 3q25 1 33.5 16t20.5 81l37 206h-291l-41 -236q-4 -20 -4 -39q0 -25 38 -28l49 -3l-5 -35q-91 3 -150 3l-160 -3l5 35l49 3q26 2 34.5 17t19.5 80l72 409q8 50 8 73q0 15 -8 21.5t-30 7.5l-51 3l5 35q96 -3 157 -3l158 3l-5 -35
l-42 -3q-26 -2 -36.5 -12.5t-16.5 -42.5l-39 -202h294l25 155q8 50 8 76q0 23 -38 26l-51 3l5 35q93 -3 152 -3l163 3l-5 -35l-42 -3q-27 -2 -37 -12t-16 -43l-87 -486q-4 -19 -4 -38q0 -28 38 -29l55 -3z" />
    <glyph glyph-name="I" unicode="I" horiz-adv-x="389" 
d="M319 -3q-99 3 -163 3l-157 -3l4 35l49 3q25 2 34 18t20 79l72 409q9 54 9 72q0 27 -38 30l-52 3l4 35q93 -3 152 -3l159 3l-4 -35l-45 -3q-25 -2 -33.5 -9.5t-12.5 -34.5l-87 -499q-3 -16 -3 -34q0 -16 8.5 -23t28.5 -8l59 -3z" />
    <glyph glyph-name="J" unicode="J" horiz-adv-x="389" 
d="M412 646l-46 -3q-25 -2 -33.5 -9.5t-12.5 -34.5l-98 -556q-17 -98 -77.5 -174t-121.5 -76q-21 0 -52 10v35q19 -8 36 -8q38 0 56 39q8 16 21 96l96 576q10 58 10 73q0 26 -38 29l-51 3l5 35q93 -3 153 -3l158 3z" />
    <glyph glyph-name="K" unicode="K" horiz-adv-x="722" 
d="M684 -3q-56 3 -92 3l-94 -3q-8 15 -49 73l-129 183q-16 23 -59 75l-40 -228q-3 -18 -3 -30q0 -19 7.5 -26.5t29.5 -8.5l49 -3l-4 -35q-91 3 -150 3l-160 -3l4 35l49 3q25 2 34 18t20 79l72 409q9 51 9 72q0 27 -38 30l-52 3l4 35q93 -3 152 -3l159 3l-4 -35l-45 -3
q-25 -2 -33.5 -9.5t-12.5 -34.5l-47 -265q24 13 109 92l140 131q9 6 35.5 38t31.5 37q5 6 7.5 12.5t3 9t0 13t-0.5 14.5q48 -3 79 -3l80 3v-33h-35q-24 0 -82 -52l-245 -223l196 -272q30 -41 41 -52t27 -13l39 -6z" />
    <glyph glyph-name="L" unicode="L" horiz-adv-x="611" 
d="M578 174q-28 -139 -34 -174l-172 -3q-39 0 -100.5 1.5t-100.5 1.5l-145 -3l4 32l28 3q22 2 31 14t15 46l82 449q9 48 9 74q0 27 -38 28l-52 3l4 35q93 -3 152 -3l159 3l-4 -35l-45 -3q-25 -1 -33 -9t-13 -35l-99 -543q29 -6 62 -6q96 0 174 6q25 2 37.5 11.5t19.5 30.5
l23 76h36z" />
    <glyph glyph-name="M" unicode="M" horiz-adv-x="944" 
d="M884 -3q-93 3 -152 3l-155 -3l5 35l49 3q23 4 29.5 11t12.5 35q1 4 2 9l2 11l82 485l-291 -478l-71 -125h-25l-143 565l-107 -440q-8 -32 -8 -44q0 -28 34 -29l51 -3l-5 -35q-66 3 -108 3l-109 -3l2 35l42 3q25 1 40 56l125 461q9 33 9 61q0 30 -53 33l-45 3l5 32
q67 -3 110 -3l111 3l127 -507q211 331 308 507q69 -3 113 -3l114 3l-5 -32l-39 -3q-28 -2 -38.5 -15.5t-17.5 -53.5l-80 -467l-2 -8q-5 -32 -5 -37q0 -29 36 -30l55 -3z" />
    <glyph glyph-name="N" unicode="N" horiz-adv-x="778" 
d="M829 681l-6 -32l-37 -3q-24 -3 -34 -10q-10 -9 -30 -108l-86 -428q-8 -36 -16 -103h-85l-310 537l-73 -396q-8 -43 -8 -62q0 -40 36 -41l51 -3l-5 -35q-68 3 -112 3l-116 -3l2 35l48 3q16 1 25 13t15 43q38 193 98 491q2 8 -9 23t-24 24q-24 15 -50 17l-39 3l3 32
q65 -3 107 -3l108 3l314 -539l74 400q6 38 6 70q0 31 -46 34l-42 3l5 32q72 -3 118 -3z" />
    <glyph glyph-name="O" unicode="O" horiz-adv-x="833" 
d="M794 414q0 -183 -123.5 -307t-305.5 -124q-137 0 -213 74.5t-76 210.5q0 187 117 307t300 120q145 0 228 -83q73 -73 73 -198zM656 435q0 217 -176 217q-127 0 -195 -115q-32 -53 -51.5 -135.5t-19.5 -162.5q0 -105 44 -159t130 -54q128 0 201 127q67 116 67 282z" />
    <glyph glyph-name="P" unicode="P" horiz-adv-x="667" 
d="M673 518q0 -98 -73.5 -167.5t-177.5 -69.5q-47 0 -97 18l-2 35q36 -12 66 -12q65 0 108.5 54t43.5 135q0 66 -34 96.5t-108 30.5q-21 0 -62 -3l-95 -535q-3 -16 -3 -34q0 -30 37 -31l59 -3l-4 -35q-99 3 -163 3l-157 -3l4 35l49 3q25 2 34 18t20 79l82 462q2 14 2 20
q0 17 -9.5 24t-36.5 8l-56 3l5 32q102 -3 168 -3q38 0 97 1.5t97 1.5q80 0 143 -43.5t63 -119.5z" />
    <glyph glyph-name="Q" unicode="Q" horiz-adv-x="833" 
d="M794 414q0 -183 -123.5 -307t-305.5 -124q-137 0 -213 74.5t-76 210.5q0 187 117 307t300 120q145 0 228 -83q73 -73 73 -198zM656 435q0 217 -176 217q-127 0 -195 -115q-32 -53 -51.5 -135.5t-19.5 -162.5q0 -105 44 -159t130 -54q128 0 201 127q67 116 67 282z
M769 -53q-17 -81 -58 -125t-101 -44q-33 0 -82 26l-199 107q-36 19 -72 19q-35 0 -56 -27t-22 -71l-5 -2l-24 16q1 68 35.5 105t96.5 37q51 0 138 -38l94 -41q97 -42 143 -42q63 0 81 90z" />
    <glyph glyph-name="R" unicode="R" horiz-adv-x="722" 
d="M697 -3q-60 3 -98 3l-84 -3l-145 261q-8 14 -61 95l5 17h55q69 0 113.5 45t44.5 114q0 58 -32 83.5t-105 25.5q-23 0 -62 -3l-93 -535q-3 -16 -3 -34q0 -30 37 -31l59 -3l-4 -35q-99 3 -163 3l-157 -3l4 35l49 3q25 2 34 18t20 79l81 462q2 14 2 20q0 17 -9.5 24t-36.5 8
l-46 3l5 32q104 -3 170 -3q35 0 91 1.5t92 1.5q75 0 137 -38.5t62 -104.5q0 -91 -77 -140q-46 -30 -128 -45l156 -267q10 -19 26 -35t24 -17l37 -7v-30z" />
    <glyph glyph-name="S" unicode="S" 
d="M495 239q0 -58 -30.5 -113.5t-83.5 -93.5q-71 -49 -171 -49q-97 0 -160 40l21 166h27v-76q39 -74 152 -74q67 0 103 32t36 91q0 48 -25 70q-14 13 -30 21t-68 27q-94 34 -128 69.5t-34 100.5q0 100 78.5 172.5t187.5 72.5q82 0 147 -44q-22 -80 -22 -147h-30v85
q-59 50 -134 50q-59 0 -97 -31.5t-38 -81.5q0 -44 27.5 -71t100.5 -54q62 -23 86.5 -35.5t46.5 -32.5q38 -35 38 -94z" />
    <glyph glyph-name="T" unicode="T" horiz-adv-x="611" 
d="M674 676l-30 -168h-38l4 84q1 20 -12.5 29t-44.5 9h-117l-95 -530q-4 -23 -4 -35q0 -16 8 -22.5t28 -7.5l59 -3l-5 -35q-102 3 -168 3l-156 -3l5 35l53 3q25 2 36.5 20.5t21.5 76.5l85 498h-124q-35 0 -57 -24q-8 -12 -15 -40l-14 -58h-38l25 168l6 5q177 -3 290 -3
l290 3z" />
    <glyph glyph-name="U" unicode="U" horiz-adv-x="778" 
d="M721 -3q-72 3 -118 3l-106 -3l-5 8l27 128q-68 -73 -116 -107q-61 -43 -132 -43q-100 0 -149 70q-28 38 -28 103q0 32 8 78l58 307q11 61 11 76q0 25 -37 26l-51 3l5 35l132 -3l87 3l6 -7l-86 -460q-3 -17 -3 -35q0 -46 14 -69q12 -21 36.5 -34t52.5 -13q43 0 94 30
q36 20 67 47.5t33 41.5l65 359q11 60 11 76q0 25 -37 26l-51 3l5 35q93 -3 152 -3l159 3l-5 -35l-46 -3q-26 -2 -35 -9.5t-14 -34.5l-90 -499q-4 -23 -4 -35q0 -16 8 -22.5t28 -7.5l59 -3z" />
    <glyph glyph-name="V" unicode="V" horiz-adv-x="667" 
d="M742 646l-26 -3q-16 -2 -25.5 -10t-24.5 -35l-334 -601h-83l-95 588q-5 31 -14.5 43.5t-29.5 14.5l-43 3v35q90 -3 148 -3l148 3v-35l-50 -3q-19 -2 -24.5 -8t-5.5 -28q0 -7 1 -13l68 -462l233 435q21 40 21 54q0 21 -33 22l-50 3l5 35q66 -3 109 -3l108 3z" />
    <glyph glyph-name="W" unicode="W" horiz-adv-x="1000" 
d="M1068 646l-34 -3q-14 -2 -25 -19.5t-37 -81.5l-219 -545h-84l-131 494l-246 -494h-84l-52 542q-5 69 -12.5 85.5t-35.5 18.5l-41 3l5 35q88 -3 145 -3l146 3v-35l-45 -3q-22 -2 -30.5 -13t-6.5 -37l35 -448l265 544h31l148 -556l169 446q11 29 11 40q0 12 -10 17.5
t-35 6.5l-45 3l5 35q66 -3 109 -3l109 3z" />
    <glyph glyph-name="X" unicode="X" horiz-adv-x="722" 
d="M684 -3q-92 3 -151 3l-153 -3v35l62 2q19 0 19 16q0 17 -7 31l-101 199l-168 -192q-15 -16 -15 -36q0 -15 34 -17l55 -3l-5 -35q-79 3 -129 3l-134 -3l5 35l40 3q30 2 52 26l242 262l-152 291q-14 26 -56 29l-40 3v35q98 -3 160 -3l160 3v-35l-40 -3q-23 -1 -31 -5
t-8 -12q0 -15 9 -33l89 -175l152 172l1 1q20 20 20 33q0 16 -39 19l-48 3l5 35q79 -3 130 -3l130 3l-2 -35l-44 -3q-11 1 -34.5 -15t-43.5 -38l-205 -213l151 -295q15 -29 24 -37.5t24 -9.5l47 -3z" />
    <glyph glyph-name="Y" unicode="Y" horiz-adv-x="611" 
d="M669 593q-53 -6 -116 -76q-49 -56 -101 -153t-60 -147q-1 -3 -1.5 -5.5t-1.5 -9.5t-3 -17t-6.5 -33t-9.5 -52q-3 -16 -3 -33t8 -24t29 -8l59 -3l-4 -35q-99 3 -163 3l-157 -3l4 35l49 3q25 1 32 13.5t22 83.5q20 89 20 113q0 15 -8 49t-16 61.5t-19.5 63.5t-11.5 37
q-20 64 -49.5 102.5t-59.5 38.5q-28 0 -45 -10l-3 33q31 21 90 70q19 5 28 5q41 0 73 -29q58 -52 89 -200l36 -169q68 166 156 277t149 107z" />
    <glyph glyph-name="Z" unicode="Z" horiz-adv-x="667" 
d="M634 180l-39 -183q-187 3 -306 3l-288 -3v27l495 605h-164q-131 0 -161 -14q-11 -5 -18 -29l-24 -76h-35q15 67 26 160l7 11q165 -3 270 -3l279 3l-5 -35l-483 -597h180q109 0 185 15q28 59 45 116h36z" />
    <glyph glyph-name="bracketleft" unicode="[" horiz-adv-x="333" 
d="M264 -102q-73 3 -120 3l-94 -3l-5 8q29 133 36 180l84 559q3 20 5 70l7 8q55 -3 91 -3l113 3l-5 -39l-75 2q-30 1 -37 -10.5t-17 -72.5l-86 -547q-9 -61 -9 -77q0 -41 30 -42l87 -4z" />
    <glyph glyph-name="backslash" unicode="\" horiz-adv-x="606" 
d="M534 0h-90l-372 720h90z" />
    <glyph glyph-name="bracketright" unicode="]" horiz-adv-x="333" 
d="M190 -94l-7 -8q-56 3 -92 3l-112 -3l5 39l75 -2q30 -1 37 10.5t17 72.5l86 547q9 60 9 78q0 39 -30 41l-87 4l5 35q72 -3 118 -3l96 3l5 -8q-26 -119 -36 -180l-84 -559q-2 -16 -5 -70z" />
    <glyph glyph-name="asciicircum" unicode="^" horiz-adv-x="606" 
d="M543 275h-97l-143 279l-143 -279h-97l200 403h79z" />
    <glyph glyph-name="underscore" unicode="_" horiz-adv-x="500" 
d="M500 -125h-500v50h500v-50z" />
    <glyph glyph-name="grave" unicode="`" horiz-adv-x="333" 
d="M366 518h-49l-123 89q-16 12 -20 22t1 25q7 19 25 32t38 13q21 0 40 -30z" />
    <glyph glyph-name="a" unicode="a" 
d="M519 82q-112 -99 -174 -99q-32 0 -32 44q0 29 7 56l37 151q-143 -251 -259 -251q-24 0 -39 21t-15 54q0 59 22 143t48 125q12 19 52 53.5t82 62.5q40 27 94 27q41 0 102 -26l45 27l16 -12q-23 -64 -32 -105l-45 -214l-10 -49q3 -25 14 -25q15 0 55 31l20 16zM377 395
q-47 22 -82 22q-32 0 -54 -23.5t-38 -75.5q-47 -147 -47 -216q0 -15 5 -26t12 -11q34 0 101 88q83 111 103 242z" />
    <glyph glyph-name="b" unicode="b" horiz-adv-x="537" 
d="M494 353q0 -223 -170 -322q-83 -48 -159 -48q-56 0 -88.5 29t-32.5 81q0 21 9 72l73 431q3 18 3 31q0 25 -34 25h-45l7 28q135 20 198 46l10 -9l-14 -65l-71 -348q53 79 99 112q73 53 141 53q74 0 74 -116zM380 319q0 84 -39 84q-31 0 -78.5 -40t-69.5 -86
q-39 -83 -39 -159q0 -41 18 -65t50 -24q63 0 109 92q19 38 34 99t15 99z" />
    <glyph glyph-name="c" unicode="c" horiz-adv-x="444" 
d="M401 90q-89 -62 -140 -84.5t-103 -22.5q-58 0 -92 37t-34 99q0 54 15 116t37 96q27 41 101 86q50 31 78 41.5t59 10.5q46 0 114 -24q-16 -43 -35 -141h-33l6 56l-4 14q-46 33 -92 33q-63 0 -93 -70q-16 -36 -27.5 -94.5t-11.5 -102.5q0 -41 21.5 -65.5t57.5 -24.5t71 15
t95 55z" />
    <glyph glyph-name="d" unicode="d" 
d="M522 82l-36 -26q-103 -73 -136 -73q-14 0 -24.5 12t-10.5 29q0 23 7 50l40 164q-49 -81 -79.5 -121.5t-65.5 -71.5q-72 -62 -116 -62q-27 0 -45 25t-18 62q0 74 22 157t52 121q19 25 60 55t84 49q37 17 75 17q28 0 65 -9l18 112q4 28 4 38q0 42 -38 42h-45l7 28
q135 20 198 46l10 -9q-11 -48 -14 -65l-107 -531q-5 -27 -5 -40q0 -6 4 -11t10 -5t49 28l26 17zM384 401q-48 18 -85 18q-38 0 -56 -13t-35 -53q-22 -49 -39 -129.5t-17 -131.5q0 -12 6.5 -19.5t17.5 -7.5q32 0 78 59q88 109 106 182z" />
    <glyph glyph-name="e" unicode="e" horiz-adv-x="444" 
d="M387 86q-6 -4 -14.5 -9t-14.5 -9q-76 -49 -120 -67t-89 -18q-56 0 -88.5 31t-32.5 84t17.5 120.5t42.5 112.5q29 52 103.5 95t133.5 43q43 0 68 -23.5t25 -63.5q0 -88 -107 -139q-54 -26 -164 -50q-5 -36 -5 -64q0 -39 19 -60.5t54 -21.5q57 0 162 67zM324 368
q0 25 -13 39t-35 14q-37 0 -66 -37t-45 -107l-14 -58l41 12q61 18 96.5 54.5t35.5 82.5z" />
    <glyph glyph-name="f" unicode="f" horiz-adv-x="333" 
d="M449 718q-17 -63 -28 -125l-15 -3q-23 33 -38 44.5t-35 11.5q-28 0 -42 -30.5t-35 -132.5l-6 -29q45 0 123 8l5 -8q-6 -14 -16 -51h-123l-55 -235q-36 -154 -65 -226.5t-75 -126.5q-31 -35 -71 -60.5t-65 -25.5q-22 0 -38 9q21 46 32 107l17 3q20 -44 51 -44
q27 0 40.5 33t35.5 149l79 417h-91l5 25l50 16q28 9 50 19q0 3 1.5 8.5t2.5 11.5q9 45 21.5 67t45.5 52l56 49q29 25 84 59q26 16 52 16q19 0 47 -8z" />
    <glyph glyph-name="g" unicode="g" horiz-adv-x="500" 
d="M529 440l-10 -50l-88 4q11 -33 11 -59q0 -97 -82 -150q-25 -16 -75 -36q-58 -21 -58 -46q0 -18 23 -34l85 -60q78 -55 78 -114q0 -72 -72 -119t-182 -47q-95 0 -152 34t-57 91t59 99q40 29 133 59q-24 18 -26 49l4 20l92 56q-86 1 -122 32q-36 32 -36 97q0 88 66 138
q37 27 86.5 46t83.5 19q43 0 90 -20q39 -4 73 -3l71 3zM334 340q0 41 -17.5 63t-50.5 22q-51 0 -79 -46q-13 -20 -21.5 -56.5t-8.5 -66.5q0 -39 19.5 -61.5t53.5 -22.5q46 0 75 46.5t29 121.5zM309 -144q0 22 -14.5 41t-49.5 43l-82 55l-28 -13q-96 -45 -96 -113
q0 -47 38.5 -75.5t100.5 -28.5q56 0 93.5 26t37.5 65z" />
    <glyph glyph-name="h" unicode="h" 
d="M522 79q-79 -54 -119.5 -75t-65.5 -21q-13 0 -22 12t-9 29q0 44 48 213q25 85 25 115q0 29 -20 29q-33 0 -81.5 -51t-83.5 -122q-42 -85 -56 -204q-64 -4 -106 -17l-10 11q28 57 80 336q48 255 48 293q0 25 -34 25h-45l7 28q135 20 198 46l10 -9q-2 -10 -8 -31.5
t-9 -33.5l-89 -408q63 101 141 163t142 62q17 0 27.5 -12t10.5 -32q0 -21 -4.5 -42.5t-14 -53t-12.5 -41.5l-38 -144q-8 -32 -8 -63q0 -16 12 -16q13 0 61 30l16 10z" />
    <glyph glyph-name="i" unicode="i" horiz-adv-x="333" 
d="M293 84q-4 -3 -12.5 -8.5t-15.5 -11.5q-113 -81 -166 -81q-14 0 -23 12t-9 31q0 24 6 52l59 241q8 33 8 41q0 10 -10 10q-7 0 -30.5 -11.5t-38.5 -22.5l-22 -16l-13 26l63 47q102 76 150 76q11 0 18 -10t7 -27q0 -33 -9 -67l-54 -196q-20 -71 -20 -93q0 -11 11 -11
q14 0 62 30l27 17zM301 615q0 -31 -19.5 -51t-49.5 -20q-25 0 -39.5 15.5t-14.5 41.5q0 31 19.5 52.5t47.5 21.5q25 0 40.5 -17t15.5 -43z" />
    <glyph glyph-name="j" unicode="j" horiz-adv-x="333" 
d="M265 365l-67 -274q-48 -194 -110 -279q-58 -83 -118 -83q-14 0 -34 5q8 44 10 79l14 3q20 -33 44 -33q30 0 46 78l86 408q14 66 14 88q0 13 -10 13q-7 0 -30.5 -11.5t-38.5 -22.5l-22 -16l-13 26l63 47q102 76 149 76q26 0 26 -40q0 -27 -9 -64zM311 615q0 -31 -19.5 -51
t-49.5 -20q-25 0 -39.5 15.5t-14.5 41.5q0 31 19.5 52.5t47.5 21.5q25 0 40.5 -17t15.5 -43z" />
    <glyph glyph-name="k" unicode="k" 
d="M520 73l-44 -31q-83 -59 -122 -59q-17 0 -31.5 21t-34.5 76l-57 155l-31 -34q-16 -17 -21 -30.5t-14 -60.5q-13 -64 -16 -106q-32 -2 -105 -18l-10 9q27 69 78 339q48 255 48 293q0 25 -34 25h-45l7 28q135 20 198 46l10 -9q-11 -38 -17 -65l-95 -431q58 79 147 164
q88 84 154 84q21 0 43 -9l-20 -70q-29 8 -49 8q-78 0 -146 -80l65 -173q14 -35 30 -57.5t29 -22.5t46 20l27 17z" />
    <glyph glyph-name="l" unicode="l" horiz-adv-x="333" 
d="M291 87q-88 -64 -125.5 -84t-69.5 -20t-32 52q0 38 16 111l99 450q4 16 4 31q0 25 -35 25h-45l7 28q135 20 198 46l10 -9q-12 -49 -17 -65l-107 -482q-12 -52 -12 -91q0 -14 12 -14q20 0 53 26l30 23z" />
    <glyph glyph-name="m" unicode="m" horiz-adv-x="833" 
d="M803 89q-61 -51 -108 -77q-54 -29 -81 -29q-17 0 -27 11t-10 29q0 53 54 240q21 75 21 91t-16 16q-28 0 -74.5 -45.5t-79.5 -104.5q-54 -96 -63 -216q-64 -4 -104 -17l-10 11q31 95 57.5 203t26.5 142q0 27 -19 27q-54 0 -128 -115q-64 -98 -87 -251q-64 -4 -104 -17
l-10 11q33 99 58 206.5t25 149.5q0 16 -13 16q-15 0 -41 -20l-37 -28l-14 26l84 68q67 53 110 53q24 0 24 -30q0 -24 -19 -103l-29 -124q40 75 80.5 123.5t97.5 90.5q59 43 96 43q39 0 39 -46q0 -29 -19 -96l-34 -120q52 111 133 181q41 37 84 59t72 22q17 0 27 -12.5
t10 -34.5q0 -35 -10 -69l-50 -184q-20 -72 -20 -92q0 -4 3.5 -8t7.5 -4q17 0 61 32l24 17z" />
    <glyph glyph-name="n" unicode="n" 
d="M521 80q-5 -4 -13.5 -10t-15.5 -11q-102 -76 -151 -76q-16 0 -26 12t-10 30q0 44 48 212q25 85 25 112q0 21 -20 21q-36 0 -92 -68t-85 -148q-26 -74 -36 -150q-64 -4 -106 -17l-10 11q35 104 60 209t25 146q0 17 -11 17q-16 0 -41 -17l-32 -22l-13 27l84 62
q67 49 102 49q27 0 27 -30q0 -36 -34 -157l-17 -60q42 71 87 122q51 55 105.5 90t89.5 35q17 0 28 -11.5t11 -30.5q0 -22 -16 -83l-48 -184q-13 -52 -13 -78q0 -17 11 -17q12 0 45 22l29 20z" />
    <glyph glyph-name="o" unicode="o" 
d="M502 319q0 -48 -13 -102.5t-33 -90.5q-17 -30 -55 -63.5t-80 -52.5q-57 -27 -125 -27q-148 0 -148 152q0 63 24 137q16 49 43.5 83.5t73.5 63.5q79 50 161 50q72 0 112 -39.5t40 -110.5zM388 323q0 46 -22 74t-58 28q-49 0 -85 -51q-26 -38 -43.5 -107t-17.5 -137
q0 -47 22 -75t59 -28q48 0 84 51q26 37 43.5 107t17.5 138z" />
    <glyph glyph-name="p" unicode="p" 
d="M516 370q0 -89 -29 -167.5t-78 -120.5q-70 -59 -118 -82q-39 -17 -86 -17q-27 0 -56 7q-43 -171 -48 -240q-38 -4 -80 -14q-6 -1 -15.5 -3.5t-16.5 -3.5l-10 7q15 50 32 122l79 340q7 30 12 53t7.5 36t3.5 25t1 15.5v13.5v13q0 16 -11 16q-16 0 -41 -17l-32 -22l-13 27
l84 62q67 49 102 49q27 0 27 -31q0 -25 -20 -117l-15 -68q36 60 60 91.5t57 58.5q79 66 148 66q56 0 56 -99zM402 333q0 58 -28 58t-65 -31.5t-72 -85.5q-42 -64 -62 -153l-14 -62q47 -27 94 -27q50 0 80 54q28 49 47.5 122t19.5 125z" />
    <glyph glyph-name="q" unicode="q" horiz-adv-x="537" 
d="M513 458q-20 -43 -41 -143l-92 -428q-21 -96 -21 -128q0 -5 1 -11q-65 -4 -132 -19l-9 18l15 12q13 10 28 76l83 359q-159 -211 -262 -211q-22 0 -36.5 21t-14.5 52q0 61 22.5 147t48.5 125q29 42 133 108q34 21 51 27t45 6q63 0 116 -26l47 26zM382 396q-46 21 -84 21
q-51 0 -75 -38q-24 -40 -50.5 -136t-26.5 -145q0 -33 22 -33q37 0 111 89q71 87 95 203z" />
    <glyph glyph-name="r" unicode="r" horiz-adv-x="389" 
d="M391 326l-12 -6q-28 19 -52 19q-67 0 -123 -151q-22 -61 -41 -186q-74 -8 -108 -19l-11 12q19 57 27 92l24 107q26 115 26 160q0 16 -12 16t-42 -20l-34 -24l-13 26l81 64q68 53 108 53q25 0 25 -32q0 -15 -15 -78q-14 -60 -32 -140q58 118 79 155t41 58q36 37 77 37
q12 0 27 -6q-19 -82 -20 -137z" />
    <glyph glyph-name="s" unicode="s" horiz-adv-x="444" 
d="M394 160q0 -52 -49 -97q-87 -80 -183 -80q-51 0 -137 27q16 76 21 131h30v-47q53 -56 130 -56q40 0 64 19.5t24 52.5q0 54 -68 67l-44 9q-114 24 -114 112q0 34 14.5 58t48.5 49q50 36 83.5 50t69.5 14q64 0 122 -31l-6 -33q-11 -59 -11 -83h-30l-6 48q-54 44 -110 44
q-37 0 -59.5 -20t-22.5 -53q0 -26 16.5 -39.5t59.5 -23.5l59 -13q46 -10 72 -38t26 -67z" />
    <glyph glyph-name="t" unicode="t" horiz-adv-x="389" 
d="M409 452l-14 -56q-40 5 -92 5h-47l-51 -237q-9 -44 -9 -72q0 -16 5 -22t19 -6q25 0 54 21l56 40l13 -26l-77 -57q-81 -59 -133 -59q-54 0 -54 60q0 20 10 65l62 293h-109l7 27l115 32q16 89 16 122v16q30 4 57 14l66 24l10 -12l-31 -116l-13 -56l134 5z" />
    <glyph glyph-name="u" unicode="u" 
d="M521 88q-33 -25 -35 -26q-105 -79 -140 -79q-15 0 -24.5 12t-9.5 31q0 23 16 81l32 117q-74 -117 -142 -179t-121 -62q-20 0 -32 16t-12 41t13 74q5 19 21 79q34 129 34 161q0 16 -17 16t-33 -10l-36 -21l-13 26l79 54q74 50 116 50q27 0 27 -35q0 -32 -29 -147l-35 -137
q-10 -42 -10 -66q0 -13 16 -13q22 0 58 36.5t73 94.5q77 125 80 245q46 -1 110 18l9 -11l-42 -141l-40 -155q-14 -46 -14 -72q0 -12 14 -12q24 0 55 25l22 17z" />
    <glyph glyph-name="v" unicode="v" 
d="M513 370q0 -68 -41 -155.5t-104 -151.5q-77 -80 -163 -80q-56 0 -87 37t-31 103q0 63 28 116t98 123l41 41q-47 -11 -137 -11q-39 0 -42 -8l-28 -60h-28l41 132q34 6 51 5q6 0 33.5 -2t55 -3t46.5 -1q43 0 64 14l14 -19q-45 -53 -68 -91.5t-39 -89.5q-20 -60 -20 -122
q0 -101 66 -101q64 0 115 89q25 45 41.5 101t16.5 98q0 24 -11 39.5t-28 15.5q-23 0 -36 -12l-10 21q22 16 66 67q16 4 26 4q28 0 49 -29.5t21 -69.5z" />
    <glyph glyph-name="w" unicode="w" horiz-adv-x="833" 
d="M802 371q0 -68 -41 -154.5t-104 -151.5q-80 -82 -164 -82q-43 0 -68.5 29t-25.5 78q0 30 9 87q-32 -62 -60 -97.5t-66 -62.5q-47 -34 -90 -34q-46 0 -73.5 37t-27.5 100t28.5 116t101.5 126l41 41q-47 -11 -137 -11q-39 0 -42 -8l-28 -60h-28l41 132q34 6 51 5
q6 0 33.5 -2t55 -3t46.5 -1q43 0 64 14l14 -19q-45 -53 -68 -91t-39 -90q-20 -60 -20 -123q0 -46 13 -73t35 -27q42 0 90.5 68.5t67.5 154.5l24 109q7 35 10 64q56 7 107 27l12 -9q-68 -243 -68 -333q0 -36 16 -58.5t41 -22.5q60 0 112 91q26 45 43 101.5t17 96.5
q0 25 -11.5 39.5t-30.5 14.5q-18 0 -36 -8l-12 23q43 29 71 61q16 4 26 4q28 0 49 -29.5t21 -68.5z" />
    <glyph glyph-name="x" unicode="x" horiz-adv-x="500" 
d="M464 86l-18 -16q-97 -87 -143 -87q-30 0 -49 27q-19 24 -30 92l-10 58l-85 -114q-47 -63 -94 -63q-16 0 -43 14q12 52 16 101l24 2l6 -31q17 -6 28 -6q45 0 88 61l52 73l-16 88q-8 46 -24 72.5t-35 26.5q-18 0 -39.5 -14.5t-32.5 -34.5l-23 13q20 26 49 81q2 4 3.5 7.5
t3 6t3.5 6.5q51 20 76 20q50 0 77 -36q22 -29 36 -111l4 -23l63 87q60 83 110 83q19 0 39 -10q-14 -28 -23 -106l-21 -5l-9 28q-13 5 -21 5q-18 0 -44 -19t-48 -50l-38 -51l11 -64q14 -78 32 -113q10 -20 32 -20q13 0 47 24l30 21z" />
    <glyph glyph-name="y" unicode="y" 
d="M541 453q-27 -59 -84 -268q-40 -146 -59.5 -197.5t-56.5 -109.5q-43 -69 -103 -109t-119 -40q-57 0 -83 44q-11 19 -15 53l62 40l18 -6q-1 -7 -1 -19q0 -31 16.5 -48.5t45.5 -17.5q49 0 86 55.5t66 173.5l41 166q-29 -51 -49.5 -78t-50.5 -53q-64 -56 -108 -56
q-20 0 -33.5 25t-13.5 62q0 24 6 85l19 182q1 6 1 14q0 19 -18 19q-29 0 -81 -41l-14 28l80 62q65 50 103 50q18 0 28.5 -17t10.5 -46q0 -33 -5 -80l-19 -163q-4 -33 -4 -55q0 -41 17 -41q22 0 56.5 38t66.5 97q31 58 50.5 125.5t21.5 119.5q46 -1 110 18z" />
    <glyph glyph-name="z" unicode="z" horiz-adv-x="500" 
d="M451 138q-25 -68 -29 -105q-5 -31 -15.5 -40.5t-41.5 -9.5q-63 0 -168 29q-34 10 -73 10q-43 0 -77 -27l-16 30l346 354q-49 -23 -89 -23q-8 0 -140 11q-3 0 -10 1t-12 1l-23 -52l-29 3l45 139q35 10 57 10q23 0 95 -19q69 -18 112 -18q42 0 58 24l9 13l20 -8l-14 -50
l-328 -337q65 23 98 23q46 0 102 -10q40 -7 54 -6q6 0 13 1l28 58z" />
    <glyph glyph-name="braceleft" unicode="{" horiz-adv-x="333" 
d="M191 -105h-74q-28 0 -52.5 26t-24.5 56q0 26 7 62l28 159q4 28 4 40q0 28 -13 42t-48 25v2q43 7 64 30.5t30 73.5l31 180q12 67 44 95q39 34 79 34h68v-2q-44 -13 -64 -36.5t-28 -72.5l-31 -180q-11 -60 -34 -86.5t-73 -36.5q37 -10 52.5 -28t15.5 -50q0 -26 -6 -57
l-29 -168q-3 -18 -3 -34q0 -31 13 -47t44 -25v-2z" />
    <glyph glyph-name="bar" unicode="|" horiz-adv-x="606" 
d="M351 -102h-86v825h86v-825z" />
    <glyph glyph-name="braceright" unicode="}" horiz-adv-x="333" 
d="M315 308q-43 -7 -64.5 -30.5t-29.5 -73.5l-31 -180q-12 -67 -44 -95q-39 -34 -79 -34h-68v2q44 13 64 36.5t28 72.5l31 180q11 60 34 86.5t73 36.5q-37 10 -52.5 28t-15.5 50q0 24 6 57l29 168q3 16 3 34q0 31 -13 47t-44 25v2h74q29 0 53 -26.5t24 -58.5q0 -27 -7 -59
l-28 -159q-4 -28 -4 -40q0 -28 13 -42t48 -25v-2z" />
    <glyph glyph-name="asciitilde" unicode="~" horiz-adv-x="606" 
d="M555 287q-35 -60 -68.5 -86.5t-73.5 -26.5q-33 0 -109 33q-83 36 -109 36q-24 0 -42 -14.5t-41 -51.5l-61 39q35 60 68.5 86.5t73.5 26.5q33 0 109 -33q83 -36 109 -36q24 0 42 14.5t41 51.5z" />
    <glyph glyph-name="uni00A0" unicode="&#xa0;" horiz-adv-x="333" 
 />
    <glyph glyph-name="exclamdown" unicode="&#xa1;" horiz-adv-x="333" 
d="M243 -214h-13l-127 -29l-12 9l110 346q18 60 33 122l39 24l13 -9l-43 -430v-33zM355 403q0 -37 -22 -61.5t-55 -24.5q-28 0 -45 17.5t-17 46.5q0 38 21 63t53 25q29 0 47 -18t18 -48z" />
    <glyph glyph-name="cent" unicode="&#xa2;" horiz-adv-x="500" 
d="M421 90l-60 -42q-72 -51 -165 -65l-33 -88h-40l34 90q-59 17 -82 48.5t-23 95.5q0 73 27 146t64 99l78 56q47 33 119 39l29 78h42l-30 -82q45 -5 75 -23l-36 -139l-29 2v62q0 13 -38 27l-131 -344q57 1 99 16.5t89 54.5zM317 405q-39 -1 -57.5 -7.5t-32.5 -24.5
q-24 -32 -42 -98t-18 -124q0 -42 23 -80z" />
    <glyph glyph-name="sterling" unicode="&#xa3;" horiz-adv-x="500" 
d="M496 192l-47 -174q-6 -22 -49 -22q-33 0 -58.5 4.5t-145.5 30.5q-50 11 -70 11q-22 0 -55 -29q-21 -18 -30 -18h-11q-9 28 -9 59q29 14 43.5 25.5t27 26.5t18 44t9.5 64t8 101h-88l6 40h85q12 101 33.5 154.5t65.5 91.5q41 34 92 58t82 24q42 0 98 -25l-34 -129l-23 6v39
q0 24 -19.5 38.5t-51.5 14.5q-76 0 -92 -83l-37 -189h149l-6 -40h-151q-24 -90 -44.5 -131t-62.5 -85q51 13 113 13q37 0 76 -5q38 -4 64 -4q48 0 60 31l23 58h31z" />
    <glyph glyph-name="currency" unicode="&#xa4;" horiz-adv-x="500" 
d="M467 141l-45 -45l-47 49q-53 -43 -125 -43q-73 0 -125 42l-48 -48l-45 45l49 49q-42 53 -42 123q0 74 42 122l-49 49l47 47l48 -48q54 41 124 41q67 0 120 -40l48 49l49 -49l-46 -48q39 -51 39 -122q0 -69 -40 -125zM384 314q0 55 -39.5 94t-95.5 39q-54 0 -93.5 -40
t-39.5 -95t40 -94.5t95 -39.5t94 40t39 96z" />
    <glyph glyph-name="yen" unicode="&#xa5;" horiz-adv-x="500" 
d="M533 593q-46 -9 -97.5 -75t-91.5 -168h87l-7 -40h-99l-25 -75h119l-7 -40h-119l-15 -95q-2 -10 -2 -33q0 -31 31 -32l50 -3l-3 -35q-84 3 -137 3l-135 -3l3 35l42 3q21 2 29 17t18 80l10 63h-116l8 40h115q-1 25 -9 75h-102l8 40h83l-27 106q-16 62 -41.5 101.5
t-50.5 39.5q-24 0 -39 -10l-2 33q31 25 76 70q15 5 23 5q53 0 87 -62q34 -63 52 -167l30 -170q59 168 132.5 277.5t126.5 107.5z" />
    <glyph glyph-name="brokenbar" unicode="&#xa6;" horiz-adv-x="606" 
d="M351 393h-86v330h86v-330zM351 -102h-86v330h86v-330z" />
    <glyph glyph-name="section" unicode="&#xa7;" 
d="M486 291q0 -88 -94 -153q46 -40 46 -94q0 -73 -78 -140q-64 -55 -153 -55q-87 0 -160 64l29 135h33l-5 -85q57 -70 126 -70q48 0 86 32.5t38 73.5q0 22 -16 45t-40 37l-135 78q-82 47 -82 127q0 43 21 75.5t75 73.5q-41 38 -41 77q0 38 24 79.5t61 67.5q54 36 115 36
q81 0 161 -49l-27 -128h-34l3 73q-65 55 -128 55q-42 0 -69 -21.5t-27 -55.5q0 -46 71 -88l117 -69q83 -49 83 -121zM411 243q0 36 -32 66q-14 10 -52 33l-116 67q-47 -43 -47 -84q0 -56 74 -98l117 -66q23 8 39.5 32t16.5 50z" />
    <glyph glyph-name="dieresis" unicode="&#xa8;" horiz-adv-x="333" 
d="M437 615q0 -31 -19.5 -51t-49.5 -20q-25 0 -39.5 15.5t-14.5 41.5q0 31 19.5 52.5t47.5 21.5q25 0 40.5 -17t15.5 -43zM224 615q0 -31 -19.5 -51t-49.5 -20q-25 0 -39.5 15.5t-14.5 41.5q0 31 19.5 52.5t47.5 21.5q25 0 40.5 -17t15.5 -43z" />
    <glyph glyph-name="copyright" unicode="&#xa9;" horiz-adv-x="747" 
d="M733 337q0 -146 -104 -249.5t-250 -103.5t-249.5 103.5t-103.5 249.5t103.5 250t249.5 104t250 -104t104 -250zM685 337q0 127 -89.5 216.5t-216.5 89.5t-216 -89.5t-89 -216.5t89 -216t216 -89t216.5 89t89.5 216zM563 503q-18 -59 -22 -93h-26l2 48q1 13 -29 22t-69 9
q-62 0 -97 -50.5t-33 -136.5q3 -114 106 -114q51 0 111 33l15 8l9 -7l-9 -24q-86 -50 -160 -50q-73 0 -116 32q-48 36 -49 110q-1 99 73 167.5t180 68.5q58 0 114 -23z" />
    <glyph glyph-name="ordfeminine" unicode="&#xaa;" horiz-adv-x="333" 
d="M355 451q-72 -60 -113 -60q-20 0 -20 27q0 19 4 33l26 97q-93 -157 -172 -157q-15 0 -24 14t-9 38q0 39 17.5 95.5t35.5 74.5q20 20 86 58q23 12 53 12q28 0 68 -16l29 17l10 -8l-9 -25q-6 -17 -11 -38q-24 -101 -31 -129v-1v-1q-5 -20 -5 -28l9 -13q12 0 36 18l13 10z
M263 639q-32 13 -52 13q-19 0 -32 -11t-24 -37t-23 -74t-12 -67q0 -22 11 -22q14 0 39 24t46 57q36 55 47 117zM330 312h-309l8 48h310z" />
    <glyph glyph-name="guillemotleft" unicode="&#xab;" horiz-adv-x="500" 
d="M228 57l-25 -14l-168 192v21q82 73 210 190l22 -20l-126 -183zM419 57l-25 -14l-168 192v21q82 73 210 190l22 -20l-126 -183z" />
    <glyph glyph-name="logicalnot" unicode="&#xac;" horiz-adv-x="606" 
d="M565 378v-213h-86v127h-428v86h514z" />
    <glyph glyph-name="uni00AD" unicode="&#xad;" horiz-adv-x="389" 
d="M362 288q-16 -24 -30 -90q-29 1 -68 3t-68 2q-96 0 -153 -4l-6 9q22 56 29 92q59 -6 146 -6l143 3z" />
    <glyph glyph-name="registered" unicode="&#xae;" horiz-adv-x="747" 
d="M733 337q0 -146 -104 -249.5t-250 -103.5t-249.5 103.5t-103.5 249.5t103.5 250t249.5 104t250 -104t104 -250zM685 337q0 127 -89.5 216.5t-216.5 89.5t-216 -89.5t-89 -216.5t89 -216t216 -89t216.5 89t89.5 216zM580 155q-40 2 -59 2q-17 0 -53 -2l-117 187l2 15h34
q32 0 57 24t24 55q0 26 -21 40t-52 14q-19 0 -28 -1l-48 -277q-2 -10 -1 -17q0 -13 15 -13l35 -2l-3 -25q-64 2 -95 2q-30 0 -92 -2l3 25l29 2q14 0 23 47l42 241q1 4 1 10q0 14 -21 14l-27 2l4 24q50 -3 99 -3q17 0 52 1.5t53 1.5q51 0 86 -20t36 -59q1 -22 -11 -42.5
t-33 -32.5q-27 -16 -70 -23l90 -137q17 -24 24 -25h2l19 -4z" />
    <glyph glyph-name="macron" unicode="&#xaf;" horiz-adv-x="333" 
d="M445 644l-16 -70h-326l17 70h325z" />
    <glyph glyph-name="degree" unicode="&#xb0;" horiz-adv-x="400" 
d="M350 533q0 -62 -44 -106t-106 -44t-106 44t-44 106q0 63 44 106.5t108 43.5q60 0 104 -44.5t44 -105.5zM289 533q0 36 -26.5 62.5t-62.5 26.5q-37 0 -63 -25.5t-26 -62.5t26 -63.5t63 -26.5t63 26t26 63z" />
    <glyph glyph-name="plusminus" unicode="&#xb1;" horiz-adv-x="606" 
d="M565 293h-214v-130h-86v130h-214v86h214v214h86v-214h214v-86zM565 0h-514v86h514v-86z" />
    <glyph glyph-name="two.superior" unicode="&#xb2;" horiz-adv-x="300" 
d="M321 333q-13 -21 -22 -62q-84 2 -137 2l-136 -2v23l85 81q120 114 120 192q0 24 -17.5 40t-43.5 16q-40 0 -61 -35l-18 -30l-30 9l40 85q51 31 98 31q53 0 86 -28.5t33 -74.5q0 -63 -63 -123l-128 -121h135q27 0 53 5z" />
    <glyph glyph-name="three.superior" unicode="&#xb3;" horiz-adv-x="300" 
d="M309 406q0 -60 -52 -101.5t-128 -41.5q-49 0 -106 25l19 96h28q0 -3 -1 -7q-2 -16 -2 -24q0 -27 18 -43.5t47 -16.5q37 0 61.5 30t24.5 75q0 73 -62 73q-16 0 -49 -9l-9 7l13 37q7 -2 22 -2q38 0 58 12q38 22 38 66q0 23 -15.5 36t-42.5 13q-26 0 -43.5 -13.5
t-33.5 -45.5l-28 14l41 69q41 28 95 28q50 0 79 -22t29 -59q0 -67 -105 -105q104 -13 104 -91z" />
    <glyph glyph-name="acute" unicode="&#xb4;" horiz-adv-x="333" 
d="M389 654q0 -15 -7.5 -25t-28.5 -22l-154 -89h-49l141 151q29 30 51 30q20 0 33.5 -13t13.5 -32z" />
    <glyph glyph-name="mu" unicode="&#xb5;" 
d="M521 88l-35 -26q-104 -79 -140 -79q-15 0 -24.5 12t-9.5 31q0 24 16 81l32 117q-70 -115 -132 -171.5t-132 -70.5l-16 -166q-3 -29 -86 -48l-9 9l87 359q0 1 3.5 15.5t7.5 26.5q39 150 39 175q0 9 -4.5 16t-9.5 7q-4 0 -36 -16l-36 -21l-13 26l79 54q73 50 116 50
q27 0 27 -35q0 -32 -29 -147l-36 -137q-10 -37 -10 -66q0 -13 16 -13q22 0 58.5 36.5t72.5 94.5q78 124 81 245q46 -1 110 18l9 -11q-97 -320 -97 -366q0 -14 14 -14q22 0 55 25l22 17z" />
    <glyph glyph-name="paragraph" unicode="&#xb6;" 
d="M492 -204l-189 3l-223 -3l3 35h33q39 0 52 19q11 17 24 91l52 298q-68 9 -114 40q-55 37 -85.5 96.5t-30.5 129.5q0 87 47 132t137 44l53 -1l149 -2h19l210 3l-7 -36l-64 -3q-14 -1 -20 -8t-10 -28l-126 -709v-2l-1 -3q-2 -20 -2 -25q0 -36 67 -36h29zM457 634h-68
l-140 -793h68zM251 278l63 364q-31 5 -53 5q-104 0 -104 -167q0 -79 25 -133t69 -69z" />
    <glyph glyph-name="periodcentered" unicode="&#xb7;" horiz-adv-x="250" 
d="M208 250q0 -32 -23 -55t-55 -23t-55 23t-23 55t23 55t55 23t55 -23t23 -55z" />
    <glyph glyph-name="cedilla" unicode="&#xb8;" horiz-adv-x="333" 
d="M248 -131q0 -38 -35 -62.5t-88 -24.5q-54 0 -113 25l22 33q38 -17 67 -17q26 0 40.5 10.5t14.5 29.5q0 37 -48 37q-13 0 -29 -4l-13 12l68 97h44l-46 -67q15 3 26 3q40 0 65 -20t25 -52z" />
    <glyph glyph-name="one.superior" unicode="&#xb9;" horiz-adv-x="300" 
d="M298 299l-6 -28q-76 2 -125 2l-126 -2l6 28l27 2q31 2 39 7.5t16 27.5l52 276l-113 -47l-9 13l11 38l130 38q29 9 67 26l15 -5l-8 -38l-56 -296l-3 -18q2 -14 8 -17.5t29 -4.5z" />
    <glyph glyph-name="ordmasculine" unicode="&#xba;" horiz-adv-x="333" 
d="M346 592q0 -42 -19 -93q-18 -46 -70 -77t-111 -31q-95 0 -95 91q0 66 32 118q20 33 69.5 58t94.5 25q47 0 73 -24t26 -67zM272 595q0 28 -14.5 45t-37.5 17q-39 0 -63 -42q-13 -22 -22.5 -61.5t-9.5 -73.5q0 -29 14 -46t38 -17q44 0 70 55q25 54 25 123zM300 312h-282
l9 48h281z" />
    <glyph glyph-name="guillemotright" unicode="&#xbb;" horiz-adv-x="500" 
d="M267 230q-82 -73 -210 -190l-22 20l126 183l-87 186l25 14l168 -192v-21zM458 230q-82 -73 -210 -190l-22 20l126 183l-87 186l25 14l168 -192v-21z" />
    <glyph glyph-name="onequarter" unicode="&#xbc;" horiz-adv-x="750" 
d="M275 299l-6 -28q-76 2 -125 2l-126 -2l6 28l27 2q31 2 39 7.5t16 27.5l52 276l-113 -47l-9 13l11 38l130 38q29 9 67 26l15 -5q-3 -11 -8 -38l-56 -296l-3 -18q3 -14 9 -17.5t28 -4.5zM672 683l-439 -683h-69l439 683h69zM716 26l-5 -28q-71 2 -116 2l-116 -2l6 28l37 2
q25 2 32 7.5t14 29.5l7 39h-159v24l206 263q38 6 80 19l10 -6l-50 -251h68l2 -7l-12 -42h-67l-7 -40q-1 -4 -1 -10q0 -25 22 -26zM625 355l-154 -202h114z" />
    <glyph glyph-name="onehalf" unicode="&#xbd;" horiz-adv-x="750" 
d="M652 683l-439 -683h-69l439 683h69zM271 299l-6 -28q-76 2 -125 2l-126 -2l6 28l27 2q31 2 39 7.5t16 27.5l52 276l-113 -47l-9 13l11 38l130 38q29 9 67 26l15 -5l-4 -19q-1 -2 -4 -19l-56 -296l-3 -18q2 -14 8 -17.5t29 -4.5zM736 60q-13 -21 -22 -62q-82 2 -134 2
l-139 -2v23l85 81q120 114 120 192q0 24 -17.5 40t-43.5 16q-40 0 -61 -35l-18 -30l-30 9l40 85q51 31 98 31q53 0 86 -28.5t33 -74.5q0 -63 -63 -123l-128 -121h135q27 0 53 5z" />
    <glyph glyph-name="threequarters" unicode="&#xbe;" horiz-adv-x="750" 
d="M304 406q0 -60 -52 -101.5t-128 -41.5q-49 0 -106 25l19 96h28q0 -3 -1 -7q-2 -16 -2 -24q0 -27 18 -43.5t47 -16.5q37 0 61.5 30t24.5 75q0 73 -62 73q-16 0 -49 -9l-9 7l13 37q7 -2 22 -2q38 0 58 12q38 22 38 66q0 23 -15.5 36t-42.5 13q-26 0 -43.5 -13.5
t-33.5 -45.5l-28 14l41 69q41 28 95 28q50 0 79 -22t29 -59q0 -67 -105 -105q104 -13 104 -91zM672 683l-439 -683h-69l439 683h69zM716 26l-5 -28q-71 2 -116 2l-116 -2l6 28l37 2q25 2 32 7.5t14 29.5l7 39h-159v24l206 263q38 6 80 19l10 -6l-50 -251h68l2 -7l-12 -42
h-67l-7 -40q-1 -4 -1 -10q0 -25 22 -26zM625 355l-154 -202h114z" />
    <glyph glyph-name="questiondown" unicode="&#xbf;" horiz-adv-x="444" 
d="M433 -74q-28 -62 -43 -126q-45 -25 -74 -34t-66 -9q-80 0 -128 41t-48 111q0 81 74 135l103 76q42 31 56 47.5t14 35.5q0 21 -20 42l22 18q42 -35 42 -77q0 -45 -51 -99l-63 -66q-51 -54 -51 -105q0 -37 24.5 -58t66.5 -21q28 0 56 14q25 12 46 62l7 17zM427 403
q0 -37 -22 -61.5t-55 -24.5q-28 0 -45 17.5t-17 46.5q0 38 21 63t53 25q29 0 47 -18t18 -48z" />
    <glyph glyph-name="Agrave" unicode="&#xc0;" horiz-adv-x="722" 
d="M685 -3q-89 3 -146 3l-155 -3v35l42 3q45 3 42 31l-25 198q-12 0 -33 1t-39.5 1.5t-37.5 0.5l-111 -3l-86 -152q-19 -34 -19 -57q0 -17 43 -20l44 -3l-5 -35q-76 3 -124 3l-110 -3l5 35l34 3q28 3 47 35l363 613h96q2 -11 4.5 -35t3.5 -36l76 -522q7 -51 54 -55l37 -3
v-35zM438 307l-38 266l-155 -266h193zM592 747h-53l-141 72q-33 16 -25 39q5 15 24 25.5t39 10.5q28 -2 48 -24z" />
    <glyph glyph-name="Aacute" unicode="&#xc1;" horiz-adv-x="722" 
d="M685 -3q-89 3 -146 3l-155 -3v35l42 3q45 3 42 31l-25 198q-12 0 -33 1t-39.5 1.5t-37.5 0.5l-111 -3l-86 -152q-19 -34 -19 -57q0 -17 43 -20l44 -3l-5 -35q-76 3 -124 3l-110 -3l5 35l34 3q28 3 47 35l363 613h96q2 -11 4.5 -35t3.5 -36l76 -522q7 -51 54 -55l37 -3
v-35zM438 307l-38 266l-155 -266h193zM611 858q0 -23 -38 -39l-167 -72h-53l152 123q29 22 57 24q20 0 34.5 -10.5t14.5 -25.5z" />
    <glyph glyph-name="Acircumflex" unicode="&#xc2;" horiz-adv-x="722" 
d="M685 -3q-89 3 -146 3l-155 -3v35l42 3q45 3 42 31l-25 198q-12 0 -33 1t-39.5 1.5t-37.5 0.5l-111 -3l-86 -152q-19 -34 -19 -57q0 -17 43 -20l44 -3l-5 -35q-76 3 -124 3l-110 -3l5 35l34 3q28 3 47 35l363 613h96q2 -11 4.5 -35t3.5 -36l76 -522q7 -51 54 -55l37 -3
v-35zM438 307l-38 266l-155 -266h193zM637 751h-55l-95 77l-142 -77h-61l173 141h87z" />
    <glyph glyph-name="Atilde" unicode="&#xc3;" horiz-adv-x="722" 
d="M685 -3q-89 3 -146 3l-155 -3v35l42 3q45 3 42 31l-25 198q-12 0 -33 1t-39.5 1.5t-37.5 0.5l-111 -3l-86 -152q-19 -34 -19 -57q0 -17 43 -20l44 -3l-5 -35q-76 3 -124 3l-110 -3l5 35l34 3q28 3 47 35l363 613h96q2 -11 4.5 -35t3.5 -36l76 -522q7 -51 54 -55l37 -3
v-35zM438 307l-38 266l-155 -266h193zM665 881q-31 -119 -115 -119q-26 0 -82 22q-54 22 -76 22q-15 0 -25 -9.5t-21 -34.5h-40q27 119 118 119q34 0 76 -19q51 -23 75 -23q30 0 49 42h41z" />
    <glyph glyph-name="Adieresis" unicode="&#xc4;" horiz-adv-x="722" 
d="M685 -3q-89 3 -146 3l-155 -3v35l42 3q45 3 42 31l-25 198q-12 0 -33 1t-39.5 1.5t-37.5 0.5l-111 -3l-86 -152q-19 -34 -19 -57q0 -17 43 -20l44 -3l-5 -35q-76 3 -124 3l-110 -3l5 35l34 3q28 3 47 35l363 613h96q2 -11 4.5 -35t3.5 -36l76 -522q7 -51 54 -55l37 -3
v-35zM438 307l-38 266l-155 -266h193zM649 827q0 -31 -19.5 -51t-49.5 -20q-25 0 -39.5 15.5t-14.5 41.5q0 31 19.5 52.5t47.5 21.5q25 0 40.5 -17t15.5 -43zM436 827q0 -31 -19.5 -51t-49.5 -20q-25 0 -39.5 15.5t-14.5 41.5q0 31 19.5 52.5t47.5 21.5q25 0 40.5 -17
t15.5 -43z" />
    <glyph glyph-name="Aring" unicode="&#xc5;" horiz-adv-x="722" 
d="M685 -3q-89 3 -146 3l-155 -3v35l42 3q45 3 42 31l-25 198q-12 0 -33 1t-39.5 1.5t-37.5 0.5l-111 -3l-86 -152q-19 -34 -19 -57q0 -17 43 -20l44 -3l-5 -35q-76 3 -124 3l-110 -3l5 35l34 3q28 3 47 35l363 613h96q2 -11 4.5 -35t3.5 -36l76 -522q7 -51 54 -55l37 -3
v-35zM438 307l-38 266l-155 -266h193zM589 838q0 -41 -29.5 -70.5t-70.5 -29.5t-70.5 29.5t-29.5 71.5q0 41 29.5 70t72.5 29q40 0 69 -29.5t29 -70.5zM539 838q0 20 -14.5 35t-34.5 15q-22 0 -36.5 -14.5t-14.5 -35.5t14.5 -35.5t35.5 -14.5t35.5 14.5t14.5 35.5z" />
    <glyph glyph-name="AE" unicode="&#xc6;" horiz-adv-x="944" 
d="M889 168q-13 -55 -34 -168l-172 -4q-36 0 -98.5 2.5t-104.5 1.5l-132 -3l6 32l40 3q15 1 22.5 13t13.5 46l30 171l-37 1l-63 2h-10l-111 -3l-100 -170q-15 -26 -15 -35q0 -13 8 -18t28 -7l50 -3l-5 -32q-14 0 -57 2t-70 2h-16q-2 -1 -91 -4l5 32l26 5q43 9 94 88l291 451
q27 41 27 51q0 20 -33 22l-70 3l5 32l256 -3q31 0 79.5 1.5t79.5 1.5q53 0 186 -3l10 -6l-25 -152h-32v53q0 42 -14 46q-20 5 -85 10t-85 4l-39 -3l-45 -252h86l140 3l5 -9l-14 -47l-170 5h-55l-47 -274q30 -6 63 -6l67 2q98 3 121 9.5t33 36.5l22 70h36zM517 589q4 19 4 36
q0 14 -13 14q-28 0 -72 -69l-166 -262h197z" />
    <glyph glyph-name="Ccedilla" unicode="&#xc7;" horiz-adv-x="685" 
d="M629 116l-13 -39q-145 -94 -277 -94l-31 -45q15 3 26 3q40 0 65 -20t25 -52q0 -38 -34.5 -62.5t-88.5 -24.5t-113 25l22 33q38 -17 67 -17q26 0 40.5 10.5t14.5 29.5q0 37 -48 37q-13 0 -29 -4l-13 12l54 77q-112 11 -169.5 78.5t-57.5 186.5q0 185 127 315t308 130
q98 0 191 -43q-32 -114 -38 -168h-35l5 88q2 25 -51.5 44.5t-122.5 19.5q-113 0 -179.5 -98.5t-66.5 -265.5q0 -115 47 -169.5t145 -54.5q90 0 198 64l22 13z" />
    <glyph glyph-name="Egrave" unicode="&#xc8;" horiz-adv-x="611" 
d="M556 168q-14 -59 -34 -168l-167 -3q-35 0 -97.5 2t-105.5 1l-141 -3l5 32l28 3q23 2 32.5 14t15.5 46l87 502q2 14 2 21q0 16 -10 23t-36 8l-46 3l5 32q96 -3 157 -3q35 0 91 1.5t92 1.5l162 -3l10 -6l-25 -152h-32v53q0 42 -12 47q-12 4 -67.5 9t-88.5 5q-18 0 -27 -1
l-39 -3l-45 -252h86l140 3l5 -9l-14 -47l-170 5h-55l-48 -274q38 -8 98 -6q13 0 45 -1t48.5 0t39 5t35 15t18.5 29l22 70h36zM520 747h-53l-141 72q-33 16 -25 39q5 15 24 25.5t39 10.5q28 -2 48 -24z" />
    <glyph glyph-name="Eacute" unicode="&#xc9;" horiz-adv-x="611" 
d="M556 168q-14 -59 -34 -168l-167 -3q-35 0 -97.5 2t-105.5 1l-141 -3l5 32l28 3q23 2 32.5 14t15.5 46l87 502q2 14 2 21q0 16 -10 23t-36 8l-46 3l5 32q96 -3 157 -3q35 0 91 1.5t92 1.5l162 -3l10 -6l-25 -152h-32v53q0 42 -12 47q-12 4 -67.5 9t-88.5 5q-18 0 -27 -1
l-39 -3l-45 -252h86l140 3l5 -9l-14 -47l-170 5h-55l-48 -274q38 -8 98 -6q13 0 45 -1t48.5 0t39 5t35 15t18.5 29l22 70h36zM539 858q0 -23 -38 -39l-167 -72h-53l152 123q29 22 57 24q20 0 34.5 -10.5t14.5 -25.5z" />
    <glyph glyph-name="Ecircumflex" unicode="&#xca;" horiz-adv-x="611" 
d="M556 168q-14 -59 -34 -168l-167 -3q-35 0 -97.5 2t-105.5 1l-141 -3l5 32l28 3q23 2 32.5 14t15.5 46l87 502q2 14 2 21q0 16 -10 23t-36 8l-46 3l5 32q96 -3 157 -3q35 0 91 1.5t92 1.5l162 -3l10 -6l-25 -152h-32v53q0 42 -12 47q-12 4 -67.5 9t-88.5 5q-18 0 -27 -1
l-39 -3l-45 -252h86l140 3l5 -9l-14 -47l-170 5h-55l-48 -274q38 -8 98 -6q13 0 45 -1t48.5 0t39 5t35 15t18.5 29l22 70h36zM565 751h-55l-95 77l-142 -77h-61l173 141h87z" />
    <glyph glyph-name="Edieresis" unicode="&#xcb;" horiz-adv-x="611" 
d="M556 168q-14 -59 -34 -168l-167 -3q-35 0 -97.5 2t-105.5 1l-141 -3l5 32l28 3q23 2 32.5 14t15.5 46l87 502q2 14 2 21q0 16 -10 23t-36 8l-46 3l5 32q96 -3 157 -3q35 0 91 1.5t92 1.5l162 -3l10 -6l-25 -152h-32v53q0 42 -12 47q-12 4 -67.5 9t-88.5 5q-18 0 -27 -1
l-39 -3l-45 -252h86l140 3l5 -9l-14 -47l-170 5h-55l-48 -274q38 -8 98 -6q13 0 45 -1t48.5 0t39 5t35 15t18.5 29l22 70h36zM577 827q0 -31 -19.5 -51t-49.5 -20q-25 0 -39.5 15.5t-14.5 41.5q0 31 19.5 52.5t47.5 21.5q25 0 40.5 -17t15.5 -43zM364 827q0 -31 -19.5 -51
t-49.5 -20q-25 0 -39.5 15.5t-14.5 41.5q0 31 19.5 52.5t47.5 21.5q25 0 40.5 -17t15.5 -43z" />
    <glyph glyph-name="Igrave" unicode="&#xcc;" horiz-adv-x="389" 
d="M319 -3q-99 3 -163 3l-157 -3l4 35l49 3q25 2 34 18t20 79l72 409q9 54 9 72q0 27 -38 30l-52 3l4 35q93 -3 152 -3l159 3l-4 -35l-45 -3q-25 -2 -33.5 -9.5t-12.5 -34.5l-87 -499q-3 -16 -3 -34q0 -16 8.5 -23t28.5 -8l59 -3zM398 747h-53l-141 72q-33 16 -25 39
q5 15 24 25.5t39 10.5q28 -2 48 -24z" />
    <glyph glyph-name="Iacute" unicode="&#xcd;" horiz-adv-x="389" 
d="M319 -3q-99 3 -163 3l-157 -3l4 35l49 3q25 2 34 18t20 79l72 409q9 54 9 72q0 27 -38 30l-52 3l4 35q93 -3 152 -3l159 3l-4 -35l-45 -3q-25 -2 -33.5 -9.5t-12.5 -34.5l-87 -499q-3 -16 -3 -34q0 -16 8.5 -23t28.5 -8l59 -3zM417 858q0 -23 -38 -39l-167 -72h-53
l152 123q29 22 57 24q20 0 34.5 -10.5t14.5 -25.5z" />
    <glyph glyph-name="Icircumflex" unicode="&#xce;" horiz-adv-x="389" 
d="M319 -3q-99 3 -163 3l-157 -3l4 35l49 3q25 2 34 18t20 79l72 409q9 54 9 72q0 27 -38 30l-52 3l4 35q93 -3 152 -3l159 3l-4 -35l-45 -3q-25 -2 -33.5 -9.5t-12.5 -34.5l-87 -499q-3 -16 -3 -34q0 -16 8.5 -23t28.5 -8l59 -3zM443 751h-55l-95 77l-142 -77h-61l173 141
h87z" />
    <glyph glyph-name="Idieresis" unicode="&#xcf;" horiz-adv-x="389" 
d="M319 -3q-99 3 -163 3l-157 -3l4 35l49 3q25 2 34 18t20 79l72 409q9 54 9 72q0 27 -38 30l-52 3l4 35q93 -3 152 -3l159 3l-4 -35l-45 -3q-25 -2 -33.5 -9.5t-12.5 -34.5l-87 -499q-3 -16 -3 -34q0 -16 8.5 -23t28.5 -8l59 -3zM455 827q0 -31 -19.5 -51t-49.5 -20
q-25 0 -39.5 15.5t-14.5 41.5q0 31 19.5 52.5t47.5 21.5q25 0 40.5 -17t15.5 -43zM242 827q0 -31 -19.5 -51t-49.5 -20q-25 0 -39.5 15.5t-14.5 41.5q0 31 19.5 52.5t47.5 21.5q25 0 40.5 -17t15.5 -43z" />
    <glyph glyph-name="Eth" unicode="&#xd0;" horiz-adv-x="778" 
d="M747 422q0 -92 -37 -177.5t-102 -144.5q-107 -99 -278 -103q-41 -1 -100 1t-89 2l-141 -3l5 32l28 3q23 2 32.5 14t15.5 46l43 250h-100l6 40h101l37 212q2 14 2 20q0 17 -10 24t-36 8l-46 3l5 32l160 -3q41 0 104 2t104 2q162 0 234 -81q62 -70 62 -179zM609 434
q0 129 -76 174q-57 32 -157 32q-16 0 -73 -5l-43 -253h182l-6 -40h-183l-50 -291q77 -11 111 -11q87 0 140.5 26t86.5 85q31 55 49.5 132t18.5 151z" />
    <glyph glyph-name="Ntilde" unicode="&#xd1;" horiz-adv-x="778" 
d="M829 681l-6 -32l-37 -3q-24 -3 -34 -10q-10 -9 -30 -108l-86 -428q-8 -36 -16 -103h-85l-310 537l-73 -396q-8 -43 -8 -62q0 -40 36 -41l51 -3l-5 -35q-68 3 -112 3l-116 -3l2 35l48 3q16 1 25 13t15 43q38 193 98 491q2 8 -9 23t-24 24q-24 15 -50 17l-39 3l3 32
q65 -3 107 -3l108 3l314 -539l74 400q6 38 6 70q0 31 -46 34l-42 3l5 32q72 -3 118 -3zM677 881q-31 -119 -115 -119q-26 0 -82 22q-54 22 -76 22q-15 0 -25 -9.5t-21 -34.5h-40q27 119 118 119q34 0 76 -19q51 -23 75 -23q30 0 49 42h41z" />
    <glyph glyph-name="Ograve" unicode="&#xd2;" horiz-adv-x="833" 
d="M794 414q0 -183 -123.5 -307t-305.5 -124q-137 0 -213 74.5t-76 210.5q0 187 117 307t300 120q145 0 228 -83q73 -73 73 -198zM656 435q0 217 -176 217q-127 0 -195 -115q-32 -53 -51.5 -135.5t-19.5 -162.5q0 -105 44 -159t130 -54q128 0 201 127q67 116 67 282z
M621 747h-53l-141 72q-33 16 -25 39q5 15 24 25.5t39 10.5q28 -2 48 -24z" />
    <glyph glyph-name="Oacute" unicode="&#xd3;" horiz-adv-x="833" 
d="M794 414q0 -183 -123.5 -307t-305.5 -124q-137 0 -213 74.5t-76 210.5q0 187 117 307t300 120q145 0 228 -83q73 -73 73 -198zM656 435q0 217 -176 217q-127 0 -195 -115q-32 -53 -51.5 -135.5t-19.5 -162.5q0 -105 44 -159t130 -54q128 0 201 127q67 116 67 282z
M640 858q0 -23 -38 -39l-167 -72h-53l152 123q29 22 57 24q20 0 34.5 -10.5t14.5 -25.5z" />
    <glyph glyph-name="Ocircumflex" unicode="&#xd4;" horiz-adv-x="833" 
d="M794 414q0 -183 -123.5 -307t-305.5 -124q-137 0 -213 74.5t-76 210.5q0 187 117 307t300 120q145 0 228 -83q73 -73 73 -198zM656 435q0 217 -176 217q-127 0 -195 -115q-32 -53 -51.5 -135.5t-19.5 -162.5q0 -105 44 -159t130 -54q128 0 201 127q67 116 67 282z
M666 751h-55l-95 77l-142 -77h-61l173 141h87z" />
    <glyph glyph-name="Otilde" unicode="&#xd5;" horiz-adv-x="833" 
d="M794 414q0 -183 -123.5 -307t-305.5 -124q-137 0 -213 74.5t-76 210.5q0 187 117 307t300 120q145 0 228 -83q73 -73 73 -198zM656 435q0 217 -176 217q-127 0 -195 -115q-32 -53 -51.5 -135.5t-19.5 -162.5q0 -105 44 -159t130 -54q128 0 201 127q67 116 67 282z
M694 881q-31 -119 -115 -119q-26 0 -82 22q-54 22 -76 22q-15 0 -25 -9.5t-21 -34.5h-40q27 119 118 119q34 0 76 -19q51 -23 75 -23q30 0 49 42h41z" />
    <glyph glyph-name="Odieresis" unicode="&#xd6;" horiz-adv-x="833" 
d="M794 414q0 -183 -123.5 -307t-305.5 -124q-137 0 -213 74.5t-76 210.5q0 187 117 307t300 120q145 0 228 -83q73 -73 73 -198zM656 435q0 217 -176 217q-127 0 -195 -115q-32 -53 -51.5 -135.5t-19.5 -162.5q0 -105 44 -159t130 -54q128 0 201 127q67 116 67 282z
M678 827q0 -31 -19.5 -51t-49.5 -20q-25 0 -39.5 15.5t-14.5 41.5q0 31 19.5 52.5t47.5 21.5q25 0 40.5 -17t15.5 -43zM465 827q0 -31 -19.5 -51t-49.5 -20q-25 0 -39.5 15.5t-14.5 41.5q0 31 19.5 52.5t47.5 21.5q25 0 40.5 -17t15.5 -43z" />
    <glyph glyph-name="multiply" unicode="&#xd7;" horiz-adv-x="606" 
d="M520 99l-61 -61l-151 151l-151 -151l-61 61l151 151l-151 151l61 61l151 -151l151 151l61 -61l-151 -151z" />
    <glyph glyph-name="Oslash" unicode="&#xd8;" horiz-adv-x="833" 
d="M794 416q0 -186 -124 -309.5t-310 -123.5q-52 0 -91.5 12t-91.5 44l-88 -93l-32 34l84 90q-65 66 -65 191q0 194 116.5 314t305.5 120q54 0 92.5 -11t89.5 -41l83 87l34 -31l-79 -84q76 -79 76 -199zM656 435q0 51 -13 100l-403 -429q38 -43 72.5 -61.5t78.5 -18.5
q126 0 198 127q67 116 67 282zM623 583q-32 38 -65.5 53.5t-81.5 15.5q-90 0 -148 -60q-56 -56 -90 -151.5t-34 -205.5q0 -40 15 -82z" />
    <glyph glyph-name="Ugrave" unicode="&#xd9;" horiz-adv-x="778" 
d="M721 -3q-72 3 -118 3l-106 -3l-5 8l27 128q-68 -73 -116 -107q-61 -43 -132 -43q-100 0 -149 70q-28 38 -28 103q0 32 8 78l58 307q11 61 11 76q0 25 -37 26l-51 3l5 35l132 -3l87 3l6 -7l-86 -460q-3 -17 -3 -35q0 -46 14 -69q12 -21 36.5 -34t52.5 -13q43 0 94 30
q36 20 67 47.5t33 41.5l65 359q11 60 11 76q0 25 -37 26l-51 3l5 35q93 -3 152 -3l159 3l-5 -35l-46 -3q-26 -2 -35 -9.5t-14 -34.5l-90 -499q-4 -23 -4 -35q0 -16 8 -22.5t28 -7.5l59 -3zM593 747h-53l-141 72q-33 16 -25 39q5 15 24 25.5t39 10.5q28 -2 48 -24z" />
    <glyph glyph-name="Uacute" unicode="&#xda;" horiz-adv-x="778" 
d="M721 -3q-72 3 -118 3l-106 -3l-5 8l27 128q-68 -73 -116 -107q-61 -43 -132 -43q-100 0 -149 70q-28 38 -28 103q0 32 8 78l58 307q11 61 11 76q0 25 -37 26l-51 3l5 35l132 -3l87 3l6 -7l-86 -460q-3 -17 -3 -35q0 -46 14 -69q12 -21 36.5 -34t52.5 -13q43 0 94 30
q36 20 67 47.5t33 41.5l65 359q11 60 11 76q0 25 -37 26l-51 3l5 35q93 -3 152 -3l159 3l-5 -35l-46 -3q-26 -2 -35 -9.5t-14 -34.5l-90 -499q-4 -23 -4 -35q0 -16 8 -22.5t28 -7.5l59 -3zM612 858q0 -23 -38 -39l-167 -72h-53l152 123q29 22 57 24q20 0 34.5 -10.5
t14.5 -25.5z" />
    <glyph glyph-name="Ucircumflex" unicode="&#xdb;" horiz-adv-x="778" 
d="M721 -3q-72 3 -118 3l-106 -3l-5 8l27 128q-68 -73 -116 -107q-61 -43 -132 -43q-100 0 -149 70q-28 38 -28 103q0 32 8 78l58 307q11 61 11 76q0 25 -37 26l-51 3l5 35l132 -3l87 3l6 -7l-86 -460q-3 -17 -3 -35q0 -46 14 -69q12 -21 36.5 -34t52.5 -13q43 0 94 30
q36 20 67 47.5t33 41.5l65 359q11 60 11 76q0 25 -37 26l-51 3l5 35q93 -3 152 -3l159 3l-5 -35l-46 -3q-26 -2 -35 -9.5t-14 -34.5l-90 -499q-4 -23 -4 -35q0 -16 8 -22.5t28 -7.5l59 -3zM638 751h-55l-95 77l-142 -77h-61l173 141h87z" />
    <glyph glyph-name="Udieresis" unicode="&#xdc;" horiz-adv-x="778" 
d="M721 -3q-72 3 -118 3l-106 -3l-5 8l27 128q-68 -73 -116 -107q-61 -43 -132 -43q-100 0 -149 70q-28 38 -28 103q0 32 8 78l58 307q11 61 11 76q0 25 -37 26l-51 3l5 35l132 -3l87 3l6 -7l-86 -460q-3 -17 -3 -35q0 -46 14 -69q12 -21 36.5 -34t52.5 -13q43 0 94 30
q36 20 67 47.5t33 41.5l65 359q11 60 11 76q0 25 -37 26l-51 3l5 35q93 -3 152 -3l159 3l-5 -35l-46 -3q-26 -2 -35 -9.5t-14 -34.5l-90 -499q-4 -23 -4 -35q0 -16 8 -22.5t28 -7.5l59 -3zM650 827q0 -31 -19.5 -51t-49.5 -20q-25 0 -39.5 15.5t-14.5 41.5q0 31 19.5 52.5
t47.5 21.5q25 0 40.5 -17t15.5 -43zM437 827q0 -31 -19.5 -51t-49.5 -20q-25 0 -39.5 15.5t-14.5 41.5q0 31 19.5 52.5t47.5 21.5q25 0 40.5 -17t15.5 -43z" />
    <glyph glyph-name="Yacute" unicode="&#xdd;" horiz-adv-x="611" 
d="M669 593q-53 -6 -116 -76q-49 -56 -101 -153t-60 -147q-1 -3 -1.5 -5.5t-1.5 -9.5t-3 -17t-6.5 -33t-9.5 -52q-3 -16 -3 -33t8 -24t29 -8l59 -3l-4 -35q-99 3 -163 3l-157 -3l4 35l49 3q25 1 32 13.5t22 83.5q20 89 20 113q0 15 -8 49t-16 61.5t-19.5 63.5t-11.5 37
q-20 64 -49.5 102.5t-59.5 38.5q-28 0 -45 -10l-3 33q31 21 90 70q19 5 28 5q41 0 73 -29q58 -52 89 -200l36 -169q68 166 156 277t149 107zM558 858q0 -23 -38 -39l-167 -72h-53l152 123q29 22 57 24q20 0 34.5 -10.5t14.5 -25.5z" />
    <glyph glyph-name="Thorn" unicode="&#xde;" horiz-adv-x="667" 
d="M644 394q0 -98 -75.5 -174.5t-171.5 -76.5q-41 0 -93 18l-2 35q35 -12 66 -12q58 0 95 46q49 60 49 146q0 65 -33.5 94.5t-107.5 29.5q-23 0 -63 -3l-66 -397q-3 -18 -3 -35q0 -29 37 -30l59 -3l-4 -35q-99 3 -163 3l-157 -3l4 35l49 3q25 2 34 18t20 79l72 409
q9 51 9 72q0 27 -38 30l-52 3l4 35q93 -3 152 -3l159 3l-4 -35l-45 -3q-25 -1 -32.5 -8.5t-13.5 -35.5l-12 -59l114 3q213 6 213 -149z" />
    <glyph glyph-name="germandbls" unicode="&#xdf;" 
d="M519 182q0 -51 -48 -106q-41 -47 -78 -68t-82 -21q-21 0 -51 9t-35 10l30 118h25v-52q28 -31 73 -31q34 0 55 19t21 50q0 36 -51 105q-53 71 -53 106q0 20 10.5 39t41.5 57q43 51 53 70q27 47 27 105q0 34 -22 54.5t-58 20.5q-40 0 -64.5 -28t-38.5 -90l-77 -339
q-30 -132 -71 -255q-37 -107 -112 -171q-63 -55 -110 -55q-15 0 -35 9q19 54 31 108h15q27 -40 55 -40q39 0 56 88l102 510h-92l4 26l100 33q12 67 28 94.5t66 66.5q76 61 116.5 81.5t81.5 20.5q53 0 85 -28.5t32 -76.5q0 -55 -35 -103q-13 -17 -52 -57q-47 -47 -47 -77
q0 -33 53 -94q51 -59 51 -108z" />
    <glyph glyph-name="agrave" unicode="&#xe0;" 
d="M519 82q-112 -99 -174 -99q-32 0 -32 44q0 29 7 56l37 151q-143 -251 -259 -251q-24 0 -39 21t-15 54q0 59 22 143t48 125q12 19 52 53.5t82 62.5q40 27 94 27q41 0 102 -26l45 27l16 -12q-23 -64 -32 -105l-45 -214l-10 -49q3 -25 14 -25q15 0 55 31l20 16zM377 395
q-47 22 -82 22q-32 0 -54 -23.5t-38 -75.5q-47 -147 -47 -216q0 -15 5 -26t12 -11q34 0 101 88q83 111 103 242zM447 518h-49l-123 89q-16 12 -20 22t1 25q7 19 25.5 32t37.5 13q21 0 40 -30z" />
    <glyph glyph-name="aacute" unicode="&#xe1;" 
d="M519 82q-112 -99 -174 -99q-32 0 -32 44q0 29 7 56l37 151q-143 -251 -259 -251q-24 0 -39 21t-15 54q0 59 22 143t48 125q12 19 52 53.5t82 62.5q40 27 94 27q41 0 102 -26l45 27l16 -12q-23 -64 -32 -105l-45 -214l-10 -49q3 -25 14 -25q15 0 55 31l20 16zM377 395
q-47 22 -82 22q-32 0 -54 -23.5t-38 -75.5q-47 -147 -47 -216q0 -15 5 -26t12 -11q34 0 101 88q83 111 103 242zM470 654q0 -15 -7.5 -25t-28.5 -22l-154 -89h-49l141 151q29 30 51 30q20 0 33.5 -13t13.5 -32z" />
    <glyph glyph-name="acircumflex" unicode="&#xe2;" 
d="M519 82q-112 -99 -174 -99q-32 0 -32 44q0 29 7 56l37 151q-143 -251 -259 -251q-24 0 -39 21t-15 54q0 59 22 143t48 125q12 19 52 53.5t82 62.5q40 27 94 27q41 0 102 -26l45 27l16 -12q-23 -64 -32 -105l-45 -214l-10 -49q3 -25 14 -25q15 0 55 31l20 16zM377 395
q-47 22 -82 22q-32 0 -54 -23.5t-38 -75.5q-47 -147 -47 -216q0 -15 5 -26t12 -11q34 0 101 88q83 111 103 242zM495 522h-51l-88 95l-131 -95h-57l160 174h81z" />
    <glyph glyph-name="atilde" unicode="&#xe3;" 
d="M519 82q-112 -99 -174 -99q-32 0 -32 44q0 29 7 56l37 151q-143 -251 -259 -251q-24 0 -39 21t-15 54q0 59 22 143t48 125q12 19 52 53.5t82 62.5q40 27 94 27q41 0 102 -26l45 27l16 -12q-23 -64 -32 -105l-45 -214l-10 -49q3 -25 14 -25q15 0 55 31l20 16zM377 395
q-47 22 -82 22q-32 0 -54 -23.5t-38 -75.5q-47 -147 -47 -216q0 -15 5 -26t12 -11q34 0 101 88q83 111 103 242zM534 669q-31 -119 -115 -119q-26 0 -82 22q-54 22 -76 22q-15 0 -25 -9.5t-21 -34.5h-40q27 119 118 119q34 0 76 -19q51 -23 75 -23q30 0 49 42h41z" />
    <glyph glyph-name="adieresis" unicode="&#xe4;" 
d="M519 82q-112 -99 -174 -99q-32 0 -32 44q0 29 7 56l37 151q-143 -251 -259 -251q-24 0 -39 21t-15 54q0 59 22 143t48 125q12 19 52 53.5t82 62.5q40 27 94 27q41 0 102 -26l45 27l16 -12q-23 -64 -32 -105l-45 -214l-10 -49q3 -25 14 -25q15 0 55 31l20 16zM377 395
q-47 22 -82 22q-32 0 -54 -23.5t-38 -75.5q-47 -147 -47 -216q0 -15 5 -26t12 -11q34 0 101 88q83 111 103 242zM518 615q0 -31 -19.5 -51t-49.5 -20q-25 0 -39.5 15.5t-14.5 41.5q0 31 19.5 52.5t47.5 21.5q25 0 40.5 -17t15.5 -43zM305 615q0 -31 -19.5 -51t-49.5 -20
q-25 0 -39.5 15.5t-14.5 41.5q0 31 19.5 52.5t47.5 21.5q25 0 40.5 -17t15.5 -43z" />
    <glyph glyph-name="aring" unicode="&#xe5;" 
d="M519 82q-112 -99 -174 -99q-32 0 -32 44q0 29 7 56l37 151q-143 -251 -259 -251q-24 0 -39 21t-15 54q0 59 22 143t48 125q12 19 52 53.5t82 62.5q40 27 94 27q41 0 102 -26l45 27l16 -12q-23 -64 -32 -105l-45 -214l-10 -49q3 -25 14 -25q15 0 55 31l20 16zM377 395
q-47 22 -82 22q-32 0 -54 -23.5t-38 -75.5q-47 -147 -47 -216q0 -15 5 -26t12 -11q34 0 101 88q83 111 103 242zM454 609q0 -41 -29.5 -70.5t-70.5 -29.5t-70.5 29.5t-29.5 71.5q0 41 29.5 70t72.5 29q40 0 69 -29.5t29 -70.5zM404 609q0 20 -14.5 35t-34.5 15
q-22 0 -36.5 -14.5t-14.5 -35.5t14.5 -35.5t35.5 -14.5t35.5 14.5t14.5 35.5z" />
    <glyph glyph-name="ae" unicode="&#xe6;" horiz-adv-x="738" 
d="M680 86q-6 -4 -14.5 -9t-14.5 -9q-75 -48 -119.5 -66.5t-88.5 -18.5q-48 0 -77 20.5t-44 65.5q-63 -52 -97.5 -69t-75.5 -17q-48 0 -76.5 26.5t-28.5 70.5q0 38 18 74t47 56q61 41 150 41h80v44q0 113 -113 113q-9 0 -19 -1t-22 -2.5t-19 -2.5l-24 -67l-19 4l-7 74
q42 32 74.5 44t75.5 12q58 0 92 -23t51 -74q69 53 116 75t92 22q43 0 68.5 -23.5t25.5 -62.5q0 -69 -65.5 -109t-206.5 -56q-4 -33 -4 -77q0 -94 73 -94q57 0 162 67zM335 222h-44q-63 0 -102.5 -30.5t-39.5 -78.5q0 -57 59 -57q56 0 89.5 44t37.5 122zM617 373
q0 23 -12 35.5t-34 12.5q-52 0 -85 -63q-13 -26 -43 -110q42 5 49 7q70 15 101 56q24 34 24 62z" />
    <glyph glyph-name="ccedilla" unicode="&#xe7;" horiz-adv-x="444" 
d="M401 90q-112 -78 -175 -97l-38 -55q15 3 26 3q40 0 65 -20t25 -52q0 -38 -34.5 -62.5t-88.5 -24.5t-113 25l22 33q38 -17 67 -17q26 0 40.5 10.5t14.5 29.5q0 37 -48 37q-13 0 -29 -4l-13 12l53 76q-7 -1 -16 -1q-58 0 -92.5 37t-34.5 99q0 54 15 116t37 96q27 41 101 86
q50 31 78 41.5t59 10.5q46 0 114 -24q-16 -43 -35 -141h-33l6 56l-4 14q-46 33 -92 33q-63 0 -93 -70q-16 -36 -27.5 -94.5t-11.5 -102.5q0 -41 21.5 -65.5t57.5 -24.5t71 15t95 55z" />
    <glyph glyph-name="egrave" unicode="&#xe8;" horiz-adv-x="444" 
d="M387 86q-6 -4 -14.5 -9t-14.5 -9q-76 -49 -120 -67t-89 -18q-56 0 -88.5 31t-32.5 84t17.5 120.5t42.5 112.5q29 52 103.5 95t133.5 43q43 0 68 -23.5t25 -63.5q0 -88 -107 -139q-54 -26 -164 -50q-5 -36 -5 -64q0 -39 19 -60.5t54 -21.5q57 0 162 67zM324 368
q0 25 -13 39t-35 14q-37 0 -66 -37t-45 -107l-14 -58l41 12q61 18 96.5 54.5t35.5 82.5zM401 518h-49l-123 89q-16 12 -20 22t1 25q7 19 25 32t38 13q21 0 40 -30z" />
    <glyph glyph-name="eacute" unicode="&#xe9;" horiz-adv-x="444" 
d="M387 86q-6 -4 -14.5 -9t-14.5 -9q-76 -49 -120 -67t-89 -18q-56 0 -88.5 31t-32.5 84t17.5 120.5t42.5 112.5q29 52 103.5 95t133.5 43q43 0 68 -23.5t25 -63.5q0 -88 -107 -139q-54 -26 -164 -50q-5 -36 -5 -64q0 -39 19 -60.5t54 -21.5q57 0 162 67zM324 368
q0 25 -13 39t-35 14q-37 0 -66 -37t-45 -107l-14 -58l41 12q61 18 96.5 54.5t35.5 82.5zM424 654q0 -15 -7.5 -25t-28.5 -22l-154 -89h-49l141 151q29 30 51 30q20 0 33.5 -13t13.5 -32z" />
    <glyph glyph-name="ecircumflex" unicode="&#xea;" horiz-adv-x="444" 
d="M387 86q-6 -4 -14.5 -9t-14.5 -9q-76 -49 -120 -67t-89 -18q-56 0 -88.5 31t-32.5 84t17.5 120.5t42.5 112.5q29 52 103.5 95t133.5 43q43 0 68 -23.5t25 -63.5q0 -88 -107 -139q-54 -26 -164 -50q-5 -36 -5 -64q0 -39 19 -60.5t54 -21.5q57 0 162 67zM324 368
q0 25 -13 39t-35 14q-37 0 -66 -37t-45 -107l-14 -58l41 12q61 18 96.5 54.5t35.5 82.5zM449 522h-51l-88 95l-131 -95h-57l160 174h81z" />
    <glyph glyph-name="edieresis" unicode="&#xeb;" horiz-adv-x="444" 
d="M387 86q-6 -4 -14.5 -9t-14.5 -9q-76 -49 -120 -67t-89 -18q-56 0 -88.5 31t-32.5 84t17.5 120.5t42.5 112.5q29 52 103.5 95t133.5 43q43 0 68 -23.5t25 -63.5q0 -88 -107 -139q-54 -26 -164 -50q-5 -36 -5 -64q0 -39 19 -60.5t54 -21.5q57 0 162 67zM324 368
q0 25 -13 39t-35 14q-37 0 -66 -37t-45 -107l-14 -58l41 12q61 18 96.5 54.5t35.5 82.5zM472 615q0 -31 -19.5 -51t-49.5 -20q-25 0 -39.5 15.5t-14.5 41.5q0 31 19.5 52.5t47.5 21.5q25 0 40.5 -17t15.5 -43zM259 615q0 -31 -19.5 -51t-49.5 -20q-25 0 -39.5 15.5
t-14.5 41.5q0 31 19.5 52.5t47.5 21.5q25 0 40.5 -17t15.5 -43z" />
    <glyph glyph-name="igrave" unicode="&#xec;" horiz-adv-x="333" 
d="M293 84q-4 -3 -12.5 -8.5t-15.5 -11.5q-113 -81 -166 -81q-14 0 -23 12t-9 31q0 24 6 52l59 241q8 33 8 41q0 10 -10 10q-7 0 -30.5 -11.5t-38.5 -22.5l-22 -16l-13 26l63 47q102 76 150 76q11 0 18 -10t7 -27q0 -33 -9 -67l-54 -196q-20 -71 -20 -93q0 -11 11 -11
q14 0 62 30l27 17zM332 518h-49l-123 89q-16 12 -20 22t1 25q7 19 25 32t38 13q21 0 40 -30z" />
    <glyph glyph-name="iacute" unicode="&#xed;" horiz-adv-x="333" 
d="M293 84q-4 -3 -12.5 -8.5t-15.5 -11.5q-113 -81 -166 -81q-14 0 -23 12t-9 31q0 24 6 52l59 241q8 33 8 41q0 10 -10 10q-7 0 -30.5 -11.5t-38.5 -22.5l-22 -16l-13 26l63 47q102 76 150 76q11 0 18 -10t7 -27q0 -33 -9 -67l-54 -196q-20 -71 -20 -93q0 -11 11 -11
q14 0 62 30l27 17zM355 654q0 -15 -7.5 -25t-28.5 -22l-154 -89h-49l141 151q29 30 51 30q20 0 33.5 -13t13.5 -32z" />
    <glyph glyph-name="icircumflex" unicode="&#xee;" horiz-adv-x="333" 
d="M293 84q-4 -3 -12.5 -8.5t-15.5 -11.5q-113 -81 -166 -81q-14 0 -23 12t-9 31q0 24 6 52l59 241q8 33 8 41q0 10 -10 10q-7 0 -30.5 -11.5t-38.5 -22.5l-22 -16l-13 26l63 47q102 76 150 76q11 0 18 -10t7 -27q0 -33 -9 -67l-54 -196q-20 -71 -20 -93q0 -11 11 -11
q14 0 62 30l27 17zM380 522h-51l-88 95l-131 -95h-57l160 174h81z" />
    <glyph glyph-name="idieresis" unicode="&#xef;" horiz-adv-x="333" 
d="M293 84q-4 -3 -12.5 -8.5t-15.5 -11.5q-113 -81 -166 -81q-14 0 -23 12t-9 31q0 24 6 52l59 241q8 33 8 41q0 10 -10 10q-7 0 -30.5 -11.5t-38.5 -22.5l-22 -16l-13 26l63 47q102 76 150 76q11 0 18 -10t7 -27q0 -33 -9 -67l-54 -196q-20 -71 -20 -93q0 -11 11 -11
q14 0 62 30l27 17zM403 615q0 -31 -19.5 -51t-49.5 -20q-25 0 -39.5 15.5t-14.5 41.5q0 31 19.5 52.5t47.5 21.5q25 0 40.5 -17t15.5 -43zM190 615q0 -31 -19.5 -51t-49.5 -20q-25 0 -39.5 15.5t-14.5 41.5q0 31 19.5 52.5t47.5 21.5q25 0 40.5 -17t15.5 -43z" />
    <glyph glyph-name="eth" unicode="&#xf0;" 
d="M502 319q0 -184 -122 -275q-83 -61 -181 -61q-151 0 -151 152q0 59 20 123.5t49 97.5q46 52 108.5 82.5t123.5 30.5q21 0 43 -9q-7 60 -39 110l-138 -69l-19 35l131 65q-38 45 -91 77l40 48q63 -31 116 -93l136 67l18 -35l-129 -64q85 -133 85 -282zM388 323q0 46 -22 74
t-58 28q-49 0 -85 -51q-26 -38 -43.5 -107t-17.5 -137q0 -47 22 -75t59 -28q48 0 84 51q26 37 43.5 107t17.5 138z" />
    <glyph glyph-name="ntilde" unicode="&#xf1;" 
d="M521 80q-5 -4 -13.5 -10t-15.5 -11q-102 -76 -151 -76q-16 0 -26 12t-10 30q0 44 48 212q25 85 25 112q0 21 -20 21q-36 0 -92 -68t-85 -148q-26 -74 -36 -150q-64 -4 -106 -17l-10 11q35 104 60 209t25 146q0 17 -11 17q-16 0 -41 -17l-32 -22l-13 27l84 62
q67 49 102 49q27 0 27 -30q0 -36 -34 -157l-17 -60q42 71 87 122q51 55 105.5 90t89.5 35q17 0 28 -11.5t11 -30.5q0 -22 -16 -83l-48 -184q-13 -52 -13 -78q0 -17 11 -17q12 0 45 22l29 20zM519 669q-31 -119 -115 -119q-26 0 -82 22q-54 22 -76 22q-15 0 -25 -9.5
t-21 -34.5h-40q27 119 118 119q34 0 76 -19q51 -23 75 -23q30 0 49 42h41z" />
    <glyph glyph-name="ograve" unicode="&#xf2;" 
d="M502 319q0 -48 -13 -102.5t-33 -90.5q-17 -30 -55 -63.5t-80 -52.5q-57 -27 -125 -27q-148 0 -148 152q0 63 24 137q16 49 43.5 83.5t73.5 63.5q79 50 161 50q72 0 112 -39.5t40 -110.5zM388 323q0 46 -22 74t-58 28q-49 0 -85 -51q-26 -38 -43.5 -107t-17.5 -137
q0 -47 22 -75t59 -28q48 0 84 51q26 37 43.5 107t17.5 138zM433 518h-49l-123 89q-16 12 -20 22t1 25q7 19 25.5 32t37.5 13q21 0 40 -30z" />
    <glyph glyph-name="oacute" unicode="&#xf3;" 
d="M502 319q0 -48 -13 -102.5t-33 -90.5q-17 -30 -55 -63.5t-80 -52.5q-57 -27 -125 -27q-148 0 -148 152q0 63 24 137q16 49 43.5 83.5t73.5 63.5q79 50 161 50q72 0 112 -39.5t40 -110.5zM388 323q0 46 -22 74t-58 28q-49 0 -85 -51q-26 -38 -43.5 -107t-17.5 -137
q0 -47 22 -75t59 -28q48 0 84 51q26 37 43.5 107t17.5 138zM456 654q0 -15 -7.5 -25t-28.5 -22l-154 -89h-49l141 151q29 30 51 30q20 0 33.5 -13t13.5 -32z" />
    <glyph glyph-name="ocircumflex" unicode="&#xf4;" 
d="M502 319q0 -48 -13 -102.5t-33 -90.5q-17 -30 -55 -63.5t-80 -52.5q-57 -27 -125 -27q-148 0 -148 152q0 63 24 137q16 49 43.5 83.5t73.5 63.5q79 50 161 50q72 0 112 -39.5t40 -110.5zM388 323q0 46 -22 74t-58 28q-49 0 -85 -51q-26 -38 -43.5 -107t-17.5 -137
q0 -47 22 -75t59 -28q48 0 84 51q26 37 43.5 107t17.5 138zM481 522h-51l-88 95l-131 -95h-57l160 174h81z" />
    <glyph glyph-name="otilde" unicode="&#xf5;" 
d="M502 319q0 -48 -13 -102.5t-33 -90.5q-17 -30 -55 -63.5t-80 -52.5q-57 -27 -125 -27q-148 0 -148 152q0 63 24 137q16 49 43.5 83.5t73.5 63.5q79 50 161 50q72 0 112 -39.5t40 -110.5zM388 323q0 46 -22 74t-58 28q-49 0 -85 -51q-26 -38 -43.5 -107t-17.5 -137
q0 -47 22 -75t59 -28q48 0 84 51q26 37 43.5 107t17.5 138zM520 669q-31 -119 -115 -119q-26 0 -82 22q-54 22 -76 22q-15 0 -25 -9.5t-21 -34.5h-40q27 119 118 119q34 0 76 -19q51 -23 75 -23q30 0 49 42h41z" />
    <glyph glyph-name="odieresis" unicode="&#xf6;" 
d="M502 319q0 -48 -13 -102.5t-33 -90.5q-17 -30 -55 -63.5t-80 -52.5q-57 -27 -125 -27q-148 0 -148 152q0 63 24 137q16 49 43.5 83.5t73.5 63.5q79 50 161 50q72 0 112 -39.5t40 -110.5zM388 323q0 46 -22 74t-58 28q-49 0 -85 -51q-26 -38 -43.5 -107t-17.5 -137
q0 -47 22 -75t59 -28q48 0 84 51q26 37 43.5 107t17.5 138zM504 615q0 -31 -19.5 -51t-49.5 -20q-25 0 -39.5 15.5t-14.5 41.5q0 31 19.5 52.5t47.5 21.5q25 0 40.5 -17t15.5 -43zM291 615q0 -31 -19.5 -51t-49.5 -20q-25 0 -39.5 15.5t-14.5 41.5q0 31 19.5 52.5t47.5 21.5
q25 0 40.5 -17t15.5 -43z" />
    <glyph glyph-name="divide" unicode="&#xf7;" horiz-adv-x="606" 
d="M565 207h-514v86h514v-86zM386 420q0 -32 -23 -55t-55 -23t-55 23t-23 55t23 55t55 23t55 -23t23 -55zM386 80q0 -32 -23 -55t-55 -23t-55 23t-23 55t23 55t55 23t55 -23t23 -55z" />
    <glyph glyph-name="oslash" unicode="&#xf8;" 
d="M502 314q0 -45 -13.5 -100.5t-33.5 -90.5q-14 -25 -45 -53t-65 -47q-68 -40 -144 -40q-67 0 -102 30l-57 -63l-28 22l61 68q-27 45 -27 101q0 57 24 131q29 91 118 147q76 50 159 50q46 0 93 -22l53 59l27 -25l-50 -55q30 -48 30 -112zM388 332l-220 -242q27 -63 74 -63
q51 0 88 55q51 80 58 250zM377 375q-14 28 -29.5 39t-40.5 11q-125 0 -143 -289z" />
    <glyph glyph-name="ugrave" unicode="&#xf9;" 
d="M521 88q-33 -25 -35 -26q-105 -79 -140 -79q-15 0 -24.5 12t-9.5 31q0 23 16 81l32 117q-74 -117 -142 -179t-121 -62q-20 0 -32 16t-12 41t13 74q5 19 21 79q34 129 34 161q0 16 -17 16t-33 -10l-36 -21l-13 26l79 54q74 50 116 50q27 0 27 -35q0 -32 -29 -147l-35 -137
q-10 -42 -10 -66q0 -13 16 -13q22 0 58 36.5t73 94.5q77 125 80 245q46 -1 110 18l9 -11l-42 -141l-40 -155q-14 -46 -14 -72q0 -12 14 -12q24 0 55 25l22 17zM435 518h-49l-123 89q-16 12 -20 22t1 25q7 19 25.5 32t37.5 13q21 0 40 -30z" />
    <glyph glyph-name="uacute" unicode="&#xfa;" 
d="M521 88q-33 -25 -35 -26q-105 -79 -140 -79q-15 0 -24.5 12t-9.5 31q0 23 16 81l32 117q-74 -117 -142 -179t-121 -62q-20 0 -32 16t-12 41t13 74q5 19 21 79q34 129 34 161q0 16 -17 16t-33 -10l-36 -21l-13 26l79 54q74 50 116 50q27 0 27 -35q0 -32 -29 -147l-35 -137
q-10 -42 -10 -66q0 -13 16 -13q22 0 58 36.5t73 94.5q77 125 80 245q46 -1 110 18l9 -11l-42 -141l-40 -155q-14 -46 -14 -72q0 -12 14 -12q24 0 55 25l22 17zM458 654q0 -15 -7.5 -25t-28.5 -22l-154 -89h-49l141 151q29 30 51 30q20 0 33.5 -13t13.5 -32z" />
    <glyph glyph-name="ucircumflex" unicode="&#xfb;" 
d="M521 88q-33 -25 -35 -26q-105 -79 -140 -79q-15 0 -24.5 12t-9.5 31q0 23 16 81l32 117q-74 -117 -142 -179t-121 -62q-20 0 -32 16t-12 41t13 74q5 19 21 79q34 129 34 161q0 16 -17 16t-33 -10l-36 -21l-13 26l79 54q74 50 116 50q27 0 27 -35q0 -32 -29 -147l-35 -137
q-10 -42 -10 -66q0 -13 16 -13q22 0 58 36.5t73 94.5q77 125 80 245q46 -1 110 18l9 -11l-42 -141l-40 -155q-14 -46 -14 -72q0 -12 14 -12q24 0 55 25l22 17zM483 522h-51l-88 95l-131 -95h-57l160 174h81z" />
    <glyph glyph-name="udieresis" unicode="&#xfc;" 
d="M521 88q-33 -25 -35 -26q-105 -79 -140 -79q-15 0 -24.5 12t-9.5 31q0 23 16 81l32 117q-74 -117 -142 -179t-121 -62q-20 0 -32 16t-12 41t13 74q5 19 21 79q34 129 34 161q0 16 -17 16t-33 -10l-36 -21l-13 26l79 54q74 50 116 50q27 0 27 -35q0 -32 -29 -147l-35 -137
q-10 -42 -10 -66q0 -13 16 -13q22 0 58 36.5t73 94.5q77 125 80 245q46 -1 110 18l9 -11l-42 -141l-40 -155q-14 -46 -14 -72q0 -12 14 -12q24 0 55 25l22 17zM506 615q0 -31 -19.5 -51t-49.5 -20q-25 0 -39.5 15.5t-14.5 41.5q0 31 19.5 52.5t47.5 21.5q25 0 40.5 -17
t15.5 -43zM293 615q0 -31 -19.5 -51t-49.5 -20q-25 0 -39.5 15.5t-14.5 41.5q0 31 19.5 52.5t47.5 21.5q25 0 40.5 -17t15.5 -43z" />
    <glyph glyph-name="yacute" unicode="&#xfd;" 
d="M541 453q-27 -59 -84 -268q-40 -146 -59.5 -197.5t-56.5 -109.5q-43 -69 -103 -109t-119 -40q-57 0 -83 44q-11 19 -15 53l62 40l18 -6q-1 -7 -1 -19q0 -31 16.5 -48.5t45.5 -17.5q49 0 86 55.5t66 173.5l41 166q-29 -51 -49.5 -78t-50.5 -53q-64 -56 -108 -56
q-20 0 -33.5 25t-13.5 62q0 24 6 85l19 182q1 6 1 14q0 19 -18 19q-29 0 -81 -41l-14 28l80 62q65 50 103 50q18 0 28.5 -17t10.5 -46q0 -33 -5 -80l-19 -163q-4 -33 -4 -55q0 -41 17 -41q22 0 56.5 38t66.5 97q31 58 50.5 125.5t21.5 119.5q46 -1 110 18zM471 654
q0 -15 -7.5 -25t-28.5 -22l-154 -89h-49l141 151q29 30 51 30q20 0 33.5 -13t13.5 -32z" />
    <glyph glyph-name="thorn" unicode="&#xfe;" 
d="M516 370q0 -89 -29 -167.5t-78 -120.5q-70 -59 -118 -82q-39 -17 -86 -17q-27 0 -56 7q-43 -171 -48 -240q-38 -4 -80 -14q-6 -1 -15.5 -3.5t-16.5 -3.5l-10 7q44 144 57 212l124 648q3 16 3 30q0 26 -34 26h-45l7 28q135 20 198 46l10 -9l-103 -466q49 75 87 117t80 69
q51 32 95 32q58 0 58 -99zM402 333q0 58 -28 58t-65 -31.5t-72 -85.5q-42 -64 -62 -153l-14 -62q47 -27 94 -27q50 0 80 54q28 49 47.5 122t19.5 125z" />
    <glyph glyph-name="ydieresis" unicode="&#xff;" 
d="M541 453q-27 -59 -84 -268q-40 -146 -59.5 -197.5t-56.5 -109.5q-43 -69 -103 -109t-119 -40q-57 0 -83 44q-11 19 -15 53l62 40l18 -6q-1 -7 -1 -19q0 -31 16.5 -48.5t45.5 -17.5q49 0 86 55.5t66 173.5l41 166q-29 -51 -49.5 -78t-50.5 -53q-64 -56 -108 -56
q-20 0 -33.5 25t-13.5 62q0 24 6 85l19 182q1 6 1 14q0 19 -18 19q-29 0 -81 -41l-14 28l80 62q65 50 103 50q18 0 28.5 -17t10.5 -46q0 -33 -5 -80l-19 -163q-4 -33 -4 -55q0 -41 17 -41q22 0 56.5 38t66.5 97q31 58 50.5 125.5t21.5 119.5q46 -1 110 18zM519 615
q0 -31 -19.5 -51t-49.5 -20q-25 0 -39.5 15.5t-14.5 41.5q0 31 19.5 52.5t47.5 21.5q25 0 40.5 -17t15.5 -43zM306 615q0 -31 -19.5 -51t-49.5 -20q-25 0 -39.5 15.5t-14.5 41.5q0 31 19.5 52.5t47.5 21.5q25 0 40.5 -17t15.5 -43z" />
    <glyph glyph-name="Amacron" unicode="&#x100;" horiz-adv-x="722" 
d="M685 -3q-89 3 -146 3l-155 -3v35l42 3q45 3 42 31l-25 198q-12 0 -33 1t-39.5 1.5t-37.5 0.5l-111 -3l-86 -152q-19 -34 -19 -57q0 -17 43 -20l44 -3l-5 -35q-76 3 -124 3l-110 -3l5 35l34 3q28 3 47 35l363 613h96q2 -11 4.5 -35t3.5 -36l76 -522q7 -51 54 -55l37 -3
v-35zM438 307l-38 266l-155 -266h193zM657 856l-16 -70h-326l17 70h325z" />
    <glyph glyph-name="amacron" unicode="&#x101;" 
d="M519 82q-112 -99 -174 -99q-32 0 -32 44q0 29 7 56l37 151q-143 -251 -259 -251q-24 0 -39 21t-15 54q0 59 22 143t48 125q12 19 52 53.5t82 62.5q40 27 94 27q41 0 102 -26l45 27l16 -12q-23 -64 -32 -105l-45 -214l-10 -49q3 -25 14 -25q15 0 55 31l20 16zM377 395
q-47 22 -82 22q-32 0 -54 -23.5t-38 -75.5q-47 -147 -47 -216q0 -15 5 -26t12 -11q34 0 101 88q83 111 103 242zM526 644l-16 -70h-326l17 70h325z" />
    <glyph glyph-name="Abreve" unicode="&#x102;" horiz-adv-x="722" 
d="M685 -3q-89 3 -146 3l-155 -3v35l42 3q45 3 42 31l-25 198q-12 0 -33 1t-39.5 1.5t-37.5 0.5l-111 -3l-86 -152q-19 -34 -19 -57q0 -17 43 -20l44 -3l-5 -35q-76 3 -124 3l-110 -3l5 35l34 3q28 3 47 35l363 613h96q2 -11 4.5 -35t3.5 -36l76 -522q7 -51 54 -55l37 -3
v-35zM438 307l-38 266l-155 -266h193zM668 887q-36 -132 -198 -132q-73 0 -107.5 30.5t-35.5 101.5h47q4 -38 30.5 -55.5t80.5 -17.5q53 0 85.5 16.5t55.5 56.5h42z" />
    <glyph glyph-name="abreve" unicode="&#x103;" 
d="M519 82q-112 -99 -174 -99q-32 0 -32 44q0 29 7 56l37 151q-143 -251 -259 -251q-24 0 -39 21t-15 54q0 59 22 143t48 125q12 19 52 53.5t82 62.5q40 27 94 27q41 0 102 -26l45 27l16 -12q-23 -64 -32 -105l-45 -214l-10 -49q3 -25 14 -25q15 0 55 31l20 16zM377 395
q-47 22 -82 22q-32 0 -54 -23.5t-38 -75.5q-47 -147 -47 -216q0 -15 5 -26t12 -11q34 0 101 88q83 111 103 242zM525 690q-13 -63 -38 -96q-50 -66 -146 -66q-69 0 -101 42q-30 38 -31 120h43q4 -47 29 -68.5t75 -21.5q48 0 78 21t52 69h39z" />
    <glyph glyph-name="Aogonek" unicode="&#x104;" horiz-adv-x="722" 
d="M659 -150q-92 -100 -157 -100q-33 0 -48 26t-6 75q13 72 131 149h-40l-155 -3v35l42 3q45 3 42 31l-25 198q-12 0 -33 1t-39.5 1.5t-37.5 0.5l-111 -3l-86 -152q-19 -34 -19 -57q0 -17 43 -20l44 -3l-5 -35q-76 3 -124 3l-110 -3l5 35l34 3q28 3 47 35l363 613h96
q2 -11 4.5 -35t3.5 -36l76 -522q7 -51 54 -55l37 -3v-35h-10q-68 3 -116 -60q-25 -32 -32 -69q-3 -19 7.5 -26t29.5 -7q25 0 66 29l22 16zM438 307l-38 266l-155 -266h193z" />
    <glyph glyph-name="aogonek" unicode="&#x105;" 
d="M519 82q-35 -30 -63 -51q-65 -46 -95 -79q-36 -40 -45 -84q-5 -33 37 -33q25 0 66 29l22 16l7 -30q-92 -100 -157 -100q-33 0 -48 26t-6 75q11 64 106 132q-30 2 -30 44q0 29 7 56l37 151q-143 -251 -259 -251q-24 0 -39 21t-15 54q0 59 22 143t48 125q12 19 52 53.5
t82 62.5q40 27 94 27q41 0 102 -26l45 27l16 -12q-23 -64 -32 -105l-45 -214l-10 -49q3 -25 14 -25q15 0 55 31l20 16zM377 395q-47 22 -82 22q-32 0 -54 -23.5t-38 -75.5q-47 -147 -47 -216q0 -15 5 -26t12 -11q34 0 101 88q83 111 103 242z" />
    <glyph glyph-name="Cacute" unicode="&#x106;" horiz-adv-x="685" 
d="M629 116l-13 -39q-83 -52 -144.5 -73t-131.5 -21q-120 0 -191 58q-80 68 -80 209q0 185 127 315t308 130q98 0 191 -43q-32 -114 -38 -168h-35l5 88q2 25 -51.5 44.5t-122.5 19.5q-113 0 -179.5 -98.5t-66.5 -265.5q0 -115 47 -169.5t145 -54.5q90 0 198 64l22 13z
M611 858q0 -23 -38 -39l-167 -72h-53l152 123q29 22 57 24q20 0 34.5 -10.5t14.5 -25.5z" />
    <glyph glyph-name="cacute" unicode="&#x107;" horiz-adv-x="444" 
d="M401 90q-89 -62 -140 -84.5t-103 -22.5q-58 0 -92 37t-34 99q0 54 15 116t37 96q27 41 101 86q50 31 78 41.5t59 10.5q46 0 114 -24q-16 -43 -35 -141h-33l6 56l-4 14q-46 33 -92 33q-63 0 -93 -70q-16 -36 -27.5 -94.5t-11.5 -102.5q0 -41 21.5 -65.5t57.5 -24.5t71 15
t95 55zM429 654q0 -15 -7.5 -25t-28.5 -22l-154 -89h-49l141 151q29 30 51 30q20 0 33.5 -13t13.5 -32z" />
    <glyph glyph-name="Ccircumflex" unicode="&#x108;" horiz-adv-x="685" 
d="M629 116l-13 -39q-83 -52 -144.5 -73t-131.5 -21q-120 0 -191 58q-80 68 -80 209q0 185 127 315t308 130q98 0 191 -43q-32 -114 -38 -168h-35l5 88q2 25 -51.5 44.5t-122.5 19.5q-113 0 -179.5 -98.5t-66.5 -265.5q0 -115 47 -169.5t145 -54.5q90 0 198 64l22 13z
M637 751h-55l-95 77l-142 -77h-61l173 141h87z" />
    <glyph glyph-name="ccircumflex" unicode="&#x109;" horiz-adv-x="444" 
d="M401 90q-89 -62 -140 -84.5t-103 -22.5q-58 0 -92 37t-34 99q0 54 15 116t37 96q27 41 101 86q50 31 78 41.5t59 10.5q46 0 114 -24q-16 -43 -35 -141h-33l6 56l-4 14q-46 33 -92 33q-63 0 -93 -70q-16 -36 -27.5 -94.5t-11.5 -102.5q0 -41 21.5 -65.5t57.5 -24.5t71 15
t95 55zM454 522h-51l-88 95l-131 -95h-57l160 174h81z" />
    <glyph glyph-name="Cdotaccent" unicode="&#x10a;" horiz-adv-x="685" 
d="M629 116l-13 -39q-83 -52 -144.5 -73t-131.5 -21q-120 0 -191 58q-80 68 -80 209q0 185 127 315t308 130q98 0 191 -43q-32 -114 -38 -168h-35l5 88q2 25 -51.5 44.5t-122.5 19.5q-113 0 -179.5 -98.5t-66.5 -265.5q0 -115 47 -169.5t145 -54.5q90 0 198 64l22 13z
M547 827q0 -31 -19.5 -51t-49.5 -20q-25 0 -39.5 15.5t-14.5 41.5q0 31 19.5 52.5t47.5 21.5q25 0 40.5 -17t15.5 -43z" />
    <glyph glyph-name="cdotaccent" unicode="&#x10b;" horiz-adv-x="444" 
d="M401 90q-89 -62 -140 -84.5t-103 -22.5q-58 0 -92 37t-34 99q0 54 15 116t37 96q27 41 101 86q50 31 78 41.5t59 10.5q46 0 114 -24q-16 -43 -35 -141h-33l6 56l-4 14q-46 33 -92 33q-63 0 -93 -70q-16 -36 -27.5 -94.5t-11.5 -102.5q0 -41 21.5 -65.5t57.5 -24.5t71 15
t95 55zM375 615q0 -31 -19.5 -51t-49.5 -20q-25 0 -39.5 15.5t-14.5 41.5q0 31 19.5 52.5t47.5 21.5q25 0 40.5 -17t15.5 -43z" />
    <glyph glyph-name="Ccaron" unicode="&#x10c;" horiz-adv-x="685" 
d="M629 116l-13 -39q-83 -52 -144.5 -73t-131.5 -21q-120 0 -191 58q-80 68 -80 209q0 185 127 315t308 130q98 0 191 -43q-32 -114 -38 -168h-35l5 88q2 25 -51.5 44.5t-122.5 19.5q-113 0 -179.5 -98.5t-66.5 -265.5q0 -115 47 -169.5t145 -54.5q90 0 198 64l22 13z
M690 892l-173 -141h-87l-93 141h55l95 -77l142 77h61z" />
    <glyph glyph-name="ccaron" unicode="&#x10d;" horiz-adv-x="444" 
d="M401 90q-89 -62 -140 -84.5t-103 -22.5q-58 0 -92 37t-34 99q0 54 15 116t37 96q27 41 101 86q50 31 78 41.5t59 10.5q46 0 114 -24q-16 -43 -35 -141h-33l6 56l-4 14q-46 33 -92 33q-63 0 -93 -70q-16 -36 -27.5 -94.5t-11.5 -102.5q0 -41 21.5 -65.5t57.5 -24.5t71 15
t95 55zM502 696l-162 -174h-82l-88 174h50l91 -97l135 97h56z" />
    <glyph glyph-name="Dcaron" unicode="&#x10e;" horiz-adv-x="778" 
d="M747 422q0 -92 -37 -177.5t-102 -144.5q-55 -50 -129 -77.5t-149 -25.5q-85 3 -189 3l-141 -3l5 32l28 3q23 2 32.5 14t15.5 46l87 502q2 14 2 20q0 17 -10 24t-36 8l-46 3l5 32l160 -3q37 0 95 2t113 2q87 0 141.5 -19t92.5 -62q62 -70 62 -179zM609 434q0 129 -76 174
q-57 32 -157 32q-4 0 -34 -2l-39 -3l-100 -584q77 -11 111 -11q87 0 140.5 26t86.5 85q31 55 49.5 132t18.5 151zM656 892l-173 -141h-87l-93 141h55l95 -77l142 77h61z" />
    <glyph glyph-name="dcaron" unicode="&#x10f;" 
d="M522 82l-36 -26q-103 -73 -136 -73q-14 0 -24.5 12t-10.5 29q0 23 7 50l40 164q-49 -81 -79.5 -121.5t-65.5 -71.5q-72 -62 -116 -62q-27 0 -45 25t-18 62q0 74 22 157t52 121q19 25 60 55t84 49q37 17 75 17q28 0 65 -9l18 112q4 28 4 38q0 42 -38 42h-45l7 28
q135 20 198 46l10 -9q-11 -48 -14 -65l-107 -531q-5 -27 -5 -40q0 -6 4 -11t10 -5t49 28l26 17zM384 401q-48 18 -85 18q-38 0 -56 -13t-35 -53q-22 -49 -39 -129.5t-17 -131.5q0 -12 6.5 -19.5t17.5 -7.5q32 0 78 59q88 109 106 182zM741 713q-21 -38 -32.5 -58.5
t-28 -41.5t-22.5 -27t-35 -36l-45 -25l-14 10q30 51 37.5 74t18.5 89q27 2 109 28z" />
    <glyph glyph-name="Dcroat" unicode="&#x110;" horiz-adv-x="778" 
d="M747 422q0 -92 -37 -177.5t-102 -144.5q-107 -99 -278 -103q-41 -1 -100 1t-89 2l-141 -3l5 32l28 3q23 2 32.5 14t15.5 46l43 250h-100l6 40h101l37 212q2 14 2 20q0 17 -10 24t-36 8l-46 3l5 32l160 -3q41 0 104 2t104 2q162 0 234 -81q62 -70 62 -179zM609 434
q0 129 -76 174q-57 32 -157 32q-16 0 -73 -5l-43 -253h182l-6 -40h-183l-50 -291q77 -11 111 -11q87 0 140.5 26t86.5 85q31 55 49.5 132t18.5 151z" />
    <glyph glyph-name="dcroat" unicode="&#x111;" 
d="M522 82l-36 -26q-98 -73 -136 -73q-14 0 -24.5 12t-10.5 29q0 23 7 50l40 164q-49 -81 -79.5 -121.5t-65.5 -71.5q-72 -62 -116 -62q-27 0 -45 25t-18 62q0 73 22.5 156.5t52.5 121.5q19 25 59.5 54.5t84.5 49.5q38 17 75 17q29 0 65 -9l12 75h-149l12 40h143q4 23 4 35
q0 22 -9 32t-29 10h-45l7 28q135 20 198 46l10 -9l-6 -24l-3 -18l-5 -23l-16 -77h76l-11 -40h-73l-84 -414q-5 -27 -5 -40q0 -6 4 -11t10 -5t49 28l26 17zM385 401q-48 18 -85 18q-38 0 -56 -13t-35 -53q-22 -50 -39.5 -130.5t-17.5 -130.5q0 -12 6.5 -19.5t17.5 -7.5
q32 0 78 59q87 108 107 182z" />
    <glyph glyph-name="Emacron" unicode="&#x112;" horiz-adv-x="611" 
d="M556 168q-14 -59 -34 -168l-167 -3q-35 0 -97.5 2t-105.5 1l-141 -3l5 32l28 3q23 2 32.5 14t15.5 46l87 502q2 14 2 21q0 16 -10 23t-36 8l-46 3l5 32q96 -3 157 -3q35 0 91 1.5t92 1.5l162 -3l10 -6l-25 -152h-32v53q0 42 -12 47q-12 4 -67.5 9t-88.5 5q-18 0 -27 -1
l-39 -3l-45 -252h86l140 3l5 -9l-14 -47l-170 5h-55l-48 -274q38 -8 98 -6q13 0 45 -1t48.5 0t39 5t35 15t18.5 29l22 70h36zM585 856l-16 -70h-326l17 70h325z" />
    <glyph glyph-name="emacron" unicode="&#x113;" horiz-adv-x="444" 
d="M387 86q-6 -4 -14.5 -9t-14.5 -9q-76 -49 -120 -67t-89 -18q-56 0 -88.5 31t-32.5 84t17.5 120.5t42.5 112.5q29 52 103.5 95t133.5 43q43 0 68 -23.5t25 -63.5q0 -88 -107 -139q-54 -26 -164 -50q-5 -36 -5 -64q0 -39 19 -60.5t54 -21.5q57 0 162 67zM324 368
q0 25 -13 39t-35 14q-37 0 -66 -37t-45 -107l-14 -58l41 12q61 18 96.5 54.5t35.5 82.5zM480 644l-16 -70h-326l17 70h325z" />
    <glyph glyph-name="Ebreve" unicode="&#x114;" horiz-adv-x="611" 
d="M556 168q-14 -59 -34 -168l-167 -3q-35 0 -97.5 2t-105.5 1l-141 -3l5 32l28 3q23 2 32.5 14t15.5 46l87 502q2 14 2 21q0 16 -10 23t-36 8l-46 3l5 32q96 -3 157 -3q35 0 91 1.5t92 1.5l162 -3l10 -6l-25 -152h-32v53q0 42 -12 47q-12 4 -67.5 9t-88.5 5q-18 0 -27 -1
l-39 -3l-45 -252h86l140 3l5 -9l-14 -47l-170 5h-55l-48 -274q38 -8 98 -6q13 0 45 -1t48.5 0t39 5t35 15t18.5 29l22 70h36zM596 887q-36 -132 -198 -132q-73 0 -107.5 30.5t-35.5 101.5h47q4 -38 30.5 -55.5t80.5 -17.5q53 0 85.5 16.5t55.5 56.5h42z" />
    <glyph glyph-name="ebreve" unicode="&#x115;" horiz-adv-x="444" 
d="M387 86q-6 -4 -14.5 -9t-14.5 -9q-76 -49 -120 -67t-89 -18q-56 0 -88.5 31t-32.5 84t17.5 120.5t42.5 112.5q29 52 103.5 95t133.5 43q43 0 68 -23.5t25 -63.5q0 -88 -107 -139q-54 -26 -164 -50q-5 -36 -5 -64q0 -39 19 -60.5t54 -21.5q57 0 162 67zM324 368
q0 25 -13 39t-35 14q-37 0 -66 -37t-45 -107l-14 -58l41 12q61 18 96.5 54.5t35.5 82.5zM479 690q-13 -63 -38 -96q-50 -66 -146 -66q-69 0 -101 42q-30 38 -31 120h43q4 -47 29 -68.5t75 -21.5q48 0 78 21t52 69h39z" />
    <glyph glyph-name="Edotaccent" unicode="&#x116;" horiz-adv-x="611" 
d="M556 168q-14 -59 -34 -168l-167 -3q-35 0 -97.5 2t-105.5 1l-141 -3l5 32l28 3q23 2 32.5 14t15.5 46l87 502q2 14 2 21q0 16 -10 23t-36 8l-46 3l5 32q96 -3 157 -3q35 0 91 1.5t92 1.5l162 -3l10 -6l-25 -152h-32v53q0 42 -12 47q-12 4 -67.5 9t-88.5 5q-18 0 -27 -1
l-39 -3l-45 -252h86l140 3l5 -9l-14 -47l-170 5h-55l-48 -274q38 -8 98 -6q13 0 45 -1t48.5 0t39 5t35 15t18.5 29l22 70h36zM475 827q0 -31 -19.5 -51t-49.5 -20q-25 0 -39.5 15.5t-14.5 41.5q0 31 19.5 52.5t47.5 21.5q25 0 40.5 -17t15.5 -43z" />
    <glyph glyph-name="edotaccent" unicode="&#x117;" horiz-adv-x="444" 
d="M387 86q-6 -4 -14.5 -9t-14.5 -9q-76 -49 -120 -67t-89 -18q-56 0 -88.5 31t-32.5 84t17.5 120.5t42.5 112.5q29 52 103.5 95t133.5 43q43 0 68 -23.5t25 -63.5q0 -88 -107 -139q-54 -26 -164 -50q-5 -36 -5 -64q0 -39 19 -60.5t54 -21.5q57 0 162 67zM324 368
q0 25 -13 39t-35 14q-37 0 -66 -37t-45 -107l-14 -58l41 12q61 18 96.5 54.5t35.5 82.5zM370 615q0 -31 -19.5 -51t-49.5 -20q-25 0 -39.5 15.5t-14.5 41.5q0 31 19.5 52.5t47.5 21.5q25 0 40.5 -17t15.5 -43z" />
    <glyph glyph-name="Eogonek" unicode="&#x118;" horiz-adv-x="611" 
d="M556 168q-14 -59 -34 -168h-11q-75 -3 -121 -63q-27 -35 -32 -69q-3 -19 7.5 -26t29.5 -7q24 0 65 29l23 16l7 -30q-92 -100 -157 -100q-33 0 -48 26t-6 75q12 72 128 146h-52q-35 0 -97.5 2t-105.5 1l-141 -3l5 32l28 3q23 2 32.5 14t15.5 46l87 502q2 14 2 21
q0 16 -10 23t-36 8l-46 3l5 32q96 -3 157 -3q35 0 91 1.5t92 1.5l162 -3l10 -6l-25 -152h-32v53q0 42 -12 47q-12 4 -67.5 9t-88.5 5q-18 0 -27 -1l-39 -3l-45 -252h86l140 3l5 -9l-14 -47l-170 5h-55l-48 -274q38 -8 98 -6q13 0 45 -1t48.5 0t39 5t35 15t18.5 29l22 70h36z
" />
    <glyph glyph-name="eogonek" unicode="&#x119;" horiz-adv-x="444" 
d="M387 86q-6 -4 -14.5 -9t-14.5 -9q-112 -74 -150 -116q-37 -40 -44 -84q-3 -19 7.5 -26t29.5 -7q24 0 65 29l23 16l6 -30q-92 -100 -156 -100q-33 0 -48 26t-6 75q11 68 113 137q-27 -5 -49 -5q-56 0 -88.5 31t-32.5 84t17.5 120.5t42.5 112.5q29 52 103.5 95t133.5 43
q43 0 68 -23.5t25 -63.5q0 -88 -107 -139q-54 -26 -164 -50q-5 -36 -5 -64q0 -39 19 -60.5t54 -21.5q57 0 162 67zM324 368q0 25 -13 39t-35 14q-37 0 -66 -37t-45 -107l-14 -58l41 12q61 18 96.5 54.5t35.5 82.5z" />
    <glyph glyph-name="Ecaron" unicode="&#x11a;" horiz-adv-x="611" 
d="M556 168q-14 -59 -34 -168l-167 -3q-35 0 -97.5 2t-105.5 1l-141 -3l5 32l28 3q23 2 32.5 14t15.5 46l87 502q2 14 2 21q0 16 -10 23t-36 8l-46 3l5 32q96 -3 157 -3q35 0 91 1.5t92 1.5l162 -3l10 -6l-25 -152h-32v53q0 42 -12 47q-12 4 -67.5 9t-88.5 5q-18 0 -27 -1
l-39 -3l-45 -252h86l140 3l5 -9l-14 -47l-170 5h-55l-48 -274q38 -8 98 -6q13 0 45 -1t48.5 0t39 5t35 15t18.5 29l22 70h36zM618 892l-173 -141h-87l-93 141h55l95 -77l142 77h61z" />
    <glyph glyph-name="ecaron" unicode="&#x11b;" horiz-adv-x="444" 
d="M387 86q-6 -4 -14.5 -9t-14.5 -9q-76 -49 -120 -67t-89 -18q-56 0 -88.5 31t-32.5 84t17.5 120.5t42.5 112.5q29 52 103.5 95t133.5 43q43 0 68 -23.5t25 -63.5q0 -88 -107 -139q-54 -26 -164 -50q-5 -36 -5 -64q0 -39 19 -60.5t54 -21.5q57 0 162 67zM324 368
q0 25 -13 39t-35 14q-37 0 -66 -37t-45 -107l-14 -58l41 12q61 18 96.5 54.5t35.5 82.5zM497 696l-162 -174h-82l-88 174h50l91 -97l135 97h56z" />
    <glyph glyph-name="Gcircumflex" unicode="&#x11c;" horiz-adv-x="778" 
d="M745 253l-25 -2q-20 -1 -30 -11t-15 -34l-20 -96q-8 -38 -3 -62q-108 -39 -164.5 -52t-119.5 -13q-151 0 -228 77q-68 67 -68 196q0 138 74.5 245.5t205.5 159.5q87 34 171 34q103 0 199 -43q-32 -114 -38 -168h-35l5 90q1 23 -51 41t-121 18q-105 0 -166 -53
q-47 -40 -76.5 -129.5t-29.5 -191.5q0 -111 48 -170t138 -59q69 0 121 29l32 141q3 12 3 23q0 27 -44 28l-60 2l5 33q91 -3 149 -3l148 3zM666 751h-55l-95 77l-142 -77h-61l173 141h87z" />
    <glyph glyph-name="gcircumflex" unicode="&#x11d;" horiz-adv-x="500" 
d="M529 440l-10 -50l-88 4q11 -33 11 -59q0 -97 -82 -150q-25 -16 -75 -36q-58 -21 -58 -46q0 -18 23 -34l85 -60q78 -55 78 -114q0 -72 -72 -119t-182 -47q-95 0 -152 34t-57 91t59 99q40 29 133 59q-24 18 -26 49l4 20l92 56q-86 1 -122 32q-36 32 -36 97q0 88 66 138
q37 27 86.5 46t83.5 19q43 0 90 -20q39 -4 73 -3l71 3zM334 340q0 41 -17.5 63t-50.5 22q-51 0 -79 -46q-13 -20 -21.5 -56.5t-8.5 -66.5q0 -39 19.5 -61.5t53.5 -22.5q46 0 75 46.5t29 121.5zM309 -144q0 22 -14.5 41t-49.5 43l-82 55l-28 -13q-96 -45 -96 -113
q0 -47 38.5 -75.5t100.5 -28.5q56 0 93.5 26t37.5 65zM455 522h-51l-88 95l-131 -95h-57l160 174h81z" />
    <glyph glyph-name="Gbreve" unicode="&#x11e;" horiz-adv-x="778" 
d="M745 253l-25 -2q-20 -1 -30 -11t-15 -34l-20 -96q-8 -38 -3 -62q-108 -39 -164.5 -52t-119.5 -13q-151 0 -228 77q-68 67 -68 196q0 138 74.5 245.5t205.5 159.5q87 34 171 34q103 0 199 -43q-32 -114 -38 -168h-35l5 90q1 23 -51 41t-121 18q-105 0 -166 -53
q-47 -40 -76.5 -129.5t-29.5 -191.5q0 -111 48 -170t138 -59q69 0 121 29l32 141q3 12 3 23q0 27 -44 28l-60 2l5 33q91 -3 149 -3l148 3zM697 887q-36 -132 -198 -132q-73 0 -107.5 30.5t-35.5 101.5h47q4 -38 30.5 -55.5t80.5 -17.5q53 0 85.5 16.5t55.5 56.5h42z" />
    <glyph glyph-name="gbreve" unicode="&#x11f;" horiz-adv-x="500" 
d="M529 440l-10 -50l-88 4q11 -33 11 -59q0 -97 -82 -150q-25 -16 -75 -36q-58 -21 -58 -46q0 -18 23 -34l85 -60q78 -55 78 -114q0 -72 -72 -119t-182 -47q-95 0 -152 34t-57 91t59 99q40 29 133 59q-24 18 -26 49l4 20l92 56q-86 1 -122 32q-36 32 -36 97q0 88 66 138
q37 27 86.5 46t83.5 19q43 0 90 -20q39 -4 73 -3l71 3zM334 340q0 41 -17.5 63t-50.5 22q-51 0 -79 -46q-13 -20 -21.5 -56.5t-8.5 -66.5q0 -39 19.5 -61.5t53.5 -22.5q46 0 75 46.5t29 121.5zM309 -144q0 22 -14.5 41t-49.5 43l-82 55l-28 -13q-96 -45 -96 -113
q0 -47 38.5 -75.5t100.5 -28.5q56 0 93.5 26t37.5 65zM485 690q-13 -63 -38 -96q-50 -66 -146 -66q-69 0 -101 42q-30 38 -31 120h43q4 -47 29 -68.5t75 -21.5q48 0 78 21t52 69h39z" />
    <glyph glyph-name="Gdotaccent" unicode="&#x120;" horiz-adv-x="778" 
d="M745 253l-25 -2q-20 -1 -30 -11t-15 -34l-20 -96q-8 -38 -3 -62q-108 -39 -164.5 -52t-119.5 -13q-151 0 -228 77q-68 67 -68 196q0 138 74.5 245.5t205.5 159.5q87 34 171 34q103 0 199 -43q-32 -114 -38 -168h-35l5 90q1 23 -51 41t-121 18q-105 0 -166 -53
q-47 -40 -76.5 -129.5t-29.5 -191.5q0 -111 48 -170t138 -59q69 0 121 29l32 141q3 12 3 23q0 27 -44 28l-60 2l5 33q91 -3 149 -3l148 3zM576 827q0 -31 -19.5 -51t-49.5 -20q-25 0 -39.5 15.5t-14.5 41.5q0 31 19.5 52.5t47.5 21.5q25 0 40.5 -17t15.5 -43z" />
    <glyph glyph-name="gdotaccent" unicode="&#x121;" horiz-adv-x="500" 
d="M529 440l-10 -50l-88 4q11 -33 11 -59q0 -97 -82 -150q-25 -16 -75 -36q-58 -21 -58 -46q0 -18 23 -34l85 -60q78 -55 78 -114q0 -72 -72 -119t-182 -47q-95 0 -152 34t-57 91t59 99q40 29 133 59q-24 18 -26 49l4 20l92 56q-86 1 -122 32q-36 32 -36 97q0 88 66 138
q37 27 86.5 46t83.5 19q43 0 90 -20q39 -4 73 -3l71 3zM334 340q0 41 -17.5 63t-50.5 22q-51 0 -79 -46q-13 -20 -21.5 -56.5t-8.5 -66.5q0 -39 19.5 -61.5t53.5 -22.5q46 0 75 46.5t29 121.5zM309 -144q0 22 -14.5 41t-49.5 43l-82 55l-28 -13q-96 -45 -96 -113
q0 -47 38.5 -75.5t100.5 -28.5q56 0 93.5 26t37.5 65zM376 615q0 -31 -19.5 -51t-49.5 -20q-25 0 -39.5 15.5t-14.5 41.5q0 31 19.5 52.5t47.5 21.5q25 0 40.5 -17t15.5 -43z" />
    <glyph glyph-name="Gcommaaccent" unicode="&#x122;" horiz-adv-x="778" 
d="M745 253l-25 -2q-20 -1 -30 -11t-15 -34l-20 -96q-8 -38 -3 -62q-108 -39 -164.5 -52t-119.5 -13q-151 0 -228 77q-68 67 -68 196q0 138 74.5 245.5t205.5 159.5q87 34 171 34q103 0 199 -43q-32 -114 -38 -168h-35l5 90q1 23 -51 41t-121 18q-105 0 -166 -53
q-47 -40 -76.5 -129.5t-29.5 -191.5q0 -111 48 -170t138 -59q69 0 121 29l32 141q3 12 3 23q0 27 -44 28l-60 2l5 33q91 -3 149 -3l148 3zM436 -83q-21 -38 -32.5 -58.5t-28 -41.5t-22.5 -27t-35 -36l-45 -25l-14 10q30 51 37.5 74t18.5 89q27 2 109 28z" />
    <glyph glyph-name="gcommaaccent" unicode="&#x123;" horiz-adv-x="500" 
d="M408 723q-30 -51 -37.5 -74t-18.5 -89q-27 -2 -109 -28l-12 13q21 38 32.5 58.5t28 41.5t22.5 27t35 36l45 25zM529 440l-10 -50l-88 4q11 -33 11 -59q0 -97 -82 -150q-25 -16 -75 -36q-58 -21 -58 -46q0 -18 23 -34l85 -60q78 -55 78 -114q0 -72 -72 -119t-182 -47
q-95 0 -152 34t-57 91t59 99q40 29 133 59q-24 18 -26 49l4 20l92 56q-86 1 -122 32q-36 32 -36 97q0 88 66 138q37 27 86.5 46t83.5 19q43 0 90 -20q39 -4 73 -3l71 3zM334 340q0 41 -17.5 63t-50.5 22q-51 0 -79 -46q-13 -20 -21.5 -56.5t-8.5 -66.5q0 -39 19.5 -61.5
t53.5 -22.5q46 0 75 46.5t29 121.5zM309 -144q0 22 -14.5 41t-49.5 43l-82 55l-28 -13q-96 -45 -96 -113q0 -47 38.5 -75.5t100.5 -28.5q56 0 93.5 26t37.5 65z" />
    <glyph glyph-name="Hcircumflex" unicode="&#x124;" horiz-adv-x="778" 
d="M723 -3q-102 3 -168 3l-148 -3l5 35l49 3q25 1 33.5 16t20.5 81l37 206h-291l-41 -236q-4 -20 -4 -39q0 -25 38 -28l49 -3l-5 -35q-91 3 -150 3l-160 -3l5 35l49 3q26 2 34.5 17t19.5 80l72 409q8 50 8 73q0 15 -8 21.5t-30 7.5l-51 3l5 35q96 -3 157 -3l158 3l-5 -35
l-42 -3q-26 -2 -36.5 -12.5t-16.5 -42.5l-39 -202h294l25 155q8 50 8 76q0 23 -38 26l-51 3l5 35q93 -3 152 -3l163 3l-5 -35l-42 -3q-27 -2 -37 -12t-16 -43l-87 -486q-4 -19 -4 -38q0 -28 38 -29l55 -3zM641 751h-55l-95 77l-142 -77h-61l173 141h87z" />
    <glyph glyph-name="hcircumflex" unicode="&#x125;" 
d="M522 79q-79 -54 -119.5 -75t-65.5 -21q-13 0 -22 12t-9 29q0 44 48 213q25 85 25 115q0 29 -20 29q-33 0 -81.5 -51t-83.5 -122q-42 -85 -56 -204q-64 -4 -106 -17l-10 11q28 57 80 336q48 255 48 293q0 25 -34 25h-45l7 28q135 20 198 46l10 -9q-2 -10 -8 -31.5
t-9 -33.5l-89 -408q63 101 141 163t142 62q17 0 27.5 -12t10.5 -32q0 -21 -4.5 -42.5t-14 -53t-12.5 -41.5l-38 -144q-8 -32 -8 -63q0 -16 12 -16q13 0 61 30l16 10zM582 796h-55l-95 77l-142 -77h-61l173 141h87z" />
    <glyph glyph-name="Hbar" unicode="&#x126;" horiz-adv-x="778" 
d="M809 483h-102l-68 -381q-4 -19 -4 -38q0 -28 38 -29l55 -3l-5 -35q-102 3 -168 3l-148 -3l5 35l49 3q25 1 33.5 16t20.5 81l37 206h-291l-41 -236q-4 -20 -4 -39q0 -25 38 -28l49 -3l-5 -35q-91 3 -150 3l-160 -3l5 35l49 3q26 2 34.5 17t19.5 80l62 351h-101l10 56h101
v2q8 50 8 73q0 15 -8 21.5t-30 7.5l-51 3l5 35q96 -3 157 -3l158 3l-5 -35l-42 -3q-26 -2 -36.5 -12.5t-16.5 -42.5l-9 -49h289v2q8 50 8 76q0 23 -38 26l-51 3l5 35q93 -3 152 -3l163 3l-5 -35l-42 -3q-27 -2 -37 -12t-16 -43l-9 -49h102zM562 386l16 97h-291l-19 -97h294z
" />
    <glyph glyph-name="hbar" unicode="&#x127;" horiz-adv-x="644" 
d="M612 79q-79 -54 -119.5 -75t-65.5 -21q-13 0 -22 12t-9 29q0 44 48 213q25 85 25 115q0 29 -20 29q-33 0 -81.5 -51t-83.5 -122q-42 -85 -56 -204q-64 -4 -106 -17l-10 11q28 57 80 336l34 192h-87l17 70h81q3 22 3 31q0 25 -34 25h-45l7 28q135 20 198 46l10 -9
q-2 -10 -8 -31.5t-9 -33.5l-12 -56h134l-16 -70h-133l-62 -282q63 101 141 163t142 62q17 0 27.5 -12t10.5 -32q0 -21 -4.5 -42.5t-14 -53t-12.5 -41.5l-38 -144q-8 -32 -8 -63q0 -16 12 -16q13 0 61 30l16 10z" />
    <glyph glyph-name="Itilde" unicode="&#x128;" horiz-adv-x="389" 
d="M319 -3q-99 3 -163 3l-157 -3l4 35l49 3q25 2 34 18t20 79l72 409q9 54 9 72q0 27 -38 30l-52 3l4 35q93 -3 152 -3l159 3l-4 -35l-45 -3q-25 -2 -33.5 -9.5t-12.5 -34.5l-87 -499q-3 -16 -3 -34q0 -16 8.5 -23t28.5 -8l59 -3zM471 881q-31 -119 -115 -119q-26 0 -82 22
q-54 22 -76 22q-15 0 -25 -9.5t-21 -34.5h-40q27 119 118 119q34 0 76 -19q51 -23 75 -23q30 0 49 42h41z" />
    <glyph glyph-name="itilde" unicode="&#x129;" horiz-adv-x="333" 
d="M293 84q-4 -3 -12.5 -8.5t-15.5 -11.5q-113 -81 -166 -81q-14 0 -23 12t-9 31q0 24 6 52l59 241q8 33 8 41q0 10 -10 10q-7 0 -30.5 -11.5t-38.5 -22.5l-22 -16l-13 26l63 47q102 76 150 76q11 0 18 -10t7 -27q0 -33 -9 -67l-54 -196q-20 -71 -20 -93q0 -11 11 -11
q14 0 62 30l27 17zM419 669q-31 -119 -115 -119q-26 0 -82 22q-54 22 -76 22q-15 0 -25 -9.5t-21 -34.5h-40q27 119 118 119q34 0 76 -19q51 -23 75 -23q30 0 49 42h41z" />
    <glyph glyph-name="Imacron" unicode="&#x12a;" horiz-adv-x="389" 
d="M319 -3q-99 3 -163 3l-157 -3l4 35l49 3q25 2 34 18t20 79l72 409q9 54 9 72q0 27 -38 30l-52 3l4 35q93 -3 152 -3l159 3l-4 -35l-45 -3q-25 -2 -33.5 -9.5t-12.5 -34.5l-87 -499q-3 -16 -3 -34q0 -16 8.5 -23t28.5 -8l59 -3zM463 856l-16 -70h-326l17 70h325z" />
    <glyph glyph-name="imacron" unicode="&#x12b;" horiz-adv-x="333" 
d="M293 84q-4 -3 -12.5 -8.5t-15.5 -11.5q-113 -81 -166 -81q-14 0 -23 12t-9 31q0 24 6 52l59 241q8 33 8 41q0 10 -10 10q-7 0 -30.5 -11.5t-38.5 -22.5l-22 -16l-13 26l63 47q102 76 150 76q11 0 18 -10t7 -27q0 -33 -9 -67l-54 -196q-20 -71 -20 -93q0 -11 11 -11
q14 0 62 30l27 17zM411 644l-16 -70h-326l17 70h325z" />
    <glyph glyph-name="Ibreve" unicode="&#x12c;" horiz-adv-x="389" 
d="M319 -3q-99 3 -163 3l-157 -3l4 35l49 3q25 2 34 18t20 79l72 409q9 54 9 72q0 27 -38 30l-52 3l4 35q93 -3 152 -3l159 3l-4 -35l-45 -3q-25 -2 -33.5 -9.5t-12.5 -34.5l-87 -499q-3 -16 -3 -34q0 -16 8.5 -23t28.5 -8l59 -3zM474 887q-36 -132 -198 -132
q-73 0 -107.5 30.5t-35.5 101.5h47q4 -38 30.5 -55.5t80.5 -17.5q53 0 85.5 16.5t55.5 56.5h42z" />
    <glyph glyph-name="ibreve" unicode="&#x12d;" horiz-adv-x="333" 
d="M293 84q-4 -3 -12.5 -8.5t-15.5 -11.5q-113 -81 -166 -81q-14 0 -23 12t-9 31q0 24 6 52l59 241q8 33 8 41q0 10 -10 10q-7 0 -30.5 -11.5t-38.5 -22.5l-22 -16l-13 26l63 47q102 76 150 76q11 0 18 -10t7 -27q0 -33 -9 -67l-54 -196q-20 -71 -20 -93q0 -11 11 -11
q14 0 62 30l27 17zM410 690q-13 -63 -38 -96q-50 -66 -146 -66q-69 0 -101 42q-30 38 -31 120h43q4 -47 29 -68.5t75 -21.5q48 0 78 21t52 69h39z" />
    <glyph glyph-name="Iogonek" unicode="&#x12e;" horiz-adv-x="389" 
d="M319 -3h-11q-76 3 -125 -60q-25 -32 -32 -69q-3 -19 7.5 -26t29.5 -7q25 0 66 29l22 16l7 -30q-92 -100 -157 -100q-33 0 -48 26t-6 75q14 73 131 149h-47l-157 -3l4 35l49 3q25 2 34 18t20 79l72 409q9 54 9 72q0 27 -38 30l-52 3l4 35q93 -3 152 -3l159 3l-4 -35
l-45 -3q-25 -2 -33.5 -9.5t-12.5 -34.5l-87 -499q-3 -16 -3 -34q0 -16 8.5 -23t28.5 -8l59 -3z" />
    <glyph glyph-name="iogonek" unicode="&#x12f;" horiz-adv-x="333" 
d="M293 84q-4 -3 -12.5 -8.5t-15.5 -11.5q-110 -84 -130 -113q-27 -38 -35 -83q-3 -19 7.5 -26t29.5 -7q24 0 65 29l23 16l7 -30q-92 -100 -157 -100q-33 0 -48 26t-6 75q14 79 81 132h-3q-14 0 -23 12t-9 31q0 24 6 52l59 241q8 33 8 41q0 10 -10 10q-7 0 -30.5 -11.5
t-38.5 -22.5l-22 -16l-13 26l63 47q102 76 150 76q11 0 18 -10t7 -27q0 -33 -9 -67l-54 -196q-20 -71 -20 -93q0 -11 11 -11q14 0 62 30l27 17zM301 615q0 -31 -19.5 -51t-49.5 -20q-25 0 -39.5 15.5t-14.5 41.5q0 31 19.5 52.5t47.5 21.5q25 0 40.5 -17t15.5 -43z" />
    <glyph glyph-name="Idotaccent" unicode="&#x130;" horiz-adv-x="389" 
d="M319 -3q-99 3 -163 3l-157 -3l4 35l49 3q25 2 34 18t20 79l72 409q9 54 9 72q0 27 -38 30l-52 3l4 35q93 -3 152 -3l159 3l-4 -35l-45 -3q-25 -2 -33.5 -9.5t-12.5 -34.5l-87 -499q-3 -16 -3 -34q0 -16 8.5 -23t28.5 -8l59 -3zM353 827q0 -31 -19.5 -51t-49.5 -20
q-25 0 -39.5 15.5t-14.5 41.5q0 31 19.5 52.5t47.5 21.5q25 0 40.5 -17t15.5 -43z" />
    <glyph glyph-name="dotlessi" unicode="&#x131;" horiz-adv-x="333" 
d="M293 84q-4 -3 -12.5 -8.5t-15.5 -11.5q-113 -81 -166 -81q-14 0 -23 12t-9 31q0 24 6 52l59 241q8 33 8 41q0 10 -10 10q-7 0 -30.5 -11.5t-38.5 -22.5l-22 -16l-13 26l63 47q102 76 150 76q11 0 18 -10t7 -27q0 -33 -9 -67l-54 -196q-20 -71 -20 -93q0 -11 11 -11
q14 0 62 30l27 17z" />
    <glyph glyph-name="Jcircumflex" unicode="&#x134;" horiz-adv-x="389" 
d="M412 646l-46 -3q-25 -2 -33.5 -9.5t-12.5 -34.5l-98 -556q-17 -98 -77.5 -174t-121.5 -76q-21 0 -52 10v35q19 -8 36 -8q38 0 56 39q8 16 21 96l96 576q10 58 10 73q0 26 -38 29l-51 3l5 35q93 -3 153 -3l158 3zM445 751h-55l-95 77l-142 -77h-61l173 141h87z" />
    <glyph glyph-name="jcircumflex" unicode="&#x135;" horiz-adv-x="333" 
d="M265 365l-67 -274q-48 -194 -110 -279q-58 -83 -118 -83q-14 0 -34 5q8 44 10 79l14 3q20 -33 44 -33q30 0 46 78l86 408q14 66 14 88q0 13 -10 13q-7 0 -30.5 -11.5t-38.5 -22.5l-22 -16l-13 26l63 47q102 76 149 76q26 0 26 -40q0 -27 -9 -64zM390 522h-51l-88 95
l-131 -95h-57l160 174h81z" />
    <glyph glyph-name="Kcommaaccent" unicode="&#x136;" horiz-adv-x="722" 
d="M684 -3q-56 3 -92 3l-94 -3q-8 15 -49 73l-129 183q-16 23 -59 75l-40 -228q-3 -18 -3 -30q0 -19 7.5 -26.5t29.5 -8.5l49 -3l-4 -35q-91 3 -150 3l-160 -3l4 35l49 3q25 2 34 18t20 79l72 409q9 51 9 72q0 27 -38 30l-52 3l4 35q93 -3 152 -3l159 3l-4 -35l-45 -3
q-25 -2 -33.5 -9.5t-12.5 -34.5l-47 -265q24 13 109 92l140 131q9 6 35.5 38t31.5 37q5 6 7.5 12.5t3 9t0 13t-0.5 14.5q48 -3 79 -3l80 3v-33h-35q-24 0 -82 -52l-245 -223l196 -272q30 -41 41 -52t27 -13l39 -6zM384 -83q-21 -38 -32.5 -58.5t-28 -41.5t-22.5 -27t-35 -36
l-45 -25l-14 10q30 51 37.5 74t18.5 89q27 2 109 28z" />
    <glyph glyph-name="kcommaaccent" unicode="&#x137;" 
d="M520 73l-44 -31q-83 -59 -122 -59q-17 0 -31.5 21t-34.5 76l-57 155l-31 -34q-16 -17 -21 -30.5t-14 -60.5q-13 -64 -16 -106q-32 -2 -105 -18l-10 9q27 69 78 339q48 255 48 293q0 25 -34 25h-45l7 28q135 20 198 46l10 -9q-11 -38 -17 -65l-95 -431q58 79 147 164
q88 84 154 84q21 0 43 -9l-20 -70q-29 8 -49 8q-78 0 -146 -80l65 -173q14 -35 30 -57.5t29 -22.5t46 20l27 17zM297 -83q-21 -38 -32.5 -58.5t-28 -41.5t-22.5 -27t-35 -36l-45 -25l-14 10q30 51 37.5 74t18.5 89q27 2 109 28z" />
    <glyph glyph-name="Lacute" unicode="&#x139;" horiz-adv-x="611" 
d="M578 174q-28 -139 -34 -174l-172 -3q-39 0 -100.5 1.5t-100.5 1.5l-145 -3l4 32l28 3q22 2 31 14t15 46l82 449q9 48 9 74q0 27 -38 28l-52 3l4 35q93 -3 152 -3l159 3l-4 -35l-45 -3q-25 -1 -33 -9t-13 -35l-99 -543q29 -6 62 -6q96 0 174 6q25 2 37.5 11.5t19.5 30.5
l23 76h36zM415 858q0 -23 -38 -39l-167 -72h-53l152 123q29 22 57 24q20 0 34.5 -10.5t14.5 -25.5z" />
    <glyph glyph-name="lacute" unicode="&#x13a;" horiz-adv-x="333" 
d="M291 87q-88 -64 -125.5 -84t-69.5 -20t-32 52q0 38 16 111l99 450q4 16 4 31q0 25 -35 25h-45l7 28q135 20 198 46l10 -9q-12 -49 -17 -65l-107 -482q-12 -52 -12 -91q0 -14 12 -14q20 0 53 26l30 23zM402 903q0 -23 -38 -39l-167 -72h-53l152 123q29 22 57 24
q20 0 34.5 -10.5t14.5 -25.5z" />
    <glyph glyph-name="Lcommaaccent" unicode="&#x13b;" horiz-adv-x="611" 
d="M578 174q-28 -139 -34 -174l-172 -3q-39 0 -100.5 1.5t-100.5 1.5l-145 -3l4 32l28 3q22 2 31 14t15 46l82 449q9 48 9 74q0 27 -38 28l-52 3l4 35q93 -3 152 -3l159 3l-4 -35l-45 -3q-25 -1 -33 -9t-13 -35l-99 -543q29 -6 62 -6q96 0 174 6q25 2 37.5 11.5t19.5 30.5
l23 76h36zM371 -83q-21 -38 -32.5 -58.5t-28 -41.5t-22.5 -27t-35 -36l-45 -25l-14 10q30 51 37.5 74t18.5 89q27 2 109 28z" />
    <glyph glyph-name="lcommaaccent" unicode="&#x13c;" horiz-adv-x="333" 
d="M291 87q-88 -64 -125.5 -84t-69.5 -20t-32 52q0 38 16 111l99 450q4 16 4 31q0 25 -35 25h-45l7 28q135 20 198 46l10 -9q-12 -49 -17 -65l-107 -482q-12 -52 -12 -91q0 -14 12 -14q20 0 53 26l30 23zM195 -83q-21 -38 -32.5 -58.5t-28 -41.5t-22.5 -27t-35 -36l-45 -25
l-14 10q30 51 37.5 74t18.5 89q27 2 109 28z" />
    <glyph glyph-name="Lcaron" unicode="&#x13d;" horiz-adv-x="611" 
d="M578 174q-28 -139 -34 -174l-172 -3q-39 0 -100.5 1.5t-100.5 1.5l-145 -3l4 32l28 3q22 2 31 14t15 46l82 449q9 48 9 74q0 27 -38 28l-52 3l4 35q93 -3 152 -3l159 3l-4 -35l-45 -3q-25 -1 -33 -9t-13 -35l-99 -543q29 -6 62 -6q96 0 174 6q25 2 37.5 11.5t19.5 30.5
l23 76h36zM611 668q-21 -38 -32.5 -58.5t-28 -41.5t-22.5 -27t-35 -36l-45 -25l-14 10q30 51 37.5 74t18.5 89q27 2 109 28z" />
    <glyph glyph-name="lcaron" unicode="&#x13e;" horiz-adv-x="333" 
d="M291 87q-88 -64 -125.5 -84t-69.5 -20t-32 52q0 38 16 111l99 450q4 16 4 31q0 25 -35 25h-45l7 28q135 20 198 46l10 -9q-12 -49 -17 -65l-107 -482q-12 -52 -12 -91q0 -14 12 -14q20 0 53 26l30 23zM509 713q-21 -38 -32.5 -58.5t-28 -41.5t-22.5 -27t-35 -36l-45 -25
l-14 10q30 51 37.5 74t18.5 89q27 2 109 28z" />
    <glyph glyph-name="Ldot" unicode="&#x13f;" horiz-adv-x="611" 
d="M578 174q-28 -139 -34 -174l-172 -3q-39 0 -100.5 1.5t-100.5 1.5l-145 -3l4 32l28 3q22 2 31 14t15 46l82 449q9 48 9 74q0 27 -38 28l-52 3l4 35q93 -3 152 -3l159 3l-4 -35l-45 -3q-25 -1 -33 -9t-13 -35l-99 -543q29 -6 62 -6q96 0 174 6q25 2 37.5 11.5t19.5 30.5
l23 76h36zM588 386q0 -31 -19.5 -51t-49.5 -20q-25 0 -39.5 15.5t-14.5 41.5q0 31 19.5 52.5t47.5 21.5q25 0 40.5 -17t15.5 -43z" />
    <glyph glyph-name="ldot" unicode="&#x140;" horiz-adv-x="333" 
d="M291 87q-88 -64 -125.5 -84t-69.5 -20t-32 52q0 38 16 111l99 450q4 16 4 31q0 25 -35 25h-45l7 28q135 20 198 46l10 -9q-12 -49 -17 -65l-107 -482q-12 -52 -12 -91q0 -14 12 -14q20 0 53 26l30 23zM414 386q0 -31 -19.5 -51t-49.5 -20q-25 0 -39.5 15.5t-14.5 41.5
q0 31 19.5 52.5t47.5 21.5q25 0 40.5 -17t15.5 -43z" />
    <glyph glyph-name="Lslash" unicode="&#x141;" horiz-adv-x="611" 
d="M578 174q-28 -139 -34 -174l-172 -3q-39 0 -100.5 1.5t-100.5 1.5l-145 -3l4 32l28 3q22 2 31 14t15 46l36 196l-85 -57l-15 34l109 74l37 202q9 48 9 74q0 27 -38 28l-52 3l4 35q93 -3 152 -3l159 3l-4 -35l-45 -3q-25 -1 -33 -9t-13 -35l-31 -167l140 97l15 -33
l-164 -115l-59 -325q29 -6 62 -6q96 0 174 6q25 2 37.5 11.5t19.5 30.5l23 76h36z" />
    <glyph glyph-name="lslash" unicode="&#x142;" horiz-adv-x="333" 
d="M379 536l-124 -90l-61 -276q-12 -52 -12 -91q0 -14 12 -14q20 0 53 26l30 23l14 -27q-88 -64 -125.5 -84t-69.5 -20t-32 52q0 38 16 111l47 215l-75 -54l-15 34l102 73l40 182q4 16 4 31q0 25 -35 25h-45l7 28q135 20 198 46l10 -9q-12 -49 -17 -65l-34 -153l97 70z" />
    <glyph glyph-name="Nacute" unicode="&#x143;" horiz-adv-x="778" 
d="M829 681l-6 -32l-37 -3q-24 -3 -34 -10q-10 -9 -30 -108l-86 -428q-8 -36 -16 -103h-85l-310 537l-73 -396q-8 -43 -8 -62q0 -40 36 -41l51 -3l-5 -35q-68 3 -112 3l-116 -3l2 35l48 3q16 1 25 13t15 43q38 193 98 491q2 8 -9 23t-24 24q-24 15 -50 17l-39 3l3 32
q65 -3 107 -3l108 3l314 -539l74 400q6 38 6 70q0 31 -46 34l-42 3l5 32q72 -3 118 -3zM623 858q0 -23 -38 -39l-167 -72h-53l152 123q29 22 57 24q20 0 34.5 -10.5t14.5 -25.5z" />
    <glyph glyph-name="nacute" unicode="&#x144;" 
d="M521 80q-5 -4 -13.5 -10t-15.5 -11q-102 -76 -151 -76q-16 0 -26 12t-10 30q0 44 48 212q25 85 25 112q0 21 -20 21q-36 0 -92 -68t-85 -148q-26 -74 -36 -150q-64 -4 -106 -17l-10 11q35 104 60 209t25 146q0 17 -11 17q-16 0 -41 -17l-32 -22l-13 27l84 62
q67 49 102 49q27 0 27 -30q0 -36 -34 -157l-17 -60q42 71 87 122q51 55 105.5 90t89.5 35q17 0 28 -11.5t11 -30.5q0 -22 -16 -83l-48 -184q-13 -52 -13 -78q0 -17 11 -17q12 0 45 22l29 20zM455 654q0 -15 -7.5 -25t-28.5 -22l-154 -89h-49l141 151q29 30 51 30
q20 0 33.5 -13t13.5 -32z" />
    <glyph glyph-name="Ncommaaccent" unicode="&#x145;" horiz-adv-x="778" 
d="M829 681l-6 -32l-37 -3q-24 -3 -34 -10q-10 -9 -30 -108l-86 -428q-8 -36 -16 -103h-85l-310 537l-73 -396q-8 -43 -8 -62q0 -40 36 -41l51 -3l-5 -35q-68 3 -112 3l-116 -3l2 35l48 3q16 1 25 13t15 43q38 193 98 491q2 8 -9 23t-24 24q-24 15 -50 17l-39 3l3 32
q65 -3 107 -3l108 3l314 -539l74 400q6 38 6 70q0 31 -46 34l-42 3l5 32q72 -3 118 -3zM418 -83q-21 -38 -32.5 -58.5t-28 -41.5t-22.5 -27t-35 -36l-45 -25l-14 10q30 51 37.5 74t18.5 89q27 2 109 28z" />
    <glyph glyph-name="ncommaaccent" unicode="&#x146;" 
d="M521 80q-5 -4 -13.5 -10t-15.5 -11q-102 -76 -151 -76q-16 0 -26 12t-10 30q0 44 48 212q25 85 25 112q0 21 -20 21q-36 0 -92 -68t-85 -148q-26 -74 -36 -150q-64 -4 -106 -17l-10 11q35 104 60 209t25 146q0 17 -11 17q-16 0 -41 -17l-32 -22l-13 27l84 62
q67 49 102 49q27 0 27 -30q0 -36 -34 -157l-17 -60q42 71 87 122q51 55 105.5 90t89.5 35q17 0 28 -11.5t11 -30.5q0 -22 -16 -83l-48 -184q-13 -52 -13 -78q0 -17 11 -17q12 0 45 22l29 20zM298 -83q-21 -38 -32.5 -58.5t-28 -41.5t-22.5 -27t-35 -36l-45 -25l-14 10
q30 51 37.5 74t18.5 89q27 2 109 28z" />
    <glyph glyph-name="Ncaron" unicode="&#x147;" horiz-adv-x="778" 
d="M829 681l-6 -32l-37 -3q-24 -3 -34 -10q-10 -9 -30 -108l-86 -428q-8 -36 -16 -103h-85l-310 537l-73 -396q-8 -43 -8 -62q0 -40 36 -41l51 -3l-5 -35q-68 3 -112 3l-116 -3l2 35l48 3q16 1 25 13t15 43q38 193 98 491q2 8 -9 23t-24 24q-24 15 -50 17l-39 3l3 32
q65 -3 107 -3l108 3l314 -539l74 400q6 38 6 70q0 31 -46 34l-42 3l5 32q72 -3 118 -3zM702 892l-173 -141h-87l-93 141h55l95 -77l142 77h61z" />
    <glyph glyph-name="ncaron" unicode="&#x148;" 
d="M521 80q-5 -4 -13.5 -10t-15.5 -11q-102 -76 -151 -76q-16 0 -26 12t-10 30q0 44 48 212q25 85 25 112q0 21 -20 21q-36 0 -92 -68t-85 -148q-26 -74 -36 -150q-64 -4 -106 -17l-10 11q35 104 60 209t25 146q0 17 -11 17q-16 0 -41 -17l-32 -22l-13 27l84 62
q67 49 102 49q27 0 27 -30q0 -36 -34 -157l-17 -60q42 71 87 122q51 55 105.5 90t89.5 35q17 0 28 -11.5t11 -30.5q0 -22 -16 -83l-48 -184q-13 -52 -13 -78q0 -17 11 -17q12 0 45 22l29 20zM528 696l-162 -174h-82l-88 174h50l91 -97l135 97h56z" />
    <glyph glyph-name="Eng" unicode="&#x14a;" horiz-adv-x="778" 
d="M829 681l-6 -32l-37 -3q-24 -3 -34 -10q-10 -9 -30 -108l-86 -428q-13 -77 -36 -137.5t-66.5 -105t-99.5 -44.5q-91 0 -145 62l66 56q9 -29 33 -45.5t56 -16.5q68 0 91 128l-310 537l-73 -396q-8 -43 -8 -62q0 -40 36 -41l51 -3l-5 -35q-68 3 -112 3l-116 -3l2 35l48 3
q16 1 25 13t15 43q38 193 98 491q2 8 -9 23t-24 24q-24 15 -50 17l-39 3l3 32q65 -3 107 -3l108 3l314 -539l74 400q6 38 6 70q0 31 -46 34l-42 3l5 32q72 -3 118 -3z" />
    <glyph glyph-name="eng" unicode="&#x14b;" 
d="M500 427q0 -22 -16 -83l-48 -184q-23 -87 -58.5 -157t-94 -120t-127.5 -50l8 48q32 0 57.5 18t43.5 54.5t28.5 67.5t23.5 79l36 137q25 85 25 112q0 21 -20 21q-36 0 -92 -68t-85 -148q-26 -74 -36 -150q-64 -4 -106 -17l-10 11q35 104 60 209t25 146q0 17 -11 17
q-16 0 -41 -17l-32 -22l-13 27l84 62q67 49 102 49q27 0 27 -30q0 -36 -34 -157l-17 -60q42 71 87 122q51 55 105.5 90t89.5 35q17 0 28 -11.5t11 -30.5z" />
    <glyph glyph-name="Omacron" unicode="&#x14c;" horiz-adv-x="833" 
d="M794 414q0 -183 -123.5 -307t-305.5 -124q-137 0 -213 74.5t-76 210.5q0 187 117 307t300 120q145 0 228 -83q73 -73 73 -198zM656 435q0 217 -176 217q-127 0 -195 -115q-32 -53 -51.5 -135.5t-19.5 -162.5q0 -105 44 -159t130 -54q128 0 201 127q67 116 67 282z
M686 856l-16 -70h-326l17 70h325z" />
    <glyph glyph-name="omacron" unicode="&#x14d;" 
d="M502 319q0 -48 -13 -102.5t-33 -90.5q-17 -30 -55 -63.5t-80 -52.5q-57 -27 -125 -27q-148 0 -148 152q0 63 24 137q16 49 43.5 83.5t73.5 63.5q79 50 161 50q72 0 112 -39.5t40 -110.5zM388 323q0 46 -22 74t-58 28q-49 0 -85 -51q-26 -38 -43.5 -107t-17.5 -137
q0 -47 22 -75t59 -28q48 0 84 51q26 37 43.5 107t17.5 138zM512 644l-16 -70h-326l17 70h325z" />
    <glyph glyph-name="Obreve" unicode="&#x14e;" horiz-adv-x="833" 
d="M794 414q0 -183 -123.5 -307t-305.5 -124q-137 0 -213 74.5t-76 210.5q0 187 117 307t300 120q145 0 228 -83q73 -73 73 -198zM656 435q0 217 -176 217q-127 0 -195 -115q-32 -53 -51.5 -135.5t-19.5 -162.5q0 -105 44 -159t130 -54q128 0 201 127q67 116 67 282z
M697 887q-36 -132 -198 -132q-73 0 -107.5 30.5t-35.5 101.5h47q4 -38 30.5 -55.5t80.5 -17.5q53 0 85.5 16.5t55.5 56.5h42z" />
    <glyph glyph-name="obreve" unicode="&#x14f;" 
d="M502 319q0 -48 -13 -102.5t-33 -90.5q-17 -30 -55 -63.5t-80 -52.5q-57 -27 -125 -27q-148 0 -148 152q0 63 24 137q16 49 43.5 83.5t73.5 63.5q79 50 161 50q72 0 112 -39.5t40 -110.5zM388 323q0 46 -22 74t-58 28q-49 0 -85 -51q-26 -38 -43.5 -107t-17.5 -137
q0 -47 22 -75t59 -28q48 0 84 51q26 37 43.5 107t17.5 138zM511 690q-13 -63 -38 -96q-50 -66 -146 -66q-69 0 -101 42q-30 38 -31 120h43q4 -47 29 -68.5t75 -21.5q48 0 78 21t52 69h39z" />
    <glyph glyph-name="Ohungarumlaut" unicode="&#x150;" horiz-adv-x="833" 
d="M794 414q0 -183 -123.5 -307t-305.5 -124q-137 0 -213 74.5t-76 210.5q0 187 117 307t300 120q145 0 228 -83q73 -73 73 -198zM656 435q0 217 -176 217q-127 0 -195 -115q-32 -53 -51.5 -135.5t-19.5 -162.5q0 -105 44 -159t130 -54q128 0 201 127q67 116 67 282z
M805 858q0 -23 -38 -39l-167 -72h-53l152 123q29 22 57 24q20 0 34.5 -10.5t14.5 -25.5zM621 858q0 -23 -38 -39l-167 -72h-53l152 123q29 22 57 24q20 0 34.5 -10.5t14.5 -25.5z" />
    <glyph glyph-name="ohungarumlaut" unicode="&#x151;" 
d="M502 319q0 -48 -13 -102.5t-33 -90.5q-17 -30 -55 -63.5t-80 -52.5q-57 -27 -125 -27q-148 0 -148 152q0 63 24 137q16 49 43.5 83.5t73.5 63.5q79 50 161 50q72 0 112 -39.5t40 -110.5zM388 323q0 46 -22 74t-58 28q-49 0 -85 -51q-26 -38 -43.5 -107t-17.5 -137
q0 -47 22 -75t59 -28q48 0 84 51q26 37 43.5 107t17.5 138zM379 653q0 -26 -49 -53l-142 -81h-49l137 147q31 34 59 34q16 0 30 -15t14 -32zM556 653q0 -26 -49 -53l-142 -81h-49l137 147q31 34 59 34q16 0 30 -15t14 -32z" />
    <glyph glyph-name="OE" unicode="&#x152;" horiz-adv-x="944" 
d="M914 168q-17 -67 -34 -171v0h-1v0h-1h-1h-1h-1h-1h-1h-1h-1h-1h-1h-1h-1h-2h-1h-1h-1h-1h-2h-1h-1h-2h-1h-2h-1h-2h-1h-2h-2h-1h-2h-2h-1h-2h-2h-2h-2h-2h-2h-2h-2h-2h-2h-2h-3h-2h-2h-3h-2h-3h-2h-3h-3h-3h-3h-3h-3h-4h-4h-5h-6l33 1q-48 2 -161 2q-78 0 -154 -3l15 66
q-48 -43 -93 -61.5t-104 -18.5q-136 0 -203 93q-56 78 -56 205q0 175 104 294.5t257 119.5q61 0 108 -19q27 -11 45 -25t41 -43l12 73q62 -3 125 -3q22 0 66.5 1.5t66.5 1.5h87l10 -9l-25 -152h-32v53q0 36 -7 44q-9 9 -66 12q-5 0 -32.5 2.5t-46.5 2.5q-3 0 -49 -4
l-47 -252h56l140 3l5 -9l-14 -47l-170 5h-25l-50 -274q26 -6 58 -6q123 0 161 9q29 7 39 39l22 70h36zM556 450q4 19 4 43q0 70 -43 112.5t-114 42.5q-102 0 -164 -89q-35 -51 -56 -130.5t-21 -164.5q0 -113 43.5 -173.5t124.5 -60.5q73 0 120 50.5t65 147.5z" />
    <glyph glyph-name="oe" unicode="&#x153;" horiz-adv-x="778" 
d="M725 89q-86 -60 -137.5 -83t-98.5 -23q-78 0 -113 61q-57 -35 -95.5 -48t-81.5 -13q-74 0 -112.5 38t-38.5 112q0 63 16.5 123.5t42.5 93.5q41 51 108 85t128 34q75 0 119 -39q11 -10 25 -32q102 71 169 71q46 0 72.5 -22.5t26.5 -61.5q0 -87 -95 -138q-57 -31 -177 -52
q-6 -27 -6 -59q0 -43 19.5 -66t54.5 -23q50 0 103 33l58 37zM388 307q0 118 -85 118q-38 0 -60.5 -20.5t-41.5 -71.5q-39 -102 -39 -194q0 -52 23 -82t62 -30q55 0 91 61q21 36 35.5 99t14.5 120zM661 374q0 21 -13.5 34t-35.5 13q-37 0 -63.5 -34t-46.5 -107l-15 -57l55 13
q49 11 84 52t35 86z" />
    <glyph glyph-name="Racute" unicode="&#x154;" horiz-adv-x="722" 
d="M697 -3q-60 3 -98 3l-84 -3l-145 261q-8 14 -61 95l5 17h55q69 0 113.5 45t44.5 114q0 58 -32 83.5t-105 25.5q-23 0 -62 -3l-93 -535q-3 -16 -3 -34q0 -30 37 -31l59 -3l-4 -35q-99 3 -163 3l-157 -3l4 35l49 3q25 2 34 18t20 79l81 462q2 14 2 20q0 17 -9.5 24t-36.5 8
l-46 3l5 32q104 -3 170 -3q35 0 91 1.5t92 1.5q75 0 137 -38.5t62 -104.5q0 -91 -77 -140q-46 -30 -128 -45l156 -267q10 -19 26 -35t24 -17l37 -7v-30zM547 858q0 -23 -38 -39l-167 -72h-53l152 123q29 22 57 24q20 0 34.5 -10.5t14.5 -25.5z" />
    <glyph glyph-name="racute" unicode="&#x155;" horiz-adv-x="389" 
d="M391 326l-12 -6q-28 19 -52 19q-67 0 -123 -151q-22 -61 -41 -186q-74 -8 -108 -19l-11 12q19 57 27 92l24 107q26 115 26 160q0 16 -12 16t-42 -20l-34 -24l-13 26l81 64q68 53 108 53q25 0 25 -32q0 -15 -15 -78q-14 -60 -32 -140q58 118 79 155t41 58q36 37 77 37
q12 0 27 -6q-19 -82 -20 -137zM378 654q0 -15 -7.5 -25t-28.5 -22l-154 -89h-49l141 151q29 30 51 30q20 0 33.5 -13t13.5 -32z" />
    <glyph glyph-name="Rcommaaccent" unicode="&#x156;" horiz-adv-x="722" 
d="M697 -3q-60 3 -98 3l-84 -3l-145 261q-8 14 -61 95l5 17h55q69 0 113.5 45t44.5 114q0 58 -32 83.5t-105 25.5q-23 0 -62 -3l-93 -535q-3 -16 -3 -34q0 -30 37 -31l59 -3l-4 -35q-99 3 -163 3l-157 -3l4 35l49 3q25 2 34 18t20 79l81 462q2 14 2 20q0 17 -9.5 24t-36.5 8
l-46 3l5 32q104 -3 170 -3q35 0 91 1.5t92 1.5q75 0 137 -38.5t62 -104.5q0 -91 -77 -140q-46 -30 -128 -45l156 -267q10 -19 26 -35t24 -17l37 -7v-30zM343 -83q-21 -38 -32.5 -58.5t-28 -41.5t-22.5 -27t-35 -36l-45 -25l-14 10q30 51 37.5 74t18.5 89q27 2 109 28z" />
    <glyph glyph-name="rcommaaccent" unicode="&#x157;" horiz-adv-x="389" 
d="M391 326l-12 -6q-28 19 -52 19q-67 0 -123 -151q-22 -61 -41 -186q-74 -8 -108 -19l-11 12q19 57 27 92l24 107q26 115 26 160q0 16 -12 16t-42 -20l-34 -24l-13 26l81 64q68 53 108 53q25 0 25 -32q0 -15 -15 -78q-14 -60 -32 -140q58 118 79 155t41 58q36 37 77 37
q12 0 27 -6q-19 -82 -20 -137zM173 -83q-21 -38 -32.5 -58.5t-28 -41.5t-22.5 -27t-35 -36l-45 -25l-14 10q30 51 37.5 74t18.5 89q27 2 109 28z" />
    <glyph glyph-name="Rcaron" unicode="&#x158;" horiz-adv-x="722" 
d="M697 -3q-60 3 -98 3l-84 -3l-145 261q-8 14 -61 95l5 17h55q69 0 113.5 45t44.5 114q0 58 -32 83.5t-105 25.5q-23 0 -62 -3l-93 -535q-3 -16 -3 -34q0 -30 37 -31l59 -3l-4 -35q-99 3 -163 3l-157 -3l4 35l49 3q25 2 34 18t20 79l81 462q2 14 2 20q0 17 -9.5 24t-36.5 8
l-46 3l5 32q104 -3 170 -3q35 0 91 1.5t92 1.5q75 0 137 -38.5t62 -104.5q0 -91 -77 -140q-46 -30 -128 -45l156 -267q10 -19 26 -35t24 -17l37 -7v-30zM626 892l-173 -141h-87l-93 141h55l95 -77l142 77h61z" />
    <glyph glyph-name="rcaron" unicode="&#x159;" horiz-adv-x="389" 
d="M391 326l-12 -6q-28 19 -52 19q-67 0 -123 -151q-22 -61 -41 -186q-74 -8 -108 -19l-11 12q19 57 27 92l24 107q26 115 26 160q0 16 -12 16t-42 -20l-34 -24l-13 26l81 64q68 53 108 53q25 0 25 -32q0 -15 -15 -78q-14 -60 -32 -140q58 118 79 155t41 58q36 37 77 37
q12 0 27 -6q-19 -82 -20 -137zM451 696l-162 -174h-82l-88 174h50l91 -97l135 97h56z" />
    <glyph glyph-name="Sacute" unicode="&#x15a;" 
d="M495 239q0 -58 -30.5 -113.5t-83.5 -93.5q-71 -49 -171 -49q-97 0 -160 40l21 166h27v-76q39 -74 152 -74q67 0 103 32t36 91q0 48 -25 70q-14 13 -30 21t-68 27q-94 34 -128 69.5t-34 100.5q0 100 78.5 172.5t187.5 72.5q82 0 147 -44q-22 -80 -22 -147h-30v85
q-59 50 -134 50q-59 0 -97 -31.5t-38 -81.5q0 -44 27.5 -71t100.5 -54q62 -23 86.5 -35.5t46.5 -32.5q38 -35 38 -94zM513 858q0 -23 -38 -39l-167 -72h-53l152 123q29 22 57 24q20 0 34.5 -10.5t14.5 -25.5z" />
    <glyph glyph-name="sacute" unicode="&#x15b;" horiz-adv-x="444" 
d="M394 160q0 -52 -49 -97q-87 -80 -183 -80q-51 0 -137 27q16 76 21 131h30v-47q53 -56 130 -56q40 0 64 19.5t24 52.5q0 54 -68 67l-44 9q-114 24 -114 112q0 34 14.5 58t48.5 49q50 36 83.5 50t69.5 14q64 0 122 -31l-6 -33q-11 -59 -11 -83h-30l-6 48q-54 44 -110 44
q-37 0 -59.5 -20t-22.5 -53q0 -26 16.5 -39.5t59.5 -23.5l59 -13q46 -10 72 -38t26 -67zM408 654q0 -15 -7.5 -25t-28.5 -22l-154 -89h-49l141 151q29 30 51 30q20 0 33.5 -13t13.5 -32z" />
    <glyph glyph-name="Scircumflex" unicode="&#x15c;" 
d="M495 239q0 -58 -30.5 -113.5t-83.5 -93.5q-71 -49 -171 -49q-97 0 -160 40l21 166h27v-76q39 -74 152 -74q67 0 103 32t36 91q0 48 -25 70q-14 13 -30 21t-68 27q-94 34 -128 69.5t-34 100.5q0 100 78.5 172.5t187.5 72.5q82 0 147 -44q-22 -80 -22 -147h-30v85
q-59 50 -134 50q-59 0 -97 -31.5t-38 -81.5q0 -44 27.5 -71t100.5 -54q62 -23 86.5 -35.5t46.5 -32.5q38 -35 38 -94zM539 751h-55l-95 77l-142 -77h-61l173 141h87z" />
    <glyph glyph-name="scircumflex" unicode="&#x15d;" horiz-adv-x="444" 
d="M394 160q0 -52 -49 -97q-87 -80 -183 -80q-51 0 -137 27q16 76 21 131h30v-47q53 -56 130 -56q40 0 64 19.5t24 52.5q0 54 -68 67l-44 9q-114 24 -114 112q0 34 14.5 58t48.5 49q50 36 83.5 50t69.5 14q64 0 122 -31l-6 -33q-11 -59 -11 -83h-30l-6 48q-54 44 -110 44
q-37 0 -59.5 -20t-22.5 -53q0 -26 16.5 -39.5t59.5 -23.5l59 -13q46 -10 72 -38t26 -67zM433 522h-51l-88 95l-131 -95h-57l160 174h81z" />
    <glyph glyph-name="Scedilla" unicode="&#x15e;" 
d="M495 239q0 -58 -30.5 -113.5t-83.5 -93.5q-56 -38 -126 -47l-33 -47q15 3 26 3q40 0 65 -20t25 -52q0 -38 -34.5 -62.5t-88.5 -24.5t-113 25l22 33q38 -17 67 -17q26 0 40.5 10.5t14.5 29.5q0 37 -48 37q-13 0 -29 -4l-13 12l53 75q-96 0 -159 40l21 166h27v-76
q39 -74 152 -74q67 0 103 32t36 91q0 48 -25 70q-14 13 -30 21t-68 27q-94 34 -128 69.5t-34 100.5q0 100 78.5 172.5t187.5 72.5q82 0 147 -44q-22 -80 -22 -147h-30v85q-59 50 -134 50q-59 0 -97 -31.5t-38 -81.5q0 -44 27.5 -71t100.5 -54q62 -23 86.5 -35.5t46.5 -32.5
q38 -35 38 -94z" />
    <glyph glyph-name="scedilla" unicode="&#x15f;" horiz-adv-x="444" 
d="M394 160q0 -52 -49 -97q-67 -62 -139 -76l-34 -49q15 3 26 3q40 0 65 -20t25 -52q0 -38 -34.5 -62.5t-88.5 -24.5t-113 25l22 33q38 -17 67 -17q26 0 40.5 10.5t14.5 29.5q0 37 -48 37q-13 0 -29 -4l-13 12l52 75q-45 0 -133 27q16 76 21 131h30v-47q53 -56 130 -56
q40 0 64 19.5t24 52.5q0 54 -68 67l-44 9q-114 24 -114 112q0 34 14.5 58t48.5 49q50 36 83.5 50t69.5 14q64 0 122 -31l-6 -33q-11 -59 -11 -83h-30l-6 48q-54 44 -110 44q-37 0 -59.5 -20t-22.5 -53q0 -26 16.5 -39.5t59.5 -23.5l59 -13q46 -10 72 -38t26 -67z" />
    <glyph glyph-name="Scaron" unicode="&#x160;" 
d="M495 239q0 -58 -30.5 -113.5t-83.5 -93.5q-71 -49 -171 -49q-97 0 -160 40l21 166h27v-76q39 -74 152 -74q67 0 103 32t36 91q0 48 -25 70q-14 13 -30 21t-68 27q-94 34 -128 69.5t-34 100.5q0 100 78.5 172.5t187.5 72.5q82 0 147 -44q-22 -80 -22 -147h-30v85
q-59 50 -134 50q-59 0 -97 -31.5t-38 -81.5q0 -44 27.5 -71t100.5 -54q62 -23 86.5 -35.5t46.5 -32.5q38 -35 38 -94zM592 892l-173 -141h-87l-93 141h55l95 -77l142 77h61z" />
    <glyph glyph-name="scaron" unicode="&#x161;" horiz-adv-x="444" 
d="M394 160q0 -52 -49 -97q-87 -80 -183 -80q-51 0 -137 27q16 76 21 131h30v-47q53 -56 130 -56q40 0 64 19.5t24 52.5q0 54 -68 67l-44 9q-114 24 -114 112q0 34 14.5 58t48.5 49q50 36 83.5 50t69.5 14q64 0 122 -31l-6 -33q-11 -59 -11 -83h-30l-6 48q-54 44 -110 44
q-37 0 -59.5 -20t-22.5 -53q0 -26 16.5 -39.5t59.5 -23.5l59 -13q46 -10 72 -38t26 -67zM481 696l-162 -174h-82l-88 174h50l91 -97l135 97h56z" />
    <glyph glyph-name="Tcedilla" unicode="&#x162;" horiz-adv-x="611" 
d="M674 676l-30 -168h-38l4 84q1 20 -12.5 29t-44.5 9h-117l-95 -530q-4 -23 -4 -35q0 -16 8 -22.5t28 -7.5l59 -3l-5 -35l-142 3l-42 -62q15 3 26 3q40 0 65 -20t25 -52q0 -38 -34.5 -62.5t-88.5 -24.5t-113 25l22 33q38 -17 67 -17q26 0 40.5 10.5t14.5 29.5q0 37 -48 37
q-13 0 -29 -4l-13 12l64 92l-138 -3l5 35l53 3q25 2 36.5 20.5t21.5 76.5l85 498h-124q-35 0 -57 -24q-8 -12 -15 -40l-14 -58h-38l25 168l6 5q177 -3 290 -3l290 3z" />
    <glyph glyph-name="tcedilla" unicode="&#x163;" horiz-adv-x="389" 
d="M409 452l-14 -56q-40 5 -92 5h-47l-51 -237q-9 -44 -9 -72q0 -16 5 -22t19 -6q25 0 54 21l56 40l13 -26l-77 -57q-62 -45 -100 -54l-34 -50q15 3 26 3q40 0 65 -20t25 -52q0 -38 -34.5 -62.5t-88.5 -24.5t-113 25l22 33q38 -17 67 -17q26 0 40.5 10.5t14.5 29.5
q0 37 -48 37q-13 0 -29 -4l-13 12l54 76q-41 8 -41 59q0 20 10 65l62 293h-109l7 27l115 32q16 89 16 122v16q30 4 57 14l66 24l10 -12l-31 -116l-13 -56l134 5z" />
    <glyph glyph-name="Tcaron" unicode="&#x164;" horiz-adv-x="611" 
d="M674 676l-30 -168h-38l4 84q1 20 -12.5 29t-44.5 9h-117l-95 -530q-4 -23 -4 -35q0 -16 8 -22.5t28 -7.5l59 -3l-5 -35q-102 3 -168 3l-156 -3l5 35l53 3q25 2 36.5 20.5t21.5 76.5l85 498h-124q-35 0 -57 -24q-8 -12 -15 -40l-14 -58h-38l25 168l6 5q177 -3 290 -3
l290 3zM608 892l-173 -141h-87l-93 141h55l95 -77l142 77h61z" />
    <glyph glyph-name="tcaron" unicode="&#x165;" horiz-adv-x="389" 
d="M409 452l-14 -56q-40 5 -92 5h-47l-51 -237q-9 -44 -9 -72q0 -16 5 -22t19 -6q25 0 54 21l56 40l13 -26l-77 -57q-81 -59 -133 -59q-54 0 -54 60q0 20 10 65l62 293h-109l7 27l115 32q16 89 16 122v16q30 4 57 14l66 24l10 -12l-31 -116l-13 -56l134 5zM488 663
q-21 -38 -32.5 -58.5t-28 -41.5t-22.5 -27t-35 -36l-45 -25l-14 10q30 51 37.5 74t18.5 89q27 2 109 28z" />
    <glyph glyph-name="Utilde" unicode="&#x168;" horiz-adv-x="778" 
d="M721 -3q-72 3 -118 3l-106 -3l-5 8l27 128q-68 -73 -116 -107q-61 -43 -132 -43q-100 0 -149 70q-28 38 -28 103q0 32 8 78l58 307q11 61 11 76q0 25 -37 26l-51 3l5 35l132 -3l87 3l6 -7l-86 -460q-3 -17 -3 -35q0 -46 14 -69q12 -21 36.5 -34t52.5 -13q43 0 94 30
q36 20 67 47.5t33 41.5l65 359q11 60 11 76q0 25 -37 26l-51 3l5 35q93 -3 152 -3l159 3l-5 -35l-46 -3q-26 -2 -35 -9.5t-14 -34.5l-90 -499q-4 -23 -4 -35q0 -16 8 -22.5t28 -7.5l59 -3zM666 881q-31 -119 -115 -119q-26 0 -82 22q-54 22 -76 22q-15 0 -25 -9.5t-21 -34.5
h-40q27 119 118 119q34 0 76 -19q51 -23 75 -23q30 0 49 42h41z" />
    <glyph glyph-name="utilde" unicode="&#x169;" 
d="M521 88q-33 -25 -35 -26q-105 -79 -140 -79q-15 0 -24.5 12t-9.5 31q0 23 16 81l32 117q-74 -117 -142 -179t-121 -62q-20 0 -32 16t-12 41t13 74q5 19 21 79q34 129 34 161q0 16 -17 16t-33 -10l-36 -21l-13 26l79 54q74 50 116 50q27 0 27 -35q0 -32 -29 -147l-35 -137
q-10 -42 -10 -66q0 -13 16 -13q22 0 58 36.5t73 94.5q77 125 80 245q46 -1 110 18l9 -11l-42 -141l-40 -155q-14 -46 -14 -72q0 -12 14 -12q24 0 55 25l22 17zM522 669q-31 -119 -115 -119q-26 0 -82 22q-54 22 -76 22q-15 0 -25 -9.5t-21 -34.5h-40q27 119 118 119
q34 0 76 -19q51 -23 75 -23q30 0 49 42h41z" />
    <glyph glyph-name="Umacron" unicode="&#x16a;" horiz-adv-x="778" 
d="M721 -3q-72 3 -118 3l-106 -3l-5 8l27 128q-68 -73 -116 -107q-61 -43 -132 -43q-100 0 -149 70q-28 38 -28 103q0 32 8 78l58 307q11 61 11 76q0 25 -37 26l-51 3l5 35l132 -3l87 3l6 -7l-86 -460q-3 -17 -3 -35q0 -46 14 -69q12 -21 36.5 -34t52.5 -13q43 0 94 30
q36 20 67 47.5t33 41.5l65 359q11 60 11 76q0 25 -37 26l-51 3l5 35q93 -3 152 -3l159 3l-5 -35l-46 -3q-26 -2 -35 -9.5t-14 -34.5l-90 -499q-4 -23 -4 -35q0 -16 8 -22.5t28 -7.5l59 -3zM658 856l-16 -70h-326l17 70h325z" />
    <glyph glyph-name="umacron" unicode="&#x16b;" 
d="M521 88q-33 -25 -35 -26q-105 -79 -140 -79q-15 0 -24.5 12t-9.5 31q0 23 16 81l32 117q-74 -117 -142 -179t-121 -62q-20 0 -32 16t-12 41t13 74q5 19 21 79q34 129 34 161q0 16 -17 16t-33 -10l-36 -21l-13 26l79 54q74 50 116 50q27 0 27 -35q0 -32 -29 -147l-35 -137
q-10 -42 -10 -66q0 -13 16 -13q22 0 58 36.5t73 94.5q77 125 80 245q46 -1 110 18l9 -11l-42 -141l-40 -155q-14 -46 -14 -72q0 -12 14 -12q24 0 55 25l22 17zM514 644l-16 -70h-326l17 70h325z" />
    <glyph glyph-name="Ubreve" unicode="&#x16c;" horiz-adv-x="778" 
d="M721 -3q-72 3 -118 3l-106 -3l-5 8l27 128q-68 -73 -116 -107q-61 -43 -132 -43q-100 0 -149 70q-28 38 -28 103q0 32 8 78l58 307q11 61 11 76q0 25 -37 26l-51 3l5 35l132 -3l87 3l6 -7l-86 -460q-3 -17 -3 -35q0 -46 14 -69q12 -21 36.5 -34t52.5 -13q43 0 94 30
q36 20 67 47.5t33 41.5l65 359q11 60 11 76q0 25 -37 26l-51 3l5 35q93 -3 152 -3l159 3l-5 -35l-46 -3q-26 -2 -35 -9.5t-14 -34.5l-90 -499q-4 -23 -4 -35q0 -16 8 -22.5t28 -7.5l59 -3zM669 887q-36 -132 -198 -132q-73 0 -107.5 30.5t-35.5 101.5h47q4 -38 30.5 -55.5
t80.5 -17.5q53 0 85.5 16.5t55.5 56.5h42z" />
    <glyph glyph-name="ubreve" unicode="&#x16d;" 
d="M521 88q-33 -25 -35 -26q-105 -79 -140 -79q-15 0 -24.5 12t-9.5 31q0 23 16 81l32 117q-74 -117 -142 -179t-121 -62q-20 0 -32 16t-12 41t13 74q5 19 21 79q34 129 34 161q0 16 -17 16t-33 -10l-36 -21l-13 26l79 54q74 50 116 50q27 0 27 -35q0 -32 -29 -147l-35 -137
q-10 -42 -10 -66q0 -13 16 -13q22 0 58 36.5t73 94.5q77 125 80 245q46 -1 110 18l9 -11l-42 -141l-40 -155q-14 -46 -14 -72q0 -12 14 -12q24 0 55 25l22 17zM513 690q-13 -63 -38 -96q-50 -66 -146 -66q-69 0 -101 42q-30 38 -31 120h43q4 -47 29 -68.5t75 -21.5
q48 0 78 21t52 69h39z" />
    <glyph glyph-name="Uring" unicode="&#x16e;" horiz-adv-x="778" 
d="M721 -3q-72 3 -118 3l-106 -3l-5 8l27 128q-68 -73 -116 -107q-61 -43 -132 -43q-100 0 -149 70q-28 38 -28 103q0 32 8 78l58 307q11 61 11 76q0 25 -37 26l-51 3l5 35l132 -3l87 3l6 -7l-86 -460q-3 -17 -3 -35q0 -46 14 -69q12 -21 36.5 -34t52.5 -13q43 0 94 30
q36 20 67 47.5t33 41.5l65 359q11 60 11 76q0 25 -37 26l-51 3l5 35q93 -3 152 -3l159 3l-5 -35l-46 -3q-26 -2 -35 -9.5t-14 -34.5l-90 -499q-4 -23 -4 -35q0 -16 8 -22.5t28 -7.5l59 -3zM590 838q0 -41 -29.5 -70.5t-70.5 -29.5t-70.5 29.5t-29.5 71.5q0 41 29.5 70
t72.5 29q40 0 69 -29.5t29 -70.5zM540 838q0 20 -14.5 35t-34.5 15q-22 0 -36.5 -14.5t-14.5 -35.5t14.5 -35.5t35.5 -14.5t35.5 14.5t14.5 35.5z" />
    <glyph glyph-name="uring" unicode="&#x16f;" 
d="M521 88q-33 -25 -35 -26q-105 -79 -140 -79q-15 0 -24.5 12t-9.5 31q0 23 16 81l32 117q-74 -117 -142 -179t-121 -62q-20 0 -32 16t-12 41t13 74q5 19 21 79q34 129 34 161q0 16 -17 16t-33 -10l-36 -21l-13 26l79 54q74 50 116 50q27 0 27 -35q0 -32 -29 -147l-35 -137
q-10 -42 -10 -66q0 -13 16 -13q22 0 58 36.5t73 94.5q77 125 80 245q46 -1 110 18l9 -11l-42 -141l-40 -155q-14 -46 -14 -72q0 -12 14 -12q24 0 55 25l22 17zM443 609q0 -41 -29.5 -70.5t-70.5 -29.5t-70.5 29.5t-29.5 71.5q0 41 29.5 70t72.5 29q40 0 69 -29.5t29 -70.5z
M393 609q0 20 -14.5 35t-34.5 15q-22 0 -36.5 -14.5t-14.5 -35.5t14.5 -35.5t35.5 -14.5t35.5 14.5t14.5 35.5z" />
    <glyph glyph-name="Uhungarumlaut" unicode="&#x170;" horiz-adv-x="778" 
d="M721 -3q-72 3 -118 3l-106 -3l-5 8l27 128q-68 -73 -116 -107q-61 -43 -132 -43q-100 0 -149 70q-28 38 -28 103q0 32 8 78l58 307q11 61 11 76q0 25 -37 26l-51 3l5 35l132 -3l87 3l6 -7l-86 -460q-3 -17 -3 -35q0 -46 14 -69q12 -21 36.5 -34t52.5 -13q43 0 94 30
q36 20 67 47.5t33 41.5l65 359q11 60 11 76q0 25 -37 26l-51 3l5 35q93 -3 152 -3l159 3l-5 -35l-46 -3q-26 -2 -35 -9.5t-14 -34.5l-90 -499q-4 -23 -4 -35q0 -16 8 -22.5t28 -7.5l59 -3zM777 858q0 -23 -38 -39l-167 -72h-53l152 123q29 22 57 24q20 0 34.5 -10.5
t14.5 -25.5zM593 858q0 -23 -38 -39l-167 -72h-53l152 123q29 22 57 24q20 0 34.5 -10.5t14.5 -25.5z" />
    <glyph glyph-name="uhungarumlaut" unicode="&#x171;" 
d="M521 88q-33 -25 -35 -26q-105 -79 -140 -79q-15 0 -24.5 12t-9.5 31q0 23 16 81l32 117q-74 -117 -142 -179t-121 -62q-20 0 -32 16t-12 41t13 74q5 19 21 79q34 129 34 161q0 16 -17 16t-33 -10l-36 -21l-13 26l79 54q74 50 116 50q27 0 27 -35q0 -32 -29 -147l-35 -137
q-10 -42 -10 -66q0 -13 16 -13q22 0 58 36.5t73 94.5q77 125 80 245q46 -1 110 18l9 -11l-42 -141l-40 -155q-14 -46 -14 -72q0 -12 14 -12q24 0 55 25l22 17zM381 653q0 -26 -49 -53l-142 -81h-49l137 147q31 34 59 34q16 0 30 -15t14 -32zM558 653q0 -26 -49 -53l-142 -81
h-49l137 147q31 34 59 34q16 0 30 -15t14 -32z" />
    <glyph glyph-name="Uogonek" unicode="&#x172;" horiz-adv-x="778" 
d="M695 -150q-92 -100 -157 -100q-33 0 -48 26t-6 75q13 73 132 149h-13l-106 -3l-5 8l27 128q-68 -73 -116 -107q-61 -43 -132 -43q-100 0 -149 70q-28 38 -28 103q0 32 8 78l58 307q11 61 11 76q0 25 -37 26l-51 3l5 35l132 -3l87 3l6 -7l-86 -460q-3 -17 -3 -35
q0 -46 14 -69q12 -21 36.5 -34t52.5 -13q43 0 94 30q36 20 67 47.5t33 41.5l65 359q11 60 11 76q0 25 -37 26l-51 3l5 35q93 -3 152 -3l159 3l-5 -35l-46 -3q-26 -2 -35 -9.5t-14 -34.5l-90 -499q-4 -23 -4 -35q0 -16 8 -22.5t28 -7.5l59 -3l-5 -35h-8q-70 3 -118 -60
q-25 -32 -32 -69q-3 -19 7.5 -26t29.5 -7q25 0 66 29l22 16z" />
    <glyph glyph-name="uogonek" unicode="&#x173;" 
d="M521 88q-33 -25 -35 -26q-124 -99 -134 -110q-36 -40 -45 -84q-3 -19 7.5 -26t29.5 -7q25 0 66 29l22 16l7 -30q-92 -100 -157 -100q-33 0 -48 26t-6 75q12 67 108 133q-24 9 -24 42q0 23 16 81l32 117q-74 -117 -142 -179t-121 -62q-20 0 -32 16t-12 41t13 74
q5 19 21 79q34 129 34 161q0 16 -17 16t-33 -10l-36 -21l-13 26l79 54q74 50 116 50q27 0 27 -35q0 -32 -29 -147l-35 -137q-10 -42 -10 -66q0 -13 16 -13q22 0 58 36.5t73 94.5q77 125 80 245q46 -1 110 18l9 -11l-42 -141l-40 -155q-14 -46 -14 -72q0 -12 14 -12
q24 0 55 25l22 17z" />
    <glyph glyph-name="Wcircumflex" unicode="&#x174;" horiz-adv-x="1000" 
d="M1068 646l-34 -3q-14 -2 -25 -19.5t-37 -81.5l-219 -545h-84l-131 494l-246 -494h-84l-52 542q-5 69 -12.5 85.5t-35.5 18.5l-41 3l5 35q88 -3 145 -3l146 3v-35l-45 -3q-22 -2 -30.5 -13t-6.5 -37l35 -448l265 544h31l148 -556l169 446q11 29 11 40q0 12 -10 17.5
t-35 6.5l-45 3l5 35q66 -3 109 -3l109 3zM771 751h-55l-95 77l-142 -77h-61l173 141h87z" />
    <glyph glyph-name="wcircumflex" unicode="&#x175;" horiz-adv-x="833" 
d="M802 371q0 -68 -41 -154.5t-104 -151.5q-80 -82 -164 -82q-43 0 -68.5 29t-25.5 78q0 30 9 87q-32 -62 -60 -97.5t-66 -62.5q-47 -34 -90 -34q-46 0 -73.5 37t-27.5 100t28.5 116t101.5 126l41 41q-47 -11 -137 -11q-39 0 -42 -8l-28 -60h-28l41 132q34 6 51 5
q6 0 33.5 -2t55 -3t46.5 -1q43 0 64 14l14 -19q-45 -53 -68 -91t-39 -90q-20 -60 -20 -123q0 -46 13 -73t35 -27q42 0 90.5 68.5t67.5 154.5l24 109q7 35 10 64q56 7 107 27l12 -9q-68 -243 -68 -333q0 -36 16 -58.5t41 -22.5q60 0 112 91q26 45 43 101.5t17 96.5
q0 25 -11.5 39.5t-30.5 14.5q-18 0 -36 -8l-12 23q43 29 71 61q16 4 26 4q28 0 49 -29.5t21 -68.5zM616 522h-51l-88 95l-131 -95h-57l160 174h81z" />
    <glyph glyph-name="Ycircumflex" unicode="&#x176;" horiz-adv-x="611" 
d="M669 593q-53 -6 -116 -76q-49 -56 -101 -153t-60 -147q-1 -3 -1.5 -5.5t-1.5 -9.5t-3 -17t-6.5 -33t-9.5 -52q-3 -16 -3 -33t8 -24t29 -8l59 -3l-4 -35q-99 3 -163 3l-157 -3l4 35l49 3q25 1 32 13.5t22 83.5q20 89 20 113q0 15 -8 49t-16 61.5t-19.5 63.5t-11.5 37
q-20 64 -49.5 102.5t-59.5 38.5q-28 0 -45 -10l-3 33q31 21 90 70q19 5 28 5q41 0 73 -29q58 -52 89 -200l36 -169q68 166 156 277t149 107zM584 751h-55l-95 77l-142 -77h-61l173 141h87z" />
    <glyph glyph-name="ycircumflex" unicode="&#x177;" 
d="M541 453q-27 -59 -84 -268q-40 -146 -59.5 -197.5t-56.5 -109.5q-43 -69 -103 -109t-119 -40q-57 0 -83 44q-11 19 -15 53l62 40l18 -6q-1 -7 -1 -19q0 -31 16.5 -48.5t45.5 -17.5q49 0 86 55.5t66 173.5l41 166q-29 -51 -49.5 -78t-50.5 -53q-64 -56 -108 -56
q-20 0 -33.5 25t-13.5 62q0 24 6 85l19 182q1 6 1 14q0 19 -18 19q-29 0 -81 -41l-14 28l80 62q65 50 103 50q18 0 28.5 -17t10.5 -46q0 -33 -5 -80l-19 -163q-4 -33 -4 -55q0 -41 17 -41q22 0 56.5 38t66.5 97q31 58 50.5 125.5t21.5 119.5q46 -1 110 18zM496 522h-51
l-88 95l-131 -95h-57l160 174h81z" />
    <glyph glyph-name="Ydieresis" unicode="&#x178;" horiz-adv-x="611" 
d="M669 593q-53 -6 -116 -76q-49 -56 -101 -153t-60 -147q-1 -3 -1.5 -5.5t-1.5 -9.5t-3 -17t-6.5 -33t-9.5 -52q-3 -16 -3 -33t8 -24t29 -8l59 -3l-4 -35q-99 3 -163 3l-157 -3l4 35l49 3q25 1 32 13.5t22 83.5q20 89 20 113q0 15 -8 49t-16 61.5t-19.5 63.5t-11.5 37
q-20 64 -49.5 102.5t-59.5 38.5q-28 0 -45 -10l-3 33q31 21 90 70q19 5 28 5q41 0 73 -29q58 -52 89 -200l36 -169q68 166 156 277t149 107zM596 827q0 -31 -19.5 -51t-49.5 -20q-25 0 -39.5 15.5t-14.5 41.5q0 31 19.5 52.5t47.5 21.5q25 0 40.5 -17t15.5 -43zM383 827
q0 -31 -19.5 -51t-49.5 -20q-25 0 -39.5 15.5t-14.5 41.5q0 31 19.5 52.5t47.5 21.5q25 0 40.5 -17t15.5 -43z" />
    <glyph glyph-name="Zacute" unicode="&#x179;" horiz-adv-x="667" 
d="M634 180l-39 -183q-187 3 -306 3l-288 -3v27l495 605h-164q-131 0 -161 -14q-11 -5 -18 -29l-24 -76h-35q15 67 26 160l7 11q165 -3 270 -3l279 3l-5 -35l-483 -597h180q109 0 185 15q28 59 45 116h36zM551 858q0 -23 -38 -39l-167 -72h-53l152 123q29 22 57 24
q20 0 34.5 -10.5t14.5 -25.5z" />
    <glyph glyph-name="zacute" unicode="&#x17a;" horiz-adv-x="500" 
d="M451 138q-25 -68 -29 -105q-5 -31 -15.5 -40.5t-41.5 -9.5q-63 0 -168 29q-34 10 -73 10q-43 0 -77 -27l-16 30l346 354q-49 -23 -89 -23q-8 0 -140 11q-3 0 -10 1t-12 1l-23 -52l-29 3l45 139q35 10 57 10q23 0 95 -19q69 -18 112 -18q42 0 58 24l9 13l20 -8l-14 -50
l-328 -337q65 23 98 23q46 0 102 -10q40 -7 54 -6q6 0 13 1l28 58zM436 654q0 -15 -7.5 -25t-28.5 -22l-154 -89h-49l141 151q29 30 51 30q20 0 33.5 -13t13.5 -32z" />
    <glyph glyph-name="Zdotaccent" unicode="&#x17b;" horiz-adv-x="667" 
d="M634 180l-39 -183q-187 3 -306 3l-288 -3v27l495 605h-164q-131 0 -161 -14q-11 -5 -18 -29l-24 -76h-35q15 67 26 160l7 11q165 -3 270 -3l279 3l-5 -35l-483 -597h180q109 0 185 15q28 59 45 116h36zM487 827q0 -31 -19.5 -51t-49.5 -20q-25 0 -39.5 15.5t-14.5 41.5
q0 31 19.5 52.5t47.5 21.5q25 0 40.5 -17t15.5 -43z" />
    <glyph glyph-name="zdotaccent" unicode="&#x17c;" horiz-adv-x="500" 
d="M451 138q-25 -68 -29 -105q-5 -31 -15.5 -40.5t-41.5 -9.5q-63 0 -168 29q-34 10 -73 10q-43 0 -77 -27l-16 30l346 354q-49 -23 -89 -23q-8 0 -140 11q-3 0 -10 1t-12 1l-23 -52l-29 3l45 139q35 10 57 10q23 0 95 -19q69 -18 112 -18q42 0 58 24l9 13l20 -8l-14 -50
l-328 -337q65 23 98 23q46 0 102 -10q40 -7 54 -6q6 0 13 1l28 58zM382 615q0 -31 -19.5 -51t-49.5 -20q-25 0 -39.5 15.5t-14.5 41.5q0 31 19.5 52.5t47.5 21.5q25 0 40.5 -17t15.5 -43z" />
    <glyph glyph-name="Zcaron" unicode="&#x17d;" horiz-adv-x="667" 
d="M634 180l-39 -183q-187 3 -306 3l-288 -3v27l495 605h-164q-131 0 -161 -14q-11 -5 -18 -29l-24 -76h-35q15 67 26 160l7 11q165 -3 270 -3l279 3l-5 -35l-483 -597h180q109 0 185 15q28 59 45 116h36zM630 892l-173 -141h-87l-93 141h55l95 -77l142 77h61z" />
    <glyph glyph-name="zcaron" unicode="&#x17e;" horiz-adv-x="500" 
d="M451 138q-25 -68 -29 -105q-5 -31 -15.5 -40.5t-41.5 -9.5q-63 0 -168 29q-34 10 -73 10q-43 0 -77 -27l-16 30l346 354q-49 -23 -89 -23q-8 0 -140 11q-3 0 -10 1t-12 1l-23 -52l-29 3l45 139q35 10 57 10q23 0 95 -19q69 -18 112 -18q42 0 58 24l9 13l20 -8l-14 -50
l-328 -337q65 23 98 23q46 0 102 -10q40 -7 54 -6q6 0 13 1l28 58zM509 696l-162 -174h-82l-88 174h50l91 -97l135 97h56z" />
    <glyph glyph-name="longs" unicode="&#x17f;" horiz-adv-x="333" 
d="M449 718q-17 -63 -28 -125l-15 -3q-23 33 -38 44.5t-35 11.5q-28 0 -42 -30.5t-35 -132.5l-72 -315q-36 -154 -65 -226.5t-75 -126.5q-31 -35 -71 -60.5t-65 -25.5q-22 0 -38 9q21 46 32 107l17 3q20 -44 51 -44q27 0 40.5 33t35.5 149l79 417h-91l5 25l50 16q28 9 50 19
q0 3 1.5 8.5t2.5 11.5q9 45 21.5 67t45.5 52l56 49q29 25 84 59q26 16 52 16q19 0 47 -8z" />
    <glyph glyph-name="Ereversed" unicode="&#x18e;" horiz-adv-x="611" 
d="M646 681l-6 -32l-47 -3q-27 -1 -39 -8t-18 -23q-4 -11 -5 -21l-90 -502q-6 -34 -0.5 -46t27.5 -14l27 -3l-7 -32l-140 3q-42 1 -105.5 -1t-98.5 -2l-166 3q19 107 26 168h36l-3 -70q0 -13 4.5 -22.5t15 -14.5t22 -8t29 -3.5t31.5 -0.5t34.5 0.5t32.5 0.5q60 -2 100 6
l49 274h-55l-172 -5l2 47l9 9l139 -3h86l43 252l-37 3q-9 1 -27 1q-33 0 -90 -5t-71 -9q-14 -6 -29 -47l-18 -53h-32l28 152l12 6l163 3q36 0 91 -1.5t91 -1.5z" />
    <glyph glyph-name="florin" unicode="&#x192;" horiz-adv-x="500" 
d="M443 408l-10 -40h-108q-23 -197 -50.5 -302.5t-75.5 -182.5q-76 -125 -163 -125q-10 0 -28 3q9 37 9 80l17 9q23 -27 49 -27q52 0 69 131l54 414h-109l13 40h106l18 70q19 72 89.5 142t124.5 70q3 0 31 -4l-8 -82l-11 -3q-21 26 -55 26q-19 0 -32.5 -15.5t-17.5 -41.5
l-24 -162h112z" />
    <glyph glyph-name="Ohorn" unicode="&#x1a0;" horiz-adv-x="833" 
d="M795 414q-1 -183 -124.5 -307t-305.5 -124q-137 0 -213 74.5t-76 210.5q1 188 118 307.5t300 119.5q109 0 188 -51q45 33 56 106q1 0 103 20l11 -9q-15 -32 -50.5 -75t-79.5 -74q73 -73 73 -198zM657 435q0 217 -176 217q-127 0 -195 -115q-31 -52 -51 -135t-21 -163
q0 -105 44 -159t130 -54q128 0 201 127q68 118 68 282z" />
    <glyph glyph-name="ohorn" unicode="&#x1a1;" horiz-adv-x="593" 
d="M642 532q-18 -36 -57.5 -82.5t-88.5 -76.5q7 -28 7 -54q-1 -48 -14 -103t-33 -90q-17 -30 -55 -63t-80 -53q-60 -27 -125 -27q-148 0 -148 152q0 63 24 137q31 92 118 147q79 50 161 50q85 0 123 -52q44 32 54 104q1 0 103 20zM389 323q0 46 -22 74t-58 28q-49 0 -85 -51
q-26 -38 -44 -107.5t-18 -136.5q0 -47 22 -75t59 -28q48 0 84 51q26 37 43.5 107t18.5 138z" />
    <glyph glyph-name="Uhorn" unicode="&#x1af;" horiz-adv-x="831" 
d="M912 761q-23 -46 -75.5 -102t-117.5 -81l-84 -478q-4 -20 -4 -35q0 -29 36 -30l59 -3l-5 -35q-102 3 -118 3q-18 0 -106 -3l-5 8l27 128q-75 -79 -116 -107q-60 -43 -132 -43q-98 0 -147 68q-30 39 -30 105q0 33 8 78l59 307l1 7q1 2 1 7q9 41 9 62q0 25 -37 26l-51 3
l5 35l54 -1l78 -2q40 0 87 3l6 -7l-87 -460q-3 -17 -3 -36q0 -46 14 -68q28 -47 89 -47q43 0 94 30q36 21 67 48.5t33 40.5l66 359q1 5 2 9q1 6 2 13t1 8q6 28 6 46q0 25 -37 26l-51 3l5 35l152 -3l70 1l-8 -43q56 33 69 114q1 0 103 20z" />
    <glyph glyph-name="uhorn" unicode="&#x1b0;" horiz-adv-x="598" 
d="M680 532q-23 -46 -76.5 -102.5t-118.5 -81.5l-10 -35l-37 -142l-3 -13q-15 -50 -15 -72q0 -12 14 -12q22 0 55 25l22 17l10 -28q-7 -5 -19.5 -14.5t-15.5 -11.5q-104 -79 -140 -79q-15 0 -24.5 12t-9.5 31q0 24 16 81l32 117q-74 -117 -142 -179t-121 -62q-20 0 -32 16
t-12 41q0 22 13 74l5 16l1 6l15 57q35 130 35 161q0 16 -17 16q-15 0 -33 -10l-36 -21l-13 26l79 54q73 50 116 50q27 0 27 -35q0 -32 -29 -147l-36 -137q-10 -42 -10 -66q0 -13 16 -13q22 0 58.5 36.5t72.5 94.5q78 124 81 245q46 -1 110 18l9 -11l-13 -43q51 33 62 110
q1 0 103 20z" />
    <glyph glyph-name="eturned" unicode="&#x1dd;" horiz-adv-x="444" 
d="M429 354q0 -53 -17.5 -120.5t-42.5 -112.5q-29 -52 -103.5 -95t-133.5 -43q-43 0 -68 23.5t-25 63.5q0 88 107 139q54 26 164 50q5 36 5 64q0 39 -19 60.5t-54 21.5q-57 0 -162 -67l-10 28q6 4 14.5 9t14.5 9q76 49 120 67t89 18q56 0 88.5 -31t32.5 -84zM306 233
l-41 -12q-61 -18 -96.5 -54.5t-35.5 -82.5q0 -25 13 -39t35 -14q37 0 66 37t45 107z" />
    <glyph glyph-name="Gcaron" unicode="&#x1e6;" horiz-adv-x="778" 
d="M745 253l-25 -2q-20 -1 -30 -11t-15 -34l-20 -96q-8 -38 -3 -62q-108 -39 -164.5 -52t-119.5 -13q-151 0 -228 77q-68 67 -68 196q0 138 74.5 245.5t205.5 159.5q87 34 171 34q103 0 199 -43q-32 -114 -38 -168h-35l5 90q1 23 -51 41t-121 18q-105 0 -166 -53
q-47 -40 -76.5 -129.5t-29.5 -191.5q0 -111 48 -170t138 -59q69 0 121 29l32 141q3 12 3 23q0 27 -44 28l-60 2l5 33q91 -3 149 -3l148 3zM719 892l-173 -141h-87l-93 141h55l95 -77l142 77h61z" />
    <glyph glyph-name="gcaron" unicode="&#x1e7;" horiz-adv-x="500" 
d="M529 440l-10 -50l-88 4q11 -33 11 -59q0 -97 -82 -150q-25 -16 -75 -36q-58 -21 -58 -46q0 -18 23 -34l85 -60q78 -55 78 -114q0 -72 -72 -119t-182 -47q-95 0 -152 34t-57 91t59 99q40 29 133 59q-24 18 -26 49l4 20l92 56q-86 1 -122 32q-36 32 -36 97q0 88 66 138
q37 27 86.5 46t83.5 19q43 0 90 -20q39 -4 73 -3l71 3zM334 340q0 41 -17.5 63t-50.5 22q-51 0 -79 -46q-13 -20 -21.5 -56.5t-8.5 -66.5q0 -39 19.5 -61.5t53.5 -22.5q46 0 75 46.5t29 121.5zM309 -144q0 22 -14.5 41t-49.5 43l-82 55l-28 -13q-96 -45 -96 -113
q0 -47 38.5 -75.5t100.5 -28.5q56 0 93.5 26t37.5 65zM503 696l-162 -174h-82l-88 174h50l91 -97l135 97h56z" />
    <glyph glyph-name="Oogonek" unicode="&#x1ea;" horiz-adv-x="833" 
d="M794 414q0 -145 -80.5 -256.5t-210.5 -153.5q-126 -40 -136 -52q-38 -39 -45 -84q-3 -19 7.5 -26t29.5 -7q24 0 65 29l23 16l7 -30q-92 -100 -157 -100q-33 0 -48 26t-6 75q12 66 106 132q-130 5 -201.5 79t-71.5 206q0 187 117 307t300 120q145 0 228 -83
q73 -73 73 -198zM656 435q0 217 -176 217q-127 0 -195 -115q-32 -53 -51.5 -135.5t-19.5 -162.5q0 -105 44 -159t130 -54q128 0 201 127q67 116 67 282z" />
    <glyph glyph-name="oogonek" unicode="&#x1eb;" 
d="M502 319q0 -48 -13 -102.5t-33 -90.5q-17 -30 -55 -63.5t-80 -52.5q-104 -48 -112 -58q-38 -39 -45 -84q-3 -19 7.5 -26t29.5 -7q24 0 65 29l23 16l7 -30q-92 -100 -157 -100q-33 0 -48 26t-6 75q11 64 106 132q-143 3 -143 152q0 63 24 137q16 49 43.5 83.5t73.5 63.5
q79 50 161 50q72 0 112 -39.5t40 -110.5zM388 323q0 46 -22 74t-58 28q-49 0 -85 -51q-26 -38 -43.5 -107t-17.5 -137q0 -47 22 -75t59 -28q48 0 84 51q26 37 43.5 107t17.5 138z" />
    <glyph glyph-name="Gacute" unicode="&#x1f4;" horiz-adv-x="778" 
d="M745 253l-25 -2q-20 -1 -30 -11t-15 -34l-20 -96q-8 -38 -3 -62q-108 -39 -164.5 -52t-119.5 -13q-151 0 -228 77q-68 67 -68 196q0 138 74.5 245.5t205.5 159.5q87 34 171 34q103 0 199 -43q-32 -114 -38 -168h-35l5 90q1 23 -51 41t-121 18q-105 0 -166 -53
q-47 -40 -76.5 -129.5t-29.5 -191.5q0 -111 48 -170t138 -59q69 0 121 29l32 141q3 12 3 23q0 27 -44 28l-60 2l5 33q91 -3 149 -3l148 3zM640 858q0 -23 -38 -39l-167 -72h-53l152 123q29 22 57 24q20 0 34.5 -10.5t14.5 -25.5z" />
    <glyph glyph-name="gacute" unicode="&#x1f5;" horiz-adv-x="500" 
d="M529 440l-10 -50l-88 4q11 -33 11 -59q0 -97 -82 -150q-25 -16 -75 -36q-58 -21 -58 -46q0 -18 23 -34l85 -60q78 -55 78 -114q0 -72 -72 -119t-182 -47q-95 0 -152 34t-57 91t59 99q40 29 133 59q-24 18 -26 49l4 20l92 56q-86 1 -122 32q-36 32 -36 97q0 88 66 138
q37 27 86.5 46t83.5 19q43 0 90 -20q39 -4 73 -3l71 3zM334 340q0 41 -17.5 63t-50.5 22q-51 0 -79 -46q-13 -20 -21.5 -56.5t-8.5 -66.5q0 -39 19.5 -61.5t53.5 -22.5q46 0 75 46.5t29 121.5zM309 -144q0 22 -14.5 41t-49.5 43l-82 55l-28 -13q-96 -45 -96 -113
q0 -47 38.5 -75.5t100.5 -28.5q56 0 93.5 26t37.5 65zM430 654q0 -15 -7.5 -25t-28.5 -22l-154 -89h-49l141 151q29 30 51 30q20 0 33.5 -13t13.5 -32z" />
    <glyph glyph-name="Aringacute" unicode="&#x1fa;" horiz-adv-x="722" 
d="M685 -3q-89 3 -146 3l-155 -3v35l42 3q45 3 42 31l-25 198q-12 0 -33 1t-39.5 1.5t-37.5 0.5l-111 -3l-86 -152q-19 -34 -19 -57q0 -17 43 -20l44 -3l-5 -35q-76 3 -124 3l-110 -3l5 35l34 3q28 3 47 35l363 613h96q2 -11 4.5 -35t3.5 -36l76 -522q7 -51 54 -55l37 -3
v-35zM438 307l-38 266l-155 -266h193zM649 1069q0 -23 -38 -39l-167 -72h-53l152 123q28 22 56 24q20 0 35 -10.5t15 -25.5zM589 838q0 -41 -29.5 -70.5t-70.5 -29.5t-70.5 29.5t-29.5 71.5q0 41 29.5 70t72.5 29q40 0 69 -29.5t29 -70.5zM539 838q0 20 -14.5 35t-34.5 15
q-22 0 -36.5 -14.5t-14.5 -35.5t14.5 -35.5t35.5 -14.5t35.5 14.5t14.5 35.5z" />
    <glyph glyph-name="aringacute" unicode="&#x1fb;" 
d="M519 82q-112 -99 -174 -99q-32 0 -32 44q0 29 7 56l37 151q-143 -251 -259 -251q-24 0 -39 21t-15 54q0 59 22 143t48 125q12 19 52 53.5t82 62.5q40 27 94 27q41 0 102 -26l45 27l16 -12q-23 -64 -32 -105l-45 -214l-10 -49q3 -25 14 -25q15 0 55 31l20 16zM377 395
q-47 22 -82 22q-32 0 -54 -23.5t-38 -75.5q-47 -147 -47 -216q0 -15 5 -26t12 -11q34 0 101 88q83 111 103 242zM514 840q0 -23 -38 -39l-167 -72h-53l152 123q28 22 56 24q20 0 35 -10.5t15 -25.5zM454 609q0 -41 -29.5 -70.5t-70.5 -29.5t-70.5 29.5t-29.5 71.5
q0 41 29.5 70t72.5 29q40 0 69 -29.5t29 -70.5zM404 609q0 20 -14.5 35t-34.5 15q-22 0 -36.5 -14.5t-14.5 -35.5t14.5 -35.5t35.5 -14.5t35.5 14.5t14.5 35.5z" />
    <glyph glyph-name="AEacute" unicode="&#x1fc;" horiz-adv-x="944" 
d="M889 168q-13 -55 -34 -168l-172 -4q-36 0 -98.5 2.5t-104.5 1.5l-132 -3l6 32l40 3q15 1 22.5 13t13.5 46l30 171l-37 1l-63 2h-10l-111 -3l-100 -170q-15 -26 -15 -35q0 -13 8 -18t28 -7l50 -3l-5 -32q-14 0 -57 2t-70 2h-16q-2 -1 -91 -4l5 32l26 5q43 9 94 88l291 451
q27 41 27 51q0 20 -33 22l-70 3l5 32l256 -3q31 0 79.5 1.5t79.5 1.5q53 0 186 -3l10 -6l-25 -152h-32v53q0 42 -14 46q-20 5 -85 10t-85 4l-39 -3l-45 -252h86l140 3l5 -9l-14 -47l-170 5h-55l-47 -274q30 -6 63 -6l67 2q98 3 121 9.5t33 36.5l22 70h36zM517 589q4 19 4 36
q0 14 -13 14q-28 0 -72 -69l-166 -262h197zM745 858q0 -23 -38 -39l-167 -72h-53l152 123q29 22 57 24q20 0 34.5 -10.5t14.5 -25.5z" />
    <glyph glyph-name="aeacute" unicode="&#x1fd;" horiz-adv-x="738" 
d="M680 86q-6 -4 -14.5 -9t-14.5 -9q-75 -48 -119.5 -66.5t-88.5 -18.5q-48 0 -77 20.5t-44 65.5q-63 -52 -97.5 -69t-75.5 -17q-48 0 -76.5 26.5t-28.5 70.5q0 38 18 74t47 56q61 41 150 41h80v44q0 113 -113 113q-9 0 -19 -1t-22 -2.5t-19 -2.5l-24 -67l-19 4l-7 74
q42 32 74.5 44t75.5 12q58 0 92 -23t51 -74q69 53 116 75t92 22q43 0 68.5 -23.5t25.5 -62.5q0 -69 -65.5 -109t-206.5 -56q-4 -33 -4 -77q0 -94 73 -94q57 0 162 67zM335 222h-44q-63 0 -102.5 -30.5t-39.5 -78.5q0 -57 59 -57q56 0 89.5 44t37.5 122zM617 373
q0 23 -12 35.5t-34 12.5q-52 0 -85 -63q-13 -26 -43 -110q42 5 49 7q70 15 101 56q24 34 24 62zM566 654q0 -15 -7.5 -25t-28.5 -22l-154 -89h-49l141 151q29 30 51 30q20 0 33.5 -13t13.5 -32z" />
    <glyph glyph-name="Oslashacute" unicode="&#x1fe;" horiz-adv-x="833" 
d="M794 416q0 -186 -124 -309.5t-310 -123.5q-52 0 -91.5 12t-91.5 44l-88 -93l-32 34l84 90q-65 66 -65 191q0 194 116.5 314t305.5 120q54 0 92.5 -11t89.5 -41l83 87l34 -31l-79 -84q76 -79 76 -199zM656 435q0 51 -13 100l-403 -429q38 -43 72.5 -61.5t78.5 -18.5
q126 0 198 127q67 116 67 282zM623 583q-32 38 -65.5 53.5t-81.5 15.5q-90 0 -148 -60q-56 -56 -90 -151.5t-34 -205.5q0 -40 15 -82zM686 858q0 -23 -38 -39l-167 -72h-53l152 123q29 22 57 24q20 0 34.5 -10.5t14.5 -25.5z" />
    <glyph glyph-name="oslashacute" unicode="&#x1ff;" 
d="M502 314q0 -45 -13.5 -100.5t-33.5 -90.5q-14 -25 -45 -53t-65 -47q-68 -40 -144 -40q-67 0 -102 30l-57 -63l-28 22l61 68q-27 45 -27 101q0 57 24 131q29 91 118 147q76 50 159 50q46 0 93 -22l53 59l27 -25l-50 -55q30 -48 30 -112zM388 332l-220 -242q27 -63 74 -63
q51 0 88 55q51 80 58 250zM377 375q-14 28 -29.5 39t-40.5 11q-125 0 -143 -289zM501 654q0 -15 -7.5 -25t-28.5 -22l-154 -89h-49l141 151q29 30 51 30q20 0 33.5 -13t13.5 -32z" />
    <glyph glyph-name="Adblgrave" unicode="&#x200;" horiz-adv-x="722" 
d="M685 -3q-89 3 -146 3l-155 -3v35l42 3q45 3 42 31l-25 198q-12 0 -33 1t-39.5 1.5t-37.5 0.5l-111 -3l-86 -152q-19 -34 -19 -57q0 -17 43 -20l44 -3l-5 -35q-76 3 -124 3l-110 -3l5 35l34 3q28 3 47 35l363 613h96q2 -11 4.5 -35t3.5 -36l76 -522q7 -51 54 -55l37 -3
v-35zM438 307l-38 266l-155 -266h193zM427 747h-53l-141 72q-33 16 -25 39q5 15 24 25.5t39 10.5q28 -2 48 -24zM611 747h-53l-141 72q-33 16 -25 39q5 15 24 25.5t39 10.5q28 -2 48 -24z" />
    <glyph glyph-name="adblgrave" unicode="&#x201;" 
d="M519 82q-112 -99 -174 -99q-32 0 -32 44q0 29 7 56l37 151q-143 -251 -259 -251q-24 0 -39 21t-15 54q0 59 22 143t48 125q12 19 52 53.5t82 62.5q40 27 94 27q41 0 102 -26l45 27l16 -12q-23 -64 -32 -105l-45 -214l-10 -49q3 -25 14 -25q15 0 55 31l20 16zM377 395
q-47 22 -82 22q-32 0 -54 -23.5t-38 -75.5q-47 -147 -47 -216q0 -15 5 -26t12 -11q34 0 101 88q83 111 103 242zM525 519h-49l-114 81q-39 27 -30 53q6 17 25.5 32t35.5 15q28 0 47 -34zM348 519h-49l-114 81q-39 27 -30 53q6 17 25.5 32t35.5 15q28 0 47 -34z" />
    <glyph glyph-name="Edblgrave" unicode="&#x204;" horiz-adv-x="611" 
d="M556 168q-14 -59 -34 -168l-167 -3q-35 0 -97.5 2t-105.5 1l-141 -3l5 32l28 3q23 2 32.5 14t15.5 46l87 502q2 14 2 21q0 16 -10 23t-36 8l-46 3l5 32q96 -3 157 -3q35 0 91 1.5t92 1.5l162 -3l10 -6l-25 -152h-32v53q0 42 -12 47q-12 4 -67.5 9t-88.5 5q-18 0 -27 -1
l-39 -3l-45 -252h86l140 3l5 -9l-14 -47l-170 5h-55l-48 -274q38 -8 98 -6q13 0 45 -1t48.5 0t39 5t35 15t18.5 29l22 70h36zM355 747h-53l-141 72q-33 16 -25 39q5 15 24 25.5t39 10.5q28 -2 48 -24zM539 747h-53l-141 72q-33 16 -25 39q5 15 24 25.5t39 10.5q28 -2 48 -24
z" />
    <glyph glyph-name="edblgrave" unicode="&#x205;" horiz-adv-x="444" 
d="M387 86q-6 -4 -14.5 -9t-14.5 -9q-76 -49 -120 -67t-89 -18q-56 0 -88.5 31t-32.5 84t17.5 120.5t42.5 112.5q29 52 103.5 95t133.5 43q43 0 68 -23.5t25 -63.5q0 -88 -107 -139q-54 -26 -164 -50q-5 -36 -5 -64q0 -39 19 -60.5t54 -21.5q57 0 162 67zM324 368
q0 25 -13 39t-35 14q-37 0 -66 -37t-45 -107l-14 -58l41 12q61 18 96.5 54.5t35.5 82.5zM479 519h-49l-114 81q-39 27 -30 53q6 17 25.5 32t35.5 15q28 0 47 -34zM302 519h-49l-114 81q-39 27 -30 53q6 17 25.5 32t35.5 15q28 0 47 -34z" />
    <glyph glyph-name="Idblgrave" unicode="&#x208;" horiz-adv-x="389" 
d="M319 -3q-99 3 -163 3l-157 -3l4 35l49 3q25 2 34 18t20 79l72 409q9 54 9 72q0 27 -38 30l-52 3l4 35q93 -3 152 -3l159 3l-4 -35l-45 -3q-25 -2 -33.5 -9.5t-12.5 -34.5l-87 -499q-3 -16 -3 -34q0 -16 8.5 -23t28.5 -8l59 -3zM233 747h-53l-141 72q-33 16 -25 39
q5 15 24 25.5t39 10.5q28 -2 48 -24zM417 747h-53l-141 72q-33 16 -25 39q5 15 24 25.5t39 10.5q28 -2 48 -24z" />
    <glyph glyph-name="idblgrave" unicode="&#x209;" horiz-adv-x="333" 
d="M293 84q-4 -3 -12.5 -8.5t-15.5 -11.5q-113 -81 -166 -81q-14 0 -23 12t-9 31q0 24 6 52l59 241q8 33 8 41q0 10 -10 10q-7 0 -30.5 -11.5t-38.5 -22.5l-22 -16l-13 26l63 47q102 76 150 76q11 0 18 -10t7 -27q0 -33 -9 -67l-54 -196q-20 -71 -20 -93q0 -11 11 -11
q14 0 62 30l27 17zM410 519h-49l-114 81q-39 27 -30 53q6 17 25.5 32t35.5 15q28 0 47 -34zM233 519h-49l-114 81q-39 27 -30 53q6 17 25.5 32t35.5 15q28 0 47 -34z" />
    <glyph glyph-name="Odblgrave" unicode="&#x20c;" horiz-adv-x="833" 
d="M794 414q0 -183 -123.5 -307t-305.5 -124q-137 0 -213 74.5t-76 210.5q0 187 117 307t300 120q145 0 228 -83q73 -73 73 -198zM656 435q0 217 -176 217q-127 0 -195 -115q-32 -53 -51.5 -135.5t-19.5 -162.5q0 -105 44 -159t130 -54q128 0 201 127q67 116 67 282z
M456 747h-53l-141 72q-33 16 -25 39q5 15 24 25.5t39 10.5q28 -2 48 -24zM640 747h-53l-141 72q-33 16 -25 39q5 15 24 25.5t39 10.5q28 -2 48 -24z" />
    <glyph glyph-name="odblgrave" unicode="&#x20d;" 
d="M502 319q0 -48 -13 -102.5t-33 -90.5q-17 -30 -55 -63.5t-80 -52.5q-57 -27 -125 -27q-148 0 -148 152q0 63 24 137q16 49 43.5 83.5t73.5 63.5q79 50 161 50q72 0 112 -39.5t40 -110.5zM388 323q0 46 -22 74t-58 28q-49 0 -85 -51q-26 -38 -43.5 -107t-17.5 -137
q0 -47 22 -75t59 -28q48 0 84 51q26 37 43.5 107t17.5 138zM511 519h-49l-114 81q-39 27 -30 53q6 17 25.5 32t35.5 15q28 0 47 -34zM334 519h-49l-114 81q-39 27 -30 53q6 17 25.5 32t35.5 15q28 0 47 -34z" />
    <glyph glyph-name="Rdblgrave" unicode="&#x210;" horiz-adv-x="722" 
d="M697 -3q-60 3 -98 3l-84 -3l-145 261q-8 14 -61 95l5 17h55q69 0 113.5 45t44.5 114q0 58 -32 83.5t-105 25.5q-23 0 -62 -3l-93 -535q-3 -16 -3 -34q0 -30 37 -31l59 -3l-4 -35q-99 3 -163 3l-157 -3l4 35l49 3q25 2 34 18t20 79l81 462q2 14 2 20q0 17 -9.5 24t-36.5 8
l-46 3l5 32q104 -3 170 -3q35 0 91 1.5t92 1.5q75 0 137 -38.5t62 -104.5q0 -91 -77 -140q-46 -30 -128 -45l156 -267q10 -19 26 -35t24 -17l37 -7v-30zM363 747h-53l-141 72q-33 16 -25 39q5 15 24 25.5t39 10.5q28 -2 48 -24zM547 747h-53l-141 72q-33 16 -25 39
q5 15 24 25.5t39 10.5q28 -2 48 -24z" />
    <glyph glyph-name="rdblgrave" unicode="&#x211;" horiz-adv-x="389" 
d="M391 326l-12 -6q-28 19 -52 19q-67 0 -123 -151q-22 -61 -41 -186q-74 -8 -108 -19l-11 12q19 57 27 92l24 107q26 115 26 160q0 16 -12 16t-42 -20l-34 -24l-13 26l81 64q68 53 108 53q25 0 25 -32q0 -15 -15 -78q-14 -60 -32 -140q58 118 79 155t41 58q36 37 77 37
q12 0 27 -6q-19 -82 -20 -137zM433 519h-49l-114 81q-39 27 -30 53q6 17 25.5 32t35.5 15q28 0 47 -34zM256 519h-49l-114 81q-39 27 -30 53q6 17 25.5 32t35.5 15q28 0 47 -34z" />
    <glyph glyph-name="Udblgrave" unicode="&#x214;" horiz-adv-x="778" 
d="M721 -3q-72 3 -118 3l-106 -3l-5 8l27 128q-68 -73 -116 -107q-61 -43 -132 -43q-100 0 -149 70q-28 38 -28 103q0 32 8 78l58 307q11 61 11 76q0 25 -37 26l-51 3l5 35l132 -3l87 3l6 -7l-86 -460q-3 -17 -3 -35q0 -46 14 -69q12 -21 36.5 -34t52.5 -13q43 0 94 30
q36 20 67 47.5t33 41.5l65 359q11 60 11 76q0 25 -37 26l-51 3l5 35q93 -3 152 -3l159 3l-5 -35l-46 -3q-26 -2 -35 -9.5t-14 -34.5l-90 -499q-4 -23 -4 -35q0 -16 8 -22.5t28 -7.5l59 -3zM428 747h-53l-141 72q-33 16 -25 39q5 15 24 25.5t39 10.5q28 -2 48 -24zM612 747
h-53l-141 72q-33 16 -25 39q5 15 24 25.5t39 10.5q28 -2 48 -24z" />
    <glyph glyph-name="udblgrave" unicode="&#x215;" 
d="M521 88q-33 -25 -35 -26q-105 -79 -140 -79q-15 0 -24.5 12t-9.5 31q0 23 16 81l32 117q-74 -117 -142 -179t-121 -62q-20 0 -32 16t-12 41t13 74q5 19 21 79q34 129 34 161q0 16 -17 16t-33 -10l-36 -21l-13 26l79 54q74 50 116 50q27 0 27 -35q0 -32 -29 -147l-35 -137
q-10 -42 -10 -66q0 -13 16 -13q22 0 58 36.5t73 94.5q77 125 80 245q46 -1 110 18l9 -11l-42 -141l-40 -155q-14 -46 -14 -72q0 -12 14 -12q24 0 55 25l22 17zM513 519h-49l-114 81q-39 27 -30 53q6 17 25.5 32t35.5 15q28 0 47 -34zM336 519h-49l-114 81q-39 27 -30 53
q6 17 25.5 32t35.5 15q28 0 47 -34z" />
    <glyph glyph-name="uni0218" unicode="&#x218;" 
d="M495 239q0 -58 -30.5 -113.5t-83.5 -93.5q-71 -49 -171 -49q-97 0 -160 40l21 166h27v-76q39 -74 152 -74q67 0 103 32t36 91q0 48 -25 70q-14 13 -30 21t-68 27q-94 34 -128 69.5t-34 100.5q0 100 78.5 172.5t187.5 72.5q82 0 147 -44q-22 -80 -22 -147h-30v85
q-59 50 -134 50q-59 0 -97 -31.5t-38 -81.5q0 -44 27.5 -71t100.5 -54q62 -23 86.5 -35.5t46.5 -32.5q38 -35 38 -94zM309 -83q-21 -38 -32.5 -58.5t-28 -41.5t-22.5 -27t-35 -36l-45 -25l-14 10q30 51 37.5 74t18.5 89q27 2 109 28z" />
    <glyph glyph-name="uni0219" unicode="&#x219;" horiz-adv-x="444" 
d="M394 160q0 -52 -49 -97q-87 -80 -183 -80q-51 0 -137 27q16 76 21 131h30v-47q53 -56 130 -56q40 0 64 19.5t24 52.5q0 54 -68 67l-44 9q-114 24 -114 112q0 34 14.5 58t48.5 49q50 36 83.5 50t69.5 14q64 0 122 -31l-6 -33q-11 -59 -11 -83h-30l-6 48q-54 44 -110 44
q-37 0 -59.5 -20t-22.5 -53q0 -26 16.5 -39.5t59.5 -23.5l59 -13q46 -10 72 -38t26 -67zM251 -83q-21 -38 -32.5 -58.5t-28 -41.5t-22.5 -27t-35 -36l-45 -25l-14 10q30 51 37.5 74t18.5 89q27 2 109 28z" />
    <glyph glyph-name="uni021A" unicode="&#x21a;" horiz-adv-x="611" 
d="M674 676l-30 -168h-38l4 84q1 20 -12.5 29t-44.5 9h-117l-95 -530q-4 -23 -4 -35q0 -16 8 -22.5t28 -7.5l59 -3l-5 -35q-102 3 -168 3l-156 -3l5 35l53 3q25 2 36.5 20.5t21.5 76.5l85 498h-124q-35 0 -57 -24q-8 -12 -15 -40l-14 -58h-38l25 168l6 5q177 -3 290 -3
l290 3zM324 -83q-21 -38 -32.5 -58.5t-28 -41.5t-22.5 -27t-35 -36l-45 -25l-14 10q30 51 37.5 74t18.5 89q27 2 109 28z" />
    <glyph glyph-name="uni021B" unicode="&#x21b;" horiz-adv-x="389" 
d="M409 452l-14 -56q-40 5 -92 5h-47l-51 -237q-9 -44 -9 -72q0 -16 5 -22t19 -6q25 0 54 21l56 40l13 -26l-77 -57q-81 -59 -133 -59q-54 0 -54 60q0 20 10 65l62 293h-109l7 27l115 32q16 89 16 122v16q30 4 57 14l66 24l10 -12l-31 -116l-13 -56l134 5zM242 -83
q-21 -38 -32.5 -58.5t-28 -41.5t-22.5 -27t-35 -36l-45 -25l-14 10q30 51 37.5 74t18.5 89q27 2 109 28z" />
    <glyph glyph-name="ereversed" unicode="&#x258;" horiz-adv-x="444" 
d="M383 98q-19 -53 -62 -84t-99 -31q-45 0 -82.5 18t-96.5 67q-5 4 -11.5 9t-11.5 9l20 28q81 -67 138 -67q35 0 61.5 21.5t40.5 60.5q12 33 18 64q-103 25 -146 50q-89 51 -58 139q14 40 47 63.5t76 23.5q59 0 118.5 -43t70.5 -95q9 -44 2.5 -112t-25.5 -121zM303 219l7 58
q15 144 -61 144q-48 0 -66 -53q-16 -46 6 -82.5t77 -54.5z" />
    <glyph glyph-name="schwa" unicode="&#x259;" horiz-adv-x="444" 
d="M429 354q0 -53 -17.5 -120.5t-42.5 -112.5q-29 -52 -103.5 -95t-133.5 -43q-43 0 -68 23.5t-25 63.5q0 88 107 139q54 26 164 50q5 36 5 64q0 39 -19 60.5t-54 21.5q-57 0 -162 -67l-10 28q6 4 14.5 9t14.5 9q76 49 120 67t89 18q56 0 88.5 -31t32.5 -84zM306 233
l-41 -12q-61 -18 -96.5 -54.5t-35.5 -82.5q0 -25 13 -39t35 -14q37 0 66 37t45 107z" />
    <glyph glyph-name="ringhalfright" unicode="&#x2be;" horiz-adv-x="362" 
d="M397 569q-1 -38 -11.5 -80.5t-25.5 -65.5q-21 -31 -71 -61q-58 -36 -95 -36q-33 0 -79 16q-6 3 -4 10q11 27 23 92q2 8 9 8h22q7 0 7 -7l-4 -36l2 -6q27 -20 56 -20q34 0 53 41q25 60 25 128q0 24 -12.5 38.5t-33.5 14.5q-23 0 -45 -9.5t-61 -35.5q-1 -1 -5 -1q-5 0 -6 4
l-7 20q-2 7 4 10q62 42 97 57.5t71 15.5q41 0 65.5 -26.5t25.5 -70.5z" />
    <glyph glyph-name="ringhalfleft" unicode="&#x2bf;" horiz-adv-x="362" 
d="M371 409q4 -6 -3 -10q-62 -42 -97 -57.5t-71 -15.5q-41 0 -66 26.5t-25 70.5q1 39 11.5 81t25.5 65q18 29 70 61q58 36 96 36q32 0 79 -16q6 -4 3 -10q-10 -27 -22 -92q-4 -8 -10 -8h-22q-8 0 -6 7l3 36l-2 6q-26 20 -55 20q-35 0 -54 -41q-24 -57 -24 -128
q-1 -24 11.5 -38.5t33.5 -14.5q39 0 106 45q2 1 6 1q3 0 6 -4z" />
    <glyph glyph-name="circumflex" unicode="&#x2c6;" horiz-adv-x="333" 
d="M414 522h-51l-88 95l-131 -95h-57l160 174h81z" />
    <glyph glyph-name="caron" unicode="&#x2c7;" horiz-adv-x="333" 
d="M462 696l-162 -174h-82l-88 174h50l91 -97l135 97h56z" />
    <glyph glyph-name="breve" unicode="&#x2d8;" horiz-adv-x="333" 
d="M444 690q-13 -63 -38 -96q-50 -66 -146 -66q-69 0 -101 42q-30 38 -31 120h43q4 -47 29 -68.5t75 -21.5q48 0 78 21t52 69h39z" />
    <glyph glyph-name="dotaccent" unicode="&#x2d9;" horiz-adv-x="333" 
d="M335 615q0 -31 -19.5 -51t-49.5 -20q-25 0 -39.5 15.5t-14.5 41.5q0 31 19.5 52.5t47.5 21.5q25 0 40.5 -17t15.5 -43z" />
    <glyph glyph-name="ring" unicode="&#x2da;" 
d="M485 609q0 -41 -29.5 -70.5t-70.5 -29.5t-70.5 29.5t-29.5 71.5q0 41 29.5 70t72.5 29q40 0 69 -29.5t29 -70.5zM435 609q0 20 -14.5 35t-34.5 15q-22 0 -36.5 -14.5t-14.5 -35.5t14.5 -35.5t35.5 -14.5t35.5 14.5t14.5 35.5z" />
    <glyph glyph-name="ogonek" unicode="&#x2db;" horiz-adv-x="333" 
d="M246 -150q-92 -100 -157 -100q-33 0 -48 26t-6 75q14 81 156 164h45q-108 -66 -122 -147q-3 -19 7.5 -26t29.5 -7q24 0 65 29l23 16z" />
    <glyph glyph-name="tilde" unicode="&#x2dc;" horiz-adv-x="333" 
d="M453 669q-31 -119 -115 -119q-26 0 -82 22q-54 22 -76 22q-15 0 -25 -9.5t-21 -34.5h-40q27 119 118 119q34 0 76 -19q51 -23 75 -23q30 0 49 42h41z" />
    <glyph glyph-name="hungarumlaut" unicode="&#x2dd;" horiz-adv-x="333" 
d="M312 653q0 -26 -49 -53l-142 -81h-49l137 147q31 34 59 34q16 0 30 -15t14 -32zM489 653q0 -26 -49 -53l-142 -81h-49l137 147q31 34 59 34q16 0 30 -15t14 -32z" />
    <glyph glyph-name="uni0300" unicode="&#x300;" horiz-adv-x="0" 
d="M-78 518h-49l-123 89q-16 12 -20 22t1 25q7 19 25.5 32t37.5 13q21 0 40 -30z" />
    <glyph glyph-name="uni0301" unicode="&#x301;" horiz-adv-x="0" 
d="M-55 654q0 -15 -7.5 -25t-28.5 -22l-154 -89h-49l141 151q29 30 51 30q20 0 33.5 -13t13.5 -32z" />
    <glyph glyph-name="uni0302" unicode="&#x302;" horiz-adv-x="0" 
d="M-30 522h-51l-88 95l-131 -95h-57l160 174h81z" />
    <glyph glyph-name="uni0303" unicode="&#x303;" horiz-adv-x="0" 
d="M9 669q-31 -119 -115 -119q-26 0 -82 22q-54 22 -76 22q-15 0 -25 -9.5t-21 -34.5h-40q27 119 118 119q34 0 76 -19q51 -23 75 -23q30 0 49 42h41z" />
    <glyph glyph-name="uni0304" unicode="&#x304;" horiz-adv-x="0" 
d="M1 644l-16 -70h-326l17 70h325z" />
    <glyph glyph-name="uni0306" unicode="&#x306;" horiz-adv-x="0" 
d="M0 690q-13 -63 -38 -96q-50 -66 -146 -66q-69 0 -101 42q-30 38 -31 120h43q4 -47 29 -68.5t75 -21.5q48 0 78 21t52 69h39z" />
    <glyph glyph-name="uni0307" unicode="&#x307;" horiz-adv-x="0" 
d="M-109 615q0 -31 -19.5 -51t-49.5 -20q-25 0 -39.5 15.5t-14.5 41.5q0 31 19.5 52.5t47.5 21.5q25 0 40.5 -17t15.5 -43z" />
    <glyph glyph-name="uni0308" unicode="&#x308;" horiz-adv-x="0" 
d="M-7 615q0 -31 -19.5 -51t-49.5 -20q-25 0 -39.5 15.5t-14.5 41.5q0 31 19.5 52.5t47.5 21.5q25 0 40.5 -17t15.5 -43zM-220 615q0 -31 -19.5 -51t-49.5 -20q-25 0 -39.5 15.5t-14.5 41.5q0 31 19.5 52.5t47.5 21.5q25 0 40.5 -17t15.5 -43z" />
    <glyph glyph-name="uni0309" unicode="&#x309;" horiz-adv-x="0" 
d="M5 669q0 -35 -35 -58l-46 -31q-28 -18 -28 -27q0 -6 12 -18l-18 -14q-7 3 -16 16t-9 23q0 19 25 44l27 26q22 21 22 37q0 26 -34 26q-30 0 -42 -26l-3 -13l-28 4l25 59q36 20 66 20q38 0 60.5 -18.5t21.5 -49.5z" />
    <glyph glyph-name="uni030A" unicode="&#x30a;" horiz-adv-x="0" 
d="M-71 609q0 -41 -29.5 -70.5t-70.5 -29.5t-70.5 29.5t-29.5 71.5q0 41 29.5 70t72.5 29q40 0 69 -29.5t29 -70.5zM-121 609q0 20 -14.5 35t-34.5 15q-22 0 -36.5 -14.5t-14.5 -35.5t14.5 -35.5t35.5 -14.5t35.5 14.5t14.5 35.5z" />
    <glyph glyph-name="uni030B" unicode="&#x30b;" horiz-adv-x="0" 
d="M-132 653q0 -26 -49 -53l-142 -81h-49l137 147q31 34 59 34q16 0 30 -15t14 -32zM45 653q0 -26 -49 -53l-142 -81h-49l137 147q31 34 59 34q16 0 30 -15t14 -32z" />
    <glyph glyph-name="uni030C" unicode="&#x30c;" horiz-adv-x="0" 
d="M18 696l-162 -174h-82l-88 174h50l91 -97l135 97h56z" />
    <glyph glyph-name="uni030F" unicode="&#x30f;" horiz-adv-x="0" 
d="M0 519h-49l-114 81q-39 27 -30 53q6 17 25.5 32t35.5 15q28 0 47 -34zM-177 519h-49l-114 81q-39 27 -30 53q6 17 25.5 32t35.5 15q28 0 47 -34z" />
    <glyph glyph-name="uni0311" unicode="&#x311;" horiz-adv-x="0" 
d="M-29 528h-43q-4 47 -29 68.5t-75 21.5q-48 0 -78 -21t-52 -69h-39q13 63 38 96q50 66 146 66q69 0 101 -42q30 -38 31 -120z" />
    <glyph glyph-name="uni0323" unicode="&#x323;" horiz-adv-x="0" 
d="M-139 -151q0 -31 -19.5 -51t-49.5 -20q-25 0 -39.5 15.5t-14.5 41.5q0 31 19.5 52.5t47.5 21.5q25 0 40.5 -17t15.5 -43z" />
    <glyph glyph-name="uni0326" unicode="&#x326;" horiz-adv-x="0" 
d="M-212 -83q-21 -38 -32.5 -58.5t-28 -41.5t-22.5 -27t-35 -36l-45 -25l-14 10q30 51 37.5 74t18.5 89q27 2 109 28z" />
    <glyph glyph-name="uni032E" unicode="&#x32e;" horiz-adv-x="0" 
d="M-123 -91q-36 -132 -198 -132q-73 0 -107.5 30.5t-35.5 101.5h47q4 -38 30.5 -55.5t80.5 -17.5q53 0 85.5 16.5t55.5 56.5h42z" />
    <glyph glyph-name="uni032F" unicode="&#x32f;" horiz-adv-x="0" 
d="M-146 -223h-47q-4 38 -30.5 55.5t-80.5 17.5q-53 0 -85.5 -16.5t-55.5 -56.5h-42q36 132 198 132q73 0 107.5 -30.5t35.5 -101.5z" />
    <glyph glyph-name="uni0330" unicode="&#x330;" horiz-adv-x="0" 
d="M-126 -97q-31 -119 -115 -119q-26 0 -82 22q-54 22 -76 22q-15 0 -25 -9.5t-21 -34.5h-40q27 119 118 119q34 0 76 -19q51 -23 75 -23q30 0 49 42h41z" />
    <glyph glyph-name="uni0331" unicode="&#x331;" horiz-adv-x="0" 
d="M-134 -122l-16 -70h-326l17 70h325z" />
    <glyph glyph-name="uni0332" unicode="&#x332;" horiz-adv-x="0" 
d="M-134 -122l-16 -70h-326l17 70h325z" />
    <glyph glyph-name="Alpha" unicode="&#x391;" horiz-adv-x="722" 
d="M685 -3q-89 3 -146 3l-155 -3v35l42 3q45 3 42 31l-25 198q-12 0 -33 1t-39.5 1.5t-37.5 0.5l-111 -3l-86 -152q-19 -34 -19 -57q0 -17 43 -20l44 -3l-5 -35q-76 3 -124 3l-110 -3l5 35l34 3q28 3 47 35l363 613h96q2 -11 4.5 -35t3.5 -36l76 -522q7 -51 54 -55l37 -3
v-35zM438 307l-38 266l-155 -266h193z" />
    <glyph glyph-name="Beta" unicode="&#x392;" horiz-adv-x="667" 
d="M601 214q0 -62 -39.5 -115t-107.5 -81q-54 -22 -122 -21q-21 0 -56.5 1t-66.5 1.5t-63 0.5l-138 -3l5 32l28 3q23 2 32.5 14t15.5 46l87 502q2 14 2 21q0 16 -10 23t-36 8l-46 3l5 32l158 -3q37 0 95 2t95 2q64 0 105 -16q40 -16 62.5 -49t22.5 -75q0 -66 -47 -108
q-28 -25 -59.5 -40.5t-95.5 -34.5q83 -8 124 -37q50 -37 50 -108zM497 535q0 56 -33 80q-37 27 -97 24q-10 0 -17 -1l-39 -3l-47 -260h43q190 0 190 160zM469 208q0 59 -30 88q-39 39 -117 39l-66 -3l-45 -281q68 -11 112 -11q68 0 107 45t39 123z" />
    <glyph glyph-name="Gamma" unicode="&#x393;" 
d="M568 520h-32v53q0 36 -7 44q-7 6 -50 10.5t-69 4.5q-71 0 -93 -2l-94 -530q-4 -20 -4 -35q0 -16 8 -22.5t28 -7.5l63 -3l-5 -35q-101 3 -165 3l-154 -3l5 35l43 3q24 2 36 20.5t22 76.5l82 462q2 14 2 20q0 17 -9.5 24t-36.5 8l-50 3l5 32q97 -3 159 -3q30 0 78 1.5
t79 1.5l174 -3l10 -6z" />
    <glyph glyph-name="Delta" unicode="&#x394;" horiz-adv-x="659" 
d="M657 0h-654l445 731h23zM489 122l-109 439l-265 -439h374z" />
    <glyph glyph-name="Epsilon" unicode="&#x395;" horiz-adv-x="611" 
d="M556 168q-14 -59 -34 -168l-167 -3q-35 0 -97.5 2t-105.5 1l-141 -3l5 32l28 3q23 2 32.5 14t15.5 46l87 502q2 14 2 21q0 16 -10 23t-36 8l-46 3l5 32q96 -3 157 -3q35 0 91 1.5t92 1.5l162 -3l10 -6l-25 -152h-32v53q0 42 -12 47q-12 4 -67.5 9t-88.5 5q-18 0 -27 -1
l-39 -3l-45 -252h86l140 3l5 -9l-14 -47l-170 5h-55l-48 -274q38 -8 98 -6q13 0 45 -1t48.5 0t39 5t35 15t18.5 29l22 70h36z" />
    <glyph glyph-name="Zeta" unicode="&#x396;" horiz-adv-x="667" 
d="M634 180l-39 -183q-187 3 -306 3l-288 -3v27l495 605h-164q-131 0 -161 -14q-11 -5 -18 -29l-24 -76h-35q15 67 26 160l7 11q165 -3 270 -3l279 3l-5 -35l-483 -597h180q109 0 185 15q28 59 45 116h36z" />
    <glyph glyph-name="Eta" unicode="&#x397;" horiz-adv-x="778" 
d="M723 -3q-102 3 -168 3l-148 -3l5 35l49 3q25 1 33.5 16t20.5 81l37 206h-291l-41 -236q-4 -20 -4 -39q0 -25 38 -28l49 -3l-5 -35q-91 3 -150 3l-160 -3l5 35l49 3q26 2 34.5 17t19.5 80l72 409q8 50 8 73q0 15 -8 21.5t-30 7.5l-51 3l5 35q96 -3 157 -3l158 3l-5 -35
l-42 -3q-26 -2 -36.5 -12.5t-16.5 -42.5l-39 -202h294l25 155q8 50 8 76q0 23 -38 26l-51 3l5 35q93 -3 152 -3l163 3l-5 -35l-42 -3q-27 -2 -37 -12t-16 -43l-87 -486q-4 -19 -4 -38q0 -28 38 -29l55 -3z" />
    <glyph glyph-name="Theta" unicode="&#x398;" horiz-adv-x="833" 
d="M794 414q0 -183 -123.5 -307t-305.5 -124q-137 0 -213 74.5t-76 210.5q0 187 117 307t300 120q145 0 228 -83q73 -73 73 -198zM656 435q0 217 -176 217q-127 0 -195 -115q-32 -53 -51.5 -135.5t-19.5 -162.5q0 -105 44 -159t130 -54q128 0 201 127q67 116 67 282z
M548 234h-33q3 26 1 36q-2 22 -10 28.5t-40 6.5h-79q-38 0 -50 -22q-7 -13 -17 -49h-33l23 122q4 19 18 118h33q-3 -26 -1 -36q2 -22 10 -28.5t40 -6.5h79q39 0 49 22q7 11 18 49h33l-21 -114z" />
    <glyph glyph-name="Iota" unicode="&#x399;" horiz-adv-x="389" 
d="M319 -3q-99 3 -163 3l-157 -3l4 35l49 3q25 2 34 18t20 79l72 409q9 54 9 72q0 27 -38 30l-52 3l4 35q93 -3 152 -3l159 3l-4 -35l-45 -3q-25 -2 -33.5 -9.5t-12.5 -34.5l-87 -499q-3 -16 -3 -34q0 -16 8.5 -23t28.5 -8l59 -3z" />
    <glyph glyph-name="Kappa" unicode="&#x39a;" horiz-adv-x="722" 
d="M684 -3q-56 3 -92 3l-94 -3q-8 15 -49 73l-129 183q-16 23 -59 75l-40 -228q-3 -18 -3 -30q0 -19 7.5 -26.5t29.5 -8.5l49 -3l-4 -35q-91 3 -150 3l-160 -3l4 35l49 3q25 2 34 18t20 79l72 409q9 51 9 72q0 27 -38 30l-52 3l4 35q93 -3 152 -3l159 3l-4 -35l-45 -3
q-25 -2 -33.5 -9.5t-12.5 -34.5l-47 -265q24 13 109 92l140 131q9 6 35.5 38t31.5 37q5 6 7.5 12.5t3 9t0 13t-0.5 14.5q48 -3 79 -3l80 3v-33h-35q-24 0 -82 -52l-245 -223l196 -272q30 -41 41 -52t27 -13l39 -6z" />
    <glyph glyph-name="Lambda" unicode="&#x39b;" horiz-adv-x="722" 
d="M685 -3q-89 3 -146 3l-155 -3v35l42 3q45 3 42 31l-68 507l-264 -461q-19 -34 -19 -57q0 -17 43 -20l44 -3l-5 -35q-76 3 -124 3l-110 -3l5 35l34 3q28 3 47 35l363 613h96q2 -11 4.5 -35t3.5 -36l76 -522q7 -51 54 -55l37 -3v-35z" />
    <glyph glyph-name="Mu" unicode="&#x39c;" horiz-adv-x="944" 
d="M884 -3q-93 3 -152 3l-155 -3l5 35l49 3q23 4 29.5 11t12.5 35q1 4 2 9l2 11l82 485l-291 -478l-71 -125h-25l-143 565l-107 -440q-8 -32 -8 -44q0 -28 34 -29l51 -3l-5 -35q-66 3 -108 3l-109 -3l2 35l42 3q25 1 40 56l125 461q9 33 9 61q0 30 -53 33l-45 3l5 32
q67 -3 110 -3l111 3l127 -507q211 331 308 507q69 -3 113 -3l114 3l-5 -32l-39 -3q-28 -2 -38.5 -15.5t-17.5 -53.5l-80 -467l-2 -8q-5 -32 -5 -37q0 -29 36 -30l55 -3z" />
    <glyph glyph-name="Nu" unicode="&#x39d;" horiz-adv-x="778" 
d="M829 681l-6 -32l-37 -3q-24 -3 -34 -10q-10 -9 -30 -108l-86 -428q-8 -36 -16 -103h-85l-310 537l-73 -396q-8 -43 -8 -62q0 -40 36 -41l51 -3l-5 -35q-68 3 -112 3l-116 -3l2 35l48 3q16 1 25 13t15 43q38 193 98 491q2 8 -9 23t-24 24q-24 15 -50 17l-39 3l3 32
q65 -3 107 -3l108 3l314 -539l74 400q6 38 6 70q0 31 -46 34l-42 3l5 32q72 -3 118 -3z" />
    <glyph glyph-name="Xi" unicode="&#x39e;" horiz-adv-x="690" 
d="M692 494h-37q0 31 -1 42q-3 25 -22 30q-16 3 -68 3h-241q-54 0 -69 -3q-15 -4 -25 -14q-4 -5 -25 -58h-37q11 40 18 85l17 106l5 4q157 -2 257 -2q130 0 256 2l6 -4l-21 -103q-5 -29 -13 -88zM693 231l-60 -231l-8 -3q-84 3 -269 3q-174 0 -298 -3l-6 3l11 104l12 127h37
q6 -78 25 -94q14 -11 86 -11h263q66 0 81 2q32 3 54 37q7 9 35 66h37zM517 234h-33q3 21 2 36q-2 16 -5 21.5t-13 9.5t-32 4h-79q-38 0 -50 -22q-7 -11 -18 -49h-33l24 122q4 24 9 59t9 59h33q-3 -21 -2 -36q2 -16 5 -21.5t13 -9.5t32 -4h79q38 0 50 22q5 10 18 49h33
l-22 -114z" />
    <glyph glyph-name="Omicron" unicode="&#x39f;" horiz-adv-x="833" 
d="M794 414q0 -183 -123.5 -307t-305.5 -124q-137 0 -213 74.5t-76 210.5q0 187 117 307t300 120q145 0 228 -83q73 -73 73 -198zM656 435q0 217 -176 217q-127 0 -195 -115q-32 -53 -51.5 -135.5t-19.5 -162.5q0 -105 44 -159t130 -54q128 0 201 127q67 116 67 282z" />
    <glyph glyph-name="Pi" unicode="&#x3a0;" horiz-adv-x="728" 
d="M673 -3q-102 3 -168 3l-148 -3l5 35l49 3q26 2 34.5 17t19.5 80l82 466h-241l-86 -496q-4 -20 -4 -39q0 -25 38 -28l49 -3l-5 -35l-150 3l-160 -3l5 35l49 3q26 2 34.5 17t19.5 80l72 409q8 43 8 73q0 15 -8 21.5t-30 7.5l-51 3l5 35h684l-5 -35l-42 -3q-27 -2 -37 -12
t-16 -43l-87 -486q-4 -19 -4 -39q0 -27 38 -28l55 -3z" />
    <glyph glyph-name="Rho" unicode="&#x3a1;" horiz-adv-x="667" 
d="M673 518q0 -98 -73.5 -167.5t-177.5 -69.5q-47 0 -97 18l-2 35q36 -12 66 -12q65 0 108.5 54t43.5 135q0 66 -34 96.5t-108 30.5q-21 0 -62 -3l-95 -535q-3 -16 -3 -34q0 -30 37 -31l59 -3l-4 -35q-99 3 -163 3l-157 -3l4 35l49 3q25 2 34 18t20 79l82 462q2 14 2 20
q0 17 -9.5 24t-36.5 8l-56 3l5 32q102 -3 168 -3q38 0 97 1.5t97 1.5q80 0 143 -43.5t63 -119.5z" />
    <glyph glyph-name="Sigma" unicode="&#x3a3;" horiz-adv-x="660" 
d="M677 231l-143 -300h-40q3 7 9.5 21.5t11 24.5t4.5 12q0 11 -11 11h-501l5 28l385 289l-270 372l5 30h441q42 0 45 17v45h37l33 -223h-41q-13 83 -33 106q-15 17 -72 17h-236l215 -300l-3 -18l-321 -239h336q43 0 50 8q6 8 52 99h42z" />
    <glyph glyph-name="Tau" unicode="&#x3a4;" horiz-adv-x="611" 
d="M674 676l-30 -168h-38l4 84q1 20 -12.5 29t-44.5 9h-117l-95 -530q-4 -23 -4 -35q0 -16 8 -22.5t28 -7.5l59 -3l-5 -35q-102 3 -168 3l-156 -3l5 35l53 3q25 2 36.5 20.5t21.5 76.5l85 498h-124q-35 0 -57 -24q-8 -12 -15 -40l-14 -58h-38l25 168l6 5q177 -3 290 -3
l290 3z" />
    <glyph glyph-name="Upsilon" unicode="&#x3a5;" horiz-adv-x="782" 
d="M861 552q-1 -14 -11 -41l-16 -7l-9 3q-1 70 -70 70q-64 0 -133 -69t-102 -173q-18 -60 -28 -121q-8 -42 -21 -151q0 -14 14 -19q4 -1 56 -4l-8 -43q-72 3 -152 3q-62 0 -143 -3l8 43q55 3 58 4q14 5 20 19q14 44 33 151q12 67 13 119q0 101 -41.5 175.5t-100.5 74.5
q-61 0 -103 -78l-6 -2l-13 14q31 75 75 121q57 57 127 57q73 0 113.5 -62t36.5 -173q-4 -72 -12 -134h9l35 115q44 123 119 189t159 66q76 0 94 -68q7 -30 -1 -76z" />
    <glyph glyph-name="Phi" unicode="&#x3a6;" horiz-adv-x="716" 
d="M730 339q-15 -83 -94.5 -131.5t-189.5 -59.5l-8 -48q-3 -16 -3 -34q0 -16 8.5 -23t28.5 -8l59 -3l-4 -35q-99 3 -163 3l-157 -3l4 35l49 3q25 2 34 18t20 79l3 17q-104 12 -164.5 60t-46.5 130t92 130t186 60l2 12q9 54 9 72q0 27 -38 30l-52 3l4 35q93 -3 152 -3l159 3
l-4 -35l-45 -3q-25 -2 -33.5 -9.5t-12.5 -34.5l-12 -69q106 -11 169 -59.5t48 -131.5zM327 204l47 270q-51 -16 -87.5 -52t-44.5 -83t15.5 -83t69.5 -52zM594 339q9 49 -16.5 85t-73.5 52l-48 -274q53 16 91 52t47 85z" />
    <glyph glyph-name="Chi" unicode="&#x3a7;" horiz-adv-x="722" 
d="M684 -3q-92 3 -151 3l-153 -3v35l62 2q19 0 19 16q0 17 -7 31l-101 199l-168 -192q-15 -16 -15 -36q0 -15 34 -17l55 -3l-5 -35q-79 3 -129 3l-134 -3l5 35l40 3q30 2 52 26l242 262l-152 291q-14 26 -56 29l-40 3v35q98 -3 160 -3l160 3v-35l-40 -3q-23 -1 -31 -5
t-8 -12q0 -15 9 -33l89 -175l152 172l1 1q20 20 20 33q0 16 -39 19l-48 3l5 35q79 -3 130 -3l130 3l-2 -35l-44 -3q-11 1 -34.5 -15t-43.5 -38l-205 -213l151 -295q15 -29 24 -37.5t24 -9.5l47 -3z" />
    <glyph glyph-name="Psi" unicode="&#x3a8;" horiz-adv-x="908" 
d="M954 521q-47 0 -85 -37.5t-47 -88.5q-16 -93 -95.5 -159.5t-183.5 -83.5l-9 -52q-3 -16 -3 -34q0 -16 8.5 -23t28.5 -8l59 -3l-4 -35q-99 3 -163 3l-157 -3l4 35l49 3q25 2 34 18t20 79l4 21q-96 19 -150.5 84.5t-37.5 157.5q8 52 -16.5 89t-71.5 37l9 48q99 0 164 -47
t51 -127q-11 -59 6 -109t56 -75l58 330q9 54 9 72q0 27 -38 30l-52 3l4 35q93 -3 152 -3l159 3l-4 -35l-45 -3q-25 -2 -33.5 -9.5t-12.5 -34.5l-68 -390q50 22 86 73.5t47 112.5q14 80 95.5 127t180.5 47z" />
    <glyph glyph-name="Omega" unicode="&#x3a9;" horiz-adv-x="766" 
d="M787 190l-90 -190h-252q60 90 96 163q62 125 87 260q11 64 11 103q0 57 -19 98q-31 68 -115 68q-47 0 -86 -21q-38 -21 -66 -64q-47 -72 -67 -188q-11 -69 -11 -131q0 -28 4 -82q8 -78 44 -206h-253l-24 190h33l12 -82h147l2 11q-110 96 -110 241q0 34 5 59
q24 135 128 221q109 91 248 91q138 0 217 -91q56 -65 56 -163q0 -26 -5 -58q-16 -87 -72 -165.5t-138 -134.5l-2 -11h147q7 14 20 41t20 41h33z" />
    <glyph glyph-name="alpha" unicode="&#x3b1;" horiz-adv-x="790" 
d="M760 89q-8 -43 -39.5 -74.5t-70.5 -31.5q-105 0 -140 125q-95 -125 -193 -125q-112 0 -181 69t-51 171q18 104 112 175t205 71q70 0 122.5 -36.5t77.5 -97.5q76 124 91 136l60 -48l11 -38q-110 -95 -144 -127q1 -8 1 -25v-6q0 -44 0.5 -68.5t4 -59.5t12 -51.5t21.5 -16.5
q19 0 33.5 17t19.5 41h48zM499 169q-2 28 -2 43q0 43 -3 75.5t-13 65.5t-32 50.5t-55 17.5q-64 0 -111.5 -58.5t-61.5 -139.5q-14 -78 13.5 -135t90.5 -57q49 0 90.5 37t83.5 101z" />
    <glyph glyph-name="beta" unicode="&#x3b2;" horiz-adv-x="575" 
d="M570 189q-17 -91 -105.5 -148.5t-195.5 -57.5q-55 0 -100 24l-1 -7q-21 -121 -71 -226l-88 -15l-40 15q57 115 77 226l80 452q17 100 95.5 173t173.5 73q83 0 134 -50t38 -126q-8 -47 -45 -86t-89 -61q69 -22 108.5 -71.5t28.5 -114.5zM434 189q11 67 -31.5 112.5
t-112.5 45.5l9 48q47 0 85 37.5t47 89.5q23 128 -44 128q-56 0 -90 -57t-49 -141l-69 -390q42 -31 99 -31q55 0 99.5 47t56.5 111z" />
    <glyph glyph-name="gamma" unicode="&#x3b3;" horiz-adv-x="602" 
d="M636 452q-15 -82 -69.5 -159.5t-147.5 -175.5q-9 -79 -28 -179q-13 -77 -54 -132.5t-99 -55.5q-39 0 -58.5 30t-13 76.5t37.5 91.5q14 21 164 179q11 220 -131 220q-35 0 -63.5 -29.5t-35.5 -68.5h-48q16 91 59.5 155.5t109.5 64.5q177 0 166 -268q63 101 89 251l84 15z
M343 -62q14 76 19 119q-109 -115 -119 -130q-32 -46 -31.5 -87.5t35.5 -41.5q73 0 96 140z" />
    <glyph glyph-name="delta" unicode="&#x3b4;" horiz-adv-x="579" 
d="M569 203q-16 -93 -99.5 -156.5t-182.5 -63.5q-100 0 -160.5 63.5t-44.5 156.5q13 77 85.5 120.5t177.5 55.5q-86 82 -71 170q11 61 55 105t99 44q71 0 121.5 -25.5t59.5 -79.5l-80 -41l-42 1q-5 28 -10.5 46.5t-20.5 34.5t-36 16q-31 0 -51 -29.5t-28 -71.5q-5 -30 9 -59
t30.5 -45t47.5 -41q47 -38 73 -62t50 -64t18 -75zM433 203q13 76 -38 132q-66 -7 -117 -42.5t-60 -89.5q-12 -71 6 -121.5t71 -50.5t89.5 51t48.5 121z" />
    <glyph glyph-name="epsilon" unicode="&#x3b5;" horiz-adv-x="503" 
d="M472 85q-33 -44 -81.5 -69.5t-98.5 -25.5q-102 0 -167.5 39.5t-52.5 115.5q14 78 107 111q-35 33 -25 82q9 56 64.5 90.5t122.5 34.5q87 0 142 -61l-40 -35q-42 48 -110 48q-23 0 -37.5 -22.5t-19.5 -54.5q-7 -35 19 -59q36 4 82 4v-52l-13 -25q-60 0 -104 11
q-58 -24 -66 -72q-9 -46 23 -76.5t83 -30.5q38 0 74 19t60 51z" />
    <glyph glyph-name="zeta" unicode="&#x3b6;" horiz-adv-x="469" 
d="M423 -128q-9 -51 -31.5 -86.5t-58.5 -35.5q-42 0 -59 38l46 24q6 -14 22 -14q22 0 33 74q8 39 -48 77l-46 30q-33 22 -47 31.5t-45.5 32t-47 36.5t-34.5 32.5t-26 32.5t-5 26q24 133 84 245.5t147 165.5q-28 46 -6 100l61 10l27 -10q-15 -37 -7 -68q33 7 60 7
q37 0 60.5 -11.5t19.5 -37.5q-9 -48 -97 -48q-44 0 -77 19q-29 -23 -51.5 -62t-38.5 -97.5t-25 -99.5t-21 -113q-8 -47 20 -80.5t81 -68.5l46 -31q77 -52 64 -118z" />
    <glyph glyph-name="eta" unicode="&#x3b7;" horiz-adv-x="679" 
d="M684 291q-8 -49 -46 -145.5t-46 -145.5q-19 -107 -3 -226l-88 -15l-40 15q-12 101 9 226q8 49 38.5 145.5t39.5 145.5q9 53 -11 91.5t-64 38.5q-49 0 -88 -38.5t-48 -91.5l-51 -291h-122l51 291q3 20 5 30t4.5 28.5t2 28.5t-2 21.5t-6 16.5t-12.5 5q-37 0 -52 -82h-48
q9 53 38.5 91.5t70.5 38.5q42 0 72 -22.5t44 -60.5q61 83 150 83q95 0 156 -49.5t47 -128.5z" />
    <glyph glyph-name="theta" unicode="&#x3b8;" horiz-adv-x="506" 
d="M519 337q-12 -68 -34 -129t-54.5 -112.5t-79.5 -82t-101 -30.5t-90.5 31t-50 81t-16 113.5t11.5 128.5q13 70 35 131.5t54.5 114.5t79.5 84t102 31t91 -31t50 -84t14.5 -115t-12.5 -131zM388 361q7 41 11 68.5t8.5 65t4 62t-3.5 47.5t-13.5 34.5t-26.5 11.5
q-24 0 -43.5 -24.5t-34.5 -72t-24 -89.5t-20 -103h142zM379 313h-142q-7 -40 -11 -66.5t-8 -63.5t-3.5 -60.5t4 -46.5t13.5 -34t26 -11q24 0 43.5 24t34 70.5t23.5 86.5t20 101z" />
    <glyph glyph-name="iota" unicode="&#x3b9;" horiz-adv-x="455" 
d="M429 113q-9 -53 -49.5 -91.5t-90.5 -38.5q-82 0 -135 34t-42 96l60 339h122l-60 -339q-6 -34 12.5 -58t51.5 -24q29 0 53 24.5t30 57.5h48z" />
    <glyph glyph-name="kappa" unicode="&#x3ba;" horiz-adv-x="565" 
d="M539 113q-9 -53 -50 -91.5t-91 -38.5q-65 0 -101.5 49.5t-24.5 118.5q9 53 -65 68l-39 -219h-122l80 452h122l-26 -147q20 20 45 54q84 110 158 110q40 0 68 -24t32 -62l-49 -13q-2 22 -19 36.5t-40 14.5q-22 0 -44 -15t-34.5 -29t-33.5 -42q-30 -40 -60 -66
q70 -8 114 -37t35 -81q-15 -92 -4 -111q5 -9 16 -9q30 0 54.5 24.5t30.5 57.5h48z" />
    <glyph glyph-name="lambda" unicode="&#x3bb;" horiz-adv-x="599" 
d="M576 129q-10 -58 -38.5 -99t-70.5 -41q-18 0 -32 11t-22 25t-15 40.5t-9.5 42.5t-6.5 47l-17 131l-178 -262l-95 -16l-42 16l293 429l-8 59q-2 21 -4.5 33.5t-7.5 28.5t-13 24t-20 8q-32 0 -42 -54h-48q10 58 37 99t68 41q14 0 25 -6.5t19 -21t13 -27t9.5 -36t7 -36.5
t5.5 -39l47 -357q2 -21 4.5 -33.5t8 -28.5t15 -24t23.5 -8q17 0 29.5 16t16.5 38h48z" />
    <glyph glyph-name="mu.greek" unicode="&#x3bc;" horiz-adv-x="685" 
d="M659 113q-10 -53 -41 -91.5t-73 -38.5q-80 0 -119 50q-55 -50 -120 -50q-78 0 -129 30q-12 -131 10 -263l-96 -17l-43 17q50 182 81 363l60 339h122l-60 -339q-6 -34 12.5 -58t51.5 -24q51 0 92 44q-3 18 0 38l60 339h122l-60 -339q-15 -82 25 -82q42 0 57 82h48z" />
    <glyph glyph-name="nu" unicode="&#x3bd;" horiz-adv-x="616" 
d="M620 285q-11 -65 -52 -122t-102 -89l-183 -95l-12 303q-1 23 -1.5 32.5t-2.5 30t-5 30.5t-7.5 22.5t-12 18t-16.5 5.5q-58 0 -77 -111h-48q11 65 47.5 112t86.5 47q64 0 107.5 -36t45.5 -95l11 -248l50 26q49 25 81.5 70.5t41.5 98.5q3 18 -2 34t-20 30t-26.5 21.5
t-32.5 20.5l40 79l37 29q81 -50 52 -214z" />
    <glyph glyph-name="xi" unicode="&#x3be;" horiz-adv-x="534" 
d="M612 571q-3 -17 -17 -27.5t-40 -14.5t-44 -5t-52 -1q-42 0 -77 19q-75 -57 -95 -163q-8 -48 41 -68q68 13 144 13v-52l-13 -25q-89 0 -130 3q-111 -45 -127 -136q-3 -18 4.5 -32.5t27 -26t33.5 -17.5t41 -15l89 -31q41 -14 63.5 -46.5t15.5 -73.5q-8 -50 -35 -86t-64 -36
q-45 0 -66 35l42 30q11 -17 33 -17q13 0 22.5 12.5t12.5 25.5t7 36q5 26 -11 45.5t-43 29.5l-88 30q-35 12 -52 18.5t-49.5 19t-49.5 22.5t-36.5 23t-27 26.5t-5.5 27.5q18 105 141 161q-68 31 -56 104q12 69 61.5 124.5t119.5 85.5q-23 43 -9 92l60 10l27 -10
q-11 -37 0 -68q31 7 67 7q33 0 51 -1t42.5 -5t34.5 -15t7 -28z" />
    <glyph glyph-name="omicron" unicode="&#x3bf;" 
d="M502 319q0 -48 -13 -102.5t-33 -90.5q-17 -30 -55 -63.5t-80 -52.5q-57 -27 -125 -27q-148 0 -148 152q0 63 24 137q16 49 43.5 83.5t73.5 63.5q79 50 161 50q72 0 112 -39.5t40 -110.5zM388 323q0 46 -22 74t-58 28q-49 0 -85 -51q-26 -38 -43.5 -107t-17.5 -137
q0 -47 22 -75t59 -28q48 0 84 51q26 37 43.5 107t17.5 138z" />
    <glyph glyph-name="pi" unicode="&#x3c0;" horiz-adv-x="673" 
d="M691 366q-63 -26 -125 -35l-44 -247q-5 -29 22 -41t70 -12l-8 -48q-46 0 -80 3.5t-67.5 13t-49 31t-9.5 53.5l44 246q-3 0 -127 21l-25 -140q-16 -97 -80 -168.5t-147 -71.5l15 86q58 0 105.5 45.5t58.5 108.5l26 147q-23 3 -47 3q-65 0 -69 -22h-48q10 58 49 101t89 43
q48 0 140 -17.5t141 -17.5q69 2 136 29l35 -69z" />
    <glyph glyph-name="rho" unicode="&#x3c1;" horiz-adv-x="523" 
d="M516 223q-17 -98 -91.5 -169t-165.5 -71q-29 0 -56 9q-1 -38 -9 -75q-14 -83 -70 -151l-71 31l-21 33q32 40 40 87q10 52 7 152.5t6 153.5q18 100 92.5 173t166.5 73t141 -73t31 -173zM380 223q5 29 8 47t5.5 44.5t0.5 42.5t-7.5 32.5t-18.5 24t-32 7.5t-34.5 -7
t-27 -24.5t-19 -32t-15 -43.5t-10.5 -43.5t-9 -47.5q-10 -60 -14 -177q25 -15 60 -15q27 0 47 15.5t33 48.5t19 58.5t14 69.5z" />
    <glyph glyph-name="uni03C2" unicode="&#x3c2;" horiz-adv-x="496" 
d="M526 433l-40 -50l-28 -15q-51 53 -81 53q-58 0 -104.5 -45.5t-57.5 -108.5q-20 -107 10 -133q21 -19 73.5 -46t73.5 -47q48 -45 38 -103q-6 -35 -30.5 -61t-55.5 -26q-81 0 -129 54l39 36q37 -42 98 -42q24 0 30 39q7 35 -26 66q-22 20 -76.5 43t-76.5 42q-49 42 -74 84
t-16 94q15 89 101.5 145.5t190.5 56.5q105 0 141 -36z" />
    <glyph glyph-name="sigma" unicode="&#x3c3;" horiz-adv-x="623" 
d="M664 493q-80 -42 -182 -57q47 -39 47 -117q0 -48 -13 -102.5t-33 -90.5q-17 -30 -55 -63.5t-80 -52.5q-57 -27 -125 -27q-148 0 -148 152q0 63 24 137q16 49 43.5 83.5t73.5 63.5q79 50 161 50q14 0 21 -1q97 13 241 87l25 -37v-25zM415 323q0 46 -22 74t-58 28
q-49 0 -85 -51q-26 -38 -43.5 -107t-17.5 -137q0 -47 22 -75t59 -28q48 0 84 51q26 37 43.5 107t17.5 138z" />
    <glyph glyph-name="tau" unicode="&#x3c4;" horiz-adv-x="589" 
d="M562 113q-9 -53 -49 -91.5t-90 -38.5q-82 0 -135.5 34t-42.5 96l40 226q-42 22 -62 22q-65 0 -69 -22h-48q10 58 49 101t89 43q22 0 123 -38q86 -31 171 26l50 -58l5 -41q-91 -57 -190 -59l-36 -200q-5 -34 13 -58t51 -24q30 0 54 24.5t29 57.5h48z" />
    <glyph glyph-name="upsilon" unicode="&#x3c5;" horiz-adv-x="640" 
d="M638 250q-19 -108 -97 -187.5t-174 -79.5q-93 0 -153.5 46t-46.5 122q5 31 28 93.5t29 94.5q7 29 5 55.5t-23 26.5q-37 0 -52 -82h-48q9 53 38.5 91.5t70.5 38.5q62 0 101.5 -37t29.5 -93q-6 -32 -22 -94.5t-21 -93.5q-9 -49 11 -84.5t61 -35.5q77 0 138 65t77 154
q14 80 -100 140l37 80l36 30q57 -30 73.5 -98t1.5 -152z" />
    <glyph glyph-name="phi" unicode="&#x3c6;" horiz-adv-x="662" 
d="M656 226q-15 -86 -85.5 -149.5t-165.5 -84.5l-11 -75q-17 -98 -98 -163l-59 49l-10 39q37 31 45 75l11 69q-99 14 -156.5 80.5t-40.5 159.5q12 68 65.5 124.5t138.5 113.5l22 -38q-29 -20 -48.5 -57t-26 -65t-15.5 -78q-11 -62 7 -113.5t60 -71.5q15 152 25 209
q16 89 74.5 154t133.5 65q80 0 115.5 -72.5t18.5 -170.5zM520 226q5 28 7.5 44.5t6.5 43t4 42.5t-1.5 32.5t-7 24.5t-15.5 8q-12 0 -21.5 -6.5t-17 -22t-13 -27.5t-11 -38t-8 -37t-7.5 -40q-9 -51 -24 -197q41 25 69.5 72t38.5 101z" />
    <glyph glyph-name="chi" unicode="&#x3c7;" horiz-adv-x="546" 
d="M529 -96q-11 -62 -39 -105t-71 -43q-22 0 -38.5 10.5t-26.5 30.5t-15.5 39t-10.5 46l-25 129q-96 -135 -115 -244l-85 -15l-37 15q4 25 13 51.5t17 47t24.5 49.5t25.5 44.5t32 47.5t30.5 42.5t35 47t33.5 43.5l-28 146q-5 28 -9.5 43.5t-15.5 31.5t-27 16q-37 0 -47 -62
h-48q10 61 38 104.5t72 43.5q19 0 33.5 -13.5t24.5 -42.5t15 -48t12 -57l21 -108q105 146 125 258l84 15l38 -15q-6 -35 -20.5 -72t-26 -62t-40.5 -68.5t-39.5 -58.5t-50 -66t-45.5 -59l33 -168q5 -24 20 -40t38 -16q18 0 30.5 18t16.5 44h48z" />
    <glyph glyph-name="psi" unicode="&#x3c8;" horiz-adv-x="724" 
d="M722 250q-20 -110 -109 -188.5t-196 -78.5h-2l-41 -233h-48l41 235q-98 9 -155.5 50.5t-44.5 115.5q5 31 28 93.5t29 94.5q7 29 5 55.5t-23 26.5q-37 0 -52 -82h-48q9 53 38.5 91.5t70.5 38.5q62 0 101.5 -37t29.5 -93q-6 -32 -22 -94.5t-21 -93.5q-7 -40 13.5 -70
t60.5 -43l33 188q40 225 43 455l84 15l38 -15q-76 -223 -117 -455l-35 -195h3q87 0 159.5 64.5t88.5 154.5q14 80 -100 140l37 80l36 30q57 -30 73.5 -98t1.5 -152z" />
    <glyph glyph-name="omega" unicode="&#x3c9;" horiz-adv-x="675" 
d="M669 230q-17 -100 -84.5 -173.5t-153.5 -73.5q-67 0 -94 56q-43 -56 -99 -56q-86 0 -127.5 73.5t-24.5 173.5q24 133 213 242l19 -40q-82 -47 -110 -202q-5 -32 -7.5 -47.5t-5.5 -44t-1 -43.5t6.5 -32t16 -24.5t29.5 -7.5q48 0 75 58q-15 75 9 212l84 15l38 -15
q-11 -62 -16 -93.5t-10.5 -81t-2 -72.5t16.5 -23q21 0 37.5 13t26.5 29.5t19 48t13.5 51.5t10.5 57q28 154 -38 202l33 40q151 -108 127 -242z" />
    <glyph glyph-name="uni03D1" unicode="&#x3d1;" horiz-adv-x="651" 
d="M685 453q-31 -9 -71 -16q-2 -52 -10 -98q-12 -69 -35 -130t-56 -113t-80 -82.5t-102 -30.5q-86 0 -140 47t-41 121q6 33 37 94.5t37 93.5q7 28 6.5 55t-16.5 27q-24 0 -39 -24t-21 -58h-48q9 52 41.5 91t74.5 39q60 0 97 -37.5t27 -92.5q-6 -32 -30.5 -94.5t-29.5 -93.5
q-9 -49 3.5 -84.5t49.5 -35.5q18 0 33.5 12.5t28 38.5t21.5 51t18.5 67t14.5 68t13 71l15 92q-82 15 -121 117q-20 52 4.5 101t70.5 49q81 0 125 -59t50 -155q33 6 67 15zM489 481q18 169 -61 169q-21 0 -26.5 -25t6.5 -54q27 -73 81 -90z" />
    <glyph glyph-name="uni03D5" unicode="&#x3d5;" horiz-adv-x="525" 
d="M529 319q0 -48 -13 -102.5t-33 -90.5q-17 -30 -55 -63.5t-80 -52.5q-32 -15 -64 -21l-42 -239h-48l41 233h-12q-148 0 -148 152q0 63 24 137q16 49 43.5 83.5t73.5 63.5t94 41q10 118 11 221l85 15l37 -15q-33 -97 -64 -212q71 -1 110.5 -40t39.5 -110zM244 31l34 195
q20 115 28 194q-29 -10 -56 -46q-26 -38 -43.5 -107t-17.5 -137q0 -80 55 -99zM415 323q0 74 -48 95q-26 -102 -41 -192l-35 -196q36 9 63 48q26 37 43.5 107t17.5 138z" />
    <glyph glyph-name="uni03D6" unicode="&#x3d6;" horiz-adv-x="675" 
d="M669 230q-17 -100 -84.5 -173.5t-153.5 -73.5q-67 0 -94 56q-43 -56 -99 -56q-86 0 -127.5 73.5t-24.5 173.5q24 133 213 242l19 -40q-82 -47 -110 -202q-5 -32 -7.5 -47.5t-5.5 -44t-1 -43.5t6.5 -32t16 -24.5t29.5 -7.5q48 0 75 58q-15 75 9 212l84 15l38 -15
q-11 -62 -16 -93.5t-10.5 -81t-2 -72.5t16.5 -23q21 0 37.5 13t26.5 29.5t19 48t13.5 51.5t10.5 57q9 50 14 89.5t4 83.5t-10.5 73t-32.5 48t-60 19q-111 0 -221 -46l-12 43q122 51 242 51q60 0 105.5 -30.5t68 -81t30.5 -115.5t-6 -134z" />
    <glyph glyph-name="epsilon.alt" unicode="&#x3f5;" horiz-adv-x="487" 
d="M448 37q-53 -54 -161 -54q-102 0 -159.5 75.5t-39.5 181.5q18 102 119.5 165.5t224.5 63.5h59l-9 -48h-59q-67 0 -122.5 -49t-73.5 -119q19 2 48.5 11t49.5 15t47.5 8.5t43.5 -8.5l-50 -78q-15 7 -35 9.5t-34 2t-40.5 -3t-37.5 -3.5q-22 -175 76 -175q17 0 36 10.5
t29.5 20t30.5 29.5l46 -29z" />
    <glyph glyph-name="uni0400" unicode="&#x400;" horiz-adv-x="611" 
d="M506 781h-45l-122 82q-26 17 -35 28.5t-9 27.5t14.5 29.5t32.5 13.5q28 0 61 -44zM556 168q-13 -55 -34 -168l-167 -3l-156 3h-49l-139 -3l5 32l28 3q23 2 32.5 14t15.5 46l88 502q2 14 2 20q0 17 -10 24t-36 8l-46 3l5 32q131 -3 157 -3q53 0 155 3h30l160 -3l10 -6
l-25 -152h-32v53q0 42 -12 46q-11 4 -67.5 9.5t-92.5 5.5q-15 0 -23 -1l-39 -3l-45 -252h86l140 3l5 -9l-14 -47l-170 5h-55l-49 -274q29 -6 61 -6h37l78 3q62 2 80 9.5t28 35.5l22 70h36z" />
    <glyph glyph-name="afii10023" unicode="&#x401;" horiz-adv-x="611" 
d="M556 168q-13 -55 -34 -168l-167 -3l-156 3h-49l-139 -3l5 32l28 3q23 2 32.5 14t15.5 46l88 502q2 14 2 20q0 17 -10 24t-36 8l-46 3l5 32q131 -3 157 -3q53 0 155 3h30l160 -3l10 -6l-25 -152h-32v53q0 42 -12 46q-11 4 -67.5 9.5t-92.5 5.5q-15 0 -23 -1l-39 -3
l-45 -252h86l140 3l5 -9l-14 -47l-170 5h-55l-49 -274q29 -6 61 -6h37l78 3q62 2 80 9.5t28 35.5l22 70h36zM544 820q0 -31 -19.5 -51t-49.5 -20q-25 0 -39.5 15.5t-14.5 41.5q1 31 20.5 52.5t47.5 21.5q25 0 40.5 -17t14.5 -43zM331 820q0 -31 -19.5 -51t-49.5 -20
q-25 0 -39.5 15.5t-14.5 41.5q1 31 20.5 52.5t47.5 21.5q25 0 40.5 -17t14.5 -43z" />
    <glyph glyph-name="afii10051" unicode="&#x402;" horiz-adv-x="611" 
d="M773 293l-31 -156q-19 -98 -82 -174t-124 -76q-21 0 -52 10v35q19 -8 36 -8q34 0 54 39q10 24 24 96l55 276q1 3 1 10q0 25 -22.5 42.5t-72.5 17.5q-13 0 -25.5 -1t-22 -2.5t-21 -5.5t-18 -6t-17 -7.5t-15 -7.5t-15.5 -9.5t-13.5 -9t-13.5 -10t-13 -9.5l-44 -237
q-4 -21 -4 -35q0 -29 36 -30l59 -3l-5 -35q-149 3 -168 3q-20 0 -156 -3l5 35l53 3q24 1 35 19.5t23 77.5l86 498h-124q-35 0 -57 -24q-8 -12 -15 -40l-14 -58h-38l25 168l6 5q256 -3 290 -3t290 3l7 -5l-30 -168h-38l4 84q1 20 -12.5 29t-44.5 9h-117l-44 -245
q83 67 178 67q76 0 139.5 -46t63.5 -100q0 -9 -1 -13z" />
    <glyph glyph-name="afii10052" unicode="&#x403;" 
d="M491 884q0 -15 -7.5 -25t-28.5 -22l-155 -89h-49l142 151q29 30 51 30q20 0 33.5 -13t13.5 -32zM569 520h-32v53q0 36 -7 44q-9 8 -69 11q-9 1 -25.5 2.5t-24.5 1.5q-34 3 -42 2l-12 -1l-39 -3l-95 -530q-4 -20 -4 -35q0 -16 8 -22.5t28 -7.5l63 -3l-5 -35q-146 3 -165 3
q-21 0 -154 -3l5 35l43 3q24 1 35.5 20t22.5 77l83 462q2 14 2 20q0 17 -9.5 24t-36.5 8l-50 3l5 32q134 -3 159 -3t157 3l174 -3l10 -6z" />
    <glyph glyph-name="afii10053" unicode="&#x404;" horiz-adv-x="685" 
d="M629 116l-13 -39q-83 -52 -144.5 -73t-131.5 -21q-120 0 -188 56q-83 68 -83 211q1 185 128 315t308 130q98 0 191 -43q-32 -114 -38 -168h-35l5 88q1 16 -23.5 31t-65.5 24t-86 9q-99 0 -163.5 -80t-78.5 -218q0 -2 19 9.5t51 26t56 14.5q36 0 83 -30t102 -30
q46 0 94 28l-4 -28q-3 -3 -14 -15t-14.5 -15.5t-13.5 -13t-15 -12.5t-15 -9.5t-17.5 -8.5t-18 -4t-21.5 -2q-49 0 -84 17t-64.5 34t-65.5 17q-18 0 -39 -5.5t-21 -10.5q0 -10 -2 -28q0 -115 47 -169.5t145 -54.5q90 0 198 64l22 13z" />
    <glyph glyph-name="afii10054" unicode="&#x405;" 
d="M495 239q0 -57 -29.5 -112t-81.5 -92q-71 -52 -174 -52q-98 0 -160 40l21 166h27v-76q39 -74 152 -74q67 0 103 32t36 91q0 48 -25 70q-14 13 -30 21t-67 27q-89 32 -122 64q-40 35 -40 106q0 100 79 172.5t187 72.5q82 0 147 -44q-22 -80 -22 -147h-30v85
q-59 50 -134 50q-59 0 -97 -31.5t-38 -81.5q0 -44 27.5 -71t100.5 -54q62 -23 86.5 -35.5t46.5 -32.5q37 -34 37 -94z" />
    <glyph glyph-name="afii10055" unicode="&#x406;" horiz-adv-x="389" 
d="M319 -3q-148 3 -163 3q-17 0 -157 -3l4 35l49 3q25 1 33.5 17t20.5 80l73 409q9 51 9 72q0 27 -38 30l-52 3l4 35q130 -3 152 -3t159 3l-4 -35l-45 -3q-25 -2 -33 -9t-13 -35l-88 -499q-3 -16 -3 -34q0 -30 37 -31l59 -3z" />
    <glyph glyph-name="afii10056" unicode="&#x407;" horiz-adv-x="389" 
d="M319 -3q-148 3 -163 3q-17 0 -157 -3l4 35l49 3q25 1 33.5 17t20.5 80l73 409q9 51 9 72q0 27 -38 30l-52 3l4 35q130 -3 152 -3t159 3l-4 -35l-45 -3q-25 -2 -33 -9t-13 -35l-88 -499q-3 -16 -3 -34q0 -30 37 -31l59 -3zM455 820q0 -31 -19.5 -51t-49.5 -20
q-25 0 -39.5 15.5t-14.5 41.5q1 31 20.5 52.5t47.5 21.5q25 0 40.5 -17t14.5 -43zM242 820q0 -31 -19.5 -51t-49.5 -20q-25 0 -39.5 15.5t-14.5 41.5q1 31 20.5 52.5t47.5 21.5q25 0 40.5 -17t14.5 -43z" />
    <glyph glyph-name="afii10057" unicode="&#x408;" horiz-adv-x="389" 
d="M413 646l-46 -3q-25 -1 -33 -9t-13 -35l-99 -556q-17 -98 -77.5 -174t-121.5 -76q-21 0 -52 10v35q19 -8 36 -8q37 0 56 39q8 20 21 96l97 576q10 58 10 73q0 26 -38 29l-51 3l5 35q130 -3 153 -3q22 0 158 3z" />
    <glyph glyph-name="afii10058" unicode="&#x409;" horiz-adv-x="1080" 
d="M1016 214q0 -62 -39.5 -114.5t-107.5 -81.5q-54 -21 -102 -21l-56 1q-62 2 -68 2h-44l-150 -3v35l50 3q19 2 24.5 8t5.5 28q0 7 -1 13l-67 462l-234 -435q-21 -40 -21 -54q0 -21 33 -22l50 -3l-5 -35l-109 3l-108 -3l3 35l26 3q16 1 25 9.5t25 35.5l335 601h83l100 -630
q9 -1 25 -3q49 -8 69 -8q126 0 126 168q0 59 -29 88q-21 21 -60 30.5t-81 -0.5l12 34q49 18 102 10t86 -21t53 -27q49 -37 49 -108z" />
    <glyph glyph-name="afii10059" unicode="&#x40a;" horiz-adv-x="778" 
d="M1000 214q0 -62 -39.5 -114.5t-107.5 -81.5q-54 -21 -122 -21l-56 1q-62 2 -86 2h-44l-138 -3l5 35l49 3q26 3 34 17.5t20 79.5l38 206h-291l-42 -236q-4 -20 -4 -39q0 -25 38 -28l49 -3l-5 -35q-128 3 -150 3q-20 0 -160 -3l5 35l49 3q25 1 33.5 16t20.5 81l73 409
q8 50 8 73q0 15 -8 21.5t-30 7.5l-51 3l5 35q136 -3 157 -3t158 3l-5 -35l-42 -3q-26 -2 -36 -12.5t-17 -42.5l-39 -202h294l25 155q8 50 8 76q0 23 -38 26l-51 3l5 35l152 -3q91 0 138 1l-5 -35q-13 1 -35 -2q-48 0 -56 -32l-96 -559q9 -1 25 -3q49 -8 87 -8q68 0 107 45
t39 123q0 59 -29 88q-21 21 -60 30.5t-81 -0.5l12 34q49 18 102 10t86 -21t53 -27q49 -37 49 -108z" />
    <glyph glyph-name="afii10060" unicode="&#x40b;" horiz-adv-x="611" 
d="M818 -3q-136 3 -157 3t-158 -3l5 35l42 3q26 2 36 12.5t17 42.5l50 245q1 3 1 10q0 25 -22.5 42.5t-72.5 17.5q-13 0 -25.5 -1t-22 -2.5t-21 -5.5t-18 -6t-17 -7.5t-15 -7.5t-15.5 -9.5t-13.5 -9t-13.5 -10t-13 -9.5l-44 -237q-4 -21 -4 -35q0 -29 36 -30l59 -3l-5 -35
q-149 3 -168 3q-20 0 -156 -3l5 35l53 3q24 1 35 19.5t23 77.5l86 498h-124q-35 0 -57 -24q-8 -12 -15 -40l-14 -58h-38l25 168l6 5q256 -3 290 -3t290 3l7 -5l-30 -168h-38l4 84q1 20 -12.5 29t-44.5 9h-117l-44 -245q83 67 178 67q76 0 139.5 -46t63.5 -100q0 -9 -1 -13
l-31 -156q-8 -50 -8 -73q0 -15 8 -21.5t30 -7.5l51 -3z" />
    <glyph glyph-name="afii10061" unicode="&#x40c;" horiz-adv-x="722" 
d="M479 884q0 -15 -7.5 -25t-28.5 -22l-155 -89h-49l142 151q29 30 51 30q20 0 33.5 -13t13.5 -32zM684 -3q-54 3 -92 3q-40 0 -94 -3q-24 43 -49 73l-129 156l-63 78l-36 -204q-3 -18 -3 -30q0 -19 7.5 -26.5t29.5 -8.5l49 -3l-4 -35q-128 3 -150 3q-20 0 -160 -3l4 35
l49 3q25 1 33.5 17t20.5 80l73 409q9 51 9 72q0 27 -38 30l-52 3l4 35q130 -3 152 -3t159 3l-4 -35l-45 -3q-25 -1 -33 -9t-13 -35l-39 -221q26 16 101 76l203 162q10 10 10 41v24q67 -3 83 -3q13 0 80 3v-33h-35q-19 0 -82 -52l-273 -226l223 -269q9 -10 19 -22t14 -17.5
t9.5 -11.5t8.5 -8t7.5 -3.5t9.5 -2.5l39 -6z" />
    <glyph glyph-name="uni040D" unicode="&#x40d;" horiz-adv-x="778" 
d="M604 781h-45l-122 82q-26 17 -35 28.5t-9 27.5t14.5 29.5t32.5 13.5q28 0 61 -44zM723 -3q-150 3 -168 3q-21 0 -148 -3l5 35l49 3q26 3 34 17.5t20 79.5l58 308l-341 -278l-12 -60q-4 -20 -4 -39q0 -25 38 -28l49 -3l-5 -35q-128 3 -150 3q-20 0 -160 -3l5 35l49 3
q25 1 33.5 16t20.5 81l73 409q8 50 8 73q0 15 -8 21.5t-30 7.5l-51 3l5 35q136 -3 157 -3t158 3l-5 -35l-42 -3q-26 -2 -36 -12.5t-17 -42.5l-64 -362l341 278l3 37q1 12 3 28.5t3.5 28.5t1.5 19q0 23 -38 26l-51 3l5 35q127 -3 152 -3q22 0 163 3l-5 -35l-42 -3
q-26 -2 -36 -12t-17 -43l-88 -486q-4 -19 -4 -38q0 -28 38 -29l55 -3z" />
    <glyph glyph-name="afii10062" unicode="&#x40e;" horiz-adv-x="654" 
d="M670 593q-25 -3 -57.5 -24t-58.5 -52q-38 -49 -80 -122.5t-67.5 -126.5t-55 -119t-33.5 -73q-49 -98 -136 -98q-15 0 -35 5.5t-33 10.5l-12 6v80l20 10q6 -26 55 -28q23 2 39.5 10t23.5 16t18 25.5t16 24.5q0 9 -42 138l-72 227q-18 58 -40.5 75t-58.5 17q-28 0 -45 -10
l-3 33l100 79q44 0 80 -25t47 -60l108 -356q69 169 168.5 299t159.5 126zM584 892q-13 -62 -39 -96q-50 -66 -146 -66q-69 0 -101 42q-30 38 -30 120h43q3 -47 28 -68.5t75 -21.5q48 0 78 21t53 69h39z" />
    <glyph glyph-name="afii10145" unicode="&#x40f;" horiz-adv-x="778" 
d="M722 -3l-157 3h-109l-30 -5q-25 -1 -44 -14q-11 -8 -14 -26l-13 -81h-32v53q0 51 -7 59q-9 8 -69 11l-39 3h-57l-163 -3l5 35l42 3q26 2 36 12t17 43l88 486q4 19 4 38q0 28 -38 29l-55 3l5 35q150 -3 168 -3q21 0 148 3l-5 -35l-49 -3q-26 -3 -34 -17.5t-20 -79.5
l-86 -498h291l90 528q4 20 4 39q0 25 -38 28l-49 3l5 35q128 -3 150 -3q20 0 160 3l-5 -35l-49 -3q-25 -1 -33.5 -16t-20.5 -81l-73 -409q-8 -50 -8 -73q0 -15 8 -21.5t30 -7.5l51 -3z" />
    </font>
</defs>
</svg>
