<?xml version="1.0" standalone="no"?>
<!DOCTYPE svg PUBLIC "-//W3C//DTD SVG 1.1//EN" "http://www.w3.org/Graphics/SVG/1.1/DTD/svg11.dtd" >
<svg xmlns="http://www.w3.org/2000/svg" xmlns:xlink="http://www.w3.org/1999/xlink" version="1.1">
<metadata>
Created by FontForge 20230101 at Sun Nov 27 18:42:03 2011
 By Unknown
(URW)++,Copyright 2003 by (URW)++ Design &#38; Development
</metadata>
<defs>
<font id="URWPalladioW01-Regular" horiz-adv-x="509" >
  <font-face 
    font-family="URWPalladioW01-Regular"
    font-weight="400"
    font-stretch="normal"
    units-per-em="1000"
    panose-1="4 0 5 0 0 0 0 0 0 0"
    ascent="716"
    descent="-284"
    x-height="443"
    cap-height="669"
    bbox="-41 -272 1032 925"
    underline-thickness="44"
    underline-position="-148"
    unicode-range="U+000D-2122"
  />
<missing-glyph horiz-adv-x="0" 
 />
    <glyph glyph-name=".notdef" horiz-adv-x="0" 
 />
    <glyph glyph-name=".null" horiz-adv-x="0" 
 />
    <glyph glyph-name="uni000D" unicode="&#xd;" horiz-adv-x="0" 
 />
    <glyph glyph-name="space" unicode=" " horiz-adv-x="250" 
 />
    <glyph glyph-name="exclam" unicode="!" horiz-adv-x="261" 
d="M130 100q21 0 36 -16.5t15 -39.5t-15 -39t-37 -16q-20 0 -35.5 16t-15.5 39t15 39.5t37 16.5zM183 667q0 -12 -0.5 -26t-2.5 -44t-6 -82.5t-11 -140.5q-2 -26 -3 -43.5l-2 -35t-2.5 -39.5t-2.5 -58l-27 -24l-9 4q-2 33 -5.5 74.5t-10.5 108.5q-3 33 -5.5 65t-5 59.5
t-3.5 48t-1 31.5v23t2 42q10 7 17.5 11.5t15 8.5t15.5 8t19 9h28z" />
    <glyph glyph-name="quotedbl" unicode="&#x22;" horiz-adv-x="332" 
d="M214 419l-21 158q-1 11 -2 22.5t-1 18.5q0 27 13 43t35 16q47 0 47 -71q0 -8 -0.5 -15t-2.5 -18l-22 -154h-46zM72 419l-21 158q-1 8 -2 21t-1 20q0 27 13 43t34 16q47 0 47 -71q0 -8 -0.5 -17t-1.5 -16l-23 -154h-45z" />
    <glyph glyph-name="numbersign" unicode="#" 
d="M278 218l52 253h-98l-51 -253h97zM135 158h-79l12 60h79l52 253h-84l12 60h84l28 136h33l-27 -136h97l28 136h33l-27 -136h75l-12 -60h-76l-51 -253h80l-13 -60h-80l-32 -158h-33l32 158h-97l-33 -158h-33z" />
    <glyph glyph-name="dollar" unicode="$" 
d="M261 38q58 11 88.5 47.5t30.5 93.5q0 27 -6 46.5t-20 34t-37 24.5t-56 18v-264zM226 627q-105 -20 -105 -118q0 -46 23.5 -72t81.5 -44v234zM89 184v-34.5t1 -33.5q0 -14 13 -28.5t32.5 -26t43.5 -19t47 -7.5v274q-38 10 -60 18t-45 20q-35 20 -55 55.5t-20 80.5
q0 48 21 87t59 62q22 13 43.5 19.5t56.5 9.5l-2 64h39q-1 -11 -1.5 -18.5t-0.5 -14v-13v-16.5q48 -1 86 -8.5t74 -24.5q-9 -27 -13 -57t-5 -73h-29q-2 36 -4.5 55t-4.5 24q-10 23 -38 36t-66 13v-242q21 -5 36.5 -8.5t27.5 -7t22.5 -7t21.5 -7.5q47 -17 71.5 -54.5
t24.5 -91.5q0 -49 -23 -92.5t-65 -70.5q-26 -17 -51.5 -27t-64.5 -18v-38q0 -12 0.5 -25.5t1.5 -34.5h-40q1 17 1.5 28t1 20.5t1 20.5t0.5 28q-59 0 -101.5 8.5t-82.5 27.5q4 20 6.5 35.5t4.5 31t3 34.5t2 46h30z" />
    <glyph glyph-name="percent" unicode="%" horiz-adv-x="706" 
d="M518 283q-41 0 -63 -37t-22 -105q0 -62 21.5 -96t59.5 -34t59.5 37t21.5 103q0 64 -19.5 98t-57.5 34zM524 305q67 0 106 -40t39 -109q0 -38 -11.5 -69t-32.5 -53.5t-50 -34.5t-65 -12q-69 0 -109.5 40.5t-40.5 109.5q0 80 43 124t121 44zM210 13q-7 -12 -11 -21.5
t-10 -23.5q-7 1 -12 1h-8h-9t-13 -1q7 12 9.5 16.5t7.5 14.5q6 15 13 25l312 624q4 9 8.5 20.5t10.5 30.5q21 -3 29 -3h7.5t9.5 1q-9 -15 -14.5 -25t-13.5 -26zM195 657q-41 0 -63 -37t-22 -104q0 -62 21.5 -96t59.5 -34t59.5 37t21.5 102t-19.5 98.5t-57.5 33.5zM201 679
q67 0 106 -40t39 -108q0 -38 -11.5 -69t-32.5 -53.5t-50 -34.5t-65 -12q-69 0 -109.5 40.5t-40.5 109.5q0 79 43 123t121 44z" />
    <glyph glyph-name="ampersand" unicode="&#x26;" horiz-adv-x="728" 
d="M254 421q5 3 7.5 5t10.5 7q43 30 67.5 65.5t24.5 68.5q0 28 -18.5 47t-44.5 19q-32 0 -52 -25t-20 -65q0 -50 25 -122zM205 352q-42 -32 -59.5 -63.5t-17.5 -73.5q0 -35 12.5 -65.5t34 -53.5t50 -36t61.5 -13q29 0 54.5 9t61.5 32q-25 22 -51.5 52.5t-52 65t-49.5 72
t-44 74.5zM709 58q-21 -16 -32.5 -25t-19 -15t-13 -11t-13.5 -13q-11 -2 -18.5 -3t-16.5 -1q-41 0 -79.5 17t-88.5 57q-54 -39 -96 -56t-88 -17q-41 0 -77.5 15t-63.5 40.5t-42.5 60t-15.5 73.5q0 32 11.5 63.5t32.5 57.5q11 14 29 29t48 36q7 4 13 8t12 9q-16 38 -22.5 66
t-6.5 54q0 76 69 131q54 44 108 44q21 0 39.5 -8t32 -22t21.5 -33t8 -40q0 -22 -11.5 -46.5t-31.5 -44.5q-8 -8 -16 -15t-19 -14.5t-26.5 -17.5t-38.5 -23q-8 -5 -15 -9.5t-15 -9.5q16 -32 39 -68t49 -69.5t53 -63t51 -49.5q13 16 21.5 29.5t13.5 26.5t7 27.5t2 32.5
q0 32 -8 49t-25 22q-4 1 -7.5 1.5t-9.5 1t-15.5 1t-24.5 0.5h-10l-3 7l27 44q13 -1 23.5 -2t20 -1.5t20 -0.5h25.5t39.5 1t51.5 2t52 2.5t40 2.5q-2 -10 -3 -17t-1 -9l-4 -24t-3 -21q-13 2 -25 4t-27 3t-34 2t-45 2q3 -14 4 -23t1 -19q0 -42 -21.5 -86t-57.5 -79
q41 -30 83.5 -46t82.5 -16q11 0 20.5 3.5t32.5 15.5z" />
    <glyph glyph-name="quotesingle" unicode="'" horiz-adv-x="190" 
d="M72 419l-21 158q-1 8 -2 21t-1 20q0 27 13 43t34 16q47 0 47 -71q0 -8 -0.5 -17t-1.5 -16l-23 -154h-45z" />
    <glyph glyph-name="parenleft" unicode="(" horiz-adv-x="304" 
d="M294 722q-18 -26 -31 -47.5t-23.5 -42.5t-19 -42.5t-17.5 -48.5q-46 -136 -46 -273t46 -273q9 -26 17.5 -48t19 -42.5t23.5 -42.5t31 -48l-16 -20q-21 21 -38 40.5t-31.5 40t-27.5 42.5t-26 48q-37 75 -57 154t-20 149t20 149t57 154q13 27 26 49t27.5 42t31.5 39.5
t38 41.5z" />
    <glyph glyph-name="parenright" unicode=")" horiz-adv-x="304" 
d="M11 -186q18 26 31 48t23.5 42.5t19 42.5t17.5 48q46 136 46 273t-46 273q-9 27 -17.5 48.5t-19 42.5t-23.5 42.5t-31 47.5l16 21q21 -22 38 -41.5t31.5 -39.5t27.5 -42t26 -49q37 -75 57 -154t20 -149t-20 -149t-57 -154q-13 -26 -26 -48t-27.5 -42.5t-31.5 -40
t-38 -40.5z" />
    <glyph glyph-name="asterisk" unicode="*" horiz-adv-x="433" 
d="M217 361q-2 15 -2.5 24.5t-1.5 16t-1.5 12t-1.5 13.5t-2.5 23.5t-6.5 51.5l-94 -94l-18 2q-4 9 -7 16t-6 13.5t-6.5 14t-8.5 17.5l4 6q15 5 27 10t25.5 10.5t29.5 12.5t39 17l-125 64v6q6 9 10 15.5l8 13t8 13.5t9 16h17q17 -21 27.5 -33.5t19 -22t17.5 -19.5t24 -25
l22 136l5 5q20 -7 31.5 -10t30.5 -8l3 -16q-15 -24 -33 -55.5t-33 -62.5l129 23l7 -5q2 -20 3.5 -31.5t6.5 -30.5l-10 -9q-18 4 -32 6.5l-28 5t-31.5 5.5t-44.5 7l63 -118v-9q-9 -5 -14.5 -8t-10.5 -6t-12 -6.5t-19 -10.5z" />
    <glyph glyph-name="plus" unicode="+" 
d="M223 361v174h63v-174h185v-59h-185v-173h-63v173h-185v59h185z" />
    <glyph glyph-name="comma" unicode="," horiz-adv-x="268" 
d="M23 -130q22 37 37 67t24.5 56.5t15.5 52t9 55.5q17 4 29.5 7.5t23 6.5t20.5 7t23 9l6 -15q-24 -63 -56 -119.5t-78 -116.5l-40 -21z" />
    <glyph glyph-name="hyphen" unicode="-" horiz-adv-x="282" 
d="M0 203q9 22 13.5 35t10.5 33q36 -2 59.5 -2.5t54.5 -0.5h26t29.5 0.5t37 1t47.5 1.5l4 -7q-10 -22 -14 -35t-9 -33q-18 1 -33 2t-28.5 1.5t-27 0.5h-30.5h-32t-30 -0.5t-32.5 -1.5t-39.5 -2z" />
    <glyph glyph-name="period" unicode="." horiz-adv-x="268" 
d="M135 100q23 0 39 -16.5t16 -39.5t-16.5 -39t-39.5 -16t-39 16t-16 39t16.5 39.5t39.5 16.5z" />
    <glyph glyph-name="slash" unicode="/" horiz-adv-x="383" 
d="M47 -78q-11 -27 -17.5 -42.5t-10.5 -25t-6.5 -15.5t-5.5 -14q-8 1 -14 1.5t-9 0.5q-5 0 -11 -0.5t-14 -1.5l40 97l283 683q10 25 19.5 49t20.5 48q8 -1 13.5 -1.5t9.5 -0.5q5 0 11 0.5t14 1.5l-24 -58l-24 -58z" />
    <glyph glyph-name="zero" unicode="0" 
d="M251 642q-32 0 -54 -17.5t-36.5 -55.5t-21 -97.5t-6.5 -143.5q0 -307 129 -307q59 0 87.5 74t28.5 226q0 321 -127 321zM263 677q103 0 150.5 -80t47.5 -251q0 -94 -13 -158.5t-41 -112.5q-24 -40 -66.5 -62.5t-93.5 -22.5q-60 0 -103.5 28t-64.5 80q-17 41 -24 92.5
t-7 124.5q0 362 215 362z" />
    <glyph glyph-name="one" unicode="1" 
d="M310 665q-1 -17 -2 -55t-2 -83.5t-1.5 -93.5t-0.5 -84q0 -107 0.5 -166.5t2 -89.5t5 -39t9.5 -13q4 -4 10 -6.5t16.5 -4t28 -2t45.5 -1.5v-31q-31 1 -54 2t-41 1.5t-33.5 0.5h-31.5h-27t-32.5 -0.5t-43 -1.5t-59.5 -2v31q36 1 57.5 3t33.5 5t16.5 8.5t7.5 14.5
q3 10 4.5 40.5t3 87.5t2 143t0.5 206q0 37 -1.5 46.5t-8.5 9.5q-3 0 -16.5 -6t-35 -16t-48.5 -24t-57 -30l-8 57q78 23 140.5 48t110.5 53z" />
    <glyph glyph-name="two" unicode="2" 
d="M38 22l170 185q39 42 65.5 76.5t43 64t24 56.5t7.5 55q0 64 -36.5 104t-95.5 40q-22 0 -43 -6t-38 -18q-12 -8 -20 -23.5t-16 -44.5q-1 -4 -4 -14.5t-7 -23.5h-28q1 9 2 16t2 14.5t2.5 16t3.5 21.5q2 14 3 28.5t3 34.5q32 38 71 55.5t93 17.5q90 0 142.5 -51t52.5 -137
q0 -29 -6.5 -55t-20.5 -53.5t-37.5 -57t-56.5 -63.5l-176 -182h81h92t64.5 1t49 2.5t45.5 3.5q-2 -15 -3 -26.5t-1 -19.5q0 -15 3 -45q-25 2 -45.5 3l-41 2t-43.5 1h-53h-66t-60 -1t-59 -2t-63 -2v27z" />
    <glyph glyph-name="three" unicode="3" 
d="M57 165q9 -21 16 -35t12.5 -24t10.5 -17t11 -14q18 -22 47 -34t62 -12q66 0 104.5 44.5t38.5 121.5q0 66 -31 103t-87 37q-20 0 -38 -3.5t-44 -14.5l-6 5l6 47q16 -2 23.5 -2h15.5q54 0 86.5 34.5t32.5 92.5q0 54 -29 84t-83 30q-23 0 -44 -6t-38 -18q-12 -8 -20 -23.5
t-20 -50.5l-6 -19h-28l3 13q2 12 4.5 24t5.5 24q2 12 4.5 23t6.5 31q35 37 72.5 54t85.5 17q36 0 66.5 -10.5t52.5 -30t34 -46t12 -58.5q0 -86 -102 -158q155 -9 155 -151q0 -48 -20 -90.5t-54.5 -74t-81 -50t-98.5 -18.5q-15 0 -29.5 1t-29.5 3.5t-33 7t-40 10.5
q-2 28 -10.5 66t-19.5 76z" />
    <glyph glyph-name="four" unicode="4" 
d="M279 572q-38 -58 -88.5 -144.5t-108.5 -193.5q15 -1 26.5 -1.5t23 -0.5h24h28.5q28 0 48.5 0.5t46.5 1.5v338zM20 199q21 38 38.5 69t34 60.5t34.5 59.5t40 66.5t50.5 83l66.5 108.5l68 27l10 -6q-1 -47 -2 -83t-1.5 -65t-0.5 -54v-49v-28.5v-36.5t0.5 -49.5t0.5 -67.5
h28.5t21.5 1t22 2t30 3q-3 -23 -3 -34q0 -12 3 -36q-18 1 -30 2t-22 1.5t-21.5 1t-28.5 0.5q0 -58 1 -86.5t4 -37.5q2 -14 22 -19t74 -7v-30q-31 1 -52.5 2t-37.5 2t-28.5 1h-26.5h-27.5t-30 -1t-39 -2t-55.5 -2v30q33 1 53.5 2.5t31.5 4t15.5 6t6.5 8.5q4 10 6 38.5t2 90.5
h-25h-86t-56.5 -0.5t-41.5 -1.5t-41 -3z" />
    <glyph glyph-name="five" unicode="5" 
d="M57 161q18 -36 35 -60.5t35.5 -39.5t40 -21t48.5 -6q70 0 109 46t39 127q0 77 -38 122t-104 45q-37 0 -63.5 -14t-52.5 -49l-21 7q2 31 3 57t2 50t1 48v50v40.5t-1 33t-2 32t-3 37.5l8 7q21 -3 38 -4.5t33 -2.5t33.5 -1.5t38.5 -0.5q42 0 84.5 2t101.5 7
q-2 -14 -3.5 -25.5t-1.5 -18.5q0 -8 1 -18.5t3 -24.5q-17 1 -30.5 1.5l-27 1t-28 0.5h-33.5h-39h-37t-41.5 -0.5t-52.5 -1.5l-9 -201q33 29 64.5 41t73.5 12t76.5 -14t59 -39t38 -60.5t13.5 -78.5q0 -56 -20.5 -103t-57 -81.5t-87 -53.5t-110.5 -19q-31 0 -54 4t-56 16
q-3 20 -6 36.5t-6.5 32.5t-7.5 33.5t-9 39.5z" />
    <glyph glyph-name="six" unicode="6" 
d="M256 350q-65 0 -107 -65q-5 -8 -7.5 -24t-2.5 -45q0 -93 30.5 -144t87.5 -51q26 0 48 12.5t38 34.5t25 52.5t9 66.5q0 75 -32.5 119t-88.5 44zM436 665l-1 -8q-56 -3 -106.5 -30t-90 -71.5t-64.5 -103t-29 -123.5l59 46q37 30 90 30q78 0 121.5 -50t43.5 -141
q0 -51 -15 -92.5t-42 -71t-66 -45t-87 -15.5q-94 0 -146 68t-52 190q0 101 37.5 187t109.5 149q100 87 215 100z" />
    <glyph glyph-name="seven" unicode="7" 
d="M64 463q1 28 1.5 52t0.5 58v26t-1 20.5t-2 19.5t-2 23l9 9q22 -2 40.5 -3.5t37 -2.5t41 -1h54.5q46 0 79.5 0.5t60.5 1.5t51.5 2.5t52.5 4.5v-29q-58 -104 -110.5 -204.5t-94.5 -186.5t-71 -152.5t-40 -103.5q-26 3 -39 3q-6 0 -17 -1t-25 -3l-10 13q60 99 114 189.5
t98 167t76 134t48 90.5h-37t-40.5 -0.5t-58.5 -1.5t-91 -2q-32 0 -49.5 -1.5t-26.5 -9.5t-11.5 -26t-5.5 -51q0 -4 -0.5 -13.5t-2.5 -21.5h-29z" />
    <glyph glyph-name="eight" unicode="8" 
d="M210 328l-4.5 -3t-7.5 -4q-84 -47 -84 -152q0 -66 35 -105.5t93 -39.5q28 0 53.5 10.5t44 29.5t29.5 43.5t11 53.5q0 27 -8 48.5t-27.5 40.5t-52.5 38t-82 40zM279 392q44 31 61.5 61t17.5 74q0 57 -28 88.5t-79 31.5q-49 0 -80.5 -30.5t-31.5 -78.5q0 -23 5.5 -40.5
t21 -33.5t43 -33t70.5 -39zM184 344q-62 34 -89 71.5t-27 89.5q0 37 14.5 69t40 54.5t60.5 35.5t77 13q37 0 67.5 -10t52.5 -28t34 -43.5t12 -55.5q0 -50 -28.5 -88t-91.5 -73q43 -19 71.5 -37t45.5 -38t24.5 -44.5t7.5 -55.5q0 -45 -17.5 -84t-48 -68t-71.5 -45.5
t-87 -16.5q-41 0 -76 13t-60.5 36.5t-39.5 55t-14 68.5q0 62 34 105.5t109 75.5z" />
    <glyph glyph-name="nine" unicode="9" 
d="M248 643q-53 0 -85 -44.5t-32 -118.5q0 -78 32.5 -123t88.5 -45q57 0 88 40.5t31 115.5q0 39 -9 71t-25 55.5t-39 36t-50 12.5zM57 2v9q63 4 117 30.5t95.5 70t66.5 101.5t29 124l-69 -57q-16 -14 -35 -20t-47 -6q-37 0 -67.5 15t-53 41t-35 62.5t-12.5 80.5q0 50 15 91
t43 70.5t66 46t85 16.5t86.5 -16.5t66.5 -48.5q55 -62 55 -183q0 -88 -25.5 -163.5t-72.5 -133.5t-115 -97t-152 -54z" />
    <glyph glyph-name="colon" unicode=":" horiz-adv-x="268" 
d="M135 455q23 0 39 -16.5t16 -39.5t-16.5 -39t-39.5 -16t-39 16t-16 39t16.5 39.5t39.5 16.5zM135 100q23 0 39 -16.5t16 -39.5t-16.5 -39t-39.5 -16t-39 16t-16 39t16.5 39.5t39.5 16.5z" />
    <glyph glyph-name="semicolon" unicode=";" horiz-adv-x="268" 
d="M152 452q23 0 38.5 -15.5t15.5 -38.5t-16 -38.5t-39 -15.5q-21 0 -37 16t-16 37q0 23 15.5 39t38.5 16zM23 -130q22 37 37 67t24.5 56.5t15.5 52t9 55.5q17 4 29.5 7.5t23 6.5t20.5 7t23 9l6 -15q-24 -63 -56 -119.5t-78 -116.5l-40 -21z" />
    <glyph glyph-name="less" unicode="&#x3c;" horiz-adv-x="513" 
d="M14 239l462 182l23 -36l-411 -164l411 -163l-34 -39l-451 185v35z" />
    <glyph glyph-name="equal" unicode="=" 
d="M471 286v-56h-433v56h433zM471 435v-56h-433v56h433z" />
    <glyph glyph-name="greater" unicode="&#x3e;" horiz-adv-x="513" 
d="M499 201l-451 -186l-34 40l411 162l-411 164l23 37l462 -182v-35z" />
    <glyph glyph-name="question" unicode="?" horiz-adv-x="414" 
d="M190 98q23 0 38.5 -16t15.5 -39t-16 -38.5t-39 -15.5q-22 0 -38 16t-16 38q0 23 16 39t39 16zM44 528l39 119q29 18 56 26t59 8q36 0 67.5 -12t55 -32.5t36.5 -48.5t13 -61q0 -31 -11 -61.5t-31 -55.5q-6 -8 -11 -13l-13 -13l-22.5 -22.5t-41.5 -39.5q-56 -53 -56 -94
q0 -16 7.5 -28.5t27.5 -31.5l-20 -14q-27 13 -42 35.5t-15 51.5q0 25 13 50t48 65q25 29 41.5 50.5t26.5 39t13.5 32.5t3.5 32q0 22 -8.5 42t-23.5 34t-35.5 22.5t-43.5 8.5q-17 0 -31.5 -4t-32.5 -14q-5 -8 -8 -12.5l-6 -9t-7 -11.5t-10 -19q-2 -3 -5 -9t-7 -13z" />
    <glyph glyph-name="at" unicode="@" horiz-adv-x="677" 
d="M362 464q-24 0 -45.5 -17.5t-38.5 -46t-27 -66.5t-10 -78q0 -88 56 -88q43 0 75 64q7 15 14.5 39t14 49.5t10.5 49t4 38.5q0 25 -14.5 40.5t-38.5 15.5zM496 487l-51 -231q-6 -26 -7.5 -35.5t-1.5 -18.5q0 -18 10.5 -29t28.5 -11q25 0 48.5 17.5t40.5 47t27.5 69
t10.5 83.5q0 52 -15.5 89t-48.5 64q-62 51 -161 51q-67 0 -122 -22.5t-94 -64t-60.5 -99.5t-21.5 -128q0 -119 65 -184q33 -32 78.5 -49.5t99.5 -17.5q58 0 112 20.5t113 65.5l-7 -26q-106 -85 -228 -85q-113 0 -194 64q-47 38 -69 89.5t-22 122.5q0 73 26 135t71.5 107
t109 70t138.5 25q61 0 110.5 -16.5t85 -46.5t54.5 -72.5t19 -94.5q0 -46 -15.5 -89.5t-41 -77.5t-59 -54.5t-68.5 -20.5q-70 0 -70 86q-29 -45 -55 -63.5t-61 -18.5q-45 0 -70 32t-25 90q0 46 16.5 91t45.5 78q48 56 115 56q29 0 47 -10t30 -34l6 34z" />
    <glyph glyph-name="A" unicode="A" horiz-adv-x="714" 
d="M228 262q10 0 17 -0.5t16.5 -0.5h24h40.5h84.5t47.5 1l-117 286zM375 675l238 -564q12 -29 20 -45.5t17 -24.5t21 -10t33 -3v-32q-28 1 -47.5 2t-33 1.5t-23 0.5h-18.5h-17.5t-23.5 -0.5t-34.5 -1.5t-49.5 -2v32q51 1 66.5 4.5t15.5 16.5q0 7 -1.5 13t-9.5 24l-54 137
q-12 0 -20.5 0.5t-18 0.5h-22h-31.5h-94t-76 -1l-53 -130q-11 -25 -11 -38q0 -14 12 -18.5t53 -6.5l17 -1v-33q-24 1 -40.5 2t-28.5 1.5t-22.5 0.5h-22.5h-22t-21.5 -0.5t-26.5 -1t-36 -1.5v31q30 1 42 3.5t20 9.5q5 2 20 31.5t32 71.5l224 531h27z" />
    <glyph glyph-name="B" unicode="B" horiz-adv-x="571" 
d="M201 45q26 -5 42.5 -7t33.5 -2q74 0 117.5 46.5t43.5 124.5q0 42 -16.5 74.5t-45.5 48.5q-39 23 -118 23h-24t-32 -2v-26zM202 391q14 -2 22 -2h17q69 0 102 18q32 16 48 44t16 65q0 116 -135 116q-19 0 -33.5 -1.5t-35.5 -5.5q0 -28 -0.5 -45.5t-0.5 -28v-16v-9.5v-135z
M72 17q22 10 29.5 18t9.5 23q1 6 1.5 35t1 83.5t0.5 136.5v193q0 34 -0.5 56t-2.5 35.5t-5 20.5t-8 10q-8 5 -22.5 7t-45.5 4v30h18l64 -2q15 -1 28.5 -1h25.5h19.5t18 0.5t27.5 1t47 2.5l53 1q42 0 68.5 -6t49.5 -21q53 -34 53 -104q0 -32 -13.5 -61.5t-38.5 -51.5
q-10 -8 -19.5 -14.5t-21 -12t-26 -11t-33.5 -11.5q96 -6 141.5 -45.5t45.5 -116.5q0 -47 -20 -87t-55 -69t-83 -46t-104 -17h-15t-21 1q-26 1 -43.5 1.5t-33.5 0.5q-14 0 -90 -3v20z" />
    <glyph glyph-name="C" unicode="C" horiz-adv-x="675" 
d="M593 499l-2 51q-1 20 -3.5 28.5t-11.5 16.5q-24 20 -67.5 32.5t-93.5 12.5q-69 0 -120 -22t-87 -69q-62 -79 -62 -196q0 -72 22 -131t62.5 -101t96.5 -65t125 -23q59 0 104 14t87 44l9 -9q-6 -16 -8.5 -23t-7.5 -22q-56 -30 -108 -43.5t-110 -13.5q-75 0 -145 24t-119 67
q-54 48 -82.5 115t-28.5 148q0 78 27 142t76.5 109.5t119.5 70.5t156 25q115 0 224 -37q-6 -18 -10 -33t-6.5 -31.5t-4 -35.5t-2.5 -45h-30z" />
    <glyph glyph-name="D" unicode="D" horiz-adv-x="742" 
d="M207 47q33 -5 56 -6.5t49 -1.5q70 0 118.5 17t83.5 53q83 85 83 237q0 140 -70.5 211t-208.5 71q-26 0 -50 -2t-61 -7q-1 -29 -1.5 -49.5t-0.5 -39.5v-39v-48v-111t0.5 -110.5t1 -99t0.5 -75.5zM65 18q8 4 10 6q22 12 28.5 20.5t8.5 25.5q0 1 0.5 19.5t1 45.5t1 59
t1 61.5t0.5 52v29.5q0 90 -0.5 143.5t-2.5 83.5t-5 41.5t-9 17.5q-8 8 -20.5 10.5t-48.5 5.5v31q37 -2 58 -3t34 -1.5t22 -0.5h23h32.5t26.5 0.5t33.5 1t52.5 2.5q16 1 29.5 1.5t23.5 0.5q61 0 108.5 -10.5t87.5 -33.5q66 -38 102 -105.5t36 -155.5q0 -58 -15.5 -111.5
t-44 -98t-69 -79t-90.5 -54.5q-68 -27 -172 -27h-13t-15 0.5t-28 1t-51 2.5q-10 1 -18 1h-18h-19t-20 -1t-25.5 -2t-35.5 -3v23z" />
    <glyph glyph-name="E" unicode="E" horiz-adv-x="572" 
d="M37 25h14q33 1 45.5 7t15.5 23q1 6 2 37t2 79.5t1.5 110t0.5 127.5q0 169 -8 201q-4 14 -18 20t-49 6l-20 1v32q39 -1 64.5 -2t43 -1.5t31 -0.5h28.5h29.5t41 0.5t60.5 1t87 1.5h81l8 -11l-2 -22t-1.5 -26.5t-0.5 -37v-51.5h-32q-1 27 -2 43t-2 25t-2.5 13.5t-4.5 7.5
q-8 9 -45 13t-112 4q-24 0 -42.5 -0.5t-42.5 -1.5q-1 -76 -1 -113.5v-38.5v-16v-20t0.5 -30.5t0.5 -46.5l17 1l59 1l62 2q37 1 49.5 3t17.5 7q5 4 6.5 14.5t3.5 37.5q1 2 1 9t1 15h32q-2 -33 -3 -58t-1 -55q0 -27 0.5 -51t2.5 -56h-32q-1 25 -2 40t-3 23.5t-5.5 12.5t-9.5 7
q-10 4 -51 6.5t-130 2.5h-15v-278q26 -1 57.5 -1.5t90.5 -0.5q91 0 113 7q6 2 10.5 5.5t7.5 11.5t6.5 23t8.5 41q1 4 2.5 12.5t4.5 19.5h30q-3 -32 -5 -54t-3 -39t-1.5 -32.5t-0.5 -33.5q-23 -2 -38.5 -3t-41.5 -1h-28t-49 1q-20 0 -44 0.5t-47 1t-43.5 0.5h-34.5
q-36 0 -166 -6v30z" />
    <glyph glyph-name="F" unicode="F" horiz-adv-x="519" 
d="M24 25q8 1 13.5 1h7.5q20 1 32 2t18.5 3.5t10 7t5.5 12.5q2 7 3.5 19t2 44.5t0.5 93.5v166q0 63 -0.5 105t-1 69.5t-2 42t-3.5 22.5q-3 13 -15 18t-39 7q-4 0 -13 0.5t-20 1.5v30l17 -1l55 -4q11 -1 26 -1h32h27.5t53.5 1q14 0 26 0.5t25.5 0.5h31.5h44l68 1h44h9l5 -8
q-2 -16 -3 -25.5t-3 -22.5q0 -7 -0.5 -17.5t-1.5 -24.5l-2 -33v-14h-28q-2 32 -3.5 50t-4 28t-6.5 13.5t-10 5.5t-20.5 3.5t-34.5 3t-44 2t-48 0.5q-18 0 -32.5 -0.5t-36.5 -2.5q-1 -23 -2 -43.5t-1.5 -43.5t-0.5 -51v-65v-28.5t1 -33.5q13 0 21 -0.5t13.5 -0.5h11h14.5
q20 0 40 0.5t37 1.5t29.5 2t17.5 2q11 3 14.5 11.5t7.5 41.5q0 3 1 10t2 15h31q-3 -35 -4 -63.5t-1 -64.5v-16.5v-17.5t0.5 -24t0.5 -37h-31q-2 28 -3.5 44t-3 24.5t-3 12t-4.5 6.5q-6 7 -33.5 9.5t-90.5 2.5h-34t-33 -2v-12l-1 -80q0 -58 0.5 -92.5t2 -53.5t4 -27t7.5 -13
q4 -4 8.5 -6t13.5 -3.5t23 -2.5t37 -1v-30q-30 1 -50.5 2t-35.5 1.5t-27.5 0.5h-25.5h-25.5t-27.5 -1t-35.5 -2t-49.5 -2v30z" />
    <glyph glyph-name="G" unicode="G" horiz-adv-x="766" 
d="M486 264q47 -3 82 -4.5t73 -1.5q26 0 40.5 1t34.5 3l3 -24l-8 -4q-11 -6 -17 -11t-9 -14.5t-4 -25t-1 -42.5q0 -26 1.5 -51t4.5 -54q-147 -56 -278 -56q-83 0 -150 25t-115 70t-74 109t-26 142q0 75 25 140.5t72 112.5q102 102 292 102q140 0 254 -48q-5 -20 -7.5 -34.5
t-5 -29.5t-4 -33t-3.5 -43h-28q-1 8 -1 14v9q0 18 -0.5 29t-2 18t-4.5 11t-9 9q-14 13 -36 23.5t-48 18.5t-54.5 12.5t-55.5 4.5q-64 0 -116.5 -21t-89.5 -59t-57 -92.5t-20 -120.5q0 -71 21.5 -130.5t59.5 -103.5t90 -68.5t113 -24.5q22 0 48.5 3t50 8.5t40.5 11.5t22 12
q4 5 5.5 21t1.5 52q0 28 -0.5 53t-1.5 30q-2 7 -10 9t-34 4l-64 6v32z" />
    <glyph glyph-name="H" unicode="H" horiz-adv-x="784" 
d="M25 27l18 1q22 1 35.5 2.5t21 5.5t10 11.5t3.5 20.5t2 36.5t1.5 62t0.5 94v132.5q0 63 -0.5 104.5t-2 68t-4 39.5t-5.5 19q-5 8 -19.5 11t-46.5 5h-16v30q23 -1 40.5 -2t32.5 -1.5t29 -0.5h30h25.5t27.5 0.5t35 1t49 1.5v-30h-13q-35 0 -49.5 -4t-19.5 -15q-2 -5 -3 -17
t-2 -36t-1 -63.5v-100.5v-27q21 -1 43 -2t49 -1.5t60.5 -0.5h78.5h51t36 0.5t29.5 1t30.5 1.5v10.5t-0.5 24t-1 50t-0.5 89.5q-1 31 -3 48.5t-8.5 26t-20 11t-37.5 3.5h-9t-14 1v31q45 -2 75.5 -2.5t65.5 -0.5q33 0 61 0.5t70 1.5v-31h-11q-21 0 -33.5 -1t-20 -3t-11.5 -5
t-7 -9t-4 -12t-2 -16.5t-1 -28.5v-48v-28v-214t1 -133t2.5 -69t3.5 -21q4 -14 20 -18.5t62 -5.5v-29q-15 1 -28 1.5t-27 1t-31 0.5h-39h-46.5t-35.5 -0.5t-30.5 -1t-31.5 -1.5v29q22 1 35.5 1.5t22 2t13 4t7.5 6.5q5 5 7.5 19t3.5 49q0 6 0.5 32t1 57t1 58t0.5 35v41
q-25 1 -46.5 1.5t-42.5 1t-43.5 0.5h-48.5h-50t-43.5 -0.5t-45.5 -1t-57 -1.5v-66q0 -38 0.5 -73t1.5 -62.5t2 -46.5t2 -25q2 -9 5.5 -15t12 -9t24 -4.5t41.5 -2.5v-29q-38 1 -62 1.5t-51 0.5h-30.5t-32 -0.5t-40 -1t-53.5 -1.5v30z" />
    <glyph glyph-name="I" unicode="I" horiz-adv-x="313" 
d="M25 26h16q19 1 30.5 2t18.5 4t10.5 7.5t5.5 11.5q3 8 4.5 31t2.5 65t1.5 104.5t0.5 150.5v40.5t-0.5 34t-1.5 45t-3 74.5q0 14 -2.5 22t-9.5 12.5t-20 6t-35 1.5h-19v31q19 -1 34.5 -1.5t32 -1t34.5 -0.5h42q39 0 64.5 0.5t57.5 2.5v-30q-26 -1 -41 -2t-23 -3t-11.5 -5
t-4.5 -9q-3 -11 -4.5 -109.5t-1.5 -269.5q0 -51 0.5 -87t2 -59.5t4 -36.5t6.5 -18q5 -6 18 -8.5t43 -4.5l13 -1v-29q-23 1 -40.5 1.5t-32.5 1t-29 0.5h-31h-33.5t-30.5 -0.5t-31.5 -1t-36.5 -1.5v29z" />
    <glyph glyph-name="J" unicode="J" horiz-adv-x="322" 
d="M1 -102q30 -30 65 -30q38 0 49 35q3 8 5 19.5t3 28.5t1.5 41.5t0.5 59.5q0 145 -0.5 247.5t-1 168.5t-2 99.5t-2.5 41.5q-4 17 -16.5 22.5t-50.5 7.5h-8t-14 1v30q21 -1 37.5 -2t32 -1.5t31.5 -0.5h34h31t29 0.5t32.5 1t41.5 1.5v-31q-21 0 -33.5 -0.5t-20.5 -1.5
t-12 -2.5t-8 -4.5q-3 -3 -5.5 -7t-3.5 -12.5t-1.5 -22.5t-0.5 -35v-415q0 -39 -0.5 -63t-1.5 -40.5t-4 -29t-7 -27.5q-9 -33 -28.5 -63t-43.5 -53t-51 -36.5t-52 -13.5q-8 0 -15.5 1t-20.5 3v22v13.5v11t-0.5 12t-1.5 17.5z" />
    <glyph glyph-name="K" unicode="K" horiz-adv-x="675" 
d="M201 303v-74v-102.5t1 -55t3 -24t5 -9.5q3 -3 6.5 -5t10 -3t17.5 -1.5t29 -1.5l15 -1v-29q-122 3 -131 3h-19.5t-25.5 -0.5t-36 -1.5t-51 -2v29q8 1 14 1h9q29 2 40.5 4.5t15.5 9.5q5 8 7 53t2 141q0 174 -1.5 271t-4.5 111q-3 12 -14.5 16t-48.5 6l-21 1v32
q45 -3 72.5 -4t54.5 -1h21.5t27.5 0.5t37 1.5t50 2v-31q-22 -1 -35.5 -1.5t-21.5 -2t-12 -3.5t-7 -5q-3 -5 -5 -9.5t-2.5 -16.5t-1 -34.5t-0.5 -61.5v-167q19 18 248 245l22.5 22.5t12.5 13.5t5 7.5t1 4.5q0 6 -10 9v28q29 -2 47.5 -2h38.5h37.5t45.5 2v-28
q-26 -2 -41.5 -3.5t-26 -5t-19.5 -9.5t-22 -17l-255 -233q14 -12 42 -39t73 -69q42 -40 72 -68.5t50.5 -48t33 -32l21.5 -21.5l37 -37t22.5 -19t17.5 -7.5t21 -2.5v-32l-40.5 3t-25.5 1q-10 0 -22 -0.5t-41 -2.5q-23 22 -40 39t-34.5 34t-37.5 37t-49.5 48t-70 67t-98.5 94z
" />
    <glyph glyph-name="L" unicode="L" horiz-adv-x="573" 
d="M553 171q-4 -26 -6 -42l-4 -32t-4 -36.5t-5 -56.5q-11 -2 -19.5 -2.5t-17 -1.5t-18.5 -1h-24l-178 1h-81q-28 0 -62 -1.5t-67 -4.5v24l8 4q12 7 19.5 11.5t11 10t5 11.5t2.5 16q1 15 1.5 48t1 79t1 103.5t0.5 120.5q0 24 -0.5 54t-1 58t-1.5 49t-1 26q-2 10 -4.5 15.5
t-11.5 8.5t-26.5 4t-47.5 3v28q29 -1 48.5 -1.5t33.5 -1t25 -0.5h24q35 0 66 1.5t74 4.5v-30q-21 -1 -34.5 -2t-22 -2t-13 -2.5t-7.5 -3.5q-5 -2 -7 -8.5t-3.5 -31t-1.5 -75.5v-142v-207t-1 -124q26 -2 44.5 -2.5t47.5 -0.5q85 0 135 5.5t61 16.5q4 5 12 34.5t18 74.5h31z
" />
    <glyph glyph-name="M" unicode="M" horiz-adv-x="884" 
d="M413 -13q-8 18 -16 37t-12 26q-23 49 -40 86t-30 65.5t-24 51.5l-22 46q-29 63 -59 128t-62 134q0 -123 0.5 -213t2 -151t3 -94t4.5 -42q3 -10 7.5 -16.5t13.5 -10.5t24 -5.5t39 -1.5v-30q-34 2 -55.5 2.5t-47.5 0.5h-25.5t-25 -0.5t-30.5 -1.5t-41 -2v31q23 0 37.5 1
t23 4.5t13 9.5t7.5 17q6 22 9 107.5t3 254.5q0 61 -0.5 99t-2 60t-4.5 31t-7 13q-4 3 -9 5.5t-13.5 4t-22 2.5t-35.5 2v30q48 -2 73.5 -3t37.5 -1q19 0 32.5 1t34.5 4q14 -33 25.5 -59t24.5 -54.5t30.5 -65.5t43.5 -92q27 -57 44 -91.5t29 -60.5t23.5 -51t28.5 -62
q27 57 129 276q30 63 57 123.5t59 137.5q27 -2 43.5 -3t38.5 -1t42.5 1t51.5 3v-31l-20 -1q-30 -2 -42 -5t-17 -11q-3 -5 -4.5 -8.5t-2 -13t-1 -27.5t-0.5 -51q0 -23 -0.5 -48t-0.5 -49.5v-46.5v-39q0 -97 0.5 -154.5t2.5 -88.5t5.5 -42t9.5 -15q8 -6 22.5 -8t47.5 -4v-29
q-28 1 -46 1.5t-30 0.5h-21h-19h-18.5t-26.5 -0.5t-39 -1t-56 -1.5v30q29 1 41.5 2t21.5 4q6 2 10 7.5t6 17t3 31t1 49.5l-1 373v57q-16 -36 -34.5 -76t-35.5 -78t-32.5 -70.5t-25.5 -54.5q-26 -57 -44 -97.5t-33 -73.5t-28 -63.5t-28 -67.5h-16z" />
    <glyph glyph-name="N" unicode="N" horiz-adv-x="773" 
d="M20 25q59 0 72 17q5 6 8.5 23.5t5.5 51.5t2.5 88t0.5 135l1 182q1 20 1 35.5v31.5q0 7 -2.5 11.5t-10.5 13.5q-13 14 -23 18.5t-30 5.5q-3 0 -10 0.5t-15 1.5v29q26 -2 45 -2.5t45 -0.5q20 0 34 0.5t37 2.5q40 -53 81.5 -106t93.5 -117t118.5 -144t156.5 -186l-1 252
q-2 64 -2.5 103t-0.5 48q0 40 -2.5 63.5t-12 35.5t-27.5 15.5t-49 4.5v31q106 -3 112 -3q19 0 41 1t66 4v-30q-32 -2 -48 -6.5t-25 -15.5q-4 -5 -6 -10t-3.5 -16.5t-2.5 -32.5t-1.5 -58.5t-0.5 -93.5v-137v-87t0.5 -61.5t1 -55.5t1.5 -70l-4 -11q-7 2 -13 3t-13 2l-25 5
l-469 571q0 -26 0.5 -47t0.5 -46t0.5 -57.5t0.5 -81.5q0 -97 1 -153t3 -85.5t6 -39.5t10 -15q9 -7 25 -10t45 -4v-31q-26 2 -46 2.5t-49 0.5q-35 0 -62 -1t-62 -3v29z" />
    <glyph glyph-name="O" unicode="O" horiz-adv-x="780" 
d="M383 643q-56 0 -106.5 -21.5t-81.5 -59.5q-26 -32 -41 -83t-15 -111q0 -123 50 -218q35 -66 85.5 -96.5t122.5 -30.5q114 0 176.5 78.5t62.5 221.5q0 73 -18 132t-51 101t-79.5 64.5t-104.5 22.5zM402 681q76 0 138 -23t105.5 -66t67 -103t23.5 -135q0 -80 -27.5 -148
t-76 -118.5t-114.5 -79t-142 -28.5q-78 0 -145.5 29.5t-111.5 83.5q-38 45 -57 107t-19 137q0 79 28 147.5t78 110.5q48 42 113.5 64t139.5 22z" />
    <glyph glyph-name="P" unicode="P" horiz-adv-x="572" 
d="M24 26h15q21 1 34.5 2t21 3.5t11 7t5.5 12.5q4 13 5.5 83.5t1.5 204.5v78.5t-0.5 73.5t-1 60t-1.5 38q-1 15 -4 24t-11 14t-22.5 7.5t-36.5 3.5h-18v32q27 -1 46.5 -1.5t34 -1t25 -0.5h20.5h19.5t22 0.5t36.5 1t62 2.5q17 1 34.5 1.5t24.5 0.5q103 0 156 -39t53 -115
q0 -43 -17.5 -80.5t-48 -65t-71.5 -43.5t-88 -16q-17 0 -32 1.5t-35 6.5q-2 11 -2.5 15t-4.5 14l4 5q19 -5 32.5 -7t27.5 -2q63 0 100 40.5t37 109.5q0 66 -41 102.5t-116 36.5q-25 0 -46.5 -3.5t-50.5 -11.5v-483q1 -31 2 -50.5t3 -31t5.5 -16t9.5 -6.5q4 -2 9 -3
t12.5 -1.5t19.5 -1t30 -1.5v-30q-36 2 -63.5 2.5t-64.5 0.5h-36.5t-33.5 -0.5t-35 -1t-39 -1.5v29z" />
    <glyph glyph-name="Q" unicode="Q" horiz-adv-x="781" 
d="M383 643q-56 0 -106.5 -21.5t-81.5 -59.5q-26 -32 -41 -83t-15 -111q0 -123 50 -218q35 -66 85.5 -96.5t122.5 -30.5q114 0 176.5 78.5t62.5 221.5q0 73 -18 132t-51 101t-79.5 64.5t-104.5 22.5zM754 -114q-13 -7 -21 -12t-25 -16q-8 -5 -15.5 -10t-15.5 -10
q-5 -3 -9.5 -6t-5.5 -5q-8 -5 -12 -5q-24 0 -63 11.5t-102 36.5q-32 13 -53 21t-35 12.5t-24 6t-20 1.5q-20 0 -40.5 -9t-55.5 -32v33q8 8 17.5 15.5t23 16.5t32 20t44.5 25q-75 1 -136.5 26t-104.5 71t-66.5 110.5t-23.5 144.5q0 83 27.5 150.5t78.5 112.5q48 42 113.5 64
t139.5 22q76 0 138 -23t105.5 -66t67 -103t23.5 -135q0 -74 -23.5 -138.5t-66 -113.5t-101.5 -80.5t-131 -39.5q5 -2 9.5 -3.5t7.5 -3.5q6 -2 30 -12t62 -27q57 -24 91.5 -35t57.5 -11q16 0 32.5 5t49.5 21v-30z" />
    <glyph glyph-name="R" unicode="R" horiz-adv-x="650" 
d="M241 360q13 -1 21 -1.5t17 -0.5q77 0 122.5 40t45.5 107q0 62 -38.5 95.5t-109.5 33.5q-23 0 -43 -2.5t-52 -9.5q-2 -42 -2.5 -137t-0.5 -258q0 -54 0.5 -89.5t2.5 -57.5t5 -31.5t8 -12.5q3 -2 7 -3.5t11.5 -2.5t20.5 -2t35 -2v-29q-38 2 -63.5 2.5t-56.5 0.5
q-23 0 -55 -1t-93 -2v29l13 1q21 1 33.5 2t19 2.5t9 3t4.5 4.5q4 5 6.5 17.5t3.5 45.5t1.5 93t0.5 160q0 83 -0.5 133.5t-2 79.5t-3.5 41t-6 17q-2 3 -5.5 5t-10.5 3.5t-19 2.5t-30 2l-14 1v30q123 -3 136 -3q12 0 129 3q18 1 30.5 1h19.5q42 0 70.5 -4t53.5 -14
q38 -15 60 -49t22 -79q0 -70 -48.5 -118.5t-139.5 -67.5q10 -15 19 -28t20.5 -28.5t27.5 -37t40 -53.5l78 -102q15 -20 25 -32t20.5 -18.5t24 -9.5t34.5 -4v-29q-35 2 -50 2.5t-29 0.5q-17 0 -32 -0.5t-35 -2.5q-8 11 -16 21.5t-16 20.5l-91 126q-21 29 -38 52t-33 44
t-32.5 41t-35.5 43z" />
    <glyph glyph-name="S" unicode="S" horiz-adv-x="553" 
d="M85 200q4 -68 19 -102q15 -35 52.5 -55.5t88.5 -20.5q78 0 123 40t45 110q0 71 -53 101q-9 5 -15.5 8.5t-17 7t-29.5 8t-53 13.5q-85 22 -127 50q-29 19 -44 52.5t-15 77.5q0 43 15.5 78t44 60t68.5 39t89 14q45 0 86.5 -8t85.5 -25q-5 -41 -9.5 -77.5t-8.5 -70.5l-27 2
q-3 32 -5.5 57t-3.5 28q-3 7 -13 17t-23 18q-37 23 -87 23q-60 0 -94.5 -32.5t-34.5 -88.5q0 -25 8.5 -48t23.5 -37q8 -8 17.5 -14t22.5 -11.5t31.5 -11t44.5 -11.5t46.5 -11.5t36.5 -11t29.5 -11t26.5 -12.5q78 -40 78 -131q0 -51 -23.5 -97.5t-68.5 -79.5
q-75 -57 -193 -57q-22 0 -41.5 1.5t-39 5.5t-41 10.5t-47.5 15.5q1 65 2 111.5t2 75.5h28z" />
    <glyph glyph-name="T" unicode="T" horiz-adv-x="567" 
d="M145 27q21 0 34.5 0.5t21.5 1.5t12.5 2.5t8.5 4.5q6 4 9 16.5t5 47t2.5 98t0.5 168.5v63v59t-0.5 63.5t-1.5 74.5h-61t-38 -0.5t-24 -1.5l-18 -2q-14 -2 -22.5 -5.5t-13 -12.5t-7.5 -26t-7 -47q0 -2 -0.5 -6t-1.5 -9h-29q1 49 1 70.5v32.5v25.5t-1 27.5q49 -2 87 -3.5
t68.5 -2t57.5 -1t54 -0.5q29 0 57 0.5t59.5 1.5t69 2.5t85.5 3.5q-3 -21 -5 -43.5t-3.5 -43.5t-2 -39.5t-0.5 -31.5h-29q-1 7 -1 12.5t-1 7.5q-1 26 -3 42t-6.5 25t-12.5 12.5t-21 6.5q-11 1 -19 2t-18 1.5t-23.5 1t-35.5 0.5h-44q-2 -76 -2.5 -171t-0.5 -206
q0 -66 0.5 -106.5t2 -63t4.5 -31t8 -11.5q3 -2 7.5 -3.5t12.5 -2.5t22 -2t36 -2v-30q-32 1 -54 2t-38 1.5t-27.5 0.5h-22.5h-28.5t-28.5 -1t-33 -2t-41 -2v31z" />
    <glyph glyph-name="U" unicode="U" horiz-adv-x="721" 
d="M18 671q28 -2 47.5 -3t35.5 -2t29 -1h27q28 0 54.5 1t67.5 4v-30l-15 -1q-21 -1 -33.5 -2.5t-19.5 -5t-10.5 -9.5t-4.5 -15q-1 -5 -2 -28t-1.5 -58t-1 -80t-0.5 -94v-83t0.5 -46.5t1 -25t1.5 -18.5q5 -41 22.5 -67t52.5 -44q23 -12 52.5 -18t62.5 -6q142 0 177 96
q5 14 8.5 29.5t5.5 38t2.5 55.5t0.5 82v108t-0.5 73t-1 45.5t-1.5 26t-3 14t-5 9.5q-7 13 -24 17.5t-58 6.5v31q51 -3 79 -4t53 -1h23.5t21 0.5t22 1.5t25.5 2v-30q-21 -1 -34.5 -3t-22 -5.5t-13.5 -10t-9 -16.5q-3 -11 -5 -23.5t-3.5 -30t-2 -40.5t-0.5 -56q-2 -77 -3 -210
q0 -38 -3 -66t-9 -50t-16 -39t-24 -32q-33 -35 -87.5 -54t-124.5 -19q-75 0 -131.5 21.5t-85.5 59.5q-17 23 -24 55.5t-7 86.5l1 158q0 89 -0.5 139t-2 75.5t-4.5 33t-9 12.5q-8 7 -22.5 9.5t-48.5 4.5v31z" />
    <glyph glyph-name="V" unicode="V" horiz-adv-x="682" 
d="M317 -11q-17 46 -27.5 76t-15.5 44l-170 434q-4 10 -6.5 17.5t-4.5 11.5q-4 8 -7.5 16.5t-6.5 16.5q-4 11 -8 17t-11 9.5t-18.5 4.5t-31.5 1v32q35 -2 60 -3t54 -1h28.5t28.5 0.5t33.5 1.5t44.5 2v-34q-5 1 -8 1h-5q-22 0 -35 -0.5t-20 -2.5t-9.5 -5t-2.5 -9q0 -5 1 -11
t6 -19.5t14.5 -38.5t27.5 -69l136 -365l125 325q25 66 38.5 109.5t13.5 57.5q0 7 -2.5 12t-11 8t-24.5 5.5t-43 4.5v30q25 -1 42.5 -1.5t29.5 -0.5h21h18q28 0 50 0.5t51 2.5v-29l-9 -1q-18 0 -29.5 -3t-22 -16.5t-22 -40.5t-29.5 -74l-165 -414q-16 -41 -24.5 -62.5
t-15.5 -39.5h-38z" />
    <glyph glyph-name="W" unicode="W" horiz-adv-x="950" 
d="M219 -11q-5 26 -14 69.5t-23 106.5l-87 377q-8 32 -11.5 46.5t-8.5 29.5q-4 11 -13.5 15t-38.5 6h-13v31q33 -3 58 -4t57 -1h29t27 0.5t31 1.5t41 2v-29q-26 -1 -42 -2t-25 -4t-12 -7.5t-3 -11.5q0 -6 1.5 -15t6.5 -32q1 -3 2 -9t3 -15l85 -410l125 330q35 97 54 149.5
t22 62.5h31q2 -5 3 -10t3 -10q4 -11 7 -21t7 -20l28 -85l139 -403l92 348q13 50 20.5 84t7.5 45q0 19 -15 26t-62 9v30q23 -1 39 -1.5t28.5 -1t22.5 -0.5h21q26 0 48 1t50 3v-30q-5 -1 -9.5 -1h-6.5q-17 -1 -28 -5t-19.5 -16.5t-17.5 -36t-21 -63.5q-20 -66 -34 -114
t-25.5 -86t-20.5 -71.5t-19 -70t-21.5 -81.5t-26.5 -106h-44q-6 24 -11.5 42.5t-13.5 41t-19.5 53t-29.5 79.5q-13 34 -23.5 63.5t-19.5 54.5l-71 205l-142 -378q-18 -49 -33 -92t-23 -69h-42z" />
    <glyph glyph-name="X" unicode="X" horiz-adv-x="624" 
d="M14 29q21 0 30.5 1.5t16.5 5.5q3 1 7 5.5t12.5 15t21.5 28t33 45.5l148 205l-97 158q-17 29 -39 59t-38 48q-23 27 -54 27q-6 0 -12 -0.5t-17 -2.5v30l138 23q10 -11 19 -21t17 -22t17.5 -27t21.5 -36l92 -163l120 173q13 19 20 29.5t10 17.5t3.5 13t0.5 15v10h61h53v-24
q-4 -1 -7 -1l-22 -2q-8 0 -14 -3t-16.5 -14t-27.5 -33t-46 -61l-115 -155l158 -255q19 -32 30.5 -49.5t20.5 -26.5t18.5 -11t24.5 -2h7v-31q-11 1 -20 1.5t-18 0.5h-19h-23h-28.5t-27.5 -2q-8 10 -13 18.5t-11 17.5t-13 21.5t-18 32.5t-20.5 37.5t-17.5 31.5l-80 140
l-72 -106q-51 -75 -76.5 -121.5t-25.5 -63.5q0 -5 1 -7l-59 1h-23.5t-31.5 -1v30z" />
    <glyph glyph-name="Y" unicode="Y" horiz-adv-x="623" 
d="M603 670v-13q-14 -17 -34.5 -46t-44 -63.5t-47 -72t-43.5 -71.5q-22 -38 -35 -61.5t-19.5 -41t-8.5 -32.5t-2 -35q0 -50 0.5 -85.5t2 -58.5t3.5 -35t5 -15q5 -5 26.5 -8t52.5 -5v-29q-30 2 -50 2h-48q-35 0 -74.5 -1t-99.5 -3v30l13 1q24 1 38 2.5t22 3.5t11 6.5t5 11.5
q4 12 5.5 45.5t1.5 102.5v26q-1 15 -1 25v13q0 10 -1 13.5t-6 11.5q-2 2 -9.5 15.5t-15.5 29.5q-53 94 -89 152t-62.5 89.5t-48 42t-45.5 9.5v27q44 8 75 14t45 10q17 -11 34.5 -31.5t42.5 -60t59.5 -102.5t85.5 -159q5 11 11 23.5t16 30.5t24.5 44.5t36.5 65.5
q6 11 14.5 26t20.5 37t28 51t37 68h68z" />
    <glyph glyph-name="Z" unicode="Z" horiz-adv-x="626" 
d="M592 168q-5 -35 -7.5 -72t-2.5 -72v-10.5t1 -15.5q-23 -1 -37.5 -1h-31.5h-42.5t-59.5 1q-72 1 -120 1.5t-88 0.5q-36 0 -77.5 -0.5t-106.5 -1.5v26q19 22 39.5 47t46 58.5t58 77.5t75.5 103.5t98.5 137t126.5 177.5q-22 0 -37 0.5t-26.5 0.5h-22h-22.5q-85 0 -141 -2.5
t-72 -7.5q-8 -2 -13 -6.5t-8.5 -13.5t-5.5 -23.5t-3 -36.5v-9t-1 -15h-31q0 10 0.5 17.5t0.5 14.5v14v17q0 33 -0.5 53t-1.5 42q26 1 36 1h21q20 0 44.5 -0.5t60.5 -1.5q42 -1 71.5 -1.5t54.5 -1t50 -0.5h60h36h27t23.5 0.5t27.5 1.5v-26q-28 -34 -66.5 -84t-92 -122
t-124 -169t-162.5 -225h167.5h95.5t49 0.5t27 1.5q19 2 31 6.5t19 15t11 29t7 49.5q0 2 0.5 9t1.5 15h36z" />
    <glyph glyph-name="bracketleft" unicode="[" horiz-adv-x="304" 
d="M254 686l-46 -8q-27 -5 -35.5 -9.5t-10.5 -15.5t-3 -22.5t-1.5 -32t-0.5 -53.5v-87v-290v-102q-1 -31 -1 -48v-30q0 -54 2 -80.5t7 -33.5q4 -5 12.5 -8t30.5 -7l46 -9v-30q-46 2 -64 2.5t-27 0.5q-20 0 -37 -0.5t-43 -2.5l-6 6q2 34 3.5 64t2 66t1 85t0.5 123v153.5
t-0.5 117.5t-1 89.5t-1 70t-1.5 59t-3 56.5l6 7q27 -2 43.5 -3t36.5 -1q3 0 24.5 0.5t66.5 2.5v-30z" />
    <glyph glyph-name="backslash" unicode="\" horiz-adv-x="383" 
d="M53 605q-10 25 -19.5 48.5t-20.5 48.5q8 -1 14 -1.5t11 -0.5q3 0 9 0.5t14 1.5q4 -11 14 -35t26 -62l275 -664l48 -116q-8 1 -14 1h-11h-9.5t-13.5 -1q-11 24 -20.5 48t-19.5 48z" />
    <glyph glyph-name="bracketright" unicode="]" horiz-adv-x="304" 
d="M51 -150l46 9q17 3 27 5.5t14.5 8t6 15.5t1.5 28q1 28 1.5 162t0.5 377q1 91 -0.5 136.5t-4.5 61.5q-2 11 -10.5 15.5t-35.5 9.5l-46 8v30q85 -3 91 -3q20 0 36.5 1t43.5 3l6 -7q-2 -43 -3.5 -86.5t-2.5 -105.5t-1 -151.5v-224.5v-106.5t1 -80.5t2.5 -66.5t3.5 -62.5
l-6 -6q-26 2 -43 2.5t-37 0.5q-8 0 -28.5 -0.5t-62.5 -2.5v30z" />
    <glyph glyph-name="asciicircum" unicode="^" horiz-adv-x="434" 
d="M46 453l151 244h32l158 -244l-45 -14l-127 201l-124 -201z" />
    <glyph glyph-name="underscore" unicode="_" horiz-adv-x="500" 
d="M500 -82v-44h-500v44h500z" />
    <glyph glyph-name="grave" unicode="`" horiz-adv-x="500" 
d="M263 521l-128 76q-31 19 -42 30t-11 23q0 13 8.5 21t22.5 8q11 0 21 -6.5t28 -24.5l122 -127h-21z" />
    <glyph glyph-name="a" unicode="a" horiz-adv-x="468" 
d="M309 251q-10 -2 -18 -4.5t-11 -3.5q-36 -10 -57 -15.5t-33.5 -10t-19.5 -8.5t-15 -10q-17 -12 -26 -32.5t-9 -44.5q0 -35 19 -56.5t51 -21.5q34 0 65 20.5t55 59.5zM72 324v66l10 5l51 30q29 17 50.5 23t50.5 6q38 0 71 -13.5t53 -36.5q16 -19 22 -45t7 -74l4 -206
q0 -18 1 -28t6.5 -15t18 -6.5t35.5 -2.5v-30q-33 2 -46 3t-25 1q-11 0 -26 -1t-46 -4l2 81q-23 -18 -38.5 -30t-25.5 -20.5t-16.5 -13.5t-11.5 -8q-31 -20 -67 -20q-54 0 -84.5 31.5t-30.5 87.5q0 46 21 79.5t59 48.5q12 4 20.5 7t21.5 6.5t33 7.5t55 12q14 3 22 4.5t14 2.5
t11 2t14 3q-1 30 -5 48t-12 32q-28 46 -92 46q-21 0 -37.5 -4.5t-37.5 -15.5l-26 -65z" />
    <glyph glyph-name="b" unicode="b" horiz-adv-x="534" 
d="M167 120q0 -18 1.5 -23t10.5 -13q19 -18 47.5 -29.5t55.5 -11.5q30 0 54.5 13t42.5 37t27.5 57.5t9.5 74.5q0 78 -34 122t-94 44q-34 0 -62.5 -16.5t-46.5 -46.5q-8 -13 -10 -20t-2 -24v-164zM76 1q3 25 5 48.5t2.5 60.5t1 96t0.5 157q0 69 -0.5 118.5t-1.5 82t-3 49
t-4 20.5q-4 5 -14.5 6.5t-36.5 1.5h-18v27q18 1 39.5 4.5t43 8t41.5 10t34 11.5l5 -6q-1 -19 -1.5 -34t-1 -29t-0.5 -30v-38v-210l54 58q17 20 46.5 30.5t64.5 10.5q36 0 66 -14.5t52.5 -39.5t35 -59.5t12.5 -74.5q0 -75 -43 -149q-5 -8 -10 -14t-12 -12.5t-17 -14
t-25 -17.5q-9 -7 -18 -13.5t-19 -13.5q-17 -13 -29 -21t-23.5 -12.5t-24 -6t-28.5 -1.5q-35 0 -61.5 9t-54.5 30l-37 -35z" />
    <glyph glyph-name="c" unicode="c" horiz-adv-x="435" 
d="M357 302q-1 13 -2 22.5t-1 14.5q-2 19 -6.5 27t-16.5 16q-37 23 -85 23q-60 0 -91.5 -40t-31.5 -117q0 -47 12 -86.5t33 -68t50.5 -44t64.5 -15.5q57 0 105 27l11 -11l-20 -31q-65 -34 -132 -34q-48 0 -87 15.5t-66 45t-42 70.5t-15 92q0 48 14 91t37 66q12 13 41.5 31.5
t61.5 35.5q23 12 44 17t49 5q35 0 61 -6t54 -21q-7 -26 -10 -53.5t-5 -71.5h-27z" />
    <glyph glyph-name="d" unicode="d" horiz-adv-x="556" 
d="M386 343q-37 38 -67.5 53t-65.5 15q-61 0 -95.5 -47t-34.5 -130q0 -41 10 -74.5t28.5 -57.5t44.5 -37.5t57 -13.5q57 0 90 42t33 114v136zM311 668q45 3 89 12t72 22l5 -7q-2 -24 -3.5 -71t-3 -109t-2 -134.5t-0.5 -148.5q0 -79 1 -124t3 -54q3 -14 13 -19t41 -8
q4 -1 18 -3v-26q-20 1 -32.5 1.5t-21.5 0.5h-16h-14q-19 0 -36 -0.5t-42 -2.5q1 15 1.5 25t1 19t1 19t0.5 25q-13 -11 -24 -19.5t-19 -16.5q-11 -9 -42 -39q-20 -19 -77 -19q-42 0 -76 15.5t-59 43.5t-38.5 67.5t-13.5 86.5q0 24 4 48.5t11.5 46t18 39t22.5 29.5
q9 9 35.5 25.5t56.5 33.5q28 15 50 21.5t45 6.5t47.5 -6.5t58.5 -23.5q1 23 1 37v31q0 43 -0.5 68.5t-1 40t-2 21t-3.5 9.5q-3 4 -13 5.5t-36 3.5h-7.5t-12.5 1v27z" />
    <glyph glyph-name="e" unicode="e" horiz-adv-x="469" 
d="M128 262q33 -2 66.5 -3.5t73.5 -1.5q25 0 40.5 0.5t38.5 2.5q1 6 1 10.5v6.5q0 71 -27.5 108.5t-80.5 37.5q-34 0 -58.5 -17t-38.5 -49q-7 -17 -10 -38.5t-5 -56.5zM421 71l-16 -41q-35 -22 -77 -33.5t-85 -11.5q-46 0 -84 16.5t-65 46.5t-42 71.5t-15 92.5q0 126 75 186
q69 56 147 56q80 0 127 -50t47 -135q0 -4 -0.5 -11.5t-1.5 -17.5q-27 -8 -64 -11.5t-106 -3.5h-134q1 -37 7 -63.5t18 -49.5q20 -36 55.5 -56.5t79.5 -20.5q33 0 63 10.5t62 32.5z" />
    <glyph glyph-name="f" unicode="f" horiz-adv-x="306" 
d="M37 386l65 28v30q0 40 1.5 64.5t6.5 42t15.5 31.5t28.5 34q23 25 41 42t32.5 27t27 14t25.5 4q12 0 22.5 -2t29.5 -8l-3 -90l-14 -2q-35 39 -73 39q-26 0 -39.5 -19t-16.5 -62q-1 -7 -1.5 -17.5t-0.5 -27v-40v-56.5h19h22t20.5 0.5t23.5 1.5t31 2l4 -3q-2 -8 -3 -13.5
t-1.5 -10t-1.5 -10t-2 -13.5q-18 1 -31.5 1h-23.5h-23.5t-33.5 -1q-1 -27 -1 -40.5v-32.5v-51q1 -42 1 -70v-43q0 -51 1.5 -70.5t6.5 -24.5t17 -8t40 -6q3 -1 10 -1.5t16 -1.5v-25h-26l-61 1l-40 1l-15.5 -0.5t-35.5 -1t-41 -1t-33 -0.5v28q24 1 37.5 2t21 3t10 6.5
t4.5 12.5q1 6 2.5 29t2.5 59t1.5 83.5t0.5 103.5v17.5t-1 28.5l-65 -4v20z" />
    <glyph glyph-name="g" unicode="g" horiz-adv-x="495" 
d="M171 -12q-22 -12 -36.5 -22.5t-23 -22t-12 -25t-3.5 -31.5q0 -58 38.5 -92.5t103.5 -34.5q36 0 67 11.5t54 31t36 46.5t13 58q0 28 -14 47t-39 26q-19 5 -46.5 7.5t-71.5 2.5zM226 422q-45 0 -71.5 -29.5t-26.5 -80.5q0 -60 27.5 -96.5t71.5 -36.5q46 0 72.5 32t26.5 86
q0 58 -26.5 91.5t-73.5 33.5zM394 373q8 -18 11.5 -32t3.5 -33q0 -35 -14 -64t-39.5 -50.5t-60.5 -33.5t-77 -12h-10.5t-15.5 1q-37 -28 -37 -53q0 -21 26.5 -30.5t89.5 -9.5h6h11t24 0.5t45 1.5q62 2 96 -29.5t34 -88.5q0 -44 -20.5 -82.5t-56.5 -67t-84 -45t-103 -16.5
q-45 0 -81.5 11t-63 30.5t-41 47t-14.5 60.5q0 17 4 33t15 43q17 6 28 10.5t20.5 9t19.5 10.5t26 16q-34 12 -49 28.5t-15 39.5q0 8 1 13.5t4 15.5q15 10 24 16.5t17 12.5t16.5 12t22.5 16q-110 30 -110 133q0 35 15.5 65.5t43 53t64.5 35.5t80 13q35 0 62 -8.5t52 -27.5
q11 -1 20 -1h14q29 0 57 1t53 3q-4 -17 -5 -25t-4 -25z" />
    <glyph glyph-name="h" unicode="h" horiz-adv-x="556" 
d="M13 668q43 3 85.5 12t69.5 22l8 -5q-1 -8 -1.5 -25.5t-1 -37t-1 -37t-0.5 -24.5v-210l61 59q19 18 38.5 25t51.5 7q39 0 71.5 -13.5t52.5 -37.5q16 -20 22.5 -49t6.5 -77v-24.5t-1 -30.5q-1 -37 -1 -59.5v-37.5q0 -36 1 -55.5t8 -28.5t21.5 -11t41.5 -3v-28
q-29 1 -46.5 1.5t-37.5 0.5t-35.5 -0.5t-39.5 -2.5q2 50 3.5 84.5t2 59.5t1 45t0.5 42q0 27 -1 45.5t-3 32t-5 24t-8 19.5q-11 20 -34 31.5t-52 11.5q-33 0 -60.5 -14t-46.5 -41q-4 -6 -6 -11t-3 -13t-1.5 -21t-0.5 -35l1 -167q0 -23 1.5 -36t8.5 -19t22 -7.5t42 -2.5v-28
q-23 1 -38 1.5t-26 0.5h-19h-17q-5 0 -34.5 -0.5t-99.5 -1.5v28h14q27 2 38.5 4.5t16.5 8.5q2 3 4 7.5t3 15.5t1.5 31t1 54t0.5 84.5v122.5q0 30 -0.5 66t-1 71.5t-1 67t-0.5 52.5q0 10 -2 16t-8 9t-17.5 3.5t-32.5 0.5l-17 1v27z" />
    <glyph glyph-name="i" unicode="i" horiz-adv-x="268" 
d="M139 662q21 0 36.5 -15.5t15.5 -37.5t-15.5 -37t-37.5 -15q-21 0 -36.5 15.5t-15.5 36.5q0 23 15.5 38t37.5 15zM25 415q54 9 87.5 18t65.5 23l8 -8q-1 -30 -2 -57t-1.5 -55.5t-0.5 -60.5v-72v-70.5t1 -44.5t2 -26t3 -15q3 -11 13.5 -14.5t37.5 -5.5l16 -1v-29
q-23 1 -39.5 2t-29 1.5t-23.5 0.5h-24h-22.5t-23 -0.5t-29 -1t-39.5 -1.5v27l15 1q34 1 44 5t13 16q2 13 3.5 66.5t1.5 154.5q0 100 -8 111q-2 2 -4 3.5t-7 2t-15.5 1t-28.5 1.5h-5.5t-8.5 1v27z" />
    <glyph glyph-name="j" unicode="j" horiz-adv-x="261" 
d="M140 662q21 0 36.5 -15.5t15.5 -37.5t-15.5 -37t-37.5 -15q-21 0 -36.5 15.5t-15.5 36.5q0 23 15.5 38t37.5 15zM-12 -234l15 -1.5t10 -0.5q27 0 44 16t27 58.5t13.5 117.5t3.5 194v118t-0.5 65.5t-1.5 30t-2 12.5q-2 4 -4 6.5t-7 4t-15 2t-28 0.5h-6.5t-9.5 1v26
q48 7 84.5 16t67.5 23l9 -8q-2 -28 -3.5 -54t-2 -53.5t-1 -57.5t-0.5 -65v-147t-1 -80.5t-3 -43t-5 -33.5q-11 -60 -32.5 -98t-57.5 -61q-34 -22 -69 -22h-6t-9 1z" />
    <glyph glyph-name="k" unicode="k" horiz-adv-x="544" 
d="M10 668q92 7 156 34l7 -6v-29.5v-25t-0.5 -25.5t-0.5 -30q-1 -25 -1 -42v-25v-263q15 10 29.5 21t31.5 25.5t39 34.5t52 48q13 12 20.5 20.5t12 15t6.5 12t3 12.5q30 -2 41.5 -2h21.5h26t37 2v-27q-22 0 -35.5 -1.5t-27 -8t-31.5 -20t-49 -37.5l-100 -79l143 -143
q31 -30 49.5 -47.5t30.5 -25.5t21 -10t21 -2q6 0 12.5 1t18.5 3v-21q-1 -1 -6 -2t-11 -3q-11 -3 -22.5 -6.5t-23.5 -6.5q-20 -5 -30.5 -9t-25.5 -10q-14 12 -23 20.5t-22 21t-32.5 32.5t-53.5 55q-17 17 -31 31.5t-28 28t-28.5 27.5t-31.5 29l-4 -2q0 -104 1.5 -149t6.5 -46
q5 -6 17 -8.5t49 -5.5v-26q-26 1 -43 1.5t-28.5 0.5h-19.5h-16h-21t-23.5 -0.5t-32.5 -1t-47 -1.5v28q32 1 48 4t21 9q2 3 3.5 19.5t2.5 55.5t1.5 104t0.5 165v64.5t-0.5 64t-1 56t-1.5 41.5q0 11 -1.5 17.5t-7 9.5t-16.5 4t-31 1h-8t-14 1v27z" />
    <glyph glyph-name="l" unicode="l" horiz-adv-x="260" 
d="M18 669q42 3 82 11.5t71 21.5l7 -6q-2 -28 -3 -59t-2 -76.5t-1 -112.5v-168q0 -42 0.5 -81.5t1 -71t1.5 -53t2 -27.5t2.5 -9.5t7.5 -6t19.5 -4t37.5 -3.5v-28q-35 3 -60.5 4t-56.5 1q-29 0 -53 -1t-57 -3v27l10 1q33 2 43 4t14 8q2 3 3.5 20t2 51.5t1 88t0.5 129.5v147
v87.5t-0.5 43.5t-1.5 15q-1 7 -3.5 11t-9.5 6.5t-20.5 3t-37.5 1.5v28z" />
    <glyph glyph-name="m" unicode="m" horiz-adv-x="834" 
d="M23 416q51 7 88 16t64 23l9 -7l-3 -79l59 56q29 29 88 29q29 0 55 -9.5t44 -26.5q9 -10 16.5 -21t18.5 -32l54 54q17 17 42 26t54 9q42 0 76 -20t50 -54q8 -19 11.5 -41.5t3.5 -63.5v-23t-1 -29l-1 -108q0 -32 1.5 -49.5t8.5 -26t22.5 -10.5t43.5 -2v-28q-27 1 -43 1.5
t-26 1t-15 0.5h-9q-18 0 -32.5 -0.5t-35.5 -2.5q3 53 4 96t1 94q0 34 -0.5 57.5t-1.5 40t-3 27t-5 19.5q-9 30 -31.5 45.5t-55.5 15.5q-38 0 -66.5 -20t-35.5 -52q-2 -8 -2.5 -13t-1 -14t-0.5 -24.5v-43.5v-20.5v-14.5t-0.5 -15t-0.5 -21v-54q0 -41 3 -53t17 -16
q8 -2 19.5 -3.5t38.5 -3.5v-27q-25 1 -42.5 1.5t-31 0.5h-24.5h-24q-26 0 -51 -0.5t-63 -2.5v28q35 2 48.5 4t18.5 7q3 3 5.5 14.5t4 33t2 55t0.5 80.5q0 52 -4 80.5t-14 48.5q-11 21 -32 33t-48 12q-56 0 -88 -43q-13 -17 -17.5 -33.5t-4.5 -47.5v-26.5t1 -37.5v-91
q0 -21 0.5 -33t0.5 -18.5t0.5 -9.5t0.5 -5q1 -6 5 -10.5t12 -7t22 -3.5t36 -2v-28q-15 1 -27 1.5t-25 0.5h-29h-38h-36.5h-28.5t-24.5 -0.5t-25.5 -1.5v27q19 1 30 2t18 2t10.5 2.5t6.5 3.5q4 3 6.5 8.5t3.5 24t1 55v101.5q0 45 -0.5 74.5t-1.5 47.5t-2.5 26t-3.5 11
q-4 4 -14.5 5.5t-39.5 1.5h-15v26z" />
    <glyph glyph-name="n" unicode="n" horiz-adv-x="576" 
d="M23 415q47 5 82 14t71 25l10 -7q-2 -19 -2.5 -30t-0.5 -22v-28l78 67q4 4 13 7.5t21 6.5t24.5 4.5t23.5 1.5q35 0 65.5 -12t50.5 -33q20 -22 28 -54t8 -88v-27.5t-1 -39.5q-1 -26 -1 -47v-32q0 -25 0.5 -40.5t2 -25t3.5 -13.5t6 -7q3 -2 5.5 -3.5t7 -2.5t12.5 -2t22 -2
h4.5t5.5 -1v-27q-32 2 -49 3t-34 1q-20 0 -35.5 -1t-39.5 -3q4 55 6 115t2 120q0 48 -3 71t-13 40q-12 23 -38 35.5t-58 12.5q-59 0 -96 -40q-14 -14 -19 -30t-5 -43l1 -193q0 -22 1.5 -34t9 -18t23.5 -7t45 -2v-27q-38 1 -60 1.5t-34.5 1t-18 0.5h-10.5h-22.5t-23 -0.5
t-28.5 -1.5t-40 -2v27l11 1l33 3q16 1 22 6t8 18q1 8 2 21t1.5 34t0.5 51v72q0 140 -9 152q-3 4 -11 5.5t-27 1.5h-6.5t-24.5 -1v28z" />
    <glyph glyph-name="o" unicode="o" horiz-adv-x="518" 
d="M252 424q-60 0 -93.5 -45t-33.5 -126q0 -38 8 -76t22 -71q18 -42 48.5 -64.5t69.5 -22.5q57 0 89 46.5t32 130.5q0 45 -9.5 88.5t-26.5 75.5q-16 31 -43.5 47.5t-62.5 16.5zM271 454q102 0 156.5 -57.5t54.5 -163.5q0 -56 -17 -101.5t-47.5 -78t-73.5 -50.5t-95 -18
q-99 0 -155.5 63t-56.5 174q0 51 17 93.5t48 73.5t74 48t95 17z" />
    <glyph glyph-name="p" unicode="p" horiz-adv-x="559" 
d="M175 99q31 -32 57.5 -44.5t59.5 -12.5q32 0 59 13.5t46.5 38t30.5 58t11 73.5q0 76 -38 122t-101 46q-22 0 -44.5 -8.5t-40.5 -22.5t-29 -31t-11 -34v-198zM16 416q40 3 78.5 12.5t70.5 24.5l12 -7l-2 -88l73 67q17 15 40 22t59 7q39 0 71.5 -13.5t55.5 -38t35.5 -59
t12.5 -76.5q0 -45 -15 -90t-39 -73q-14 -17 -47 -40.5t-76 -47.5q-25 -14 -42.5 -19.5t-38.5 -5.5q-49 0 -89 27v-31q0 -68 0.5 -108t1 -61.5t2.5 -29t5 -11.5q3 -3 7 -5.5t11.5 -4t19 -3t30.5 -2.5v-24q-32 2 -54.5 2.5t-46.5 0.5h-27t-28 -0.5t-34.5 -1.5t-46.5 -2v28
q30 0 46 2t23.5 10t9 25t1.5 48v204v140.5t-0.5 89t-1 50t-2 25l-2.5 12.5q-3 11 -11.5 14t-34.5 3h-11.5t-15.5 -1v29z" />
    <glyph glyph-name="q" unicode="q" horiz-adv-x="534" 
d="M371 365q-29 26 -54 37t-57 11q-63 0 -100.5 -49.5t-37.5 -131.5q0 -40 10.5 -74t28.5 -59t42.5 -39t53.5 -14q32 0 59 16.5t55 51.5v251zM471 442q-6 -22 -9.5 -44.5t-6 -57t-3 -86.5t-0.5 -132q0 -155 1.5 -235.5t3.5 -93.5q2 -9 5 -15t10.5 -9t21.5 -4t38 -2v-26
q-33 1 -53.5 1.5t-33 1t-20 0.5h-13.5h-15.5t-22 -0.5t-34 -1t-50.5 -1.5v26l15 1q20 1 32 2.5t18 4t8.5 7.5t3.5 13q1 6 2 28.5t2 53.5t1.5 65t0.5 64v63l-88 -57q-14 -10 -28 -13.5t-36 -3.5q-40 0 -73.5 16t-58 44.5t-38.5 67t-14 84.5q0 66 24 114.5t70 75.5
q33 19 55.5 31t39.5 19t31 9t31 2q61 0 119 -35l46 32z" />
    <glyph glyph-name="r" unicode="r" horiz-adv-x="375" 
d="M18 417q21 1 43 5t42.5 9t37.5 11.5t29 12.5l10 -9l-2 -101q6 7 10.5 11.5t6.5 7.5q18 22 26 35q21 29 42.5 41.5t49.5 12.5q11 0 20 -2t22 -7q-3 -20 -5 -32.5t-3 -24.5t-1.5 -25.5t-0.5 -35.5h-21q-20 43 -57 43q-25 0 -46 -15t-30 -39q-6 -18 -9.5 -53t-3.5 -84
q0 -110 8 -134q1 -5 4 -8.5t10.5 -5.5t20 -3.5t33.5 -3.5l15 -1v-26q-33 2 -55.5 3t-54.5 1h-29.5t-29 -0.5t-35.5 -1.5t-48 -2v28q27 2 41.5 3t22 3.5t9.5 6t4 10.5q1 7 2.5 21t2 37.5t1 56.5t0.5 79q0 69 -2.5 101t-7.5 39q-4 5 -15.5 6.5t-38.5 1.5h-18v28z" />
    <glyph glyph-name="s" unicode="s" horiz-adv-x="401" 
d="M76 141v-13q2 -34 7.5 -50.5t20.5 -30.5q34 -31 86 -31q45 0 75 25.5t30 63.5q0 45 -44 66q-5 2 -9 4t-12 5t-22.5 8t-39.5 14q-32 12 -53 24t-34 26t-18.5 31t-5.5 40q0 61 41.5 96t114.5 35q33 0 62 -6t63 -20q-2 -13 -3.5 -37t-2.5 -72h-28q-2 27 -5.5 42t-13.5 28
q-27 36 -79 36q-39 0 -62.5 -19t-23.5 -51q0 -23 12.5 -38.5t41.5 -29.5q7 -3 12.5 -5.5t15 -6t25 -9t41.5 -14.5q97 -33 97 -112q0 -34 -14.5 -62.5t-40 -49t-61 -32t-77.5 -11.5q-36 0 -68.5 6t-66.5 19q6 17 8 46t2 85h29z" />
    <glyph glyph-name="t" unicode="t" horiz-adv-x="319" 
d="M20 381l72 30l-3 149q14 6 23.5 9.5t17 7t16 8t21.5 11.5l10 -9q-1 -17 -1.5 -29.5t-1 -30t-1 -43.5t-1.5 -71h41t31 1t26 2t24 3l3 -2l-8 -48h-58t-59 -1l1 -197q0 -38 1.5 -57t6.5 -33q5 -16 19 -25.5t33 -9.5q15 0 29.5 4.5t37.5 18.5l5 -19l-52 -53q-18 -7 -30 -9.5
t-28 -2.5q-30 0 -53.5 11t-34.5 31q-5 9 -8 15.5t-4.5 17t-2 27.5t-0.5 49l1 228h-21t-15.5 -0.5t-15.5 -1.5t-21 -2v21z" />
    <glyph glyph-name="u" unicode="u" horiz-adv-x="550" 
d="M537 -2q-28 1 -43.5 1.5t-23.5 0.5h-11h-7q-19 0 -34 -0.5t-38 -2.5q1 16 1.5 27t1 20.5t1 19.5t1.5 26l-75 -72q-12 -12 -38 -19.5t-55 -7.5q-33 0 -59.5 10t-43.5 29q-16 17 -22.5 42.5t-6.5 67.5v27.5t1 35.5q1 27 1.5 46.5t0.5 33.5v25v20q0 17 -0.5 27.5t-1 16t-2 8
t-4.5 4.5q-5 3 -15 4t-34 2h-18v28q50 4 87.5 13t67.5 24l9 -8q-2 -22 -3 -54t-2.5 -68t-2 -72.5t-0.5 -67.5q0 -38 4.5 -64t15 -42t27.5 -22.5t42 -6.5q65 0 109 63q6 9 9.5 17t5 23t2 41t0.5 71q0 60 -1.5 86.5t-6.5 32.5q-3 4 -11 5.5t-27 1.5h-12t-24 -1v28q31 4 54 7.5
t41 8t32.5 10t29.5 12.5l9 -7q-1 -30 -2.5 -73.5t-2.5 -90t-1.5 -92t-0.5 -78.5q0 -32 1 -49t7.5 -25.5t19.5 -11t37 -3.5l11 -1v-27z" />
    <glyph glyph-name="v" unicode="v" horiz-adv-x="486" 
d="M221 -7q-5 13 -8.5 21.5t-5.5 11.5l-22 53l-113 263q-2 3 -5 10.5t-6 14.5q-6 15 -11 24t-11 13.5t-15 6t-24 2.5l-7 1v29q35 -2 58.5 -3t48.5 -1q23 0 47 1t69 3v-27q-43 -2 -57 -6t-14 -15v-5.5t1.5 -7t4.5 -12.5t8 -23l104 -268l97 240q18 45 18 66q0 15 -12 21
t-51 10v27q27 -2 46.5 -2.5t45.5 -0.5q27 0 45 0.5t41 2.5v-27q-16 -2 -25.5 -4t-16.5 -7.5t-13 -15.5t-15 -28q-30 -63 -53 -113.5t-42 -94t-34 -82t-30 -78.5h-43z" />
    <glyph glyph-name="w" unicode="w" horiz-adv-x="741" 
d="M180 -7q-8 26 -13.5 45t-9.5 31l-78 261q-9 31 -15.5 48t-14.5 25.5t-21 11t-35 3.5v25q20 -1 34.5 -1.5t26.5 -0.5h23h23h24h23.5t29 0.5t40.5 1.5v-25q-24 -1 -38 -2t-21.5 -3.5t-9.5 -6.5t-2 -11q0 -3 0.5 -6.5t2 -10t4.5 -17.5t8 -30l65 -231l95 221q8 17 20.5 50
t31.5 81h23q5 -13 5 -16q6 -17 11 -30t9.5 -24.5l9 -23t10.5 -26.5l91 -237l71 193q14 39 20 60t6 34q0 18 -13.5 25t-52.5 11v25q43 -1 62 -1h36h18.5h17.5t21 0.5t30 0.5v-25q-15 0 -26 -3.5t-20.5 -12.5t-18.5 -25.5t-20 -41.5q-24 -56 -40 -94t-29.5 -73.5t-27 -75.5
t-33.5 -99h-44l-127 335l-93 -210q-14 -33 -24.5 -60.5t-22.5 -64.5h-42z" />
    <glyph glyph-name="x" unicode="x" horiz-adv-x="495" 
d="M118 452q15 -6 26.5 -13.5t22.5 -20t24 -31.5t30 -48l42 -70l72 98q24 33 32.5 49t7.5 27q16 -1 27 -1.5t19 -0.5q7 0 18 0.5t25 1.5v-26q-12 0 -20.5 -2t-16.5 -7t-17 -13.5t-22 -23.5l-108 -129l95 -137q27 -39 48 -54.5t47 -15.5h11t13 1v-21q-20 -5 -33 -8t-24.5 -6
t-24 -6t-31.5 -8q-18 7 -31.5 21t-36.5 49l-80 123l-72 -103q-22 -31 -30.5 -48.5t-8.5 -31.5q-14 2 -24 2.5t-24 0.5t-26.5 -0.5t-31.5 -2.5v27q17 0 27.5 1.5t19 6t18 14.5t23.5 27l111 135q-27 40 -42.5 63t-25 36.5t-15 20.5t-11.5 14q-43 49 -86 49h-8.5t-11.5 -2
l-2 23z" />
    <glyph glyph-name="y" unicode="y" horiz-adv-x="484" 
d="M36 -174q22 -35 59 -35q41 0 67 45q6 11 9.5 18.5t9.5 20t15.5 35t26.5 62.5l-135 336q-15 37 -24 57.5t-18 31t-21 13t-32 4.5v29q30 -2 50 -3t46 -1h20t25.5 0.5t34 1.5t47.5 2v-27q-17 -2 -26 -2.5t-13.5 -1t-6.5 -1t-5 -0.5q-18 -4 -18 -22v-7t1.5 -8t5 -14.5
t9.5 -25.5q4 -11 11 -30.5t18 -49.5l70 -177l75 192q16 41 26 72.5t10 42.5q0 15 -10.5 21.5t-38.5 8.5l-11 1v26q20 -1 34 -1.5t24.5 -0.5h19h17.5q20 0 38.5 0.5t44.5 2.5v-27q-19 -2 -31.5 -6.5t-24.5 -20.5t-26.5 -47.5t-38.5 -86.5l-137 -329q-23 -53 -39 -87t-30 -54
q-16 -26 -41 -41t-50 -15q-16 0 -31 3.5t-40 14.5q4 14 6.5 23.5t4.5 17.5t4 16.5t5 22.5h14z" />
    <glyph glyph-name="z" unicode="z" horiz-adv-x="456" 
d="M436 135q-3 -20 -5 -36t-3 -31.5t-2 -31.5t-1 -35q-14 -2 -22 -3t-23 -1l-61 1q-24 1 -49.5 1.5t-52.5 0.5h-101h-79h-20l-4 18q22 24 41 46t38.5 46.5t41.5 53t51 66.5q27 37 47 63t35 46l27 36t25 33q-194 -3 -198 -7q-17 -5 -25 -22t-14 -64h-26q3 40 4 58.5t1 35.5
v16t-2 18q112 -2 174 -3t76 -1h38t29.5 0.5t25.5 1.5t25 2v-26q-43 -52 -80 -98.5t-75 -95.5q-35 -48 -71 -95t-71 -95q24 -1 38.5 -1h28.5q75 0 120 3.5t58 11.5q13 7 19.5 25t14.5 63h27z" />
    <glyph glyph-name="braceleft" unicode="{" horiz-adv-x="304" 
d="M282 -181q-29 1 -48.5 1.5t-33 1.5t-23 3t-18.5 5q-74 22 -74 136q0 10 0.5 33t1 53t1 62.5t1.5 60.5q-1 42 -18 60.5t-58 19.5l-13 1v25h7.5t5.5 1q43 2 59.5 19.5t16.5 59.5l-4 208q0 104 58 131q36 17 124 17h15v-24q-43 -3 -64.5 -10.5t-34.5 -24.5q-8 -9 -12 -18
t-6.5 -23.5t-3 -37.5t-0.5 -60v-83q0 -35 -0.5 -56.5t-3 -35t-6.5 -22.5t-11 -18q-11 -14 -24 -22t-36 -14q23 -6 36 -14t24 -21q7 -10 11 -18.5t6.5 -22t3 -35t0.5 -56.5v-83q0 -38 0.5 -61t3 -37.5t6.5 -24t11 -18.5q14 -17 35 -24.5t65 -9.5v-24z" />
    <glyph glyph-name="bar" unicode="|" horiz-adv-x="543" 
d="M294 667v-834h-45v834h45z" />
    <glyph glyph-name="braceright" unicode="}" horiz-adv-x="304" 
d="M22 717q29 0 48 -1t32.5 -2t23.5 -3t19 -5q74 -21 74 -135q0 -10 -0.5 -33.5t-1 -53.5t-1 -62.5t-1.5 -60.5q1 -42 18 -60t58 -20h5.5t7.5 -1v-24q-5 -1 -8 -1h-5q-43 -3 -59.5 -20.5t-16.5 -59.5l4 -208q0 -104 -58 -131q-36 -17 -124 -17h-5.5t-9.5 1v23
q43 3 64.5 10.5t34.5 24.5q7 9 11.5 18t7 23.5t3 37.5t0.5 61v82q0 36 0.5 57.5t3 35t6.5 22t11 17.5q11 14 24 22t36 14q-23 6 -36 14t-24 22q-7 9 -11 18t-6.5 22.5t-3 35t-0.5 56.5v83q0 37 -0.5 60.5t-3 38t-6.5 23.5t-11 18q-14 17 -35 24.5t-65 9.5v24z" />
    <glyph glyph-name="asciitilde" unicode="~" horiz-adv-x="444" 
d="M14 640q59 53 113 53q18 0 37.5 -5.5t55.5 -20.5q31 -13 51.5 -18.5t37.5 -5.5q26 0 49 12t54 42l8 -39q-56 -62 -123 -62q-11 0 -19 0.5t-20 4t-32.5 10.5t-57.5 21q-26 10 -36 12.5t-20 2.5q-21 0 -42.5 -11t-47.5 -36z" />
    <glyph glyph-name="uni00A0" unicode="&#xa0;" horiz-adv-x="250" 
 />
    <glyph glyph-name="exclamdown" unicode="&#xa1;" horiz-adv-x="261" 
d="M141 455q20 0 35.5 -16t15.5 -39t-15 -39.5t-37 -16.5q-21 0 -36 16.5t-15 39.5t15 39t37 16zM87 -222q0 12 0.5 26t2.5 44t6 82t11 140q2 26 3 43.5l2 35t2 39.5t3 58l27 25l9 -5q2 -36 6 -80t9 -103q3 -32 6 -63.5t5.5 -59.5t3.5 -49.5t1 -31.5q0 -11 -0.5 -24.5
l-1.5 -40.5q-20 -14 -33 -20.5t-35 -15.5h-27z" />
    <glyph glyph-name="cent" unicode="&#xa2;" 
d="M262 504q-100 -8 -100 -149q0 -75 25.5 -125.5t74.5 -71.5v346zM300 612q-1 -12 -1.5 -19.5t-0.5 -14v-13.5v-18q8 1 14 1h11q45 0 98 -23q-5 -18 -8 -51t-4 -69h-26q-2 54 -20.5 76t-64.5 24v-354q7 -1 12.5 -1.5t7.5 -0.5q54 0 102 42l9 -12l-30 -45q-23 -14 -50 -21.5
t-52 -8.5v-28.5v-21.5t0.5 -21t1.5 -29h-41q1 17 1.5 28t0.5 20.5t0.5 21.5t1.5 30q-38 4 -63.5 12.5t-47.5 25.5q-33 26 -52 72t-19 101q0 39 10.5 76t30.5 65q14 20 41.5 38t76.5 39l22 9q1 9 1 16.5v11.5v18t-2 24h40z" />
    <glyph glyph-name="sterling" unicode="&#xa3;" 
d="M503 184q-6 -49 -9.5 -91t-3.5 -68v-25q-28 -5 -47 -7.5t-42 -2.5q-16 0 -31 1t-36.5 5t-53 10.5t-80.5 17.5q-21 5 -42 8t-35 3q-24 0 -46 -9.5t-57 -35.5l-16 10v16q0 9 3 29q23 6 39 11.5t27 12.5t19 16.5t15 23.5q28 55 28 166v16t-1 19q-14 1 -23 1h-17h-18.5
t-26.5 -1l-8 3q2 13 3 18t2 17q15 -1 25 -1.5t19 -0.5t18.5 -0.5t24.5 -0.5q0 54 1.5 89.5t6 59.5t12 40t19.5 30q17 19 48.5 43.5t63.5 41.5q27 16 47.5 21.5t49.5 5.5q64 0 101 -28q-3 -22 -5 -35.5t-2.5 -26t-1 -28t-0.5 -41.5h-25q-1 5 -1.5 9t-0.5 6q-2 18 -4.5 30.5
t-6 20.5t-9 14t-13.5 12q-31 23 -72 23q-89 0 -113 -115q-5 -24 -8 -62t-4 -109q12 -1 22.5 -1h14.5h25t26.5 0.5t33.5 1t46 1.5l5 -5q-3 -10 -4 -13.5t-4 -14.5l-4 -4h-102l-60 1q-6 -51 -13 -87t-18.5 -62.5t-28 -46.5t-40.5 -40q24 10 45 14t45 4q10 0 27.5 -1t38.5 -2.5
t44.5 -3.5t44.5 -4q25 -3 45 -3q14 0 24 4t17.5 14.5t13.5 28t12 43.5q1 2 1.5 6.5t2.5 9.5z" />
    <glyph glyph-name="currency" unicode="&#xa4;" horiz-adv-x="602" 
d="M302 516q-35 0 -66.5 -13.5t-54.5 -37t-36.5 -55t-13.5 -67.5t13.5 -67.5t36.5 -55t54 -37t66 -13.5t66.5 13.5t55 36.5t37 54.5t13.5 66.5q0 36 -13.5 68t-36.5 56t-54 37.5t-67 13.5zM40 574q-5 5 -5 8t5 8l13 13q6 5 8 5t8 -5l83 -83q35 26 70.5 37.5t77.5 11.5
q79 0 150 -47l83 83q5 5 8 5t8 -5l13 -13q5 -5 5 -8t-5 -7l-84 -84q54 -71 54 -151q0 -38 -12 -71t-42 -78l85 -85q5 -6 5 -8q0 -1 -5 -7l-14 -14q-5 -5 -8 -5q-2 0 -7 5l-86 86q-42 -28 -74.5 -38.5t-72.5 -10.5q-41 0 -74 11.5t-72 38.5l-86 -86q-5 -5 -8 -5q-2 0 -8 5
l-13 13q-4 4 -4.5 5t-0.5 3t0.5 3t4.5 5l85 85q-29 42 -41 75.5t-12 73.5q0 19 2.5 36.5t8.5 34.5t16 35.5t25 40.5z" />
    <glyph glyph-name="yen" unicode="&#xa5;" 
d="M198 345h-166v32h158l-101 193q-11 24 -19 37.5t-16.5 20.5t-19.5 9.5t-29 3.5v32q29 -3 53 -4t57 -1q34 0 56.5 1t52.5 3v-33h-9q-50 0 -50 -23q0 -8 4 -21t10 -25l90 -182l87 173q11 20 15 32.5t4 20.5q0 14 -11.5 19.5t-44.5 6.5v32q33 -2 57 -3t53 -1h21.5t17.5 0.5
t17 1.5t20 2v-31q-18 -2 -30.5 -5.5t-23.5 -12.5t-22 -24.5t-27 -40.5l-109 -181h150v-32h-161v-86h160v-32h-160q0 -15 -0.5 -24.5t-0.5 -16v-12v-12.5v-57.5t1 -33.5t2.5 -17.5t3.5 -9.5q5 -6 17.5 -9.5t45.5 -7.5l15 -2v-28q-19 1 -34.5 1.5l-31 1t-32.5 0.5h-38
q-37 0 -64.5 -0.5t-61.5 -2.5v29l17 1q22 2 35.5 4.5t21 6.5t10.5 10t5 17q2 12 3 25t1 27l1 84v26h-165v32h165v86z" />
    <glyph glyph-name="brokenbar" unicode="&#xa6;" horiz-adv-x="500" 
d="M277 153v-320h-53v320h53zM277 667v-334h-53v334h53z" />
    <glyph glyph-name="section" unicode="&#xa7;" 
d="M144 420q-11 -18 -15 -30.5t-4 -29.5q0 -21 6.5 -37.5t23 -29.5t44 -25t69.5 -24q17 -5 29.5 -9t23 -8t20 -8t21.5 -9q11 17 15 29t4 26q0 34 -25.5 56.5t-91.5 46.5q-29 11 -47 17.5t-30 12t-21.5 10.5t-21.5 12zM371 513q-3 69 -28.5 99t-79.5 30q-48 0 -76 -23
t-28 -63q0 -19 6.5 -34t21.5 -28t40.5 -25.5t63.5 -26.5q42 -15 70.5 -29t45 -29t23.5 -32.5t7 -39.5q0 -27 -12 -52t-42 -63q27 -21 39.5 -46.5t12.5 -60.5q0 -40 -17 -74.5t-47 -60t-71 -40t-89 -14.5q-37 0 -65 6.5t-68 24.5v157h31q1 -8 1.5 -14.5t0.5 -9.5q1 -36 6 -52
t19 -29q17 -19 43.5 -29t58.5 -10q60 0 97.5 30t37.5 79q0 50 -50 79q-14 8 -40.5 18t-72.5 24q-38 12 -64.5 25t-43 29.5t-24 37.5t-7.5 47q0 68 54 118q-17 20 -24.5 41.5t-7.5 50.5q0 73 47.5 112t137.5 39q37 0 63.5 -4.5t61.5 -17.5l-7 -140h-25z" />
    <glyph glyph-name="dieresis" unicode="&#xa8;" horiz-adv-x="500" 
d="M347 649q20 0 34.5 -14.5t14.5 -34.5t-14.5 -34.5t-35.5 -14.5q-20 0 -34 14.5t-14 34.5t14.5 34.5t34.5 14.5zM153 649q20 0 34.5 -14.5t14.5 -34.5t-14.5 -34.5t-35.5 -14.5q-20 0 -34 14.5t-14 34.5t14.5 34.5t34.5 14.5z" />
    <glyph glyph-name="copyright" unicode="&#xa9;" horiz-adv-x="787" 
d="M393 646q-65 0 -122.5 -25t-100.5 -68t-67.5 -100.5t-24.5 -122.5t24.5 -122t67 -100t99 -68t120.5 -25q67 0 125 24.5t101 67t68 100.5t25 124q0 65 -25 122.5t-67.5 100t-100 67.5t-122.5 25zM393 681q72 0 136 -27.5t111.5 -75t75 -111.5t27.5 -136q0 -74 -27.5 -138
t-75.5 -111t-112.5 -74.5t-138.5 -27.5q-71 0 -134 28t-110 75.5t-74.5 111t-27.5 135.5q0 73 27.5 137t75 111.5t111.5 75t136 27.5zM528 431l-1 33q0 11 -1.5 15.5t-6.5 8.5q-14 12 -41 19t-57 7q-75 0 -119 -44.5t-44 -121.5q0 -42 13.5 -76t37.5 -58t58.5 -37.5
t76.5 -13.5q37 0 64.5 8t54.5 27l9 -9q-5 -11 -6 -15t-5 -15q-36 -18 -69 -26t-69 -8q-53 0 -96 15.5t-74.5 43.5t-48.5 67t-17 86t17 85.5t48.5 65.5t75.5 42t98 15q70 0 142 -23q-4 -12 -6.5 -21t-4 -19t-2.5 -22t-2 -29h-25z" />
    <glyph glyph-name="ordfeminine" unicode="&#xaa;" horiz-adv-x="307" 
d="M183 410q-21 -5 -34 -8.5t-21 -6t-12.5 -5t-9.5 -5.5q-20 -15 -20 -42q0 -20 11 -31.5t30 -11.5q40 0 71 44l-1 70zM50 459v43l4 2l4 2l32 18q18 10 32 14t31 4q25 0 46.5 -8.5t33.5 -22.5q11 -11 15 -27.5t4 -45.5l2 -121q0 -13 1 -17t3 -6q3 -2 7.5 -2.5t26.5 -2.5v-25
q-26 2 -33.5 2.5t-13.5 0.5q-4 0 -13.5 -0.5t-23.5 -1.5l-11 -1l1 45q-7 -6 -16.5 -13t-16.5 -12q-21 -16 -33 -21t-29 -5q-35 0 -55 19.5t-20 54.5q0 28 13.5 48.5t38.5 29.5q22 8 116 26q-3 69 -64 69q-13 0 -22.5 -2.5t-21.5 -8.5l-16 -40z" />
    <glyph glyph-name="guillemotleft" unicode="&#xab;" horiz-adv-x="441" 
d="M395 383q-21 -28 -36.5 -49t-28.5 -39t-25 -34.5t-24 -34.5q31 -45 58 -82t56 -74l-24 -16q-19 20 -41 43t-44 45.5t-42 42.5t-36 35v12q21 19 38.5 36.5t35.5 36t39.5 41t49.5 52.5zM233 383q-21 -29 -36.5 -50.5t-27.5 -38.5t-23 -33t-24 -35q15 -23 29 -43t27.5 -39
t26.5 -37t28 -37l-21 -16q-20 21 -42 43.5t-44 44.5t-43 42t-37 36v12q19 18 37 35.5t37.5 37t41.5 42t50 51.5z" />
    <glyph glyph-name="logicalnot" unicode="&#xac;" horiz-adv-x="533" 
d="M502 238v-267h-47v223h-443v44h490z" />
    <glyph glyph-name="uni00AD" unicode="&#xad;" horiz-adv-x="282" 
d="M0 203q9 22 13.5 35t10.5 33q36 -2 59.5 -2.5t54.5 -0.5h26t29.5 0.5t37 1t47.5 1.5l4 -7q-10 -22 -14 -35t-9 -33q-18 1 -33 2t-28.5 1.5t-27 0.5h-30.5h-32t-30 -0.5t-32.5 -1.5t-39.5 -2z" />
    <glyph glyph-name="registered" unicode="&#xae;" horiz-adv-x="787" 
d="M393 646q-65 0 -122.5 -25t-100.5 -68t-67.5 -100.5t-24.5 -122.5t24.5 -122t67 -100t99 -68t120.5 -25q67 0 125 24.5t101 67t68 100.5t25 124q0 65 -25 122.5t-67.5 100t-100 67.5t-122.5 25zM393 681q72 0 136 -27.5t111.5 -75t75 -111.5t27.5 -136q0 -74 -27.5 -138
t-75.5 -111t-112.5 -74.5t-138.5 -27.5q-71 0 -134 28t-110 75.5t-74.5 111t-27.5 135.5q0 73 27.5 137t75 111.5t111.5 75t136 27.5zM349 356q8 -1 12.5 -1.5t9.5 -0.5q45 0 72.5 23t27.5 61q0 35 -23 54t-66 19q-14 0 -26 -1.5t-29 -5.5q-1 -11 -1.5 -28t-0.5 -43.5v-63
v-87.5q0 -62 1.5 -87.5t4.5 -29.5q3 -3 11 -3.5t39 -2.5v-24q-27 1 -44 1.5t-34 0.5q-9 0 -29 -0.5t-66 -1.5v23q4 1 6.5 1h4.5q13 1 20.5 1.5t11 1.5t4.5 1.5t2 1.5q2 3 3.5 11t2 28.5t1 57t0.5 95.5q0 43 -0.5 71t-1 44.5t-2 24t-3.5 10.5t-8.5 4t-28.5 3h-12v25
q38 -1 60.5 -1.5t27.5 -0.5q2 0 22 0.5t58 1.5q11 1 19 1h12q131 0 131 -90q0 -42 -30.5 -71.5t-84.5 -40.5q8 -12 17 -24t26 -33q20 -23 32.5 -39.5t18.5 -24.5q12 -15 19.5 -24t12 -14.5t8 -8t6.5 -4.5q6 -3 13.5 -4.5t23.5 -3.5v-23q-13 1 -21 1.5t-13.5 0.5h-9.5h-8
q-11 0 -20 -0.5t-23 -1.5q-7 9 -12 15.5t-8 10.5q-14 19 -27.5 37.5t-27.5 36.5q-26 34 -44 57t-41 50z" />
    <glyph glyph-name="macron" unicode="&#xaf;" horiz-adv-x="500" 
d="M129 616h243v-44h-243v44z" />
    <glyph glyph-name="degree" unicode="&#xb0;" horiz-adv-x="282" 
d="M141 650q-28 0 -47.5 -19.5t-19.5 -46.5q0 -28 19.5 -47.5t46.5 -19.5q28 0 47.5 19.5t19.5 47.5q0 27 -19.5 46.5t-46.5 19.5zM141 681q20 0 37.5 -7.5t31 -21t21 -31t7.5 -37.5q0 -42 -28.5 -70t-70.5 -28q-20 0 -37 7.5t-30.5 21t-21 31.5t-7.5 38t7.5 37.5t21 31
t31.5 21t38 7.5z" />
    <glyph glyph-name="plusminus" unicode="&#xb1;" horiz-adv-x="576" 
d="M504 124v-59h-433v59h433zM256 401v174h63v-174h185v-59h-185v-173h-63v173h-185v59h185z" />
    <glyph glyph-name="uni00B2" unicode="&#xb2;" horiz-adv-x="335" 
d="M31 284l106 110q24 25 40 45t26.5 37t15 32.5t4.5 31.5q0 36 -21.5 59t-56.5 23q-27 0 -48 -13q-8 -5 -12.5 -13t-9.5 -25q-1 -3 -3 -10t-4 -15h-24l2 14q2 13 3.5 21.5t2 15.5l1 14t1.5 17q22 23 46.5 33.5t58.5 10.5q57 0 91 -31t34 -83q0 -34 -17 -64.5t-59 -72.5
l-103 -102h90q39 1 62.5 2t48.5 3q-3 -21 -3 -31q0 -11 3 -30q-17 1 -30 2t-26.5 1.5t-28 0.5h-33.5q-45 0 -79.5 -1t-77.5 -3v21z" />
    <glyph glyph-name="uni00B3" unicode="&#xb3;" horiz-adv-x="335" 
d="M48 372q12 -27 17.5 -37.5t13.5 -18.5q11 -12 28 -19t37 -7q40 0 62.5 25t22.5 70q0 37 -18.5 58t-50.5 21q-12 0 -23.5 -2.5t-28.5 -8.5l-6 5l4 33q15 -1 18.5 -1h8.5q32 0 51.5 19.5t19.5 51.5q0 31 -17 47.5t-49 16.5q-26 0 -49 -13q-7 -5 -12 -13.5t-12 -28.5
q0 -2 -1 -5.5t-3 -8.5h-24l2 12q2 7 3.5 14t3.5 14q1 7 2.5 13.5l4.5 19.5q42 43 101 43q46 0 75.5 -25t29.5 -63q0 -27 -13 -48t-43 -43q89 -9 89 -92q0 -29 -12.5 -55t-34.5 -45t-51 -30t-62 -11q-20 0 -38 3t-48 11q-1 17 -6 41t-13 47z" />
    <glyph glyph-name="acute" unicode="&#xb4;" horiz-adv-x="500" 
d="M215 521l129 125q6 4 10 10q14 14 22.5 19t16.5 5q10 0 17 -8.5t7 -20.5q0 -14 -10.5 -26.5t-33.5 -26.5l-127 -77h-31z" />
    <glyph glyph-name="mu" unicode="&#xb5;" horiz-adv-x="576" 
d="M312 18q-12 -12 -38 -19.5t-54 -7.5q-18 0 -32 2.5t-31 8.5q-1 -15 -1 -23v-19q0 -15 0.5 -29t2.5 -29t4.5 -32.5t7.5 -40.5q-12 -10 -20 -17t-15 -13t-15 -13t-21 -18l-16 11q1 23 2 40.5t1.5 32.5t0.5 30v33v90q0 19 -0.5 34t-0.5 27.5v24.5v27v23t0.5 27.5t1 47.5
t1.5 83v29q0 34 -1.5 43t-6.5 13q-5 3 -15 4t-34 2h-18v28q50 4 87.5 13t67.5 24l9 -8q-2 -22 -3 -54t-2.5 -68t-2 -72.5t-0.5 -67.5q0 -38 4.5 -64t15 -42t27.5 -22.5t42 -6.5q65 0 109 63q6 9 9.5 17t5 23t2 41t0.5 71q0 60 -1.5 86.5t-6.5 32.5q-3 4 -11 5.5t-27 1.5h-12
t-24 -1v28q31 4 54 7.5t41 8t32.5 10t29.5 12.5l9 -7q-1 -30 -2.5 -73.5t-2.5 -90t-1.5 -92t-0.5 -78.5q0 -32 1 -49t7.5 -25.5t19.5 -11t37 -3.5l11 -1v-27q-29 1 -44.5 1.5t-23.5 0.5h-11h-7q-18 0 -33 -0.5t-38 -2.5q1 16 1.5 27t1 20.5t1 19.5t1.5 26z" />
    <glyph glyph-name="paragraph" unicode="&#xb6;" 
d="M496 639l-98 -7q-16 -1 -24.5 -2t-12.5 -5t-4.5 -11t-0.5 -20v-580q0 -54 -6 -83t-22 -51q-14 -20 -38.5 -31.5t-51.5 -11.5q-43 0 -71 24.5t-28 62.5q0 26 15.5 42.5t40.5 16.5q24 0 38.5 -14t14.5 -37q0 -18 -11 -32q-7 -8 -8 -10.5t-1 -4.5q0 -6 7 -10t18 -4
q15 0 30 8t23 20q12 19 18 47.5t4 54.5v5l-4 276q-114 3 -176.5 56.5t-62.5 147.5q0 47 16 84t45 60q26 20 59.5 28.5t81.5 8.5h209v-28z" />
    <glyph glyph-name="periodcentered" unicode="&#xb7;" horiz-adv-x="268" 
d="M135 286q23 0 39 -16.5t16 -39.5t-16.5 -39t-39.5 -16t-39 16t-16 39t16.5 39.5t39.5 16.5z" />
    <glyph glyph-name="cedilla" unicode="&#xb8;" horiz-adv-x="500" 
d="M300 0l-21 -50q18 3 26 3q32 0 51 -17t19 -44q0 -35 -30.5 -57.5t-79.5 -22.5q-20 0 -40 3t-49 11l14 25q20 -6 35 -8.5t30 -2.5q28 0 44 12.5t16 34.5q0 37 -44 37q-8 0 -13 -1t-13 -4l-8 6l34 75h29z" />
    <glyph glyph-name="uni00B9" unicode="&#xb9;" horiz-adv-x="335" 
d="M206 664q-1 -11 -1.5 -34.5t-1 -52.5t-1 -60t-0.5 -57v-71t0.5 -45.5t1.5 -26t2 -12.5q2 -8 12 -11.5t36 -3.5h7.5t13.5 -1v-25q-21 1 -36 1.5t-26.5 1t-20.5 0.5h-19h-16.5t-20.5 -0.5t-28 -1t-40 -1.5v25q28 1 42 2t19 3q8 2 11 13.5t4 46.5q0 8 0.5 44t1.5 79
q1 24 1 48v40t-1 20q-1 2 -1 6q0 1 -1 2l1 17q-2 5 -4 6q-1 0 -1 -1l-6 -2q-3 0 -9.5 -3.5t-16.5 -8.5q-1 -1 -12 -6.5t-29 -13.5q-5 -2 -24 -12l-6 41q52 15 89 29.5t70 32.5z" />
    <glyph glyph-name="ordmasculine" unicode="&#xba;" horiz-adv-x="338" 
d="M164 517q-35 0 -55 -25.5t-20 -71.5q0 -59 25 -97t63 -38q34 0 53 26.5t19 74.5q0 61 -22.5 96t-62.5 35zM177 542q64 0 99 -35t35 -99q0 -34 -11 -61.5t-30.5 -47t-46.5 -30.5t-60 -11q-63 0 -99 38.5t-36 104.5q0 31 11 57t30.5 44.5t47 29t60.5 10.5z" />
    <glyph glyph-name="guillemotright" unicode="&#xbb;" horiz-adv-x="441" 
d="M46 70q21 27 36.5 48.5t28.5 39.5t24.5 34.5t23.5 34.5q-30 45 -57 81.5t-56 73.5l24 16q19 -20 41 -43t44 -45l42 -42t36 -35v-13q-21 -20 -38.5 -37t-35.5 -35.5t-39.5 -41t-49.5 -52.5zM208 70q21 29 36 50.5t27.5 38.5t23.5 33t23 35q-30 46 -55.5 81.5t-54.5 73.5
l21 16q20 -21 42 -43.5t44 -44t42.5 -41.5t37.5 -36v-13q-19 -18 -37 -35t-37.5 -36.5t-41.5 -42.5t-50 -52z" />
    <glyph glyph-name="onequarter" unicode="&#xbc;" horiz-adv-x="725" 
d="M570 332q-2 -4 -16.5 -26.5t-40.5 -64.5q-8 -13 -22.5 -38t-34.5 -58q10 0 16.5 -0.5t12.5 -0.5h13.5h19.5h23.5t27.5 1zM408 121q20 35 36 61.5t33.5 54.5t40 63t55.5 87l45 17l9 -5q0 -29 -0.5 -51t-1 -40t-0.5 -34v-33v-41t1 -55q20 0 30 0.5t33 3.5q-1 -8 -1.5 -14
t-0.5 -10t0.5 -10.5t1.5 -14.5q-12 1 -19.5 1.5t-14 0.5t-13 0.5t-16.5 0.5q-1 -4 -1 -6.5v-3.5q0 -31 1.5 -45.5t3.5 -17.5q4 -4 17 -6t42 -2v-25q-21 1 -35 1.5t-24.5 1t-18 0.5h-16.5h-18.5t-19 -0.5t-24.5 -1t-36 -1.5v24q22 1 35 2t20 2t9 2.5t3 4.5q2 6 3.5 21.5
t1.5 49.5h-9l-20 1q-42 0 -72 -1t-53 -3zM235 44q-8 -16 -12 -24.5t-9 -21.5q-6 1 -11 1h-7h-9t-11 -1q4 7 7.5 13t6.5 12l6.5 13l8.5 17l283 565q5 11 9.5 22.5t9.5 28.5q19 -3 27 -3h7t9 1q-8 -14 -14.5 -25t-14.5 -26zM206 664q-1 -11 -1.5 -34.5t-1 -52.5t-1 -60
t-0.5 -57v-71t0.5 -45.5t1.5 -26t2 -12.5q2 -8 12 -11.5t36 -3.5h7.5t13.5 -1v-25q-21 1 -36 1.5t-26.5 1t-20.5 0.5h-19h-16.5t-20.5 -0.5t-28 -1t-40 -1.5v25q28 1 42 2t19 3q8 2 11 13.5t4 46.5q0 8 0.5 44t1.5 79q1 24 1 48v40t-1 20q-1 2 -1 6q0 1 -1 2l1 17q-2 5 -4 6
q-1 0 -1 -1l-6 -2q-3 0 -9.5 -3.5t-16.5 -8.5q-1 -1 -12 -6.5t-29 -13.5q-5 -2 -24 -12l-6 41q52 15 89 29.5t70 32.5z" />
    <glyph glyph-name="onehalf" unicode="&#xbd;" horiz-adv-x="725" 
d="M420 18l106 110q24 24 40.5 44t26.5 37t14.5 32.5t4.5 31.5q0 37 -21.5 59.5t-56.5 22.5q-27 0 -48 -13q-8 -5 -12.5 -13t-9.5 -25q-1 -3 -3 -10t-4 -15h-24l2 15q2 13 3.5 21t2 15l1 14t1.5 17q22 23 46.5 33.5t58.5 10.5q57 0 91 -30.5t34 -83.5q0 -34 -17 -64.5
t-59 -72.5l-103 -101h90q39 0 62.5 1t48.5 3q-3 -20 -3 -31q0 -9 3 -30q-17 1 -30 2t-26 1.5t-27.5 0.5h-34.5q-43 0 -78 -0.5t-79 -2.5v21zM235 44q-8 -16 -12 -24.5t-9 -21.5q-6 1 -11 1h-7h-9t-11 -1q4 7 7.5 13t6.5 12l6.5 13l8.5 17l283 565q5 11 9.5 22.5t9.5 28.5
q19 -3 27 -3h7t9 1q-8 -14 -14.5 -25t-14.5 -26zM206 664q-1 -11 -1.5 -34.5t-1 -52.5t-1 -60t-0.5 -57v-71t0.5 -45.5t1.5 -26t2 -12.5q2 -8 12 -11.5t36 -3.5h7.5t13.5 -1v-25q-21 1 -36 1.5t-26.5 1t-20.5 0.5h-19h-16.5t-20.5 -0.5t-28 -1t-40 -1.5v25q28 1 42 2t19 3
q8 2 11 13.5t4 46.5q0 8 0.5 44t1.5 79q1 24 1 48v40t-1 20q-1 2 -1 6q0 1 -1 2l1 17q-2 5 -4 6q-1 0 -1 -1l-6 -2q-3 0 -9.5 -3.5t-16.5 -8.5q-1 -1 -12 -6.5t-29 -13.5q-5 -2 -24 -12l-6 41q52 15 89 29.5t70 32.5z" />
    <glyph glyph-name="threequarters" unicode="&#xbe;" horiz-adv-x="725" 
d="M570 332q-2 -4 -16.5 -26.5t-40.5 -64.5q-8 -13 -22.5 -38t-34.5 -58q10 0 17 -0.5t13 -0.5h13h19h24.5t26.5 1zM409 121q20 35 35.5 61.5t33 54.5t40 63t55.5 87l45 17l9 -5q-1 -29 -1.5 -50t-0.5 -38.5v-34v-35.5v-36t1 -60q20 0 30 0.5t33 3.5q-1 -8 -1.5 -14
t-0.5 -10q0 -9 3 -25q-12 1 -19.5 1.5t-14 0.5t-13.5 0.5t-17 0.5v-10v-23q1 -29 3 -36t10 -8q7 -2 20 -3t30 -1v-25q-21 1 -35 1.5t-24.5 1t-18 0.5h-16.5h-18.5t-19 -0.5t-24.5 -1t-36 -1.5v24q22 1 35 2t20 2t9 2.5t3 4.5q3 6 4 21.5t1 49.5h-9l-20 1q-42 0 -72 -1
t-53 -3zM235 44q-8 -16 -11.5 -24.5t-8.5 -21.5q-7 1 -11.5 1h-7.5h-9t-11 -1q4 7 7.5 13t6.5 12t7 13t9 17l282 565q6 11 10 22.5t9 28.5q19 -3 27 -3h7t9 1q-8 -14 -14 -25t-14 -26zM48 372q12 -27 17.5 -37.5t13.5 -18.5q11 -12 28 -19t37 -7q40 0 62.5 25t22.5 70
q0 37 -18.5 58t-50.5 21q-12 0 -23.5 -2.5t-28.5 -8.5l-6 5l4 33q15 -1 18.5 -1h8.5q32 0 51.5 19.5t19.5 51.5q0 31 -17 47.5t-49 16.5q-26 0 -49 -13q-7 -5 -12 -13.5t-12 -28.5q0 -2 -1 -5.5t-3 -8.5h-24l2 12q2 7 3.5 14t3.5 14q1 7 2.5 13.5l4.5 19.5q42 43 101 43
q46 0 75.5 -25t29.5 -63q0 -27 -13 -48t-43 -43q89 -9 89 -92q0 -29 -12.5 -55t-34.5 -45t-51 -30t-62 -11q-20 0 -38 3t-48 11q-1 17 -6 41t-13 47z" />
    <glyph glyph-name="questiondown" unicode="&#xbf;" horiz-adv-x="414" 
d="M228 453q22 0 38 -16t16 -38q0 -23 -16 -39t-39 -16t-38.5 16t-15.5 39t16 38.5t39 15.5zM370 -84q-11 -32 -19.5 -59t-19.5 -59q-29 -19 -56 -27t-59 -8q-36 0 -67.5 12t-55 32.5t-36.5 48.5t-13 61q0 31 11 61.5t31 55.5q6 7 10.5 12.5t13 13.5t23 22t41.5 40
q56 54 56 94q0 16 -7.5 29t-27.5 31l20 15q27 -14 42 -36.5t15 -51.5q0 -12 -3 -24t-10 -25.5t-19 -29.5t-29 -36q-26 -29 -42 -50.5t-26 -39t-13.5 -32.5t-3.5 -32q0 -23 8.5 -42.5t23.5 -33.5t35.5 -22.5t43.5 -8.5q17 0 31.5 4t32.5 14q5 7 8 12l6 10t7 11.5t10 18.5
q4 10 12 22z" />
    <glyph glyph-name="Agrave" unicode="&#xc0;" horiz-adv-x="714" 
d="M370 741l-127 76q-32 19 -43 30t-11 23q0 13 8.5 21t22.5 8q11 0 21 -6t26 -23l125 -129h-22zM228 262q10 0 17 -0.5t16.5 -0.5h24h40.5h84.5t47.5 1l-117 286zM375 675l238 -564q12 -29 20 -45.5t17 -24.5t21 -10t33 -3v-32q-28 1 -47.5 2t-33 1.5t-23 0.5h-18.5h-17.5
t-23.5 -0.5t-34.5 -1.5t-49.5 -2v32q51 1 66.5 4.5t15.5 16.5q0 7 -1.5 13t-9.5 24l-54 137q-12 0 -20.5 0.5t-18 0.5h-22h-31.5h-94t-76 -1l-53 -130q-11 -25 -11 -38q0 -14 12 -18.5t53 -6.5l17 -1v-33q-24 1 -40.5 2t-28.5 1.5t-22.5 0.5h-22.5h-22t-21.5 -0.5t-26.5 -1
t-36 -1.5v31q30 1 42 3.5t20 9.5q5 2 20 31.5t32 71.5l224 531h27z" />
    <glyph glyph-name="Aacute" unicode="&#xc1;" horiz-adv-x="714" 
d="M323 741l129 125l10 10q17 16 23 20t15 4q11 0 18 -8t7 -21q0 -25 -45 -53l-127 -77h-30zM228 262q10 0 17 -0.5t16.5 -0.5h24h40.5h84.5t47.5 1l-117 286zM375 675l238 -564q12 -29 20 -45.5t17 -24.5t21 -10t33 -3v-32q-28 1 -47.5 2t-33 1.5t-23 0.5h-18.5h-17.5
t-23.5 -0.5t-34.5 -1.5t-49.5 -2v32q51 1 66.5 4.5t15.5 16.5q0 7 -1.5 13t-9.5 24l-54 137q-12 0 -20.5 0.5t-18 0.5h-22h-31.5h-94t-76 -1l-53 -130q-11 -25 -11 -38q0 -14 12 -18.5t53 -6.5l17 -1v-33q-24 1 -40.5 2t-28.5 1.5t-22.5 0.5h-22.5h-22t-21.5 -0.5t-26.5 -1
t-36 -1.5v31q30 1 42 3.5t20 9.5q5 2 20 31.5t32 71.5l224 531h27z" />
    <glyph glyph-name="Acircumflex" unicode="&#xc2;" horiz-adv-x="714" 
d="M341 903h45l109 -163h-17l-116 103l-114 -103h-29zM228 262q10 0 17 -0.5t16.5 -0.5h24h40.5h84.5t47.5 1l-117 286zM375 675l238 -564q12 -29 20 -45.5t17 -24.5t21 -10t33 -3v-32q-28 1 -47.5 2t-33 1.5t-23 0.5h-18.5h-17.5t-23.5 -0.5t-34.5 -1.5t-49.5 -2v32
q51 1 66.5 4.5t15.5 16.5q0 7 -1.5 13t-9.5 24l-54 137q-12 0 -20.5 0.5t-18 0.5h-22h-31.5h-94t-76 -1l-53 -130q-11 -25 -11 -38q0 -14 12 -18.5t53 -6.5l17 -1v-33q-24 1 -40.5 2t-28.5 1.5t-22.5 0.5h-22.5h-22t-21.5 -0.5t-26.5 -1t-36 -1.5v31q30 1 42 3.5t20 9.5
q5 2 20 31.5t32 71.5l224 531h27z" />
    <glyph glyph-name="Atilde" unicode="&#xc3;" horiz-adv-x="714" 
d="M188 771q26 95 102 95q19 0 37 -5t50 -19q29 -13 42 -17t25 -4q20 0 33.5 11t24.5 37h24q-12 -47 -37.5 -72t-61.5 -25q-11 0 -19.5 1t-20 4t-27 9t-39.5 16q-30 13 -52 13q-37 0 -56 -44h-25zM228 262q10 0 17 -0.5t16.5 -0.5h24h40.5h84.5t47.5 1l-117 286zM375 675
l238 -564q12 -29 20 -45.5t17 -24.5t21 -10t33 -3v-32q-28 1 -47.5 2t-33 1.5t-23 0.5h-18.5h-17.5t-23.5 -0.5t-34.5 -1.5t-49.5 -2v32q51 1 66.5 4.5t15.5 16.5q0 7 -1.5 13t-9.5 24l-54 137q-12 0 -20.5 0.5t-18 0.5h-22h-31.5h-94t-76 -1l-53 -130q-11 -25 -11 -38
q0 -14 12 -18.5t53 -6.5l17 -1v-33q-24 1 -40.5 2t-28.5 1.5t-22.5 0.5h-22.5h-22t-21.5 -0.5t-26.5 -1t-36 -1.5v31q30 1 42 3.5t20 9.5q5 2 20 31.5t32 71.5l224 531h27z" />
    <glyph glyph-name="Adieresis" unicode="&#xc4;" horiz-adv-x="714" 
d="M454 869q20 0 34.5 -14.5t14.5 -34.5t-14.5 -34.5t-35.5 -14.5q-20 0 -34 14.5t-14 34.5t14.5 34.5t34.5 14.5zM260 869q20 0 34.5 -14.5t14.5 -34.5t-14.5 -34.5t-35.5 -14.5q-20 0 -34 14.5t-14 34.5t14.5 34.5t34.5 14.5zM228 262q10 0 17 -0.5t16.5 -0.5h24h40.5
h84.5t47.5 1l-117 286zM375 675l238 -564q12 -29 20 -45.5t17 -24.5t21 -10t33 -3v-32q-28 1 -47.5 2t-33 1.5t-23 0.5h-18.5h-17.5t-23.5 -0.5t-34.5 -1.5t-49.5 -2v32q51 1 66.5 4.5t15.5 16.5q0 7 -1.5 13t-9.5 24l-54 137q-12 0 -20.5 0.5t-18 0.5h-22h-31.5h-94t-76 -1
l-53 -130q-11 -25 -11 -38q0 -14 12 -18.5t53 -6.5l17 -1v-33q-24 1 -40.5 2t-28.5 1.5t-22.5 0.5h-22.5h-22t-21.5 -0.5t-26.5 -1t-36 -1.5v31q30 1 42 3.5t20 9.5q5 2 20 31.5t32 71.5l224 531h27z" />
    <glyph glyph-name="Aring" unicode="&#xc5;" horiz-adv-x="714" 
d="M357 906q-29 0 -46 -20t-17 -55t16.5 -55.5t45.5 -20.5q30 0 47 20t17 56q0 35 -17 55t-46 20zM357 925q46 0 73 -25t27 -69q0 -45 -26.5 -70t-74.5 -25q-46 0 -72.5 25.5t-26.5 69.5q0 43 27 68.5t73 25.5zM228 262q10 0 17 -0.5t16.5 -0.5h24h40.5h84.5t47.5 1
l-117 286zM375 675l238 -564q12 -29 20 -45.5t17 -24.5t21 -10t33 -3v-32q-28 1 -47.5 2t-33 1.5t-23 0.5h-18.5h-17.5t-23.5 -0.5t-34.5 -1.5t-49.5 -2v32q51 1 66.5 4.5t15.5 16.5q0 7 -1.5 13t-9.5 24l-54 137q-12 0 -20.5 0.5t-18 0.5h-22h-31.5h-94t-76 -1l-53 -130
q-11 -25 -11 -38q0 -14 12 -18.5t53 -6.5l17 -1v-33q-24 1 -40.5 2t-28.5 1.5t-22.5 0.5h-22.5h-22t-21.5 -0.5t-26.5 -1t-36 -1.5v31q30 1 42 3.5t20 9.5q5 2 20 31.5t32 71.5l224 531h27z" />
    <glyph glyph-name="AE" unicode="&#xc6;" horiz-adv-x="885" 
d="M430 636q-6 -10 -11.5 -19t-11 -19t-12 -22t-14.5 -28l-144 -272h46h55q27 1 41 1h29h14t23 -1l-2 312v19v11.5t-0.5 8.5t-0.5 9h-12zM0 25h9q21 2 30.5 6t20.5 15q4 5 8 9.5t10 14.5t15.5 27.5t26.5 48.5l213 392q0 1 8.5 15.5t17.5 30.5t12.5 24.5t3.5 14.5t-2.5 9
t-12.5 5t-30 3t-55 3v29l119 -3.5t93 -2.5t78.5 -1h75.5h39.5t36.5 0.5t38 1t44 0.5l7 -10q-3 -28 -4.5 -49.5t-1.5 -48.5v-12t1 -28h-33q0 44 -1.5 62.5t-6.5 24.5q-8 10 -46 15t-103 5h-14.5h-14.5t-20 -0.5t-31 -0.5q-1 -72 -1.5 -115t-0.5 -57v-19v-17.5t0.5 -22.5
t0.5 -33q29 -1 44.5 -1h17.5q120 0 136 11q2 2 3.5 4t2.5 8t2 18t3 33l1 15h31q-1 -17 -2 -32t-1.5 -29t-0.5 -29.5v-34.5q0 -26 0.5 -47t1.5 -49h-31q0 28 -1 44t-4.5 25t-10 12t-18.5 5t-24.5 3t-31.5 2t-47.5 1.5t-70.5 0.5q0 -84 -0.5 -153t-1.5 -125h20
q39 -1 79.5 -1.5t82.5 -0.5q33 0 51 1.5t27.5 9.5t14.5 25t11 49q1 4 3 13.5t4 21.5h32q-3 -24 -5 -43t-3 -37t-2 -37.5t-1 -44.5q-23 -1 -38 -1.5t-29 -0.5h-11.5h-20.5t-44 0.5t-83 1.5q-26 1 -42 1h-31q-17 0 -37.5 -0.5l-41 -1t-39 -1.5t-30.5 -2v25q22 6 34.5 16
t12.5 22q0 14 3 178q-28 2 -49.5 2h-50.5h-31h-27t-30 -0.5t-40 -1.5l-66 -131q-10 -19 -14 -30t-4 -19q0 -18 29 -22q4 -1 11.5 -2t15.5 -1.5t15 -1.5t12 -1v-33q-27 3 -48 4t-51 1t-56 -1t-61 -4v30z" />
    <glyph glyph-name="Ccedilla" unicode="&#xc7;" horiz-adv-x="675" 
d="M593 499l-2 51q-1 20 -3.5 28.5t-11.5 16.5q-24 20 -67.5 32.5t-93.5 12.5q-69 0 -120 -22t-87 -69q-62 -79 -62 -196q0 -72 22 -131t62.5 -101t96.5 -65t125 -23q59 0 104 14t87 44l9 -9q-6 -16 -8.5 -23t-7.5 -22q-50 -28 -101.5 -41.5t-106.5 -15.5l-20 -46q19 4 30 4
q35 0 56 -17.5t21 -46.5q0 -38 -33.5 -61t-87.5 -23q-23 0 -44.5 3t-54.5 11l16 26q40 -10 72 -10q31 0 48.5 13t17.5 36q0 38 -49 38q-8 0 -14 -1t-15 -4l-8 6l33 72q-80 4 -145 31.5t-111.5 73.5t-71.5 109.5t-25 139.5q0 78 27 142t76.5 109.5t119.5 70.5t156 25
q115 0 224 -37q-6 -18 -10 -33t-6.5 -31.5t-4 -35.5t-2.5 -45h-30z" />
    <glyph glyph-name="Egrave" unicode="&#xc8;" horiz-adv-x="572" 
d="M299 741l-128 76q-30 18 -41.5 29.5t-11.5 23.5q0 13 8.5 21t21.5 8q11 0 21 -6t26 -23l125 -129h-21zM37 25h14q33 1 45.5 7t15.5 23q1 6 2 37t2 79.5t1.5 110t0.5 127.5q0 169 -8 201q-4 14 -18 20t-49 6l-20 1v32q39 -1 64.5 -2t43 -1.5t31 -0.5h28.5h29.5t41 0.5
t60.5 1t87 1.5h81l8 -11l-2 -22t-1.5 -26.5t-0.5 -37v-51.5h-32q-1 27 -2 43t-2 25t-2.5 13.5t-4.5 7.5q-8 9 -45 13t-112 4q-24 0 -42.5 -0.5t-42.5 -1.5q-1 -76 -1 -113.5v-38.5v-16v-20t0.5 -30.5t0.5 -46.5l17 1l59 1l62 2q37 1 49.5 3t17.5 7q5 4 6.5 14.5t3.5 37.5
q1 2 1 9t1 15h32q-2 -33 -3 -58t-1 -55q0 -27 0.5 -51t2.5 -56h-32q-1 25 -2 40t-3 23.5t-5.5 12.5t-9.5 7q-10 4 -51 6.5t-130 2.5h-15v-278q26 -1 57.5 -1.5t90.5 -0.5q91 0 113 7q6 2 10.5 5.5t7.5 11.5t6.5 23t8.5 41q1 4 2.5 12.5t4.5 19.5h30q-3 -32 -5 -54t-3 -39
t-1.5 -32.5t-0.5 -33.5q-23 -2 -38.5 -3t-41.5 -1h-28t-49 1q-20 0 -44 0.5t-47 1t-43.5 0.5h-34.5q-36 0 -166 -6v30z" />
    <glyph glyph-name="Eacute" unicode="&#xc9;" horiz-adv-x="572" 
d="M251 741l129 125q13 13 20.5 20t12 10t7.5 3.5t8 0.5q11 0 18.5 -8t7.5 -21q0 -14 -10.5 -26.5t-35.5 -26.5l-126 -77h-31zM37 25h14q33 1 45.5 7t15.5 23q1 6 2 37t2 79.5t1.5 110t0.5 127.5q0 169 -8 201q-4 14 -18 20t-49 6l-20 1v32q39 -1 64.5 -2t43 -1.5t31 -0.5
h28.5h29.5t41 0.5t60.5 1t87 1.5h81l8 -11l-2 -22t-1.5 -26.5t-0.5 -37v-51.5h-32q-1 27 -2 43t-2 25t-2.5 13.5t-4.5 7.5q-8 9 -45 13t-112 4q-24 0 -42.5 -0.5t-42.5 -1.5q-1 -76 -1 -113.5v-38.5v-16v-20t0.5 -30.5t0.5 -46.5l17 1l59 1l62 2q37 1 49.5 3t17.5 7
q5 4 6.5 14.5t3.5 37.5q1 2 1 9t1 15h32q-2 -33 -3 -58t-1 -55q0 -27 0.5 -51t2.5 -56h-32q-1 25 -2 40t-3 23.5t-5.5 12.5t-9.5 7q-10 4 -51 6.5t-130 2.5h-15v-278q26 -1 57.5 -1.5t90.5 -0.5q91 0 113 7q6 2 10.5 5.5t7.5 11.5t6.5 23t8.5 41q1 4 2.5 12.5t4.5 19.5h30
q-3 -32 -5 -54t-3 -39t-1.5 -32.5t-0.5 -33.5q-23 -2 -38.5 -3t-41.5 -1h-28t-49 1q-20 0 -44 0.5t-47 1t-43.5 0.5h-34.5q-36 0 -166 -6v30z" />
    <glyph glyph-name="Ecircumflex" unicode="&#xca;" horiz-adv-x="572" 
d="M269 903h45l110 -163h-18l-115 103l-114 -103h-30zM37 25h14q33 1 45.5 7t15.5 23q1 6 2 37t2 79.5t1.5 110t0.5 127.5q0 169 -8 201q-4 14 -18 20t-49 6l-20 1v32q39 -1 64.5 -2t43 -1.5t31 -0.5h28.5h29.5t41 0.5t60.5 1t87 1.5h81l8 -11l-2 -22t-1.5 -26.5t-0.5 -37
v-51.5h-32q-1 27 -2 43t-2 25t-2.5 13.5t-4.5 7.5q-8 9 -45 13t-112 4q-24 0 -42.5 -0.5t-42.5 -1.5q-1 -76 -1 -113.5v-38.5v-16v-20t0.5 -30.5t0.5 -46.5l17 1l59 1l62 2q37 1 49.5 3t17.5 7q5 4 6.5 14.5t3.5 37.5q1 2 1 9t1 15h32q-2 -33 -3 -58t-1 -55q0 -27 0.5 -51
t2.5 -56h-32q-1 25 -2 40t-3 23.5t-5.5 12.5t-9.5 7q-10 4 -51 6.5t-130 2.5h-15v-278q26 -1 57.5 -1.5t90.5 -0.5q91 0 113 7q6 2 10.5 5.5t7.5 11.5t6.5 23t8.5 41q1 4 2.5 12.5t4.5 19.5h30q-3 -32 -5 -54t-3 -39t-1.5 -32.5t-0.5 -33.5q-23 -2 -38.5 -3t-41.5 -1h-28
t-49 1q-20 0 -44 0.5t-47 1t-43.5 0.5h-34.5q-36 0 -166 -6v30z" />
    <glyph glyph-name="Edieresis" unicode="&#xcb;" horiz-adv-x="572" 
d="M383 869q20 0 34.5 -14.5t14.5 -34.5t-14.5 -34.5t-35.5 -14.5q-20 0 -34 14.5t-14 34.5t14.5 34.5t34.5 14.5zM188 869q20 0 34.5 -14.5t14.5 -34.5t-14.5 -34.5t-35.5 -14.5q-20 0 -34 14.5t-14 34.5t14.5 34.5t34.5 14.5zM37 25h14q33 1 45.5 7t15.5 23q1 6 2 37
t2 79.5t1.5 110t0.5 127.5q0 169 -8 201q-4 14 -18 20t-49 6l-20 1v32q39 -1 64.5 -2t43 -1.5t31 -0.5h28.5h29.5t41 0.5t60.5 1t87 1.5h81l8 -11l-2 -22t-1.5 -26.5t-0.5 -37v-51.5h-32q-1 27 -2 43t-2 25t-2.5 13.5t-4.5 7.5q-8 9 -45 13t-112 4q-24 0 -42.5 -0.5
t-42.5 -1.5q-1 -76 -1 -113.5v-38.5v-16v-20t0.5 -30.5t0.5 -46.5l17 1l59 1l62 2q37 1 49.5 3t17.5 7q5 4 6.5 14.5t3.5 37.5q1 2 1 9t1 15h32q-2 -33 -3 -58t-1 -55q0 -27 0.5 -51t2.5 -56h-32q-1 25 -2 40t-3 23.5t-5.5 12.5t-9.5 7q-10 4 -51 6.5t-130 2.5h-15v-278
q26 -1 57.5 -1.5t90.5 -0.5q91 0 113 7q6 2 10.5 5.5t7.5 11.5t6.5 23t8.5 41q1 4 2.5 12.5t4.5 19.5h30q-3 -32 -5 -54t-3 -39t-1.5 -32.5t-0.5 -33.5q-23 -2 -38.5 -3t-41.5 -1h-28t-49 1q-20 0 -44 0.5t-47 1t-43.5 0.5h-34.5q-36 0 -166 -6v30z" />
    <glyph glyph-name="Igrave" unicode="&#xcc;" horiz-adv-x="313" 
d="M170 741l-128 76q-31 19 -42 30t-11 23q0 13 8.5 21t22.5 8q11 0 20.5 -6t26.5 -23l124 -129h-21zM25 26h16q19 1 30.5 2t18.5 4t10.5 7.5t5.5 11.5q3 8 4.5 31t2.5 65t1.5 104.5t0.5 150.5v40.5t-0.5 34t-1.5 45t-3 74.5q0 13 -2.5 21.5t-9.5 13t-20 6t-35 1.5h-19v31
q19 -1 34.5 -1.5t32 -1t34.5 -0.5h42h35.5t29.5 0.5t27.5 1t29.5 1.5v-30q-26 -1 -41 -2t-23 -3t-11.5 -5t-4.5 -9q-3 -11 -4.5 -109.5t-1.5 -269.5q0 -51 0.5 -87t2 -59.5t4 -36.5t6.5 -18q5 -6 18 -8.5t43 -4.5l13 -1v-29q-23 1 -40.5 1.5t-32.5 1t-29 0.5h-31
q-35 0 -63.5 -1t-68.5 -2v29z" />
    <glyph glyph-name="Iacute" unicode="&#xcd;" horiz-adv-x="313" 
d="M122 741l129 125q13 13 20.5 20t12 10t7.5 3.5t8 0.5q11 0 18.5 -8t7.5 -21q0 -14 -10.5 -26.5t-34.5 -26.5l-127 -77h-31zM25 26h16q19 1 30.5 2t18.5 4t10.5 7.5t5.5 11.5q3 8 4.5 31t2.5 65t1.5 104.5t0.5 150.5v40.5t-0.5 34t-1.5 45t-3 74.5q0 14 -2.5 22t-9.5 12.5
t-20 6t-35 1.5h-19v31q19 -1 34.5 -1.5t32 -1t34.5 -0.5h42q39 0 64.5 0.5t57.5 2.5v-30q-26 -1 -41 -2t-23 -3t-11.5 -5t-4.5 -9q-3 -11 -4.5 -109.5t-1.5 -269.5q0 -51 0.5 -87t2 -59.5t4 -36.5t6.5 -18q5 -6 18 -8.5t43 -4.5l13 -1v-29q-23 1 -40.5 1.5t-32.5 1t-29 0.5
h-31h-33.5t-30.5 -0.5t-31.5 -1t-36.5 -1.5v29z" />
    <glyph glyph-name="Icircumflex" unicode="&#xce;" horiz-adv-x="313" 
d="M140 903h46l109 -163h-17l-116 103l-114 -103h-29zM25 26h16q19 1 30.5 2t18.5 4t10.5 7.5t5.5 11.5q3 8 4.5 31t2.5 65t1.5 104.5t0.5 150.5v40.5t-0.5 34t-1.5 45t-3 74.5q0 14 -2.5 22t-9.5 12.5t-20 6t-35 1.5h-19v31q19 -1 34.5 -1.5t32 -1t34.5 -0.5h42h35.5
t29.5 0.5t27.5 1t30.5 1.5v-30q-26 -1 -41.5 -2t-23.5 -3t-11.5 -5t-4.5 -9q-3 -11 -4.5 -109.5t-1.5 -269.5q0 -51 0.5 -87t2 -59.5t4 -36.5t6.5 -18q5 -6 18 -8.5t43 -4.5l13 -1v-29q-23 1 -40 1.5t-32 1t-29.5 0.5h-31.5q-35 0 -63.5 -1t-68.5 -2v29z" />
    <glyph glyph-name="Idieresis" unicode="&#xcf;" horiz-adv-x="313" 
d="M231 869q20 0 34.5 -14.5t14.5 -34.5t-14.5 -34.5t-35.5 -14.5q-20 0 -34 14.5t-14 34.5t14.5 34.5t34.5 14.5zM83 869q20 0 34.5 -14.5t14.5 -34.5t-14.5 -34.5t-35.5 -14.5q-20 0 -34 14.5t-14 34.5t14.5 34.5t34.5 14.5zM25 26h16q19 1 30.5 2t18.5 4t10.5 7.5
t5.5 11.5q3 8 4.5 31t2.5 65t1.5 104.5t0.5 150.5v40.5t-0.5 34t-1.5 45t-3 74.5q0 14 -2.5 22t-9.5 12.5t-20 6t-35 1.5h-19v31q19 -1 34.5 -1.5t32 -1t34.5 -0.5h42q39 0 64.5 0.5t57.5 2.5v-30q-26 -1 -41 -2t-23 -3t-11.5 -5t-4.5 -9q-3 -11 -4.5 -109.5t-1.5 -269.5
q0 -51 0.5 -87t2 -59.5t4 -36.5t6.5 -18q5 -6 18 -8.5t43 -4.5l13 -1v-29q-23 1 -40.5 1.5t-32.5 1t-29 0.5h-31h-33.5t-30.5 -0.5t-31.5 -1t-36.5 -1.5v29z" />
    <glyph glyph-name="Eth" unicode="&#xd0;" horiz-adv-x="742" 
d="M205 199l1 -116v-36q34 -5 57 -6.5t49 -1.5q70 0 118.5 17t83.5 53q83 85 83 237q0 140 -70.5 211t-208.5 71q-25 0 -50.5 -2t-61.5 -7q0 -24 -0.5 -41.5t-0.5 -42.5v-65v-108h62h32.5t36.5 2v-6v-13v-13v-4h-31q-12 0 -20.5 0.5t-18.5 0.5h-23.5h-37.5v-130zM65 18
q8 4 10 6q17 10 24 16t10 15q2 4 2.5 11t1.5 15v73l1 80q1 25 1 42.5v27.5v25h-46h-30.5t-21.5 -0.5t-18 -0.5v35q17 -1 48 -1.5t68 -0.5v98q0 49 -0.5 78.5t-2 47t-5 25t-8.5 13.5q-8 7 -21.5 10.5t-47.5 5.5v31q37 -2 57.5 -3t33.5 -1.5t22 -0.5h23h33t27 0.5t33.5 1
t52.5 2.5q16 1 29.5 1.5t23.5 0.5q61 0 108 -10.5t87 -33.5q67 -38 103 -105.5t36 -155.5q0 -58 -15.5 -111t-44 -98t-69 -79t-90.5 -55q-68 -27 -172 -27h-13t-15 0.5t-28 1t-51 2.5q-10 1 -18 1h-18q-20 0 -39.5 -1t-60.5 -5v23z" />
    <glyph glyph-name="Ntilde" unicode="&#xd1;" horiz-adv-x="773" 
d="M217 771q26 95 102 95q19 0 37 -5t50 -19q29 -13 41.5 -17t24.5 -4q20 0 34 11t25 37h24q-12 -47 -37.5 -72t-62.5 -25q-10 0 -18.5 1t-20 4t-27 9t-39.5 16q-30 13 -53 13q-37 0 -55 -44h-25zM20 25q59 0 72 17q5 6 8.5 23.5t5.5 51.5t2.5 88t0.5 135l1 182q1 20 1 35.5
v31.5q0 7 -2.5 11.5t-10.5 13.5q-13 14 -23 18.5t-30 5.5q-3 0 -10 0.5t-15 1.5v29q26 -2 45 -2.5t45 -0.5q20 0 34 0.5t37 2.5q40 -53 81.5 -106t93.5 -117t118.5 -144t156.5 -186l-1 252q-2 64 -2.5 103t-0.5 48q0 40 -2.5 63.5t-12 35.5t-27.5 15.5t-49 4.5v31
q106 -3 112 -3q19 0 41 1t66 4v-30q-32 -2 -48 -6.5t-25 -15.5q-4 -5 -6 -10t-3.5 -16.5t-2.5 -32.5t-1.5 -58.5t-0.5 -93.5v-137v-87t0.5 -61.5t1 -55.5t1.5 -70l-4 -11q-7 2 -13 3t-13 2l-25 5l-469 571q0 -26 0.5 -47t0.5 -46t0.5 -57.5t0.5 -81.5q0 -97 1 -153t3 -85.5
t6 -39.5t10 -15q9 -7 25 -10t45 -4v-31q-26 2 -46 2.5t-49 0.5q-35 0 -62 -1t-62 -3v29z" />
    <glyph glyph-name="Ograve" unicode="&#xd2;" horiz-adv-x="780" 
d="M422 741l-127 76q-30 18 -41.5 29.5t-11.5 23.5q0 13 8.5 21t21.5 8q11 0 21 -6t26 -23l125 -129h-22zM383 643q-56 0 -106.5 -21.5t-81.5 -59.5q-26 -32 -41 -83t-15 -111q0 -123 50 -218q35 -66 85.5 -96.5t122.5 -30.5q114 0 176.5 78.5t62.5 221.5q0 73 -18 132
t-51 101t-79.5 64.5t-104.5 22.5zM402 681q76 0 138 -23t105.5 -66t67 -103t23.5 -135q0 -80 -27.5 -148t-76 -118.5t-114.5 -79t-142 -28.5q-78 0 -145.5 29.5t-111.5 83.5q-38 45 -57 107t-19 137q0 79 28 147.5t78 110.5q48 42 113.5 64t139.5 22z" />
    <glyph glyph-name="Oacute" unicode="&#xd3;" horiz-adv-x="780" 
d="M335 741l129 125q2 2 5 4.5t5 5.5q16 16 22.5 20t15.5 4q11 0 18 -8t7 -21q0 -27 -45 -53l-126 -77h-31zM383 643q-56 0 -106.5 -21.5t-81.5 -59.5q-26 -32 -41 -83t-15 -111q0 -123 50 -218q35 -66 85.5 -96.5t122.5 -30.5q114 0 176.5 78.5t62.5 221.5q0 73 -18 132
t-51 101t-79.5 64.5t-104.5 22.5zM402 681q76 0 138 -23t105.5 -66t67 -103t23.5 -135q0 -80 -27.5 -148t-76 -118.5t-114.5 -79t-142 -28.5q-78 0 -145.5 29.5t-111.5 83.5q-38 45 -57 107t-19 137q0 79 28 147.5t78 110.5q48 42 113.5 64t139.5 22z" />
    <glyph glyph-name="Ocircumflex" unicode="&#xd4;" horiz-adv-x="780" 
d="M373 903h45l110 -163h-18l-116 103l-113 -103h-30zM383 643q-56 0 -106.5 -21.5t-81.5 -59.5q-26 -32 -41 -83t-15 -111q0 -123 50 -218q35 -66 85.5 -96.5t122.5 -30.5q114 0 176.5 78.5t62.5 221.5q0 73 -18 132t-51 101t-79.5 64.5t-104.5 22.5zM402 681q76 0 138 -23
t105.5 -66t67 -103t23.5 -135q0 -80 -27.5 -148t-76 -118.5t-114.5 -79t-142 -28.5q-78 0 -145.5 29.5t-111.5 83.5q-38 45 -57 107t-19 137q0 79 28 147.5t78 110.5q48 42 113.5 64t139.5 22z" />
    <glyph glyph-name="Otilde" unicode="&#xd5;" horiz-adv-x="780" 
d="M220 771q26 95 103 95q19 0 36.5 -5t49.5 -19q29 -13 42 -17t25 -4q20 0 33.5 11t24.5 37h25q-12 -47 -38 -72t-62 -25q-11 0 -19.5 1t-19.5 4t-26.5 9t-39.5 16q-32 13 -53 13q-37 0 -56 -44h-25zM383 643q-56 0 -106.5 -21.5t-81.5 -59.5q-26 -32 -41 -83t-15 -111
q0 -123 50 -218q35 -66 85.5 -96.5t122.5 -30.5q114 0 176.5 78.5t62.5 221.5q0 73 -18 132t-51 101t-79.5 64.5t-104.5 22.5zM402 681q76 0 138 -23t105.5 -66t67 -103t23.5 -135q0 -80 -27.5 -148t-76 -118.5t-114.5 -79t-142 -28.5q-78 0 -145.5 29.5t-111.5 83.5
q-38 45 -57 107t-19 137q0 79 28 147.5t78 110.5q48 42 113.5 64t139.5 22z" />
    <glyph glyph-name="Odieresis" unicode="&#xd6;" horiz-adv-x="780" 
d="M487 869q20 0 34.5 -14.5t14.5 -34.5t-14.5 -34.5t-35.5 -14.5q-20 0 -34 14.5t-14 34.5t14.5 34.5t34.5 14.5zM292 869q20 0 34.5 -14.5t14.5 -34.5t-14.5 -34.5t-35.5 -14.5q-20 0 -34 14.5t-14 34.5t14.5 34.5t34.5 14.5zM383 643q-56 0 -106.5 -21.5t-81.5 -59.5
q-26 -32 -41 -83t-15 -111q0 -123 50 -218q35 -66 85.5 -96.5t122.5 -30.5q114 0 176.5 78.5t62.5 221.5q0 73 -18 132t-51 101t-79.5 64.5t-104.5 22.5zM402 681q76 0 138 -23t105.5 -66t67 -103t23.5 -135q0 -80 -27.5 -148t-76 -118.5t-114.5 -79t-142 -28.5
q-78 0 -145.5 29.5t-111.5 83.5q-38 45 -57 107t-19 137q0 79 28 147.5t78 110.5q48 42 113.5 64t139.5 22z" />
    <glyph glyph-name="multiply" unicode="&#xd7;" 
d="M213 332l-153 153l42 42l153 -153l153 153l42 -42l-153 -153l153 -153l-42 -42l-153 153l-153 -153l-42 42z" />
    <glyph glyph-name="Oslash" unicode="&#xd8;" horiz-adv-x="780" 
d="M391 354q40 46 79.5 92t80.5 93q4 5 7.5 9t8.5 9q-68 86 -184 86q-56 0 -106.5 -21.5t-81.5 -59.5q-27 -32 -41.5 -83.5t-14.5 -113.5q0 -129 59 -229zM414 324q-46 -54 -91.5 -106t-91.5 -105q-3 -4 -10 -11q35 -42 76 -60.5t98 -18.5q115 0 178 78.5t63 221.5
q0 59 -11 106.5t-35 92.5zM723 667q-29 -29 -45 -46t-29 -32q87 -92 87 -235q0 -80 -27.5 -148.5t-76 -118.5t-114.5 -78.5t-143 -28.5q-59 0 -108.5 16t-97.5 49q-5 -5 -10 -11l-12.5 -15t-18 -22.5t-25.5 -32.5l-12 -15l-34 31q12 15 16 19q15 15 29.5 30.5t29.5 31.5l8 9
q-48 47 -72.5 114t-24.5 148q0 83 27.5 150.5t78.5 112.5q47 42 113 64t139 22q126 0 217 -65q17 20 28 33t18 21.5t12 14.5t11 14z" />
    <glyph glyph-name="Ugrave" unicode="&#xd9;" horiz-adv-x="721" 
d="M393 741l-127 76q-32 19 -43 30t-11 23q0 13 8.5 21t22.5 8q11 0 21 -6t26 -23l125 -129h-22zM18 671q28 -2 47.5 -3t35.5 -2t29 -1h27q28 0 54.5 1t67.5 4v-30l-15 -1q-21 -1 -33.5 -2.5t-19.5 -5t-10.5 -9.5t-4.5 -15q-1 -5 -2 -28t-1.5 -58t-1 -80t-0.5 -94v-83
t0.5 -46.5t1 -25t1.5 -18.5q5 -41 22.5 -67t52.5 -44q23 -12 52.5 -18t62.5 -6q142 0 177 96q5 14 8.5 29.5t5.5 38t2.5 55.5t0.5 82v108t-0.5 73t-1 45.5t-1.5 26t-3 14t-5 9.5q-7 13 -24 17.5t-58 6.5v31q51 -3 79 -4t53 -1h23.5t21 0.5t22 1.5t25.5 2v-30
q-21 -1 -34.5 -3t-22 -5.5t-13.5 -10t-9 -16.5q-3 -11 -5 -23.5t-3.5 -30t-2 -40.5t-0.5 -56q-2 -77 -3 -210q0 -38 -3 -66t-9 -50t-16 -39t-24 -32q-33 -35 -87.5 -54t-124.5 -19q-75 0 -131.5 21.5t-85.5 59.5q-17 23 -24 55.5t-7 86.5l1 158q0 89 -0.5 139t-2 75.5
t-4.5 33t-9 12.5q-8 7 -22.5 9.5t-48.5 4.5v31z" />
    <glyph glyph-name="Uacute" unicode="&#xda;" horiz-adv-x="721" 
d="M346 741l129 125l10 10q17 16 23 20t15 4q11 0 18 -8t7 -21q0 -25 -45 -53l-127 -77h-30zM18 671q28 -2 47.5 -3t35.5 -2t29 -1h27q28 0 54.5 1t67.5 4v-30l-15 -1q-21 -1 -33.5 -2.5t-19.5 -5t-10.5 -9.5t-4.5 -15q-1 -5 -2 -28t-1.5 -58t-1 -80t-0.5 -94v-83t0.5 -46.5
t1 -25t1.5 -18.5q5 -41 22.5 -67t52.5 -44q23 -12 52.5 -18t62.5 -6q142 0 177 96q5 14 8.5 29.5t5.5 38t2.5 55.5t0.5 82v108t-0.5 73t-1 45.5t-1.5 26t-3 14t-5 9.5q-7 13 -24 17.5t-58 6.5v31q51 -3 79 -4t53 -1h23.5t21 0.5t22 1.5t25.5 2v-30q-21 -1 -34.5 -3t-22 -5.5
t-13.5 -10t-9 -16.5q-3 -11 -5 -23.5t-3.5 -30t-2 -40.5t-0.5 -56q-2 -77 -3 -210q0 -38 -3 -66t-9 -50t-16 -39t-24 -32q-33 -35 -87.5 -54t-124.5 -19q-75 0 -131.5 21.5t-85.5 59.5q-17 23 -24 55.5t-7 86.5l1 158q0 89 -0.5 139t-2 75.5t-4.5 33t-9 12.5q-8 7 -22.5 9.5
t-48.5 4.5v31z" />
    <glyph glyph-name="Ucircumflex" unicode="&#xdb;" horiz-adv-x="721" 
d="M364 903h45l109 -163h-17l-116 103l-114 -103h-29zM18 671q28 -2 47.5 -3t35.5 -2t29 -1h27q28 0 54.5 1t67.5 4v-30l-15 -1q-21 -1 -33.5 -2.5t-19.5 -5t-10.5 -9.5t-4.5 -15q-1 -5 -2 -28t-1.5 -58t-1 -80t-0.5 -94v-83t0.5 -46.5t1 -25t1.5 -18.5q5 -41 22.5 -67
t52.5 -44q23 -12 52.5 -18t62.5 -6q142 0 177 96q5 14 8.5 29.5t5.5 38t2.5 55.5t0.5 82v108t-0.5 73t-1 45.5t-1.5 26t-3 14t-5 9.5q-7 13 -24 17.5t-58 6.5v31q51 -3 79 -4t53 -1h23.5t21 0.5t22 1.5t25.5 2v-30q-21 -1 -34.5 -3t-22 -5.5t-13.5 -10t-9 -16.5
q-3 -11 -5 -23.5t-3.5 -30t-2 -40.5t-0.5 -56q-2 -77 -3 -210q0 -38 -3 -66t-9 -50t-16 -39t-24 -32q-33 -35 -87.5 -54t-124.5 -19q-75 0 -131.5 21.5t-85.5 59.5q-17 23 -24 55.5t-7 86.5l1 158q0 89 -0.5 139t-2 75.5t-4.5 33t-9 12.5q-8 7 -22.5 9.5t-48.5 4.5v31z" />
    <glyph glyph-name="Udieresis" unicode="&#xdc;" horiz-adv-x="721" 
d="M477 869q20 0 34.5 -14.5t14.5 -34.5t-14.5 -34.5t-35.5 -14.5q-20 0 -34 14.5t-14 34.5t14.5 34.5t34.5 14.5zM283 869q20 0 34.5 -14.5t14.5 -34.5t-14.5 -34.5t-35.5 -14.5q-20 0 -34 14.5t-14 34.5t14.5 34.5t34.5 14.5zM18 671q28 -2 47.5 -3t35.5 -2t29 -1h27
q28 0 54.5 1t67.5 4v-30l-15 -1q-21 -1 -33.5 -2.5t-19.5 -5t-10.5 -9.5t-4.5 -15q-1 -5 -2 -28t-1.5 -58t-1 -80t-0.5 -94v-83t0.5 -46.5t1 -25t1.5 -18.5q5 -41 22.5 -67t52.5 -44q23 -12 52.5 -18t62.5 -6q142 0 177 96q5 14 8.5 29.5t5.5 38t2.5 55.5t0.5 82v108
t-0.5 73t-1 45.5t-1.5 26t-3 14t-5 9.5q-7 13 -24 17.5t-58 6.5v31q51 -3 79 -4t53 -1h23.5t21 0.5t22 1.5t25.5 2v-30q-21 -1 -34.5 -3t-22 -5.5t-13.5 -10t-9 -16.5q-3 -11 -5 -23.5t-3.5 -30t-2 -40.5t-0.5 -56q-2 -77 -3 -210q0 -38 -3 -66t-9 -50t-16 -39t-24 -32
q-33 -35 -87.5 -54t-124.5 -19q-75 0 -131.5 21.5t-85.5 59.5q-17 23 -24 55.5t-7 86.5l1 158q0 89 -0.5 139t-2 75.5t-4.5 33t-9 12.5q-8 7 -22.5 9.5t-48.5 4.5v31z" />
    <glyph glyph-name="Yacute" unicode="&#xdd;" horiz-adv-x="623" 
d="M277 741l129 125q13 13 20.5 20t12 10t7.5 3.5t8 0.5q11 0 18.5 -8t7.5 -21q0 -14 -10.5 -26.5t-35.5 -26.5l-126 -77h-31zM603 670v-13q-14 -17 -34.5 -46t-44 -63.5t-47 -72t-43.5 -71.5q-22 -38 -35 -61.5t-19.5 -41t-8.5 -32.5t-2 -35q0 -50 0.5 -85.5t2 -58.5
t3.5 -35t5 -15q5 -5 26.5 -8t52.5 -5v-29q-30 2 -50 2h-48q-35 0 -74.5 -1t-99.5 -3v30l13 1q24 1 38 2.5t22 3.5t11 6.5t5 11.5q4 12 5.5 45.5t1.5 102.5v26q-1 15 -1 25v13q0 10 -1 13.5t-6 11.5q-2 2 -9.5 15.5t-15.5 29.5q-53 94 -89 152t-62.5 89.5t-48 42t-45.5 9.5
v27q44 8 75 14t45 10q17 -11 34.5 -31.5t42.5 -60t59.5 -102.5t85.5 -159q5 11 11 23.5t16 30.5t24.5 44.5t36.5 65.5q6 11 14.5 26t20.5 37t28 51t37 68h68z" />
    <glyph glyph-name="Thorn" unicode="&#xde;" horiz-adv-x="572" 
d="M24 26h15q21 1 34.5 2t21 3.5t11 7t5.5 12.5q4 13 5.5 83.5t1.5 204.5v78.5t-0.5 73.5t-1 60t-1.5 38q-1 15 -4 24t-11 14t-22.5 7.5t-36.5 3.5h-18v32q26 -1 45.5 -1.5t35 -1t29.5 -0.5h30q33 0 60.5 0.5t65.5 2.5v-30h-14q-22 -1 -35 -2.5t-19.5 -4t-9.5 -7.5t-4 -13
q-1 -5 -1 -12t-1 -26q22 0 36.5 0.5t41.5 1.5q20 1 38.5 1.5t29.5 0.5q100 0 153 -39t53 -114q0 -43 -17.5 -80.5t-48 -65t-71.5 -43.5t-88 -16q-17 0 -31.5 1.5t-35.5 6.5q-2 11 -2.5 15t-4.5 14l4 5q19 -5 32 -7t28 -2q63 0 100 40.5t37 109.5q0 65 -41.5 101.5
t-115.5 36.5q-25 0 -46.5 -3t-50.5 -11q0 -110 -0.5 -186t0 -126.5t1 -80t1.5 -46.5t2.5 -25t3.5 -17q2 -6 6 -9.5t12.5 -5.5t23.5 -3t41 -2v-30q-36 2 -63.5 2.5t-64.5 0.5h-36.5t-33.5 -0.5t-35 -1t-39 -1.5v29z" />
    <glyph glyph-name="germandbls" unicode="&#xdf;" horiz-adv-x="550" 
d="M294 122q-1 -5 -1 -9.5v-9.5q0 -31 19 -50.5t48 -19.5q32 0 55.5 25t23.5 60q0 14 -4.5 26t-15 23t-28.5 22t-45 25q-46 23 -64 44.5t-18 52.5q0 34 19.5 68t50.5 53q28 18 73 18h6q4 23 5 37t1 30q0 67 -32 107.5t-85 40.5q-38 0 -66 -21.5t-42 -60.5q-14 -41 -14 -129
v-324q0 -37 1 -57t7.5 -29t20 -11t38.5 -3q10 28 14.5 47.5t6.5 44.5h26zM42 389l60 32v27q0 32 2 54t7.5 39t16 32t27.5 33q48 51 88.5 74t83.5 23q67 0 106.5 -39.5t39.5 -107.5q0 -27 -3 -54.5t-11 -58.5q-8 -9 -13 -15.5t-9 -12t-7.5 -12.5t-9.5 -18l-7 -1
q-18 26 -48 26q-22 0 -37 -15t-15 -37q0 -20 14 -34.5t49 -32.5q25 -13 40.5 -21t25 -14t15.5 -10.5t12 -10.5q31 -32 31 -81q0 -32 -14.5 -57.5t-52.5 -59.5q-15 -14 -27.5 -22.5t-24 -14t-23.5 -7.5t-27 -2q-26 0 -45 6t-38 20v-20q-13 1 -23.5 1.5t-22 1t-24.5 0.5h-31
h-35t-27.5 -0.5t-24.5 -1t-27 -1.5v31q36 1 49 7t15 25q2 36 3 113.5t2 197.5h-60v18z" />
    <glyph glyph-name="agrave" unicode="&#xe0;" horiz-adv-x="468" 
d="M267 521l-127 76q-30 18 -41.5 29.5t-11.5 23.5q0 13 8.5 21t22.5 8q11 0 20.5 -6.5t27.5 -24.5l123 -127h-22zM309 251q-10 -2 -18 -4.5t-11 -3.5q-36 -10 -57 -15.5t-33.5 -10t-19.5 -8.5t-15 -10q-17 -12 -26 -32.5t-9 -44.5q0 -35 19 -56.5t51 -21.5q34 0 65 20.5
t55 59.5zM72 324v66l10 5l51 30q29 17 50.5 23t50.5 6q38 0 71 -13.5t53 -36.5q16 -19 22 -45t7 -74l4 -206q0 -18 1 -28t6.5 -15t18 -6.5t35.5 -2.5v-30q-33 2 -46 3t-25 1q-11 0 -26 -1t-46 -4l2 81q-23 -18 -38.5 -30t-25.5 -20.5t-16.5 -13.5t-11.5 -8q-31 -20 -67 -20
q-54 0 -84.5 31.5t-30.5 87.5q0 46 21 79.5t59 48.5q12 4 20.5 7t21.5 6.5t33 7.5t55 12q14 3 22 4.5t14 2.5t11 2t14 3q-1 30 -5 48t-12 32q-28 46 -92 46q-21 0 -37.5 -4.5t-37.5 -15.5l-26 -65z" />
    <glyph glyph-name="aacute" unicode="&#xe1;" horiz-adv-x="468" 
d="M180 521l129 125q3 2 5.5 5t4.5 5q14 14 22.5 19t16.5 5q10 0 17 -8.5t7 -20.5q0 -14 -10.5 -26.5t-33.5 -26.5l-127 -77h-31zM309 251q-10 -2 -18 -4.5t-11 -3.5q-36 -10 -57 -15.5t-33.5 -10t-19.5 -8.5t-15 -10q-17 -12 -26 -32.5t-9 -44.5q0 -35 19 -56.5t51 -21.5
q34 0 65 20.5t55 59.5zM72 324v66l10 5l51 30q29 17 50.5 23t50.5 6q38 0 71 -13.5t53 -36.5q16 -19 22 -45t7 -74l4 -206q0 -18 1 -28t6.5 -15t18 -6.5t35.5 -2.5v-30q-33 2 -46 3t-25 1q-11 0 -26 -1t-46 -4l2 81q-23 -18 -38.5 -30t-25.5 -20.5t-16.5 -13.5t-11.5 -8
q-31 -20 -67 -20q-54 0 -84.5 31.5t-30.5 87.5q0 46 21 79.5t59 48.5q12 4 20.5 7t21.5 6.5t33 7.5t55 12q14 3 22 4.5t14 2.5t11 2t14 3q-1 30 -5 48t-12 32q-28 46 -92 46q-21 0 -37.5 -4.5t-37.5 -15.5l-26 -65z" />
    <glyph glyph-name="acircumflex" unicode="&#xe2;" horiz-adv-x="468" 
d="M218 683h45l110 -162h-18l-116 102l-113 -102h-30zM309 251q-10 -2 -18 -4.5t-11 -3.5q-36 -10 -57 -15.5t-33.5 -10t-19.5 -8.5t-15 -10q-17 -12 -26 -32.5t-9 -44.5q0 -35 19 -56.5t51 -21.5q34 0 65 20.5t55 59.5zM72 324v66l10 5l51 30q29 17 50.5 23t50.5 6
q38 0 71 -13.5t53 -36.5q16 -19 22 -45t7 -74l4 -206q0 -18 1 -28t6.5 -15t18 -6.5t35.5 -2.5v-30q-33 2 -46 3t-25 1q-11 0 -26 -1t-46 -4l2 81q-23 -18 -38.5 -30t-25.5 -20.5t-16.5 -13.5t-11.5 -8q-31 -20 -67 -20q-54 0 -84.5 31.5t-30.5 87.5q0 46 21 79.5t59 48.5
q12 4 20.5 7t21.5 6.5t33 7.5t55 12q14 3 22 4.5t14 2.5t11 2t14 3q-1 30 -5 48t-12 32q-28 46 -92 46q-21 0 -37.5 -4.5t-37.5 -15.5l-26 -65z" />
    <glyph glyph-name="atilde" unicode="&#xe3;" horiz-adv-x="468" 
d="M65 558q26 94 103 94q19 0 36.5 -5t49.5 -19q29 -13 42 -17t25 -4q38 0 58 49h25q-12 -48 -38 -73t-62 -25q-11 0 -19.5 1t-19.5 4t-26.5 9t-39.5 16q-32 13 -53 13q-37 0 -56 -43h-25zM309 251q-10 -2 -18 -4.5t-11 -3.5q-36 -10 -57 -15.5t-33.5 -10t-19.5 -8.5
t-15 -10q-17 -12 -26 -32.5t-9 -44.5q0 -35 19 -56.5t51 -21.5q34 0 65 20.5t55 59.5zM72 324v66l10 5l51 30q29 17 50.5 23t50.5 6q38 0 71 -13.5t53 -36.5q16 -19 22 -45t7 -74l4 -206q0 -18 1 -28t6.5 -15t18 -6.5t35.5 -2.5v-30q-33 2 -46 3t-25 1q-11 0 -26 -1t-46 -4
l2 81q-23 -18 -38.5 -30t-25.5 -20.5t-16.5 -13.5t-11.5 -8q-31 -20 -67 -20q-54 0 -84.5 31.5t-30.5 87.5q0 46 21 79.5t59 48.5q12 4 20.5 7t21.5 6.5t33 7.5t55 12q14 3 22 4.5t14 2.5t11 2t14 3q-1 30 -5 48t-12 32q-28 46 -92 46q-21 0 -37.5 -4.5t-37.5 -15.5l-26 -65
z" />
    <glyph glyph-name="adieresis" unicode="&#xe4;" horiz-adv-x="468" 
d="M332 649q20 0 34.5 -14.5t14.5 -34.5t-14.5 -34.5t-35.5 -14.5q-20 0 -34 14.5t-14 34.5t14.5 34.5t34.5 14.5zM137 649q20 0 34.5 -14.5t14.5 -34.5t-14.5 -34.5t-35.5 -14.5q-20 0 -34 14.5t-14 34.5t14.5 34.5t34.5 14.5zM309 251q-10 -2 -18 -4.5t-11 -3.5
q-36 -10 -57 -15.5t-33.5 -10t-19.5 -8.5t-15 -10q-17 -12 -26 -32.5t-9 -44.5q0 -35 19 -56.5t51 -21.5q34 0 65 20.5t55 59.5zM72 324v66l10 5l51 30q29 17 50.5 23t50.5 6q38 0 71 -13.5t53 -36.5q16 -19 22 -45t7 -74l4 -206q0 -18 1 -28t6.5 -15t18 -6.5t35.5 -2.5v-30
q-33 2 -46 3t-25 1q-11 0 -26 -1t-46 -4l2 81q-23 -18 -38.5 -30t-25.5 -20.5t-16.5 -13.5t-11.5 -8q-31 -20 -67 -20q-54 0 -84.5 31.5t-30.5 87.5q0 46 21 79.5t59 48.5q12 4 20.5 7t21.5 6.5t33 7.5t55 12q14 3 22 4.5t14 2.5t11 2t14 3q-1 30 -5 48t-12 32
q-28 46 -92 46q-21 0 -37.5 -4.5t-37.5 -15.5l-26 -65z" />
    <glyph glyph-name="aring" unicode="&#xe5;" horiz-adv-x="468" 
d="M234 686q-29 0 -46 -20t-17 -55t16.5 -55.5t45.5 -20.5q31 0 48 20t17 56q0 35 -17 55t-47 20zM235 705q46 0 73 -25t27 -69q0 -45 -27 -70t-75 -25q-45 0 -72 25.5t-27 69.5t27 69t74 25zM309 251q-10 -2 -18 -4.5t-11 -3.5q-36 -10 -57 -15.5t-33.5 -10t-19.5 -8.5
t-15 -10q-17 -12 -26 -32.5t-9 -44.5q0 -35 19 -56.5t51 -21.5q34 0 65 20.5t55 59.5zM72 324v66l10 5l51 30q29 17 50.5 23t50.5 6q38 0 71 -13.5t53 -36.5q16 -19 22 -45t7 -74l4 -206q0 -18 1 -28t6.5 -15t18 -6.5t35.5 -2.5v-30q-33 2 -46 3t-25 1q-11 0 -26 -1t-46 -4
l2 81q-23 -18 -38.5 -30t-25.5 -20.5t-16.5 -13.5t-11.5 -8q-31 -20 -67 -20q-54 0 -84.5 31.5t-30.5 87.5q0 46 21 79.5t59 48.5q12 4 20.5 7t21.5 6.5t33 7.5t55 12q14 3 22 4.5t14 2.5t11 2t14 3q-1 30 -5 48t-12 32q-28 46 -92 46q-21 0 -37.5 -4.5t-37.5 -15.5l-26 -65
z" />
    <glyph glyph-name="ae" unicode="&#xe6;" horiz-adv-x="727" 
d="M604 261q1 7 1 12.5v8.5q0 67 -28 104t-79 37q-57 0 -85.5 -41t-28.5 -121h220zM310 227q-48 -5 -76.5 -9t-45.5 -9q-68 -20 -68 -84q0 -35 21 -56t56 -21q26 0 51.5 12.5t44.5 35.5q6 7 9.5 11t4.5 5q3 3 3 4v111zM70 316q0 12 -0.5 20t-0.5 15v15v20q54 27 90 51
q14 10 30 13.5t45 3.5q46 0 75.5 -15t57.5 -53q19 19 36 32t34.5 21t36.5 11.5t42 3.5q39 0 71.5 -12t55.5 -33.5t35.5 -52.5t12.5 -68q0 -19 -3 -46l-18 -4q-17 -3 -26.5 -5t-17.5 -3t-17 -1.5t-23 -0.5l-202 -3q2 -46 9 -72.5t22 -49.5q23 -32 55.5 -49.5t72.5 -17.5
q33 0 63 10.5t63 33.5l10 -9l-21 -36q-38 -26 -76 -38t-81 -12q-56 0 -97 24t-75 76q-18 -15 -30 -24.5t-22.5 -17.5t-22 -17.5t-27.5 -22.5q-11 -10 -27 -14t-42 -4q-55 0 -88 32t-33 86q0 51 27.5 86t76.5 49q15 4 25 6t26 4t42.5 4.5t73.5 5.5q-2 75 -27 108.5t-80 33.5
q-20 0 -36.5 -4.5t-41.5 -15.5l-27 -68z" />
    <glyph glyph-name="ccedilla" unicode="&#xe7;" horiz-adv-x="435" 
d="M357 302q-1 13 -2 22.5t-1 14.5q-2 18 -6.5 26.5t-16.5 16.5q-37 23 -85 23q-60 0 -91.5 -40t-31.5 -117q0 -47 12 -86.5t33 -68t50.5 -44t64.5 -15.5q57 0 105 27l11 -11l-20 -32q-49 -27 -108 -33l-18 -42q10 2 15.5 2.5t11.5 0.5q31 0 50.5 -17t19.5 -44
q0 -35 -30.5 -57.5t-79.5 -22.5q-21 0 -40.5 3t-49.5 11l15 25q18 -6 33.5 -8.5t31.5 -2.5q28 0 44 12.5t16 34.5q0 17 -12 27t-33 10q-12 0 -26 -5l-8 6l30 66q-97 4 -150.5 63t-53.5 160q0 48 14 91.5t37 66.5q12 13 41.5 31.5t61.5 35.5q23 12 44 17t49 5q35 0 60.5 -6
t54.5 -21q-7 -26 -10 -53.5t-5 -71.5h-27z" />
    <glyph glyph-name="egrave" unicode="&#xe8;" horiz-adv-x="469" 
d="M274 521l-127 76q-32 19 -43 30t-11 23q0 13 8.5 21t22.5 8q11 0 21.5 -6.5t27.5 -24.5l123 -127h-22zM128 262q33 -2 66.5 -3.5t73.5 -1.5q25 0 40.5 0.5t38.5 2.5q1 6 1 10.5v6.5q0 71 -27.5 108.5t-80.5 37.5q-34 0 -58.5 -17t-38.5 -49q-7 -17 -10 -38.5t-5 -56.5z
M421 71l-16 -41q-35 -22 -77 -33.5t-85 -11.5q-46 0 -84 16.5t-65 46.5t-42 71.5t-15 92.5q0 126 75 186q69 56 147 56q80 0 127 -50t47 -135q0 -4 -0.5 -11.5t-1.5 -17.5q-27 -8 -64 -11.5t-106 -3.5h-134q1 -37 7 -63.5t18 -49.5q20 -36 55.5 -56.5t79.5 -20.5
q33 0 63 10.5t62 32.5z" />
    <glyph glyph-name="eacute" unicode="&#xe9;" horiz-adv-x="469" 
d="M187 521l129 125l5 5l5 5q14 14 22.5 19t16.5 5q10 0 17 -8.5t7 -20.5q0 -14 -10.5 -26.5t-33.5 -26.5l-127 -77h-31zM128 262q33 -2 66.5 -3.5t73.5 -1.5q25 0 40.5 0.5t38.5 2.5q1 6 1 10.5v6.5q0 71 -27.5 108.5t-80.5 37.5q-34 0 -58.5 -17t-38.5 -49
q-7 -17 -10 -38.5t-5 -56.5zM421 71l-16 -41q-35 -22 -77 -33.5t-85 -11.5q-46 0 -84 16.5t-65 46.5t-42 71.5t-15 92.5q0 126 75 186q69 56 147 56q80 0 127 -50t47 -135q0 -4 -0.5 -11.5t-1.5 -17.5q-27 -8 -64 -11.5t-106 -3.5h-134q1 -37 7 -63.5t18 -49.5
q20 -36 55.5 -56.5t79.5 -20.5q33 0 63 10.5t62 32.5z" />
    <glyph glyph-name="ecircumflex" unicode="&#xea;" horiz-adv-x="469" 
d="M225 683h45l110 -162h-18l-116 102l-113 -102h-30zM128 262q33 -2 66.5 -3.5t73.5 -1.5q25 0 40.5 0.5t38.5 2.5q1 6 1 10.5v6.5q0 71 -27.5 108.5t-80.5 37.5q-34 0 -58.5 -17t-38.5 -49q-7 -17 -10 -38.5t-5 -56.5zM421 71l-16 -41q-35 -22 -77 -33.5t-85 -11.5
q-46 0 -84 16.5t-65 46.5t-42 71.5t-15 92.5q0 126 75 186q69 56 147 56q80 0 127 -50t47 -135q0 -4 -0.5 -11.5t-1.5 -17.5q-27 -8 -64 -11.5t-106 -3.5h-134q1 -37 7 -63.5t18 -49.5q20 -36 55.5 -56.5t79.5 -20.5q33 0 63 10.5t62 32.5z" />
    <glyph glyph-name="edieresis" unicode="&#xeb;" horiz-adv-x="469" 
d="M339 649q20 0 34.5 -14.5t14.5 -34.5t-14.5 -34.5t-35.5 -14.5q-20 0 -34 14.5t-14 34.5t14.5 34.5t34.5 14.5zM144 649q20 0 34.5 -14.5t14.5 -34.5t-14.5 -34.5t-35.5 -14.5q-20 0 -34 14.5t-14 34.5t14.5 34.5t34.5 14.5zM128 262q33 -2 66.5 -3.5t73.5 -1.5
q25 0 40.5 0.5t38.5 2.5q1 6 1 10.5v6.5q0 71 -27.5 108.5t-80.5 37.5q-34 0 -58.5 -17t-38.5 -49q-7 -17 -10 -38.5t-5 -56.5zM421 71l-16 -41q-35 -22 -77 -33.5t-85 -11.5q-46 0 -84 16.5t-65 46.5t-42 71.5t-15 92.5q0 126 75 186q69 56 147 56q80 0 127 -50t47 -135
q0 -4 -0.5 -11.5t-1.5 -17.5q-27 -8 -64 -11.5t-106 -3.5h-134q1 -37 7 -63.5t18 -49.5q20 -36 55.5 -56.5t79.5 -20.5q33 0 63 10.5t62 32.5z" />
    <glyph glyph-name="igrave" unicode="&#xec;" horiz-adv-x="268" 
d="M150 521l-128 76q-31 19 -42 30t-11 23q0 13 8.5 21t22.5 8q11 0 21 -6.5t28 -24.5l122 -127h-21zM24 415q54 9 87.5 18t65.5 23l8 -8q-1 -31 -2 -58.5t-1.5 -56t-0.5 -60v-70.5v-70t1 -45t2 -26t3 -15q3 -11 13.5 -14.5t37.5 -5.5l16 -1v-29q-23 1 -39.5 2t-29 1.5
t-23.5 0.5h-24h-22.5t-23 -0.5t-29 -1t-39.5 -1.5v27l15 1q34 1 44 5t13 16q2 12 3.5 66t1.5 155q0 100 -8 111q-2 2 -4 3.5t-7 2t-15.5 1t-28.5 1.5h-4q-7 0 -10 1v27z" />
    <glyph glyph-name="iacute" unicode="&#xed;" horiz-adv-x="268" 
d="M103 521l129 125q4 3 11 10q14 14 22.5 19t16.5 5q10 0 17 -8.5t7 -20.5q0 -14 -10.5 -26t-34.5 -27l-127 -77h-31zM25 415q54 9 87.5 18t65.5 23l8 -8q-1 -30 -2 -57t-1.5 -55.5t-0.5 -60.5v-72v-70.5t1 -44.5t2 -26t3 -15q3 -11 13.5 -14.5t37.5 -5.5l16 -1v-29
q-23 1 -39.5 2t-29 1.5t-23.5 0.5h-24h-22.5t-23 -0.5t-29 -1t-39.5 -1.5v27l15 1q34 1 44 5t13 16q2 13 3.5 66.5t1.5 154.5q0 100 -8 111q-2 2 -4 3.5t-7 2t-15.5 1t-28.5 1.5h-5.5t-8.5 1v27z" />
    <glyph glyph-name="icircumflex" unicode="&#xee;" horiz-adv-x="268" 
d="M120 683h46l109 -162h-17l-116 102l-114 -102h-29zM25 415q27 4 48 8.5t39 9.5t33.5 10.5t31.5 12.5l9 -8q-2 -30 -2.5 -57.5t-1.5 -56t-1 -60v-71.5v-70t1 -45t2 -26t3 -15q3 -11 13.5 -14.5t38.5 -5.5l15 -1v-29q-23 1 -39 2t-29 1.5t-24 0.5h-24h-22.5t-23 -0.5
t-28.5 -1t-39 -1.5v27l14 1q34 1 44 5t13 16q2 12 3.5 66t1.5 155q0 100 -8 111q-2 2 -4 3.5t-7 2t-15.5 1t-28.5 1.5h-4q-6 0 -9 1v27z" />
    <glyph glyph-name="idieresis" unicode="&#xef;" horiz-adv-x="268" 
d="M212 649q20 0 34.5 -14.5t14.5 -34.5t-14.5 -34.5t-35.5 -14.5q-20 0 -34 14.5t-14 34.5t14.5 34.5t34.5 14.5zM64 649q20 0 34.5 -14.5t14.5 -34.5t-14.5 -34.5t-35.5 -14.5q-20 0 -34 14.5t-14 34.5t14.5 34.5t34.5 14.5zM25 415q54 9 87.5 18t65.5 23l8 -8
q-1 -31 -2 -59t-1.5 -56.5t-0.5 -59.5v-70v-70t1 -45t2 -26t3 -15q3 -11 13.5 -14.5t37.5 -5.5l16 -1v-29q-23 1 -39.5 2t-29 1.5t-23.5 0.5h-24h-22.5t-23 -0.5t-29 -1t-39.5 -1.5v27l15 1q34 1 44 5t13 16q2 13 3.5 67t1.5 154q0 52 -1.5 78.5t-6.5 32.5q-2 2 -4 3.5t-7 2
t-15.5 1t-28.5 1.5h-5.5t-8.5 1v27z" />
    <glyph glyph-name="eth" unicode="&#xf0;" horiz-adv-x="518" 
d="M260 423q-65 0 -101.5 -52.5t-36.5 -145.5q0 -99 34 -153.5t97 -54.5t98 56t35 155q0 195 -126 195zM98 709q13 2 21 3t13 2t9.5 2t11.5 2q16 -14 26 -22t19 -16.5t20 -18.5t30 -28l17 -16q10 1 24.5 3.5t29.5 5.5l30 6t27 6l17 -29l-102 -20q22 -23 39 -40t30 -30.5
t23 -25.5l20 -24q37 -46 56 -103t19 -120q0 -58 -17 -106t-48 -82.5t-74 -53.5t-95 -19q-101 0 -157.5 58t-56.5 161q0 57 16.5 103t47 79t73 50.5t95.5 17.5q15 0 25.5 -1t27.5 -5q-27 40 -53 75t-41 52q-8 -2 -22.5 -4.5t-36.5 -7.5q-17 -4 -28 -5.5t-31 -6.5l-18 30l9 2
l51 10q9 2 14.5 3t11 2.5t11.5 2.5t16 3q-26 28 -49.5 50.5t-52.5 46.5z" />
    <glyph glyph-name="ntilde" unicode="&#xf1;" horiz-adv-x="576" 
d="M118 558q26 94 103 94q19 0 36.5 -5t49.5 -19q29 -13 42 -17t25 -4q38 0 58 49h25q-12 -48 -38 -73t-62 -25q-11 0 -19.5 1t-19.5 4t-26.5 9t-39.5 16q-32 13 -53 13q-37 0 -56 -43h-25zM23 415q47 5 82 14t71 25l10 -7q-2 -19 -2.5 -30t-0.5 -22v-28l78 67q4 4 13 7.5
t21 6.5t24.5 4.5t23.5 1.5q35 0 65.5 -12t50.5 -33q20 -22 28 -54t8 -88v-27.5t-1 -39.5q-1 -26 -1 -47v-32q0 -25 0.5 -40.5t2 -25t3.5 -13.5t6 -7q3 -2 5.5 -3.5t7 -2.5t12.5 -2t22 -2h4.5t5.5 -1v-27q-32 2 -49 3t-34 1q-20 0 -35.5 -1t-39.5 -3q4 55 6 115t2 120
q0 48 -3 71t-13 40q-12 23 -38 35.5t-58 12.5q-59 0 -96 -40q-14 -14 -19 -30t-5 -43l1 -193q0 -22 1.5 -34t9 -18t23.5 -7t45 -2v-27q-38 1 -60 1.5t-34.5 1t-18 0.5h-10.5h-22.5t-23 -0.5t-28.5 -1.5t-40 -2v27l11 1l33 3q16 1 22 6t8 18q1 8 2 21t1.5 34t0.5 51v72
q0 140 -9 152q-3 4 -11 5.5t-27 1.5h-6.5t-24.5 -1v28z" />
    <glyph glyph-name="ograve" unicode="&#xf2;" horiz-adv-x="518" 
d="M292 521l-127 76q-30 18 -41.5 29.5t-11.5 23.5q0 13 8.5 21t22.5 8q11 0 20.5 -6.5t27.5 -24.5l123 -127h-22zM252 424q-60 0 -93.5 -45t-33.5 -126q0 -38 8 -76t22 -71q18 -42 48.5 -64.5t69.5 -22.5q57 0 89 46.5t32 130.5q0 45 -9.5 88.5t-26.5 75.5
q-16 31 -43.5 47.5t-62.5 16.5zM271 454q102 0 156.5 -57.5t54.5 -163.5q0 -56 -17 -101.5t-47.5 -78t-73.5 -50.5t-95 -18q-99 0 -155.5 63t-56.5 174q0 51 17 93.5t48 73.5t74 48t95 17z" />
    <glyph glyph-name="oacute" unicode="&#xf3;" horiz-adv-x="518" 
d="M205 521l129 125q6 4 10 10q14 14 22.5 19t16.5 5q10 0 17 -8.5t7 -20.5q0 -14 -10.5 -26.5t-33.5 -26.5l-127 -77h-31zM252 424q-60 0 -93.5 -45t-33.5 -126q0 -38 8 -76t22 -71q18 -42 48.5 -64.5t69.5 -22.5q57 0 89 46.5t32 130.5q0 45 -9.5 88.5t-26.5 75.5
q-16 31 -43.5 47.5t-62.5 16.5zM271 454q102 0 156.5 -57.5t54.5 -163.5q0 -56 -17 -101.5t-47.5 -78t-73.5 -50.5t-95 -18q-99 0 -155.5 63t-56.5 174q0 51 17 93.5t48 73.5t74 48t95 17z" />
    <glyph glyph-name="ocircumflex" unicode="&#xf4;" horiz-adv-x="518" 
d="M243 683h45l110 -162h-18l-116 102l-113 -102h-30zM252 424q-60 0 -93.5 -45t-33.5 -126q0 -38 8 -76t22 -71q18 -42 48.5 -64.5t69.5 -22.5q57 0 89 46.5t32 130.5q0 45 -9.5 88.5t-26.5 75.5q-16 31 -43.5 47.5t-62.5 16.5zM271 454q102 0 156.5 -57.5t54.5 -163.5
q0 -56 -17 -101.5t-47.5 -78t-73.5 -50.5t-95 -18q-99 0 -155.5 63t-56.5 174q0 51 17 93.5t48 73.5t74 48t95 17z" />
    <glyph glyph-name="otilde" unicode="&#xf5;" horiz-adv-x="518" 
d="M90 558q26 94 103 94q19 0 36.5 -5t49.5 -19q29 -13 42 -17t25 -4q38 0 58 49h25q-12 -48 -38 -73t-62 -25q-11 0 -19.5 1t-19.5 4t-26.5 9t-39.5 16q-32 13 -53 13q-37 0 -56 -43h-25zM252 424q-60 0 -93.5 -45t-33.5 -126q0 -38 8 -76t22 -71q18 -42 48.5 -64.5
t69.5 -22.5q57 0 89 46.5t32 130.5q0 45 -9.5 88.5t-26.5 75.5q-16 31 -43.5 47.5t-62.5 16.5zM271 454q102 0 156.5 -57.5t54.5 -163.5q0 -56 -17 -101.5t-47.5 -78t-73.5 -50.5t-95 -18q-99 0 -155.5 63t-56.5 174q0 51 17 93.5t48 73.5t74 48t95 17z" />
    <glyph glyph-name="odieresis" unicode="&#xf6;" horiz-adv-x="518" 
d="M357 649q20 0 34.5 -14.5t14.5 -34.5t-14.5 -34.5t-35.5 -14.5q-20 0 -34 14.5t-14 34.5t14.5 34.5t34.5 14.5zM162 649q20 0 34.5 -14.5t14.5 -34.5t-14.5 -34.5t-35.5 -14.5q-20 0 -34 14.5t-14 34.5t14.5 34.5t34.5 14.5zM252 424q-60 0 -93.5 -45t-33.5 -126
q0 -38 8 -76t22 -71q18 -42 48.5 -64.5t69.5 -22.5q57 0 89 46.5t32 130.5q0 45 -9.5 88.5t-26.5 75.5q-16 31 -43.5 47.5t-62.5 16.5zM271 454q102 0 156.5 -57.5t54.5 -163.5q0 -56 -17 -101.5t-47.5 -78t-73.5 -50.5t-95 -18q-99 0 -155.5 63t-56.5 174q0 51 17 93.5
t48 73.5t74 48t95 17z" />
    <glyph glyph-name="divide" unicode="&#xf7;" 
d="M471 361v-59h-433v59h433zM255 194q18 0 31.5 -13.5t13.5 -31.5q0 -19 -13.5 -32.5t-32.5 -13.5q-18 0 -31.5 13.5t-13.5 31.5q0 20 13.5 33t32.5 13zM255 562q18 0 31.5 -13.5t13.5 -32.5q0 -18 -13.5 -31.5t-31.5 -13.5q-19 0 -32.5 13.5t-13.5 31.5q0 20 13.5 33
t32.5 13z" />
    <glyph glyph-name="oslash" unicode="&#xf8;" horiz-adv-x="520" 
d="M167 84q23 -35 47.5 -50.5t58.5 -15.5q58 0 90 46.5t32 131.5q0 69 -23 133l-61 -72q-1 -1 -34 -41l-99 -120zM355 366q-36 57 -103 57q-61 0 -94 -45t-33 -126q0 -33 6.5 -68t18.5 -64q26 29 76.5 90.5t128.5 155.5zM483 453q-19 -20 -29 -31t-24 -27q53 -59 53 -162
q0 -56 -17 -101.5t-47.5 -78t-74 -50.5t-95.5 -18q-79 0 -133 41q-11 -14 -23 -27.5t-32 -39.5l-34 30l13 13l13 13t15.5 16t20.5 22q-52 69 -52 166q0 52 17 95.5t48 74.5t74 48t95 17q74 0 129 -34q9 11 15.5 18.5t11.5 14t10.5 13t13.5 15.5z" />
    <glyph glyph-name="ugrave" unicode="&#xf9;" horiz-adv-x="550" 
d="M288 521l-127 76q-32 19 -43 30t-11 23q0 13 8.5 21t22.5 8q11 0 21 -6.5t28 -24.5l122 -127h-21zM537 -2q-28 1 -43.5 1.5t-23.5 0.5h-11h-7q-19 0 -34 -0.5t-38 -2.5q1 16 1.5 27t1 20.5t1 19.5t1.5 26l-75 -72q-12 -12 -38 -19.5t-55 -7.5q-33 0 -59.5 10t-43.5 29
q-16 17 -22.5 42.5t-6.5 67.5v27.5t1 35.5q1 27 1.5 46.5t0.5 33.5v25v20q0 17 -0.5 27.5t-1 16t-2 8t-4.5 4.5q-5 3 -15 4t-34 2h-18v28q50 4 87.5 13t67.5 24l9 -8q-2 -22 -3 -54t-2.5 -68t-2 -72.5t-0.5 -67.5q0 -38 4.5 -64t15 -42t27.5 -22.5t42 -6.5q65 0 109 63
q6 9 9.5 17t5 23t2 41t0.5 71q0 60 -1.5 86.5t-6.5 32.5q-3 4 -11 5.5t-27 1.5h-12t-24 -1v28q31 4 54 7.5t41 8t32.5 10t29.5 12.5l9 -7q-1 -30 -2.5 -73.5t-2.5 -90t-1.5 -92t-0.5 -78.5q0 -32 1 -49t7.5 -25.5t19.5 -11t37 -3.5l11 -1v-27z" />
    <glyph glyph-name="uacute" unicode="&#xfa;" horiz-adv-x="550" 
d="M240 521l129 125q23 23 31.5 28.5t18.5 5.5t17 -8.5t7 -20.5q0 -14 -10.5 -26.5t-34.5 -26.5l-127 -77h-31zM537 -2q-28 1 -43.5 1.5t-23.5 0.5h-11h-7q-19 0 -34 -0.5t-38 -2.5q1 16 1.5 27t1 20.5t1 19.5t1.5 26l-75 -72q-12 -12 -38 -19.5t-55 -7.5q-33 0 -59.5 10
t-43.5 29q-16 17 -22.5 42.5t-6.5 67.5v27.5t1 35.5q1 27 1.5 46.5t0.5 33.5v25v20q0 17 -0.5 27.5t-1 16t-2 8t-4.5 4.5q-5 3 -15 4t-34 2h-18v28q50 4 87.5 13t67.5 24l9 -8q-2 -22 -3 -54t-2.5 -68t-2 -72.5t-0.5 -67.5q0 -38 4.5 -64t15 -42t27.5 -22.5t42 -6.5
q65 0 109 63q6 9 9.5 17t5 23t2 41t0.5 71q0 60 -1.5 86.5t-6.5 32.5q-3 4 -11 5.5t-27 1.5h-12t-24 -1v28q31 4 54 7.5t41 8t32.5 10t29.5 12.5l9 -7q-1 -30 -2.5 -73.5t-2.5 -90t-1.5 -92t-0.5 -78.5q0 -32 1 -49t7.5 -25.5t19.5 -11t37 -3.5l11 -1v-27z" />
    <glyph glyph-name="ucircumflex" unicode="&#xfb;" horiz-adv-x="550" 
d="M258 683h46l109 -162h-17l-116 102l-114 -102h-29zM537 -2q-28 1 -43.5 1.5t-23.5 0.5h-11h-7q-19 0 -34 -0.5t-38 -2.5q1 16 1.5 27t1 20.5t1 19.5t1.5 26l-75 -72q-12 -12 -38 -19.5t-55 -7.5q-33 0 -59.5 10t-43.5 29q-16 17 -22.5 42.5t-6.5 67.5v27.5t1 35.5
q1 27 1.5 46.5t0.5 33.5v25v20q0 17 -0.5 27.5t-1 16t-2 8t-4.5 4.5q-5 3 -15 4t-34 2h-18v28q50 4 87.5 13t67.5 24l9 -8q-2 -22 -3 -54t-2.5 -68t-2 -72.5t-0.5 -67.5q0 -38 4.5 -64t15 -42t27.5 -22.5t42 -6.5q65 0 109 63q6 9 9.5 17t5 23t2 41t0.5 71q0 60 -1.5 86.5
t-6.5 32.5q-3 4 -11 5.5t-27 1.5h-12t-24 -1v28q31 4 54 7.5t41 8t32.5 10t29.5 12.5l9 -7q-1 -30 -2.5 -73.5t-2.5 -90t-1.5 -92t-0.5 -78.5q0 -32 1 -49t7.5 -25.5t19.5 -11t37 -3.5l11 -1v-27z" />
    <glyph glyph-name="udieresis" unicode="&#xfc;" horiz-adv-x="550" 
d="M372 649q20 0 34.5 -14.5t14.5 -34.5t-14.5 -34.5t-35.5 -14.5q-20 0 -34 14.5t-14 34.5t14.5 34.5t34.5 14.5zM178 649q20 0 34.5 -14.5t14.5 -34.5t-14.5 -34.5t-35.5 -14.5q-20 0 -34 14.5t-14 34.5t14.5 34.5t34.5 14.5zM537 -2q-28 1 -43.5 1.5t-23.5 0.5h-11h-7
q-19 0 -34 -0.5t-38 -2.5q1 16 1.5 27t1 20.5t1 19.5t1.5 26l-75 -72q-12 -12 -38 -19.5t-55 -7.5q-33 0 -59.5 10t-43.5 29q-16 17 -22.5 42.5t-6.5 67.5v27.5t1 35.5q1 27 1.5 46.5t0.5 33.5v25v20q0 17 -0.5 27.5t-1 16t-2 8t-4.5 4.5q-5 3 -15 4t-34 2h-18v28
q50 4 87.5 13t67.5 24l9 -8q-2 -22 -3 -54t-2.5 -68t-2 -72.5t-0.5 -67.5q0 -38 4.5 -64t15 -42t27.5 -22.5t42 -6.5q65 0 109 63q6 9 9.5 17t5 23t2 41t0.5 71q0 60 -1.5 86.5t-6.5 32.5q-3 4 -11 5.5t-27 1.5h-12t-24 -1v28q31 4 54 7.5t41 8t32.5 10t29.5 12.5l9 -7
q-1 -30 -2.5 -73.5t-2.5 -90t-1.5 -92t-0.5 -78.5q0 -32 1 -49t7.5 -25.5t19.5 -11t37 -3.5l11 -1v-27z" />
    <glyph glyph-name="yacute" unicode="&#xfd;" horiz-adv-x="484" 
d="M207 521l129 125q2 2 5 4.5t6 5.5q14 14 22.5 19t16.5 5q10 0 17 -8.5t7 -20.5q0 -14 -10.5 -26t-34.5 -27l-127 -77h-31zM36 -174q22 -35 59 -35q41 0 67 45q6 11 9.5 18.5t9.5 20t15.5 35t26.5 62.5l-135 336q-15 37 -24 57.5t-18 31t-21 13t-32 4.5v29q30 -2 50 -3
t46 -1h20t25.5 0.5t34 1.5t47.5 2v-27q-17 -2 -26 -2.5t-13.5 -1t-6.5 -1t-5 -0.5q-18 -4 -18 -22v-7t1.5 -8t5 -14.5t9.5 -25.5q4 -11 11 -30.5t18 -49.5l70 -177l75 192q16 41 26 72.5t10 42.5q0 15 -10.5 21.5t-38.5 8.5l-11 1v26q20 -1 34 -1.5t24.5 -0.5h19h17.5
q20 0 38.5 0.5t44.5 2.5v-27q-19 -2 -31.5 -6.5t-24.5 -20.5t-26.5 -47.5t-38.5 -86.5l-137 -329q-23 -53 -39 -87t-30 -54q-16 -26 -41 -41t-50 -15q-16 0 -31 3.5t-40 14.5q4 14 6.5 23.5t4.5 17.5t4 16.5t5 22.5h14z" />
    <glyph glyph-name="thorn" unicode="&#xfe;" horiz-adv-x="552" 
d="M169 99q31 -32 57.5 -44.5t59.5 -12.5q32 0 59 13.5t46.5 38t30.5 58t11 73.5q0 76 -38 122t-101 46q-22 0 -44.5 -8.5t-40.5 -22.5t-29 -31t-11 -34v-198zM10 666q40 3 78.5 12.5t70.5 24.5l12 -7l-2 -338l73 67q17 15 40 22t59 7q39 0 71.5 -13.5t55.5 -38t35.5 -59
t12.5 -76.5q0 -45 -15 -90t-39 -73q-14 -17 -47 -40.5t-76 -47.5q-25 -14 -42.5 -19.5t-38.5 -5.5q-49 0 -89 27v-31q0 -68 0.5 -108t1 -61.5t2.5 -29t5 -11.5q3 -3 7 -5.5t11.5 -4t19 -3t30.5 -2.5v-24q-32 2 -54.5 2.5t-46.5 0.5h-27t-28 -0.5t-34.5 -1.5t-46.5 -2v28
q30 0 46 2t23.5 10t9 25t1.5 48v315.5v212.5t-0.5 130.5t-1 69.5t-2 30t-2.5 13q-3 11 -11.5 14t-34.5 3h-10.5t-16.5 -1v29z" />
    <glyph glyph-name="ydieresis" unicode="&#xff;" horiz-adv-x="484" 
d="M346 649q20 0 34.5 -14.5t14.5 -34.5t-14.5 -34.5t-35.5 -14.5q-20 0 -34 14.5t-14 34.5t14.5 34.5t34.5 14.5zM151 649q20 0 34.5 -14.5t14.5 -34.5t-14.5 -34.5t-35.5 -14.5q-20 0 -34 14.5t-14 34.5t14.5 34.5t34.5 14.5zM36 -174q22 -35 59 -35q41 0 67 45
q6 11 9.5 18.5t9.5 20t15.5 35t26.5 62.5l-135 336q-15 37 -24 57.5t-18 31t-21 13t-32 4.5v29q30 -2 50 -3t46 -1h20t25.5 0.5t34 1.5t47.5 2v-27q-17 -2 -26 -2.5t-13.5 -1t-6.5 -1t-5 -0.5q-18 -4 -18 -22v-7t1.5 -8t5 -14.5t9.5 -25.5q4 -11 11 -30.5t18 -49.5l70 -177
l75 192q16 41 26 72.5t10 42.5q0 15 -10.5 21.5t-38.5 8.5l-11 1v26q20 -1 34 -1.5t24.5 -0.5h19h17.5q20 0 38.5 0.5t44.5 2.5v-27q-19 -2 -31.5 -6.5t-24.5 -20.5t-26.5 -47.5t-38.5 -86.5l-137 -329q-23 -53 -39 -87t-30 -54q-16 -26 -41 -41t-50 -15q-16 0 -31 3.5
t-40 14.5q4 14 6.5 23.5t4.5 17.5t4 16.5t5 22.5h14z" />
    <glyph glyph-name="OE" unicode="&#x152;" horiz-adv-x="946" 
d="M512 606q-35 18 -67 26t-70 8q-55 0 -99 -19.5t-74.5 -55.5t-46.5 -88.5t-16 -118.5q0 -74 19 -135.5t52.5 -106.5t80 -70t102.5 -25q31 0 62.5 8t57.5 22q1 29 2 55.5t1.5 54.5t0.5 59.5v69.5v87t-1 77t-2 73.5t-2 78.5zM913 161q-2 -14 -4 -33.5t-3.5 -40.5t-2.5 -40.5
t-1 -31.5v-5t1 -10h-14l-48 -2q-59 1 -100.5 1.5t-70 1t-45 0.5h-24.5q-14 0 -27 -1t-28 -2t-34 -3.5t-46 -5.5q-29 -4 -56 -6t-44 -2q-71 0 -130.5 25.5t-102.5 72t-66.5 111t-23.5 141.5q0 78 25 142t70.5 110t109 71.5t139.5 25.5h24.5t22.5 -1t34 -3.5t59 -6.5
q16 -2 36 -3t39 -1h46q26 1 63 1h75h29l31 1h5.5t10.5 -1l7 -10q-2 -20 -3 -39t-1 -49v-14.5t1 -33.5h-32q-1 28 -2 44.5t-2 24.5t-2.5 11.5t-3.5 6.5q-16 20 -158 20q-15 0 -30 -0.5t-32 -1.5q-1 -20 -1.5 -35.5t-1 -29t-0.5 -26.5v-29l1 -144h21h51q16 0 34 0.5t33.5 2
t27.5 2.5t17 3q6 2 9 4t4.5 8t2.5 18t3 33v6.5t1 10.5h32q-1 -13 -2 -24t-1.5 -22.5t-0.5 -24.5v-29q0 -37 0.5 -63t2.5 -58h-33q0 21 -0.5 34.5t-1.5 21.5t-3 13t-5 8q-8 9 -38.5 13t-93.5 4h-10.5h-10.5t-15.5 -0.5t-24.5 -0.5v-23l1 -134v-120q13 -1 33 -1.5t43 -1t47 -1
t44 -0.5q33 0 51.5 2t29.5 11.5t16 28.5t11 52q1 3 2 10.5t3 16.5h31z" />
    <glyph glyph-name="oe" unicode="&#x153;" horiz-adv-x="788" 
d="M670 280q0 68 -27 106t-76 38q-51 0 -80 -42.5t-31 -119.5h214v18zM244 422q-58 0 -90 -43t-32 -121q0 -53 10 -97t29 -75.5t44.5 -48.5t57.5 -17q57 0 87 48.5t30 139.5q0 106 -34.5 160t-101.5 54zM735 69l-17 -36q-34 -25 -68.5 -36.5t-74.5 -11.5q-54 0 -92 19
t-69 61q-41 -43 -80.5 -61.5t-91.5 -18.5q-47 0 -85 16.5t-64.5 46.5t-41 72.5t-14.5 95.5q0 55 15.5 99t44 75t69 47.5t91.5 16.5t88.5 -16.5t75.5 -55.5q38 39 74 55.5t83 16.5q39 0 71.5 -12.5t55 -35t35 -54.5t12.5 -71q0 -8 -0.5 -18.5t-1.5 -21.5q-26 -7 -50.5 -9.5
t-62.5 -2.5h-181q2 -45 7.5 -70.5t19.5 -48.5q42 -70 128 -70q34 0 61 8.5t56 27.5z" />
    <glyph glyph-name="Scaron" unicode="&#x160;" horiz-adv-x="553" 
d="M305 750h-45l-122 163h29l116 -103l114 103h18zM85 200q4 -68 19 -102q15 -35 52.5 -55.5t88.5 -20.5q78 0 123 40t45 110q0 71 -53 101q-9 5 -15.5 8.5t-17 7t-29.5 8t-53 13.5q-85 22 -127 50q-29 19 -44 52.5t-15 77.5q0 43 15.5 78t44 60t68.5 39t89 14q45 0 86.5 -8
t85.5 -25q-5 -41 -9.5 -77.5t-8.5 -70.5l-27 2q-3 32 -5.5 57t-3.5 28q-3 7 -13 17t-23 18q-37 23 -87 23q-60 0 -94.5 -32.5t-34.5 -88.5q0 -25 8.5 -48t23.5 -37q8 -8 17.5 -14t22.5 -11.5t31.5 -11t44.5 -11.5t46.5 -11.5t36.5 -11t29.5 -11t26.5 -12.5q78 -40 78 -131
q0 -51 -23.5 -97.5t-68.5 -79.5q-75 -57 -193 -57q-22 0 -41.5 1.5t-39 5.5t-41 10.5t-47.5 15.5q1 65 2 111.5t2 75.5h28z" />
    <glyph glyph-name="scaron" unicode="&#x161;" horiz-adv-x="401" 
d="M230 530h-46l-121 163h29l116 -103l114 103h17zM76 141v-13q2 -34 7.5 -50.5t20.5 -30.5q34 -31 86 -31q45 0 75 25.5t30 63.5q0 45 -44 66q-5 2 -9 4t-12 5t-22.5 8t-39.5 14q-32 12 -53 24t-34 26t-18.5 31t-5.5 40q0 61 41.5 96t114.5 35q33 0 62 -6t63 -20
q-2 -13 -3.5 -37t-2.5 -72h-28q-2 27 -5.5 42t-13.5 28q-27 36 -79 36q-39 0 -62.5 -19t-23.5 -51q0 -23 12.5 -38.5t41.5 -29.5q7 -3 12.5 -5.5t15 -6t25 -9t41.5 -14.5q97 -33 97 -112q0 -34 -14.5 -62.5t-40 -49t-61 -32t-77.5 -11.5q-36 0 -68.5 6t-66.5 19q6 17 8 46
t2 85h29z" />
    <glyph glyph-name="Ydieresis" unicode="&#x178;" horiz-adv-x="623" 
d="M415 869q20 0 34.5 -14.5t14.5 -34.5t-14.5 -34.5t-35.5 -14.5q-20 0 -34 14.5t-14 34.5t14.5 34.5t34.5 14.5zM221 869q20 0 34.5 -14.5t14.5 -34.5t-14.5 -34.5t-35.5 -14.5q-20 0 -34 14.5t-14 34.5t14.5 34.5t34.5 14.5zM603 670v-13q-14 -17 -34.5 -46t-44 -63.5
t-47 -72t-43.5 -71.5q-22 -38 -35 -61.5t-19.5 -41t-8.5 -32.5t-2 -35q0 -50 0.5 -85.5t2 -58.5t3.5 -35t5 -15q5 -5 26.5 -8t52.5 -5v-29q-30 2 -50 2h-48q-35 0 -74.5 -1t-99.5 -3v30l13 1q24 1 38 2.5t22 3.5t11 6.5t5 11.5q4 12 5.5 45.5t1.5 102.5v26q-1 15 -1 25v13
q0 10 -1 13.5t-6 11.5q-2 2 -9.5 15.5t-15.5 29.5q-53 94 -89 152t-62.5 89.5t-48 42t-45.5 9.5v27q44 8 75 14t45 10q17 -11 34.5 -31.5t42.5 -60t59.5 -102.5t85.5 -159q5 11 11 23.5t16 30.5t24.5 44.5t36.5 65.5q6 11 14.5 26t20.5 37t28 51t37 68h68z" />
    <glyph glyph-name="Zcaron" unicode="&#x17d;" horiz-adv-x="626" 
d="M355 750h-46l-121 163h29l116 -103l114 103h17zM592 168q-5 -35 -7.5 -72t-2.5 -72v-10.5t1 -15.5q-23 -1 -37.5 -1h-31.5h-42.5t-59.5 1q-72 1 -120 1.5t-88 0.5q-36 0 -77.5 -0.5t-106.5 -1.5v26q19 22 39.5 47t46 58.5t58 77.5t75.5 103.5t98.5 137t126.5 177.5
q-22 0 -37 0.5t-26.5 0.5h-22h-22.5q-85 0 -141 -2.5t-72 -7.5q-8 -2 -13 -6.5t-8.5 -13.5t-5.5 -23.5t-3 -36.5v-9t-1 -15h-31q0 10 0.5 17.5t0.5 14.5v14v17q0 33 -0.5 53t-1.5 42q26 1 36 1h21q20 0 44.5 -0.5t60.5 -1.5q42 -1 71.5 -1.5t54.5 -1t50 -0.5h60h36h27
t23.5 0.5t27.5 1.5v-26q-28 -34 -66.5 -84t-92 -122t-124 -169t-162.5 -225h167.5h95.5t49 0.5t27 1.5q19 2 31 6.5t19 15t11 29t7 49.5q0 2 0.5 9t1.5 15h36z" />
    <glyph glyph-name="zcaron" unicode="&#x17e;" horiz-adv-x="456" 
d="M276 530h-45l-121 163h29l116 -103l113 103h18zM436 135q-3 -20 -5 -36t-3 -31.5t-2 -31.5t-1 -35q-14 -2 -22 -3t-23 -1l-61 1q-24 1 -49.5 1.5t-52.5 0.5h-101h-79h-20l-4 18q22 24 41 46t38.5 46.5t41.5 53t51 66.5q27 37 47 63t35 46l27 36t25 33q-194 -3 -198 -7
q-17 -5 -25 -22t-14 -64h-26q3 40 4 58.5t1 35.5v16t-2 18q112 -2 174 -3t76 -1h38t29.5 0.5t25.5 1.5t25 2v-26q-43 -52 -80 -98.5t-75 -95.5q-35 -48 -71 -95t-71 -95q24 -1 38.5 -1h28.5q75 0 120 3.5t58 11.5q13 7 19.5 25t14.5 63h27z" />
    <glyph glyph-name="florin" unicode="&#x192;" 
d="M210 386q6 39 12 68t13.5 51.5t16.5 38.5t20 30q41 48 85 74t85 26q17 0 32 -3.5t35 -11.5q-6 -17 -10 -27.5t-7.5 -20t-8 -20.5t-11.5 -28h-13q-18 29 -34 41.5t-35 12.5q-26 0 -42.5 -26.5t-27.5 -85.5l-22 -119h136q-1 -14 -1.5 -19t-5.5 -19h-135q-16 -76 -24.5 -118
t-13.5 -65t-8.5 -35t-7.5 -28q-54 -182 -154 -255q-37 -26 -66 -26q-23 0 -46 14q4 14 7 23t5.5 17t6 16.5t8.5 22.5l12 4q20 -31 54 -31q17 0 29 7t22 25t17.5 48t15.5 76l55 305h-132q2 14 2.5 19.5t2.5 18.5h133z" />
    <glyph glyph-name="circumflex" unicode="&#x2c6;" horiz-adv-x="500" 
d="M233 683h46l109 -162h-17l-116 102l-114 -102h-29z" />
    <glyph glyph-name="tilde" unicode="&#x2dc;" horiz-adv-x="500" 
d="M81 558q26 94 102 94q19 0 37 -5t50 -19q29 -13 42 -17t25 -4q38 0 58 49h24q-12 -48 -37.5 -73t-62.5 -25q-10 0 -18.5 1t-20 4t-27 9t-39.5 16q-30 13 -52 13q-38 0 -56 -43h-25z" />
    <glyph glyph-name="endash" unicode="&#x2013;" 
d="M28 206l7 14t5.5 12.5t5 15t6.5 20.5q21 -1 38.5 -1.5t37.5 -1t44.5 -0.5h60.5h75.5t60 0.5t53 1t54.5 1.5l4 -7l-7 -14t-5.5 -12.5t-5 -14.5t-6.5 -21q-19 1 -34.5 2t-34.5 1.5t-44 0.5h-63h-94t-62.5 -0.5t-45.5 -1.5t-44 -2z" />
    <glyph glyph-name="emdash" unicode="&#x2014;" horiz-adv-x="655" 
d="M0 206l7 14t5.5 12.5t5 15t6.5 20.5q24 -1 39.5 -1.5t36.5 -1t54 -0.5h92h126t120 0.5t98 1t61 1.5l4 -7l-7 -14t-5 -12.5t-5 -14.5t-7 -21q-23 1 -38.5 2t-38.5 1.5t-62.5 0.5h-110.5h-145t-105 -0.5t-73.5 -1.5t-51.5 -2z" />
    <glyph glyph-name="quoteleft" unicode="&#x2018;" horiz-adv-x="261" 
d="M220 686q-18 -30 -31 -56.5t-21.5 -52t-13.5 -51t-6 -53.5q-23 -6 -30.5 -8t-16.5 -4q-5 -2 -13.5 -4.5t-34.5 -10.5l-11 11q28 67 56.5 117.5t64.5 97.5q24 13 43 26z" />
    <glyph glyph-name="quoteright" unicode="&#x2019;" horiz-adv-x="261" 
d="M42 458q18 30 31 56.5t21.5 52t13 50.5t6.5 54q23 5 30.5 7t16.5 5q5 2 13.5 4.5t34.5 10.5l11 -12q-28 -67 -56.5 -117t-64.5 -97q-8 -5 -20.5 -12.5l-22.5 -13.5z" />
    <glyph glyph-name="quotesinglbase" unicode="&#x201a;" horiz-adv-x="261" 
d="M15 -121q18 30 31 56.5t21.5 52t13 50.5t6.5 54q23 6 30.5 7.5t16.5 4.5q5 2 13.5 4.5t34.5 10.5l11 -12q-28 -67 -56.5 -117t-64.5 -97q-14 -8 -24.5 -14.5t-18.5 -11.5z" />
    <glyph glyph-name="quotedblleft" unicode="&#x201c;" horiz-adv-x="405" 
d="M220 686q-18 -30 -31 -56.5t-21.5 -52t-13.5 -51t-6 -53.5q-23 -6 -30.5 -8t-16.5 -4q-5 -2 -13.5 -4.5t-34.5 -10.5l-11 11q28 67 56.5 117.5t64.5 97.5q24 13 43 26zM364 686q-18 -30 -31.5 -56.5t-22 -52t-13.5 -51t-6 -53.5q-23 -6 -30 -8t-16 -4q-6 -2 -14.5 -4.5
t-33.5 -10.5l-11 11q28 67 56.5 117.5t64.5 97.5q20 11 43 26z" />
    <glyph glyph-name="quotedblright" unicode="&#x201d;" horiz-adv-x="405" 
d="M186 458q18 30 31 56.5t21.5 52t13 50.5t6.5 54q23 5 30.5 7t16.5 5q5 2 13.5 4.5t34.5 10.5l11 -12q-29 -67 -57.5 -117t-64.5 -97l-22.5 -13.5t-20.5 -12.5zM42 458q18 30 31 56.5t21.5 52t13 50.5t6.5 54q23 5 30.5 7t16.5 5q5 2 13.5 4.5t34.5 10.5l11 -12
q-28 -67 -56.5 -117t-64.5 -97q-8 -5 -20.5 -12.5l-22.5 -13.5z" />
    <glyph glyph-name="quotedblbase" unicode="&#x201e;" horiz-adv-x="405" 
d="M159 -121q18 30 31 56.5t21.5 52t13 50.5t6.5 54q23 6 30.5 7.5t16.5 4.5q5 2 13.5 4.5t34.5 10.5l11 -12q-29 -67 -57.5 -117t-64.5 -97q-10 -6 -21 -12.5t-22 -13.5zM15 -121q18 30 31 56.5t21.5 52t13 50.5t6.5 54q23 6 30.5 7.5t16.5 4.5q5 2 13.5 4.5t34.5 10.5
l11 -12q-28 -67 -56.5 -117t-64.5 -97q-14 -8 -24.5 -14.5t-18.5 -11.5z" />
    <glyph glyph-name="dagger" unicode="&#x2020;" 
d="M216 413q-32 0 -54 -0.5t-40 -1.5t-34 -2.5t-37 -4.5q2 15 3 23.5t1 17.5q0 8 -0.5 16t-2.5 23q21 -2 40 -3.5t37.5 -2.5t39.5 -2t47 -1q0 49 -0.5 84.5t-1.5 61.5t-2.5 45.5t-4.5 35.5q19 -4 29.5 -5t22.5 -1q11 0 20 1t25 4q-3 -23 -5 -43.5t-3.5 -45t-2 -57.5
t-1.5 -80h61t39.5 1t30.5 3t35 6q-2 -14 -2.5 -22.5t-0.5 -19.5t0.5 -18t2.5 -21q-32 5 -70 7t-79 2h-17q0 -91 0.5 -154.5t1 -108t1 -75t1 -55.5t1.5 -50t2 -59q-14 2 -23 3t-23 1q-12 0 -21 -1t-22 -3q1 15 2 70.5t3 152.5l1 180v99z" />
    <glyph glyph-name="daggerdbl" unicode="&#x2021;" 
d="M216 413q-33 0 -55 -0.5t-40 -1.5t-34 -2.5t-36 -4.5q2 16 3 24.5t1 16.5t-1 16t-3 23q21 -2 40.5 -3.5t39 -2.5t40 -2t45.5 -1q0 49 -0.5 84.5t-1.5 61.5t-2.5 45.5t-4.5 35.5q18 -4 29 -5t22 -1t20 1t25 4q-5 -38 -8 -99t-3 -127h60.5t39 1t30.5 3t35 6
q-2 -14 -2 -22.5v-19.5t0.5 -18t2.5 -21q-32 5 -70 7t-79 2h-17v-148q6 -1 11 -1h7q38 0 77 2.5t71 7.5q-2 -14 -2.5 -22t-0.5 -18t0.5 -18.5t1.5 -23.5q-19 4 -34 6t-33 3t-41 1.5t-57 0.5q1 -71 1.5 -116.5t2 -77t3 -53.5t4.5 -44q-16 3 -25 4t-20 1t-22 -1t-29 -5
q3 19 4.5 38t2.5 49t1.5 78t0.5 127q-26 -1 -47 -1.5t-40 -2l-38 -3t-40 -3.5q2 15 3 23.5t1 16.5t-1 16.5t-3 23.5q20 -2 36 -3.5t34 -2.5t40 -1.5t55 -0.5v148z" />
    <glyph glyph-name="bullet" unicode="&#x2022;" horiz-adv-x="313" 
d="M155 453q22 0 42 -8.5t34.5 -22.5t23 -33.5t8.5 -41.5q0 -23 -8.5 -42.5t-23.5 -34.5t-34.5 -23.5t-41.5 -8.5t-41.5 8.5t-34 23.5t-23 35t-8.5 43q0 21 8.5 40.5t23 33.5t34 22.5t41.5 8.5z" />
    <glyph glyph-name="ellipsis" unicode="&#x2026;" horiz-adv-x="804" 
d="M671 100q23 0 39 -16.5t16 -39.5t-16.5 -39t-39.5 -16t-39 16t-16 39t16.5 39.5t39.5 16.5zM403 100q23 0 39 -16.5t16 -39.5t-16.5 -39t-39.5 -16t-39 16t-16 39t16.5 39.5t39.5 16.5zM135 100q23 0 39 -16.5t16 -39.5t-16.5 -39t-39.5 -16t-39 16t-16 39t16.5 39.5
t39.5 16.5z" />
    <glyph glyph-name="perthousand" unicode="&#x2030;" horiz-adv-x="1069" 
d="M882 283q-41 0 -63 -37t-22 -105q0 -62 21.5 -96t59.5 -34t59 37t21 103q0 64 -19.5 98t-56.5 34zM888 305q66 0 105 -40t39 -109q0 -38 -11.5 -69t-32.5 -53.5t-50 -34.5t-65 -12q-68 0 -108.5 40.5t-40.5 109.5q0 80 43 124t121 44zM518 283q-41 0 -63 -37t-22 -105
q0 -62 21.5 -96t59.5 -34t59.5 37t21.5 103q0 64 -19.5 98t-57.5 34zM524 305q67 0 106 -40t39 -109q0 -38 -11.5 -69t-32.5 -53.5t-50 -34.5t-65 -12q-69 0 -109.5 40.5t-40.5 109.5q0 80 43 124t121 44zM210 13q-7 -12 -11 -21.5t-10 -23.5q-7 1 -12 1h-8h-9t-13 -1
q7 12 9.5 16.5t7.5 14.5q6 15 13 25l312 624q4 9 8.5 20.5t10.5 30.5q21 -3 29 -3h7.5t9.5 1q-9 -15 -14.5 -25t-13.5 -26zM195 657q-41 0 -63 -37t-22 -104q0 -62 21.5 -96t59.5 -34t59.5 37t21.5 102t-19.5 98.5t-57.5 33.5zM201 679q67 0 106 -40t39 -108
q0 -38 -11.5 -69t-32.5 -53.5t-50 -34.5t-65 -12q-69 0 -109.5 40.5t-40.5 109.5q0 79 43 123t121 44z" />
    <glyph glyph-name="guilsinglleft" unicode="&#x2039;" horiz-adv-x="279" 
d="M233 383q-21 -28 -36.5 -49t-28.5 -39t-25 -34.5t-24 -34.5q31 -45 58 -82t56 -74l-24 -16q-19 20 -41 43t-44 45.5t-42 42.5t-36 35v12q21 19 38.5 36.5t35.5 36t39.5 41t49.5 52.5z" />
    <glyph glyph-name="guilsinglright" unicode="&#x203a;" horiz-adv-x="279" 
d="M46 70q21 27 36.5 48.5t28.5 39.5t24.5 34.5t23.5 34.5q-30 45 -57 81.5t-56 73.5l24 16q19 -20 41 -43t44 -45l42 -42t36 -35v-13q-21 -20 -38.5 -37t-35.5 -35.5t-39.5 -41t-49.5 -52.5z" />
    <glyph glyph-name="Euro" unicode="&#x20ac;" 
d="M396 411l-14 -41h-216v-18q0 -11 0.5 -26t2.5 -31h189l-13 -41h-172q18 -108 62.5 -165t111.5 -57q33 0 54.5 12t46.5 45l8 -9l1 -44q-39 -32 -70.5 -44.5t-70.5 -12.5q-48 0 -90 20t-74.5 56t-54.5 86.5t-29 112.5h-60l13 41h43q-1 13 -1 21.5v16.5v16.5t1 20.5h-57
l13 41h48q18 128 83.5 199t165.5 71q82 0 162 -37q-4 -13 -7 -24t-4.5 -22.5t-2.5 -25.5t-2 -32h-30q-4 28 -9 41.5t-16 24.5q-17 16 -41 25t-49 9q-51 0 -84.5 -36.5t-52.5 -114.5q-9 -40 -12 -78h227z" />
    <glyph glyph-name="trademark" unicode="&#x2122;" horiz-adv-x="940" 
d="M636 259q-9 21 -18 39q-32 66 -69 141t-72 147q0 -37 0.5 -81t1 -83t1 -67.5t1.5 -35.5q2 -18 9.5 -23.5t31.5 -6.5h13v-24q-23 1 -37 1.5t-29 0.5t-29.5 -0.5t-50.5 -2.5v25q31 0 39 3t12 14q4 13 5.5 65.5t1.5 159.5q0 29 -0.5 48.5t-1.5 31.5t-2.5 17.5t-3.5 7.5
t-4.5 3t-8 1.5t-14 1t-23.5 1.5v25q19 -1 31 -1.5t19.5 -1t12 -0.5h8.5q12 0 21 1t24 3q9 -20 16.5 -36t15.5 -33.5t19 -39.5l27 -54q17 -33 27 -53.5t17.5 -35.5t14 -28.5t15.5 -32.5l16 33q15 31 30.5 61.5t30.5 62.5q19 37 35.5 72.5t37.5 83.5q19 -2 29.5 -2.5
t23.5 -0.5t25.5 0.5t35.5 2.5v-25l-15 -1q-26 -2 -31.5 -6t-6.5 -20v-23t-1 -43v-76v-86t1 -52.5t2.5 -27.5t3.5 -11q4 -5 13 -6.5t34 -2.5v-23q-20 0 -32.5 0.5t-20.5 0.5h-13h-10q-8 0 -25.5 -0.5t-63.5 -1.5v24q32 0 40 3q7 1 9 13t2 47v106v132q-60 -125 -99 -207
t-57 -124h-15zM97 289q15 0 23.5 0.5t13.5 1t7.5 1t4.5 2.5q3 2 5 9.5t2.5 26t1 52t0.5 87.5v59.5t-1 107.5q-40 0 -56.5 -0.5t-27.5 -1.5q-8 -1 -12.5 -3t-7 -7t-4.5 -14.5t-4 -26.5l-1 -12h-25q1 26 1 41v22v15.5t-1 20.5q38 -2 62.5 -2.5t42 -1t31.5 -0.5h32h36.5t37 0.5
t43.5 1.5t56 2q-4 -29 -6 -55t-1 -44h-25q-1 5 -1 9v6q-2 29 -6 37t-18 10q-21 3 -83 3q-1 -47 -1.5 -102t-0.5 -119q0 -35 0.5 -58t1 -36.5t2 -19t4.5 -6.5q4 -2 12 -3t37 -3v-24q-43 1 -60.5 1.5t-30.5 0.5q-18 0 -36 -0.5t-48 -2.5v25z" />
    <glyph glyph-name="glyph220" horiz-adv-x="0" 
 />
    </font>
</defs>
</svg>
