<?xml version="1.0" standalone="no"?>
<!DOCTYPE svg PUBLIC "-//W3C//DTD SVG 1.1//EN" "http://www.w3.org/Graphics/SVG/1.1/DTD/svg11.dtd" >
<svg xmlns="http://www.w3.org/2000/svg" xmlns:xlink="http://www.w3.org/1999/xlink" version="1.1">
<metadata>
Created by FontForge 20230101 at Sun Nov 27 18:42:02 2011
 By Unknown
(URW)++,Copyright 2003 by (URW)++ Design &#38; Development
</metadata>
<defs>
<font id="URWPalladioW01-BoldItalic" horiz-adv-x="518" >
  <font-face 
    font-family="URWPalladioW01-BoldItalic"
    font-weight="700"
    font-style="italic"
    font-stretch="normal"
    units-per-em="1000"
    panose-1="4 0 8 0 0 0 0 0 0 0"
    ascent="723"
    descent="-277"
    x-height="464"
    cap-height="669"
    bbox="-153 -278 1164 933"
    underline-thickness="54"
    underline-position="-161"
    slope="-10"
    unicode-range="U+000D-2122"
  />
<missing-glyph horiz-adv-x="0" 
 />
    <glyph glyph-name=".notdef" horiz-adv-x="0" 
 />
    <glyph glyph-name=".null" horiz-adv-x="0" 
 />
    <glyph glyph-name="uni000D" unicode="&#xd;" horiz-adv-x="0" 
 />
    <glyph glyph-name="space" unicode=" " horiz-adv-x="250" 
 />
    <glyph glyph-name="exclam" unicode="!" horiz-adv-x="264" 
d="M109 132q26 0 42 -16t16 -42q0 -37 -21 -61.5t-53 -24.5q-26 0 -41 15.5t-15 43.5q0 36 20.5 60.5t51.5 24.5zM289 673q-27 -87 -54.5 -174.5t-56.5 -178.5q-13 -42 -19.5 -66t-10.5 -41q-8 -6 -19 -13t-19 -12l-13 9q1 10 2.5 20.5t4 34t6.5 67.5t12 121q4 39 6 62.5
t3.5 39.5t2.5 26.5t3 24.5q1 12 1.5 19t1 13t1 12.5t0.5 16.5q7 0 16 1t23.5 4t37.5 8.5t59 14.5z" />
    <glyph glyph-name="quotedbl" unicode="&#x22;" horiz-adv-x="373" 
d="M272 562q1 27 3.5 44.5t8.5 28.5q20 37 62 37q49 0 49 -49q0 -18 -13 -57l-57 -167h-54zM112 562q1 27 3.5 44.5t8.5 28.5q20 37 62 37q49 0 49 -49q0 -9 -3.5 -23t-9.5 -34l-57 -167h-54z" />
    <glyph glyph-name="numbersign" unicode="#" 
d="M293 220l74 248h-107l-73 -248h106zM131 150h-80l20 70h80l74 248h-84l21 70h84l38 129h35l-38 -129h106l39 129h35l-38 -129h77l-20 -70h-78l-74 -248h82l-21 -70h-81l-45 -150h-35l45 150h-107l-45 -150h-35z" />
    <glyph glyph-name="dollar" unicode="$" 
d="M306 621q-122 -12 -122 -117q0 -39 19 -64t63 -44zM240 32q28 0 52.5 10.5t42.5 28.5t28 42t10 52q0 52 -38 81q-8 7 -19 12t-34 13zM100 179v-16l-2 -31v-18q12 -31 39.5 -52t63.5 -27l44 246l-10 4q-24 9 -39.5 16t-26.5 13t-19 12t-16 15q-20 21 -31 51t-11 62
q0 42 16.5 78.5t46 64t70 44t88.5 18.5l1 10q4 15 4 22l2 22q1 2 1 5t1 8h40q-2 -14 -5 -30.5t-6 -35.5q40 0 70 -8.5t70 -30.5q-3 -7 -7 -26t-8 -40.5t-7 -40.5t-3 -26l-31 1q1 16 2 26.5t1 34.5q-11 29 -36 47.5t-57 22.5l-42 -236l12 -4t11 -4q24 -8 40 -14.5t27.5 -12.5
t20.5 -12t18 -14q44 -41 44 -111q0 -45 -19 -85t-51.5 -70t-75 -48t-89.5 -18h-8q-2 -10 -3 -17.5t-5 -29.5q-2 -13 -4 -23.5t-5 -27.5h-40l1 8l7 36q3 16 5 26t5 29q-20 1 -37.5 3.5t-35.5 8t-37 14t-42 20.5q3 5 7 21.5t7.5 38t6.5 43.5t4 39z" />
    <glyph glyph-name="percent" unicode="%" horiz-adv-x="800" 
d="M621 294q-43 0 -68 -53q-7 -16 -13.5 -35.5t-11 -40t-7 -40t-2.5 -34.5q0 -74 56 -74q45 0 67 52q7 16 13.5 36t11 41t7 41t2.5 37q0 33 -14.5 51.5t-40.5 18.5zM617 325q72 0 113 -37t41 -101q0 -44 -14.5 -80.5t-40.5 -63.5t-61.5 -42t-77.5 -15q-72 0 -111.5 39
t-39.5 108q0 41 14.5 76t40.5 61t60.5 40.5t75.5 14.5zM603 673q5 9 7 13t3 8q5 -2 8 -2.5t8 -0.5h9t22 2l9 1q-4 -7 -11 -18t-17 -26l-52 -83l-363 -574l-9 -15q-3 -5 -4 -6.5t-1 -5.5q-8 2 -13.5 2.5t-10.5 0.5q-4 0 -11 -0.5t-15 -1.5h-8q5 6 8.5 11t7.5 10t8.5 12
t11.5 18q8 14 16 26.5t16 23.5l35 54zM265 662q-43 0 -68 -53q-7 -15 -13 -35t-10.5 -40.5t-7.5 -40t-3 -34.5q0 -74 56 -74q45 0 67 52q7 16 13.5 36t11 41t7 41t2.5 37q0 33 -14.5 51.5t-40.5 18.5zM261 693q72 0 113 -37t41 -102q0 -43 -14.5 -79.5t-40.5 -63.5
t-61.5 -42t-77.5 -15q-71 0 -111 39t-40 108q0 41 14.5 76t40.5 61t60.5 40.5t75.5 14.5z" />
    <glyph glyph-name="ampersand" unicode="&#x26;" horiz-adv-x="746" 
d="M355 197q4 34 7 62.5t5 53.5q19 20 53.5 31.5t98.5 18.5q38 4 64 8t44 7t29.5 6.5t20.5 7.5q43 19 43 58q0 17 -8.5 28t-34.5 25l23 18q67 -36 67 -105q0 -28 -12 -54t-32 -40q-9 -6 -17 -10.5t-20.5 -7.5t-32 -5.5t-50.5 -6.5l-19 -2q42 -25 42 -77q0 -45 -29.5 -86.5
t-78.5 -73t-113 -50t-134 -18.5q-112 0 -176.5 51t-64.5 140q0 110 103 166q19 10 41 18.5t56 19.5q-45 7 -68 35t-23 74q0 42 18.5 77t51 60.5t78 40t99.5 14.5q34 0 61 -6.5t55 -20.5q-2 -5 -5.5 -21.5t-7 -36t-6 -38t-2.5 -28.5h-29q-1 29 -3 39t-9 21q-14 23 -39.5 36
t-54.5 13q-24 0 -44.5 -9t-35.5 -25t-24 -37.5t-9 -45.5q0 -22 8.5 -41t23 -33.5t34 -22.5t42.5 -8q7 0 13.5 0.5t17.5 2.5v-3q-7 -22 -9.5 -32.5t-3.5 -22.5q-9 2 -15 2.5t-15 0.5q-41 0 -74.5 -12t-57.5 -33.5t-37 -51.5t-13 -66q0 -75 51.5 -119.5t137.5 -44.5
q90 0 143 42t53 114q0 38 -20 61t-55 23q-29 0 -49.5 -21.5t-28.5 -59.5h-24z" />
    <glyph glyph-name="quotesingle" unicode="'" horiz-adv-x="213" 
d="M112 562q1 27 3.5 44.5t8.5 28.5q20 37 62 37q49 0 49 -49q0 -9 -3.5 -23t-9.5 -34l-57 -167h-54z" />
    <glyph glyph-name="parenleft" unicode="(" horiz-adv-x="318" 
d="M212 -187q-80 91 -121.5 193t-41.5 208q0 91 27.5 172.5t84.5 159.5q38 54 84.5 99t97.5 78l20 -18q-52 -55 -87.5 -113.5t-64.5 -136.5q-27 -72 -41.5 -154.5t-14.5 -163.5q0 -187 81 -308z" />
    <glyph glyph-name="parenright" unicode=")" horiz-adv-x="318" 
d="M118 723q80 -92 121 -193.5t41 -207.5q0 -90 -27 -171.5t-84 -160.5q-79 -110 -183 -177l-20 19q26 27 48 55t40 58t34 63.5t30 72.5q27 73 41.5 155.5t14.5 163.5q0 186 -81 307z" />
    <glyph glyph-name="asterisk" unicode="*" horiz-adv-x="456" 
d="M149 383q-4 9 -6 13t-6 11q-2 5 -5.5 10.5t-8.5 13.5l-10 18l-5 8l2 4q28 11 49 18.5t29 10.5q28 9 42 14.5t23 10.5q-31 15 -64 30t-78 34l-1 7q12 14 24 33.5t20 38.5h9q12 -15 26.5 -31.5t28.5 -32t27 -29.5t24 -24q1 10 2 16.5t2 11.5t1.5 9.5t1.5 11.5q2 9 4 30
t6 55l1 9l5 5q10 -3 16 -5t14 -4l15 -4q9 -1 17.5 -2t17.5 -3l7 -2l3 -6q-33 -54 -53 -87.5t-28 -48.5q8 2 24 5t50 8q23 5 38 8t32 8l8 -8q-1 -13 -1.5 -24.5t-0.5 -25.5v-13.5t1 -16.5l-6 -4q-69 18 -102 25.5t-50 9.5q21 -38 39 -70t33 -58l-3 -8q-14 -4 -22.5 -6.5
t-13.5 -4.5q-8 -2 -17.5 -6t-23.5 -10l-8 5q-3 50 -5.5 85.5t-5.5 62.5q-26 -25 -53 -51.5t-55 -54.5h-10z" />
    <glyph glyph-name="plus" unicode="+" 
d="M240 377l30 166h90l-29 -166h171l-15 -84h-171l-29 -165h-91l29 165h-171l15 84h171z" />
    <glyph glyph-name="comma" unicode="," horiz-adv-x="250" 
d="M202 128q-4 -7 -12.5 -23.5t-23.5 -45.5q-28 -52 -62.5 -100.5t-70.5 -89.5l-52 -34l-18 15q18 25 35 60t31 71.5t22.5 70.5t9.5 57q38 8 73.5 17t51.5 16z" />
    <glyph glyph-name="hyphen" unicode="-" horiz-adv-x="305" 
d="M-6 195q13 32 19 53t8 37q13 -2 24.5 -3t26.5 -2t36.5 -1h54.5q52 0 86.5 1t58.5 4l5 -9q-11 -25 -19 -51t-10 -39q-17 1 -33 2t-35 2t-42.5 1h-53.5h-40t-30.5 -0.5t-25 -1.5t-24.5 -2z" />
    <glyph glyph-name="period" unicode="." horiz-adv-x="250" 
d="M101 139q29 0 46 -18t17 -48q0 -38 -21 -62t-54 -24q-29 0 -46 18t-17 47q0 37 21.5 62t53.5 25z" />
    <glyph glyph-name="slash" unicode="/" horiz-adv-x="374" 
d="M440 696q-6 -10 -12 -19.5t-12.5 -21t-14.5 -26t-19 -34.5l-354 -684q-5 -9 -9 -17.5t-9 -16.5q-5 -10 -10 -22t-13 -32q-15 1 -25 1.5t-22 0.5q-11 0 -22 -0.5t-27 -1.5v5q8 14 13.5 22.5t11 18.5t13 23.5t20.5 36.5l357 682l15 30t10 21.5t7.5 18t7.5 20.5
q17 -2 29 -2.5t24 -0.5q11 0 19 0.5t22 2.5v-5z" />
    <glyph glyph-name="zero" unicode="0" 
d="M327 640q-34 0 -56 -31.5t-44 -110.5q-10 -38 -20.5 -90t-18.5 -105.5t-13.5 -100.5t-5.5 -74q0 -52 10 -76q7 -15 21 -24.5t32 -9.5q16 0 28.5 7t23.5 24t21 45t21 70q12 45 22.5 97.5t18.5 104.5t12.5 99t4.5 82q0 93 -57 93zM324 675q78 0 122 -48q27 -29 39 -71.5
t12 -108.5q0 -95 -19 -180t-56 -152q-73 -132 -193 -132q-84 0 -128 63t-44 181q0 82 20 166t56 152q66 130 191 130z" />
    <glyph glyph-name="one" unicode="1" 
d="M71 30q11 1 21 1h13q27 1 43.5 3t27 6.5t16 11.5t8.5 19q1 1 5 21t10.5 56.5t16 88.5t20.5 117q11 60 18 100t12 72q2 12 3 19.5t4 27.5q-8 -4 -14.5 -7t-14.5 -7t-21 -9.5t-34 -14.5q-14 -6 -35 -16t-60 -27l-9 7l2 10l7 23q0 2 7 33q45 10 90 23.5t84.5 27.5t70.5 28.5
t49 26.5l18 -13q-3 -15 -6 -28.5t-6.5 -31t-8 -41.5t-10.5 -60q-5 -29 -10.5 -59.5t-11.5 -62.5q-14 -75 -23.5 -128.5t-15.5 -89.5t-9 -56t-3 -27q0 -19 9 -28t30 -12q8 -2 28 -2.5t64 -1.5l-6 -34q-7 0 -33.5 1t-57 1.5t-58 1t-36.5 0.5q-14 0 -43.5 -0.5t-61 -1
t-58.5 -1.5t-34 -1z" />
    <glyph glyph-name="two" unicode="2" 
d="M22 25q4 4 7.5 8t8.5 8q16 15 31.5 30t32.5 30q18 17 40.5 41t45.5 50.5t43.5 51.5t33.5 43q40 57 59 104.5t19 90.5q0 48 -27 75.5t-74 27.5q-23 0 -39.5 -4.5t-30.5 -16t-28 -32t-31 -52.5l-30 10q14 31 27.5 64.5t28.5 68.5q40 28 74 40t71 12q40 0 73.5 -12
t57.5 -34.5t37 -53.5t13 -68q0 -53 -25 -101.5t-83 -107.5q-12 -12 -20.5 -21t-18.5 -18.5t-22.5 -21.5t-31 -29.5t-45 -42t-63.5 -59.5v-6h69.5t106.5 1q24 0 42 0.5t32.5 1.5t27 2.5t26.5 3.5l7 -7q-3 -5 -7.5 -18.5t-9 -29t-9 -31.5t-6.5 -26q-74 4 -123 5.5t-74 1.5
q-21 0 -48 -0.5t-61 -1.5q-26 -1 -43 -1.5t-28.5 -1t-20.5 -0.5h-19z" />
    <glyph glyph-name="three" unicode="3" 
d="M92 182q-2 -17 -2.5 -28t-0.5 -21q0 -31 6.5 -51t22.5 -34q29 -27 76 -27q71 0 109 66q16 28 24.5 61t8.5 68q0 121 -109 121q-18 0 -33.5 -3t-36.5 -11l-5 5l16 51q9 -2 15.5 -3t18.5 -1q68 0 107.5 36t39.5 98q0 42 -25 65t-70 23q-42 0 -71.5 -20.5t-53.5 -66.5
l-27 12q4 7 11.5 22.5t16 32t16 31.5t10.5 23q54 44 139 44q76 0 121 -36t45 -96q0 -27 -11 -53.5t-30.5 -49t-46.5 -40.5t-60 -28l-1 -4q151 -17 151 -147q0 -50 -21.5 -93.5t-58.5 -75.5t-87 -50.5t-107 -18.5q-43 0 -82 9.5t-78 29.5l30 163z" />
    <glyph glyph-name="four" unicode="4" 
d="M311 446q5 29 9 49.5t7 36t5.5 27.5t5.5 25q-44 -57 -82 -108.5t-68.5 -95t-52 -77t-32.5 -53.5h20l61 -1h26l69 1zM120 30q16 1 22.5 1t17.5 1q25 1 39.5 1.5t22 2.5t10.5 6t6 10q2 5 6.5 23t10.5 46l9 55l-171 -1q-35 -1 -52 -1h-19l4 36q16 25 28.5 44.5t24 36.5
l23 34t25.5 38q18 26 65.5 90.5t125.5 167.5l14 21q9 1 23.5 4t31 7.5t33.5 9.5t32 11l13 -11q-2 -7 -3 -11.5t-1 -5.5q-2 -13 -4.5 -26t-5.5 -26q-2 -14 -5 -28t-5 -28l-5 -28l-46 -261l24 1l30 1l43 2h7l5 -4q-2 -10 -4 -17t-5 -21q-5 -17 -6 -22.5t-3 -15.5
q-18 1 -30 1.5t-20.5 1t-16 1t-17.5 0.5h-20l-12 -71q-5 -26 -5.5 -31.5t-0.5 -10.5q0 -9 3.5 -14.5t13.5 -9t27 -6t43 -3.5h10t16 -1l-6 -33h-17.5t-32.5 1q-27 1 -45 1.5t-30.5 0.5h-21.5h-19h-18.5h-23t-37 -0.5t-59.5 -1.5q-13 0 -20 -0.5t-11.5 -0.5h-7.5h-7z" />
    <glyph glyph-name="five" unicode="5" 
d="M85 171q-1 -8 -1.5 -16.5t-0.5 -11.5q0 -57 29.5 -89.5t80.5 -32.5q73 0 113 75q16 30 24.5 65t8.5 71q0 61 -27.5 94.5t-76.5 33.5q-34 0 -59.5 -14.5t-48.5 -48.5l-31 13l35 180q6 31 10.5 54.5t7.5 42t5.5 35t4.5 34.5l5 4q20 -2 37.5 -3t36 -2t41.5 -1h55h46t37 0.5
t33 1.5t34 2l6 -10l-45 -88q-46 -2 -110.5 -4.5t-148.5 -5.5l-40 -188q32 27 64 38.5t74 11.5q83 0 132.5 -46t49.5 -124q0 -48 -20.5 -96.5t-56.5 -84.5q-77 -78 -196 -78q-44 0 -81 9.5t-84 32.5q6 24 9.5 41.5t6.5 33.5t6 33.5t6 41.5z" />
    <glyph glyph-name="six" unicode="6" 
d="M280 346q-24 0 -44.5 -14t-35 -40t-22.5 -62t-8 -79q0 -60 21 -92.5t59 -32.5q56 0 85 70q11 27 18 64.5t7 72.5q0 54 -21 83.5t-59 29.5zM467 578q-15 25 -34.5 36.5t-48.5 11.5q-49 0 -85.5 -32t-65.5 -100q-7 -17 -14 -38t-13 -43t-11 -42.5t-7 -36.5q22 22 40 36.5
t35.5 23t35 12t38.5 3.5q66 0 105.5 -42t39.5 -112q0 -55 -20.5 -104.5t-55 -86.5t-80 -59t-96.5 -22q-87 0 -132.5 55.5t-45.5 160.5q0 99 32.5 189.5t92.5 158.5q52 60 117 94.5t124 34.5q23 0 40.5 -3.5t42.5 -14.5l-12 -39q-2 -5 -5 -14.5t-5 -17.5l-2 -6z" />
    <glyph glyph-name="seven" unicode="7" 
d="M85 8q43 66 69 106t46 70.5t39.5 59t49.5 71.5q20 29 39 57.5t37 54.5q21 31 34 50t21.5 32t14.5 21.5t13 17.5l-161 1h-72t-48 -1t-36.5 -2t-36.5 -3l-5 7l2 13q2 10 4.5 19.5t4.5 18.5q3 16 5 28.5t4 27.5l5 6q53 -2 86 -3.5t63 -2t65.5 -0.5h93.5h36h31h33t31 2
l-3 -37q-14 -17 -26 -33.5t-31 -47t-49 -83t-81 -141.5q-30 -54 -55.5 -103.5t-46 -91t-35 -73.5t-21.5 -52h-8l-51 3q-5 1 -8.5 1h-6.5q-10 0 -18 -1t-22 -3z" />
    <glyph glyph-name="eight" unicode="8" 
d="M326 386q51 35 72.5 68t21.5 75q0 50 -25.5 77t-71.5 27q-50 0 -81.5 -31t-31.5 -79q0 -28 13 -53.5t37 -43.5q4 -3 9 -6.5t12.5 -8t18 -10.5t26.5 -15zM239 306q-52 -26 -82.5 -72t-30.5 -98q0 -24 8 -44t23 -34.5t35 -23t44 -8.5q27 0 51 11t42 29.5t28.5 44t10.5 54.5
q0 19 -5 34.5t-18 30.5t-35 31t-56 36zM355 369q62 -32 88.5 -68.5t26.5 -87.5q0 -47 -20.5 -88.5t-55.5 -73t-82 -50t-99 -18.5q-38 0 -70 11t-55 30.5t-35.5 47.5t-12.5 61q0 78 79 140q16 12 34.5 23t54.5 31q-93 46 -93 142q0 42 19 79.5t51.5 65.5t76 44.5t93.5 16.5
q68 0 108 -32.5t40 -87.5q0 -35 -17 -68.5t-49 -60.5q-12 -11 -29 -22.5t-53 -34.5z" />
    <glyph glyph-name="nine" unicode="9" 
d="M298 631q-64 0 -91 -79q-8 -25 -12.5 -53.5t-4.5 -57.5q0 -55 12 -80q10 -23 28.5 -35t42.5 -12q50 0 77 50t27 141q0 126 -79 126zM65 112q40 -86 113 -86q42 0 80 36.5t62 99.5q11 31 21.5 71t20.5 91q-37 -42 -71.5 -61t-72.5 -19q-29 0 -56.5 10.5t-46.5 29.5
q-44 41 -44 126q0 126 90 202q36 30 78.5 46.5t85.5 16.5q83 0 129 -57t46 -160q0 -93 -29.5 -178.5t-78 -151.5t-112.5 -105.5t-133 -39.5q-10 0 -18.5 0.5t-18.5 2.5t-22 5t-28 8q-3 24 -5.5 38.5t-4.5 25t-3.5 19t-4.5 19.5z" />
    <glyph glyph-name="colon" unicode=":" horiz-adv-x="250" 
d="M159 444q26 0 42 -16t16 -42q0 -38 -20.5 -62.5t-53.5 -24.5q-28 0 -43.5 15.5t-15.5 43.5q0 37 21.5 61.5t53.5 24.5zM103 132q26 0 42 -16t16 -43q0 -39 -20.5 -62.5t-54.5 -23.5q-27 0 -42.5 15.5t-15.5 44.5q0 35 21.5 60t53.5 25z" />
    <glyph glyph-name="semicolon" unicode=";" horiz-adv-x="250" 
d="M176 443q29 0 44.5 -15.5t15.5 -43.5q0 -38 -21.5 -61.5t-54.5 -23.5q-26 0 -42 16.5t-16 43.5q0 36 21 60t53 24zM202 127q-4 -6 -12.5 -23t-23.5 -45q-28 -52 -62.5 -100.5t-70.5 -89.5q-13 -9 -26 -17.5t-26 -16.5l-18 14q18 25 35 60.5t31 72t22.5 70t9.5 56.5
q38 8 74 18t51 16z" />
    <glyph glyph-name="less" unicode="&#x3c;" horiz-adv-x="539" 
d="M9 250l461 180l36 -53l-383 -151l383 -151l-48 -54l-449 183v46z" />
    <glyph glyph-name="equal" unicode="=" 
d="M487 294l-15 -84h-433l15 84h433zM517 461l-15 -84h-434l15 84h434z" />
    <glyph glyph-name="greater" unicode="&#x3e;" horiz-adv-x="539" 
d="M532 202l-449 -183l-48 54l383 151l-383 151l36 53l461 -180v-46z" />
    <glyph glyph-name="question" unicode="?" horiz-adv-x="407" 
d="M160 132q26 0 42 -15.5t16 -41.5q0 -38 -21 -62.5t-53 -24.5q-27 0 -42 15.5t-15 43.5q0 36 20.5 60.5t52.5 24.5zM78 516q12 26 23.5 60.5t19.5 63.5q33 20 69 31t70 11q38 0 69.5 -10.5t54.5 -30t35.5 -46t12.5 -58.5q0 -30 -11.5 -59.5t-33.5 -52.5l-17 -17t-20 -17
t-28.5 -21t-41.5 -30q-27 -19 -45 -33t-28.5 -25t-14.5 -21t-4 -21q0 -28 37 -45v-3l-17 -18q-64 30 -64 85q0 14 3.5 26t12 26t23.5 31t38 41q25 25 42 44.5t27.5 36t14.5 31t4 29.5q0 35 -24.5 57t-65.5 22q-38 0 -65 -21q-11 -8 -18 -18.5t-19 -38.5l-6 -13z" />
    <glyph glyph-name="at" unicode="@" horiz-adv-x="685" 
d="M370 469q-40 0 -68 -60q-8 -16 -14.5 -36t-11 -41t-7.5 -41.5t-3 -36.5q0 -29 13 -46t35 -17q24 0 43.5 18.5t32.5 52.5q13 35 21.5 73.5t8.5 62.5q0 32 -13.5 51.5t-36.5 19.5zM534 491l-45 -225q-3 -15 -5 -29.5t-2 -22.5q0 -38 36 -38q20 0 37.5 14t30.5 38t20.5 56.5
t7.5 69.5q0 51 -16 92.5t-46 71t-72 45.5t-94 16q-62 0 -113.5 -22t-88 -61.5t-57 -94.5t-20.5 -121q0 -58 17.5 -104.5t49.5 -79.5t77 -51t101 -18t109 21.5t94 61.5l-4 -31q-100 -86 -227 -86q-65 0 -119 20t-93 56t-60.5 86.5t-21.5 111.5q0 67 26.5 130.5t74.5 111.5
q98 98 253 98q61 0 111 -17.5t86 -49.5t56 -76.5t20 -98.5q0 -45 -13.5 -85t-36.5 -70.5t-53.5 -48.5t-64.5 -18q-38 0 -62.5 25t-21.5 61v3q-30 -45 -60.5 -65.5t-65.5 -20.5q-48 0 -75 33t-27 90q0 42 12 84t34 75q47 72 120 72q35 0 56.5 -15t35.5 -50l18 48z" />
    <glyph glyph-name="A" unicode="A" horiz-adv-x="674" 
d="M227 306q22 0 35.5 -0.5t23.5 -0.5h19h21h22h18t20.5 0.5t28.5 0.5l-37 257zM485 675l73 -503q11 -66 17 -96.5t11 -31.5q8 -7 22 -9.5t52 -4.5v-34q-21 1 -39 2t-34.5 1.5t-34 0.5h-37.5h-39t-35.5 -0.5t-36 -1.5t-41.5 -2l1 34q8 1 14 1h8q21 1 33 2.5t18 4.5t7.5 8.5
t1.5 14.5q0 3 -0.5 7t-1 12.5t-2.5 24t-5 42.5l-16 114q-41 2 -66.5 2.5t-53.5 0.5q-27 0 -48.5 -0.5t-50.5 -2.5l-54 -99q-27 -51 -38.5 -75.5t-11.5 -32.5q0 -14 17 -18.5t67 -5.5l-2 -34q-30 1 -49.5 2t-33 1.5t-22.5 0.5h-18q-23 0 -46 -1t-62 -3l-1 34q48 0 66 13
q6 5 18 22l90 154l271 456h92z" />
    <glyph glyph-name="B" unicode="B" horiz-adv-x="647" 
d="M209 50q38 -7 60.5 -9.5t48.5 -2.5q75 0 109 51q17 25 26 56.5t9 63.5q0 35 -15.5 62t-42.5 40q-31 14 -92 14h-11h-9.5t-14 -0.5t-23.5 -0.5q-14 -78 -25 -146t-20 -128zM261 367q13 -2 21 -2h16q44 0 78.5 8t54.5 23q26 19 43 55.5t17 74.5q0 51 -32 75t-99 24
q-15 0 -25.5 -1t-25.5 -3q-3 -15 -7.5 -35.5t-10 -50.5t-13 -71t-17.5 -97zM13 30l18 4q17 4 26.5 6.5t14.5 5.5t7 7t5 12q2 8 10 49t18 98t21.5 122.5t21 122t15.5 96t6 45.5q0 25 -26 32q-3 1 -6.5 1.5t-10 1t-17.5 1t-30 1.5l5 34q32 -2 74.5 -3t77.5 -1q23 0 43 0.5
t43 1.5q32 2 58 2.5t37 0.5q95 0 145 -35t50 -101q0 -70 -50 -116t-144 -63v-4q36 -4 56 -8.5t40 -13.5q34 -15 53 -47t19 -72q0 -46 -21.5 -85.5t-59 -68t-89 -45t-111.5 -16.5q-11 0 -27.5 0.5t-34.5 1.5q-25 1 -43 1.5t-31.5 1t-23.5 0.5h-20h-5.5h-9.5t-19.5 -0.5
t-36.5 -1.5q-18 -1 -31 -1t-21 -1z" />
    <glyph glyph-name="C" unicode="C" horiz-adv-x="635" 
d="M601 113l-2 -8q-5 -17 -7 -22t-2 -6q-46 -29 -80.5 -48t-65.5 -30t-60.5 -15t-65.5 -4q-56 0 -103 14.5t-82 41.5q-84 66 -84 207q0 95 32 175.5t88 139.5t133.5 92t168.5 33q57 0 103 -10.5t91 -33.5q-14 -49 -22.5 -87t-13.5 -76h-35q1 9 1.5 15.5t0.5 9.5q1 14 1.5 28
t0.5 19q0 16 -4 24t-15 16q-29 20 -66.5 31t-78.5 11q-59 0 -105 -23.5t-73 -68.5q-17 -27 -30 -61t-22.5 -71t-14.5 -76.5t-5 -78.5q0 -100 49 -152.5t141 -52.5q57 0 107 17.5t110 58.5z" />
    <glyph glyph-name="D" unicode="D" horiz-adv-x="760" 
d="M208 58q31 -5 54 -7.5t40.5 -4.5t31.5 -2.5t28 -0.5q60 0 102.5 24t72.5 75q33 57 52 130t19 146q0 55 -15 97.5t-43 66.5q-47 41 -154 41q-22 0 -41 -1.5t-48 -4.5q-15 -77 -27 -144t-24 -132.5t-23.5 -134t-24.5 -148.5zM12 30q34 6 46.5 10t17.5 9q2 2 3.5 4.5
t3.5 11.5t5.5 26.5t9 49.5t14.5 80.5t21 119.5q10 59 17.5 100t12 68t7 42.5t4 24t1.5 12.5v9q0 11 -2 17.5t-9.5 10.5t-21 5.5t-36.5 3.5l-21 1l5 34q10 -1 28.5 -1.5t40 -1t42.5 -1t36 -0.5q16 0 39 0.5t65 2.5q30 1 58 1.5t49 0.5q37 0 67 -3t55 -9.5t45.5 -16.5
t39.5 -24q43 -32 66 -85t23 -119q0 -47 -10 -92.5t-28.5 -87t-45 -78.5t-59.5 -65q-112 -95 -259 -95h-15t-18 0.5t-33 1t-59 2.5q-19 1 -36 1h-34h-18.5t-24.5 -0.5t-38 -1.5t-57 -2z" />
    <glyph glyph-name="E" unicode="E" horiz-adv-x="588" 
d="M15 30q27 4 51 12q7 1 11 5t8 16.5t8 36t11 64.5q3 18 6 34.5t9 50t16.5 93.5t29.5 166q4 27 7 42.5t4 24t1.5 12.5t0.5 9q0 9 -3.5 17t-8.5 11q-3 2 -5.5 3t-8.5 2t-17 2t-32 3l-17 1l5 34q34 -2 71.5 -3t86.5 -1q33 0 63 0.5t62 1.5q48 2 89 2.5t58 0.5q21 0 36 -1
t35 -4l5 -7q-18 -102 -24 -149h-32l1 71q0 14 -3 18.5t-14 8.5q-37 13 -122 13q-30 0 -49 -1t-46 -5q-2 -11 -7.5 -40.5t-14.5 -77.5q-3 -14 -8.5 -45t-14.5 -82q24 0 39.5 -0.5t27.5 -0.5h22.5h22.5q34 0 58.5 0.5t56.5 2.5l3 -7q-3 -11 -6.5 -24.5t-5.5 -21.5q-32 1 -54 2
t-39 2t-31.5 1h-31.5h-8.5h-12t-19.5 -0.5t-31 -0.5q-5 -31 -10 -60.5t-10 -61.5t-11 -68.5t-13 -79.5q32 -3 56.5 -4.5t52.5 -1.5t54.5 1.5t47.5 4t35 5.5t19 7q3 2 5 4.5t5 9.5t7.5 21.5t12.5 40.5q2 5 4 12l4 14h35q-2 -11 -4.5 -24t-6 -31.5t-8.5 -44t-11 -61.5l-7 -7
q-9 -1 -15 -1.5t-13 -1t-15.5 -0.5h-23.5q-35 0 -81 0.5t-115 2.5q-33 1 -57.5 1.5t-44.5 0.5h-26.5t-27.5 -0.5t-34 -1.5t-47 -2z" />
    <glyph glyph-name="F" unicode="F" horiz-adv-x="526" 
d="M-5 30q21 1 34 2t21.5 2.5t13 4t8.5 5.5q4 4 8.5 18.5t11.5 48t16.5 89.5t24.5 143q11 66 19 110.5t10 58.5q8 45 10.5 61t2.5 25q0 10 -2.5 16.5t-11.5 10t-27.5 6t-50.5 4.5l5 34q35 -2 74 -3t73 -1q23 0 55 0.5t77 2.5q36 1 71 1.5t58 0.5q25 0 40 -1t36 -4l5 -7
q-2 -12 -5 -30.5t-8 -43.5q-3 -20 -5.5 -37t-5.5 -38h-33q1 18 1.5 29t0.5 17.5v10.5v10q0 16 -4.5 22.5t-17.5 10.5q-20 5 -48 8t-60 3q-19 0 -36.5 -1t-48.5 -4q-11 -54 -19 -95.5t-14 -75t-10.5 -59.5t-7.5 -48q11 0 18.5 -0.5t15 -0.5h17.5h25h55t38.5 0.5t30 1.5
t29.5 2l3 -7q-2 -11 -5 -22.5t-7 -23.5q-40 1 -65 1.5t-47.5 1t-48.5 0.5h-69q-2 -19 -3 -23q-6 -35 -9 -55t-5 -25q-8 -46 -12.5 -79.5t-4.5 -44.5q0 -10 4 -16.5t15 -10t30 -5t48 -1.5l-3 -34q-32 1 -53 2t-37 1.5t-29.5 0.5h-30.5h-24.5t-30.5 -0.5t-44 -1.5t-64 -2z" />
    <glyph glyph-name="G" unicode="G" horiz-adv-x="737" 
d="M427 280q48 -2 78 -2.5t49 -1.5t30 -1h20h23.5t23 0.5t28.5 1t40 1.5l-5 -31q-6 -1 -11 -1.5t-7 -0.5q-15 -2 -24 -5.5t-15.5 -11.5t-11 -21.5t-8.5 -35.5q-8 -35 -12 -65.5t-4 -50.5v-10l-2 -10q-57 -16 -98.5 -26.5t-74 -17t-58.5 -9t-52 -2.5q-60 0 -110 15t-87 44
q-88 67 -88 207q0 97 38 183t108 148q61 54 134 80t165 26q28 0 52 -2t47.5 -7.5t47.5 -14t53 -20.5q-6 -18 -12 -41.5t-11.5 -47t-9.5 -43.5t-5 -31h-34q2 32 2.5 49t0.5 26q0 14 -3 21t-13 15q-30 22 -72.5 34t-90.5 12q-125 0 -187 -101q-36 -57 -56 -130.5t-20 -150.5
q0 -107 47.5 -164.5t138.5 -57.5q35 0 66 7t53 20q5 19 11 44t11 49t8.5 42.5t3.5 24.5q0 8 -3 13.5t-11 8.5t-23.5 5t-39.5 3l-25 1z" />
    <glyph glyph-name="H" unicode="H" horiz-adv-x="761" 
d="M-4 30q38 1 54 3.5t23 8.5q4 4 6.5 8t5.5 15.5t7 34.5t12 65q21 119 35.5 199t22.5 130t11.5 73.5t3.5 30.5q0 20 -13 26.5t-56 9.5l-21 1l4 34q25 -1 46 -2t40 -1.5t38 -0.5h41h39t34.5 0.5t34 1.5t38.5 2l-5 -34q-29 -1 -44.5 -2t-23.5 -3.5t-11.5 -8t-6.5 -14.5
q-7 -19 -17.5 -72t-28.5 -159q11 0 39 -0.5t57 -0.5h74h115q5 24 11 60.5t11.5 71t9.5 61t4 31.5q0 10 -2.5 16.5t-11.5 10t-27 5.5t-49 4l5 34q22 -1 41.5 -2t39 -1.5t41 -0.5h48.5h41.5t35 0.5t31.5 1.5t32 2l-5 -34l-20 -1l-32 -2q-9 0 -15.5 -2.5t-11.5 -9t-9 -18.5
t-8 -31q-6 -28 -15 -73.5t-18.5 -98.5t-19 -109t-17.5 -103.5t-12.5 -81t-4.5 -43.5q0 -9 1.5 -14t9.5 -8t26 -5t51 -5l-6 -34q-45 2 -75.5 3t-62.5 1h-26t-33 -0.5t-45.5 -1.5t-63.5 -2l5 34q25 0 40.5 1.5t25 4.5t14 8.5t7.5 14.5l5.5 22t9 43t14 78t22.5 126h-25l-117 1
h-118h-26q-14 -78 -22 -126.5t-12.5 -77t-6 -42t-1.5 -20.5q0 -9 2 -14t9 -8.5t20 -5.5t34 -3q3 -1 8.5 -1t13.5 -1l-5 -34q-49 1 -76 2t-41.5 1.5t-20 0.5h-11.5h-15t-28 -0.5t-45.5 -1.5t-67.5 -2z" />
    <glyph glyph-name="I" unicode="I" horiz-adv-x="353" 
d="M-4 30q38 1 54 3.5t23 9.5q4 3 6.5 7t5.5 15.5t7 34.5t12 65q21 121 35.5 201t22.5 129.5t11.5 72.5t3.5 30q0 20 -13 27t-56 9l-21 1l4 34q25 -1 46 -2t40 -1.5t38 -0.5h41h39t34.5 0.5t34 1.5t38.5 2l-5 -34q-28 -1 -43.5 -2t-23.5 -3.5t-11 -6.5t-6 -12q-4 -9 -10 -33
t-14 -65t-18.5 -100.5t-24.5 -139.5q-12 -68 -18.5 -107t-9.5 -59.5t-3.5 -28.5t-0.5 -15q0 -17 11.5 -22.5t53.5 -8.5q3 -1 8.5 -1t13.5 -1l-5 -34q-49 1 -76 2t-41.5 1.5t-20 0.5h-11.5h-15t-28 -0.5t-45.5 -1.5t-67.5 -2z" />
    <glyph glyph-name="J" unicode="J" horiz-adv-x="341" 
d="M-73 -173q8 -2 11.5 -2h8.5q52 0 84 47q7 11 12.5 23.5t11 32t11 49t13.5 74.5q16 92 27 155.5t18.5 105t11.5 64.5l6 34.5t2.5 14.5t0.5 4q9 48 14.5 77.5t8 46.5t3.5 25.5t1 14.5q0 27 -27 35q-8 2 -22.5 3.5t-50.5 3.5l4 34q41 -1 69.5 -2t49 -1.5t35 -0.5h28.5h35
t31.5 0.5t33 1.5t39.5 2l-6 -34q-7 1 -14.5 1h-9.5q-19 0 -30.5 -1.5t-18.5 -8t-11.5 -19.5t-9.5 -35q-4 -17 -10 -50.5t-14 -75.5t-16 -89t-16 -89.5t-13.5 -77.5t-8.5 -54q-10 -68 -19.5 -114t-22 -78.5t-28.5 -55.5t-40 -45q-28 -26 -63 -39.5t-76 -13.5q-11 0 -20.5 1
t-25.5 3v10t-1 4v3.5t-2 9.5z" />
    <glyph glyph-name="K" unicode="K" horiz-adv-x="687" 
d="M-4 30q38 1 54 3.5t23 9.5q4 3 6.5 7t5.5 15.5t7 34.5t12 65q21 121 35.5 201t22.5 129.5t11.5 72.5t3.5 30q0 20 -13 27t-56 9l-21 1l4 34q25 -1 46 -2t40 -1.5t38 -0.5h42h38.5t34 0.5t34 1.5t38.5 2l-5 -34q-29 -1 -45 -2t-24.5 -4t-11.5 -10t-7 -19q-4 -14 -8 -31.5
t-9.5 -47t-14 -75t-20.5 -116.5q21 15 38.5 28.5t40.5 34t57 53t88 85.5l52 52t28 31.5t11 21t2 19.5q1 2 1 5.5v8.5q21 -2 34.5 -3t35.5 -1q24 0 43 1t46 3l-2 -34q-21 -1 -34.5 -3t-26 -8t-27.5 -17.5t-38 -31.5q-38 -33 -63 -55.5t-48.5 -44t-50.5 -46.5t-67 -62
q37 -49 76 -103t76 -108q25 -35 41 -57t25.5 -34.5t15 -18t9.5 -7.5q8 -4 18 -5.5t33 -3.5l-2 -34q-35 2 -56 3t-43 1q-21 0 -38 -1t-43 -3q-67 103 -124 182t-110 144q-15 -90 -23.5 -139.5t-12.5 -73.5t-4.5 -31.5t-0.5 -14.5q0 -17 11.5 -22.5t53.5 -8.5l22 -2l-5 -34
q-49 1 -76.5 2t-41.5 1.5t-19.5 0.5h-11.5h-15t-28 -0.5t-45.5 -1.5t-67.5 -2z" />
    <glyph glyph-name="L" unicode="L" horiz-adv-x="576" 
d="M12 30q33 7 46 11t18 11q3 4 7.5 20t11.5 49t16.5 86t22.5 131q16 92 24.5 142t12.5 74.5t4.5 31t0.5 12.5q0 10 -3 17t-12.5 10.5t-27.5 5.5t-49 4l6 34q30 -1 52 -2t40 -1.5t34.5 -0.5h34.5h33.5t32.5 0.5t38 1.5t52 2l-5 -34q-26 0 -42 -1.5t-26 -4t-15 -6.5t-7 -11
q-5 -12 -15.5 -64t-25 -129.5t-30.5 -173.5t-31 -195q35 -3 62 -4t62 -1q45 0 81 3.5t52 9.5q6 2 11 7t11 17t13 33.5t18 56.5h36q-10 -42 -15.5 -66t-8.5 -40.5t-5 -29.5t-5 -31l-4 -7q-21 -2 -37 -2.5t-49 -0.5l-108 1q-71 2 -116 3t-53 1h-23t-28.5 -0.5t-40 -1.5
t-58.5 -2z" />
    <glyph glyph-name="M" unicode="M" horiz-adv-x="935" 
d="M-13 30q50 1 63 16q3 0 7.5 11t13.5 41.5t23 84t37 137.5q12 45 23 85t19 72q16 56 21.5 80.5t5.5 36.5q0 10 -4 17t-14.5 11.5t-29 7.5t-48.5 5l5 34q25 -1 41.5 -2t29.5 -1.5t23 -0.5h22q24 0 45 1t55 3q8 -35 18.5 -76.5t25 -99t34.5 -136t49 -187.5q32 50 57.5 90.5
t47.5 76.5t43.5 70.5t44.5 73.5t49.5 84.5t60.5 103.5q32 -2 54 -3t54 -1h29.5t27 0.5t28 1.5t31.5 2l-5 -34h-9.5t-6.5 -1q-17 -1 -28 -2t-18.5 -4t-11.5 -8t-8 -13q-2 -5 -6.5 -22t-8.5 -37q-1 -5 -3 -15.5t-5.5 -31.5t-9.5 -55.5t-15 -86.5l-12.5 -75t-18.5 -104
q-6 -32 -9.5 -52t-5.5 -32.5t-2.5 -19.5t-0.5 -13q0 -9 2.5 -15t11.5 -9t26.5 -5t47.5 -4l-4 -34q-42 1 -68 2t-41.5 1.5t-23.5 0.5h-15h-19.5t-27 -0.5t-42 -1.5t-64.5 -2l3 34q7 1 12 1h7q22 1 35 3.5t20.5 7.5t10.5 14.5t6 25.5q2 11 6 34t10 55q12 69 23 131t19.5 113.5
t14.5 90t9 60.5q-49 -78 -86.5 -138t-68 -109.5t-55.5 -91t-48 -80.5t-46.5 -79.5t-50.5 -87.5h-25q-5 18 -13.5 51.5t-21.5 84.5q-23 87 -49 190t-56 226q-9 -34 -16 -62t-13 -53l-12 -50t-13 -53q-16 -64 -26.5 -107.5t-15.5 -59.5q-10 -40 -13.5 -57t-3.5 -27q0 -9 3 -15
t12 -9.5t25 -5.5t42 -3l-3 -34q-29 1 -46.5 2t-29.5 1.5t-19.5 0.5h-16.5h-18t-18.5 -0.5t-26.5 -1.5t-41 -2z" />
    <glyph glyph-name="N" unicode="N" horiz-adv-x="759" 
d="M-5 30h9.5t6.5 1q22 0 35 2.5t21 12t13 28t11 51.5q8 43 17.5 90t19.5 97q5 24 9 45.5t9.5 50.5t13 70.5t18.5 104.5q-12 15 -19.5 24t-13.5 13.5t-12.5 6.5t-15.5 4q-4 1 -20.5 2t-37.5 2l4 34q27 -2 43 -2.5t26 -1t16 -0.5h13q3 0 23 0.5t52 2.5l38 1q29 -51 60 -105.5
t68 -118t81 -138.5t100 -168q17 88 31.5 166.5t25 139t16.5 99t6 47.5q0 14 -3 22.5t-12 13t-26.5 6t-46.5 2.5l6 34q25 -2 41 -2.5t28 -1t21 -0.5h21h12t20.5 0.5t34.5 1.5t54 2l-5 -34q-26 0 -40.5 -1.5t-23 -5.5t-12 -12t-7.5 -22q-22 -99 -39.5 -180.5t-31 -152.5
t-24.5 -136t-21 -132h-85q-41 69 -81 138t-80 139q-35 62 -57.5 101.5t-37.5 66t-26 45.5t-24 41q-15 -79 -29.5 -156.5t-25 -141t-17 -107t-6.5 -53.5t3 -16.5t12 -10t26 -6t45 -3.5l-5 -34q-38 1 -58.5 2t-32 1.5t-17 0.5h-11.5q-8 0 -28.5 -0.5t-52.5 -2.5h-11.5
t-17.5 -1z" />
    <glyph glyph-name="O" unicode="O" horiz-adv-x="773" 
d="M449 641q-72 0 -121.5 -33.5t-81.5 -103.5q-29 -64 -45 -139.5t-16 -153.5q0 -91 47 -140.5t132 -49.5q60 0 107 28.5t77 84.5q35 65 55 145t20 159q0 97 -45.5 150t-128.5 53zM457 683q145 0 223.5 -72t78.5 -204q0 -91 -34.5 -174.5t-94.5 -143.5q-112 -109 -284 -109
q-130 0 -208 63q-45 35 -66 85t-21 121q0 97 32 182.5t89 145.5q106 106 285 106z" />
    <glyph glyph-name="P" unicode="P" horiz-adv-x="624" 
d="M-7 30l16 1q21 1 33.5 2.5t20.5 4.5t12 8.5t7 14.5q8 21 51 271q11 67 19 110.5t11 60.5q7 38 10 59t3 32q0 12 -2 19.5t-10.5 11.5t-26.5 6t-51 4l4 34q9 0 32 -1t49 -1.5t48.5 -1t28.5 -0.5q16 0 35 0.5t45 1.5q32 2 61 2.5t49 0.5q103 0 152.5 -39.5t49.5 -123.5
q0 -49 -19 -91.5t-52 -74t-78 -49.5t-96 -18q-26 0 -46.5 4.5t-51.5 15.5l-4 29l4 4q25 -8 39 -11t30 -3q31 0 57 14.5t45 40t30 61t11 76.5q0 122 -130 122q-20 0 -34 -1.5t-34 -5.5q-9 -40 -19 -94t-21 -113t-21 -118t-18 -107.5t-13 -82t-5 -41.5q0 -10 3 -16t13.5 -9.5
t30.5 -5.5t55 -3l-7 -34q-15 1 -27 1h-16q-56 2 -94.5 2.5t-43.5 0.5h-19.5t-25.5 -0.5t-37 -1.5t-56 -2z" />
    <glyph glyph-name="Q" unicode="Q" horiz-adv-x="773" 
d="M449 641q-72 0 -121.5 -33.5t-81.5 -103.5q-29 -64 -45 -139.5t-16 -153.5q0 -91 47 -140.5t132 -49.5q60 0 107 28.5t77 84.5q35 65 55 145t20 159q0 97 -45.5 150t-128.5 53zM729 -53q-4 -37 -16.5 -68t-31.5 -53t-43 -34.5t-52 -12.5q-18 0 -36 3.5t-39 12t-47 22
t-59 33.5q-46 27 -73.5 43t-45.5 24.5t-31 10.5t-28 2q-66 0 -77 -89l-6 -7l-21 11q-3 55 28 96.5t84 52.5q-184 54 -184 257q0 96 32 181t89 145q52 52 122.5 79t158.5 27q148 0 227 -71t79 -205q0 -55 -12.5 -107.5t-36 -99.5t-57 -86.5t-75.5 -67.5q-49 -32 -106 -49
t-122 -17h-13.5t-19.5 1q9 -4 25 -10.5t35 -15l38 -17t35 -15.5q39 -18 64.5 -28.5t43.5 -16.5t31.5 -8t28.5 -2q35 0 53.5 20t30.5 69z" />
    <glyph glyph-name="R" unicode="R" horiz-adv-x="687" 
d="M-3 30l19 1q22 1 35 3t20 6.5t10 13.5t6 25l16 85q5 20 12 63t18 107q8 47 15 89.5t15 80.5q13 68 13 92q0 12 -2.5 19.5t-11.5 11.5t-26.5 5.5t-47.5 2.5l4 34q13 -1 32.5 -1.5t40.5 -1t40 -1t33 -0.5q20 0 43 0.5t54 1.5q70 3 108 3q51 0 85.5 -7.5t57.5 -24.5
t36.5 -46t13.5 -63q0 -72 -51.5 -118.5t-150.5 -63.5q14 -26 55.5 -95t110.5 -183q8 -13 14.5 -20.5t14.5 -11.5t19 -5.5t28 -1.5l-2 -34q-23 1 -38 2t-24 1.5t-15 0.5h-11h-13t-15.5 -0.5t-24 -1.5t-38.5 -2q-11 22 -35 66t-54 95.5t-60.5 102t-53.5 86.5l5 17
q13 -2 20.5 -2.5t15.5 -0.5q29 0 60 8.5t53 22.5q28 19 44 53.5t16 76.5q0 54 -29.5 79t-92.5 25q-17 0 -33 -1.5t-42 -5.5q-10 -48 -20.5 -105.5t-21 -116.5t-20.5 -115.5t-17.5 -102.5t-12 -77t-4.5 -39q0 -9 3 -15t12.5 -9.5t27 -5t46.5 -2.5l-4 -34q-33 1 -54 2
t-36.5 1.5t-28 0.5h-27.5h-27t-30.5 -0.5t-41.5 -1.5t-59 -2z" />
    <glyph glyph-name="S" unicode="S" horiz-adv-x="526" 
d="M86 182q-1 -6 -1 -11v-7q-1 -14 -1.5 -22t-0.5 -13v-8.5t1 -12.5q22 -36 65 -57.5t92 -21.5q31 0 58 11t46.5 30.5t30.5 46t11 57.5q0 15 -5.5 29.5t-15.5 24.5q-9 8 -15.5 13t-19.5 10.5t-37 14.5t-67 24q-69 25 -102 64.5t-33 99.5q0 49 20 90.5t55 72.5t83 48.5
t104 17.5q47 0 82.5 -10.5t70.5 -33.5q-12 -54 -18 -85.5t-9 -59.5l-32 1v18q1 15 1 25v14v21q-48 59 -129 59q-29 0 -54.5 -9.5t-44.5 -25.5t-29.5 -38t-10.5 -47q0 -44 34 -72t113 -51q51 -14 78 -26.5t44 -29.5q38 -38 38 -106q0 -53 -21.5 -98.5t-59 -78.5t-89 -51.5
t-111.5 -18.5q-57 0 -100.5 13t-79.5 41q4 15 8 34t8 39.5t6.5 40.5t3.5 36z" />
    <glyph glyph-name="T" unicode="T" horiz-adv-x="603" 
d="M111 30h22q23 0 36.5 1.5t21.5 6t11.5 12.5t6.5 22q16 87 28 151t21 111.5t15.5 82.5t12 67t10.5 63.5t11 70.5h-24q-25 0 -50.5 -1.5t-46.5 -3.5t-35.5 -5t-18.5 -6q-5 -5 -14 -29.5t-20 -72.5h-35q4 20 7 37.5t5.5 36t5.5 40.5t6 50l6 5q97 -2 190 -3t178 -1h57
t47.5 0.5t45.5 1.5t53 2l7 -7q-3 -15 -6.5 -30t-10.5 -51q-4 -23 -7 -40t-6 -41h-35q1 22 1.5 35.5t1 22t0.5 14v10.5q0 17 -6.5 23t-26.5 8q-22 1 -35.5 1.5t-26.5 1t-30.5 1t-47.5 1.5q-23 -120 -41 -217t-30 -168.5t-18.5 -114.5t-6.5 -55q0 -10 1.5 -16t10.5 -9
t27.5 -4.5t52.5 -3.5l-3 -34q-48 1 -76 2t-45 1.5t-25.5 0.5h-17.5h-20t-29 -0.5t-44.5 -1.5t-64.5 -2z" />
    <glyph glyph-name="U" unicode="U" horiz-adv-x="766" 
d="M87 669q40 -2 65.5 -3t51.5 -1q25 0 47.5 1t57.5 3l7 -7q-17 -72 -33 -152.5t-29 -153t-21 -127t-8 -73.5q0 -40 28.5 -66t73.5 -26q49 0 94.5 27.5t95.5 87.5q35 205 52.5 309.5t17.5 109.5q0 25 -25 31q-3 1 -6.5 1.5t-10 1t-18 1.5t-29.5 2l5 34q28 -1 48 -2
t35.5 -1.5t29.5 -0.5h29h20t31.5 0.5t47.5 1.5t68 2l-5 -34l-18 -1l-28 -2q-12 -1 -19 -3t-11.5 -8t-8 -17.5t-8.5 -31.5q-5 -19 -13.5 -62t-18 -97t-20 -112.5t-18.5 -108.5t-13.5 -84.5t-5.5 -41.5q0 -9 2.5 -15t10 -10t22 -6t37.5 -4h7.5t11.5 -1l-5 -34q-41 2 -62.5 3
t-41.5 1h-14t-20.5 -0.5t-32 -1.5t-48.5 -2l-5 7q4 18 7 32.5t5.5 28.5t5 28.5t5.5 31.5q-37 -39 -67.5 -66t-59 -43.5t-56.5 -24t-59 -7.5q-38 0 -69.5 12t-54.5 33t-36 50t-13 63q0 17 2 39t7 46q13 69 24.5 133.5t20.5 116t14 85t5 40.5q0 24 -23 29q-3 0 -18.5 1.5
t-44.5 3.5z" />
    <glyph glyph-name="V" unicode="V" horiz-adv-x="617" 
d="M46 669q42 -1 69 -2t44.5 -1.5t28 -0.5h19.5h29t29 0.5t32 1.5t40 2l-2 -34l-18 -1q-21 -2 -33 -3.5t-17.5 -4.5t-7 -9t-1.5 -16q0 -6 1 -18t2.5 -27t4 -31.5t4.5 -29.5l56 -366l166 306q3 5 9.5 18t15 29t16 31l11.5 23q10 21 16.5 34.5t10 21.5t4.5 12.5t1 8.5
q0 15 -28 19h-4.5t-8 0.5t-15.5 1t-26 1.5l4 34q28 -1 46.5 -2t31 -1.5t22 -0.5h20.5q24 0 43.5 1t50.5 3l-4 -34q-5 -1 -9.5 -1.5t-6.5 -0.5q-12 -1 -18.5 -2t-11 -4t-8.5 -9t-10 -16q-5 -9 -24 -42q-4 -6 -7 -12l-6 -12l-218 -389q-8 -13 -14.5 -25t-13.5 -24
q-10 -19 -19.5 -37t-19.5 -36l-17 -32h-83q-2 11 -5.5 41.5t-11.5 78.5l-66 406q-5 30 -8 49t-6 30.5t-6 17.5t-6 9q-5 5 -18.5 6.5t-49.5 3.5z" />
    <glyph glyph-name="W" unicode="W" horiz-adv-x="978" 
d="M66 669q33 -1 57 -2t42.5 -1.5t35 -0.5h35.5h32t27 0.5t26.5 1.5t30.5 2l-2 -34q-28 0 -44 -1.5t-23.5 -6.5t-9.5 -14.5t-2 -26.5q0 -10 0.5 -27.5t2.5 -32.5l34 -381q48 98 80.5 162.5t52.5 106.5q55 113 86.5 178t39.5 82h31q7 -25 12 -42t10 -36t11.5 -43t17.5 -63
l95 -359l112 289q23 61 36 95t19 51.5t7 24.5t1 14q0 9 -3 14.5t-12 8.5t-26 4.5t-44 2.5l4 34q34 -2 58.5 -3t56.5 -1q29 0 50 1t50 3l-3 -34q-8 -1 -13 -1t-9 -1q-10 -1 -15.5 -2.5t-9.5 -4.5t-7.5 -9t-8.5 -17l-24 -55l-11 -27l-158 -382q-10 -24 -17 -41t-13 -32
t-12 -31.5t-15 -38.5h-82q-4 14 -12.5 46t-25.5 99l-93 341l-126 -252l-116 -234h-83q-1 13 -4.5 53t-9.5 108l-28 308q-15 142 -23 155q-2 5 -5 8.5t-9 5t-16 2.5t-26 2h-14z" />
    <glyph glyph-name="X" unicode="X" horiz-adv-x="678" 
d="M-31 30q9 1 17.5 1.5t11.5 1.5q25 2 34.5 5.5t22.5 15.5q3 2 5.5 4.5l7.5 7.5t13.5 14.5t23.5 25.5q8 9 14.5 16t11.5 13l171 181l-103 199q-18 35 -29.5 55.5t-18 32t-11 16t-8.5 6.5q-5 4 -23 6t-54 4l2 34q19 -1 35.5 -2t34 -1.5t38.5 -0.5h50h50t38.5 0.5t34 1.5
t35.5 2l-1 -34q-27 -1 -42 -1.5t-23 -2.5t-10 -6t-2 -10q0 -7 9 -28.5t26 -54.5l62 -121l78 85q45 49 68.5 80t23.5 40q0 10 -18 14t-66 5l3 34q32 -1 53.5 -2t36.5 -1.5t25 -0.5h20h23.5t24 0.5t31 1.5t43.5 2l-3 -34h-21q-14 -1 -22.5 -2t-15 -3.5t-12.5 -7t-15 -12.5
q-19 -18 -35 -34t-42 -43l-158 -165l111 -216q3 -6 7.5 -15.5t10.5 -22.5q17 -35 24.5 -48.5t12.5 -18.5q5 -8 13 -10.5t30 -4.5q4 0 12.5 -0.5t19.5 -1.5l-2 -34q-37 1 -61 2t-39 1.5t-24.5 0.5h-18.5h-16.5t-28.5 -0.5t-46 -1.5t-68 -2l1 34l15 1q13 1 20.5 1h9.5
q34 0 34 19q0 9 -8 29t-31 62l-68 131l-90 -98q-43 -48 -66.5 -78.5t-23.5 -40.5q0 -18 30 -22q2 0 4 -0.5t7.5 -1t15.5 -1t29 -1.5l-3 -34q-30 1 -49 2t-31.5 1.5t-21.5 0.5h-18q-4 0 -31.5 -0.5t-69.5 -2.5h-15t-24 -1z" />
    <glyph glyph-name="Y" unicode="Y" horiz-adv-x="568" 
d="M111 30q33 1 51.5 3t28.5 6t13 12t6 22q6 28 10.5 55.5t8.5 50.5t6 41t2 26q0 12 -6 39.5t-15.5 61t-21.5 69.5t-23 64q-13 33 -26 54.5t-28.5 34.5t-35 18.5t-44.5 5.5h-14.5t-18.5 -2l-1 30q22 10 37 17t27 13t23.5 12t26.5 15q18 3 32 3q30 0 58.5 -19.5t45.5 -53.5
q11 -22 18 -37.5t14.5 -41t18 -70t28.5 -125.5q1 -2 3.5 -12t5.5 -25q34 81 70.5 145.5t82.5 124.5q48 59 80.5 83t64.5 23l9 -7l-14 -83q-24 -6 -45.5 -17t-42 -29t-42 -44t-46.5 -62q-21 -32 -37.5 -60.5t-28.5 -57t-21 -58.5t-16 -64q-3 -18 -6.5 -38t-6.5 -37.5
t-5 -30.5t-2 -17q0 -14 7 -23q4 -3 7 -4.5t9.5 -3t19.5 -2.5t37 -3q2 0 7.5 -0.5t12.5 -1.5l-4 -34q-30 1 -51.5 2t-38.5 1.5t-32.5 0.5h-34.5h-33.5t-33.5 -0.5t-41.5 -1.5t-58.5 -2z" />
    <glyph glyph-name="Z" unicode="Z" horiz-adv-x="633" 
d="M86 500q4 20 8.5 44t8.5 46.5t6.5 41.5t3.5 28l7 9q16 0 53.5 -1t81 -1.5t84 -1t63.5 -0.5h85t67 0.5t55 1.5t48 2l-2 -34q-42 -50 -77 -91.5t-67.5 -81t-66 -80.5t-72.5 -89.5t-86 -108t-108 -135.5h40l100 -1q58 1 97.5 2.5t64.5 3.5t38.5 6t18.5 9q4 4 8 9.5t9 17
t11.5 30.5t16.5 50h35l-5 -24q-5 -17 -8.5 -34.5t-7.5 -34.5q-7 -30 -10 -45.5t-6 -36.5l-6 -5q-83 1 -133 2t-80.5 1.5t-46.5 0.5h-30q-23 0 -56 -0.5t-72 -1t-80.5 -1t-80.5 -1.5l-2 28q31 35 70 81t82.5 98t89 107.5t89 110t83.5 105t72 92.5q-76 -2 -127.5 -3t-85 -2
t-53 -2.5t-31.5 -2.5q-17 -3 -22.5 -7t-11.5 -20l-17 -52l-10 -29h-35z" />
    <glyph glyph-name="bracketleft" unicode="[" horiz-adv-x="318" 
d="M243 -177q-26 2 -47.5 3t-52.5 1h-28.5t-25 -0.5t-26 -1t-29.5 -1.5l-6 7q8 37 19.5 98t24 136t25.5 159.5t25.5 169t23.5 164.5t19 146l7 7q20 -1 39.5 -1.5t48.5 -0.5q37 0 60.5 1t50.5 3l-4 -33q-43 0 -61 -1.5t-28 -4.5q-10 -2 -15.5 -18t-13.5 -66q-2 -14 -9.5 -57
t-19.5 -110q-15 -88 -29 -174t-24 -159t-16 -126.5t-6 -75.5q0 -18 12.5 -24t50.5 -7q5 -1 15.5 -1t24.5 -1z" />
    <glyph glyph-name="backslash" unicode="\" horiz-adv-x="424" 
d="M102 693q13 -2 21 -3t19 -1q10 0 19 0.5t23 2.5q1 -12 2 -20t2.5 -17t4 -20.5t6.5 -29.5l136 -595q6 -23 10 -37t6.5 -23t5 -16.5t5.5 -17.5l-2 -5q-35 3 -48 3h-14.5t-20.5 -2q-2 13 -3 21.5t-2.5 16.5t-4 18.5t-7.5 29.5l-133 591q-10 41 -15.5 61.5t-11.5 37.5z" />
    <glyph glyph-name="bracketright" unicode="]" horiz-adv-x="318" 
d="M84 713q27 -2 48 -3t53 -1q29 0 53.5 0.5t54.5 2.5l6 -6q-8 -37 -19 -98t-23.5 -136t-26 -160t-26 -169.5t-23.5 -164.5t-19 -146l-7 -7q-20 2 -39.5 2.5t-47.5 0.5q-38 0 -61.5 -1t-50.5 -4l4 34q43 0 61 1t28 4q5 1 9 5t7 13t6.5 25t7.5 42q2 12 9.5 55.5t18.5 110.5
q16 89 29.5 175.5t24 159t16.5 125.5t6 76q0 17 -12.5 23t-50.5 8l-41 1z" />
    <glyph glyph-name="asciicircum" unicode="^" horiz-adv-x="443" 
d="M100 452l141 246h50l150 -246l-63 -19l-111 182l-105 -182z" />
    <glyph glyph-name="underscore" unicode="_" horiz-adv-x="500" 
d="M457 -80v-54h-500v54h500z" />
    <glyph glyph-name="grave" unicode="`" horiz-adv-x="500" 
d="M329 530l-118 84q-27 18 -34.5 27.5t-7.5 24.5q0 17 12 27.5t29 10.5t29.5 -9.5t33.5 -38.5l95 -126h-39z" />
    <glyph glyph-name="a" unicode="a" 
d="M342 397q-14 8 -33.5 12.5t-34.5 4.5q-33 0 -54 -22.5t-40 -78.5q-10 -30 -18.5 -60.5t-14.5 -59.5t-9.5 -53.5t-3.5 -42.5q0 -14 4.5 -23.5t12.5 -9.5q10 0 25 11t32.5 29.5t36.5 44t37 55.5q31 51 47.5 95t23.5 92q-4 2 -4.5 2.5t-2.5 1.5zM479 454q-7 -20 -16 -53
t-18 -70.5t-17.5 -75t-14.5 -65.5q-7 -32 -11 -52t-5 -24q-2 -8 -3 -16.5t-1 -13.5q0 -8 4 -14t9 -6q8 0 24 10t50 36l10 -31q-64 -51 -103.5 -74t-62.5 -23q-16 0 -25.5 13t-9.5 33q0 11 1 22.5t5 29.5l10 45t17 70q1 4 3 11t4 18q-30 -52 -52.5 -84.5t-47.5 -60.5
q-39 -45 -80 -71t-71 -26q-26 0 -40.5 22.5t-14.5 63.5q0 28 6 64.5t15.5 73t21.5 69t25 53.5q4 7 8.5 12.5t12.5 13t22 18t37 28.5q27 20 46 33t35 20.5t30.5 10.5t31.5 3q48 0 105 -27l44 26z" />
    <glyph glyph-name="b" unicode="b" horiz-adv-x="517" 
d="M334 398q-11 0 -27 -7.5t-33 -20.5t-33.5 -29t-28.5 -34q-27 -39 -43 -92t-16 -103q0 -39 17.5 -61t48.5 -22q35 0 64.5 26.5t50.5 77.5q19 43 30.5 94.5t11.5 89.5q0 81 -42 81zM239 592q-17 -86 -32 -157t-27 -128q52 75 115.5 117.5t123.5 42.5q20 0 32 -7.5t21 -24.5
q8 -17 12.5 -37.5t4.5 -46.5q0 -87 -30 -161.5t-82 -119.5q-22 -18 -50 -34t-57 -28t-57.5 -19t-52.5 -7q-54 0 -83.5 29t-29.5 81q0 13 0.5 24.5t3 29.5t7.5 46.5t14 76.5q0 1 1.5 10t4 21.5t5 28.5t5.5 32q5 31 8.5 50t5.5 33l14 75l11 69q3 16 3 29q0 8 -2 12.5t-9.5 6.5
t-23.5 3t-43 2l6 28q53 5 105.5 17.5t87.5 28.5l12 -11z" />
    <glyph glyph-name="c" unicode="c" horiz-adv-x="414" 
d="M392 88q-29 -24 -59.5 -43.5t-60.5 -33.5t-58 -21.5t-52 -7.5q-61 0 -96 35.5t-35 98.5q0 67 19.5 129.5t51.5 101.5q18 21 42 41t56 38q37 22 65.5 31.5t57.5 9.5q25 0 50 -5.5t56 -19.5q-11 -35 -20 -70.5t-14 -67.5h-34q4 21 5.5 32.5t1.5 18.5q0 10 -8 20t-21.5 18
t-30.5 13t-34 5q-32 0 -58 -22.5t-41 -63.5q-7 -18 -12.5 -40t-9.5 -44.5t-6.5 -44.5t-2.5 -41q0 -53 19 -80.5t54 -27.5t81.5 20.5t90.5 55.5z" />
    <glyph glyph-name="d" unicode="d" horiz-adv-x="528" 
d="M361 400q-13 7 -36 11.5t-46 4.5q-19 0 -31.5 -3t-22.5 -12.5t-19 -27t-19 -45.5q-11 -27 -19.5 -58.5t-15.5 -62.5t-10.5 -59.5t-3.5 -49.5q0 -34 20 -34q12 0 28.5 11t35.5 30.5t38.5 45.5t37.5 56q26 44 41.5 88t25.5 103zM502 82q-35 -27 -61 -46t-45.5 -31
t-33.5 -17.5t-24 -5.5q-17 0 -27.5 14t-10.5 35q0 18 10 64.5t33 133.5q-14 -26 -26.5 -46t-24.5 -37t-24.5 -32.5t-27.5 -31.5q-21 -22 -42 -40.5t-41.5 -31.5t-38 -20.5t-30.5 -7.5q-29 0 -45.5 27t-16.5 72q0 34 5.5 70.5t15 71.5t23 67.5t29.5 57.5q10 16 26.5 29
t54.5 38q24 15 42 25t33 16t28 8.5t28 2.5q14 0 29 -2.5t36 -8.5q4 23 8.5 48.5t8.5 48.5t6 40t2 22q0 16 -10.5 21t-45.5 5h-25l6 28q26 3 53.5 7.5t53 10.5t48 13t40.5 15l11 -11q-2 -13 -6.5 -32.5t-10.5 -46.5q-21 -96 -40.5 -189t-34 -168t-23.5 -124.5t-9 -59.5
q0 -19 11 -19q4 0 8 1.5t12 6t20.5 12.5t33.5 22z" />
    <glyph glyph-name="e" unicode="e" horiz-adv-x="426" 
d="M149 221q3 1 4 1t6 1q21 4 42.5 11t39.5 17q17 9 31 22.5t24.5 30t16.5 34.5t6 36q0 20 -13 33t-34 13q-55 0 -87 -75q-6 -13 -10 -24t-7.5 -24t-8 -31t-10.5 -45zM376 84q-61 -48 -121.5 -75t-104.5 -27q-57 0 -89.5 31.5t-32.5 86.5q0 25 4 55t11 59t16 55.5t20 45.5
q16 29 38.5 52.5t57.5 46.5q42 28 77 40.5t69 12.5q91 0 91 -81q0 -38 -15 -67.5t-47 -52.5t-82.5 -41t-122.5 -33q-3 -23 -4 -36t-1 -27q0 -80 76 -80q61 0 159 66z" />
    <glyph glyph-name="f" unicode="f" horiz-adv-x="314" 
d="M374 445q-6 -13 -8.5 -21.5t-6.5 -27.5q-20 1 -32.5 1h-34.5h-26t-29 -1l-34 -145q-21 -89 -34 -143.5t-23.5 -90t-19.5 -58t-21 -47.5q-19 -40 -45 -74.5t-55 -59.5t-58.5 -39.5t-55.5 -14.5q-9 0 -17.5 1t-22.5 5q7 19 17 51t18 58l13 3q20 -45 57 -45q24 0 38 16.5
t26 60.5q8 27 17.5 71t19.5 94l66 357q-24 1 -30 1h-10h-11.5t-25.5 -1h-15l5 26q5 1 8.5 2t8.5 2t13 3t22 5q13 3 23.5 6t23.5 8l9 41q5 23 11.5 41.5t17 34.5t25.5 31t36 33q98 84 167 84q17 0 30.5 -4t32.5 -15q-15 -39 -24 -65.5t-16 -52.5l-18 -4q-19 38 -35 53.5
t-39 15.5q-26 0 -39 -19t-24 -70l-2 -10t-2 -11l-19 -86q25 1 40.5 2t28.5 1.5t25 1.5t29 3z" />
    <glyph glyph-name="g" unicode="g" horiz-adv-x="479" 
d="M157 -3q-18 -9 -28.5 -14.5t-17.5 -9.5t-12.5 -7t-11.5 -7q-53 -34 -53 -92q0 -45 36 -72t98 -27q59 0 95.5 25t36.5 66q0 22 -15.5 41.5t-49.5 42.5q-18 12 -29 19.5t-19.5 13.5t-15 10.5t-14.5 10.5zM258 425q-48 0 -72 -39q-17 -26 -25.5 -59.5t-8.5 -68.5
q0 -41 19.5 -63.5t54.5 -22.5q22 0 40.5 12.5t32 35t21 53t7.5 66.5q0 86 -69 86zM526 439q-2 -11 -3.5 -17t-2 -10.5t-1.5 -9t-2 -10.5q-39 1 -63 1.5t-33 0.5q7 -16 9 -27t2 -27q0 -50 -21.5 -91.5t-59.5 -65.5q-22 -14 -48 -23t-64 -17q-9 -14 -12.5 -22t-3.5 -16
t3.5 -15t14 -16.5t29 -23t48.5 -33.5q50 -34 69 -60t19 -62q0 -34 -19.5 -64t-53 -52t-78.5 -34.5t-97 -12.5q-77 0 -141 28q-71 33 -71 100q0 56 51 93q11 8 19 13t20 10.5t31 12.5t52 19q3 2 7 3t9 3q-14 14 -20 24.5t-6 22.5q0 8 2 14t7 14q6 3 9.5 5t7 4.5t9 5t14.5 7.5
q17 10 24.5 14.5t19.5 13.5q-7 -1 -12 -1h-8q-61 0 -97 32.5t-36 88.5q0 25 6.5 50t18.5 46.5t28 38.5t35 26q94 47 143 47q13 0 22.5 -0.5t19.5 -3t21.5 -6t28.5 -9.5q5 -2 21 -3t41 -1q19 0 39.5 1t47.5 3z" />
    <glyph glyph-name="h" unicode="h" horiz-adv-x="535" 
d="M508 82q-37 -28 -65 -47t-49 -31t-36.5 -17t-28.5 -5q-17 0 -27 12.5t-10 34.5q0 17 4.5 40t17.5 68q11 41 21 78.5t17 67.5t11 49.5t4 24.5q0 19 -18 19q-14 0 -32.5 -10.5t-38 -29t-39 -43.5t-36.5 -54q-31 -54 -47.5 -108.5t-23.5 -125.5q-11 0 -19.5 -1t-19.5 -3
t-26.5 -5.5t-39.5 -8.5l-9 12q11 40 19.5 73.5t16.5 70.5t17.5 82.5t22.5 109.5q8 43 16.5 90t15.5 87.5t11.5 69t4.5 33.5q0 8 -2.5 13t-10.5 7.5t-23.5 3.5t-42.5 2l7 28q62 8 108.5 18.5t85.5 27.5l12 -11q-5 -21 -14 -59t-19 -83t-20.5 -93t-19.5 -88
q-6 -30 -10.5 -48.5t-7.5 -32t-5.5 -25.5t-6.5 -28q18 27 33 48t30 38.5t30.5 32.5t33.5 30q88 71 145 71q43 0 43 -44q0 -9 -2 -23t-8 -39t-17 -65t-28 -101q-14 -46 -19 -70.5t-5 -38.5q0 -9 4 -15t9 -6q18 0 74 42z" />
    <glyph glyph-name="i" unicode="i" horiz-adv-x="299" 
d="M245 690q23 0 37 -14t14 -38q0 -34 -19 -56t-48 -22q-26 0 -40.5 14.5t-14.5 39.5q0 33 19.5 54.5t51.5 21.5zM272 82q-71 -53 -113.5 -76.5t-65.5 -23.5q-18 0 -28 13t-10 36q0 11 1.5 22.5t5 30t10.5 47t19 72.5q19 71 26.5 105.5t7.5 47.5q0 15 -12 15q-3 0 -6 -0.5
t-9 -3.5t-17 -10t-31 -19q-3 -2 -10 -6.5t-15 -8.5l-12 26q33 22 51 34.5t27.5 19.5t14.5 10t12 8q67 46 103 46q14 0 22 -10.5t8 -27.5q0 -14 -4.5 -34.5t-15.5 -61.5q-13 -45 -24 -87.5t-19.5 -77t-13.5 -57.5t-5 -29q0 -18 13 -18q18 0 75 43z" />
    <glyph glyph-name="j" unicode="j" horiz-adv-x="263" 
d="M245 690q23 0 37 -14t14 -38q0 -34 -19 -56t-48 -22q-25 0 -39.5 14.5t-14.5 39.5q0 33 19.5 54.5t50.5 21.5zM-117 -183q13 -25 27 -35.5t34 -10.5q57 0 80 92q6 26 16 71t20.5 97.5t21 107t19 100t14 77t5.5 38.5t-3 12t-8 5q-11 0 -24 -9q-11 -7 -19 -12t-15 -9.5
t-14 -8.5t-16 -10l-13 26q57 40 91.5 63.5t56 36t34.5 16t25 3.5q14 0 22.5 -10.5t8.5 -27.5q0 -9 -1 -18.5t-4.5 -27.5t-10.5 -48.5t-19 -81.5q-19 -80 -32 -134.5t-22.5 -92t-16.5 -60.5t-14 -40t-15 -30.5t-19 -30.5q-42 -66 -93 -104.5t-99 -38.5q-9 0 -16.5 1t-19.5 4
l7 90h12z" />
    <glyph glyph-name="k" unicode="k" horiz-adv-x="510" 
d="M501 71q-44 -29 -71 -46.5t-44 -27t-27.5 -12.5t-19.5 -3q-16 0 -28 15t-28 53q-2 4 -18.5 48.5t-48.5 130.5q-18 -16 -31.5 -36t-24 -47t-17.5 -61.5t-11 -79.5q-14 -1 -24.5 -2t-22 -3t-25 -5t-34.5 -8l-8 12q19 69 36.5 145.5t37.5 178.5q9 44 17.5 92.5t16 90.5
t12 71.5t4.5 35.5q0 9 -2.5 14.5t-11 8.5t-24 4t-40.5 1l6 28q63 8 110 19t85 27l12 -11q-21 -89 -37 -159t-28.5 -127.5t-22 -105t-16.5 -90.5q33 39 54 63.5t35.5 41t26 28.5t26.5 26q47 45 85.5 65.5t76.5 20.5q8 0 13.5 -1t13.5 -3l3 -6q-7 -24 -10.5 -39t-5.5 -32
l-5 -3q-14 5 -23.5 7t-20.5 2q-75 0 -145 -78q23 -63 36 -97.5t20.5 -54t12.5 -30.5t13 -26q10 -19 22 -30t24 -11q10 0 24.5 7t41.5 27z" />
    <glyph glyph-name="l" unicode="l" horiz-adv-x="284" 
d="M257 82q-43 -29 -73 -48.5t-51 -31t-35.5 -16t-26.5 -4.5q-38 0 -38 58q0 14 1 27t5 34.5t11.5 56.5t20.5 93q36 164 55 256.5t19 106.5q0 9 -2.5 14t-10.5 7.5t-24 3.5t-43 1l6 29q58 6 109 18t88 28l12 -11q-4 -16 -10 -42t-13 -57t-14.5 -64.5t-14.5 -64t-13 -56.5
t-9 -41q-14 -65 -24 -109.5t-16 -74.5l-9.5 -47.5t-5 -28t-2 -17t-0.5 -13.5q0 -23 14 -23q5 0 9 1t12 5t21.5 12t37.5 23z" />
    <glyph glyph-name="m" unicode="m" horiz-adv-x="823" 
d="M795 82q-41 -31 -69 -50.5t-47.5 -30.5t-33 -15t-26.5 -4q-17 0 -28 13t-11 34q0 10 1 19t4.5 25.5t10.5 45t20 76.5q10 37 16.5 63.5t10.5 45t6 30.5t2 20q0 22 -15 22q-12 0 -30.5 -13t-39.5 -33.5t-41.5 -47t-35.5 -53.5q-12 -23 -23.5 -50.5t-20.5 -57.5t-15.5 -59.5
t-9.5 -56.5q-14 -1 -24.5 -2t-21.5 -3t-24.5 -5t-32.5 -8l-12 12q14 38 29.5 90t28 103.5t20.5 94.5t8 63q0 25 -18 25q-10 0 -24.5 -9.5t-31.5 -26.5t-36 -40.5t-37 -51.5q-64 -100 -81 -242q-17 -2 -28 -3.5l-22 -3t-24 -4.5t-33 -7l-9 12q19 60 30.5 99.5t19.5 74.5
q6 23 11.5 51t10 54t7 47t2.5 30q0 20 -12 20q-7 0 -20 -8q-12 -8 -19 -13t-18 -12q-12 -8 -17 -11t-12 -8l-13 25q16 12 28 20.5t22.5 16t20.5 14.5t22 16q39 29 62.5 40.5t39.5 11.5q30 0 30 -31q0 -11 -4.5 -33.5t-15.5 -69.5q-5 -20 -8 -34t-6 -26.5t-5.5 -24.5
t-5.5 -28q15 26 28 46.5t25 38t25 32.5t28 30q45 47 88.5 73.5t74.5 26.5q17 0 26 -11t9 -31q0 -9 -1 -17.5t-4.5 -24.5t-11 -45t-20.5 -79q-1 -3 -3 -13t-7 -26q25 48 50.5 83.5t58.5 67.5q21 21 44.5 38.5t47 30t44.5 20t38 7.5q35 0 35 -45q0 -12 -1 -22t-4.5 -27.5
t-11.5 -47t-21 -80.5q-18 -68 -27.5 -109.5t-9.5 -52.5q0 -8 4 -13t9 -5q8 0 24.5 9.5t49.5 32.5z" />
    <glyph glyph-name="n" unicode="n" horiz-adv-x="561" 
d="M534 82q-22 -17 -36 -27t-23 -16.5t-16 -11.5t-16 -11q-24 -16 -47.5 -25t-40.5 -9q-37 0 -37 46q0 16 4.5 38.5t17.5 67.5q26 94 38 146.5t12 69.5q0 21 -18 21q-11 0 -26 -10t-32.5 -26.5t-36 -39.5t-34.5 -48q-31 -48 -51 -111t-28 -131q-14 -1 -25 -2.5t-23 -3.5
t-26 -5t-33 -7l-10 12q9 30 15.5 51t12 39.5t10.5 37.5t11 44q7 28 13 56.5t10.5 53.5t7 44.5t2.5 29.5q0 20 -12 20q-14 0 -86 -52l-14 26q54 38 87.5 61.5t54.5 36t33 16.5t22 4q14 0 22 -9t8 -23q0 -16 -12 -69.5t-34 -137.5q19 30 33 51.5t26.5 37.5t25 30t28.5 29
q46 44 87 67.5t72 23.5q42 0 42 -47q0 -10 -1 -19t-6 -30.5t-16 -64t-32 -119.5q-22 -81 -22 -102q0 -20 13 -20q9 0 24.5 9t50.5 33z" />
    <glyph glyph-name="o" unicode="o" horiz-adv-x="520" 
d="M289 426q-66 0 -100 -82q-9 -22 -16.5 -47.5t-13 -52.5t-8.5 -53.5t-3 -50.5q0 -115 81 -115q67 0 101 85q9 21 16 46t12 51t8 51.5t3 48.5q0 119 -80 119zM324 467q161 0 161 -157q0 -65 -22.5 -128.5t-60.5 -105.5q-39 -43 -98.5 -68.5t-120.5 -25.5q-149 0 -149 148
q0 77 22.5 143t62.5 108t93 64t112 22z" />
    <glyph glyph-name="p" unicode="p" horiz-adv-x="548" 
d="M168 58q47 -25 94 -25q33 0 56 24t46 82q19 50 29.5 101.5t10.5 94.5q0 53 -23 53q-15 0 -35 -11t-41 -30t-41 -44t-35 -52q-19 -34 -34.5 -83.5t-26.5 -109.5zM18 352l24 17q38 28 66 46.5t48 30t34.5 16.5t26.5 5q11 0 18.5 -9t7.5 -23q0 -7 -1 -15t-4.5 -25
t-11.5 -48.5t-22 -85.5q15 24 28 42t25 33t24 28t27 26q39 35 81.5 56t72.5 21q27 0 42 -32.5t15 -90.5q0 -26 -6.5 -59t-17 -66t-23.5 -61.5t-27 -46.5q-29 -38 -107 -85q-20 -12 -36 -20t-30.5 -13t-28.5 -7t-30 -2q-14 0 -26 1.5t-31 5.5q-13 -51 -21.5 -86.5
t-13.5 -62.5t-8 -48.5t-5 -43.5q-35 -5 -62.5 -10.5t-47.5 -10.5l-10 9q15 53 27 100.5t23.5 92.5t21.5 90.5t21 93.5q13 60 22 102.5t15 71t8.5 44t2.5 21.5q0 19 -13 19q-8 0 -24.5 -8.5t-60.5 -36.5z" />
    <glyph glyph-name="q" unicode="q" horiz-adv-x="503" 
d="M366 392q-27 13 -44 17.5t-37 4.5q-18 0 -32 -4.5t-25.5 -14.5t-21 -27.5t-19.5 -42.5q-10 -27 -20 -60.5t-17.5 -66t-12.5 -60t-5 -43.5q0 -15 6 -24.5t16 -9.5q9 0 23.5 8.5t31.5 23t34.5 34t34.5 42.5q19 26 33 50t24 50t17.5 55.5t13.5 67.5zM491 475l9 -7
q-13 -38 -22 -68.5t-19 -69t-21.5 -92t-29.5 -137.5q-11 -51 -22 -104t-22 -109q-6 -28 -9.5 -46t-5.5 -33t-4 -28.5t-3 -32.5q-14 -1 -25.5 -2.5t-25 -3.5t-32 -5.5t-45.5 -8.5l-10 20q9 10 15.5 19.5t11.5 21t9.5 27t10.5 38.5q4 20 7 34.5t7 30.5t8.5 35.5t11.5 49.5
l19 87l17 73l6 25q-5 -5 -8.5 -10t-8.5 -12q-20 -26 -35.5 -45t-29.5 -34.5t-29 -28.5t-33 -26q-32 -23 -62 -37t-50 -14q-23 0 -36 23t-13 63q0 28 7 67t17.5 77t23.5 70.5t26 49.5q4 6 9 11t15 13.5t26 20.5t42 32q22 17 39 28t32 18t29 9.5t30 2.5q56 0 113 -28z" />
    <glyph glyph-name="r" unicode="r" horiz-adv-x="387" 
d="M17 349l12 8t11 8q17 13 33.5 25t33.5 25q36 27 60.5 39.5t41.5 12.5q29 0 29 -37q0 -9 -2 -22.5t-6.5 -35.5t-12.5 -54t-19 -77h7q27 62 50 104.5t44 69t41.5 38.5t43.5 12q7 0 13 -1t17 -4q-20 -77 -20 -132l-11 -7q-16 12 -26.5 16.5t-22.5 4.5q-35 0 -62.5 -33
t-55.5 -105q-17 -44 -29.5 -96.5t-17.5 -102.5q-22 -3 -36.5 -5t-25.5 -4t-21 -4t-23 -5l-10 12q13 43 26.5 96.5t24 104t17.5 91.5t7 60q0 21 -13 21q-4 0 -9 -1.5t-14 -6.5t-24 -15t-40 -26z" />
    <glyph glyph-name="s" unicode="s" horiz-adv-x="413" 
d="M60 148v-11v-23v-11q43 -70 126 -70q41 0 67 21t26 55q0 25 -17 39q-6 6 -11 9.5t-15.5 7.5t-29.5 9.5t-53 16.5q-52 16 -76 42.5t-24 68.5q0 34 16.5 64.5t44.5 52.5t66 35t82 13q72 0 123 -34q-8 -39 -13 -66.5t-7 -46.5h-26q-2 12 -2.5 19t-1 11.5t-1 8t-1.5 8.5
q-45 53 -111 53q-32 0 -56 -21.5t-24 -51.5q0 -15 5 -26t18 -20t34.5 -16.5t54.5 -16.5q66 -17 92 -40.5t26 -67.5q0 -36 -18.5 -68.5t-50 -56.5t-73.5 -38.5t-88 -14.5q-33 0 -66 7t-68 23q6 23 12.5 61t11.5 75h28z" />
    <glyph glyph-name="t" unicode="t" horiz-adv-x="350" 
d="M315 98q-82 -62 -129.5 -89t-74.5 -27q-26 0 -40.5 17.5t-14.5 46.5q0 10 2 23.5t7 40.5t15 72t27 118q6 27 10.5 48t9.5 48h-107l4 26q19 4 50 11.5t63 15.5q6 35 9.5 56.5t5 36t2 25t0.5 23.5q25 4 58 14.5t62 23.5l12 -12q-3 -10 -8.5 -28t-11.5 -41t-12 -49t-12 -51
q12 -1 18.5 -1h13.5q32 0 57.5 1t45.5 3l4 -3q-7 -20 -9 -29t-5 -26q-31 1 -50 2t-33 1.5t-25.5 0.5h-26.5q-13 -53 -24 -104t-19.5 -93t-13.5 -71t-5 -39q0 -12 6 -19.5t17 -7.5q31 0 110 63z" />
    <glyph glyph-name="u" unicode="u" horiz-adv-x="537" 
d="M510 82q-44 -32 -72.5 -51.5t-47 -30.5t-30.5 -14.5t-24 -3.5q-32 0 -32 41q0 9 0.5 17t5 26t13 53t25.5 98q-31 -52 -65 -95t-67.5 -74t-65 -48.5t-56.5 -17.5q-22 0 -34.5 15.5t-12.5 42.5q0 10 1 19t4.5 25.5t10.5 44t19 74.5q31 123 31 155q0 20 -13 20
q-5 0 -11.5 -2t-13.5 -7q-5 -3 -8.5 -5t-8.5 -5t-12 -7t-18 -11l-11 27q1 0 3 1.5t10 7t25.5 17t49.5 32.5q29 20 56 30.5t45 10.5q31 0 31 -37q0 -9 -2.5 -23.5t-8.5 -40.5t-16.5 -66.5t-26.5 -101.5q-6 -25 -10.5 -42t-7 -28.5t-3.5 -19t-1 -13.5q0 -11 4.5 -17.5
t12.5 -6.5q9 0 24.5 10.5t33 28.5t36 41.5t34.5 49.5q68 111 82 245q23 1 53.5 6t53.5 13l8 -7q-20 -70 -36.5 -132.5t-28.5 -112t-19 -82.5t-7 -45q0 -8 4.5 -14.5t10.5 -6.5q7 0 26 12t43 30z" />
    <glyph glyph-name="v" unicode="v" horiz-adv-x="519" 
d="M340 407q13 10 16 12.5t10 8.5q3 3 8.5 7t10 8t8.5 7.5l4 3.5q2 1 4.5 3.5t7.5 6.5q10 2 14.5 2.5t9.5 0.5q33 0 51.5 -26t18.5 -74q0 -54 -25 -120t-70 -128q-47 -65 -101.5 -101t-105.5 -36q-23 0 -44 8.5t-37 23.5q-38 35 -38 107q0 49 15.5 91.5t49.5 86.5
q7 10 14.5 18.5t18 19.5t25 26t35.5 36q-21 -6 -51 -8.5t-83 -1.5q-11 0 -18.5 -2t-14 -8.5t-13.5 -18.5t-16 -31h-29l40 123q14 9 24.5 12t25.5 3q7 0 18 -0.5t22 -2.5q29 -2 55.5 -4t40.5 -2q23 0 36 2.5t26 10.5l13 -19q-29 -38 -47.5 -65.5t-32.5 -59.5q-21 -44 -33 -93
t-12 -91q0 -45 17.5 -71t48.5 -26q32 0 63 26t59 75q23 42 36 89t13 89q0 67 -51 67q-11 0 -27 -4z" />
    <glyph glyph-name="w" unicode="w" horiz-adv-x="796" 
d="M545 461q-35 -118 -50.5 -197t-15.5 -137q0 -39 14.5 -60.5t41.5 -21.5q28 0 58 27t54.5 69.5t40.5 94t16 100.5q0 26 -12 41t-32 15q-5 0 -11 -0.5t-22 -3.5l-8 21q10 7 14.5 10t10.5 8q5 5 7.5 6.5t9.5 8.5l13 12l11 10q11 2 15.5 2.5t9.5 0.5q34 0 52 -26t18 -75
q0 -41 -13.5 -85.5t-36.5 -87.5t-53.5 -81t-64.5 -67t-69.5 -46t-68.5 -17q-41 0 -66.5 29t-25.5 77q0 19 1.5 35.5t6.5 47.5q-13 -23 -23.5 -40.5t-19.5 -31t-18 -25t-19 -21.5q-66 -71 -128 -71q-48 0 -76 36.5t-28 96.5q0 99 71 186q14 18 34 40.5t53 57.5
q-21 -6 -51 -8.5t-83 -1.5q-11 0 -18.5 -2t-14 -8.5t-13.5 -18.5t-16 -31h-29l40 123q14 9 24.5 12t25.5 3q7 0 18 -0.5t22 -2.5q29 -2 55.5 -4t40.5 -2q23 0 36 2.5t26 10.5l21 -16q-133 -161 -133 -312q0 -43 14.5 -68t40.5 -25q16 0 34 12.5t36 35t35 54t31 68.5
q8 21 16 48.5t14.5 57t12 60t8.5 58.5q29 5 53.5 11t50.5 16z" />
    <glyph glyph-name="x" unicode="x" horiz-adv-x="472" 
d="M449 86q-33 -30 -57.5 -50t-43 -32t-32 -17t-25.5 -5q-51 0 -70 80q-7 29 -17 97q-10 -13 -12 -17q-10 -14 -19.5 -27.5t-19.5 -27.5q-35 -50 -68 -76t-62 -26q-10 0 -19 2t-24 8q4 23 6.5 45.5t4.5 59.5l17 7q13 -43 48 -43q13 0 24.5 4.5t26.5 19t36 40.5t54 70
q-3 15 -6 33.5t-6.5 36.5t-7 33t-5.5 23q-10 35 -23.5 49.5t-37.5 14.5q-17 0 -35.5 -6.5t-38.5 -20.5l-23 6q22 23 42 47t31 41q21 7 35.5 9.5t31.5 2.5q74 0 99 -65q3 -9 5.5 -17t5 -19t5.5 -26.5t7 -39.5q5 6 9.5 12t4.5 7q9 13 18.5 26t18.5 27q35 49 65 72t59 23
q9 0 17 -2t22 -8q-8 -29 -12.5 -54.5t-5.5 -48.5l-16 -4q-14 30 -41 30q-13 0 -24.5 -4t-24.5 -15.5t-29.5 -31t-38.5 -49.5l-15 -19q9 -56 17 -94t17 -61t18.5 -33t21.5 -10q13 0 29 10t48 36z" />
    <glyph glyph-name="y" unicode="y" horiz-adv-x="527" 
d="M92 -139q-1 -9 -1 -11v-5q0 -29 18 -48t47 -19q43 0 74.5 42t58.5 135q4 13 11.5 41.5t16 60.5t15.5 61.5t11 46.5q-25 -39 -52.5 -71.5t-54.5 -56.5t-51.5 -37.5t-42.5 -13.5q-21 0 -34.5 23.5t-13.5 60.5q0 11 0.5 22t2.5 31.5t6 55t10 92.5q2 19 3 35.5t1 32.5
q0 42 -17 42q-5 0 -9 -1t-11.5 -5.5t-21 -13t-37.5 -24.5l-14 27q51 36 81 57.5t48.5 32t29 13.5t21.5 3q40 0 40 -61q0 -12 -2 -35t-7 -64q-5 -42 -8 -73t-5 -54.5t-3 -40.5t-1 -30q0 -40 18 -40q10 0 25 12t31.5 32t33 46.5t30.5 55.5q13 27 23 52.5t18 51.5t14 56t11 66
q26 3 54.5 9.5t58.5 14.5l10 -9q-9 -27 -18 -55t-19 -61.5t-21 -74t-24 -91.5q-18 -69 -34.5 -120t-33 -90t-34 -68.5t-39.5 -56.5q-44 -52 -92.5 -80.5t-95.5 -28.5q-48 0 -76 23t-33 67l6 4t7 4q9 5 15 8.5t8 4.5q6 5 11.5 8.5t22.5 14.5z" />
    <glyph glyph-name="z" unicode="z" horiz-adv-x="407" 
d="M23 317q14 39 25.5 76t19.5 63q15 5 25 6.5t21 1.5q9 0 17 -0.5t19 -3t28 -6.5t43 -10q35 -9 58.5 -12.5t43.5 -3.5q25 0 42 7.5t36 25.5l11 -5l-13 -50q-3 -4 -6.5 -7.5t-7.5 -8.5q-17 -17 -36 -35.5t-33 -33.5q-3 -3 -19 -19.5l-48 -49.5q-18 -18 -30 -30.5
t-25.5 -26.5t-32.5 -33.5t-51 -51.5q-7 -7 -12.5 -13t-11.5 -13q22 11 40.5 15t41.5 4q18 0 45 -4t76 -14q15 -4 30 -4q16 0 24.5 9t19.5 38q1 2 2 4.5t3 6.5l26 -1q-4 -14 -6.5 -22t-4 -12.5t-2.5 -8t-2 -7.5q-2 -8 -6.5 -27t-12.5 -49l-3 -14q-16 -8 -27 -10.5t-27 -2.5
q-9 0 -17.5 0.5t-20.5 2.5t-30 6t-47 11q-44 10 -71.5 14t-46.5 4q-22 0 -39.5 -7t-36.5 -24l-13 34q19 20 31.5 33.5t26 27l31 31t45.5 46.5q42 44 84.5 87t84.5 88l13.5 13.5t10.5 11.5q-19 -9 -31.5 -12.5t-27.5 -3.5q-9 0 -18.5 0.5t-21.5 2t-28.5 4t-40.5 7.5
q-10 2 -19 3t-17 1q-20 0 -30.5 -10.5t-21.5 -41.5z" />
    <glyph glyph-name="braceleft" unicode="{" horiz-adv-x="331" 
d="M53 288q52 -1 69 34q3 8 5 13t3.5 11t3 15t3.5 24q3 17 5.5 36t6 42.5t8 53.5l10.5 70q8 40 21 65t36.5 39t61 18.5t94.5 3.5l-2 -35q-38 1 -64.5 -15t-38.5 -47q-3 -8 -4.5 -13t-3 -11t-3 -14.5t-3.5 -23.5l-30 -181q-7 -43 -26.5 -67t-59.5 -38q33 -17 44.5 -32
t11.5 -40q0 -14 -6 -55.5t-19 -116.5q-7 -38 -9.5 -58t-2.5 -32q0 -38 22.5 -56t70.5 -20l-2 -35q-32 0 -54 0.5t-37.5 1.5t-26.5 2.5t-21 4.5q-54 16 -54 86q0 8 1.5 22t6.5 42t13 75t22 121q1 5 1.5 11.5t0.5 11.5q0 26 -14 36.5t-46 10.5z" />
    <glyph glyph-name="bar" unicode="|" horiz-adv-x="573" 
d="M325 667v-834h-64v834h64z" />
    <glyph glyph-name="braceright" unicode="}" horiz-adv-x="331" 
d="M291 248q-53 2 -69 -34q-3 -8 -5 -13t-3.5 -11t-3 -15t-3.5 -24q-2 -17 -4.5 -35.5t-6 -42t-8 -54t-10.5 -70.5q-9 -40 -22 -65t-36.5 -38.5t-61 -18.5t-94.5 -4l2 35q38 -1 65 15.5t38 46.5q3 8 4.5 13.5t3 11.5t3 14.5t3.5 23.5q2 11 4 21.5t5 29.5t8 49.5t13 80.5
q7 43 27 67t60 37q-33 17 -44.5 32t-11.5 41q0 14 5.5 54t18.5 118q7 37 9.5 57.5t2.5 31.5q0 38 -22.5 56.5t-70.5 19.5l3 35h53t37.5 -1t26.5 -3t21 -5q54 -17 54 -85q0 -8 -1.5 -21t-6 -40.5t-13 -75t-21.5 -123.5q-1 -6 -1.5 -12.5t-0.5 -11.5q0 -25 13.5 -36t45.5 -11z
" />
    <glyph glyph-name="asciitilde" unicode="~" horiz-adv-x="502" 
d="M128 641q35 29 63.5 41.5t58.5 12.5q17 0 37.5 -5t53.5 -17q37 -13 55.5 -17.5t35.5 -4.5q29 0 54.5 12.5t53.5 40.5l14 -62q-60 -59 -128 -59q-19 0 -39.5 4.5t-56.5 17.5q-37 13 -55 17.5t-32 4.5q-49 0 -94 -42z" />
    <glyph glyph-name="uni00A0" unicode="&#xa0;" horiz-adv-x="250" 
 />
    <glyph glyph-name="exclamdown" unicode="&#xa1;" horiz-adv-x="264" 
d="M197 470q26 0 41 -15.5t15 -42.5q0 -37 -20.5 -61t-51.5 -24q-26 0 -42 15.5t-16 41.5q0 37 21 61.5t53 24.5zM1 -215l20 64l20 64q18 58 35 113t35 112q14 42 20.5 66.5t9.5 41.5l39 24l13 -9q-2 -11 -3 -21t-3.5 -33.5t-7 -67.5t-11.5 -121q-4 -37 -6.5 -61t-4 -40
t-2.5 -27.5t-2 -23.5t-1.5 -19.5t-1 -13.5t-1 -12.5t-0.5 -16.5q-7 0 -16 -1t-24 -4t-38 -8.5t-59 -14.5z" />
    <glyph glyph-name="cent" unicode="&#xa2;" horiz-adv-x="513" 
d="M305 510q-26 -8 -44 -25t-34 -49q-8 -16 -15 -37.5t-12 -44.5t-8 -47t-3 -45q0 -90 62 -107zM285 156q16 3 30 7.5t30 12t36.5 19.5t50.5 30l5 -26q-18 -17 -39.5 -32t-42.5 -28t-40.5 -21.5t-34.5 -11.5q-2 -11 -4.5 -25.5t-5 -28.5t-4 -26.5t-1.5 -18.5h-18h-19l2 12
q2 7 3 14l2 14q3 14 4.5 23.5t3.5 25.5q-11 -2 -18 -3t-18 -1q-68 0 -99.5 36t-31.5 113q0 44 11 87.5t32 81.5q24 45 73 80.5t118 58.5q9 56 12 76q6 -1 10.5 -1h7.5h8t11 1q-5 -26 -7 -40l-4 -28q12 2 18 2h14q32 0 56.5 -6.5t46.5 -20.5q-14 -44 -23 -78.5t-13 -56.5h-29
q2 14 2.5 22t0.5 15q0 32 -22.5 54t-57.5 26z" />
    <glyph glyph-name="sterling" unicode="&#xa3;" horiz-adv-x="513" 
d="M-18 1q-1 8 -1 13v10v10t1 14q30 9 49 16.5t32.5 17.5t22.5 24t20 37q28 67 32 167h-14h-51h-14l1.5 19.5t2.5 20.5q16 -1 31 -1h46q2 46 6 79t11.5 57.5t19 44.5t28.5 40q19 22 45 41t55.5 33.5t60 22.5t57.5 8q26 0 53 -6.5t50 -18.5l-4 -19q-4 -14 -7.5 -27t-6.5 -27
q-2 -10 -5.5 -25.5t-8.5 -35.5l-26 4q2 11 2 18.5v17.5q0 32 -23.5 52.5t-60.5 20.5q-77 0 -104 -85q-4 -12 -6.5 -22t-4.5 -27t-4.5 -44.5t-5.5 -74.5q0 -2 -0.5 -8.5t-1.5 -17.5q21 -2 36 -2h33h15h15t20 0.5t31 0.5l-6 -40h-19l-83 1h-13t-35 -1q-8 -40 -18.5 -70.5
t-26 -56t-38.5 -48t-55 -46.5q23 9 41 15t33.5 9.5t30.5 5t32 1.5q19 0 46.5 -2.5t56.5 -7.5q10 -2 18 -3t13 -1q29 0 48.5 20t33.5 65l27 -5q-2 -8 -8.5 -32t-17.5 -62l-17 -68q-1 -2 -2 -7t-3 -13q-14 -8 -23.5 -11t-20.5 -3q-7 0 -14.5 0.5t-18.5 2.5t-26.5 5t-38.5 8
q-37 8 -64.5 13.5t-49.5 8.5t-40 4.5t-36 1.5q-14 0 -25.5 -1t-28.5 -4q-10 -9 -15.5 -14t-10 -8.5l-9 -7t-11.5 -8.5l-9 -6z" />
    <glyph glyph-name="currency" unicode="&#xa4;" horiz-adv-x="611" 
d="M325 505q-32 0 -60.5 -13t-49.5 -35t-33 -51.5t-12 -63.5t12 -64t33 -52t49.5 -35t60.5 -13q31 0 59 13t49 35t33.5 51.5t12.5 62.5q0 34 -12 64t-33 52.5t-49 35.5t-60 13zM54 577q-5 4 -5 8q0 3 5 8l19 18q6 6 8 6t8 -6l87 -86q34 26 68.5 38.5t77.5 12.5q85 0 151 -53
l89 89q6 6 8 6t8 -6l19 -19q5 -4 5 -8q0 -3 -5 -7l-89 -90q26 -35 38.5 -70t12.5 -75q0 -81 -52 -146l89 -90q5 -5 5 -7q0 -3 -5 -8l-19 -19q-5 -5 -8 -5t-8 5l-89 89q-66 -53 -150 -53q-42 0 -76.5 12t-67.5 38l-87 -87q-6 -5 -8 -5t-8 6l-19 19q-5 5 -5 8q0 2 5 7l87 87
q-26 33 -40.5 72t-14.5 77t13.5 76t39.5 71z" />
    <glyph glyph-name="yen" unicode="&#xa5;" 
d="M486 355l-3 -16.5t-4 -18.5h-154l-13 -74h154q-2 -13 -3 -18t-4 -17h-153l-16 -89q-2 -14 -4 -30t-2 -26q0 -11 2 -17.5t11 -10t26.5 -5.5t48.5 -3l-4 -33q-38 2 -65.5 2.5t-60.5 0.5q-8 0 -47 -1t-125 -2l3 33l14 1q38 2 51 7.5t21 23.5l14 74l13 75h-153l3 20l3 15h153
l13 74h-155q2 12 3.5 17.5t4.5 19.5h147l-64 173q-6 17 -11 31.5t-7 19.5q-6 15 -11 24.5t-12.5 15t-19.5 7.5t-30 4l4 32q31 -3 59.5 -4t69.5 -1h35t28.5 1t27 1.5t30.5 2.5l-5 -35q-32 -2 -42 -7.5t-10 -22.5q0 -11 3 -24t13 -46l51 -160l65 112q32 56 46 85t14 41
t-11.5 17t-44.5 7l4 33q32 -3 54.5 -4t48.5 -1q27 0 48.5 1t51.5 4l-8 -37q-20 -3 -34 -8t-28 -17.5t-31.5 -35t-44.5 -59.5l-105 -152h147z" />
    <glyph glyph-name="brokenbar" unicode="&#xa6;" horiz-adv-x="500" 
d="M291 153v-320h-81v320h81zM291 667v-346h-81v346h81z" />
    <glyph glyph-name="section" unicode="&#xa7;" 
d="M363 228q19 26 19 54q0 13 -4 24t-14.5 21.5t-28.5 22t-45 25.5q-26 13 -43 22.5t-27.5 16.5t-17.5 13.5t-13 14.5q-32 -21 -32 -57q0 -32 39 -62q10 -7 16.5 -11t16 -9.5t25 -13.5t44.5 -23q22 -11 35 -18.5t30 -19.5zM128 112q-1 -5 -1 -8.5v-5.5l-1 -31l-1 -14
q42 -74 118 -74q44 0 72.5 25t28.5 63q0 16 -4 28.5t-15 23.5t-30 23t-50 28q-24 13 -40.5 22t-28.5 16.5t-21 13.5t-18 14q-47 39 -47 97q0 90 85 128q-11 23 -11 51q0 35 15.5 70t42.5 60q52 48 134 48q41 0 70 -8t54 -26q-11 -28 -19 -57.5t-14 -62.5h-25q-2 22 -3 29.5
t-2 18.5q-29 62 -98 62q-38 0 -63 -20.5t-25 -52.5q0 -16 6.5 -30t22 -28t42 -29.5t67.5 -35.5q53 -26 74 -50.5t21 -59.5q0 -74 -78 -129q20 -20 28.5 -39.5t8.5 -46.5q0 -39 -18 -74.5t-48.5 -62t-71 -42t-86.5 -15.5q-42 0 -74 11t-62 36q8 19 17.5 57.5t16.5 76.5h31z
" />
    <glyph glyph-name="dieresis" unicode="&#xa8;" horiz-adv-x="500" 
d="M233 673q22 0 35 -13t13 -36q0 -32 -18 -52.5t-45 -20.5q-23 0 -37 13.5t-14 36.5q0 32 18.5 52t47.5 20zM423 673q22 0 35 -13t13 -36q0 -32 -18 -52.5t-45 -20.5q-23 0 -37 13.5t-14 36.5q0 32 18.5 52t47.5 20z" />
    <glyph glyph-name="copyright" unicode="&#xa9;" horiz-adv-x="799" 
d="M404 646q-64 0 -120 -24.5t-97.5 -67.5t-65.5 -100t-24 -123q0 -65 23 -120.5t68 -98.5q21 -21 46.5 -37.5t53.5 -28.5t56.5 -18.5t55.5 -6.5q60 0 117.5 24t101.5 67q91 88 91 220q0 65 -24 122.5t-65.5 100t-97.5 67t-119 24.5zM404 680q72 0 135 -27t110 -74.5
t74 -111t27 -135.5q0 -145 -102 -244q-50 -48 -115 -74.5t-133 -26.5q-31 0 -63.5 7t-64 20.5t-60.5 32.5t-53 42q-102 97 -102 242q0 73 27 136.5t74 110.5t110.5 74.5t135.5 27.5zM543 418l-1 36q-1 12 -2 15.5t-6 7.5q-17 15 -42.5 23.5t-55.5 8.5q-67 0 -106 -43.5
t-39 -118.5q0 -83 46 -131.5t124 -48.5q31 0 56 6.5t57 23.5l9 -8q-6 -11 -8 -16t-6 -16q-32 -18 -65 -26t-72 -8q-54 0 -98 15t-75 43t-48 68t-17 89q0 48 17 86.5t48.5 66t76 42t99.5 14.5q41 0 75.5 -7t76.5 -23q-4 -10 -6 -17.5t-3.5 -16t-2.5 -20t-2 -30.5v-6t-1 -9
h-29z" />
    <glyph glyph-name="ordfeminine" unicode="&#xaa;" horiz-adv-x="338" 
d="M253 499q-9 5 -21.5 8.5t-23.5 3.5q-20 0 -32 -12.5t-23 -44.5q-12 -35 -20 -70.5t-8 -56.5q0 -16 8 -16q5 0 14 6.5t19.5 17.5t22 25.5t21.5 31.5q19 29 29 55t14 52zM339 539q-5 -15 -10.5 -33.5t-11 -39.5t-11 -42.5t-9.5 -41.5t-6.5 -31.5t-3.5 -14.5q-1 -5 -1.5 -9
t-0.5 -8q0 -8 5 -8q4 0 16.5 7.5t30.5 21.5l9 -25q-41 -31 -66 -45t-41 -14q-25 0 -25 31q0 12 4.5 32.5t15.5 62.5q-83 -126 -148 -126q-17 0 -27 14t-10 40q0 17 4 39t10 43.5t13.5 41.5t15.5 32q3 4 5.5 7t8 7.5t14 11t22.5 17.5q17 12 29 19.5t22.5 12t19.5 6.5t20 2
q28 0 65 -16l27 16z" />
    <glyph glyph-name="guillemotleft" unicode="&#xab;" horiz-adv-x="494" 
d="M233 248q12 10 23 19.5t23 20.5t26 23.5t31 28.5q28 25 45 41t28 25.5t17.5 15.5t12.5 12l22 -19l-125 -181l87 -184l-25 -15q-25 30 -50.5 60.5t-48 56.5t-40 45.5t-26.5 28.5v22zM45 247q12 10 23 19.5t23 20.5t26 23.5t31 28.5q27 25 44.5 41t28.5 25.5t17.5 15.5
t12.5 12l22 -19q-31 -46 -62 -91t-63 -90q22 -48 43.5 -93.5t43.5 -90.5l-25 -15q-25 30 -50 60.5t-47.5 56.5t-40.5 45.5t-27 28.5v22z" />
    <glyph glyph-name="logicalnot" unicode="&#xac;" horiz-adv-x="597" 
d="M522 255v-286h-66v223h-447v63h513z" />
    <glyph glyph-name="uni00AD" unicode="&#xad;" horiz-adv-x="305" 
d="M-6 195q13 32 19 53t8 37q13 -2 24.5 -3t26.5 -2t36.5 -1h54.5q52 0 86.5 1t58.5 4l5 -9q-11 -25 -19 -51t-10 -39q-17 1 -33 2t-35 2t-42.5 1h-53.5h-40t-30.5 -0.5t-25 -1.5t-24.5 -2z" />
    <glyph glyph-name="registered" unicode="&#xae;" horiz-adv-x="799" 
d="M415 646q-64 0 -120 -24.5t-97.5 -67.5t-65.5 -100t-24 -123q0 -65 23 -120.5t68 -98.5q21 -21 46.5 -37.5t53.5 -28.5t56.5 -18.5t55.5 -6.5q60 0 117.5 24t101.5 67q91 88 91 220q0 65 -24 122.5t-65.5 100t-97.5 67t-119 24.5zM415 680q72 0 135 -27t110 -74.5
t74 -111t27 -135.5q0 -145 -102 -244q-50 -48 -115 -74.5t-133 -26.5q-31 0 -63.5 7t-64 20.5t-60.5 32.5t-53 42q-102 97 -102 242q0 73 27 136.5t74 110.5t110.5 74.5t135.5 27.5zM386 350q5 -1 7 -1h5q33 0 54.5 22.5t21.5 57.5q0 71 -77 71q-8 0 -14.5 -0.5t-15.5 -2.5
q-1 -12 -1.5 -30t-1 -45.5t-0.5 -66v-90.5q0 -48 1.5 -70t5.5 -27q2 -3 8 -4.5t23 -2.5h10v-29q-22 2 -38 2.5t-43 0.5q-31 0 -54 -0.5t-50 -1.5v27q20 2 28 3t12 3q2 2 3.5 12.5t2.5 32.5t1.5 58t0.5 89q0 127 -8 140q-3 7 -29 8l-11 1v28q27 -2 40 -2h21q24 0 50.5 0.5
t59.5 1.5q14 1 26.5 1h22.5q30 0 46.5 -2.5t30.5 -9.5q20 -9 31.5 -29.5t11.5 -45.5q0 -36 -23.5 -63.5t-68.5 -42.5q23 -34 40.5 -61.5t31.5 -48.5q13 -22 22 -35.5t14.5 -20.5t9 -10t7.5 -4q5 -2 18 -2v-26h-56q-9 0 -22.5 -0.5t-33.5 -1.5q-4 7 -8 13.5t-8 14.5
q-11 17 -21.5 35t-21.5 38q-14 23 -28.5 45t-28.5 44l-9 15z" />
    <glyph glyph-name="macron" unicode="&#xaf;" horiz-adv-x="500" 
d="M159 571l14 55h299l-14 -55h-299z" />
    <glyph glyph-name="degree" unicode="&#xb0;" horiz-adv-x="311" 
d="M215 623q-22 0 -37.5 -15.5t-15.5 -37.5q0 -23 15.5 -38.5t37.5 -15.5q23 0 38.5 15.5t15.5 38.5q0 22 -15.5 37.5t-38.5 15.5zM216 677q22 0 41.5 -8.5t34 -23t23 -34t8.5 -41.5q0 -23 -8.5 -42.5t-23 -34t-34.5 -23t-43 -8.5q-22 0 -41 8.5t-33.5 23t-23 34t-8.5 41.5
t8.5 42t23 34.5t34 23t42.5 8.5z" />
    <glyph glyph-name="plusminus" unicode="&#xb1;" 
d="M450 84l-15 -84h-433l15 84h433zM240 377l29 166h91l-30 -166h172l-15 -84h-171l-27 -152h-91l27 152h-171l15 84h171z" />
    <glyph glyph-name="uni00B2" unicode="&#xb2;" horiz-adv-x="340" 
d="M53 285q2 2 5 4.5t5 5.5q11 9 20.5 18t19.5 18q11 10 25 24.5t28 29.5t26.5 29.5t20.5 25.5q47 66 47 114q0 28 -16.5 44t-44.5 16q-14 0 -24 -2.5t-19 -9.5t-17.5 -19.5t-18.5 -31.5l-22 7q10 23 18.5 43.5t16.5 38.5q26 17 47.5 24.5t47.5 7.5q50 0 81 -28.5t31 -73.5
q0 -23 -6.5 -43t-27 -45.5t-58 -61t-99.5 -90.5q11 0 20 0.5t20 0.5h27h41q30 0 46.5 1t33.5 4l7 -6q-4 -8 -10.5 -28t-10.5 -37h-14l-44 2q-19 1 -36 1.5t-32 0.5h-29t-37 -1q-17 -1 -27.5 -1.5t-18 -0.5h-13h-12.5z" />
    <glyph glyph-name="uni00B3" unicode="&#xb3;" horiz-adv-x="340" 
d="M100 379q-1 -10 -1.5 -16.5t-0.5 -13.5q0 -65 64 -65q38 0 61.5 31t23.5 81q0 71 -66 71q-11 0 -20.5 -2t-23.5 -7l-5 5l10 34q8 -2 12 -2.5t12 -0.5q40 0 63.5 20.5t23.5 55.5q0 24 -15 37.5t-42 13.5q-26 0 -43.5 -12t-32.5 -40l-21 8q3 6 8 15t10 18.5t9.5 18.5
l7.5 15q34 28 88 28q48 0 76.5 -22t28.5 -59q0 -35 -24.5 -62.5t-67.5 -39.5q95 -11 95 -89q0 -30 -13.5 -56t-36.5 -45.5t-54.5 -30.5t-67.5 -11q-27 0 -51 5.5t-50 18.5q4 20 7.5 41t11.5 59z" />
    <glyph glyph-name="acute" unicode="&#xb4;" horiz-adv-x="500" 
d="M254 530l118 122q29 31 42 41t27 10q18 0 30.5 -12t12.5 -29q0 -14 -8.5 -23.5t-31.5 -22.5q-5 -2 -9.5 -5t-9.5 -5l-129 -76h-42z" />
    <glyph glyph-name="mu" unicode="&#xb5;" horiz-adv-x="563" 
d="M534 82q-44 -32 -72.5 -51.5t-47 -30.5t-30.5 -14.5t-24 -3.5q-32 0 -32 40q0 10 0.5 18t5 26.5t13 53t25.5 97.5q-24 -49 -53.5 -92.5t-59.5 -75.5t-57.5 -50.5t-48.5 -16.5q-14 -55 -22 -89t-12.5 -58t-7 -42.5t-4.5 -42.5q-35 -5 -62.5 -10.5t-47.5 -10.5l-10 9
q10 35 15.5 55.5t10 37t8.5 35t12 48.5l27.5 110t18.5 75q3 14 6 25.5t4 14.5q5 17 9.5 35.5t6.5 28.5q17 63 24.5 100t7.5 55q0 20 -13 20q-5 0 -11.5 -2t-13.5 -7q-5 -3 -9 -5t-8.5 -5t-11 -7t-18.5 -11l-11 27q8 5 29.5 19.5t58.5 38.5q30 20 56.5 30.5t45.5 10.5
q14 0 22 -10t8 -27q0 -9 -3 -25.5t-9 -43.5t-16.5 -67t-25.5 -96q-12 -46 -17 -68.5t-5 -31.5q0 -10 6.5 -16.5t15.5 -6.5q12 0 28 11.5t34.5 32t37.5 47.5t36 59q30 57 46.5 109t22.5 112q23 1 53.5 6t53.5 13l8 -7q-21 -74 -38 -136.5t-28.5 -111.5t-18 -81t-6.5 -44
q0 -8 4.5 -14t10.5 -6q8 0 26 11t43 31z" />
    <glyph glyph-name="paragraph" unicode="&#xb6;" 
d="M570 633l-135 -10l-109 -610q-10 -57 -21.5 -90.5t-28.5 -59.5q-20 -31 -53 -47.5t-74 -16.5q-51 0 -81 24t-30 62q0 29 16.5 46t43.5 17q23 0 38 -13.5t15 -33.5q0 -5 -0.5 -8t-2 -7t-5 -9.5t-9.5 -15.5q-3 -5 -3 -11q0 -11 10.5 -17.5t25.5 -6.5q93 0 123 168l50 284
q-39 2 -64 5t-51 11q-57 16 -87 56t-30 100q0 48 20 92t56 74q31 26 67 37t91 11h241z" />
    <glyph glyph-name="periodcentered" unicode="&#xb7;" horiz-adv-x="250" 
d="M133 319q29 0 46 -18t17 -48q0 -38 -21 -62t-54 -24q-29 0 -46 18t-17 47q0 37 21.5 62t53.5 25z" />
    <glyph glyph-name="cedilla" unicode="&#xb8;" horiz-adv-x="500" 
d="M241 0l-40 -61q10 2 16 3t14 1q37 0 60.5 -19.5t23.5 -49.5q0 -38 -34 -62t-88 -24q-50 0 -102 24l19 30q39 -16 69 -16q23 0 38 12t15 30q0 17 -12.5 27t-33.5 10q-7 0 -13.5 -1t-17.5 -4l-11 12l60 88h37z" />
    <glyph glyph-name="uni00B9" unicode="&#xb9;" horiz-adv-x="340" 
d="M83 289l24 1q16 0 26 1t16 3.5t9 6.5t5 11t9.5 48t21.5 119q5 26 9 51.5t8 50.5l4 24l-7 -3.5t-8.5 -3.5t-13 -5.5t-20.5 -8.5q-9 -4 -22.5 -9.5t-37.5 -16.5l-7 6l2 7l4 14q0 2 4 21q30 6 58 14t52.5 16.5t43.5 17t30 16.5l14 -10q-2 -10 -4 -18.5t-4 -19t-4.5 -24.5
t-6.5 -34l-13 -73q-15 -81 -22 -123t-7 -52q0 -9 3 -14t11.5 -8t24.5 -4t42 -1l-4 -25q-5 0 -22 0.5t-36.5 1t-37 1t-22.5 0.5q-9 0 -27.5 -0.5t-38.5 -1t-36.5 -1t-21.5 -0.5z" />
    <glyph glyph-name="ordmasculine" unicode="&#xba;" horiz-adv-x="339" 
d="M218 518q-39 0 -60 -46q-11 -26 -18 -58.5t-7 -60.5q0 -65 47 -65q40 0 60 48q11 25 17.5 57t6.5 58q0 67 -46 67zM239 549q103 0 103 -97q0 -38 -14.5 -76t-37.5 -63q-25 -26 -62.5 -41.5t-75.5 -15.5q-96 0 -96 91q0 46 14 85t40 65q25 25 58.5 38.5t70.5 13.5z" />
    <glyph glyph-name="guillemotright" unicode="&#xbb;" horiz-adv-x="494" 
d="M264 221q-11 -10 -21.5 -19t-22.5 -19.5t-26 -23.5t-33 -30q-29 -26 -46.5 -42t-28 -26t-16.5 -15.5t-12 -10.5l-22 19q29 42 60 86.5t65 94.5q-23 48 -43 90.5l-44 93.5l25 15q15 -19 39 -47.5t48.5 -57t46 -52.5t31.5 -34v-22zM452 222q-23 -18 -45.5 -38.5
t-58.5 -53.5q-26 -24 -42.5 -39t-27 -25t-18 -16.5t-14.5 -13.5l-22 19q31 45 62 90.5t63 90.5l-87 184l25 15q21 -27 46 -56.5t48 -56t42 -47.5t29 -31v-22z" />
    <glyph glyph-name="onequarter" unicode="&#xbc;" horiz-adv-x="796" 
d="M639 267q4 19 7.5 37t6.5 37q-17 -21 -39.5 -51t-43 -58.5t-35.5 -50.5t-18 -28h63h40zM523 22q8 1 13.5 1h7.5q13 1 20.5 1.5t9.5 0.5q13 0 17 2.5t7 11.5q1 5 3.5 14.5t4.5 20.5l5 31l-104 -1l-46 -1l3 25q10 15 17.5 26.5t14.5 21.5t14 20.5t16 22.5q22 31 117 153
q4 6 10 14q11 1 34.5 6.5t41.5 12.5l9 -8l-1.5 -7.5t-0.5 -3.5q-3 -16 -5.5 -28.5l-4.5 -22.5l-2 -13l-3 -17l-27 -152h13q9 1 17.5 1t16.5 1h11h5l4 -3q-2 -7 -2.5 -11.5t-2.5 -12.5q-2 -5 -2.5 -9t-1.5 -6q0 -2 -2 -10q-19 1 -32.5 1.5t-21.5 0.5h-10l-7 -39
q-2 -16 -2.5 -19t-0.5 -6q0 -9 10 -12.5t42 -5.5h7t11 -1l-4 -24h-9l-41 1q-17 1 -30.5 1h-24.5h-23t-32 -1q-14 0 -23 -0.5t-15.5 -0.5h-11.5h-12zM604 668q7 11 9 15.5t4 10.5q8 -2 13 -2h10h7.5t26.5 2q-7 -10 -16.5 -25.5t-21 -32.5t-22.5 -35t-21 -34l-363 -574l-9 -15
q-3 -5 -4 -6.5t-1 -5.5q-8 2 -13 2.5t-11 0.5q-3 0 -10.5 -0.5t-15.5 -1.5h-8q6 7 9.5 11.5t7.5 10t8 12t11 17.5q10 15 18.5 28.5t13.5 21.5l35 54zM83 289l24 1q16 0 26 1t16 3.5t9 6.5t5 11t9.5 48t21.5 119q5 26 9 51.5t8 50.5l4 24l-7 -3.5t-8.5 -3.5t-13 -5.5
t-20.5 -8.5q-9 -4 -22.5 -9.5t-37.5 -16.5l-7 6l2 7l4 14q0 2 4 21q30 6 58 14t52.5 16.5t43.5 17t30 16.5l14 -10q-2 -10 -4 -18.5t-4 -19t-4.5 -24.5t-6.5 -34l-13 -73q-15 -81 -22 -123t-7 -52q0 -9 3 -14t11.5 -8t24.5 -4t42 -1l-4 -25q-5 0 -22 0.5t-36.5 1t-37 1
t-22.5 0.5q-9 0 -27.5 -0.5t-38.5 -1t-36.5 -1t-21.5 -0.5z" />
    <glyph glyph-name="onehalf" unicode="&#xbd;" horiz-adv-x="796" 
d="M462 18q7 7 11 10l39 36q11 10 25 24.5t28 30t26.5 30t20.5 25.5q47 65 47 113q0 28 -16 44t-45 16q-14 0 -24 -2.5t-19 -9.5t-17.5 -19.5t-18.5 -31.5l-22 7q10 23 18.5 43.5t16.5 38.5q26 17 47.5 24.5t47.5 7.5q50 0 81 -28.5t31 -73.5q0 -23 -6.5 -43t-26.5 -45.5
t-57.5 -61t-99.5 -89.5h108q29 0 45.5 1t34.5 5l6 -6q-4 -8 -10.5 -28.5t-9.5 -37.5q-56 2 -87 3t-39 1h-29t-37 -1q-17 -1 -27.5 -1.5t-18 -0.5h-13.5h-13zM604 668q7 11 9 15.5t4 10.5q8 -2 13 -2h10h7.5t26.5 2q-7 -10 -16.5 -25.5t-21 -32.5t-22.5 -35t-21 -34
l-363 -574l-9 -15q-3 -5 -4 -6.5t-1 -5.5q-8 2 -13 2.5t-11 0.5q-3 0 -10.5 -0.5t-15.5 -1.5h-8q6 7 9.5 11.5t7.5 10t8 12t11 17.5q10 15 18.5 28.5t13.5 21.5l35 54zM83 289l24 1q16 0 26 1t16 3.5t9 6.5t5 11t9.5 48t21.5 119q5 26 9 51.5t8 50.5l4 24l-7 -3.5t-8.5 -3.5
t-13 -5.5t-20.5 -8.5q-9 -4 -22.5 -9.5t-37.5 -16.5l-7 6l2 7l4 14q0 2 4 21q30 6 58 14t52.5 16.5t43.5 17t30 16.5l14 -10q-2 -10 -4 -18.5t-4 -19t-4.5 -24.5t-6.5 -34l-13 -73q-15 -81 -22 -123t-7 -52q0 -9 3 -14t11.5 -8t24.5 -4t42 -1l-4 -25q-5 0 -22 0.5t-36.5 1
t-37 1t-22.5 0.5q-9 0 -27.5 -0.5t-38.5 -1t-36.5 -1t-21.5 -0.5z" />
    <glyph glyph-name="threequarters" unicode="&#xbe;" horiz-adv-x="797" 
d="M640 267q4 19 7.5 37t6.5 37q-17 -21 -39.5 -51t-43 -58.5t-35.5 -50.5t-18 -28h63h41zM524 22q8 1 13.5 1h7.5q13 1 20.5 1.5t9.5 0.5q13 0 17 2.5t7 11.5q3 12 8 35l5 31l-104 -1l-46 -1l3 25q10 15 17.5 26.5t14.5 21.5t14 20.5t16 22.5q4 6 5.5 8t2.5 3.5t2.5 3.5
t6.5 8q25 32 49.5 65t50.5 65l10 14q11 1 34.5 6.5t41.5 12.5l10 -8q-3 -9 -3 -11q-3 -16 -5.5 -28.5l-4.5 -22.5l-2 -13l-3 -17l-27 -152h13q9 1 17.5 1t16.5 1h11h5l5 -3q-2 -7 -3 -11.5t-3 -12.5q-2 -5 -2.5 -9t-1.5 -6q0 -2 -2 -10q-19 1 -32.5 1.5t-21.5 0.5h-10
l-7 -39q-2 -15 -2.5 -18t-0.5 -7q0 -9 10 -12.5t42 -5.5h7t11 -1l-4 -24h-9l-41 1q-17 1 -30 1h-24h-24t-31 -1q-29 -1 -39 -1h-24zM605 668q7 11 9 15.5t4 10.5q8 -2 13 -2h10h7.5t26.5 2q-11 -17 -20 -31.5t-18.5 -29t-19.5 -30.5t-23 -36l-363 -574l-9 -15
q-3 -5 -3.5 -6.5t-1.5 -5.5q-8 2 -13 2.5t-10 0.5q-4 0 -11.5 -0.5t-15.5 -1.5h-8q6 7 9.5 11.5t7.5 10t8.5 12t10.5 17.5q10 15 18.5 28.5t13.5 21.5q9 14 18 27t17 27zM100 379q-1 -10 -1.5 -16.5t-0.5 -13.5q0 -65 64 -65q38 0 61.5 31t23.5 81q0 71 -66 71
q-11 0 -20.5 -2t-23.5 -7l-5 5l10 34q8 -2 12 -2.5t12 -0.5q40 0 63.5 20.5t23.5 55.5q0 24 -15 37.5t-42 13.5q-26 0 -43.5 -12t-32.5 -40l-21 8q3 6 8 15t10 18.5t9.5 18.5l7.5 15q34 28 88 28q48 0 76.5 -22t28.5 -59q0 -35 -24.5 -62.5t-67.5 -39.5q95 -11 95 -89
q0 -30 -13.5 -56t-36.5 -45.5t-54.5 -30.5t-67.5 -11q-27 0 -51 5.5t-50 18.5q4 20 7.5 41t11.5 59z" />
    <glyph glyph-name="questiondown" unicode="&#xbf;" horiz-adv-x="407" 
d="M261 470q27 0 42 -15.5t15 -42.5q0 -37 -20.5 -61t-52.5 -24q-26 0 -42 15.5t-16 41.5q0 37 21 61.5t53 24.5zM327 -58q-12 -26 -24 -60.5t-19 -63.5q-33 -20 -69 -31t-70 -11q-38 0 -69.5 10.5t-54.5 30t-35.5 46.5t-12.5 59q0 30 11.5 59t33.5 52q9 10 17 18t20 17
t28.5 21t41.5 29q27 19 45 33t28.5 25t14.5 21t4 21q0 28 -38 45v3l9.5 9.5t8.5 9.5q64 -32 64 -86q0 -14 -3.5 -26t-12 -26t-23.5 -31t-38 -41q-26 -26 -42.5 -45t-27 -35.5t-14.5 -31t-4 -29.5q0 -35 24.5 -57t65.5 -22q38 0 65 21q6 4 10 8.5t8 10.5t8.5 15t10.5 23l6 14
z" />
    <glyph glyph-name="Agrave" unicode="&#xc0;" horiz-adv-x="674" 
d="M427 743l-118 84q-27 19 -34.5 28t-7.5 24q0 17 12 27.5t29 10.5t29.5 -9.5t33.5 -38.5l95 -126h-39zM227 306q22 0 35.5 -0.5t23.5 -0.5h19h21h22h18t20.5 0.5t28.5 0.5l-37 257zM485 675l73 -503q11 -66 17 -96.5t11 -31.5q8 -7 22 -9.5t52 -4.5v-34q-21 1 -39 2
t-34.5 1.5t-34 0.5h-37.5h-39t-35.5 -0.5t-36 -1.5t-41.5 -2l1 34q8 1 14 1h8q21 1 33 2.5t18 4.5t7.5 8.5t1.5 14.5q0 3 -0.5 7t-1 12.5t-2.5 24t-5 42.5l-16 114q-41 2 -66.5 2.5t-53.5 0.5q-27 0 -48.5 -0.5t-50.5 -2.5l-54 -99q-27 -51 -38.5 -75.5t-11.5 -32.5
q0 -14 17 -18.5t67 -5.5l-2 -34q-30 1 -49.5 2t-33 1.5t-22.5 0.5h-18q-23 0 -46 -1t-62 -3l-1 34q48 0 66 13q6 5 18 22l90 154l271 456h92z" />
    <glyph glyph-name="Aacute" unicode="&#xc1;" horiz-adv-x="674" 
d="M405 743l117 122q15 16 25 26t17.5 15.5t13.5 7.5t13 2q18 0 30.5 -11.5t12.5 -28.5q0 -14 -8.5 -24t-31.5 -23q-5 -2 -9.5 -5t-9.5 -5l-129 -76h-41zM227 306q22 0 35.5 -0.5t23.5 -0.5h19h21h22h18t20.5 0.5t28.5 0.5l-37 257zM485 675l73 -503q11 -66 17 -96.5
t11 -31.5q8 -7 22 -9.5t52 -4.5v-34q-21 1 -39 2t-34.5 1.5t-34 0.5h-37.5h-39t-35.5 -0.5t-36 -1.5t-41.5 -2l1 34q8 1 14 1h8q21 1 33 2.5t18 4.5t7.5 8.5t1.5 14.5q0 3 -0.5 7t-1 12.5t-2.5 24t-5 42.5l-16 114q-41 2 -66.5 2.5t-53.5 0.5q-27 0 -48.5 -0.5t-50.5 -2.5
l-54 -99q-27 -51 -38.5 -75.5t-11.5 -32.5q0 -14 17 -18.5t67 -5.5l-2 -34q-30 1 -49.5 2t-33 1.5t-22.5 0.5h-18q-23 0 -46 -1t-62 -3l-1 34q48 0 66 13q6 5 18 22l90 154l271 456h92z" />
    <glyph glyph-name="Acircumflex" unicode="&#xc2;" horiz-adv-x="674" 
d="M430 912h68l85 -169h-44l-86 99l-131 -99h-49zM227 306q22 0 35.5 -0.5t23.5 -0.5h19h21h22h18t20.5 0.5t28.5 0.5l-37 257zM485 675l73 -503q11 -66 17 -96.5t11 -31.5q8 -7 22 -9.5t52 -4.5v-34q-21 1 -39 2t-34.5 1.5t-34 0.5h-37.5h-39t-35.5 -0.5t-36 -1.5t-41.5 -2
l1 34q8 1 14 1h8q21 1 33 2.5t18 4.5t7.5 8.5t1.5 14.5q0 3 -0.5 7t-1 12.5t-2.5 24t-5 42.5l-16 114q-41 2 -66.5 2.5t-53.5 0.5q-27 0 -48.5 -0.5t-50.5 -2.5l-54 -99q-27 -51 -38.5 -75.5t-11.5 -32.5q0 -14 17 -18.5t67 -5.5l-2 -34q-30 1 -49.5 2t-33 1.5t-22.5 0.5
h-18q-23 0 -46 -1t-62 -3l-1 34q48 0 66 13q6 5 18 22l90 154l271 456h92z" />
    <glyph glyph-name="Atilde" unicode="&#xc3;" horiz-adv-x="674" 
d="M285 768q13 55 40.5 84t66.5 29q17 0 35.5 -5t56.5 -20q26 -10 38 -13.5t23 -3.5q28 0 47 43h35q-10 -52 -39 -82.5t-68 -30.5q-9 0 -15 0.5t-15.5 3.5t-25.5 8.5t-44 16.5q-34 14 -51 14q-34 0 -49 -44h-35zM227 306q22 0 35.5 -0.5t23.5 -0.5h19h21h22h18t20.5 0.5
t28.5 0.5l-37 257zM485 675l73 -503q11 -66 17 -96.5t11 -31.5q8 -7 22 -9.5t52 -4.5v-34q-21 1 -39 2t-34.5 1.5t-34 0.5h-37.5h-39t-35.5 -0.5t-36 -1.5t-41.5 -2l1 34q8 1 14 1h8q21 1 33 2.5t18 4.5t7.5 8.5t1.5 14.5q0 3 -0.5 7t-1 12.5t-2.5 24t-5 42.5l-16 114
q-41 2 -66.5 2.5t-53.5 0.5q-27 0 -48.5 -0.5t-50.5 -2.5l-54 -99q-27 -51 -38.5 -75.5t-11.5 -32.5q0 -14 17 -18.5t67 -5.5l-2 -34q-30 1 -49.5 2t-33 1.5t-22.5 0.5h-18q-23 0 -46 -1t-62 -3l-1 34q48 0 66 13q6 5 18 22l90 154l271 456h92z" />
    <glyph glyph-name="Adieresis" unicode="&#xc4;" horiz-adv-x="674" 
d="M350 888q23 0 36.5 -14t13.5 -37q0 -32 -18.5 -53.5t-46.5 -21.5q-25 0 -39 14t-14 38q0 32 19.5 53t48.5 21zM552 888q23 0 36.5 -14t13.5 -37q0 -32 -18.5 -53.5t-46.5 -21.5q-25 0 -39 14t-14 38q0 32 19.5 53t48.5 21zM227 306q22 0 35.5 -0.5t23.5 -0.5h19h21h22h18
t20.5 0.5t28.5 0.5l-37 257zM485 675l73 -503q11 -66 17 -96.5t11 -31.5q8 -7 22 -9.5t52 -4.5v-34q-21 1 -39 2t-34.5 1.5t-34 0.5h-37.5h-39t-35.5 -0.5t-36 -1.5t-41.5 -2l1 34q8 1 14 1h8q21 1 33 2.5t18 4.5t7.5 8.5t1.5 14.5q0 3 -0.5 7t-1 12.5t-2.5 24t-5 42.5
l-16 114q-41 2 -66.5 2.5t-53.5 0.5q-27 0 -48.5 -0.5t-50.5 -2.5l-54 -99q-27 -51 -38.5 -75.5t-11.5 -32.5q0 -14 17 -18.5t67 -5.5l-2 -34q-30 1 -49.5 2t-33 1.5t-22.5 0.5h-18q-23 0 -46 -1t-62 -3l-1 34q48 0 66 13q6 5 18 22l90 154l271 456h92z" />
    <glyph glyph-name="Aring" unicode="&#xc5;" horiz-adv-x="674" 
d="M469 910q-32 0 -53 -30.5t-21 -76.5q0 -26 11.5 -40t33.5 -14q33 0 54 30t21 77q0 54 -46 54zM473 933q46 0 70.5 -21t24.5 -60q0 -57 -36.5 -91.5t-96.5 -34.5q-45 0 -69 21.5t-24 59.5q0 56 36.5 91t94.5 35zM227 306q22 0 35.5 -0.5t23.5 -0.5h19h21h22h18t20.5 0.5
t28.5 0.5l-37 257zM485 675l73 -503q11 -66 17 -96.5t11 -31.5q8 -7 22 -9.5t52 -4.5v-34q-21 1 -39 2t-34.5 1.5t-34 0.5h-37.5h-39t-35.5 -0.5t-36 -1.5t-41.5 -2l1 34q8 1 14 1h8q21 1 33 2.5t18 4.5t7.5 8.5t1.5 14.5q0 3 -0.5 7t-1 12.5t-2.5 24t-5 42.5l-16 114
q-41 2 -66.5 2.5t-53.5 0.5q-27 0 -48.5 -0.5t-50.5 -2.5l-54 -99q-27 -51 -38.5 -75.5t-11.5 -32.5q0 -14 17 -18.5t67 -5.5l-2 -34q-30 1 -49.5 2t-33 1.5t-22.5 0.5h-18q-23 0 -46 -1t-62 -3l-1 34q48 0 66 13q6 5 18 22l90 154l271 456h92z" />
    <glyph glyph-name="AE" unicode="&#xc6;" horiz-adv-x="897" 
d="M474 626q-15 -20 -28 -37.5t-25.5 -35.5t-25 -37t-27.5 -41l-112 -172q29 -2 47.5 -2.5t41.5 -0.5h22t22 0.5t27 1t36 1.5l33 190q3 17 5.5 35.5t5 36.5t4 33.5t2.5 27.5h-28zM-34 30q23 1 36 2.5t22.5 8.5t19.5 20.5t26 39.5l14 23l261 400q18 27 28.5 43t16 25.5t7 14
t1.5 8.5q0 15 -28 18q-3 0 -6 0.5t-10.5 0.5t-20.5 0.5t-35 0.5l5 34q45 -2 120 -3t180 -1h32t35 0.5t60.5 2t107.5 3.5q31 1 64 -6l4 -7q-4 -19 -6.5 -34.5t-5.5 -31.5t-5.5 -35.5t-6.5 -47.5h-34q2 25 2.5 40t0.5 24q0 23 -6 31t-26 12q-23 4 -50 6t-59 2q-9 0 -79 -3
q-7 -32 -17.5 -90t-28.5 -161q26 0 42 -0.5t26.5 -0.5h18.5h18q28 0 54 0.5t60 2.5l4 -8q-2 -7 -3 -8q-2 -5 -3 -8t-1 -4q-1 -3 -3 -13q-1 -3 -3 -13q-18 1 -32 2t-26 2t-24 1h-27l-80 -1h-30q-14 -85 -25.5 -152t-19.5 -119q29 -3 47.5 -4t42.5 -1q68 0 112 5.5t54 15.5
q5 5 15.5 34.5t19.5 65.5h34q-8 -42 -15 -81.5t-14 -80.5l-7 -7q-12 -2 -18.5 -2.5t-23.5 -0.5h-21.5t-39 0.5t-61 1.5t-87.5 2q-30 1 -51.5 1h-38.5h-26.5t-28.5 -0.5t-37.5 -1.5t-52.5 -2l5 34q26 3 36 5t17 6q5 4 8 7.5t5.5 11t5.5 21.5t8 38l25 139q-25 0 -41.5 0.5
t-28.5 0.5h-20.5h-16.5h-14.5h-19.5t-29.5 -0.5t-44.5 -0.5l-61 -100q-17 -27 -27.5 -45t-16.5 -29.5t-8 -18.5t-2 -12q0 -14 19 -18q3 -1 6.5 -1.5t10 -1t18 -1t30.5 -1.5l-6 -34q-38 2 -61 3t-47 1h-19t-23.5 -0.5t-33 -1.5t-47.5 -2z" />
    <glyph glyph-name="Ccedilla" unicode="&#xc7;" horiz-adv-x="635" 
d="M288 -64q11 2 17 3t14 1q39 0 64 -20.5t25 -52.5q0 -19 -9.5 -35.5t-26.5 -28.5t-40.5 -18.5t-51.5 -6.5q-53 0 -107 25l20 32q40 -17 72 -17q25 0 40.5 12t15.5 31q0 17 -13 28t-35 11q-8 0 -15 -1t-18 -4l-12 12l51 75q-230 24 -230 261q0 95 32 175.5t88 139.5
t133.5 92t168.5 33q57 0 103 -10.5t91 -33.5q-14 -49 -22.5 -87t-13.5 -76h-35q1 9 1.5 15.5t0.5 9.5q1 14 1.5 28t0.5 19q0 16 -4 24t-15 16q-29 20 -66.5 31t-78.5 11q-59 0 -105 -23.5t-73 -68.5q-17 -27 -30 -61t-22.5 -71t-14.5 -76.5t-5 -78.5q0 -100 49 -152.5
t141 -52.5q57 0 107 17.5t110 58.5l10 -9l-2 -8q-5 -17 -7 -22t-2 -6q-44 -29 -78 -47.5t-65 -29.5t-62 -15.5t-68 -4.5z" />
    <glyph glyph-name="Egrave" unicode="&#xc8;" horiz-adv-x="588" 
d="M411 743l-118 84q-27 19 -34.5 28t-7.5 24q0 17 12 27.5t29 10.5t30 -9.5t34 -38.5l94 -126h-39zM15 30q27 4 51 12q7 1 11 5t8 16.5t8 36t11 64.5q3 18 6 34.5t9 50t16.5 93.5t29.5 166q4 27 7 42.5t4 24t1.5 12.5t0.5 9q0 9 -3.5 17t-8.5 11q-3 2 -5.5 3t-8.5 2t-17 2
t-32 3l-17 1l5 34q34 -2 71.5 -3t86.5 -1q33 0 63 0.5t62 1.5q48 2 89 2.5t58 0.5q21 0 36 -1t35 -4l5 -7q-18 -102 -24 -149h-32l1 71q0 14 -3 18.5t-14 8.5q-37 13 -122 13q-30 0 -49 -1t-46 -5q-2 -11 -7.5 -40.5t-14.5 -77.5q-3 -14 -8.5 -45t-14.5 -82q24 0 39.5 -0.5
t27.5 -0.5h22.5h22.5q34 0 58.5 0.5t56.5 2.5l3 -7q-3 -11 -6.5 -24.5t-5.5 -21.5q-32 1 -54 2t-39 2t-31.5 1h-31.5h-8.5h-12t-19.5 -0.5t-31 -0.5q-5 -31 -10 -60.5t-10 -61.5t-11 -68.5t-13 -79.5q32 -3 56.5 -4.5t52.5 -1.5t54.5 1.5t47.5 4t35 5.5t19 7q3 2 5 4.5
t5 9.5t7.5 21.5t12.5 40.5q2 5 4 12l4 14h35q-2 -11 -4.5 -24t-6 -31.5t-8.5 -44t-11 -61.5l-7 -7q-9 -1 -15 -1.5t-13 -1t-15.5 -0.5h-23.5q-35 0 -81 0.5t-115 2.5q-33 1 -57.5 1.5t-44.5 0.5h-26.5t-27.5 -0.5t-34 -1.5t-47 -2z" />
    <glyph glyph-name="Eacute" unicode="&#xc9;" horiz-adv-x="588" 
d="M336 743l117 122q15 16 25 26t17.5 15.5t13.5 7.5t13 2q18 0 30.5 -11.5t12.5 -28.5q0 -8 -1.5 -14t-7.5 -12t-18 -13t-32 -18l-129 -76h-41zM15 30q27 4 51 12q7 1 11 5t8 16.5t8 36t11 64.5q3 18 6 34.5t9 50t16.5 93.5t29.5 166q4 27 7 42.5t4 24t1.5 12.5t0.5 9
q0 9 -3.5 17t-8.5 11q-3 2 -5.5 3t-8.5 2t-17 2t-32 3l-17 1l5 34q34 -2 71.5 -3t86.5 -1q33 0 63 0.5t62 1.5q48 2 89 2.5t58 0.5q21 0 36 -1t35 -4l5 -7q-18 -102 -24 -149h-32l1 71q0 14 -3 18.5t-14 8.5q-37 13 -122 13q-30 0 -49 -1t-46 -5q-2 -11 -7.5 -40.5
t-14.5 -77.5q-3 -14 -8.5 -45t-14.5 -82q24 0 39.5 -0.5t27.5 -0.5h22.5h22.5q34 0 58.5 0.5t56.5 2.5l3 -7q-3 -11 -6.5 -24.5t-5.5 -21.5q-32 1 -54 2t-39 2t-31.5 1h-31.5h-8.5h-12t-19.5 -0.5t-31 -0.5q-5 -31 -10 -60.5t-10 -61.5t-11 -68.5t-13 -79.5q32 -3 56.5 -4.5
t52.5 -1.5t54.5 1.5t47.5 4t35 5.5t19 7q3 2 5 4.5t5 9.5t7.5 21.5t12.5 40.5q2 5 4 12l4 14h35q-2 -11 -4.5 -24t-6 -31.5t-8.5 -44t-11 -61.5l-7 -7q-9 -1 -15 -1.5t-13 -1t-15.5 -0.5h-23.5q-35 0 -81 0.5t-115 2.5q-33 1 -57.5 1.5t-44.5 0.5h-26.5t-27.5 -0.5t-34 -1.5
t-47 -2z" />
    <glyph glyph-name="Ecircumflex" unicode="&#xca;" horiz-adv-x="588" 
d="M387 912h68l85 -169h-43l-86 99l-131 -99h-49zM15 30q27 4 51 12q7 1 11 5t8 16.5t8 36t11 64.5q3 18 6 34.5t9 50t16.5 93.5t29.5 166q4 27 7 42.5t4 24t1.5 12.5t0.5 9q0 9 -3.5 17t-8.5 11q-3 2 -5.5 3t-8.5 2t-17 2t-32 3l-17 1l5 34q34 -2 71.5 -3t86.5 -1
q33 0 63 0.5t62 1.5q48 2 89 2.5t58 0.5q21 0 36 -1t35 -4l5 -7q-18 -102 -24 -149h-32l1 71q0 14 -3 18.5t-14 8.5q-37 13 -122 13q-30 0 -49 -1t-46 -5q-2 -11 -7.5 -40.5t-14.5 -77.5q-3 -14 -8.5 -45t-14.5 -82q24 0 39.5 -0.5t27.5 -0.5h22.5h22.5q34 0 58.5 0.5
t56.5 2.5l3 -7q-3 -11 -6.5 -24.5t-5.5 -21.5q-32 1 -54 2t-39 2t-31.5 1h-31.5h-8.5h-12t-19.5 -0.5t-31 -0.5q-5 -31 -10 -60.5t-10 -61.5t-11 -68.5t-13 -79.5q32 -3 56.5 -4.5t52.5 -1.5t54.5 1.5t47.5 4t35 5.5t19 7q3 2 5 4.5t5 9.5t7.5 21.5t12.5 40.5q2 5 4 12l4 14
h35q-2 -11 -4.5 -24t-6 -31.5t-8.5 -44t-11 -61.5l-7 -7q-9 -1 -15 -1.5t-13 -1t-15.5 -0.5h-23.5q-35 0 -81 0.5t-115 2.5q-33 1 -57.5 1.5t-44.5 0.5h-26.5t-27.5 -0.5t-34 -1.5t-47 -2z" />
    <glyph glyph-name="Edieresis" unicode="&#xcb;" horiz-adv-x="588" 
d="M294 888q23 0 36.5 -14t13.5 -37q0 -32 -18.5 -53.5t-46.5 -21.5q-25 0 -39 14t-14 38q0 32 19.5 53t48.5 21zM496 888q23 0 36.5 -14t13.5 -37q0 -32 -18.5 -53.5t-46.5 -21.5q-25 0 -39 14t-14 38q0 32 19.5 53t48.5 21zM15 30q27 4 51 12q7 1 11 5t8 16.5t8 36
t11 64.5q3 18 6 34.5t9 50t16.5 93.5t29.5 166q4 27 7 42.5t4 24t1.5 12.5t0.5 9q0 9 -3.5 17t-8.5 11q-3 2 -5.5 3t-8.5 2t-17 2t-32 3l-17 1l5 34q34 -2 71.5 -3t86.5 -1q33 0 63 0.5t62 1.5q48 2 89 2.5t58 0.5q21 0 36 -1t35 -4l5 -7q-18 -102 -24 -149h-32l1 71
q0 14 -3 18.5t-14 8.5q-37 13 -122 13q-30 0 -49 -1t-46 -5q-2 -11 -7.5 -40.5t-14.5 -77.5q-3 -14 -8.5 -45t-14.5 -82q24 0 39.5 -0.5t27.5 -0.5h22.5h22.5q34 0 58.5 0.5t56.5 2.5l3 -7q-3 -11 -6.5 -24.5t-5.5 -21.5q-32 1 -54 2t-39 2t-31.5 1h-31.5h-8.5h-12
t-19.5 -0.5t-31 -0.5q-5 -31 -10 -60.5t-10 -61.5t-11 -68.5t-13 -79.5q32 -3 56.5 -4.5t52.5 -1.5t54.5 1.5t47.5 4t35 5.5t19 7q3 2 5 4.5t5 9.5t7.5 21.5t12.5 40.5q2 5 4 12l4 14h35q-2 -11 -4.5 -24t-6 -31.5t-8.5 -44t-11 -61.5l-7 -7q-9 -1 -15 -1.5t-13 -1
t-15.5 -0.5h-23.5q-35 0 -81 0.5t-115 2.5q-33 1 -57.5 1.5t-44.5 0.5h-26.5t-27.5 -0.5t-34 -1.5t-47 -2z" />
    <glyph glyph-name="Igrave" unicode="&#xcc;" horiz-adv-x="353" 
d="M294 743l-118 84q-27 19 -34.5 28t-7.5 24q0 17 12 27.5t29 10.5t29.5 -9.5t33.5 -38.5l94 -126h-38zM-4 30q38 1 54 3.5t23 9.5q4 3 6.5 7t5.5 15.5t7 34.5t12 65q21 121 35.5 201t22.5 129.5t11.5 72.5t3.5 30q0 20 -13 27t-56 9l-21 1l4 34q25 -1 46 -2t40 -1.5
t38 -0.5h41h39t34.5 0.5t34 1.5t38.5 2l-5 -34q-28 -1 -43.5 -2t-23.5 -3.5t-11 -6.5t-6 -12q-4 -9 -10 -33t-14 -65t-18.5 -100.5t-24.5 -139.5q-12 -68 -18.5 -107t-9.5 -59.5t-3.5 -28.5t-0.5 -15q0 -17 11.5 -22.5t53.5 -8.5q3 -1 8.5 -1t13.5 -1l-5 -34q-49 1 -76 2
t-41.5 1.5t-20 0.5h-11.5h-15t-28 -0.5t-45.5 -1.5t-67.5 -2z" />
    <glyph glyph-name="Iacute" unicode="&#xcd;" horiz-adv-x="353" 
d="M218 743l117 122q15 16 25 26t17.5 15.5t13.5 7.5t13 2q18 0 30.5 -11.5t12.5 -28.5q0 -8 -1.5 -14t-7.5 -12t-17.5 -13t-31.5 -18l-129 -76h-42zM-4 30q38 1 54 3.5t23 9.5q4 3 6.5 7t5.5 15.5t7 34.5t12 65q21 121 35.5 201t22.5 129.5t11.5 72.5t3.5 30q0 20 -13 27
t-56 9l-21 1l4 34q25 -1 46 -2t40 -1.5t38 -0.5h41h39t34.5 0.5t34 1.5t38.5 2l-5 -34q-28 -1 -43.5 -2t-23.5 -3.5t-11 -6.5t-6 -12q-4 -9 -10 -33t-14 -65t-18.5 -100.5t-24.5 -139.5q-12 -68 -18.5 -107t-9.5 -59.5t-3.5 -28.5t-0.5 -15q0 -17 11.5 -22.5t53.5 -8.5
q3 -1 8.5 -1t13.5 -1l-5 -34q-49 1 -76 2t-41.5 1.5t-20 0.5h-11.5h-15t-28 -0.5t-45.5 -1.5t-67.5 -2z" />
    <glyph glyph-name="Icircumflex" unicode="&#xce;" horiz-adv-x="353" 
d="M263 912h68l85 -169h-43l-87 99l-130 -99h-49zM-4 30q38 1 54 3.5t23 9.5q4 3 6.5 7t5.5 15.5t7 34.5t12 65q21 121 35.5 201t22.5 129.5t11.5 72.5t3.5 30q0 20 -13 27t-56 9l-21 1l4 34q25 -1 46 -2t40 -1.5t38 -0.5h41h39t34.5 0.5t34 1.5t38.5 2l-5 -34
q-28 -1 -43.5 -2t-23.5 -3.5t-11 -6.5t-6 -12q-4 -9 -10 -33t-14 -65t-18.5 -100.5t-24.5 -139.5q-12 -68 -18.5 -107t-9.5 -59.5t-3.5 -28.5t-0.5 -15q0 -17 11.5 -22.5t53.5 -8.5q3 -1 8.5 -1t13.5 -1l-5 -34q-49 1 -76 2t-41.5 1.5t-20 0.5h-11.5h-15t-28 -0.5
t-45.5 -1.5t-67.5 -2z" />
    <glyph glyph-name="Idieresis" unicode="&#xcf;" horiz-adv-x="353" 
d="M204 888q23 0 36 -14t13 -37q0 -32 -18.5 -53.5t-46.5 -21.5q-24 0 -38 14t-14 38q0 32 19 53t49 21zM372 888q23 0 36.5 -14t13.5 -37q0 -32 -18.5 -53.5t-46.5 -21.5q-25 0 -39 14t-14 38q0 32 19.5 53t48.5 21zM-4 30q38 1 54 3.5t23 9.5q4 3 6.5 7t5.5 15.5t7 34.5
t12 65q21 121 35.5 201t22.5 129.5t11.5 72.5t3.5 30q0 20 -13 27t-56 9l-21 1l4 34q25 -1 46 -2t40 -1.5t38 -0.5h41h39t34.5 0.5t34 1.5t38.5 2l-5 -34q-28 -1 -43.5 -2t-23.5 -3.5t-11 -6.5t-6 -12q-4 -9 -10 -33t-14 -65t-18.5 -100.5t-24.5 -139.5q-12 -68 -18.5 -107
t-9.5 -59.5t-3.5 -28.5t-0.5 -15q0 -17 11.5 -22.5t53.5 -8.5q3 -1 8.5 -1t13.5 -1l-5 -34q-49 1 -76 2t-41.5 1.5t-20 0.5h-11.5h-15t-28 -0.5t-45.5 -1.5t-67.5 -2z" />
    <glyph glyph-name="Eth" unicode="&#xd0;" horiz-adv-x="760" 
d="M255 335q-14 -78 -22 -125.5t-12.5 -76t-7 -44.5t-5.5 -31q31 -5 54 -7.5t40.5 -4.5t31.5 -2.5t28 -0.5q60 0 102.5 24t72.5 75q34 57 52.5 130t18.5 147q0 55 -15 97t-43 66q-24 20 -62 30.5t-92 10.5q-22 0 -41 -1.5t-48 -4.5q-6 -34 -17.5 -95.5t-28.5 -152.5
q25 0 44 0.5t35.5 1t32.5 0.5h36l-2 -5l-4 -13l-6 -18h-142zM12 30q24 4 37.5 7.5t21 8t10 11t5.5 18.5q2 12 4 22.5t4 22.5l4.5 27t6.5 37q3 14 5.5 28t5.5 31.5t7 39.5t9 52h-121l2 5l3 12q1 3 1.5 6.5t2.5 11.5q44 -1 69 -1h49q14 78 21.5 121t11 64.5t4 28.5t0.5 14
q0 11 -2 17.5t-9 10.5t-21 5.5t-37 3.5l-21 1l5 34q10 -1 28.5 -1.5t40 -1t42.5 -1t36 -0.5q16 0 39 0.5t65 2.5q30 1 58 1.5t49 0.5q37 0 67 -3t55 -9.5t45.5 -16.5t39.5 -24q43 -32 66 -85t23 -119q0 -47 -10 -92.5t-28.5 -87t-45 -78.5t-59.5 -65q-112 -95 -259 -95h-15
t-18 0.5t-33 1t-59 2.5q-19 1 -36 1h-34h-18.5t-24.5 -0.5t-38 -1.5t-57 -2z" />
    <glyph glyph-name="Ntilde" unicode="&#xd1;" horiz-adv-x="759" 
d="M314 768q13 55 40.5 84t66.5 29q17 0 35.5 -5t56.5 -20q26 -10 38.5 -13.5t22.5 -3.5q28 0 47 43h35q-10 -52 -39 -82.5t-68 -30.5q-9 0 -15 0.5t-16 3.5t-25.5 8.5t-43.5 16.5q-35 14 -51 14q-34 0 -49 -44h-35zM-5 30h9.5t6.5 1q22 0 35 2.5t21 12t13 28t11 51.5
q8 43 17.5 90t19.5 97q5 24 9 45.5t9.5 50.5t13 70.5t18.5 104.5q-12 15 -19.5 24t-13.5 13.5t-12.5 6.5t-15.5 4q-4 1 -20.5 2t-37.5 2l4 34q27 -2 43 -2.5t26 -1t16 -0.5h13q3 0 23 0.5t52 2.5l38 1q29 -51 60 -105.5t68 -118t81 -138.5t100 -168q17 88 31.5 166.5t25 139
t16.5 99t6 47.5q0 14 -3 22.5t-12 13t-26.5 6t-46.5 2.5l6 34q25 -2 41 -2.5t28 -1t21 -0.5h21h12t20.5 0.5t34.5 1.5t54 2l-5 -34q-26 0 -40.5 -1.5t-23 -5.5t-12 -12t-7.5 -22q-22 -99 -39.5 -180.5t-31 -152.5t-24.5 -136t-21 -132h-85q-41 69 -81 138t-80 139
q-35 62 -57.5 101.5t-37.5 66t-26 45.5t-24 41q-15 -79 -29.5 -156.5t-25 -141t-17 -107t-6.5 -53.5t3 -16.5t12 -10t26 -6t45 -3.5l-5 -34q-38 1 -58.5 2t-32 1.5t-17 0.5h-11.5q-8 0 -28.5 -0.5t-52.5 -2.5h-11.5t-17.5 -1z" />
    <glyph glyph-name="Ograve" unicode="&#xd2;" horiz-adv-x="773" 
d="M503 743l-118 84q-27 18 -34.5 27.5t-7.5 24.5q0 17 12 27.5t29 10.5t30 -10t34 -38l94 -126h-39zM449 641q-72 0 -121.5 -33.5t-81.5 -103.5q-29 -64 -45 -139.5t-16 -153.5q0 -91 47 -140.5t132 -49.5q60 0 107 28.5t77 84.5q35 65 55 145t20 159q0 97 -45.5 150
t-128.5 53zM457 683q145 0 223.5 -72t78.5 -204q0 -91 -34.5 -174.5t-94.5 -143.5q-112 -109 -284 -109q-130 0 -208 63q-45 35 -66 85t-21 121q0 97 32 182.5t89 145.5q106 106 285 106z" />
    <glyph glyph-name="Oacute" unicode="&#xd3;" horiz-adv-x="773" 
d="M414 743l118 122q14 16 24 26t18 15.5t14 7.5t13 2q18 0 30.5 -11.5t12.5 -28.5q0 -8 -1.5 -14t-7.5 -11.5t-18 -13t-32 -18.5l-129 -76h-42zM449 641q-72 0 -121.5 -33.5t-81.5 -103.5q-29 -64 -45 -139.5t-16 -153.5q0 -91 47 -140.5t132 -49.5q60 0 107 28.5t77 84.5
q35 65 55 145t20 159q0 97 -45.5 150t-128.5 53zM457 683q145 0 223.5 -72t78.5 -204q0 -91 -34.5 -174.5t-94.5 -143.5q-112 -109 -284 -109q-130 0 -208 63q-45 35 -66 85t-21 121q0 97 32 182.5t89 145.5q106 106 285 106z" />
    <glyph glyph-name="Ocircumflex" unicode="&#xd4;" horiz-adv-x="773" 
d="M473 912h67l86 -169h-44l-86 99l-131 -99h-49zM449 641q-72 0 -121.5 -33.5t-81.5 -103.5q-29 -64 -45 -139.5t-16 -153.5q0 -91 47 -140.5t132 -49.5q60 0 107 28.5t77 84.5q35 65 55 145t20 159q0 97 -45.5 150t-128.5 53zM457 683q145 0 223.5 -72t78.5 -204
q0 -91 -34.5 -174.5t-94.5 -143.5q-112 -109 -284 -109q-130 0 -208 63q-45 35 -66 85t-21 121q0 97 32 182.5t89 145.5q106 106 285 106z" />
    <glyph glyph-name="Otilde" unicode="&#xd5;" horiz-adv-x="773" 
d="M321 768q14 55 41 84t66 29q9 0 17 -1t18.5 -4t24 -8t32.5 -12q26 -10 38.5 -13.5t23.5 -3.5q27 0 46 43h35q-11 -53 -39 -83t-68 -30q-9 0 -15 0.5t-15.5 3.5t-25 8.5t-43.5 16.5q-35 14 -52 14q-33 0 -48 -44h-36zM449 641q-72 0 -121.5 -33.5t-81.5 -103.5
q-29 -64 -45 -139.5t-16 -153.5q0 -91 47 -140.5t132 -49.5q60 0 107 28.5t77 84.5q35 65 55 145t20 159q0 97 -45.5 150t-128.5 53zM457 683q145 0 223.5 -72t78.5 -204q0 -91 -34.5 -174.5t-94.5 -143.5q-112 -109 -284 -109q-130 0 -208 63q-45 35 -66 85t-21 121
q0 97 32 182.5t89 145.5q106 106 285 106z" />
    <glyph glyph-name="Odieresis" unicode="&#xd6;" horiz-adv-x="773" 
d="M400 888q23 0 36.5 -14t13.5 -37q0 -32 -18.5 -53.5t-46.5 -21.5q-25 0 -39 14t-14 38q0 32 19.5 53t48.5 21zM602 888q23 0 36.5 -14t13.5 -37q0 -32 -18.5 -53.5t-46.5 -21.5q-25 0 -39 14t-14 38q0 32 19.5 53t48.5 21zM449 641q-72 0 -121.5 -33.5t-81.5 -103.5
q-29 -64 -45 -139.5t-16 -153.5q0 -91 47 -140.5t132 -49.5q60 0 107 28.5t77 84.5q35 65 55 145t20 159q0 97 -45.5 150t-128.5 53zM457 683q145 0 223.5 -72t78.5 -204q0 -91 -34.5 -174.5t-94.5 -143.5q-112 -109 -284 -109q-130 0 -208 63q-45 35 -66 85t-21 121
q0 97 32 182.5t89 145.5q106 106 285 106z" />
    <glyph glyph-name="multiply" unicode="&#xd7;" 
d="M220 338l-122 141l70 60l118 -144l173 147l51 -63l-172 -146l118 -144l-67 -57l-118 144l-173 -147l-51 62z" />
    <glyph glyph-name="Oslash" unicode="&#xd8;" horiz-adv-x="773" 
d="M191 150q88 93 187 197.5t211 223.5q-48 70 -143 70q-137 0 -200 -137q-14 -31 -25.5 -66t-19.5 -71.5t-12 -73.5t-4 -71q0 -23 1 -37.5t5 -34.5zM610 525q-60 -63 -112 -118t-100.5 -106t-95 -100t-93.5 -100q24 -39 63.5 -59.5t90.5 -20.5q122 0 184 114q35 63 55 143
t20 155q0 27 -2.5 48t-9.5 44zM147 35q-16 -17 -27 -29t-20 -21.5t-16.5 -18.5l-17.5 -21q-8 11 -15 17.5t-24 20.5q12 11 21.5 20t19.5 18.5t20 20t24 24.5q-32 36 -46.5 79.5t-14.5 106.5q0 95 32 180.5t89 144.5q51 52 122 79t158 27q61 0 108.5 -11.5t88.5 -36.5
q9 10 16.5 17.5t15.5 16.5t19 21.5t28 32.5q9 -11 18.5 -20t20.5 -18q-15 -15 -26 -25t-20 -18.5t-17 -17t-18 -19.5q72 -73 72 -199q0 -89 -34.5 -173t-94.5 -144q-112 -109 -283 -109q-119 0 -199 55z" />
    <glyph glyph-name="Ugrave" unicode="&#xd9;" horiz-adv-x="766" 
d="M486 743l-118 84q-27 18 -34.5 27.5t-7.5 24.5q0 17 12 27.5t29 10.5t29.5 -9.5t34.5 -38.5l94 -126h-39zM87 669q40 -2 65.5 -3t51.5 -1q25 0 47.5 1t57.5 3l7 -7q-17 -72 -33 -152.5t-29 -153t-21 -127t-8 -73.5q0 -40 28.5 -66t73.5 -26q49 0 94.5 27.5t95.5 87.5
q35 205 52.5 309.5t17.5 109.5q0 25 -25 31q-3 1 -6.5 1.5t-10 1t-18 1.5t-29.5 2l5 34q28 -1 48 -2t35.5 -1.5t29.5 -0.5h29h20t31.5 0.5t47.5 1.5t68 2l-5 -34l-18 -1l-28 -2q-12 -1 -19 -3t-11.5 -8t-8 -17.5t-8.5 -31.5q-5 -19 -13.5 -62t-18 -97t-20 -112.5
t-18.5 -108.5t-13.5 -84.5t-5.5 -41.5q0 -9 2.5 -15t10 -10t22 -6t37.5 -4h7.5t11.5 -1l-5 -34q-41 2 -62.5 3t-41.5 1h-14t-20.5 -0.5t-32 -1.5t-48.5 -2l-5 7q4 18 7 32.5t5.5 28.5t5 28.5t5.5 31.5q-37 -39 -67.5 -66t-59 -43.5t-56.5 -24t-59 -7.5q-38 0 -69.5 12
t-54.5 33t-36 50t-13 63q0 17 2 39t7 46q13 69 24.5 133.5t20.5 116t14 85t5 40.5q0 24 -23 29q-3 0 -18.5 1.5t-44.5 3.5z" />
    <glyph glyph-name="Uacute" unicode="&#xda;" horiz-adv-x="766" 
d="M410 743l118 122q14 16 24 26t18 15.5t14 7.5t13 2q18 0 30.5 -11.5t12.5 -28.5q0 -8 -2 -14t-8 -12t-17.5 -13t-31.5 -18l-129 -76h-42zM87 669q40 -2 65.5 -3t51.5 -1q25 0 47.5 1t57.5 3l7 -7q-17 -72 -33 -152.5t-29 -153t-21 -127t-8 -73.5q0 -40 28.5 -66t73.5 -26
q49 0 94.5 27.5t95.5 87.5q35 205 52.5 309.5t17.5 109.5q0 25 -25 31q-3 1 -6.5 1.5t-10 1t-18 1.5t-29.5 2l5 34q28 -1 48 -2t35.5 -1.5t29.5 -0.5h29h20t31.5 0.5t47.5 1.5t68 2l-5 -34l-18 -1l-28 -2q-12 -1 -19 -3t-11.5 -8t-8 -17.5t-8.5 -31.5q-5 -19 -13.5 -62
t-18 -97t-20 -112.5t-18.5 -108.5t-13.5 -84.5t-5.5 -41.5q0 -9 2.5 -15t10 -10t22 -6t37.5 -4h7.5t11.5 -1l-5 -34q-41 2 -62.5 3t-41.5 1h-14t-20.5 -0.5t-32 -1.5t-48.5 -2l-5 7q4 18 7 32.5t5.5 28.5t5 28.5t5.5 31.5q-37 -39 -67.5 -66t-59 -43.5t-56.5 -24t-59 -7.5
q-38 0 -69.5 12t-54.5 33t-36 50t-13 63q0 17 2 39t7 46q13 69 24.5 133.5t20.5 116t14 85t5 40.5q0 24 -23 29q-3 0 -18.5 1.5t-44.5 3.5z" />
    <glyph glyph-name="Ucircumflex" unicode="&#xdb;" horiz-adv-x="766" 
d="M462 912h68l85 -169h-43l-86 99l-131 -99h-49zM87 669q40 -2 65.5 -3t51.5 -1q25 0 47.5 1t57.5 3l7 -7q-17 -72 -33 -152.5t-29 -153t-21 -127t-8 -73.5q0 -40 28.5 -66t73.5 -26q49 0 94.5 27.5t95.5 87.5q35 205 52.5 309.5t17.5 109.5q0 25 -25 31q-3 1 -6.5 1.5
t-10 1t-18 1.5t-29.5 2l5 34q28 -1 48 -2t35.5 -1.5t29.5 -0.5h29h20t31.5 0.5t47.5 1.5t68 2l-5 -34l-18 -1l-28 -2q-12 -1 -19 -3t-11.5 -8t-8 -17.5t-8.5 -31.5q-5 -19 -13.5 -62t-18 -97t-20 -112.5t-18.5 -108.5t-13.5 -84.5t-5.5 -41.5q0 -9 2.5 -15t10 -10t22 -6
t37.5 -4h7.5t11.5 -1l-5 -34q-41 2 -62.5 3t-41.5 1h-14t-20.5 -0.5t-32 -1.5t-48.5 -2l-5 7q4 18 7 32.5t5.5 28.5t5 28.5t5.5 31.5q-37 -39 -67.5 -66t-59 -43.5t-56.5 -24t-59 -7.5q-38 0 -69.5 12t-54.5 33t-36 50t-13 63q0 17 2 39t7 46q13 69 24.5 133.5t20.5 116
t14 85t5 40.5q0 24 -23 29q-3 0 -18.5 1.5t-44.5 3.5z" />
    <glyph glyph-name="Udieresis" unicode="&#xdc;" horiz-adv-x="766" 
d="M389 888q23 0 36.5 -14t13.5 -37q0 -32 -18.5 -53.5t-46.5 -21.5q-25 0 -39 14t-14 38q0 32 19.5 53t48.5 21zM591 888q23 0 36.5 -14t13.5 -37q0 -32 -18.5 -53.5t-46.5 -21.5q-25 0 -39 14t-14 38q0 32 19.5 53t48.5 21zM87 669q40 -2 65.5 -3t51.5 -1q25 0 47.5 1
t57.5 3l7 -7q-17 -72 -33 -152.5t-29 -153t-21 -127t-8 -73.5q0 -40 28.5 -66t73.5 -26q49 0 94.5 27.5t95.5 87.5q35 205 52.5 309.5t17.5 109.5q0 25 -25 31q-3 1 -6.5 1.5t-10 1t-18 1.5t-29.5 2l5 34q28 -1 48 -2t35.5 -1.5t29.5 -0.5h29h20t31.5 0.5t47.5 1.5t68 2
l-5 -34l-18 -1l-28 -2q-12 -1 -19 -3t-11.5 -8t-8 -17.5t-8.5 -31.5q-5 -19 -13.5 -62t-18 -97t-20 -112.5t-18.5 -108.5t-13.5 -84.5t-5.5 -41.5q0 -9 2.5 -15t10 -10t22 -6t37.5 -4h7.5t11.5 -1l-5 -34q-41 2 -62.5 3t-41.5 1h-14t-20.5 -0.5t-32 -1.5t-48.5 -2l-5 7
q4 18 7 32.5t5.5 28.5t5 28.5t5.5 31.5q-37 -39 -67.5 -66t-59 -43.5t-56.5 -24t-59 -7.5q-38 0 -69.5 12t-54.5 33t-36 50t-13 63q0 17 2 39t7 46q13 69 24.5 133.5t20.5 116t14 85t5 40.5q0 24 -23 29q-3 0 -18.5 1.5t-44.5 3.5z" />
    <glyph glyph-name="Yacute" unicode="&#xdd;" horiz-adv-x="568" 
d="M325 743l118 122q14 16 24 26t17.5 15.5t13.5 7.5t13 2q18 0 30.5 -11.5t12.5 -28.5q0 -8 -1.5 -14t-7.5 -12t-17.5 -13t-31.5 -18l-129 -76h-42zM111 30q33 1 51.5 3t28.5 6t13 12t6 22q6 28 10.5 55.5t8.5 50.5t6 41t2 26q0 12 -6 39.5t-15.5 61t-21.5 69.5t-23 64
q-13 33 -26 54.5t-28.5 34.5t-35 18.5t-44.5 5.5h-14.5t-18.5 -2l-1 30q22 10 37 17t27 13t23.5 12t26.5 15q18 3 32 3q30 0 58.5 -19.5t45.5 -53.5q11 -22 18 -37.5t14.5 -41t18 -70t28.5 -125.5q1 -2 3.5 -12t5.5 -25q34 81 70.5 145.5t82.5 124.5q48 59 80.5 83t64.5 23
l9 -7l-14 -83q-24 -6 -45.5 -17t-42 -29t-42 -44t-46.5 -62q-21 -32 -37.5 -60.5t-28.5 -57t-21 -58.5t-16 -64q-3 -18 -6.5 -38t-6.5 -37.5t-5 -30.5t-2 -17q0 -14 7 -23q4 -3 7 -4.5t9.5 -3t19.5 -2.5t37 -3q2 0 7.5 -0.5t12.5 -1.5l-4 -34q-30 1 -51.5 2t-38.5 1.5
t-32.5 0.5h-34.5h-33.5t-33.5 -0.5t-41.5 -1.5t-58.5 -2z" />
    <glyph glyph-name="Thorn" unicode="&#xde;" horiz-adv-x="624" 
d="M-7 30l16 1q22 1 36 2.5t21.5 6t11.5 12.5t7 22q17 85 35.5 191t41.5 235q2 11 3.5 19.5t1.5 11.5q6 31 7.5 42.5t1.5 20.5q0 12 -2 19.5t-10.5 11.5t-26.5 6t-49 4l2 34q31 -1 53.5 -2t41 -1.5t36 -0.5h38.5h37t33.5 0.5t33.5 1.5t38 2l-5 -34q-22 -1 -35 -1.5t-21 -1.5
t-12 -2.5t-7 -4.5q-6 -5 -9.5 -15t-10.5 -38q34 3 54.5 4t46.5 1q51 0 84.5 -4.5t56.5 -15.5q39 -18 59.5 -55t20.5 -88q0 -49 -19 -91.5t-52 -74t-78 -49.5t-96 -18q-25 0 -46 4t-52 15l-4 30l4 4q25 -8 39.5 -11t30.5 -3q30 0 56 14.5t45 40t30 61t11 76.5q0 122 -129 122
q-18 0 -33.5 -1.5t-36.5 -5.5q-7 -33 -15.5 -78.5t-17.5 -94.5t-17 -98t-14.5 -89t-10.5 -68t-4 -35q0 -10 3 -16t13.5 -9.5t31 -5.5t54.5 -3l-7 -34q-14 1 -27 1h-16l-133 3h-16t-24.5 -0.5t-40 -1.5t-62.5 -2z" />
    <glyph glyph-name="germandbls" unicode="&#xdf;" horiz-adv-x="556" 
d="M268 127q1 -5 1 -8.5v-5.5v-27l1 -13q37 -42 81 -42q12 0 24.5 6.5t22.5 17t16 24t6 27.5q0 18 -12 42t-40 62q-17 22 -27.5 37.5t-16.5 27.5t-8 21.5t-2 19.5t2 19t9.5 21.5t22 31t40.5 49.5q31 37 44.5 69.5t13.5 68.5q0 37 -22.5 59t-60.5 22q-32 0 -52.5 -17
t-34.5 -55q-3 -9 -6.5 -20.5t-9 -34t-14 -60.5t-22.5 -101q-27 -121 -47 -204.5t-37 -141t-32.5 -94t-33.5 -63.5q-41 -62 -91.5 -100.5t-92.5 -38.5q-10 0 -19 2t-24 9l32 102l15 5q22 -45 58 -45q28 0 46 29t30 95q8 45 17 92t17 90.5t15 79t11 56.5q3 14 5.5 26t5 26
t6 32t8.5 44q1 3 2 8.5t3 19.5h-66h-26l4 25q31 7 57.5 14.5t43.5 15.5q6 30 11.5 50.5t13 36t18 28.5t25.5 29q56 56 115.5 87t111.5 31q24 0 44.5 -8t36 -22.5t24 -33.5t8.5 -41q0 -20 -6.5 -42.5t-17.5 -39.5q-5 -8 -10 -15t-12.5 -15.5t-17.5 -19t-25 -25.5
q-46 -46 -46 -72q0 -9 2.5 -18t9 -20.5t18 -27t29.5 -37.5q26 -32 36.5 -55.5t10.5 -46.5q0 -57 -68 -126q-36 -36 -66.5 -51.5t-65.5 -15.5q-23 0 -42.5 4.5t-49.5 17.5q3 11 4.5 18.5t2.5 10.5l9 36q4 15 7 28t6 30h21z" />
    <glyph glyph-name="agrave" unicode="&#xe0;" 
d="M324 530l-118 84q-27 18 -34.5 27.5t-7.5 24.5q0 17 12 27.5t29 10.5t30 -10t34 -38l94 -126h-39zM342 397q-14 8 -33.5 12.5t-34.5 4.5q-33 0 -54 -22.5t-40 -78.5q-10 -30 -18.5 -60.5t-14.5 -59.5t-9.5 -53.5t-3.5 -42.5q0 -14 4.5 -23.5t12.5 -9.5q10 0 25 11
t32.5 29.5t36.5 44t37 55.5q31 51 47.5 95t23.5 92q-4 2 -4.5 2.5t-2.5 1.5zM479 454q-7 -20 -16 -53t-18 -70.5t-17.5 -75t-14.5 -65.5q-7 -32 -11 -52t-5 -24q-2 -8 -3 -16.5t-1 -13.5q0 -8 4 -14t9 -6q8 0 24 10t50 36l10 -31q-64 -51 -103.5 -74t-62.5 -23
q-16 0 -25.5 13t-9.5 33q0 11 1 22.5t5 29.5l10 45t17 70q1 4 3 11t4 18q-30 -52 -52.5 -84.5t-47.5 -60.5q-39 -45 -80 -71t-71 -26q-26 0 -40.5 22.5t-14.5 63.5q0 28 6 64.5t15.5 73t21.5 69t25 53.5q4 7 8.5 12.5t12.5 13t22 18t37 28.5q27 20 46 33t35 20.5t30.5 10.5
t31.5 3q48 0 105 -27l44 26z" />
    <glyph glyph-name="aacute" unicode="&#xe1;" 
d="M262 530l118 122q29 31 42 41t27 10q18 0 30.5 -12t12.5 -29q0 -8 -2 -13.5t-8 -11.5t-17.5 -13t-31.5 -18l-129 -76h-42zM342 397q-14 8 -33.5 12.5t-34.5 4.5q-33 0 -54 -22.5t-40 -78.5q-10 -30 -18.5 -60.5t-14.5 -59.5t-9.5 -53.5t-3.5 -42.5q0 -14 4.5 -23.5
t12.5 -9.5q10 0 25 11t32.5 29.5t36.5 44t37 55.5q31 51 47.5 95t23.5 92q-4 2 -4.5 2.5t-2.5 1.5zM479 454q-7 -20 -16 -53t-18 -70.5t-17.5 -75t-14.5 -65.5q-7 -32 -11 -52t-5 -24q-2 -8 -3 -16.5t-1 -13.5q0 -8 4 -14t9 -6q8 0 24 10t50 36l10 -31q-64 -51 -103.5 -74
t-62.5 -23q-16 0 -25.5 13t-9.5 33q0 11 1 22.5t5 29.5l10 45t17 70q1 4 3 11t4 18q-30 -52 -52.5 -84.5t-47.5 -60.5q-39 -45 -80 -71t-71 -26q-26 0 -40.5 22.5t-14.5 63.5q0 28 6 64.5t15.5 73t21.5 69t25 53.5q4 7 8.5 12.5t12.5 13t22 18t37 28.5q27 20 46 33t35 20.5
t30.5 10.5t31.5 3q48 0 105 -27l44 26z" />
    <glyph glyph-name="acircumflex" unicode="&#xe2;" 
d="M307 698h68l85 -168h-43l-86 98l-131 -98h-49zM342 397q-14 8 -33.5 12.5t-34.5 4.5q-33 0 -54 -22.5t-40 -78.5q-10 -30 -18.5 -60.5t-14.5 -59.5t-9.5 -53.5t-3.5 -42.5q0 -14 4.5 -23.5t12.5 -9.5q10 0 25 11t32.5 29.5t36.5 44t37 55.5q31 51 47.5 95t23.5 92
q-4 2 -4.5 2.5t-2.5 1.5zM479 454q-7 -20 -16 -53t-18 -70.5t-17.5 -75t-14.5 -65.5q-7 -32 -11 -52t-5 -24q-2 -8 -3 -16.5t-1 -13.5q0 -8 4 -14t9 -6q8 0 24 10t50 36l10 -31q-64 -51 -103.5 -74t-62.5 -23q-16 0 -25.5 13t-9.5 33q0 11 1 22.5t5 29.5l10 45t17 70
q1 4 3 11t4 18q-30 -52 -52.5 -84.5t-47.5 -60.5q-39 -45 -80 -71t-71 -26q-26 0 -40.5 22.5t-14.5 63.5q0 28 6 64.5t15.5 73t21.5 69t25 53.5q4 7 8.5 12.5t12.5 13t22 18t37 28.5q27 20 46 33t35 20.5t30.5 10.5t31.5 3q48 0 105 -27l44 26z" />
    <glyph glyph-name="atilde" unicode="&#xe3;" 
d="M156 555q13 55 40.5 84t65.5 29q17 0 36 -5t57 -20q26 -10 38 -13.5t23 -3.5q29 0 46 43h35q-9 -52 -38 -82.5t-68 -30.5q-9 0 -15 0.5t-16 3.5t-25.5 8.5t-43.5 16.5q-35 14 -51 14q-34 0 -49 -44h-35zM342 397q-14 8 -33.5 12.5t-34.5 4.5q-33 0 -54 -22.5t-40 -78.5
q-10 -30 -18.5 -60.5t-14.5 -59.5t-9.5 -53.5t-3.5 -42.5q0 -14 4.5 -23.5t12.5 -9.5q10 0 25 11t32.5 29.5t36.5 44t37 55.5q31 51 47.5 95t23.5 92q-4 2 -4.5 2.5t-2.5 1.5zM479 454q-7 -20 -16 -53t-18 -70.5t-17.5 -75t-14.5 -65.5q-7 -32 -11 -52t-5 -24
q-2 -8 -3 -16.5t-1 -13.5q0 -8 4 -14t9 -6q8 0 24 10t50 36l10 -31q-64 -51 -103.5 -74t-62.5 -23q-16 0 -25.5 13t-9.5 33q0 11 1 22.5t5 29.5l10 45t17 70q1 4 3 11t4 18q-30 -52 -52.5 -84.5t-47.5 -60.5q-39 -45 -80 -71t-71 -26q-26 0 -40.5 22.5t-14.5 63.5
q0 28 6 64.5t15.5 73t21.5 69t25 53.5q4 7 8.5 12.5t12.5 13t22 18t37 28.5q27 20 46 33t35 20.5t30.5 10.5t31.5 3q48 0 105 -27l44 26z" />
    <glyph glyph-name="adieresis" unicode="&#xe4;" 
d="M241 673q22 0 35 -13t13 -36q0 -32 -18 -52.5t-45 -20.5q-23 0 -37 13.5t-14 36.5q0 32 18.5 52t47.5 20zM431 673q22 0 35 -13t13 -36q0 -32 -18 -52.5t-45 -20.5q-23 0 -37 13.5t-14 36.5q0 32 18.5 52t47.5 20zM342 397q-14 8 -33.5 12.5t-34.5 4.5q-33 0 -54 -22.5
t-40 -78.5q-10 -30 -18.5 -60.5t-14.5 -59.5t-9.5 -53.5t-3.5 -42.5q0 -14 4.5 -23.5t12.5 -9.5q10 0 25 11t32.5 29.5t36.5 44t37 55.5q31 51 47.5 95t23.5 92q-4 2 -4.5 2.5t-2.5 1.5zM479 454q-7 -20 -16 -53t-18 -70.5t-17.5 -75t-14.5 -65.5q-7 -32 -11 -52t-5 -24
q-2 -8 -3 -16.5t-1 -13.5q0 -8 4 -14t9 -6q8 0 24 10t50 36l10 -31q-64 -51 -103.5 -74t-62.5 -23q-16 0 -25.5 13t-9.5 33q0 11 1 22.5t5 29.5l10 45t17 70q1 4 3 11t4 18q-30 -52 -52.5 -84.5t-47.5 -60.5q-39 -45 -80 -71t-71 -26q-26 0 -40.5 22.5t-14.5 63.5
q0 28 6 64.5t15.5 73t21.5 69t25 53.5q4 7 8.5 12.5t12.5 13t22 18t37 28.5q27 20 46 33t35 20.5t30.5 10.5t31.5 3q48 0 105 -27l44 26z" />
    <glyph glyph-name="aring" unicode="&#xe5;" 
d="M342 704q-32 0 -53 -30.5t-21 -77.5q0 -26 12 -40t33 -14q32 0 53.5 30t21.5 77q0 55 -46 55zM346 727q46 0 70.5 -21t24.5 -61q0 -57 -36.5 -91.5t-96.5 -34.5q-45 0 -69 21.5t-24 60.5q0 56 36.5 91t94.5 35zM342 397q-14 8 -33.5 12.5t-34.5 4.5q-33 0 -54 -22.5
t-40 -78.5q-10 -30 -18.5 -60.5t-14.5 -59.5t-9.5 -53.5t-3.5 -42.5q0 -14 4.5 -23.5t12.5 -9.5q10 0 25 11t32.5 29.5t36.5 44t37 55.5q31 51 47.5 95t23.5 92q-4 2 -4.5 2.5t-2.5 1.5zM479 454q-7 -20 -16 -53t-18 -70.5t-17.5 -75t-14.5 -65.5q-7 -32 -11 -52t-5 -24
q-2 -8 -3 -16.5t-1 -13.5q0 -8 4 -14t9 -6q8 0 24 10t50 36l10 -31q-64 -51 -103.5 -74t-62.5 -23q-16 0 -25.5 13t-9.5 33q0 11 1 22.5t5 29.5l10 45t17 70q1 4 3 11t4 18q-30 -52 -52.5 -84.5t-47.5 -60.5q-39 -45 -80 -71t-71 -26q-26 0 -40.5 22.5t-14.5 63.5
q0 28 6 64.5t15.5 73t21.5 69t25 53.5q4 7 8.5 12.5t12.5 13t22 18t37 28.5q27 20 46 33t35 20.5t30.5 10.5t31.5 3q48 0 105 -27l44 26z" />
    <glyph glyph-name="ae" unicode="&#xe6;" horiz-adv-x="685" 
d="M289 222q-29 0 -57 -4t-48 -11q-29 -11 -47.5 -35.5t-18.5 -54.5q0 -28 16 -44.5t43 -16.5q35 0 63.5 20.5t43.5 56.5q8 17 12 37.5t7 51.5h-14zM413 254q15 0 29 1t25 4q24 5 45 16.5t36.5 27t24.5 34t9 37.5q0 20 -13 33.5t-33 13.5q-29 0 -54.5 -20.5t-42.5 -59.5
q-8 -17 -13.5 -36.5t-12.5 -50.5zM111 335l-18 3l-8 74q42 31 75.5 43t76.5 12q60 0 98.5 -20t62.5 -62q46 42 89.5 62t88.5 20q47 0 72.5 -21t25.5 -60q0 -42 -26.5 -75.5t-77.5 -54.5q-17 -7 -33.5 -12.5t-35.5 -9t-41.5 -6.5t-52.5 -5q-5 -26 -7 -46.5t-2 -37.5
q0 -87 71 -87q35 0 75.5 16t84.5 45l12 -26q-67 -50 -130 -77.5t-109 -27.5q-42 0 -69 21t-45 69q-48 -48 -89 -69t-86 -21t-71 27.5t-26 75.5q0 55 31 94t88 56q15 4 31.5 7t37 5t46 3.5t57.5 1.5q4 22 5 33.5t1 22.5q0 49 -31.5 77.5t-85.5 28.5q-17 0 -29.5 -2.5
t-30.5 -10.5z" />
    <glyph glyph-name="ccedilla" unicode="&#xe7;" horiz-adv-x="414" 
d="M158 -61q17 4 30 4q37 0 60.5 -19.5t23.5 -49.5q0 -38 -34 -62t-88 -24q-50 0 -102 24l19 30q21 -8 37 -12t32 -4q23 0 38 12t15 30q0 17 -12.5 27t-33.5 10q-8 0 -14 -1t-17 -4l-11 12l48 71q-118 12 -118 133q0 67 19.5 129.5t51.5 101.5q18 21 42 41t56 38
q37 22 65.5 31.5t57.5 9.5q25 0 50 -5.5t56 -19.5q-11 -35 -20 -70.5t-14 -67.5h-34q4 21 5.5 32.5t1.5 18.5q0 10 -8 20t-21.5 18t-30.5 13t-34 5q-32 0 -58 -22.5t-41 -63.5q-7 -18 -12.5 -40t-9.5 -44.5t-6.5 -44.5t-2.5 -41q0 -53 19 -80.5t54 -27.5t81.5 20.5
t90.5 55.5l3 -35q-22 -19 -48.5 -36.5t-54.5 -32t-54.5 -23.5t-47.5 -12z" />
    <glyph glyph-name="egrave" unicode="&#xe8;" horiz-adv-x="426" 
d="M305 530l-118 84q-26 18 -34 27.5t-8 24.5q0 17 12 27.5t29 10.5t30 -9.5t34 -38.5l94 -126h-39zM149 221q3 1 4 1t6 1q21 4 42.5 11t39.5 17q17 9 31 22.5t24.5 30t16.5 34.5t6 36q0 20 -13 33t-34 13q-55 0 -87 -75q-6 -13 -10 -24t-7.5 -24t-8 -31t-10.5 -45zM376 84
q-61 -48 -121.5 -75t-104.5 -27q-57 0 -89.5 31.5t-32.5 86.5q0 25 4 55t11 59t16 55.5t20 45.5q16 29 38.5 52.5t57.5 46.5q42 28 77 40.5t69 12.5q91 0 91 -81q0 -38 -15 -67.5t-47 -52.5t-82.5 -41t-122.5 -33q-3 -23 -4 -36t-1 -27q0 -80 76 -80q61 0 159 66z" />
    <glyph glyph-name="eacute" unicode="&#xe9;" horiz-adv-x="426" 
d="M216 530l118 122q28 31 41.5 41t27.5 10q18 0 30.5 -12t12.5 -29q0 -8 -2 -13.5t-8 -11.5t-17.5 -13t-31.5 -18l-129 -76h-42zM149 221q3 1 4 1t6 1q21 4 42.5 11t39.5 17q17 9 31 22.5t24.5 30t16.5 34.5t6 36q0 20 -13 33t-34 13q-55 0 -87 -75q-6 -13 -10 -24
t-7.5 -24t-8 -31t-10.5 -45zM376 84q-61 -48 -121.5 -75t-104.5 -27q-57 0 -89.5 31.5t-32.5 86.5q0 25 4 55t11 59t16 55.5t20 45.5q16 29 38.5 52.5t57.5 46.5q42 28 77 40.5t69 12.5q91 0 91 -81q0 -38 -15 -67.5t-47 -52.5t-82.5 -41t-122.5 -33q-3 -23 -4 -36t-1 -27
q0 -80 76 -80q61 0 159 66z" />
    <glyph glyph-name="ecircumflex" unicode="&#xea;" horiz-adv-x="426" 
d="M268 698h68l85 -168h-43l-87 98l-130 -98h-49zM149 221q3 1 4 1t6 1q21 4 42.5 11t39.5 17q17 9 31 22.5t24.5 30t16.5 34.5t6 36q0 20 -13 33t-34 13q-55 0 -87 -75q-6 -13 -10 -24t-7.5 -24t-8 -31t-10.5 -45zM376 84q-61 -48 -121.5 -75t-104.5 -27q-57 0 -89.5 31.5
t-32.5 86.5q0 25 4 55t11 59t16 55.5t20 45.5q16 29 38.5 52.5t57.5 46.5q42 28 77 40.5t69 12.5q91 0 91 -81q0 -38 -15 -67.5t-47 -52.5t-82.5 -41t-122.5 -33q-3 -23 -4 -36t-1 -27q0 -80 76 -80q61 0 159 66z" />
    <glyph glyph-name="edieresis" unicode="&#xeb;" horiz-adv-x="426" 
d="M202 673q22 0 35 -13t13 -36q0 -32 -18 -52.5t-45 -20.5q-23 0 -37 13.5t-14 36.5q0 32 18.5 52t47.5 20zM392 673q22 0 35 -13t13 -36q0 -32 -18 -52.5t-45 -20.5q-23 0 -37 13.5t-14 36.5q0 32 18.5 52t47.5 20zM149 221q3 1 4 1t6 1q21 4 42.5 11t39.5 17
q17 9 31 22.5t24.5 30t16.5 34.5t6 36q0 20 -13 33t-34 13q-55 0 -87 -75q-6 -13 -10 -24t-7.5 -24t-8 -31t-10.5 -45zM376 84q-61 -48 -121.5 -75t-104.5 -27q-57 0 -89.5 31.5t-32.5 86.5q0 25 4 55t11 59t16 55.5t20 45.5q16 29 38.5 52.5t57.5 46.5q42 28 77 40.5
t69 12.5q91 0 91 -81q0 -38 -15 -67.5t-47 -52.5t-82.5 -41t-122.5 -33q-3 -23 -4 -36t-1 -27q0 -80 76 -80q61 0 159 66z" />
    <glyph glyph-name="igrave" unicode="&#xec;" horiz-adv-x="297" 
d="M227 530l-118 84q-27 19 -34.5 28t-7.5 24q0 17 12 27.5t29 10.5t30 -9.5t34 -38.5l94 -126h-39zM272 82q-71 -53 -113.5 -76.5t-65.5 -23.5q-18 0 -28 13t-10 36q0 11 1.5 22.5t5 30t10.5 47t19 72.5q19 71 26.5 105.5t7.5 47.5q0 15 -12 15q-3 0 -6 -0.5t-9 -3.5
t-17 -10t-31 -19q-3 -2 -10 -6.5t-15 -8.5l-12 26q33 22 51 34.5t27.5 19.5t14.5 10t12 8q67 46 103 46q14 0 22 -10.5t8 -27.5q0 -14 -4.5 -34.5t-15.5 -61.5q-13 -45 -24 -87.5t-19.5 -77t-13.5 -57.5t-5 -29q0 -18 13 -18q18 0 75 43z" />
    <glyph glyph-name="iacute" unicode="&#xed;" horiz-adv-x="297" 
d="M152 530l117 122q15 16 25 26t17.5 15.5t13.5 7.5t13 2q18 0 30.5 -12t12.5 -29q0 -8 -2 -13.5t-8 -11.5t-17.5 -13t-31.5 -18l-129 -76h-41zM272 82q-71 -53 -113.5 -76.5t-65.5 -23.5q-18 0 -28 13t-10 36q0 11 1.5 22.5t5 30t10.5 47t19 72.5q19 71 26.5 105.5
t7.5 47.5q0 15 -12 15q-3 0 -6 -0.5t-9 -3.5t-17 -10t-31 -19q-3 -2 -10 -6.5t-15 -8.5l-12 26q33 22 51 34.5t27.5 19.5t14.5 10t12 8q67 46 103 46q14 0 22 -10.5t8 -27.5q0 -14 -4.5 -34.5t-15.5 -61.5q-13 -45 -24 -87.5t-19.5 -77t-13.5 -57.5t-5 -29q0 -18 13 -18
q18 0 75 43z" />
    <glyph glyph-name="icircumflex" unicode="&#xee;" horiz-adv-x="297" 
d="M197 698h67l86 -168h-44l-86 98l-131 -98h-49zM272 82q-71 -53 -113.5 -76.5t-65.5 -23.5q-18 0 -28 13t-10 36q0 11 1.5 22.5t5 30t10.5 47t19 72.5q19 71 26.5 105.5t7.5 47.5q0 15 -12 15q-3 0 -6 -0.5t-9 -3.5t-17 -10t-31 -19q-3 -2 -10 -6.5t-15 -8.5l-12 26
q33 22 51 34.5t27.5 19.5t14.5 10t12 8q67 46 103 46q14 0 22 -10.5t8 -27.5q0 -14 -4.5 -34.5t-15.5 -61.5q-13 -45 -24 -87.5t-19.5 -77t-13.5 -57.5t-5 -29q0 -18 13 -18q18 0 75 43z" />
    <glyph glyph-name="idieresis" unicode="&#xef;" horiz-adv-x="297" 
d="M144 673q22 0 35 -13t13 -36q0 -32 -18 -52.5t-45 -20.5q-23 0 -37 13.5t-14 36.5q0 32 18.5 52t47.5 20zM307 673q22 0 35 -13t13 -36q0 -32 -18 -52.5t-45 -20.5q-23 0 -37 13.5t-14 36.5q0 32 18.5 52t47.5 20zM272 82q-71 -53 -113.5 -76.5t-65.5 -23.5q-18 0 -28 13
t-10 36q0 11 1.5 22.5t5 30t10.5 47t19 72.5q19 71 26.5 105.5t7.5 47.5q0 15 -12 15q-3 0 -6 -0.5t-9 -3.5t-17 -10t-31 -19q-3 -2 -10 -6.5t-15 -8.5l-12 26q33 22 51 34.5t27.5 19.5t14.5 10t12 8q67 46 103 46q14 0 22 -10.5t8 -27.5q0 -14 -4.5 -34.5t-15.5 -61.5
q-13 -45 -24 -87.5t-19.5 -77t-13.5 -57.5t-5 -29q0 -18 13 -18q18 0 75 43z" />
    <glyph glyph-name="eth" unicode="&#xf0;" horiz-adv-x="520" 
d="M290 426q-68 0 -102 -82q-18 -44 -29.5 -100t-11.5 -104q0 -115 81 -115q68 0 102 85q18 44 28.5 98t10.5 99q0 119 -79 119zM95 712q10 2 15.5 3t20.5 4q16 3 23 4.5t21 3.5q28 -16 49 -28.5t38.5 -23.5t32 -22.5t30.5 -24.5l129 25l12 -29l-112 -21q132 -125 132 -288
q0 -69 -23.5 -133.5t-63.5 -107.5q-20 -21 -45 -38t-52.5 -29.5t-57.5 -19t-58 -6.5q-153 0 -153 151q0 37 6.5 73.5t18 69.5t28 61t36.5 49q37 36 89.5 59t101.5 23h7.5t16.5 -1q-14 26 -35.5 56t-50.5 62l-118 -23l-14 29l108 20q-21 21 -52 42.5t-80 50.5v9z" />
    <glyph glyph-name="ntilde" unicode="&#xf1;" horiz-adv-x="561" 
d="M177 555q14 55 41 84t66 29q17 0 35.5 -5t56.5 -20q26 -10 38.5 -13.5t23.5 -3.5q29 0 46 43h35q-10 -52 -38.5 -82.5t-68.5 -30.5q-9 0 -15 0.5t-15.5 3.5t-25 8.5t-43.5 16.5q-35 14 -52 14q-33 0 -48 -44h-36zM534 82q-22 -17 -36 -27t-23 -16.5t-16 -11.5t-16 -11
q-24 -16 -47.5 -25t-40.5 -9q-37 0 -37 46q0 16 4.5 38.5t17.5 67.5q26 94 38 146.5t12 69.5q0 21 -18 21q-11 0 -26 -10t-32.5 -26.5t-36 -39.5t-34.5 -48q-31 -48 -51 -111t-28 -131q-14 -1 -25 -2.5t-23 -3.5t-26 -5t-33 -7l-10 12q9 30 15.5 51t12 39.5t10.5 37.5t11 44
q7 28 13 56.5t10.5 53.5t7 44.5t2.5 29.5q0 20 -12 20q-14 0 -86 -52l-14 26q54 38 87.5 61.5t54.5 36t33 16.5t22 4q14 0 22 -9t8 -23q0 -16 -12 -69.5t-34 -137.5q19 30 33 51.5t26.5 37.5t25 30t28.5 29q46 44 87 67.5t72 23.5q42 0 42 -47q0 -10 -1 -19t-6 -30.5
t-16 -64t-32 -119.5q-22 -81 -22 -102q0 -20 13 -20q9 0 24.5 9t50.5 33z" />
    <glyph glyph-name="ograve" unicode="&#xf2;" horiz-adv-x="520" 
d="M339 530l-118 84q-27 18 -34.5 27.5t-7.5 24.5q0 17 12 27.5t29 10.5t30 -10t34 -38l94 -126h-39zM289 426q-66 0 -100 -82q-9 -22 -16.5 -47.5t-13 -52.5t-8.5 -53.5t-3 -50.5q0 -115 81 -115q67 0 101 85q9 21 16 46t12 51t8 51.5t3 48.5q0 119 -80 119zM324 467
q161 0 161 -157q0 -65 -22.5 -128.5t-60.5 -105.5q-39 -43 -98.5 -68.5t-120.5 -25.5q-149 0 -149 148q0 77 22.5 143t62.5 108t93 64t112 22z" />
    <glyph glyph-name="oacute" unicode="&#xf3;" horiz-adv-x="520" 
d="M250 530l118 122q29 31 42 41t27 10q18 0 30.5 -12t12.5 -29q0 -8 -1.5 -13.5t-7.5 -11.5t-18 -13t-32 -18l-129 -76h-42zM289 426q-66 0 -100 -82q-9 -22 -16.5 -47.5t-13 -52.5t-8.5 -53.5t-3 -50.5q0 -115 81 -115q67 0 101 85q9 21 16 46t12 51t8 51.5t3 48.5
q0 119 -80 119zM324 467q161 0 161 -157q0 -65 -22.5 -128.5t-60.5 -105.5q-39 -43 -98.5 -68.5t-120.5 -25.5q-149 0 -149 148q0 77 22.5 143t62.5 108t93 64t112 22z" />
    <glyph glyph-name="ocircumflex" unicode="&#xf4;" horiz-adv-x="520" 
d="M309 698h68l85 -168h-44l-86 98l-131 -98h-49zM289 426q-66 0 -100 -82q-9 -22 -16.5 -47.5t-13 -52.5t-8.5 -53.5t-3 -50.5q0 -115 81 -115q67 0 101 85q9 21 16 46t12 51t8 51.5t3 48.5q0 119 -80 119zM324 467q161 0 161 -157q0 -65 -22.5 -128.5t-60.5 -105.5
q-39 -43 -98.5 -68.5t-120.5 -25.5q-149 0 -149 148q0 77 22.5 143t62.5 108t93 64t112 22z" />
    <glyph glyph-name="otilde" unicode="&#xf5;" horiz-adv-x="520" 
d="M157 555q14 55 41 84t66 29q9 0 17 -1t18.5 -4t24 -8t32.5 -12q26 -10 38.5 -13.5t23.5 -3.5q29 0 46 43h35q-10 -52 -38.5 -82.5t-68.5 -30.5q-9 0 -15 0.5t-15.5 3.5t-25 8.5t-43.5 16.5q-35 14 -52 14q-33 0 -48 -44h-36zM289 426q-66 0 -100 -82q-9 -22 -16.5 -47.5
t-13 -52.5t-8.5 -53.5t-3 -50.5q0 -115 81 -115q67 0 101 85q9 21 16 46t12 51t8 51.5t3 48.5q0 119 -80 119zM324 467q161 0 161 -157q0 -65 -22.5 -128.5t-60.5 -105.5q-39 -43 -98.5 -68.5t-120.5 -25.5q-149 0 -149 148q0 77 22.5 143t62.5 108t93 64t112 22z" />
    <glyph glyph-name="odieresis" unicode="&#xf6;" horiz-adv-x="520" 
d="M236 673q22 0 35 -13t13 -36q0 -32 -18 -52.5t-45 -20.5q-23 0 -37 13.5t-14 36.5q0 32 18.5 52t47.5 20zM426 673q22 0 35 -13t13 -36q0 -32 -18 -52.5t-45 -20.5q-23 0 -37 13.5t-14 36.5q0 32 18.5 52t47.5 20zM289 426q-66 0 -100 -82q-9 -22 -16.5 -47.5t-13 -52.5
t-8.5 -53.5t-3 -50.5q0 -115 81 -115q67 0 101 85q9 21 16 46t12 51t8 51.5t3 48.5q0 119 -80 119zM324 467q161 0 161 -157q0 -65 -22.5 -128.5t-60.5 -105.5q-39 -43 -98.5 -68.5t-120.5 -25.5q-149 0 -149 148q0 77 22.5 143t62.5 108t93 64t112 22z" />
    <glyph glyph-name="divide" unicode="&#xf7;" 
d="M502 377l-15 -84h-433l15 84h433zM252 214q23 0 39.5 -17t16.5 -40t-17 -40t-40 -17t-40 17t-17 40t17 40t41 17zM312 571q23 0 39.5 -17t16.5 -40t-17 -40t-40 -17t-40 17t-17 40q0 24 17 40.5t41 16.5z" />
    <glyph glyph-name="oslash" unicode="&#xf8;" horiz-adv-x="520" 
d="M155 78q11 -29 27.5 -41t45.5 -12q42 0 69.5 29.5t47.5 97.5q11 38 17.5 79t6.5 74v5.5t-1 8.5q-47 -52 -100 -112t-113 -129zM147 129q49 54 102 114t112 127q-18 57 -73 57q-74 0 -111 -113q-14 -41 -22 -87t-8 -83v-15zM431 449q7 8 13.5 15.5t13.5 15.5l21 27
q6 -5 8 -8q7 -7 10.5 -9.5t15.5 -11.5q-13 -12 -25.5 -25t-32.5 -36q16 -23 23 -49t7 -61q0 -31 -6 -63t-17 -63t-26.5 -58t-33.5 -47q-20 -21 -45 -38.5t-53.5 -29.5t-59 -19t-60.5 -7q-56 0 -94 22q-22 -25 -32.5 -38t-18.5 -24q-6 6 -9 9.5t-6.5 6t-7.5 5.5t-11 8
q6 6 14 14.5t16 17.5t15 16.5t10 11.5q-14 20 -20 44.5t-6 57.5q0 75 22.5 140.5t62.5 107.5t92.5 64t109.5 22q32 0 56.5 -5.5t48.5 -18.5z" />
    <glyph glyph-name="ugrave" unicode="&#xf9;" horiz-adv-x="537" 
d="M348 530l-118 84q-27 19 -34.5 28t-7.5 24q0 17 12 27.5t29 10.5t29.5 -9.5t33.5 -38.5l95 -126h-39zM510 82q-44 -32 -72.5 -51.5t-47 -30.5t-30.5 -14.5t-24 -3.5q-32 0 -32 41q0 9 0.5 17t5 26t13 53t25.5 98q-31 -52 -65 -95t-67.5 -74t-65 -48.5t-56.5 -17.5
q-22 0 -34.5 15.5t-12.5 42.5q0 10 1 19t4.5 25.5t10.5 44t19 74.5q31 123 31 155q0 20 -13 20q-5 0 -11.5 -2t-13.5 -7q-5 -3 -8.5 -5t-8.5 -5t-12 -7t-18 -11l-11 27q1 0 3 1.5t10 7t25.5 17t49.5 32.5q29 20 56 30.5t45 10.5q31 0 31 -37q0 -9 -2.5 -23.5t-8.5 -40.5
t-16.5 -66.5t-26.5 -101.5q-6 -25 -10.5 -42t-7 -28.5t-3.5 -19t-1 -13.5q0 -11 4.5 -17.5t12.5 -6.5q9 0 24.5 10.5t33 28.5t36 41.5t34.5 49.5q68 111 82 245q23 1 53.5 6t53.5 13l8 -7q-20 -70 -36.5 -132.5t-28.5 -112t-19 -82.5t-7 -45q0 -8 4.5 -14.5t10.5 -6.5
q7 0 26 12t43 30z" />
    <glyph glyph-name="uacute" unicode="&#xfa;" horiz-adv-x="537" 
d="M272 530l118 122q14 16 24 26t18 15.5t14 7.5t13 2q18 0 30.5 -12t12.5 -29q0 -8 -2 -13.5t-8 -11.5t-17.5 -13t-31.5 -18l-129 -76h-42zM510 82q-44 -32 -72.5 -51.5t-47 -30.5t-30.5 -14.5t-24 -3.5q-32 0 -32 41q0 9 0.5 17t5 26t13 53t25.5 98q-31 -52 -65 -95
t-67.5 -74t-65 -48.5t-56.5 -17.5q-22 0 -34.5 15.5t-12.5 42.5q0 10 1 19t4.5 25.5t10.5 44t19 74.5q31 123 31 155q0 20 -13 20q-5 0 -11.5 -2t-13.5 -7q-5 -3 -8.5 -5t-8.5 -5t-12 -7t-18 -11l-11 27q1 0 3 1.5t10 7t25.5 17t49.5 32.5q29 20 56 30.5t45 10.5
q31 0 31 -37q0 -9 -2.5 -23.5t-8.5 -40.5t-16.5 -66.5t-26.5 -101.5q-6 -25 -10.5 -42t-7 -28.5t-3.5 -19t-1 -13.5q0 -11 4.5 -17.5t12.5 -6.5q9 0 24.5 10.5t33 28.5t36 41.5t34.5 49.5q68 111 82 245q23 1 53.5 6t53.5 13l8 -7q-20 -70 -36.5 -132.5t-28.5 -112
t-19 -82.5t-7 -45q0 -8 4.5 -14.5t10.5 -6.5q7 0 26 12t43 30z" />
    <glyph glyph-name="ucircumflex" unicode="&#xfb;" horiz-adv-x="537" 
d="M317 698h68l85 -168h-43l-86 98l-131 -98h-49zM510 82q-44 -32 -72.5 -51.5t-47 -30.5t-30.5 -14.5t-24 -3.5q-32 0 -32 41q0 9 0.5 17t5 26t13 53t25.5 98q-31 -52 -65 -95t-67.5 -74t-65 -48.5t-56.5 -17.5q-22 0 -34.5 15.5t-12.5 42.5q0 10 1 19t4.5 25.5t10.5 44
t19 74.5q31 123 31 155q0 20 -13 20q-5 0 -11.5 -2t-13.5 -7q-5 -3 -8.5 -5t-8.5 -5t-12 -7t-18 -11l-11 27q1 0 3 1.5t10 7t25.5 17t49.5 32.5q29 20 56 30.5t45 10.5q31 0 31 -37q0 -9 -2.5 -23.5t-8.5 -40.5t-16.5 -66.5t-26.5 -101.5q-6 -25 -10.5 -42t-7 -28.5
t-3.5 -19t-1 -13.5q0 -11 4.5 -17.5t12.5 -6.5q9 0 24.5 10.5t33 28.5t36 41.5t34.5 49.5q68 111 82 245q23 1 53.5 6t53.5 13l8 -7q-20 -70 -36.5 -132.5t-28.5 -112t-19 -82.5t-7 -45q0 -8 4.5 -14.5t10.5 -6.5q7 0 26 12t43 30z" />
    <glyph glyph-name="udieresis" unicode="&#xfc;" horiz-adv-x="537" 
d="M252 673q22 0 35 -13t13 -36q0 -32 -18 -52.5t-45 -20.5q-24 0 -38 13.5t-14 36.5q0 32 19 52t48 20zM442 673q22 0 35 -13t13 -36q0 -32 -18 -52.5t-45 -20.5q-24 0 -38 13.5t-14 36.5q0 32 19 52t48 20zM510 82q-44 -32 -72.5 -51.5t-47 -30.5t-30.5 -14.5t-24 -3.5
q-32 0 -32 41q0 9 0.5 17t5 26t13 53t25.5 98q-31 -52 -65 -95t-67.5 -74t-65 -48.5t-56.5 -17.5q-22 0 -34.5 15.5t-12.5 42.5q0 10 1 19t4.5 25.5t10.5 44t19 74.5q31 123 31 155q0 20 -13 20q-5 0 -11.5 -2t-13.5 -7q-5 -3 -8.5 -5t-8.5 -5t-12 -7t-18 -11l-11 27
q1 0 3 1.5t10 7t25.5 17t49.5 32.5q29 20 56 30.5t45 10.5q31 0 31 -37q0 -9 -2.5 -23.5t-8.5 -40.5t-16.5 -66.5t-26.5 -101.5q-6 -25 -10.5 -42t-7 -28.5t-3.5 -19t-1 -13.5q0 -11 4.5 -17.5t12.5 -6.5q9 0 24.5 10.5t33 28.5t36 41.5t34.5 49.5q68 111 82 245
q23 1 53.5 6t53.5 13l8 -7q-20 -70 -36.5 -132.5t-28.5 -112t-19 -82.5t-7 -45q0 -8 4.5 -14.5t10.5 -6.5q7 0 26 12t43 30z" />
    <glyph glyph-name="yacute" unicode="&#xfd;" horiz-adv-x="527" 
d="M267 530l118 122q29 31 42 41t27 10q18 0 30.5 -12t12.5 -29q0 -8 -1.5 -13.5t-7.5 -11.5t-18 -13t-32 -18l-129 -76h-42zM92 -139q-1 -9 -1 -11v-5q0 -29 18 -48t47 -19q43 0 74.5 42t58.5 135q4 13 11.5 41.5t16 60.5t15.5 61.5t11 46.5q-25 -39 -52.5 -71.5
t-54.5 -56.5t-51.5 -37.5t-42.5 -13.5q-21 0 -34.5 23.5t-13.5 60.5q0 11 0.5 22t2.5 31.5t6 55t10 92.5q2 19 3 35.5t1 32.5q0 42 -17 42q-5 0 -9 -1t-11.5 -5.5t-21 -13t-37.5 -24.5l-14 27q51 36 81 57.5t48.5 32t29 13.5t21.5 3q40 0 40 -61q0 -12 -2 -35t-7 -64
q-5 -42 -8 -73t-5 -54.5t-3 -40.5t-1 -30q0 -40 18 -40q10 0 25 12t31.5 32t33 46.5t30.5 55.5q13 27 23 52.5t18 51.5t14 56t11 66q26 3 54.5 9.5t58.5 14.5l10 -9q-9 -27 -18 -55t-19 -61.5t-21 -74t-24 -91.5q-18 -69 -34.5 -120t-33 -90t-34 -68.5t-39.5 -56.5
q-44 -52 -92.5 -80.5t-95.5 -28.5q-48 0 -76 23t-33 67l6 4t7 4q9 5 15 8.5t8 4.5q6 5 11.5 8.5t22.5 14.5z" />
    <glyph glyph-name="thorn" unicode="&#xfe;" horiz-adv-x="508" 
d="M128 58q47 -25 94 -25q33 0 56 24t46 82q19 50 29.5 101.5t10.5 94.5q0 53 -23 53q-15 0 -35 -11t-41 -30t-41 -44t-35 -52q-19 -34 -34.5 -83.5t-26.5 -109.5zM73 669q58 7 109 18.5t88 27.5l13 -11q-23 -95 -38 -157.5t-26 -107.5t-19.5 -79t-17.5 -71q23 33 42 56
t44 45q39 35 81.5 56t72.5 21q27 0 42 -32.5t15 -90.5q0 -26 -6.5 -59t-17 -66t-23.5 -61.5t-27 -46.5q-29 -38 -107 -85q-20 -12 -36 -20t-30.5 -13t-28.5 -7t-30 -2q-14 0 -26 1.5t-31 5.5q-13 -51 -21.5 -86.5t-13.5 -62.5t-8 -48.5t-5 -43.5q-35 -5 -62.5 -10.5
t-47.5 -10.5l-10 9q15 52 27 98.5t24.5 98.5t27 114t33.5 146q21 92 37 166.5t27 128t17 85t6 39.5q0 9 -2.5 14t-10.5 8t-24 4t-43 1z" />
    <glyph glyph-name="ydieresis" unicode="&#xff;" horiz-adv-x="527" 
d="M247 673q22 0 35 -13t13 -36q0 -32 -18 -52.5t-45 -20.5q-23 0 -37 13.5t-14 36.5q0 32 18.5 52t47.5 20zM437 673q22 0 35 -13t13 -36q0 -32 -18 -52.5t-45 -20.5q-23 0 -37 13.5t-14 36.5q0 32 18.5 52t47.5 20zM92 -139q-1 -9 -1 -11v-5q0 -29 18 -48t47 -19
q43 0 74.5 42t58.5 135q4 13 11.5 41.5t16 60.5t15.5 61.5t11 46.5q-25 -39 -52.5 -71.5t-54.5 -56.5t-51.5 -37.5t-42.5 -13.5q-21 0 -34.5 23.5t-13.5 60.5q0 11 0.5 22t2.5 31.5t6 55t10 92.5q2 19 3 35.5t1 32.5q0 42 -17 42q-5 0 -9 -1t-11.5 -5.5t-21 -13t-37.5 -24.5
l-14 27q51 36 81 57.5t48.5 32t29 13.5t21.5 3q40 0 40 -61q0 -12 -2 -35t-7 -64q-5 -42 -8 -73t-5 -54.5t-3 -40.5t-1 -30q0 -40 18 -40q10 0 25 12t31.5 32t33 46.5t30.5 55.5q13 27 23 52.5t18 51.5t14 56t11 66q26 3 54.5 9.5t58.5 14.5l10 -9q-9 -27 -18 -55t-19 -61.5
t-21 -74t-24 -91.5q-18 -69 -34.5 -120t-33 -90t-34 -68.5t-39.5 -56.5q-44 -52 -92.5 -80.5t-95.5 -28.5q-48 0 -76 23t-33 67l6 4t7 4q9 5 15 8.5t8 4.5q6 5 11.5 8.5t22.5 14.5z" />
    <glyph glyph-name="OE" unicode="&#x152;" horiz-adv-x="959" 
d="M554 379q8 42 12.5 76t4.5 51q0 30 -10.5 54.5t-29 42t-45 27.5t-57.5 10q-119 0 -180 -130q-32 -66 -49 -145.5t-17 -157.5q0 -85 37.5 -131t106.5 -46q45 0 85.5 22t68.5 61q14 20 26.5 55.5t20.5 75.5zM919 167l-3 -15l-20 -105q-5 -29 -6 -33l-1 -9l-7 -7
q-16 -2 -25 -2.5t-26 -0.5q-16 0 -50.5 0.5t-69.5 2.5q-34 1 -62 1.5t-48 0.5q-32 0 -57 -1t-60 -3l-7 11q8 16 12 28t9 33q-49 -46 -96 -65.5t-108 -19.5q-56 0 -101.5 18t-77.5 52t-49 81.5t-17 107.5q0 45 8.5 90t24 87.5t38.5 80.5t52 70q48 53 115.5 83t138.5 30
q121 0 186 -80q5 19 6 30.5t2 28.5l8 7q13 -1 31 -1.5t38 -1t39.5 -1t35.5 -0.5q23 0 45 0.5t47 1.5q21 2 41.5 2.5t28.5 0.5q17 0 27 -1t27 -4l5 -7q-2 -10 -6 -29.5t-7.5 -41.5t-7 -43t-4.5 -34h-33q1 20 1.5 36t0.5 31q0 17 -5 24t-21 11q-24 5 -53.5 7t-76.5 2h-58
q-24 -105 -48 -248q19 -1 30.5 -1h25.5h35.5t39.5 0.5t39.5 1t34.5 1.5l4 -7l-2 -6q-1 -4 -2 -7.5t-3 -8.5l-4 -15l-3 -9q-33 2 -55.5 3t-40 2t-33 1h-34.5h-16t-24 -1l-4 -22q-14 -81 -22 -126t-12 -69t-5.5 -35.5t-3.5 -24.5q26 -2 42.5 -2.5t34.5 -0.5q25 0 50 1t45 3.5
t34 5.5t18 6q8 6 17.5 30.5t23.5 73.5h34z" />
    <glyph glyph-name="oe" unicode="&#x153;" horiz-adv-x="745" 
d="M286 426q-66 0 -101 -92q-17 -47 -27 -101t-10 -100q0 -49 22.5 -77.5t60.5 -28.5q28 0 51.5 17.5t39.5 49.5q10 20 18.5 47t15 56t10 58.5t3.5 54.5q0 54 -22 85t-61 31zM477 224q34 5 63.5 19t51.5 34.5t34.5 45.5t12.5 51q0 20 -13.5 33t-34.5 13t-38.5 -10.5
t-32 -33.5t-27.5 -61t-26 -93zM701 89q-78 -56 -134 -81.5t-99 -25.5q-38 0 -65 15.5t-48 49.5q-82 -65 -172 -65q-72 0 -111 38.5t-39 110.5q0 37 6 73.5t17.5 69.5t28 60.5t36.5 47.5q41 41 94.5 63t110.5 22q104 0 142 -73q82 73 165 73q48 0 73 -21.5t25 -61.5
q0 -47 -28 -84.5t-80 -60.5q-35 -16 -75.5 -28.5t-84.5 -21.5q-4 -21 -5 -33t-1 -23q0 -82 72 -82q69 0 159 67z" />
    <glyph glyph-name="Scaron" unicode="&#x160;" horiz-adv-x="526" 
d="M384 743h-68l-91 169h44l91 -98l136 98h47zM86 182q-1 -6 -1 -11v-7q-1 -14 -1.5 -22t-0.5 -13v-8.5t1 -12.5q22 -36 65 -57.5t92 -21.5q31 0 58 11t46.5 30.5t30.5 46t11 57.5q0 15 -5.5 29.5t-15.5 24.5q-9 8 -15.5 13t-19.5 10.5t-37 14.5t-67 24q-69 25 -102 64.5
t-33 99.5q0 49 20 90.5t55 72.5t83 48.5t104 17.5q47 0 82.5 -10.5t70.5 -33.5q-12 -54 -18 -85.5t-9 -59.5l-32 1v18q1 15 1 25v14v21q-48 59 -129 59q-29 0 -54.5 -9.5t-44.5 -25.5t-29.5 -38t-10.5 -47q0 -44 34 -72t113 -51q51 -14 78 -26.5t44 -29.5q38 -38 38 -106
q0 -53 -21.5 -98.5t-59 -78.5t-89 -51.5t-111.5 -18.5q-57 0 -100.5 13t-79.5 41q4 15 8 34t8 39.5t6.5 40.5t3.5 36z" />
    <glyph glyph-name="scaron" unicode="&#x161;" horiz-adv-x="413" 
d="M296 530h-68l-91 169h44l91 -98l136 98h47zM60 148v-11v-23v-11q43 -70 126 -70q41 0 67 21t26 55q0 25 -17 39q-6 6 -11 9.5t-15.5 7.5t-29.5 9.5t-53 16.5q-52 16 -76 42.5t-24 68.5q0 34 16.5 64.5t44.5 52.5t66 35t82 13q72 0 123 -34q-8 -39 -13 -66.5t-7 -46.5h-26
q-2 12 -2.5 19t-1 11.5t-1 8t-1.5 8.5q-45 53 -111 53q-32 0 -56 -21.5t-24 -51.5q0 -15 5 -26t18 -20t34.5 -16.5t54.5 -16.5q66 -17 92 -40.5t26 -67.5q0 -36 -18.5 -68.5t-50 -56.5t-73.5 -38.5t-88 -14.5q-33 0 -66 7t-68 23q6 23 12.5 61t11.5 75h28z" />
    <glyph glyph-name="Ydieresis" unicode="&#x178;" horiz-adv-x="568" 
d="M297 888q23 0 36.5 -14t13.5 -37q0 -32 -18.5 -53.5t-46.5 -21.5q-25 0 -39 14t-14 38q0 32 19.5 53t48.5 21zM499 888q23 0 36.5 -14t13.5 -37q0 -32 -18.5 -53.5t-46.5 -21.5q-25 0 -39 14t-14 38q0 32 19.5 53t48.5 21zM111 30q33 1 51.5 3t28.5 6t13 12t6 22
q6 28 10.5 55.5t8.5 50.5t6 41t2 26q0 12 -6 39.5t-15.5 61t-21.5 69.5t-23 64q-13 33 -26 54.5t-28.5 34.5t-35 18.5t-44.5 5.5h-14.5t-18.5 -2l-1 30q22 10 37 17t27 13t23.5 12t26.5 15q18 3 32 3q30 0 58.5 -19.5t45.5 -53.5q11 -22 18 -37.5t14.5 -41t18 -70
t28.5 -125.5q1 -2 3.5 -12t5.5 -25q34 81 70.5 145.5t82.5 124.5q48 59 80.5 83t64.5 23l9 -7l-14 -83q-24 -6 -45.5 -17t-42 -29t-42 -44t-46.5 -62q-21 -32 -37.5 -60.5t-28.5 -57t-21 -58.5t-16 -64q-3 -18 -6.5 -38t-6.5 -37.5t-5 -30.5t-2 -17q0 -14 7 -23q4 -3 7 -4.5
t9.5 -3t19.5 -2.5t37 -3q2 0 7.5 -0.5t12.5 -1.5l-4 -34q-30 1 -51.5 2t-38.5 1.5t-32.5 0.5h-34.5h-33.5t-33.5 -0.5t-41.5 -1.5t-58.5 -2z" />
    <glyph glyph-name="Zcaron" unicode="&#x17d;" horiz-adv-x="633" 
d="M437 743h-68l-91 169h44l91 -98l136 98h47zM86 500q4 20 8.5 44t8.5 46.5t6.5 41.5t3.5 28l7 9q16 0 53.5 -1t81 -1.5t84 -1t63.5 -0.5h85t67 0.5t55 1.5t48 2l-2 -34q-42 -50 -77 -91.5t-67.5 -81t-66 -80.5t-72.5 -89.5t-86 -108t-108 -135.5h40l100 -1q58 1 97.5 2.5
t64.5 3.5t38.5 6t18.5 9q4 4 8 9.5t9 17t11.5 30.5t16.5 50h35l-5 -24q-5 -17 -8.5 -34.5t-7.5 -34.5q-7 -30 -10 -45.5t-6 -36.5l-6 -5q-83 1 -133 2t-80.5 1.5t-46.5 0.5h-30q-23 0 -56 -0.5t-72 -1t-80.5 -1t-80.5 -1.5l-2 28q31 35 70 81t82.5 98t89 107.5t89 110
t83.5 105t72 92.5q-76 -2 -127.5 -3t-85 -2t-53 -2.5t-31.5 -2.5q-17 -3 -22.5 -7t-11.5 -20l-17 -52l-10 -29h-35z" />
    <glyph glyph-name="zcaron" unicode="&#x17e;" horiz-adv-x="407" 
d="M294 530h-68l-91 169h43l92 -98l136 98h47zM23 317q14 39 25.5 76t19.5 63q15 5 25 6.5t21 1.5q9 0 17 -0.5t19 -3t28 -6.5t43 -10q35 -9 58.5 -12.5t43.5 -3.5q25 0 42 7.5t36 25.5l11 -5l-13 -50q-3 -4 -6.5 -7.5t-7.5 -8.5q-17 -17 -36 -35.5t-33 -33.5
q-3 -3 -19 -19.5l-48 -49.5q-18 -18 -30 -30.5t-25.5 -26.5t-32.5 -33.5t-51 -51.5q-7 -7 -12.5 -13t-11.5 -13q22 11 40.5 15t41.5 4q18 0 45 -4t76 -14q15 -4 30 -4q16 0 24.5 9t19.5 38q1 2 2 4.5t3 6.5l26 -1q-4 -14 -6.5 -22t-4 -12.5t-2.5 -8t-2 -7.5q-2 -8 -6.5 -27
t-12.5 -49l-3 -14q-16 -8 -27 -10.5t-27 -2.5q-9 0 -17.5 0.5t-20.5 2.5t-30 6t-47 11q-44 10 -71.5 14t-46.5 4q-22 0 -39.5 -7t-36.5 -24l-13 34q19 20 31.5 33.5t26 27l31 31t45.5 46.5q42 44 84.5 87t84.5 88l13.5 13.5t10.5 11.5q-19 -9 -31.5 -12.5t-27.5 -3.5
q-9 0 -18.5 0.5t-21.5 2t-28.5 4t-40.5 7.5q-10 2 -19 3t-17 1q-20 0 -30.5 -10.5t-21.5 -41.5z" />
    <glyph glyph-name="florin" unicode="&#x192;" horiz-adv-x="513" 
d="M468 391q-2 -13 -3.5 -18.5t-4.5 -19.5h-127q-18 -102 -39 -179t-44 -125q-21 -43 -48.5 -81t-58 -66t-61.5 -44t-57 -16q-14 0 -24 3.5t-21 14.5q11 25 19.5 44t13.5 33l9 4q23 -34 55 -34q25 0 41 21t30 72q8 26 19.5 84.5t28.5 157.5q3 20 5.5 34t5 26t4.5 23.5
t5 27.5h-121q2 14 3.5 19t4.5 19h120q17 67 34.5 111.5t37.5 75.5q15 22 35 40.5t44 31.5t49.5 20.5t50.5 7.5q23 0 39 -5.5t30 -16.5q-8 -20 -18 -49t-16 -51h-25q-5 44 -16 60.5t-34 16.5q-16 0 -28 -8.5t-21.5 -28.5t-17 -52.5t-14.5 -80.5q-2 -17 -3.5 -27t-2.5 -17.5
t-2.5 -13.5t-2.5 -14h126z" />
    <glyph glyph-name="circumflex" unicode="&#x2c6;" horiz-adv-x="500" 
d="M298 698h68l85 -168h-43l-86 98l-131 -98h-49z" />
    <glyph glyph-name="tilde" unicode="&#x2dc;" horiz-adv-x="500" 
d="M147 555q13 55 40.5 84t66.5 29q17 0 35.5 -5t56.5 -20q26 -10 38.5 -13.5t22.5 -3.5q28 0 47 43h35q-10 -52 -39 -82.5t-68 -30.5q-9 0 -15 0.5t-15.5 3.5t-25 8.5t-43.5 16.5q-35 14 -52 14q-32 0 -49 -44h-35z" />
    <glyph glyph-name="endash" unicode="&#x2013;" 
d="M4 206q6 13 10 21.5t7 16t5 15t5 19.5q21 -2 39 -2.5t39 -1.5t47.5 -1h65.5h108t78 0.5t57.5 1.5t48.5 2l7 -7q-11 -17 -19.5 -37.5t-12.5 -34.5q-51 2 -127.5 3t-178.5 1q-52 0 -92 -0.5t-81 -2.5z" />
    <glyph glyph-name="emdash" unicode="&#x2014;" horiz-adv-x="742" 
d="M10 206q3 4 7 13.5t8.5 20t8.5 21t6 17.5q59 -3 110.5 -4t114.5 -1q49 0 117 0.5t136.5 1t128.5 1t92 1.5l4 -8q-8 -11 -14 -19.5t-10.5 -16.5t-8 -16t-7.5 -19q-38 1 -82.5 2t-97.5 1.5t-116.5 1t-139.5 0.5h-74.5t-61 -0.5t-55.5 -1.5t-60 -2z" />
    <glyph glyph-name="quoteleft" unicode="&#x2018;" horiz-adv-x="252" 
d="M58 423q17 34 38.5 71.5t43 71t41 59.5t32.5 37q14 8 27 16t27 16l14 -15q-33 -56 -57 -121t-31 -119q-15 -2 -27 -4.5t-32 -8.5q-17 -5 -26.5 -8t-16 -4.5t-10.5 -2.5t-9 -2z" />
    <glyph glyph-name="quoteright" unicode="&#x2019;" horiz-adv-x="248" 
d="M278 680q-11 -26 -29 -58.5t-38 -65t-39.5 -60.5t-34.5 -44q-4 -6 -8 -10l-56 -33l-15 15q13 20 28 52.5t28 67t21 65t8 47.5v7q11 2 23 4.5t40 10.5q16 5 60 16z" />
    <glyph glyph-name="quotesinglbase" unicode="&#x201a;" horiz-adv-x="248" 
d="M179 120q-11 -26 -29 -58.5t-38 -65t-39.5 -60.5t-34.5 -44q-4 -6 -8 -10l-56 -33l-15 15q13 20 28 52.5t28 67t21 65t8 47.5v7q11 2 23 4.5t40 10.5q16 5 60 16z" />
    <glyph glyph-name="quotedblleft" unicode="&#x201c;" horiz-adv-x="422" 
d="M58 424q17 34 38.5 71.5t43 71t41 59.5t32.5 37q14 8 27 16t27 16l14 -15q-17 -27 -31.5 -58t-26 -62.5t-19.5 -62t-11 -56.5q-15 -2 -27 -5t-32 -9q-17 -5 -26.5 -8t-16 -4.5t-10.5 -2.5t-9 -2zM228 423q17 34 38.5 71.5t43 71t41 59.5t31.5 37l54 32l15 -15
q-33 -56 -57 -121t-31 -119q-15 -2 -27 -4.5t-32 -8.5q-17 -5 -26.5 -8t-16 -4.5t-10.5 -2.5t-9 -2z" />
    <glyph glyph-name="quotedblright" unicode="&#x201d;" horiz-adv-x="418" 
d="M448 680q-12 -26 -30 -58.5t-37.5 -65t-39 -60.5t-34.5 -44l-8 -10l-56 -33l-15 15q13 19 27.5 50.5t26.5 65.5t20.5 65.5t9.5 50.5v7q11 2 23.5 4.5t40.5 10.5q8 3 23 7t36 9zM277 681q-11 -26 -29 -58.5t-38 -65t-39.5 -60.5t-34.5 -44q-4 -6 -8 -10l-56 -33l-15 15
q13 20 28 52.5t28 67t21 65t8 47.5v7q11 2 23 4.5t40 10.5q16 5 60 16z" />
    <glyph glyph-name="quotedblbase" unicode="&#x201e;" horiz-adv-x="418" 
d="M351 131q-12 -26 -30 -59t-37.5 -65.5t-39 -60.5t-34.5 -44q-2 -2 -4 -4.5t-4 -5.5l-56 -33l-15 15q13 19 27.5 50.5t26.5 65.5t20.5 65.5t9.5 50.5v7q11 2 23.5 4.5t40.5 10.5q8 3 23 7t36 9zM180 132q-11 -26 -29 -59t-38 -65t-39.5 -60.5t-34.5 -44.5q-2 -2 -4 -4.5
t-4 -5.5l-56 -33l-15 15q13 20 28 52.5t28 67t21 65t8 47.5v7q11 2 23 4.5t40 10.5q16 5 60 16z" />
    <glyph glyph-name="dagger" unicode="&#x2020;" 
d="M83 383q4 16 6.5 36t4.5 50l4 3q39 -3 60.5 -4.5t36.5 -2t27 -1t32 -0.5q12 64 18.5 114t8.5 99l3 6q19 -3 31.5 -4t29.5 -1q14 0 22.5 1t21.5 3l4 -4l-25 -102q-4 -17 -7 -30.5t-5 -26.5l-4 -26t-4 -29q38 1 63 1.5t42 1.5t29 2.5t24 3.5l4 -4q-8 -38 -11 -56.5
t-4 -27.5l-3 -3q-10 1 -29.5 2t-40 2t-38.5 1.5t-25 0.5h-9t-15 -1q-4 -20 -7.5 -40.5t-7.5 -44.5t-8.5 -54t-10.5 -68q-3 -19 -5.5 -37.5t-5 -33t-4 -24t-1.5 -10.5q-3 -18 -5.5 -36.5t-4.5 -33t-3 -24.5t0 -12v-23l-4 -4q-21 2 -35.5 2.5t-27.5 0.5q-17 0 -27 -1t-24 -4
l-3 6q8 22 20 71.5t24.5 111.5t25 130t21.5 128q-5 1 -7.5 1h-3.5q-34 0 -71 -2t-71 -7z" />
    <glyph glyph-name="daggerdbl" unicode="&#x2021;" 
d="M305 209q39 0 79 2t74 7l6 -5q-5 -17 -7 -36.5t-4 -48.5l-4 -4l-73 6q-22 1 -40 1.5t-44 0.5q-8 -43 -13.5 -93.5t-7.5 -92.5l-4 -6q-19 3 -31.5 4t-29.5 1q-13 0 -22 -1t-21 -3l-4 4l4 18l10 42l10 42q3 15 5.5 25.5t4.5 19.5t3 18.5t3 22.5q-39 -1 -63.5 -2t-41.5 -2
t-29 -2t-24 -3l-4 3q6 29 10 52.5t4 31.5l4 4q11 -1 31 -2t41 -2t39 -1.5t26 -0.5h19q5 26 9.5 52t9.5 52q2 6 5.5 29t11.5 72h-4h-8q-44 -1 -77.5 -2.5t-64.5 -6.5l-6 5q5 15 7 37t4 48l4 4q39 -3 61 -4.5t36.5 -2.5t27 -1h32.5q4 21 7.5 46t6.5 49.5t5 48t2 42.5l4 6
q19 -3 31.5 -4t29.5 -1q14 0 22.5 1t20.5 3l4 -4l-24 -102q-3 -15 -5.5 -26t-4 -20l-3 -18t-3.5 -22q39 1 63.5 2t41.5 2t29 2t24 3l4 -3q-14 -67 -14 -84l-4 -4q-10 1 -29.5 2t-40 2t-38 1.5t-24.5 0.5h-25q-3 -16 -5 -29t-4.5 -25.5t-4.5 -27t-5 -33.5z" />
    <glyph glyph-name="bullet" unicode="&#x2022;" horiz-adv-x="482" 
d="M267 466q25 0 47.5 -9.5t39.5 -26t26.5 -39t9.5 -47.5q0 -26 -9.5 -48t-26.5 -39t-39.5 -26.5t-47.5 -9.5t-47.5 10t-39 27t-26 39.5t-9.5 48.5q0 24 10 46t26.5 38.5t38.5 26t47 9.5z" />
    <glyph glyph-name="ellipsis" unicode="&#x2026;" horiz-adv-x="749" 
d="M601 139q29 0 46 -18t17 -48q0 -38 -21 -62t-54 -24q-29 0 -46 18t-17 47q0 37 21.5 62t53.5 25zM351 139q29 0 46 -18t17 -48q0 -38 -21 -62t-54 -24q-29 0 -46 18t-17 47q0 37 21.5 62t53.5 25zM101 139q29 0 46 -18t17 -48q0 -38 -21 -62t-54 -24q-29 0 -46 18t-17 47
q0 37 21.5 62t53.5 25z" />
    <glyph glyph-name="perthousand" unicode="&#x2030;" horiz-adv-x="1193" 
d="M1014 294q-43 0 -68 -53q-7 -16 -13.5 -35.5t-11 -40t-7 -40t-2.5 -34.5q0 -74 56 -74q45 0 67 52q7 16 13.5 36t11 41t7 41t2.5 37q0 33 -14.5 51.5t-40.5 18.5zM1010 325q72 0 113 -37t41 -101q0 -44 -14.5 -80.5t-40.5 -63.5t-61.5 -42t-77.5 -15q-72 0 -111.5 39
t-39.5 108q0 41 14.5 76t40.5 61t60.5 40.5t75.5 14.5zM621 294q-43 0 -68 -53q-7 -16 -13.5 -35.5t-11 -40t-7 -40t-2.5 -34.5q0 -74 56 -74q45 0 67 52q7 16 13.5 36t11 41t7 41t2.5 37q0 33 -14.5 51.5t-40.5 18.5zM617 325q72 0 113 -37t41 -101q0 -44 -14.5 -80.5
t-40.5 -63.5t-61.5 -42t-77.5 -15q-72 0 -111.5 39t-39.5 108q0 41 14.5 76t40.5 61t60.5 40.5t75.5 14.5zM603 673q5 9 7 13t3 8q5 -2 8 -2.5t8 -0.5h9t22 2l9 1q-4 -7 -11 -18t-17 -26l-52 -83l-363 -574l-9 -15q-3 -5 -4 -6.5t-1 -5.5q-8 2 -13.5 2.5t-10.5 0.5
q-4 0 -11 -0.5t-15 -1.5h-8q5 6 8.5 11t7.5 10t8.5 12t11.5 18q8 14 16 26.5t16 23.5l35 54zM265 662q-43 0 -68 -53q-7 -15 -13 -35t-10.5 -40.5t-7.5 -40t-3 -34.5q0 -74 56 -74q45 0 67 52q7 16 13.5 36t11 41t7 41t2.5 37q0 33 -14.5 51.5t-40.5 18.5zM261 693
q72 0 113 -37t41 -102q0 -43 -14.5 -79.5t-40.5 -63.5t-61.5 -42t-77.5 -15q-71 0 -111 39t-40 108q0 41 14.5 76t40.5 61t60.5 40.5t75.5 14.5z" />
    <glyph glyph-name="guilsinglleft" unicode="&#x2039;" horiz-adv-x="304" 
d="M45 247q12 10 23 19.5t23 20.5t26 23.5t31 28.5q27 25 44.5 41t28.5 25.5t17.5 15.5t12.5 12l22 -19q-31 -46 -62 -91t-63 -90q22 -48 43.5 -93.5t43.5 -90.5l-25 -15q-25 30 -50 60.5t-47.5 56.5t-40.5 45.5t-27 28.5v22z" />
    <glyph glyph-name="guilsinglright" unicode="&#x203a;" horiz-adv-x="305" 
d="M264 221q-11 -10 -21.5 -19t-22.5 -19.5t-26 -23.5t-33 -30q-29 -26 -46.5 -42t-28 -26t-16.5 -15.5t-12 -10.5l-22 19q29 42 60 86.5t65 94.5q-23 48 -43 90.5l-44 93.5l25 15q15 -19 39 -47.5t48.5 -57t46 -52.5t31.5 -34v-22z" />
    <glyph glyph-name="Euro" unicode="&#x20ac;" horiz-adv-x="513" 
d="M446 415l-23 -48h-168q-3 -13 -5.5 -32t-4.5 -36h145l-22 -48h-126v-17q0 -27 3 -51t8 -47q22 -90 96 -90q23 0 44.5 8t48.5 28l5 -11l-10 -44q-38 -26 -73.5 -37.5t-75.5 -11.5q-95 0 -146 66t-51 189v18h-61l22 48h42q3 22 5.5 38t5.5 30h-63l23 48h53
q39 130 115 199.5t179 69.5q45 0 80.5 -11.5t74.5 -37.5q-8 -12 -13 -21t-9.5 -20t-8.5 -26t-10 -39l-4 -16h-41q2 15 3.5 28t1.5 18q0 13 -6.5 25t-17 21.5t-24 15t-28.5 5.5q-46 0 -84.5 -55.5t-60.5 -155.5h181z" />
    <glyph glyph-name="trademark" unicode="&#x2122;" horiz-adv-x="994" 
d="M400 310q33 1 41 8q2 2 5 9.5t8.5 25t14 45.5t21.5 72q6 21 12.5 43t13.5 45q11 33 14 45.5t3 18.5q0 11 -11 14.5t-49 6.5l3 25q17 -1 28 -1.5t19 -0.5h14.5h14.5h28.5t35.5 2q5 -20 11 -41.5t14.5 -52t21 -74t30.5 -107.5q27 37 47 66t40 59t43 65t55 85q22 -2 36.5 -2
h32.5q19 0 35 0.5t41 1.5l-4 -25q-5 -1 -8.5 -1h-4.5q-21 -1 -27.5 -3.5t-10.5 -10.5q-2 -3 -4.5 -12t-4.5 -20q-1 -2 -2 -8t-3.5 -18t-6 -31t-9.5 -49q0 -1 -5.5 -30t-13.5 -70q-4 -19 -6 -30t-3 -18t-1.5 -10t-0.5 -6q0 -9 9 -12t46 -4l-3 -25h-26q-26 1 -44 1.5t-24 0.5
h-8.5h-16.5t-29 -0.5t-46 -1.5l3 25l15 1q13 1 20.5 2t11.5 3.5t5.5 7.5t3.5 13q1 6 3.5 18.5t6.5 30.5q4 22 10.5 54t12 63t10 56t6.5 34q-39 -56 -68.5 -98t-53.5 -78t-45.5 -69.5t-45.5 -72.5l-20 1q-4 14 -7 24t-7 26t-11.5 41.5t-20.5 71.5q-12 43 -20.5 73.5
t-17.5 63.5l-15 -52.5t-16 -58.5q-10 -36 -16 -59.5t-9 -34.5q-7 -23 -9 -31.5t-2 -13.5q0 -9 9 -12t42 -4l-3 -26q-18 1 -29.5 1.5t-19 1t-12 0.5h-10.5h-11t-12 -0.5t-17.5 -1t-28.5 -1.5l2 26q33 1 41 8q2 2 5 9.5t8.5 25t14 45.5t21.5 72q6 21 12.5 43t13.5 45
q11 33 14 45.5t3 18.5q0 11 -11 14.5t-49 6.5l3 25q17 -1 28 -1.5t19 -0.5h14.5h14.5h28.5t35.5 2q5 -20 11 -41.5t14.5 -52t21 -74t30.5 -107.5q27 37 47 66t40 59t43 65t55 85q22 -2 36.5 -2h32.5q19 0 35 0.5t41 1.5l-4 -25q-5 -1 -8.5 -1h-4.5q-21 -1 -27.5 -3.5
t-10.5 -10.5q-2 -3 -4.5 -12t-4.5 -20q-1 -2 -2 -8t-3.5 -18t-6 -31t-9.5 -49q0 -1 -5.5 -30t-13.5 -70q-4 -19 -6 -30t-3 -18t-1.5 -10t-0.5 -6q0 -9 9 -12t46 -4l-3 -25h-26q-26 1 -44 1.5t-24 0.5h-8.5h-16.5t-29 -0.5t-46 -1.5l3 25l15 1q13 1 20.5 2t11.5 3.5t5.5 7.5
t3.5 13q1 6 3.5 18.5t6.5 30.5q4 22 10.5 54t12 63t10 56t6.5 34q-39 -56 -68.5 -98t-53.5 -78t-45.5 -69.5t-45.5 -72.5l-20 1q-4 14 -7 24t-7 26t-11.5 41.5t-20.5 71.5q-12 43 -20.5 73.5t-17.5 63.5l-15 -52.5t-16 -58.5q-10 -36 -16 -59.5t-9 -34.5q-7 -23 -9 -31.5
t-2 -13.5q0 -9 9 -12t42 -4l-3 -26q-18 1 -29.5 1.5t-19 1t-12 0.5h-10.5h-11t-12 -0.5t-17.5 -1t-28.5 -1.5l2 26q33 1 41 8q2 2 5 9.5t8.5 25t14 45.5t21.5 72q6 21 12.5 43t13.5 45q11 33 14 45.5t3 18.5q0 11 -11 14.5t-49 6.5l3 25q17 -1 28 -1.5t19 -0.5h14.5h14.5
h28.5t35.5 2q5 -20 11 -41.5t14.5 -52t21 -74t30.5 -107.5q27 37 47 66t40 59t43 65t55 85q22 -2 36.5 -2h32.5q19 0 35 0.5t41 1.5l-4 -25q-5 -1 -8.5 -1h-4.5q-21 -1 -27.5 -3.5t-10.5 -10.5q-2 -3 -4.5 -12t-4.5 -20q-1 -2 -2 -8t-3.5 -18t-6 -31t-9.5 -49q0 -1 -5.5 -30
t-13.5 -70q-4 -19 -6 -30t-3 -18t-1.5 -10t-0.5 -6q0 -9 9 -12t46 -4l-3 -25h-26q-26 1 -44 1.5t-24 0.5h-8.5h-16.5t-29 -0.5t-46 -1.5l3 25l15 1q13 1 20.5 2t11.5 3.5t5.5 7.5t3.5 13q1 6 3.5 18.5t6.5 30.5q4 22 10.5 54t12 63t10 56t6.5 34q-39 -56 -68.5 -98
t-53.5 -78t-45.5 -69.5t-45.5 -72.5l-20 1q-4 14 -7 24t-7 26t-11.5 41.5t-20.5 71.5q-12 43 -20.5 73.5t-17.5 63.5l-15 -52.5t-16 -58.5q-10 -36 -16 -59.5t-9 -34.5q-7 -23 -9 -31.5t-2 -13.5q0 -9 9 -12t42 -4l-3 -26q-18 1 -29.5 1.5t-19 1t-12 0.5h-10.5h-11t-12 -0.5
t-17.5 -1t-28.5 -1.5zM77 310h16q14 0 22 1t12.5 3t6.5 6t4 11q14 68 24 115.5t16.5 81.5t11 58.5t7.5 46.5h-11q-15 0 -30 -0.5t-28 -2t-22 -3t-11 -3.5q-5 -4 -21 -57h-28q3 13 5 23.5t3.5 21t3.5 23t4 29.5l6 4q26 0 55.5 -0.5t59.5 -1t59 -0.5h53h37h28.5t28 0.5
t35.5 1.5l6 -6q-1 -7 -3.5 -18.5t-6.5 -28.5q-3 -13 -5 -23.5t-4 -24.5h-28l1 19q1 8 1 16.5v13.5q0 6 -1.5 9t-11 4.5t-30 2t-58.5 1.5q-13 -59 -23.5 -112.5t-18.5 -94.5t-12.5 -68t-4.5 -33q0 -5 1 -7t7 -3.5t17.5 -2.5t32.5 -2l-3 -25q-35 1 -53.5 1.5t-28.5 0.5h-14h-8
h-10.5h-18t-29.5 -0.5t-45 -1.5l4 25h16q14 0 22 1t12.5 3t6.5 6t4 11q14 68 24 115.5t16.5 81.5t11 58.5t7.5 46.5h-11q-15 0 -30 -0.5t-28 -2t-22 -3t-11 -3.5q-5 -4 -21 -57h-28q3 13 5 23.5t3.5 21t3.5 23t4 29.5l6 4q26 0 55.5 -0.5t59.5 -1t59 -0.5h53h37h28.5t28 0.5
t35.5 1.5l6 -6q-1 -7 -3.5 -18.5t-6.5 -28.5q-3 -13 -5 -23.5t-4 -24.5h-28l1 19q1 8 1 16.5v13.5q0 6 -1.5 9t-11 4.5t-30 2t-58.5 1.5q-13 -59 -23.5 -112.5t-18.5 -94.5t-12.5 -68t-4.5 -33q0 -5 1 -7t7 -3.5t17.5 -2.5t32.5 -2l-3 -25q-35 1 -53.5 1.5t-28.5 0.5h-14h-8
h-10.5h-18t-29.5 -0.5t-45 -1.5l4 25h16q14 0 22 1t12.5 3t6.5 6t4 11q14 68 24 115.5t16.5 81.5t11 58.5t7.5 46.5h-11q-15 0 -30 -0.5t-28 -2t-22 -3t-11 -3.5q-5 -4 -21 -57h-28q3 13 5 23.5t3.5 21t3.5 23t4 29.5l6 4q26 0 55.5 -0.5t59.5 -1t59 -0.5h53h37h28.5t28 0.5
t35.5 1.5l6 -6q-1 -7 -3.5 -18.5t-6.5 -28.5q-3 -13 -5 -23.5t-4 -24.5h-28l1 19q1 8 1 16.5v13.5q0 6 -1.5 9t-11 4.5t-30 2t-58.5 1.5q-13 -59 -23.5 -112.5t-18.5 -94.5t-12.5 -68t-4.5 -33q0 -5 1 -7t7 -3.5t17.5 -2.5t32.5 -2l-3 -25q-35 1 -53.5 1.5t-28.5 0.5h-14h-8
h-10.5h-18t-29.5 -0.5t-45 -1.5z" />
    <glyph glyph-name="glyph220" horiz-adv-x="0" 
 />
    </font>
</defs>
</svg>
