<?xml version="1.0" standalone="no"?>
<!DOCTYPE svg PUBLIC "-//W3C//DTD SVG 1.1//EN" "http://www.w3.org/Graphics/SVG/1.1/DTD/svg11.dtd" >
<svg xmlns="http://www.w3.org/2000/svg" xmlns:xlink="http://www.w3.org/1999/xlink" version="1.1">
<metadata>
Created by FontForge 20230101 at Mon Dec 12 17:19:48 2011
 By Unknown
(URW)++,Copyright 2003 by (URW)++ Design &#38; Development
</metadata>
<defs>
<font id="URWPalladioW10-Bold" horiz-adv-x="513" >
  <font-face 
    font-family="URWPalladioW10-Bold"
    font-weight="700"
    font-stretch="normal"
    units-per-em="1000"
    panose-1="4 0 8 0 0 0 0 0 0 0"
    ascent="722"
    descent="-278"
    x-height="453"
    cap-height="671"
    bbox="-53 -272 1157 906"
    underline-thickness="54"
    underline-position="-107"
    unicode-range="U+000D-2122"
  />
<missing-glyph horiz-adv-x="0" 
 />
    <glyph glyph-name=".notdef" horiz-adv-x="0" 
 />
    <glyph glyph-name=".null" horiz-adv-x="0" 
 />
    <glyph glyph-name="uni000D" unicode="&#xd;" horiz-adv-x="0" 
 />
    <glyph glyph-name="space" unicode=" " horiz-adv-x="250" 
 />
    <glyph glyph-name="exclam" unicode="!" horiz-adv-x="288" 
d="M143 136q30 0 51 -23t21 -55t-21.5 -54t-51.5 -22q-29 0 -50 22.5t-21 53.5q0 32 21 55t51 23zM217 667q0 -21 -1 -40.5t-3 -42.5t-5.5 -54t-9.5 -74q-6 -44 -10 -75.5t-7 -58.5l-6 -54t-7 -61q-13 -7 -18.5 -9.5t-18.5 -10.5l-6 4q-3 23 -4.5 40.5t-3.5 34.5t-4.5 35
t-6 43.5t-8.5 60.5l-12 84q-3 24 -5.5 42t-3.5 33t-1.5 29t-0.5 30q29 14 55.5 26t43.5 18h43z" />
    <glyph glyph-name="quotedbl" unicode="&#x22;" horiz-adv-x="423" 
d="M262 406l-19 145q-2 14 -3 22.5t-1.5 14t-0.5 9.5v9q0 67 61 67t61 -67v-9t-0.5 -9.5t-1.5 -14t-3 -22.5l-19 -145h-74zM87 406l-19 145q-2 14 -3 22.5t-1.5 14t-0.5 9.5v9q0 67 61 67t61 -67v-9t-0.5 -9.5t-1.5 -14t-3 -22.5l-19 -145h-74z" />
    <glyph glyph-name="numbersign" unicode="#" 
d="M283 220l49 248h-101l-49 -248h101zM135 150h-76l13 70h77l48 248h-80l14 70h79l26 129h33l-25 -129h101l26 129h33l-25 -129h74l-13 -70h-74l-49 -248h78l-14 -70h-77l-30 -150h-33l29 150h-101l-30 -150h-33z" />
    <glyph glyph-name="dollar" unicode="$" 
d="M269 46q46 11 71 41.5t25 77.5q0 32 -11.5 56t-33.5 37q-11 6 -21 10t-30 9v-231zM223 626q-41 -11 -63.5 -39t-22.5 -69q0 -40 20 -63.5t66 -35.5v207zM90 192l1 -13q3 -33 3 -40q-2 -18 8 -35t28 -30.5t42 -22t50 -9.5l2 243q-37 7 -57 13.5t-40 16.5q-43 20 -65.5 58
t-22.5 92t22.5 99t63.5 71q21 14 43 21.5t56 12.5q0 12 -0.5 19.5t-1 14t-1 14.5t-1.5 20h52q-1 -18 -1.5 -27.5t-0.5 -20.5v-19q26 -2 47 -4.5t40.5 -7t39 -11t40.5 -16.5q-5 -17 -8 -31.5t-5 -30.5t-3 -34.5t-2 -43.5h-41q0 44 -1 59t-5 23q-10 22 -38.5 36.5t-64.5 16.5
v-217q22 -5 38 -8.5t27.5 -7t21 -7t18.5 -7.5q46 -20 73 -65t27 -103q0 -54 -23 -99.5t-65 -74.5q-25 -17 -51.5 -25.5t-66.5 -12.5l2 -98h-51q1 16 1.5 27t1 20.5t1 20t0.5 27.5q-57 1 -105.5 10.5t-79.5 26.5q3 13 4.5 26t3 30.5t2 42t1.5 60.5h41z" />
    <glyph glyph-name="percent" unicode="%" horiz-adv-x="767" 
d="M575 293q-65 0 -65 -144q0 -123 62 -123q31 0 47.5 36.5t16.5 102.5q0 128 -61 128zM580 323q71 0 113 -43t42 -115q0 -39 -11.5 -70t-33.5 -53t-52.5 -34t-67.5 -12q-74 0 -116.5 43t-42.5 117q0 37 12 68t34 53t53.5 34t69.5 12zM280 53q-9 -18 -14 -29t-9 -19
t-7 -16.5t-8 -21.5q-11 1 -19.5 1.5t-13.5 0.5h-11t-14 -1q7 12 12 21t11 20t13 25.5t18 37.5l254 539l16 33q2 4 3.5 8t3.5 9.5t5.5 14t9.5 23.5q11 -1 18.5 -1.5t13.5 -0.5q5 0 12.5 0.5t17.5 1.5q-7 -13 -12.5 -22.5t-11 -21t-13 -25.5t-17.5 -36zM196 641
q-65 0 -65 -145q0 -123 62 -123q31 0 47.5 36.5t16.5 103.5q0 128 -61 128zM201 671q71 0 113 -43t42 -115q0 -39 -11.5 -70t-33.5 -53.5t-52.5 -34.5t-67.5 -12q-74 0 -116.5 43t-42.5 118q0 37 12 68t34 53t53.5 34t69.5 12z" />
    <glyph glyph-name="ampersand" unicode="&#x26;" horiz-adv-x="795" 
d="M275 424l13 6.5t8 4.5q36 20 57 52t21 65q0 31 -16 50t-42 19q-29 0 -47.5 -21t-18.5 -56q0 -52 25 -120zM211 334q-55 -34 -55 -100q0 -35 14 -67.5t38 -57.5t54.5 -40t63.5 -15q22 0 40 6t48 23q-58 46 -109.5 110t-93.5 141zM783 122q-10 -12 -17 -19.5t-16.5 -19.5
t-26 -32t-45.5 -56q-20 -5 -31.5 -6.5t-25.5 -1.5q-42 0 -83 16.5t-89 51.5q-48 -37 -92 -52.5t-100 -15.5q-48 0 -88 14.5t-69 40t-45 61t-16 77.5q0 83 65 136q9 7 17.5 13.5t18.5 13t22.5 13.5t29.5 16q-17 37 -23.5 61t-6.5 50q0 32 10.5 58t34.5 52q35 40 77 62t82 22
q44 0 74.5 -28t30.5 -69q0 -63 -70 -122q-20 -17 -44.5 -33t-63.5 -39q34 -45 60.5 -78.5t50.5 -59t46 -45t47 -37.5q12 19 17 38t5 45q0 39 -11.5 56.5t-37.5 17.5l-24 -1q-3 0 -10 -0.5t-16 -1.5l-5 8q12 16 17.5 27t14.5 32q40 -2 70 -2.5t67 -0.5q28 0 49 0.5t39 1.5
t33.5 2.5t33.5 3.5l6 -5q-3 -12 -5.5 -21.5t-3.5 -17.5t-2 -16.5t-1 -20.5q-51 5 -84.5 6.5t-59.5 2.5q3 -12 4 -19.5t1 -16.5q0 -72 -61 -144q76 -39 133 -39q26 0 51 12t55 38z" />
    <glyph glyph-name="quotesingle" unicode="'" horiz-adv-x="248" 
d="M87 406l-19 145q-2 14 -3 22.5t-1.5 14t-0.5 9.5v9q0 67 61 67t61 -67v-9t-0.5 -9.5t-1.5 -14t-3 -22.5l-19 -145h-74z" />
    <glyph glyph-name="parenleft" unicode="(" horiz-adv-x="308" 
d="M295 704q-27 -42 -46 -85t-30.5 -94t-16.5 -113t-5 -142t5 -143.5t17 -116t31 -97t47 -86.5l-27 -20q-22 21 -39.5 39.5t-32.5 38t-28.5 41t-27.5 48.5q-78 148 -78 294q0 75 20 153t57 145q13 24 26.5 44.5t29 40t34.5 38.5t43 40z" />
    <glyph glyph-name="parenright" unicode=")" horiz-adv-x="308" 
d="M11 -173q28 42 47 86.5t31 97t17 115.5t5 144q0 80 -5 142t-16.5 113t-30.5 94t-46 85l21 25q24 -21 43 -40t34.5 -38.5t29 -40t26.5 -44.5q37 -67 57 -145t20 -153q0 -147 -78 -294q-14 -26 -27.5 -47.5t-28.5 -41t-32.5 -38.5t-39.5 -40z" />
    <glyph glyph-name="asterisk" unicode="*" horiz-adv-x="433" 
d="M207 347l-2 45l-4 62l-4 36l-93 -103l-17 3q-5 12 -9 20.5t-8.5 16.5t-9.5 16.5t-12 19.5l4 9q37 13 73.5 27t56.5 23l-130 58l-4 8q11 16 17.5 26t11 17.5t8 14t8.5 17.5h16q10 -13 16.5 -21t11 -14t8 -10.5t7.5 -8.5q4 -5 7.5 -9.5t8.5 -10.5t13 -15t20 -24l12 140l9 7
q13 -5 23.5 -8.5t20 -5.5t20 -4t24.5 -4l5 -14q-6 -9 -12.5 -18.5t-15.5 -23.5t-21.5 -34t-31.5 -50l135 30l5 -4q1 -12 2 -21.5t2 -18.5t2.5 -19t4.5 -24l-11 -12q-39 11 -77.5 20.5t-67.5 14.5l75 -120l-3 -7q-15 -5 -25 -9t-19 -8t-17 -8t-18 -10z" />
    <glyph glyph-name="plus" unicode="+" 
d="M210 379v165h94v-165h169v-87h-169v-164h-94v164h-170v87h170z" />
    <glyph glyph-name="comma" unicode="," horiz-adv-x="288" 
d="M10 -155q15 26 29.5 60t25.5 69.5t18 68.5t8 58q41 6 69 13.5t55 20.5l17 -16q-59 -142 -137 -256q-9 -5 -15.5 -8t-13.5 -6.5t-16.5 -7.5t-23.5 -10z" />
    <glyph glyph-name="hyphen" unicode="-" horiz-adv-x="309" 
d="M0 184q6 12 10 23t7.5 22t6.5 24.5l7 31.5q23 -1 41.5 -1.5t35 -1t32.5 -0.5h33h32.5t29.5 0.5t31 1t36 1.5l7 -10q-5 -12 -9.5 -23t-8 -22t-7.5 -24.5t-8 -30.5q-22 1 -40 2t-33.5 1.5t-30.5 0.5h-32q-32 0 -61 -1t-73 -3z" />
    <glyph glyph-name="period" unicode="." horiz-adv-x="288" 
d="M144 136q30 0 51 -22.5t21 -54.5t-21.5 -54.5t-51.5 -22.5q-29 0 -50 22.5t-21 53.5q0 32 21 55t51 23z" />
    <glyph glyph-name="slash" unicode="/" horiz-adv-x="427" 
d="M360 705q13 0 28 1t38 3q-8 -14 -13 -24.5t-11 -23t-14 -30.5t-20 -46l-281 -651q-11 -24 -16.5 -37.5t-9.5 -23.5t-7 -19.5t-8 -24.5q-18 0 -29 -0.5t-21 -1t-21 -1.5t-28 -3l11 22t11 23t14.5 32t22.5 49l282 649q9 22 15 35.5t10.5 24.5t7.5 21.5t8 25.5h31z" />
    <glyph glyph-name="zero" unicode="0" 
d="M253 622q-25 0 -44 -18.5t-27 -50.5t-12 -76t-4 -113q0 -231 38 -290q22 -33 57 -33q24 0 40 13.5t26.5 44t15 79.5t4.5 119q0 30 -1.5 62.5t-3.5 63.5t-5 57.5t-7 44.5q-19 97 -77 97zM262 673q54 0 95 -19t65 -55q24 -37 35 -96t11 -155q0 -52 -3.5 -93.5t-10.5 -75
t-18 -60.5t-26 -50q-25 -36 -66 -56t-92 -20q-52 0 -93.5 20t-64.5 55q-14 21 -23 46t-15 57t-8.5 73.5t-2.5 95.5q0 94 11.5 152.5t37.5 99.5q25 38 69 59.5t99 21.5z" />
    <glyph glyph-name="one" unicode="1" 
d="M344 665q-5 -52 -8 -147.5t-3 -242.5v-90t1 -61.5t1.5 -38t2.5 -19.5q3 -14 18 -19t59 -8q3 0 11.5 -0.5t19.5 -1.5v-40q-51 1 -84.5 2t-54.5 1.5t-33 0.5h-21h-28.5t-34 -0.5t-46.5 -1.5t-67 -2v41q39 3 61.5 5t33.5 5t14.5 7.5t5.5 12.5q3 11 5 39t3 79.5t1.5 129.5
t0.5 190q0 20 -0.5 32t-1.5 18t-3 7.5t-6 1.5q-3 0 -5.5 -0.5t-8.5 -3t-18 -8.5t-33 -17q-14 -6 -22.5 -10.5t-15 -7.5l-13 -6t-15.5 -7l-12 6l-8 50l6 12q43 12 88.5 26.5t85 28t69.5 25.5t44 20z" />
    <glyph glyph-name="two" unicode="2" 
d="M36 50l127 130q81 82 116.5 144t35.5 121q0 55 -27 86t-75 31q-44 0 -79 -26q-11 -8 -16.5 -21t-12.5 -48l-7 -28h-39q9 63 13.5 101t5.5 66q68 67 176 67q43 0 79.5 -13t62 -36.5t40 -56.5t14.5 -73q0 -30 -8 -58.5t-25.5 -58.5t-46 -63t-68.5 -72l-135 -129h139
q30 0 52.5 0.5t41.5 1.5t37.5 2.5t39.5 3.5q-3 -22 -5 -38t-2 -27q0 -21 6 -61q-29 1 -52.5 2l-47 2t-49 1h-56.5h-61.5t-52 -1t-54 -2t-67.5 -2v55z" />
    <glyph glyph-name="three" unicode="3" 
d="M65 179q23 -66 58 -96.5t89 -30.5t86 35.5t32 94.5q0 57 -34 91.5t-90 34.5q-14 0 -25.5 -1.5t-29.5 -6.5l-6 7l21 74q11 -1 18 -1.5t15 -0.5q45 0 74 29.5t29 74.5q0 41 -25 65t-67 24q-36 0 -68 -19q-12 -7 -20.5 -20.5t-16.5 -40.5q-1 -3 -2 -7l-2 -6l-2 -6l-38 2
q26 93 31 150q36 25 72.5 36.5t80.5 11.5q78 0 124.5 -38.5t46.5 -102.5q0 -48 -26.5 -83t-85.5 -63q27 -3 43 -6.5t33 -11.5q35 -17 54.5 -52t19.5 -83t-23 -91.5t-61.5 -76.5t-89 -52.5t-106.5 -19.5q-36 0 -62 6t-58 22q-2 16 -4.5 36.5t-5.5 41t-6.5 39.5t-6.5 33z" />
    <glyph glyph-name="four" unicode="4" 
d="M263 577q-61 -98 -102 -176t-71 -151q14 -2 22 -2h19q48 0 80 0.5t49 1.5l7 327h-4zM18 206q22 54 50.5 112.5t60 116.5t65 113t66.5 101l123 24l8 -11q-1 -19 -1.5 -33.5t-1.5 -20.5q-2 -81 -4 -141t-3 -103t-1.5 -71t-0.5 -44h24.5t18 0.5t18.5 1t26 1.5l-1 -53v-33
q-15 1 -25 1.5t-18.5 1t-18 0.5h-24.5v-47t0.5 -29.5t1 -18t1.5 -12.5q0 -12 18 -17t68 -9v-41q-49 3 -86 4.5t-78 1.5h-36.5t-34.5 -1t-39 -2t-49 -2v44q35 1 55 2.5t30.5 3.5t14.5 6t6 11q3 10 4.5 32t3.5 75h-57t-66 -0.5t-63 -1t-49 -1.5z" />
    <glyph glyph-name="five" unicode="5" 
d="M64 169q30 -62 65.5 -90t83.5 -28q57 0 89.5 37.5t32.5 100.5t-34.5 101.5t-93.5 38.5q-29 0 -53.5 -10.5t-50.5 -33.5l-21 11q3 24 4.5 45t2.5 43.5t1.5 48.5t0.5 61q0 30 -0.5 52.5t-1.5 42t-2.5 37.5t-3.5 39l7 6q28 -2 51.5 -3.5t45 -2.5t42 -1.5t43.5 -0.5t43 0.5
t39 1.5t39 2.5t43 3.5q-5 -23 -7 -41.5t-2 -28.5q0 -11 0.5 -22t2.5 -28q-54 2 -97 3t-84 1h-26h-23.5t-25 -0.5t-30.5 -1.5l-6 -160q32 20 60 28.5t64 8.5q89 0 141 -49t52 -134q0 -53 -22 -99t-59.5 -80.5t-88.5 -54.5t-108 -20q-35 0 -60.5 5t-57.5 19q-3 24 -6 42.5
t-6 34.5t-7 31.5t-8 32.5z" />
    <glyph glyph-name="six" unicode="6" 
d="M257 333q-81 0 -81 -115q0 -85 23 -129t68 -44q38 0 59.5 33.5t21.5 96.5q0 77 -23 117.5t-68 40.5zM434 643l-15 -17q-14 2 -21 2.5t-15 0.5q-37 0 -71.5 -17t-59.5 -46q-17 -20 -29.5 -42t-21.5 -49t-14.5 -60t-8.5 -76l54 52q14 14 37 22t49 8q69 0 109 -50.5
t40 -135.5q0 -53 -15.5 -97.5t-43 -76.5t-65.5 -50t-84 -18q-102 0 -157.5 72t-55.5 203q0 226 149 337q46 35 93.5 51.5t104.5 18.5z" />
    <glyph glyph-name="seven" unicode="7" 
d="M54 427q2 54 3 85t1 52v28.5t-0.5 23t-1.5 21.5t-2 26l8 8q42 -2 79 -3.5t70.5 -2t66 -1t66.5 -0.5h39t35.5 0.5t36.5 1.5t43 2v-45q-48 -85 -94.5 -176t-86 -175.5t-69.5 -156.5t-44 -119q-18 2 -31.5 3t-23.5 1q-17 0 -50 -3l-6 14q18 27 30.5 46.5t28.5 47t41 71.5
t68 120q27 48 53.5 94.5t52.5 94.5q10 19 18.5 34.5t13.5 25.5q-69 1 -113 1h-73q-25 0 -41.5 -0.5t-27 -1.5t-16 -3t-8.5 -5q-7 -5 -11.5 -25.5t-8.5 -59.5q-2 -6 -3 -24h-43z" />
    <glyph glyph-name="eight" unicode="8" 
d="M192 313q-36 -32 -51 -62.5t-15 -72.5q0 -58 32 -94t83 -36q46 0 76 31.5t30 80.5q0 39 -18 67t-57 48q-7 3 -13.5 6.5t-15.5 7.5t-21 10t-30 14zM290 404q16 16 27 29t17.5 26t9 26.5t2.5 30.5q0 49 -24.5 76t-69.5 27q-42 0 -67 -23.5t-25 -64.5q0 -45 33 -72
q8 -8 24.5 -16.5t54.5 -28.5zM155 332q-27 15 -46 31t-31 34t-17 39.5t-5 48.5q0 42 15 76.5t41.5 59t64 38.5t82.5 14q78 0 123.5 -38t45.5 -104q0 -21 -5 -39t-16 -35t-30.5 -34t-47.5 -36q72 -28 102.5 -67.5t30.5 -105.5q0 -48 -17.5 -88.5t-49 -70t-74 -46t-93.5 -16.5
q-43 0 -78 13t-60 36t-39 56t-14 72q0 38 13 69.5t37 51.5q12 10 25.5 18t42.5 23z" />
    <glyph glyph-name="nine" unicode="9" 
d="M251 625q-40 0 -61.5 -35t-21.5 -99q0 -156 92 -156q78 0 78 121q0 81 -22.5 125t-64.5 44zM58 2l12 22q13 -4 23 -5.5t24 -1.5q113 0 172 104q20 35 30.5 85t15.5 122l-50 -50q-17 -17 -37 -24t-52 -7q-34 0 -61.5 13.5t-47 37.5t-30.5 58.5t-11 76.5q0 51 15.5 95
t43.5 76.5t66 50.5t82 18q47 0 88.5 -18.5t68.5 -50.5q57 -71 57 -208t-48.5 -233t-142.5 -148q-40 -22 -80.5 -32t-94.5 -12z" />
    <glyph glyph-name="colon" unicode=":" horiz-adv-x="288" 
d="M144 466q30 0 51 -22.5t21 -54.5t-21.5 -54.5t-51.5 -22.5q-29 0 -50 22.5t-21 53.5q0 32 21 55t51 23zM144 136q30 0 51 -22.5t21 -54.5t-21.5 -54.5t-51.5 -22.5q-29 0 -50 22.5t-21 53.5q0 32 21 55t51 23z" />
    <glyph glyph-name="semicolon" unicode=";" horiz-adv-x="288" 
d="M10 -155q15 26 29.5 60t25.5 69.5t18 68.5t8 58q41 6 69 13.5t55 20.5l17 -16q-59 -142 -137 -256q-9 -5 -15.5 -8t-13.5 -6.5t-16.5 -7.5t-23.5 -10zM151 466q30 0 51 -22.5t21 -54.5t-21.5 -54.5t-51.5 -22.5q-29 0 -50 22.5t-21 53.5q0 32 21 55t51 23z" />
    <glyph glyph-name="less" unicode="&#x3c;" horiz-adv-x="539" 
d="M21 250l461 180l36 -53l-383 -151l383 -151l-48 -54l-449 183v46z" />
    <glyph glyph-name="equal" unicode="=" 
d="M473 297v-83h-433v83h433zM473 457v-83h-433v83h433z" />
    <glyph glyph-name="greater" unicode="&#x3e;" horiz-adv-x="539" 
d="M518 202l-449 -183l-48 54l383 151l-383 151l36 53l461 -180v-46z" />
    <glyph glyph-name="question" unicode="?" horiz-adv-x="437" 
d="M184 135q32 0 54 -22.5t22 -54.5t-22.5 -54t-54.5 -22q-31 0 -53.5 22.5t-22.5 53.5q0 32 22.5 54.5t54.5 22.5zM38 502q26 89 32 135q35 26 69 37t78 11q83 0 133 -41.5t50 -110.5q0 -59 -37 -104q-8 -9 -15 -16t-17.5 -16.5t-26.5 -23t-41 -33.5q-32 -26 -45.5 -46
t-13.5 -44q0 -18 7.5 -31t28.5 -33l-29 -14q-32 28 -45.5 52.5t-13.5 53.5q0 12 2 22.5t7.5 22t15 24.5t24.5 30q36 43 51 72.5t15 58.5q0 37 -26 60.5t-67 23.5q-21 0 -37 -5.5t-33 -18.5q-4 -7 -6.5 -12t-4.5 -10t-5 -11.5t-7 -17.5l-8 -18z" />
    <glyph glyph-name="at" unicode="@" horiz-adv-x="685" 
d="M370 469q-40 0 -68 -60q-8 -16 -14.5 -36t-11 -41t-7.5 -41.5t-3 -36.5q0 -29 13 -46t35 -17q24 0 43.5 18.5t32.5 52.5q13 35 21.5 73.5t8.5 62.5q0 32 -13.5 51.5t-36.5 19.5zM534 490l-45 -225q-3 -14 -5 -28.5t-2 -22.5q0 -38 36 -38q20 0 37.5 14t30.5 38t20.5 56.5
t7.5 69.5q0 51 -16 92.5t-46 70.5t-72 45t-94 16q-62 0 -113 -22t-88 -61.5t-57.5 -94t-20.5 -120.5q0 -58 17.5 -104.5t49.5 -79.5t77 -51t101 -18t109 21.5t94 61.5l-4 -31q-101 -86 -227 -86q-65 0 -119 20t-93 56t-60.5 86.5t-21.5 111.5q0 67 26.5 130t74.5 111
q98 98 253 98q61 0 111 -17.5t86 -49.5t56 -76.5t20 -98.5q0 -44 -13.5 -84t-36.5 -70.5t-53.5 -48.5t-64.5 -18q-38 0 -62.5 25t-21.5 61v3q-29 -45 -60 -65.5t-66 -20.5q-48 0 -75 33t-27 90q0 42 12 84.5t34 74.5q46 72 120 72q35 0 56.5 -15t35.5 -50l18 48z" />
    <glyph glyph-name="A" unicode="A" horiz-adv-x="710" 
d="M214 259q17 -1 29 -1.5t22.5 -0.5h20h21.5h23.5h22t25 0.5t32.5 1.5l-105 247zM384 676l229 -556q11 -25 17 -38t7 -15q3 -8 7.5 -12.5t12 -7.5t19 -5t30.5 -3v-41q-30 1 -50 1.5t-36 0.5h-29h-28h-35t-31 -0.5t-36.5 -1t-51.5 -1.5v42l15 1l31 1q28 2 28 19q0 5 -2 12
t-7 21l-43 110l-23 1l-118 1h-20h-18t-23.5 -0.5t-36.5 -1.5l-34 -95q-5 -12 -7 -18.5t-3.5 -10.5t-1.5 -6.5v-6.5q0 -14 16 -19t61 -7v-42q-14 1 -25 1.5t-22 0.5h-24h-30h-38t-29 -0.5t-25 -1t-27 -1.5v44q46 1 56 10q9 5 38 74l217 551h70z" />
    <glyph glyph-name="B" unicode="B" horiz-adv-x="608" 
d="M242 52q13 -2 21.5 -2.5t19.5 -0.5q142 0 142 151q0 74 -34 108t-108 34h-19.5t-22.5 -1q-1 -13 -1 -20.5v-9.5zM260 392q78 0 111.5 27.5t33.5 93.5q0 57 -25 82t-81 25q-14 0 -26 -1t-29 -4q-1 -23 -1.5 -41t-1 -34t-0.5 -31v-32v-85h19zM61 20q26 14 35.5 26t8.5 32
v29.5t1 61.5q0 11 0.5 21.5t0.5 24v31v43.5q0 82 -0.5 139t-1 94t-2 56.5t-3.5 27.5q-2 6 -5.5 10.5t-11.5 7t-22.5 4t-37.5 2.5v40q11 -1 17 -1h8l77 -2q9 -1 22 -1h30q32 0 61 0.5t72 2.5q18 1 33.5 1.5t24.5 0.5q89 0 135 -33.5t46 -98.5q0 -64 -40.5 -104t-126.5 -60
q21 -2 36 -4.5t27 -5t22.5 -6t21.5 -8.5q39 -17 61.5 -54.5t22.5 -85.5q0 -54 -29 -101.5t-80 -77.5q-56 -34 -161 -34h-4t-13 0.5t-29 1t-52 1.5q-17 1 -28 1h-19q-17 0 -39 -1t-58 -4v23z" />
    <glyph glyph-name="C" unicode="C" horiz-adv-x="679" 
d="M600 474l-2 57q-1 20 -3 26.5t-10 14.5q-28 26 -70 40.5t-90 14.5q-55 0 -99 -19t-74.5 -55t-47 -87t-16.5 -114q0 -131 69 -215q38 -47 88 -69t119 -22q49 0 90.5 11t91.5 37l11 -11q-4 -8 -6.5 -13.5l-5 -11t-4.5 -11.5l-5 -15q-51 -28 -103 -41t-115 -13
q-87 0 -157.5 25.5t-120 72t-76.5 112.5t-27 148q0 80 27 144.5t77.5 109.5t121.5 69.5t160 24.5q33 0 62.5 -2.5t58 -8.5t58 -15.5t61.5 -22.5q-5 -16 -8.5 -28t-6 -26.5t-4 -34.5t-2.5 -51l-1 -21h-41z" />
    <glyph glyph-name="D" unicode="D" horiz-adv-x="780" 
d="M243 335v-49.5v-54t-0.5 -72.5t-1.5 -104q23 -3 39.5 -4t39.5 -1q69 0 116.5 15.5t79.5 49.5q37 38 58 101t21 135q0 74 -23 133.5t-65 89.5q-56 42 -169 42q-20 0 -40.5 -1t-55.5 -3v-39zM53 21q7 5 9 5q13 7 20 11t10.5 7.5t4.5 7t2 9.5q1 4 1.5 38t1.5 79.5t1.5 92.5
t0.5 77q0 45 -0.5 89.5t-1.5 80.5t-2 60t-2 29q-3 11 -14 14.5t-43 6.5q-2 0 -7 0.5t-11 1.5v42q31 -2 53 -3t40.5 -2t35.5 -1h37h22t23 0.5t37.5 1t66.5 1.5q9 1 19.5 1h24.5q69 0 113 -4.5t76 -15.5q83 -29 127.5 -100t44.5 -174t-43 -186.5t-121 -131.5
q-51 -32 -111.5 -46.5t-139.5 -14.5h-14t-16 0.5t-28 1t-51 1.5q-8 1 -18.5 1h-24.5h-20t-18.5 -0.5t-26 -1.5t-42.5 -2h-16v24z" />
    <glyph glyph-name="E" unicode="E" horiz-adv-x="555" 
d="M44 22q39 17 46 28q2 3 3.5 24t2.5 56.5t1.5 83t0.5 104.5q0 41 -0.5 88.5t-1 89.5t-1 71t-1.5 32q-3 17 -17.5 22.5t-59.5 7.5v41q34 -1 59 -2t43.5 -1.5t32.5 -0.5h27h28t42 1q23 0 42 0.5t38.5 0.5h43.5h57h50.5t41.5 -2q-7 -31 -11 -70.5t-4 -73.5h-38q0 21 -0.5 34
t-1 20.5t-2 11t-3.5 6.5q-7 10 -36 14t-95 4h-23h-18t-20.5 -0.5t-32.5 -0.5v-71l-1 -31l-2 -108v-27q18 -2 31.5 -2.5t35.5 -0.5h48t28 0.5t14.5 1.5t8.5 3q7 4 10 16t5 36v7.5t1 13.5h39q-1 -27 -1.5 -45t-1 -29.5t-0.5 -18v-12.5v-17t0.5 -21t1 -28.5t1.5 -41.5h-42
q-1 8 -1 14v8q-1 31 -5 42.5t-15 14.5q-9 3 -32.5 4.5t-55.5 1.5q-19 0 -33.5 -0.5t-35.5 -2.5q-1 -17 -1 -27v-15q0 -89 1 -139.5t3 -80.5q35 -2 53 -2h36q60 0 95.5 3t42.5 9q2 2 4 5.5t4.5 13.5t6.5 28t11 50h39q-3 -15 -5 -36.5t-4 -44.5t-3 -45t-1 -37
q-29 -2 -47.5 -2.5t-40.5 -0.5q-6 0 -28 0.5t-55 1.5l-167 1h-30t-27.5 -0.5t-32.5 -1t-45 -1.5v25z" />
    <glyph glyph-name="F" unicode="F" horiz-adv-x="529" 
d="M18 36q36 1 51 3t20 7q6 7 9 58.5t3 162.5q0 150 -2 236t-6 101q-2 7 -5.5 11.5t-11.5 7t-22.5 3.5t-36.5 2v42q65 -2 102 -3t47 -1h34t46 1q63 2 116 2.5t108 0.5h34q-5 -35 -8 -75t-3 -79h-41q-2 42 -3.5 58.5t-6.5 22.5q-7 8 -39 12.5t-82 4.5q-18 0 -37 -1t-47 -4
v-120v-120h28q41 0 66 0.5t41 1.5q17 1 23 10t7 38q1 3 1 8.5t1 13.5h41q-1 -29 -1.5 -46.5t-0.5 -28v-16.5v-11v-10.5v-18.5t0.5 -31.5t1.5 -47.5h-41q-2 42 -4 57t-7 20q-11 11 -102 11q-13 0 -24 -0.5t-29 -1.5v-15v-87q1 -52 1.5 -83t1.5 -48t3 -24t5 -11q6 -6 16 -7.5
t45 -3.5l19 -1v-40q-21 1 -39 2t-35 1.5t-35.5 0.5h-39.5q-47 0 -82.5 -1t-79.5 -3v39z" />
    <glyph glyph-name="G" unicode="G" horiz-adv-x="781" 
d="M458 270q18 -1 33 -1.5t29.5 -1t30.5 -0.5h37h26.5h31.5t41 0.5t55 0.5v-31l-9 -3l-18 -6t-9 -4t-4 -4t-2 -6q-1 -5 -1.5 -24t-0.5 -41v-20t0.5 -20.5t1 -28t2.5 -41.5q-78 -32 -146.5 -47t-137.5 -15q-86 0 -156.5 25t-120.5 71.5t-77 112t-27 146.5q0 75 26.5 141
t74.5 112q105 99 305 99q35 0 66 -2.5t61.5 -8t61.5 -14.5t66 -22q-8 -24 -14.5 -67t-9.5 -94h-40q-1 29 -2 45.5t-2.5 25.5t-3.5 13t-5 8q-29 29 -76 45t-101 16q-60 0 -107.5 -19.5t-80.5 -56t-50.5 -88.5t-17.5 -118q0 -70 18.5 -127.5t52 -99t81 -64t104.5 -22.5
q31 0 63 7t48 17q5 3 6 10t1 35q0 39 -0.5 61.5t-1.5 34t-4 15t-7 5.5q-7 3 -34.5 5.5t-56.5 3.5v42z" />
    <glyph glyph-name="H" unicode="H" horiz-adv-x="764" 
d="M18 37q21 1 33.5 2t20 2.5t11 3t6.5 3.5q4 4 6.5 18t4 47.5t2 90.5t0.5 146q0 26 -0.5 61t-1.5 70t-1.5 64.5t-1.5 44.5q-1 11 -3.5 18t-9.5 11.5t-19.5 6t-32.5 2.5h-15v41q19 -1 35 -2t31 -1.5t30 -0.5h34h43.5t41.5 1t43 2t48 3v-42q-25 -1 -40.5 -3t-23.5 -5
t-11.5 -8.5t-4.5 -14.5t-1.5 -19.5t-1 -33t-0.5 -62.5v-106q26 -1 45.5 -1.5t35 -0.5h28h24.5h29.5t32 0.5t39.5 1t53 1.5q0 63 -1 107t-2.5 71.5t-3.5 41.5t-5 17q-5 7 -21 10t-51 4v41q24 -1 42.5 -2t34.5 -1.5t30.5 -0.5h30.5h27.5t33.5 1t44.5 1.5t61.5 2.5v-41
q-39 -3 -54 -5t-22 -7q-3 -2 -4.5 -4.5t-2 -9t-1 -19.5t-0.5 -36q-1 -47 -1.5 -79t-0.5 -59v-53v-60q0 -109 1.5 -165.5t5.5 -71.5q2 -7 5 -11.5t9.5 -6.5t18 -3t30.5 -2l15 -1v-40q-28 1 -49 2t-39 1.5t-35.5 0.5h-36.5h-38.5t-34 -0.5t-33.5 -1.5t-38 -2v40l13 1
q21 1 33 2.5t18.5 4.5t9 7.5t4.5 13.5q2 20 3 83t2 169q-24 1 -42 1.5t-33 0.5h-29.5h-32.5h-39.5h-33t-34.5 -0.5t-42 -1.5v-30q0 -34 0.5 -66.5t1 -60.5t1 -50t1.5 -34q1 -13 4 -20.5t11 -11.5t23 -5.5t41 -2.5v-40q-23 1 -41.5 2t-35 1.5t-32 0.5h-33.5h-25.5t-32 -0.5
t-44 -1.5t-61.5 -2v40z" />
    <glyph glyph-name="I" unicode="I" horiz-adv-x="339" 
d="M17 37l10 1q21 1 33.5 2t19.5 3.5t9.5 7.5t4.5 13q3 14 4.5 101t1.5 253q0 95 -1.5 140.5t-5.5 53.5q-4 7 -16.5 10.5t-39.5 5.5h-7.5t-11.5 1v42q22 -2 42 -3t40.5 -2t44 -1h53.5h38.5t30.5 0.5t27 1.5t28 2v-40q-22 -2 -36 -3t-22.5 -3t-12.5 -4.5t-5 -5.5
q-3 -6 -4 -15t-1 -38q0 -6 -0.5 -23.5t-1 -41t-0.5 -49.5t-0.5 -48.5t-0.5 -39v-19.5q0 -96 0.5 -151t1.5 -83.5t3 -38.5t5 -15q4 -7 17.5 -9.5t55.5 -4.5v-40q-34 1 -58.5 1.5t-43.5 1t-34 0.5h-31q-35 0 -64 -1t-73 -2v40z" />
    <glyph glyph-name="J" unicode="J" horiz-adv-x="345" 
d="M-6 -109q17 -17 31.5 -24t31.5 -7q36 0 42 37q5 23 6.5 105.5t1.5 229.5v151t-0.5 104t-1 66t-1.5 37t-2.5 18t-3.5 8q-5 7 -22 9.5t-63 4.5v40q23 -1 43 -2t39.5 -1.5t40.5 -0.5h46h41.5t35.5 0.5t33.5 1.5t35.5 2v-40q-21 -2 -33.5 -3t-20 -2t-11 -2.5t-7.5 -4.5
q-5 -5 -7 -18.5t-2 -50.5l-2 -356q0 -50 -0.5 -80.5t-1.5 -50.5t-3.5 -34t-6.5 -32q-13 -54 -49 -99.5t-91 -75.5q-47 -27 -85 -27q-11 0 -26 4q1 15 1.5 26t0.5 19q0 7 -0.5 17.5t-1.5 24.5z" />
    <glyph glyph-name="K" unicode="K" horiz-adv-x="704" 
d="M237 299v-45q0 -32 0.5 -64t1 -58.5t1 -45t1.5 -23.5q3 -14 15.5 -18.5t54.5 -5.5v-43q-35 1 -59 2t-40.5 1.5t-28 0.5h-21.5h-27t-29 -0.5t-37.5 -1.5t-51.5 -2v42q66 1 73 16q3 6 5.5 19.5t3.5 40t1.5 67.5t0.5 102q0 21 -0.5 60.5t-1 81t-1 77t-0.5 49.5
q-1 28 -2.5 43.5t-9 22.5t-23.5 8.5t-46 1.5v40q27 -1 46.5 -1.5t35.5 -0.5h29h28h32.5t31 0.5t37.5 1t53 1.5v-39q-33 -3 -44 -5.5t-18 -7.5q-3 -3 -5 -6.5t-3 -10.5t-1.5 -18t-0.5 -29q0 -9 -0.5 -16.5t-0.5 -16v-18.5v-25v-101v-33q36 32 88.5 84.5t126.5 131.5
q21 21 33 35t19 24t9 17.5t2 16.5v7t-1 11q19 -1 32.5 -1.5t24 -1t19.5 -0.5h19q23 0 39 0.5t40 2.5v-40q-25 -2 -40 -4t-26 -6t-20.5 -10.5t-22.5 -18.5q-21 -19 -49.5 -45t-58.5 -53.5t-57.5 -53.5t-47.5 -45q5 -6 11 -12.5t11 -12.5q28 -34 56 -67.5t56 -68.5l96 -111
q20 -23 33 -37.5t21 -23t13 -12t9 -4.5q6 -2 13.5 -3t25.5 -2v-42q-27 1 -45.5 1.5t-30.5 1t-19.5 0.5h-14.5q-23 0 -40.5 -1t-41.5 -3q-27 33 -135 171q-14 18 -28 34.5t-29 33.5t-32 36.5t-39 43.5z" />
    <glyph glyph-name="L" unicode="L" horiz-adv-x="551" 
d="M538 174q-7 -47 -11.5 -90.5t-6.5 -79.5q-34 -4 -60 -5t-57 -1h-32t-52 1q-35 1 -71.5 1.5t-62.5 0.5q-29 0 -59.5 -1t-77.5 -4v25q8 3 11 6q13 6 20.5 10.5t11.5 9.5t5 11.5t1 17.5q2 58 3 98t2 73t1 64v71q0 115 -2.5 168t-7.5 63q-4 7 -16 10.5t-38 5.5q-2 0 -8 0.5
t-14 1.5v40q21 -2 39 -2.5t35.5 -1.5t35 -1h38.5h36.5t33.5 0.5t38 1.5t50 2v-40l-18 -1q-20 -1 -32 -3t-18.5 -6.5t-9.5 -12.5t-3 -20l-3 -242l-1 -101v-106l-1 -58v-21q36 -1 54.5 -1.5t37.5 -0.5q67 0 100 4t41 13q3 3 5 6.5t4.5 13t6.5 28.5t10 52h42z" />
    <glyph glyph-name="M" unicode="M" horiz-adv-x="917" 
d="M405 -11q-96 214 -160 352.5t-101 210.5v-46q2 -85 3 -164.5t2 -154.5q1 -47 1.5 -74t3 -41t6 -19t10.5 -7q8 -3 20.5 -4.5t38.5 -2.5v-40q-16 1 -29 1.5t-26 0.5h-28.5h-35.5h-53t-47 -2v39q4 1 6.5 1h4.5q33 2 43.5 4t15.5 8q5 7 6.5 18.5t3.5 42.5q0 4 0.5 20.5
t1 39.5t1 49.5t1 50.5t0.5 41.5v23.5q0 96 -0.5 151t-2 83t-4.5 36.5t-8 12.5q-3 3 -7 4.5t-11.5 2.5t-19.5 1.5t-31 1.5v41q19 -1 34.5 -1.5t30.5 -1t31 -0.5h36h29.5t23.5 0.5t21.5 1t22.5 1.5q11 -28 20.5 -50t21 -48t28.5 -61.5t43 -90.5q18 -38 32.5 -68t27 -57
t24.5 -53t25 -56q16 31 36 73t42 88t44.5 94.5t42 91.5t35 79t24.5 58q24 -1 41 -1.5t31.5 -1t28 -0.5h30.5q28 0 46 0.5t42 2.5v-39q-37 -3 -53 -6.5t-19 -11.5q-5 -9 -7 -73t-2 -176q0 -153 2.5 -227.5t8.5 -84.5q4 -6 20 -9t50 -4v-42q-16 1 -30 1.5t-29 1t-32.5 0.5
h-39.5h-47.5t-40.5 -0.5t-37.5 -1t-39.5 -1.5v41h14q26 1 37 3.5t16 8.5q7 5 9 31.5t2 95.5v49.5t1 98.5v212q-8 -17 -16 -33t-16 -33q-38 -83 -76.5 -166.5t-77.5 -169.5l-22 -50q-6 -12 -10 -20.5t-8.5 -18.5t-10 -23.5t-14.5 -34.5h-31z" />
    <glyph glyph-name="N" unicode="N" horiz-adv-x="765" 
d="M15 38q19 1 31.5 1.5t20 1.5t11.5 2.5t7 4.5q7 5 9 15.5t4 39.5q0 9 0.5 43.5t1 77.5l1 86t0.5 70q0 75 -0.5 120t-2 69.5t-4.5 34t-7 12.5q-3 2 -5.5 3.5t-9.5 2.5t-20.5 2.5t-37.5 4.5v40q32 -2 57 -2.5t57 -0.5q26 0 43 0.5t40 2.5q90 -115 151 -192t105 -131
t76.5 -91.5t65.5 -73.5l-1 276q-1 49 -2 80t-2.5 48.5t-3.5 24.5t-6 9q-3 2 -6 3.5t-8.5 2.5t-15.5 1.5t-29 2.5h-5t-7 1v40q31 -2 53 -3t48 -1h24.5t26 0.5t32 1.5t42.5 2v-40q-35 -1 -51 -4.5t-22 -11.5q-3 -3 -4.5 -7.5t-2.5 -13t-1.5 -22.5t-0.5 -38l-1 -262v-49.5
t0.5 -55t1 -75.5t1.5 -110q-15 3 -24.5 5.5t-18 4t-18.5 3t-25 3.5q-98 115 -167.5 197.5t-119 142.5t-82.5 102t-57 77q0 -25 0.5 -47t0.5 -44.5v-48.5v-58q0 -77 1 -126.5t2 -79.5t3 -44t5 -18q4 -5 14.5 -7t43.5 -5h13v-41q-31 2 -53 3t-52 1q-27 0 -54 -1t-66 -3v41z
" />
    <glyph glyph-name="O" unicode="O" horiz-adv-x="791" 
d="M391 630q-100 0 -151.5 -71.5t-51.5 -208.5q0 -152 55 -234t157 -82q100 0 152 74.5t52 217.5q0 148 -56 230q-50 74 -157 74zM409 685q78 0 137.5 -19t106.5 -61q102 -90 102 -254q0 -86 -25.5 -154.5t-73 -117.5t-115 -75t-151.5 -26q-171 0 -262 91t-91 262
q0 149 82 242q53 59 121.5 85.5t168.5 26.5z" />
    <glyph glyph-name="P" unicode="P" horiz-adv-x="561" 
d="M17 37l14 1q36 2 46.5 6.5t14.5 18.5q1 6 2.5 32.5t2.5 69t1.5 97.5t0.5 118q0 117 -3 172t-10 63q-5 5 -18 8t-50 5v41q38 -2 59 -2.5t34.5 -1t23 -0.5h23.5h27t23 0.5t29 1t46 2.5q20 1 37.5 1.5t32.5 0.5q105 0 152.5 -35.5t47.5 -113.5q0 -45 -16.5 -83.5
t-45.5 -66.5t-68.5 -44t-86.5 -16q-15 0 -26 1.5t-28 6.5q-5 12 -7.5 17t-9.5 16l11 13q12 -5 20 -6.5t16 -1.5q44 0 71.5 36t27.5 93q0 131 -116 131q-17 0 -28 -1t-27 -5q-2 -21 -3 -37.5t-1.5 -39.5t-0.5 -58.5v-93.5q0 -62 0.5 -116.5t1.5 -97t2 -70.5t2 -35
q1 -8 5.5 -12.5t14 -7.5t26 -4.5t43.5 -2.5v-40q-18 1 -33 2t-29 1.5t-30 0.5h-37q-45 0 -87 -1t-97 -3v40z" />
    <glyph glyph-name="Q" unicode="Q" horiz-adv-x="821" 
d="M391 630q-100 0 -151.5 -71.5t-51.5 -208.5q0 -152 55 -234t157 -82q100 0 152 74.5t52 217.5q0 148 -56 230q-50 74 -157 74zM785 -112q-11 -9 -18 -14.5t-15 -11.5t-21 -15t-36 -25q-14 -9 -21 -11.5t-18 -2.5q-31 0 -71 9.5t-100 31.5q-35 13 -60 21t-43 13t-31.5 7
t-25.5 2q-21 0 -39.5 -8t-40.5 -27l-23 23q40 36 72.5 59t67.5 39q-158 9 -241.5 98.5t-83.5 249.5q0 78 20 138.5t62 108.5q51 58 120.5 85t169.5 27q78 0 137.5 -19t106.5 -61q102 -90 102 -254q0 -85 -24.5 -153t-70.5 -116t-112.5 -74.5t-150.5 -29.5q13 -3 24 -5.5
t23 -6t28 -8.5t40 -12q48 -17 79 -27t51 -15t31.5 -7t22.5 -2q18 0 37.5 5t51.5 18v-30z" />
    <glyph glyph-name="R" unicode="R" horiz-adv-x="659" 
d="M273 357q8 -2 12.5 -2h9.5q57 0 93 38.5t36 100.5q0 122 -127 122q-11 0 -24 -1t-30 -4q-1 -22 -2 -53.5t-1.5 -77t-0.5 -106.5v-142q0 -92 2.5 -132t8.5 -49q5 -5 15.5 -7.5t38.5 -4.5l13 -1v-41q-17 1 -31 2t-27.5 1.5t-29.5 0.5h-38h-43t-40 -0.5t-42 -1t-49 -1.5v40
q38 2 53 4.5t20 8.5q4 5 6 21.5t4 60.5l2 236q0 115 -3 173.5t-11 69.5q-5 7 -16.5 10t-37.5 5h-6.5t-10.5 1v40q42 -2 64.5 -2.5t36.5 -0.5q41 0 82 0.5t98 2.5q21 1 42 1.5t36 0.5q24 0 42.5 -1t32.5 -3.5t26 -6t23 -8.5q30 -16 48.5 -49.5t18.5 -74.5q0 -60 -38.5 -105.5
t-111.5 -71.5q15 -22 55.5 -83t98.5 -150q16 -26 27.5 -41.5t21 -24t18 -11.5t19.5 -2q2 0 5 1v-38q-42 1 -64 1h-27q-14 0 -32 -1t-55 -3q-9 15 -15 24t-11.5 18t-13 21t-20.5 32q-33 54 -66 105q-15 23 -29.5 45t-28.5 44q-7 11 -13 20.5t-12 18.5q-2 4 -4.5 7.5t-4.5 6.5
z" />
    <glyph glyph-name="S" unicode="S" horiz-adv-x="556" 
d="M95 195v-13l2 -52q0 -14 5 -23.5t16 -20.5q56 -51 135 -51q62 0 100 33.5t38 88.5q0 53 -34 81q-17 14 -43 23.5t-77 20.5q-56 11 -84 21t-48 25q-28 21 -44 57t-16 79q0 45 17.5 87t46.5 71q66 61 190 61q55 0 99 -9.5t86 -29.5q-10 -27 -14 -62t-4 -88h-39
q-1 35 -2.5 52.5t-6.5 26.5q-11 23 -46.5 39t-78.5 16q-58 0 -93.5 -30t-35.5 -80q0 -26 11 -47t31 -33q8 -5 16.5 -9t20 -7.5t28.5 -7.5t41 -10q37 -9 60.5 -14.5t38.5 -10t24.5 -9.5t20.5 -11q31 -18 47.5 -54.5t16.5 -84.5q0 -54 -20 -99t-57 -76.5t-88.5 -49
t-114.5 -17.5q-57 0 -104.5 12t-98.5 39q8 38 12 77.5t4 88.5h42z" />
    <glyph glyph-name="T" unicode="T" horiz-adv-x="621" 
d="M152 37q21 1 34.5 2t21.5 2.5t12 3.5t7 5t5 14t3.5 34t2.5 61t1.5 95.5t0.5 137v185.5v30h-29q-37 0 -62 -0.5t-41 -1.5t-24.5 -3t-12.5 -5q-7 -5 -9.5 -18t-4.5 -44l-1 -28h-41v25q0 30 -2 67.5t-5 72.5q42 -3 76 -5.5t67 -3.5t68.5 -1.5t81.5 -0.5t84.5 0.5t75 1.5
t73 2.5t79.5 3.5q-3 -14 -5 -34t-4 -42t-3 -44.5t-1 -41.5h-40q-2 31 -3 48.5t-3 26t-5 11.5t-9 6q-9 3 -17 4t-24 2t-44 1.5t-76 0.5v-33l-2 -421q0 -56 2.5 -77.5t9.5 -26.5q3 -2 5.5 -3.5t9.5 -3t20 -2.5t36 -3v-40q-27 1 -47 2t-36.5 1.5t-32 0.5h-33.5h-33.5
t-33.5 -0.5t-40 -1.5t-52 -2v40z" />
    <glyph glyph-name="U" unicode="U" horiz-adv-x="718" 
d="M11 669q21 -1 38 -2t33 -1.5t32 -0.5h34h32t34.5 0.5t41 1t51.5 1.5v-40q-40 -1 -53 -6t-17 -22q-2 -8 -4 -33.5t-3 -66t-1.5 -94t-0.5 -116.5q0 -41 1 -68.5t4 -46.5t8.5 -31.5t13.5 -24.5q21 -29 57.5 -44t86.5 -15q64 0 104.5 24.5t52.5 70.5q4 16 7 38t5 57t2.5 86.5
t0.5 126.5q0 45 -0.5 73t-2 44.5t-3.5 24t-6 10.5q-8 6 -23 8.5t-48 4.5v40q22 -1 38 -1.5t29 -1t24.5 -0.5h25.5q29 0 50 1t51 3v-41q-31 -2 -43.5 -5t-19.5 -12q-3 -2 -4.5 -6.5t-3 -17t-2.5 -36t-1.5 -64.5t-1.5 -102.5t-2 -149.5q-2 -66 -15 -109.5t-41 -72.5
q-34 -35 -91 -55t-125 -20q-64 0 -119 17t-90 47q-31 27 -44.5 66.5t-13.5 104.5v49v63.5t0.5 85t1.5 114.5q0 37 -1.5 57t-9 29.5t-23.5 12t-46 4.5v41z" />
    <glyph glyph-name="V" unicode="V" horiz-adv-x="716" 
d="M333 -7q-5 11 -8 18t-5.5 13.5t-5 13.5t-6.5 17q-6 14 -9.5 23.5t-5.5 12.5l-170 411q-20 48 -34.5 77.5t-16.5 30.5q-8 9 -17.5 12t-39.5 7l-12 1v40q28 -1 50.5 -2t43.5 -1.5t41.5 -0.5h43.5q40 0 68.5 1t63.5 3v-41q-25 -2 -40 -3.5t-23.5 -4t-11.5 -7t-3 -10.5
q0 -8 4 -20.5t15 -39.5q9 -22 14.5 -36t7.5 -18l126 -329l140 358q11 29 17.5 50.5t6.5 31.5q0 8 -2.5 13t-11 8t-24 4.5t-41.5 2.5v40q43 -2 70 -3t56 -1q25 0 46 0.5t52 2.5v-39q-27 -2 -39 -5t-18 -8q-5 -3 -17.5 -28.5t-34.5 -79.5l-150 -368q-13 -31 -21 -52t-14 -36.5
t-10.5 -29t-9.5 -29.5h-65z" />
    <glyph glyph-name="W" unicode="W" horiz-adv-x="996" 
d="M207 -7l-2 14q-4 14 -7 28.5t-6 28.5l-9 40l-88 395q-7 34 -11.5 54.5t-7 31.5t-4.5 15.5t-5 8.5q-7 8 -18.5 11.5t-41.5 5.5v42q57 -2 88.5 -3t49.5 -1.5t27 -0.5h21q26 0 45.5 0.5t48.5 1.5v-39q-38 0 -52.5 -6t-14.5 -22v-6t1 -8t3 -14.5t6 -27.5q2 -10 3.5 -16.5
t3.5 -17.5l62 -313l139 298q25 55 46 101.5t33 75.5h42q2 -5 14 -35.5t35 -90.5l145 -373l84 324q4 15 7.5 30.5t6.5 29.5t4.5 25t1.5 16q0 9 -2 14.5t-10.5 8.5t-24 4.5t-42.5 2.5v41q15 -1 27 -1.5t24.5 -1t26 -0.5h30.5q34 0 55 0.5t48 1.5v-40q-16 -1 -26 -2.5
t-16.5 -5.5t-11 -10.5t-9.5 -17.5q-3 -7 -5.5 -15t-6.5 -22t-10.5 -36t-15.5 -56q-19 -68 -32 -115.5t-22 -80t-14 -52t-8 -31.5q-5 -22 -12 -50t-13.5 -53.5t-11 -43.5t-5.5 -19q-2 -9 -6 -23h-89q-5 13 -9 25t-13.5 36.5t-26.5 68t-46 119.5l-91 234l-122 -268
l-13.5 -31.5t-17.5 -40.5q-17 -41 -26.5 -64t-15.5 -36.5t-9.5 -22t-9.5 -20.5h-68z" />
    <glyph glyph-name="X" unicode="X" horiz-adv-x="641" 
d="M7 40q16 1 25 1.5t14.5 1t8.5 1t7 2.5t7.5 4t8 7t11.5 14.5t20 26.5l162 214l-75 130q-27 46 -51.5 83.5t-40.5 57.5q-12 15 -25.5 21t-35.5 6h-9.5t-20.5 -1l-3 38l187 34q13 -10 22.5 -19t18.5 -21.5t19.5 -30t24.5 -44.5l73 -138l114 172q9 13 14.5 22t8 15.5
t3.5 11.5t1 12v6q22 -1 39 -1.5t28 -0.5t26.5 0.5t36.5 1.5v-37q-5 -1 -8 -1h-5q-24 -2 -34 -5.5t-23 -15.5q-2 -3 -6.5 -8.5t-10.5 -13.5q-8 -10 -16.5 -20t-16.5 -21l-126 -167l131 -233q8 -14 16.5 -29t16.5 -27.5t13.5 -21t7.5 -9.5q4 -5 8.5 -8.5t10.5 -5t15 -2.5
t23 -1l12 -1v-41q-42 1 -79 1.5t-57 0.5h-30.5t-32.5 -2q-19 34 -31 55t-17 30l-93 176l-95 -140q-34 -52 -47.5 -79t-12.5 -42q-28 1 -49.5 1.5t-35.5 0.5h-19.5t-27.5 -1v40z" />
    <glyph glyph-name="Y" unicode="Y" horiz-adv-x="641" 
d="M628 670v-22q-9 -10 -18.5 -22.5t-22 -31t-28.5 -44.5t-37 -62q-8 -14 -23.5 -40t-29.5 -48q-21 -35 -32.5 -55t-17.5 -34t-7 -26t-1 -30q0 -55 0.5 -92.5t2 -61t4.5 -35.5t7 -16q5 -5 19.5 -7t54.5 -2v-44q-26 1 -45.5 2t-36.5 1.5t-33 0.5h-35h-35t-33 -0.5t-38 -1.5
t-49 -2v40q30 2 46 3.5t24.5 6t10.5 13t4 23.5q2 14 2.5 54.5t-0.5 89.5q0 17 -0.5 27.5t-3 19.5t-7.5 18t-13 23q-21 37 -46 77.5t-49 76.5t-44 65t-32 43q-17 19 -32.5 26.5t-39.5 7.5h-7t-9 -1v38q13 0 35 3t45.5 7.5t46 9.5t37.5 10q19 -6 39 -25t46 -57t59.5 -99
t79.5 -152q9 19 17 35.5t17 35t20 39.5t26 49q18 34 34 65.5t36 69.5q4 8 7.5 15.5t8.5 15.5h76z" />
    <glyph glyph-name="Z" unicode="Z" horiz-adv-x="617" 
d="M590 167q-4 -29 -6.5 -51t-4.5 -41t-3.5 -37.5t-2.5 -39.5q-18 -2 -33 -2.5t-36 -0.5q-17 0 -41 0.5t-58 1.5q-81 2 -135.5 3t-93.5 1h-39t-36 -0.5t-39 -1.5t-49 -2v39q60 80 110.5 150.5t92.5 133.5l191 285q-25 0 -39 0.5t-23 0.5h-17h-20q-91 0 -134.5 -2.5
t-49.5 -7.5q-3 -3 -5 -8t-4 -14.5t-4 -25t-5 -39.5h-41q1 20 2 35.5t2 28.5t1 24.5v25.5v18.5t-2 23.5l7 5q20 -2 43 -3.5t51 -2t62 -1t78 -0.5h115q56 0 92 0.5t74 2.5v-34q-63 -88 -126.5 -178.5t-118 -169.5t-94.5 -139.5t-56 -87.5q37 -2 83 -2.5t93 -0.5q134 0 149 12
q7 6 13.5 27t15.5 74h41z" />
    <glyph glyph-name="bracketleft" unicode="[" horiz-adv-x="308" 
d="M288 670l-57 -5q-36 -3 -40 -23q-2 -8 -3.5 -45.5t-3 -96.5t-2 -135t-0.5 -161q0 -49 0.5 -98t1.5 -91t2 -73t2 -44q2 -15 10 -20.5t33 -7.5l57 -5v-42q-39 2 -63.5 2.5t-51.5 0.5t-51 -0.5t-63 -2.5q3 35 5.5 74.5t4 86t2 101.5t0.5 123v22.5t-0.5 34.5t-1 70t-1.5 130
q0 54 -1 90t-2 62t-2.5 48t-4.5 48q17 -1 30 -2t25 -1.5t24 -0.5h28q28 0 55 0.5t68 2.5v-42z" />
    <glyph glyph-name="backslash" unicode="\" horiz-adv-x="427" 
d="M420 -52q12 -29 20 -46.5t14 -30t11 -23t13 -25.5q-25 3 -39.5 4t-28.5 1h-12.5t-16.5 -1q-5 15 -8 26t-7.5 21.5l-10.5 24.5l-15 35l-282 649q-14 31 -22.5 50t-14.5 31.5t-11 22.5l-11 22q17 -2 28 -2.5t21 -1.5t21 -1.5t29 -0.5q6 -19 9 -28t8 -22q2 -5 5 -12t8 -18
l6 -12t5 -12z" />
    <glyph glyph-name="bracketright" unicode="]" horiz-adv-x="308" 
d="M21 -135l57 5q25 2 33 7.5t10 20.5q1 14 2 44.5t2 72t1.5 91.5t0.5 104q0 62 -0.5 123.5t-1 114.5t-2 95t-2.5 65q-1 18 -2.5 29t-6 17t-12.5 8t-22 3l-57 5v42q41 -2 68 -2.5t55 -0.5h28t24 0.5t25 1.5t30 2q-3 -26 -4.5 -47.5t-2.5 -47.5t-2 -62t-1 -91
q-1 -86 -1.5 -133t-1 -72t-0.5 -36.5v-25.5q0 -125 3 -216t9 -159q-41 2 -65 2.5t-49 0.5h-23.5t-22.5 -0.5t-28 -1t-41 -1.5v42z" />
    <glyph glyph-name="asciicircum" unicode="^" horiz-adv-x="443" 
d="M51 452l141 246h50l150 -246l-63 -19l-111 182l-105 -182z" />
    <glyph glyph-name="underscore" unicode="_" horiz-adv-x="500" 
d="M500 -80v-54h-500v54h500z" />
    <glyph glyph-name="grave" unicode="`" horiz-adv-x="500" 
d="M259 527l-119 63q-23 12 -36.5 20t-20.5 14t-9 12t-2 15q0 16 11.5 26.5t29.5 10.5q17 0 36 -12t46 -41l100 -108h-36z" />
    <glyph glyph-name="a" unicode="a" horiz-adv-x="470" 
d="M278 237q-35 -8 -59 -17t-39 -21t-21.5 -27.5t-6.5 -35.5q0 -28 15 -45.5t38 -17.5q35 0 73 45v119zM77 335l3 61q32 22 53.5 36t39 21t34 9.5t38.5 2.5q42 0 75 -12t51 -35q15 -18 21.5 -46.5t6.5 -73.5v-13l-5 -165q0 -29 0.5 -44.5t5 -23t14.5 -9.5t28 -4l12 -1v-38
q-27 0 -41.5 0.5t-22.5 0.5h-12h-8q-25 0 -45 -0.5t-48 -2.5l-5 6l5 66q-6 -5 -19.5 -16t-33.5 -28q-8 -8 -15.5 -14t-13.5 -11q-8 -7 -18.5 -9t-36.5 -2q-54 0 -82 30.5t-28 88.5q0 36 10 61t37.5 43t75.5 32t124 29q0 2 0.5 2.5t0.5 1.5v1q1 17 -3.5 39t-11.5 32
q-12 20 -33 30.5t-47 10.5q-12 0 -20.5 -2t-20.5 -7l-30 -55z" />
    <glyph glyph-name="b" unicode="b" horiz-adv-x="555" 
d="M200 108q0 -2 2 -4.5t13 -15.5q14 -17 35 -26t44 -9q51 0 79.5 43.5t28.5 122.5q0 91 -42 129q-14 12 -33 19.5t-39 7.5q-37 0 -68 -26q-8 -8 -14 -14.5t-6 -8.5v-218zM73 -3q2 37 3.5 72t2.5 76.5t1.5 92t0.5 118.5q0 66 -0.5 112t-1.5 75.5t-2.5 45.5t-3.5 23
q-3 8 -12.5 11t-35.5 4h-18v36q63 8 107.5 18.5t73.5 26.5l13 -7v-16q-1 -23 -1 -46.5v-49.5v-213l58 54q32 31 91 31q27 0 52.5 -6.5t44.5 -17.5q37 -22 58.5 -65.5t21.5 -97.5q0 -79 -40 -147q-10 -17 -24.5 -30.5t-45.5 -34.5q-15 -10 -27.5 -18.5t-21.5 -15.5
q-18 -14 -31.5 -22.5t-26 -13.5t-25.5 -6.5t-30 -1.5q-32 0 -57 9t-59 33l-41 -38z" />
    <glyph glyph-name="c" unicode="c" horiz-adv-x="428" 
d="M335 290q-2 37 -6 52.5t-15 26.5q-25 23 -68 23q-48 0 -70.5 -31.5t-22.5 -100.5q0 -95 40.5 -150t109.5 -55q49 0 86 25l9 -12l-19 -49q-35 -19 -67.5 -27.5t-70.5 -8.5q-92 0 -151 56q-60 59 -60 171q0 67 20 110.5t65 72.5q42 27 66 42t39.5 22t28 8t32.5 1
q31 0 57 -6t59 -22q-10 -26 -15 -61t-7 -87h-40z" />
    <glyph glyph-name="d" unicode="d" horiz-adv-x="551" 
d="M357 340q-44 63 -107 63q-93 0 -93 -152q0 -81 27 -126t76 -45q21 0 44 10.5t37 26.5q11 12 13.5 23.5t2.5 40.5v159zM283 669q64 7 109.5 17t78.5 27l10 -11q-2 -38 -3 -91t-2 -112t-1.5 -120t-0.5 -115q0 -57 0.5 -96t1.5 -64.5t2.5 -38t4.5 -15.5q9 -10 58 -13v-39
q-29 1 -49.5 1.5t-55.5 0.5h-42.5t-35.5 -2l-6 6q1 14 1.5 23t1 17t1 16.5t1.5 21.5q-29 -25 -40.5 -35t-17.5 -15q-18 -17 -28.5 -26t-19 -13t-18 -5t-25.5 -1q-39 0 -71.5 16t-56 44.5t-37 67.5t-13.5 86q0 22 3 45.5t9 44.5t13.5 38.5t16.5 27.5q7 9 30.5 26.5t55.5 40.5
q58 39 109 39q43 0 90 -22q1 8 1 16v10q0 42 -0.5 70.5t-1 46t-2 26.5t-3.5 12q-4 5 -17 7t-51 3v37z" />
    <glyph glyph-name="e" unicode="e" horiz-adv-x="463" 
d="M153 272q19 -1 33.5 -1h34.5h26h20.5t18.5 0.5t20 1.5q0 75 -17 106.5t-56 31.5t-57.5 -32t-22.5 -107zM421 75l-22 -46q-68 -46 -151 -46q-46 0 -86 14.5t-69 42.5q-63 60 -63 177q0 51 10 91.5t27 63.5q18 22 83 57q37 20 62 28t53 8q38 0 72.5 -15t55.5 -41
q19 -22 29.5 -57t10.5 -74q0 -5 -0.5 -15t-1.5 -22q-29 -6 -48 -9.5t-34 -5.5t-28.5 -2.5t-29.5 -0.5h-133q2 -74 41.5 -119t102.5 -45q61 0 105 31z" />
    <glyph glyph-name="f" unicode="f" horiz-adv-x="341" 
d="M10 385l72 35q0 35 1 58.5t4.5 40t9.5 27.5t16 22q7 8 12 14t14 15t26 24.5t48 44.5q26 24 49 35t47 11q14 0 28.5 -3t43.5 -12l-23 -120l-18 -6q-21 29 -39 41.5t-41 12.5q-40 0 -48 -38l-3.5 -17.5t-2 -21t-0.5 -37.5v-67v-7t1 -13h37.5t27 0.5t26 2t33.5 3.5l5 -5
q-3 -11 -5 -17.5t-3 -12.5t-2 -13.5t-2 -18.5q-20 1 -49.5 1h-67.5q1 -121 1.5 -193.5t2.5 -97.5q1 -12 4 -18.5t11 -10t25 -5.5t47 -3v-38q-31 1 -51.5 1.5t-35.5 1t-27 0.5h-25h-26.5t-29 -0.5t-38.5 -1.5t-55 -2v40q32 1 44.5 2.5t18.5 6.5q4 3 7 13t4.5 31.5t2 56
t0.5 85.5l-1 115v17l-76 -5v26z" />
    <glyph glyph-name="g" unicode="g" horiz-adv-x="510" 
d="M174 -20q-66 -37 -66 -93q0 -50 37.5 -78t103.5 -28q67 0 108 32t41 86q0 27 -14.5 47t-38.5 27q-17 5 -42 6.5t-65 1.5zM232 421q-35 0 -53.5 -28t-18.5 -79q0 -61 20 -93t58 -32q35 0 53 29t18 85t-20.5 87t-56.5 31zM423 364q7 -25 7 -47q0 -99 -86 -143
q-58 -28 -124 -28q-6 0 -16 0.5t-24 1.5q-19 -15 -19 -32q0 -39 69 -39h25.5t29.5 1q19 1 37.5 1.5t29.5 0.5q83 0 119 -29.5t36 -98.5q0 -50 -19.5 -91t-55.5 -69.5t-86.5 -44t-113.5 -15.5q-98 0 -156.5 39t-58.5 105q0 14 2 26t7 31q23 13 47 27t50 29q-67 16 -67 73
q0 12 2.5 21t10.5 22q14 8 23 13.5t16.5 11t15.5 11.5t21 15q-57 20 -82 52t-25 86q0 78 56.5 124t151.5 46q48 0 80.5 -9t61.5 -31h53t33.5 0.5t23.5 1t24 1.5l8 -10q-5 -9 -8 -15t-5 -11t-4 -11.5t-5 -16.5z" />
    <glyph glyph-name="h" unicode="h" horiz-adv-x="565" 
d="M13 667q54 5 101 15t76 24l14 -8v-122v-197l62 61q10 9 35.5 16t50.5 7q34 0 64 -12t47 -32t23.5 -48.5t6.5 -77.5v-27.5t-1 -36.5q-1 -38 -1 -62.5v-41.5q0 -46 2.5 -60.5t11.5 -18.5q7 -3 17 -4.5t33 -1.5v-42q-30 2 -51 2h-50h-25t-21 -0.5l-20 -1t-22 -1.5l-5 9
q3 37 4.5 62.5t2 47.5t1 43t0.5 48q0 30 -1 52t-2.5 37.5t-5 26.5t-7.5 20q-8 16 -25.5 25t-38.5 9q-24 0 -44 -11.5t-31 -32.5q-7 -12 -9 -27t-2 -48q0 -53 0.5 -91t1.5 -62.5t2.5 -37.5t4.5 -17q4 -5 16.5 -7t45.5 -4v-41q-29 1 -47.5 1.5t-32 1t-24 0.5h-22.5h-28
t-27.5 -0.5t-33 -1.5t-45.5 -2v42h15q30 2 39 5.5t12 16.5q1 5 2 20.5t1.5 48t0.5 87v137.5q0 46 -0.5 90t-1.5 80t-2.5 60t-2.5 29q-2 9 -11.5 12.5t-34.5 4.5q-2 1 -7 1h-11v36z" />
    <glyph glyph-name="i" unicode="i" horiz-adv-x="281" 
d="M146 690q29 0 50.5 -21.5t21.5 -51.5t-21.5 -51.5t-51.5 -21.5t-51.5 21.5t-21.5 51.5q0 31 21.5 52t52.5 21zM15 428q124 10 178 39l15 -8q-1 -74 -1.5 -133t-0.5 -104q0 -46 0.5 -78t2 -52t3 -30.5t4.5 -13.5q5 -5 15 -6.5t44 -3.5v-39h-23l-119 1h-22h-20.5
t-28.5 -0.5t-46 -1.5v38q33 2 45.5 3.5t17.5 6.5q3 3 5 12.5t3 29t1.5 52t0.5 82.5v72.5t-1 46t-2 25.5t-3 11t-3.5 4.5t-8 2.5t-19.5 1.5t-37 2.5v40z" />
    <glyph glyph-name="j" unicode="j" horiz-adv-x="279" 
d="M150 690q29 0 50.5 -21.5t21.5 -51.5t-21.5 -51.5t-51.5 -21.5t-51.5 21.5t-21.5 51.5q0 31 21.5 52t52.5 21zM-32 -232l4 7q32 0 51.5 6.5t33.5 21.5q14 17 21 42.5t9 75.5q1 13 1.5 42t1 65t1 73.5t0.5 67.5q0 57 -0.5 95.5t-1.5 62.5t-2.5 35.5t-3.5 15.5
q-2 2 -4.5 3.5t-9.5 2.5t-20 1.5t-35 1.5v38q49 3 99 13.5t85 25.5l16 -9q0 -27 -0.5 -47.5t-1 -39.5t-0.5 -39.5v-48.5v-173q0 -35 -0.5 -60t-1.5 -44.5t-3.5 -36t-5.5 -33.5q-12 -63 -38 -104.5t-70 -67.5q-41 -25 -82 -25q-4 0 -9.5 0.5t-13.5 1.5z" />
    <glyph glyph-name="k" unicode="k" horiz-adv-x="572" 
d="M19 668q54 4 100 14t78 25l14 -7q-2 -25 -2.5 -48.5t-1.5 -51.5t-1 -61.5v-78.5v-213q20 18 33 29.5t27 25t34 33t54 54.5q24 25 31 37t7 26q25 -1 40 -1.5t32 -0.5h29t40 2v-39q-8 -1 -14 -1h-8q-15 0 -25 -1.5t-18.5 -5.5t-18 -10.5t-23.5 -18.5l-105 -94l171 -194
q2 -2 6.5 -7t9.5 -12q17 -20 29.5 -26t38.5 -5v-40q-28 1 -58 1.5t-53 0.5h-32t-32 -1q-28 36 -53 67t-48.5 59t-46.5 53t-47 50q0 -13 0.5 -24t0.5 -22.5v-25.5v-34q0 -30 1.5 -46.5t6 -24.5t14 -10t26.5 -3h19v-39q-26 1 -44 1.5t-31 0.5h-24h-23h-25.5t-26 -0.5t-34 -1
t-49.5 -1.5v40q33 0 44 1t17 6q5 4 6.5 13t2.5 37l2 254q0 125 -1.5 189.5t-4.5 74.5q-3 9 -11 12.5t-28 4.5l-25 1v37z" />
    <glyph glyph-name="l" unicode="l" horiz-adv-x="281" 
d="M10 674q32 4 53.5 7t40.5 6.5t39.5 8.5t50.5 13l14 -7q0 -24 -0.5 -68t-1 -96t-1 -106.5t-0.5 -99.5q0 -43 0.5 -89t1 -84.5t1 -65t0.5 -29.5q1 -8 4 -13t10 -8t19 -4t33 -1v-40q-44 1 -68.5 1.5t-37.5 1t-18 0.5h-11h-25.5t-25 -0.5t-32 -1t-46.5 -1.5v39q6 1 10 1h6
q26 1 35 3t13 7q3 3 4.5 6.5t2 10t1 17.5t1.5 29q0 21 0.5 49t1 59.5t0.5 65v64.5q0 69 -0.5 133t-2.5 119q0 12 -1.5 18.5t-7 10t-16.5 4.5t-30 2h-6.5t-10.5 1v37z" />
    <glyph glyph-name="m" unicode="m" horiz-adv-x="840" 
d="M20 422q103 9 174 42l13 -7l2 -74l64 52q21 16 37 21.5t48 5.5q51 0 79.5 -18.5t49.5 -64.5l63 56q9 8 17 13t17 8t19.5 4t25.5 1q32 0 59 -9t45 -26q19 -19 27 -48t8 -77v-32.5t-1 -41.5q-1 -27 -1 -44.5v-34.5q0 -41 1 -63t7 -32.5t19 -12.5t37 -2v-40q-17 1 -30.5 1.5
t-26.5 0.5h-26.5h-30.5h-36.5t-39.5 -1l-4 7q3 38 4.5 65t2 49t1 42.5t0.5 46.5q0 52 -1.5 77.5t-6.5 40.5q-15 49 -67 49q-38 0 -58.5 -22t-20.5 -63q0 -38 0.5 -77.5t1.5 -72.5t2 -56t2 -27q1 -6 4 -9.5t9 -5.5t17.5 -3.5t29.5 -2.5v-40q-30 1 -50 1.5t-34 1t-24 0.5h-20
q-27 0 -53.5 -1t-69.5 -2v41q23 0 32 1t16 4q5 2 8.5 8t5.5 18.5t2.5 34t0.5 54.5q0 47 -0.5 77.5t-1 49t-2 29.5t-4.5 19q-16 45 -71 45q-41 0 -69 -30q-6 -7 -9 -11.5t-5 -10t-2.5 -12t-0.5 -16.5v-44t0.5 -58t1 -57t0.5 -42q0 -21 1.5 -32.5t7.5 -17t18.5 -7t35.5 -2.5
v-41q-27 1 -42.5 1.5t-25.5 1t-17.5 0.5h-17.5l-120 -3h-27v40l11 1q16 0 25.5 1t15 3t8 5.5t4.5 9.5q3 10 4 48t1 123q0 42 -0.5 69.5t-2 44t-4.5 24.5t-7 11q-3 2 -5 3t-7.5 1.5t-15 1t-27.5 1.5v38z" />
    <glyph glyph-name="n" unicode="n" horiz-adv-x="566" 
d="M20 422q55 6 93.5 15t76.5 25l13 -5q1 -13 1.5 -21.5t0.5 -16.5t0.5 -17t0.5 -24l65 59q15 14 33 19t52 5q70 0 106 -38q9 -10 15 -21.5t10 -26.5t5.5 -34.5t1.5 -46.5v-15v-19t-0.5 -19.5t-0.5 -16.5q-1 -42 -1.5 -68.5t-0.5 -31.5q0 -30 1 -46.5t6.5 -25t16 -11
t30.5 -3.5l11 -1v-39q-23 1 -38 1.5t-25.5 1t-18.5 0.5h-16q-20 0 -40 -0.5t-52 -2.5l-3 6q3 24 4.5 46.5t2.5 45t1.5 46t0.5 51.5q0 31 -0.5 53t-2 38.5t-4.5 28t-7 22.5q-8 19 -25.5 29.5t-40.5 10.5q-43 0 -70 -33q-11 -14 -14 -22.5t-3 -26.5l2 -193q1 -23 2.5 -35
t7.5 -18t19.5 -7.5t38.5 -2.5v-38q-15 0 -27 0.5t-24 0.5h-26h-32h-42.5h-35t-33 -0.5t-35.5 -1.5v39q33 1 42 2t14 5t6.5 12.5t2.5 33.5q0 7 0.5 24t1 36t0.5 36.5v24.5q0 49 -0.5 80t-1.5 49t-2.5 26t-4.5 11q-2 2 -5.5 3.5t-9.5 2.5t-16.5 1.5t-26.5 0.5v37z" />
    <glyph glyph-name="o" unicode="o" horiz-adv-x="512" 
d="M252 418q-89 0 -89 -164q0 -115 24.5 -169t75.5 -54q45 0 65.5 39.5t20.5 127.5q0 117 -23 168.5t-74 51.5zM260 466q115 0 168.5 -55.5t53.5 -173.5q0 -123 -61 -188.5t-175 -65.5q-216 0 -216 250q0 113 59 173t171 60z" />
    <glyph glyph-name="p" unicode="p" horiz-adv-x="558" 
d="M203 103q39 -48 92 -48q51 0 80 44.5t29 122.5q0 72 -29 115t-79 43q-22 0 -40.5 -8t-39.5 -26q-9 -8 -11 -10t-2 -4v-229zM10 426q28 3 51 6.5t44.5 8t41.5 10.5t42 14l13 -7l1 -78l70 60q16 14 33.5 19t49.5 5q39 0 70.5 -13.5t54 -38.5t35 -60.5t12.5 -78.5
q0 -42 -12.5 -83.5t-32.5 -67.5q-13 -16 -43 -41.5t-68 -53.5q-26 -19 -47 -27t-44 -8q-40 0 -79 18v-37q0 -56 0.5 -91t1.5 -55t3.5 -29t5.5 -13q5 -6 18.5 -8t48.5 -3v-39q-30 1 -50.5 1.5t-36 1t-29 0.5h-28.5h-30t-28.5 -0.5t-31 -1t-37.5 -1.5v39q37 1 47.5 3t14.5 8
q2 3 3.5 6.5t2 12t1 23.5t1.5 41q2 78 2.5 156t0.5 149q0 30 -0.5 62.5t-1 59.5t-1 46t-0.5 22q-2 9 -3.5 14.5t-8.5 7.5t-20 3t-37 1v37z" />
    <glyph glyph-name="q" unicode="q" horiz-adv-x="541" 
d="M353 348q-23 29 -46 41.5t-52 12.5q-50 0 -75.5 -40.5t-25.5 -118.5q0 -39 8 -71.5t23 -52.5q13 -19 34.5 -30.5t41.5 -11.5q50 0 92 58v213zM486 453q-5 -23 -7.5 -47t-4.5 -57t-2.5 -80t-0.5 -116v-120.5t0.5 -103t1 -76t1.5 -40.5q0 -12 2.5 -19t10 -10.5t21 -5.5
t36.5 -3v-40q-38 2 -63 3t-54 1h-27.5t-31 -1t-40.5 -2t-55 -2v40q35 2 46.5 3.5t17.5 3.5q4 2 7 5.5t4.5 12t2 24t0.5 42.5q1 40 1 72.5t1 58.5l1 81l-78 -64q-10 -9 -17 -14t-14 -7.5t-15.5 -3.5t-20.5 -1q-41 0 -74 15t-56 42.5t-36 66.5t-13 86t10 87t27 63
q12 17 40 37.5t68 42.5q35 18 62.5 27t52.5 9q61 0 126 -42l50 43z" />
    <glyph glyph-name="r" unicode="r" horiz-adv-x="381" 
d="M19 425q113 8 175 40l15 -7v-98q6 7 10.5 11.5t9.5 10t11 13t15 19.5q23 29 38.5 39t39.5 10q9 0 16 -1.5t18 -5.5q-2 -22 -3 -36t-1.5 -27t-1 -28t-0.5 -39l-22 -8q-20 34 -58 34q-26 0 -46.5 -14.5t-25.5 -35.5q-1 -5 -2 -15.5t-1.5 -31t-0.5 -52.5v-80
q0 -23 0.5 -37.5t2 -23t5 -12.5t8.5 -6q4 -2 8 -2.5t10.5 -1t18 -1t29.5 -1.5v-41q-39 1 -62 2t-37 1.5t-21 0.5h-14h-13t-23 -0.5t-39 -1.5t-61 -2v40q5 1 9 1h6q15 1 24.5 2t14.5 3t7 6t4 11q1 5 2 25t2 50.5t1.5 69.5t0.5 81q0 30 -0.5 47.5t-1.5 27t-3 13.5t-6 6
q-7 4 -17 5t-41 3v37z" />
    <glyph glyph-name="s" unicode="s" horiz-adv-x="426" 
d="M90 151q1 -5 1 -10v-7q0 -30 5 -45.5t19 -27.5q15 -14 36.5 -21t45.5 -7q40 0 63 18.5t23 50.5q0 37 -32 54l-11 5.5t-12 5t-19.5 6t-33.5 9.5q-34 10 -53 18.5t-33 19.5q-42 34 -42 95q0 69 50.5 109.5t137.5 40.5q35 0 65 -6.5t62 -20.5q-5 -23 -7 -50t-4 -71h-35
l-1 20q-1 23 -5 33.5t-15 21.5q-27 24 -70 24q-35 0 -55.5 -16t-20.5 -43q0 -28 20.5 -43t77.5 -29q41 -10 59.5 -16t35.5 -15q54 -30 54 -103q0 -37 -15.5 -68t-42.5 -53.5t-64.5 -35t-81.5 -12.5q-67 0 -149 33q2 10 3 20t2 24t1.5 36t0.5 56h40z" />
    <glyph glyph-name="t" unicode="t" horiz-adv-x="336" 
d="M20 380l63 33l-5 156q22 7 36 12t26.5 10t26 11.5t34.5 16.5l10 -11q-2 -18 -3 -34.5t-2 -37t-2 -48t-2 -68.5q13 -1 21.5 -1h19.5q26 0 43.5 1t35.5 4l7 -5l-16 -63q-20 1 -33 1.5t-24 1t-23.5 1t-31.5 0.5v-184q0 -34 2 -56t8 -34.5t16 -17t26 -4.5q14 0 26.5 4
t29.5 14l8 -19q-9 -11 -15.5 -18.5t-12 -14.5t-11.5 -15t-16 -20q-23 -8 -38 -10.5t-33 -2.5q-35 0 -63.5 15t-39.5 39q-6 14 -8.5 35.5t-1.5 59.5l4 226h-22h-17.5t-22.5 -2v25z" />
    <glyph glyph-name="u" unicode="u" horiz-adv-x="555" 
d="M545 -3q-28 2 -45.5 2.5t-37.5 0.5q-17 0 -36.5 -1t-56.5 -2l-5 9q1 13 2 21.5t1.5 16t1 16t0.5 21.5l-82 -71q-14 -11 -29.5 -16t-41.5 -5q-59 0 -97 29q-24 19 -34 47t-10 79v24.5t1 36.5v70q0 33 -0.5 53t-1.5 31t-3.5 15t-6.5 6q-6 4 -16 5t-41 1v38q36 4 60 8
t43.5 8t37.5 9.5t41 13.5l15 -10q-3 -56 -5 -122t-2 -129q0 -39 2.5 -57t9.5 -32q8 -16 24.5 -24.5t39.5 -8.5q35 0 61.5 19.5t30.5 48.5q2 12 3 42t1 74v44q-1 17 -1 29v17q0 11 -1 17t-6 9t-15.5 4t-28.5 2h-8.5t-14.5 1v38q27 1 48.5 3.5t41 7t40.5 11.5t48 18l13 -8
q-2 -28 -3.5 -52.5t-2 -50t-1 -54t-0.5 -65.5v-103t1 -55.5t3.5 -23.5t6.5 -8q6 -4 16.5 -5t39.5 -2v-41z" />
    <glyph glyph-name="v" unicode="v" horiz-adv-x="489" 
d="M197 -3q-6 17 -11 30.5t-9.5 25.5l-9 24t-10.5 26l-98 249q-8 21 -13.5 32.5t-12.5 17.5t-17.5 7.5t-28.5 2.5v41q40 -2 73 -3t71 -1h32t26.5 0.5t24.5 1.5t27 2v-40q-22 -1 -34 -1.5t-18 -2.5t-7.5 -5.5t-1.5 -9.5t2 -14.5t10 -28.5l80 -224l82 200q11 29 16 44.5
t5 23.5q0 10 -10.5 13t-50.5 5v39q21 -1 36 -1.5t26.5 -1t20 -0.5h17.5q20 0 39.5 0.5t48.5 2.5v-38q-19 -2 -29.5 -3.5t-17.5 -7t-13 -17t-15 -32.5q-59 -132 -97.5 -223.5t-53.5 -133.5h-79z" />
    <glyph glyph-name="w" unicode="w" horiz-adv-x="747" 
d="M162 -3q-9 36 -14.5 57t-9 34t-6 22.5t-5.5 21.5l-58 207q-5 13 -7.5 22t-4.5 15q-3 12 -6.5 18.5t-10 10t-19 5t-34.5 2.5v40q19 -1 34 -1.5t29 -1t27.5 -0.5h29.5h30.5t30 0.5t35 1t45.5 1.5v-39q-21 0 -33.5 -1t-19 -2.5t-8.5 -5t-2 -8.5v-4t1 -6t2.5 -11.5t4.5 -21.5
l50 -204l81 184q15 34 23.5 54t14 33t8.5 22.5t7 22.5h51q11 -29 18.5 -48.5t14 -35t12.5 -30.5t15 -35l73 -167l54 168q8 25 13 45t5 29q0 11 -10.5 15.5t-39.5 5.5h-6t-10 1v39q21 -1 35.5 -1.5t26.5 -0.5h23h25q26 0 43 0.5t41 2.5v-40q-20 -1 -31 -2.5t-18 -7t-12 -17
t-12 -32.5q-19 -53 -37 -105t-33 -98.5t-27.5 -86t-19.5 -67.5h-76l-127 302l-93 -213q-5 -14 -10.5 -27.5t-10.5 -27.5q-4 -8 -7 -17l-6 -17h-79z" />
    <glyph glyph-name="x" unicode="x" horiz-adv-x="499" 
d="M120 465q29 -4 50.5 -21.5t49.5 -59.5l56 -82l60 84q8 11 12.5 17.5t6.5 12t2.5 11t0.5 13.5l1 12q40 -3 63 -3q9 0 22.5 0.5t31.5 1.5v-39q-17 0 -27.5 -2t-20.5 -8t-21 -17.5t-28 -32.5l-77 -93l99 -149q26 -42 47 -57t51 -15v-39q-24 1 -42 1h-32q-13 0 -35 -0.5
t-51 -1.5q-17 13 -30 29.5t-34 51.5l-49 79l-67 -99q-12 -17 -15.5 -22.5t-5.5 -10.5q-4 -8 -4 -28q-31 2 -43 2h-20h-18.5t-35.5 -2v37q17 1 28 2.5t20.5 7t19 14.5t23.5 25l94 119q-41 61 -67 97t-46 54t-40 23t-49 6v33z" />
    <glyph glyph-name="y" unicode="y" horiz-adv-x="492" 
d="M19 -148q24 -17 44 -24.5t41 -7.5q17 0 30.5 6t26.5 22t27 44t33 73l-143 363q-15 40 -22.5 55t-14.5 21q-5 4 -16 6t-33 4v40q44 -2 75.5 -3t69.5 -1h24h23.5t28 0.5t38.5 1.5v-38q-21 -2 -33.5 -3t-18.5 -3t-7.5 -5.5t-1.5 -9.5q0 -4 0.5 -8t3.5 -13t9.5 -26.5
t17.5 -48.5l61 -171h4l69 176q10 25 16 40.5t9 25t4 15t1 10.5q0 11 -9.5 14.5t-38.5 5.5h-4.5t-6.5 1v38q25 -2 44 -2.5t47 -0.5q26 0 45 0.5t44 1.5v-37q-18 -2 -25 -4t-13 -4q-4 -3 -7 -6t-6.5 -9t-8.5 -17.5t-13 -30.5q-5 -11 -10 -24.5t-13 -30.5l-154 -362
q-13 -30 -23.5 -52.5t-20.5 -40t-19.5 -30.5t-20.5 -25q-47 -50 -127 -50q-19 0 -30.5 2t-27.5 8q4 19 7 32t5 24t3.5 23t4.5 31z" />
    <glyph glyph-name="z" unicode="z" horiz-adv-x="457" 
d="M443 152q-3 -27 -5 -44.5t-3 -30t-1.5 -23t-0.5 -25.5v-31q-14 -2 -23 -2.5t-24 -0.5h-5.5t-18 0.5t-45 1t-86.5 1.5q-50 1 -81.5 1.5t-44.5 0.5q-28 0 -49.5 -0.5t-48.5 -2.5v34q16 18 29 34t28 36t34.5 47t48.5 67q26 38 52.5 75t53.5 75l24 33q-12 1 -19 1h-10
q-46 0 -74 -0.5t-44 -1t-22 -2.5t-9 -5q-2 -2 -3 -4t-2.5 -9t-3 -21t-4.5 -40h-41q2 37 3 58t1 44v15t-1 22q19 -1 49 -2t64.5 -2t71.5 -1.5t70 -0.5q32 0 60.5 1t70.5 3v-35q-16 -22 -30.5 -42t-30 -41t-32.5 -43.5t-36 -49.5q-20 -27 -37 -51t-32.5 -46.5t-31.5 -45
t-33 -47.5q25 0 39.5 -0.5t24.5 -0.5h17h17q56 0 80 2t30 7t10.5 24t10.5 68h43z" />
    <glyph glyph-name="braceleft" unicode="{" horiz-adv-x="322" 
d="M303 -181q-57 0 -88.5 2.5t-53.5 7.5q-43 12 -63.5 45.5t-20.5 92.5q0 10 0.5 32.5t1 50.5t1 58.5t1.5 58.5q-1 44 -19 61.5t-63 17.5v44q45 0 63.5 18t18.5 62l-4 200q0 118 91 139q21 5 51.5 7t83.5 2v-40q-32 0 -52 -8t-34 -25q-8 -9 -12 -18t-6.5 -23.5t-3 -37
t-0.5 -59.5v-67q0 -36 -0.5 -58t-3 -35.5t-7 -22t-11.5 -17.5q-11 -14 -24.5 -22.5t-36.5 -16.5q26 -12 39.5 -20t21.5 -18q7 -9 11.5 -17.5t7 -22.5t3 -36t0.5 -58v-67q0 -37 1 -59.5t3 -37t6.5 -23.5t12.5 -18q26 -30 85 -33v-39z" />
    <glyph glyph-name="bar" unicode="|" horiz-adv-x="573" 
d="M319 667v-834h-64v834h64z" />
    <glyph glyph-name="braceright" unicode="}" horiz-adv-x="322" 
d="M19 718q57 0 88.5 -2.5t53.5 -8.5q84 -22 84 -137q0 -11 -0.5 -33t-1 -50t-1 -58.5t-1.5 -58.5q1 -45 19 -62.5t63 -16.5v-45q-45 0 -63.5 -17.5t-18.5 -61.5l4 -201q0 -60 -22 -93.5t-69 -44.5q-20 -5 -51 -7t-84 -2v39q32 1 52 8.5t34 24.5q7 9 11.5 18t7 23.5t3 37
t0.5 59.5v67q0 36 0.5 58t3 35.5t6.5 22t12 18.5q11 13 24.5 21.5t36.5 16.5q-26 12 -39.5 20.5t-21.5 18.5q-8 9 -12 17.5t-6.5 22t-3 35.5t-0.5 58v67q0 37 -1 59.5t-3 37t-7 23.5t-12 18q-27 32 -85 33v40z" />
    <glyph glyph-name="asciitilde" unicode="~" horiz-adv-x="502" 
d="M35 641q35 29 63.5 41.5t58.5 12.5q17 0 37.5 -5t53.5 -17q37 -13 55.5 -17.5t35.5 -4.5q29 0 54.5 12.5t53.5 40.5l14 -62q-60 -59 -128 -59q-19 0 -39.5 4.5t-56.5 17.5q-37 13 -55 17.5t-32 4.5q-49 0 -94 -42z" />
    <glyph glyph-name="uni00A0" unicode="&#xa0;" horiz-adv-x="250" 
 />
    <glyph glyph-name="currency" unicode="&#xa4;" horiz-adv-x="606" 
d="M302 505q-32 0 -60.5 -13t-49.5 -35t-33 -51.5t-12 -63.5t12 -64t33 -52t49.5 -35t60.5 -13q31 0 59 13t49 35t33.5 51.5t12.5 62.5q0 34 -12 64t-33 52.5t-49 35.5t-60 13zM31 577q-5 4 -5 8q0 3 5 8l19 18q6 6 8 6t8 -6l87 -86q34 26 68.5 38.5t77.5 12.5q85 0 151 -53
l89 89q6 6 8 6t8 -6l19 -19q5 -4 5 -8q0 -3 -5 -7l-89 -90q26 -35 38.5 -70t12.5 -75q0 -81 -52 -146l89 -90q5 -5 5 -7q0 -3 -5 -8l-19 -19q-5 -5 -8 -5t-8 5l-89 89q-66 -53 -150 -53q-42 0 -76.5 12t-67.5 38l-87 -87q-6 -5 -8 -5t-8 6l-19 19q-5 5 -5 8q0 2 5 7l87 87
q-26 33 -40.5 72t-14.5 77t13.5 76t39.5 71z" />
    <glyph glyph-name="brokenbar" unicode="&#xa6;" horiz-adv-x="500" 
d="M282 153v-320h-65v320h65zM282 667v-340h-65v340h65z" />
    <glyph glyph-name="section" unicode="&#xa7;" 
d="M153 406q-14 -17 -19 -28t-5 -26q0 -36 27 -59.5t97 -47.5q55 -19 70 -26l11 -5.5t18 -8.5q12 16 17 27.5t5 27.5q0 23 -11 38.5t-34 28.5l-18 9t-20.5 9t-33 13t-56.5 22q-20 8 -28.5 13t-19.5 13zM387 515q-3 34 -5 46.5t-6 22.5q-11 25 -38 40t-62 15q-41 0 -68 -22.5
t-27 -56.5q0 -39 40 -64q10 -6 30 -13.5t60 -21.5q77 -25 109.5 -55t32.5 -75q0 -34 -15.5 -66t-53.5 -74q37 -20 53 -46t16 -65q0 -41 -19.5 -78.5t-54.5 -66.5q-33 -27 -69.5 -39t-84.5 -12q-44 0 -78 7.5t-77 27.5q2 30 3 50t2 37t1 35v46l40 3q3 -17 6 -35t5.5 -33.5
t4.5 -26.5t2 -12q3 -5 13.5 -14.5t22.5 -16.5q34 -21 76 -21q48 0 78 26t30 68q0 18 -6 31t-22 25t-44 23.5t-71 26.5q-41 14 -70 29.5t-47 34t-26.5 41t-8.5 50.5q0 81 71 141q-30 31 -30 85q0 78 52 123t141 45q18 0 33 -1.5t30.5 -4.5t32 -8t36.5 -12l-2 -139h-36z" />
    <glyph glyph-name="copyright" unicode="&#xa9;" horiz-adv-x="767" 
d="M384 646q-64 0 -120 -24.5t-97.5 -67.5t-65.5 -100t-24 -123q0 -65 23 -120.5t68 -98.5q21 -21 46.5 -37.5t53.5 -28.5t56.5 -18.5t55.5 -6.5q60 0 117.5 24t101.5 67q91 88 91 220q0 65 -24 122.5t-65.5 100t-97.5 67t-119 24.5zM384 680q72 0 135 -27t110 -74.5
t74 -111t27 -135.5q0 -145 -102 -244q-50 -48 -115 -74.5t-133 -26.5q-31 0 -63.5 7t-64 20.5t-60.5 32.5t-53 42q-102 97 -102 242q0 73 27 136.5t74 110.5t110.5 74.5t135.5 27.5zM523 418l-1 36q-1 12 -2 15.5t-6 7.5q-17 15 -42.5 23.5t-55.5 8.5q-67 0 -106 -43.5
t-39 -118.5q0 -83 46 -131.5t124 -48.5q31 0 56 6.5t57 23.5l9 -8q-6 -11 -8 -16t-6 -16q-32 -18 -65 -26t-72 -8q-54 0 -98 15t-75 43t-48 68t-17 89q0 48 17 86.5t48.5 66t76 42t99.5 14.5q41 0 75.5 -7t76.5 -23q-4 -10 -6 -17.5t-3.5 -16t-2.5 -20t-2 -30.5v-6t-1 -9
h-29z" />
    <glyph glyph-name="guillemotleft" unicode="&#xab;" horiz-adv-x="446" 
d="M407 402q-20 -30 -46.5 -72t-61.5 -96q18 -30 31.5 -51t25 -40t23.5 -39t28 -47l-28 -21q-51 56 -95 99.5t-87 83.5v25q19 17 43 39.5t48.5 47l48.5 48.5t42 44zM250 403q-13 -21 -21 -34.5t-13.5 -22.5t-10 -16t-10.5 -16l-24 -40t-25 -40q32 -54 57 -96.5t47 -80.5
l-27 -20q-54 58 -97 100.5t-86 81.5v25q19 17 43 40t49 47t48.5 48t42.5 44z" />
    <glyph glyph-name="logicalnot" unicode="&#xac;" horiz-adv-x="597" 
d="M547 255v-286h-66v223h-447v63h513z" />
    <glyph glyph-name="uni00AD" unicode="&#xad;" horiz-adv-x="309" 
d="M0 184q6 12 10 23t7.5 22t6.5 24.5l7 31.5q23 -1 41.5 -1.5t35 -1t32.5 -0.5h33h32.5t29.5 0.5t31 1t36 1.5l7 -10q-5 -12 -9.5 -23t-8 -22t-7.5 -24.5t-8 -30.5q-22 1 -40 2t-33.5 1.5t-30.5 0.5h-32q-32 0 -61 -1t-73 -3z" />
    <glyph glyph-name="registered" unicode="&#xae;" horiz-adv-x="767" 
d="M384 646q-64 0 -120 -24.5t-97.5 -67.5t-65.5 -100t-24 -123q0 -65 23 -120.5t68 -98.5q21 -21 46.5 -37.5t53.5 -28.5t56.5 -18.5t55.5 -6.5q60 0 117.5 24t101.5 67q91 88 91 220q0 65 -24 122.5t-65.5 100t-97.5 67t-119 24.5zM384 680q72 0 135 -27t110 -74.5
t74 -111t27 -135.5q0 -145 -102 -244q-50 -48 -115 -74.5t-133 -26.5q-31 0 -63.5 7t-64 20.5t-60.5 32.5t-53 42q-102 97 -102 242q0 73 27 136.5t74 110.5t110.5 74.5t135.5 27.5zM355 350q5 -1 7 -1h5q33 0 54.5 22.5t21.5 57.5q0 71 -77 71q-8 0 -14.5 -0.5t-15.5 -2.5
q-1 -12 -1.5 -30t-1 -45.5t-0.5 -66v-90.5q0 -48 1.5 -70t5.5 -27q2 -3 8 -4.5t23 -2.5h10v-29q-22 2 -38 2.5t-43 0.5q-31 0 -54 -0.5t-50 -1.5v27q20 2 28 3t12 3q2 2 3.5 12.5t2.5 32.5t1.5 58t0.5 89q0 127 -8 140q-3 7 -29 8l-11 1v28q27 -2 40 -2h21q24 0 50.5 0.5
t59.5 1.5q14 1 26.5 1h22.5q30 0 46.5 -2.5t30.5 -9.5q20 -9 31.5 -29.5t11.5 -45.5q0 -36 -23.5 -63.5t-68.5 -42.5q23 -34 40.5 -61.5t31.5 -48.5q13 -22 22 -35.5t14.5 -20.5t9 -10t7.5 -4q5 -2 18 -2v-26h-56q-9 0 -22.5 -0.5t-33.5 -1.5q-4 7 -8 13.5t-8 14.5
q-11 17 -21.5 35t-21.5 38q-14 23 -28.5 45t-28.5 44l-9 15z" />
    <glyph glyph-name="degree" unicode="&#xb0;" horiz-adv-x="329" 
d="M165 616q-23 0 -39.5 -16.5t-16.5 -39.5t16 -39.5t39 -16.5t39.5 16.5t16.5 39.5t-16 39.5t-39 16.5zM165 677q24 0 45 -9.5t37 -25t25 -37t9 -45.5t-9 -45.5t-25 -37.5t-37.5 -25t-46.5 -9q-24 0 -44.5 9.5t-36.5 25t-25 37t-9 45.5t9 45.5t25 37t37.5 25t45.5 9.5z" />
    <glyph glyph-name="plusminus" unicode="&#xb1;" horiz-adv-x="628" 
d="M530 141v-88h-433v88h433zM266 436v164h95v-164h169v-88h-169v-165h-95v165h-169v88h169z" />
    <glyph glyph-name="uni00B5" unicode="&#xb5;" horiz-adv-x="640" 
d="M85 -187q3 68 5.5 117t4.5 85.5t3 62t1.5 46t0.5 39v39.5q0 14 -1.5 82t-3.5 191l98 9q-2 -27 -3.5 -66.5t-3 -79.5t-2.5 -74.5t-1 -52.5q0 -81 28 -118t90 -37q75 0 102 61q4 9 7 19.5t4.5 25t2 33.5t0.5 45q0 25 -0.5 58.5l-1 67t-1 63t-1.5 46.5l102 10
q-3 -29 -5.5 -71t-4.5 -86.5t-3 -86.5t-1 -70q0 -40 2.5 -62t8.5 -36q15 -35 55 -35q23 0 47 14l-3 -29q-46 -33 -99 -33q-88 0 -96 101q-43 -101 -146 -101q-35 0 -60 10t-45 33q1 -36 3 -64q1 -19 3 -55l5 -90z" />
    <glyph glyph-name="paragraph" unicode="&#xb6;" 
d="M502 629l-114 -10h-6q-5 -1 -6 -2.5t-1 -10.5v-629q0 -47 -4 -75t-15 -50q-14 -30 -45 -46.5t-75 -16.5q-55 0 -89.5 25.5t-34.5 66.5q0 30 20 50t50 20q26 0 43.5 -15.5t17.5 -39.5q0 -12 -3 -19.5t-16 -25.5q-3 -5 -3 -11q0 -10 9.5 -16.5t24.5 -6.5q18 0 35 9.5
t27 23.5q11 18 16 45t5 71v308h-22q-57 0 -108 14t-84 40q-34 26 -53 68.5t-19 91.5q0 83 46.5 128t132.5 45h271v-32z" />
    <glyph glyph-name="periodcentered" unicode="&#xb7;" horiz-adv-x="288" 
d="M144 313q30 0 51 -22.5t21 -54.5t-21.5 -54t-51.5 -22q-29 0 -50 22.5t-21 53.5q0 32 21 54.5t51 22.5z" />
    <glyph glyph-name="guillemotright" unicode="&#xbb;" horiz-adv-x="446" 
d="M40 57q13 21 22 35t15 24t10 16.5t9 14.5q12 18 25 38.5t26 40.5q-18 30 -31 51t-24.5 40t-23.5 39t-28 47l27 20q52 -55 95.5 -98.5t87.5 -83.5v-25q-19 -17 -43 -39.5t-49 -47t-48.5 -48.5t-42.5 -44zM197 57q18 31 44 73t59 96q-32 54 -57 96.5t-46 79.5l26 21
q55 -58 98 -100.5t86 -81.5v-25q-19 -17 -43 -40t-49 -47t-49 -48t-43 -44z" />
    <glyph glyph-name="florin" unicode="&#x192;" horiz-adv-x="396" 
d="M33 423h106l25 173q8 58 37 89q27 29 70.5 38t103.5 1v-76q-61 5 -87.5 -8t-32.5 -56l-23 -161h118v-70h-128l-54 -385q-9 -63 -40 -94q-23 -23 -58.5 -29t-84.5 0v74q37 -3 60 6.5t29 49.5l55 378h-96v70z" />
    <glyph glyph-name="afii10023" unicode="&#x401;" horiz-adv-x="555" 
d="M372 880q25 0 42 -17.5t17 -41.5t-17.5 -41.5t-42.5 -17.5q-23 0 -40.5 17.5t-17.5 41.5t17.5 41.5t41.5 17.5zM185 880q24 0 41.5 -17.5t17.5 -41.5q0 -25 -17.5 -42t-42.5 -17q-23 0 -40.5 17.5t-17.5 41.5t17 41.5t42 17.5zM44 22q39 17 46 28q2 3 3.5 24t2.5 56.5
t1.5 83t0.5 104.5q0 41 -0.5 88.5t-1 89.5t-1 71t-1.5 32q-3 17 -17.5 22.5t-59.5 7.5v41q34 -1 59 -2t43.5 -1.5t32.5 -0.5h27h28t42 1q23 0 42 0.5t38.5 0.5h43.5h57h50.5t41.5 -2q-7 -31 -11 -70.5t-4 -73.5h-38q0 21 -0.5 34t-1 20.5t-2 11t-3.5 6.5q-7 10 -36 14t-95 4
h-23h-18t-20.5 -0.5t-32.5 -0.5v-71l-1 -31l-2 -108v-27q18 -2 31.5 -2.5t35.5 -0.5h48t28 0.5t14.5 1.5t8.5 3q7 4 10 16t5 36v7.5t1 13.5h39q-1 -27 -1.5 -45t-1 -29.5t-0.5 -18v-12.5v-17t0.5 -21t1 -28.5t1.5 -41.5h-42q-1 8 -1 14v8q-1 31 -5 42.5t-15 14.5
q-9 3 -32.5 4.5t-55.5 1.5q-19 0 -33.5 -0.5t-35.5 -2.5q-1 -17 -1 -27v-15q0 -89 1 -139.5t3 -80.5q35 -2 53 -2h36q60 0 95.5 3t42.5 9q2 2 4 5.5t4.5 13.5t6.5 28t11 50h39q-3 -15 -5 -36.5t-4 -44.5t-3 -45t-1 -37q-29 -2 -47.5 -2.5t-40.5 -0.5q-6 0 -28 0.5t-55 1.5
l-167 1h-30t-27.5 -0.5t-32.5 -1t-45 -1.5v25z" />
    <glyph glyph-name="afii10051" unicode="&#x402;" horiz-adv-x="658" 
d="M111 37q21 1 34.5 2t21.5 2.5t12 3.5t7 5q3 4 5 14t3.5 32t2.5 59t1.5 94.5t0.5 138v189.5v30h-27q-48 0 -70.5 -2.5t-30.5 -7.5q-6 -4 -9 -17.5t-4 -44.5q-1 -2 -1 -10.5t-1 -17.5h-41q0 49 -2 93.5t-5 71.5q43 -3 77 -5.5t67 -3.5t68.5 -1.5t80.5 -0.5q46 0 84 0.5
t74.5 1.5t73.5 2.5t80 3.5q-3 -14 -5 -34t-4 -42t-3 -44.5t-1 -41.5h-41q-2 40 -3 55.5t-3 20.5q-2 9 -7.5 13.5t-26.5 6.5t-63.5 3t-118.5 1q1 -25 1 -47.5v-28.5v-48v-44.5t-0.5 -48.5t-1.5 -60l62 61q9 9 35 16t51 7q34 0 64 -12t47 -32q16 -20 23 -48t7 -75v-25t-1 -38
v-18.5t-1 -44.5q0 -48 -5 -87t-16 -70.5t-28.5 -57.5t-41.5 -50q-29 -29 -65 -45.5t-67 -16.5q-11 0 -26 4q1 14 1.5 25.5t0.5 19.5q0 7 -0.5 17.5t-1.5 24.5l12 6q17 -17 31.5 -24t31.5 -7q37 0 43 37q1 9 2.5 36.5t3 66.5t2 85.5t0.5 94.5q0 49 -3.5 73t-11.5 41
q-8 16 -25.5 25t-38.5 9q-24 0 -44 -11.5t-31 -32.5q-7 -11 -9 -25.5t-2 -42.5q0 -78 2 -118.5t7 -47.5q4 -5 16.5 -7t45.5 -4v-41q-46 2 -76 2.5t-64 0.5h-37.5t-33.5 -0.5t-37 -1.5t-47 -2v40z" />
    <glyph glyph-name="afii10052" unicode="&#x403;" horiz-adv-x="542" 
d="M221 743l110 108q16 16 27.5 26.5t20.5 16.5t17 8t16 2q18 0 29.5 -10.5t11.5 -26.5q0 -9 -2 -15t-9 -12t-20.5 -14t-36.5 -20l-118 -63h-46zM321 -3q-34 1 -58.5 1.5t-43.5 1t-34 0.5h-31h-32.5t-31 -0.5t-33.5 -1t-40 -1.5v40l10 1q33 2 44.5 4t16.5 7q4 5 6 19
t3.5 44.5t2 80.5t0.5 128l-1 268q0 12 -3 19t-11.5 11.5t-23.5 6.5t-40 3v41q34 -1 59 -2t43.5 -1.5t32.5 -0.5h27h27.5t42.5 1q23 0 41.5 0.5t38.5 0.5h44h57q31 0 49.5 -0.5t42.5 -1.5q-7 -31 -11.5 -70.5t-4.5 -73.5h-38v34t-1 20.5t-2 11t-3 6.5q-8 10 -36.5 14t-94.5 4
h-23.5h-17.5t-20.5 -0.5t-32.5 -0.5v-25v-19.5t-0.5 -22t-0.5 -33.5q-1 -64 -1.5 -103t-0.5 -60q0 -97 0.5 -153.5t1.5 -86.5t3 -41t5 -16q4 -7 17.5 -9.5t55.5 -4.5v-40z" />
    <glyph glyph-name="afii10053" unicode="&#x404;" horiz-adv-x="700" 
d="M598 531q-1 20 -3 26.5t-10 14.5q-28 26 -70 40.5t-90 14.5q-110 0 -171.5 -70.5t-65.5 -200.5q29 21 47 30t34 9q11 0 21 -2.5t31 -11.5q84 -35 118 -35q20 0 40 8t53 29v-43q-28 -26 -46.5 -42.5t-32 -26t-24 -13t-20.5 -3.5q-11 0 -27 5t-53 19q-39 15 -61.5 21
t-40.5 6q-9 0 -17 -1.5t-19 -4.5q6 -43 16 -73t27 -59q73 -122 230 -122q49 0 90.5 11t91.5 37l11 -11q-4 -8 -6.5 -13.5t-4.5 -11t-4.5 -11.5t-5.5 -15q-51 -29 -103 -41.5t-115 -12.5q-87 0 -157.5 25.5t-120 72t-76.5 112.5t-27 148q0 80 27 144.5t77.5 109.5t121.5 69.5
t160 24.5q66 0 121 -11.5t119 -37.5q-5 -16 -8.5 -28t-5.5 -26.5t-3.5 -34.5t-3.5 -51l-1 -21h-41z" />
    <glyph glyph-name="afii10054" unicode="&#x405;" horiz-adv-x="556" 
d="M95 195v-13l2 -52q0 -14 5 -23.5t16 -20.5q56 -51 135 -51q62 0 100 33.5t38 88.5q0 53 -34 81q-17 14 -43 23.5t-77 20.5q-56 11 -84 21t-48 25q-28 21 -44 57t-16 79q0 45 17.5 87t46.5 71q66 61 190 61q55 0 99 -9.5t86 -29.5q-10 -27 -14 -62t-4 -88h-39
q-1 35 -2.5 52.5t-6.5 26.5q-11 23 -46.5 39t-78.5 16q-58 0 -93.5 -30t-35.5 -80q0 -26 11 -47t31 -33q8 -5 16.5 -9t20 -7.5t28.5 -7.5t41 -10q37 -9 60.5 -14.5t38.5 -10t24.5 -9.5t20.5 -11q31 -18 47.5 -54.5t16.5 -84.5q0 -54 -20 -99t-57 -76.5t-88.5 -49
t-114.5 -17.5q-57 0 -104.5 12t-98.5 39q8 38 12 77.5t4 88.5h42z" />
    <glyph glyph-name="afii10055" unicode="&#x406;" horiz-adv-x="339" 
d="M17 37l10 1q21 1 33.5 2t19.5 3.5t9.5 7.5t4.5 13q3 14 4.5 101t1.5 253q0 95 -1.5 140.5t-5.5 53.5q-4 7 -16.5 10.5t-39.5 5.5h-7.5t-11.5 1v42q22 -2 42 -3t40.5 -2t44 -1h53.5h38.5t30.5 0.5t27 1.5t28 2v-40q-22 -2 -36 -3t-22.5 -3t-12.5 -4.5t-5 -5.5
q-3 -6 -4 -15t-1 -38q0 -6 -0.5 -23.5t-1 -41t-0.5 -49.5t-0.5 -48.5t-0.5 -39v-19.5q0 -96 0.5 -151t1.5 -83.5t3 -38.5t5 -15q4 -7 17.5 -9.5t55.5 -4.5v-40q-34 1 -58.5 1.5t-43.5 1t-34 0.5h-31q-35 0 -64 -1t-73 -2v40z" />
    <glyph glyph-name="afii10056" unicode="&#x407;" horiz-adv-x="339" 
d="M251 877q23 0 39.5 -16.5t16.5 -40.5q0 -23 -17 -39.5t-40 -16.5t-39.5 16.5t-16.5 39.5q0 24 16.5 40.5t40.5 16.5zM90 878q23 0 40 -17t17 -40t-17 -40t-41 -17q-23 0 -39.5 17t-16.5 40t17 40t40 17zM17 37l10 1q21 1 33.5 2t19.5 3.5t9.5 7.5t4.5 13q3 14 4.5 101
t1.5 253q0 95 -1.5 140.5t-5.5 53.5q-4 7 -16.5 10.5t-39.5 5.5h-7.5t-11.5 1v42q22 -2 42 -3t40.5 -2t44 -1h53.5h38.5t30.5 0.5t27 1.5t28 2v-40q-22 -2 -36 -3t-22.5 -3t-12.5 -4.5t-5 -5.5q-3 -6 -4 -15t-1 -38q0 -6 -0.5 -23.5t-1 -41t-0.5 -49.5t-0.5 -48.5t-0.5 -39
v-19.5q0 -96 0.5 -151t1.5 -83.5t3 -38.5t5 -15q4 -7 17.5 -9.5t55.5 -4.5v-40q-34 1 -58.5 1.5t-43.5 1t-34 0.5h-31q-35 0 -64 -1t-73 -2v40z" />
    <glyph glyph-name="afii10057" unicode="&#x408;" horiz-adv-x="345" 
d="M-6 -109q17 -17 31.5 -24t31.5 -7q36 0 42 37q5 23 6.5 105.5t1.5 229.5v151t-0.5 104t-1 66t-1.5 37t-2.5 18t-3.5 8q-5 7 -22 9.5t-63 4.5v40q23 -1 43 -2t39.5 -1.5t40.5 -0.5h46h41.5t35.5 0.5t33.5 1.5t35.5 2v-40q-21 -2 -33.5 -3t-20 -2t-11 -2.5t-7.5 -4.5
q-5 -5 -7 -18.5t-2 -50.5l-2 -356q0 -50 -0.5 -80.5t-1.5 -50.5t-3.5 -34t-6.5 -32q-13 -54 -49 -99.5t-91 -75.5q-47 -27 -85 -27q-11 0 -26 4q1 15 1.5 26t0.5 19q0 7 -0.5 17.5t-1.5 24.5z" />
    <glyph glyph-name="afii10058" unicode="&#x409;" horiz-adv-x="1044" 
d="M685 311v-23.5v-46t0.5 -57.5t0.5 -58.5t0.5 -47.5t0.5 -26q12 -2 21 -3t20 -1q141 0 141 152q0 74 -34 108t-108 34h-19.5t-22.5 -1v-30zM257 290q0 -93 -20.5 -154t-66.5 -105q-28 -27 -56.5 -39t-63.5 -12q-11 0 -18.5 1t-18.5 5q1 15 1.5 26t0.5 19t-0.5 18t-1.5 24
l19 13q16 -16 29.5 -22t30.5 -6q53 0 77 60q10 25 14.5 81.5t4.5 151.5q0 24 -0.5 62.5t-1.5 76.5t-1.5 67t-1.5 34q-1 10 -3 16.5t-8 10t-18 5.5t-32 4q-2 0 -8 0.5t-14 1.5v40q5 0 24 -1t45 -1.5t55.5 -1.5t55.5 -2t45 -1.5t25 -0.5q22 0 59 0.5t81 1t89.5 1.5t84.5 2
t67 2t36 2v-40q-23 -2 -37 -3.5t-22 -3t-12 -4t-6 -6.5q-2 -5 -3 -11t-1.5 -27t-1 -64t-0.5 -121q21 1 37.5 1h25.5q66 0 106 -5.5t69 -18.5q95 -44 95 -151q0 -57 -28 -104.5t-80 -79.5q-56 -34 -162 -34l-147 4h-17t-23.5 -1t-36 -2t-54.5 -2v40l13 1q22 2 34 3.5t18.5 4
t8.5 7.5t4 13q3 14 4.5 105t1.5 251v26.5t-0.5 25t-1.5 36t-3 58.5q-1 12 -4 20t-11 12t-22.5 5.5t-37.5 1.5q-79 0 -128.5 -1.5t-60.5 -3.5q-10 -2 -15.5 -5.5t-8 -20.5t-3 -53t-0.5 -102v-13v-118z" />
    <glyph glyph-name="afii10059" unicode="&#x40a;" horiz-adv-x="1018" 
d="M661 52q13 -2 22 -3t20 -1q141 0 141 152q0 74 -34 108t-108 34h-19.5t-22.5 -1q-1 -13 -1 -20.5v-9.5zM18 37q21 1 33.5 2t20 2.5t11 3t6.5 3.5q4 4 6.5 18t4 47.5t2 90.5t0.5 146q0 26 -0.5 61t-1.5 70t-1.5 64.5t-1.5 44.5q-1 11 -3.5 18t-9.5 11.5t-19.5 6t-32.5 2.5
h-15v41q19 -1 35 -2t31 -1.5t30 -0.5h34h43.5t41.5 1t43 2t48 3v-42q-25 -1 -40.5 -3t-23.5 -5t-11.5 -8.5t-4.5 -14.5t-1.5 -19.5t-1 -33t-0.5 -62.5v-106q26 -1 45.5 -1.5t35 -0.5h28h24.5h29.5t32 0.5t39.5 1t53 1.5q0 63 -1 107.5t-2.5 72.5t-3.5 41.5t-5 15.5
q-5 7 -21 10t-51 4v41q24 -1 44 -2t40 -1.5t41.5 -0.5h48.5h38.5t30.5 0.5t27.5 1.5t28.5 2v-40q-23 -2 -37 -3.5t-22 -3t-12 -4t-6 -6.5q-2 -5 -3 -11t-1.5 -27t-1 -64t-0.5 -121q20 1 37 1h26q66 0 106 -5.5t69 -18.5q95 -44 95 -151q0 -57 -28 -104.5t-80 -79.5
q-56 -34 -162 -34l-147 4h-17.5t-24 -1t-36 -2t-54.5 -2v40l13 1q21 1 33 2.5t18.5 4.5t9 7.5t4.5 13.5q3 40 6 252q-25 1 -43 1.5t-33 0.5h-29.5h-32.5h-39.5h-33t-34.5 -0.5t-42 -1.5v-30q0 -34 0.5 -66.5t1 -60.5t1 -50t1.5 -34q1 -13 4 -20.5t11 -11.5t23 -5.5t41 -2.5
v-40q-23 1 -41.5 2t-35 1.5t-32 0.5h-33.5h-25.5t-32 -0.5t-44 -1.5t-61.5 -2v40z" />
    <glyph glyph-name="afii10060" unicode="&#x40b;" horiz-adv-x="700" 
d="M111 37q21 1 34.5 2t21.5 2.5t12 3.5t7 5q3 4 5 14t3.5 32t2.5 59t1.5 94.5t0.5 138v189.5v30h-27q-48 0 -70.5 -2.5t-30.5 -7.5q-6 -4 -9 -17.5t-4 -44.5q-1 -2 -1 -10.5t-1 -17.5h-41q0 49 -2 93.5t-5 71.5q43 -3 77 -5.5t67 -3.5t68.5 -1.5t80.5 -0.5q46 0 84 0.5
t74.5 1.5t73.5 2.5t80 3.5q-3 -14 -5 -34t-4 -42t-3 -44.5t-1 -41.5h-41q-2 40 -3 55.5t-3 20.5q-2 9 -7.5 13.5t-26.5 6.5t-63.5 3t-118.5 1q1 -25 1 -47.5v-28.5v-48v-44.5t-0.5 -48.5t-1.5 -60l62 61q9 9 35 16t51 7q34 0 64 -12t47 -32t23.5 -48.5t6.5 -77.5v-24t-1 -29
q-1 -28 -1 -45.5v-25.5q0 -30 1 -46t7 -23.5t19 -9t37 -1.5v-42q-15 1 -26 1.5t-22.5 0.5h-24h-28.5q-28 0 -46 -0.5t-42 -2.5l-5 9q5 64 6.5 102t1.5 69q0 47 -3.5 73.5t-12.5 43.5q-8 16 -25.5 25t-38.5 9q-24 0 -44 -11.5t-31 -32.5q-7 -11 -9 -25.5t-2 -42.5
q0 -78 2 -118.5t7 -47.5q4 -5 16.5 -7t45.5 -4v-41q-46 2 -76 2.5t-64 0.5h-37.5t-33.5 -0.5t-37 -1.5t-47 -2v40z" />
    <glyph glyph-name="afii10061" unicode="&#x40c;" horiz-adv-x="704" 
d="M308 743l110 108q16 16 28 26t21 16t17 8.5t16 2.5q18 0 29.5 -10.5t11.5 -26.5q0 -9 -2 -15t-9 -12t-20.5 -14t-37.5 -20l-118 -63h-46zM237 299v-45q0 -32 0.5 -64t1 -58.5t1 -45t1.5 -23.5q3 -14 15.5 -18.5t54.5 -5.5v-43q-35 1 -59 2t-40.5 1.5t-28 0.5h-21.5h-27
t-29 -0.5t-37.5 -1.5t-51.5 -2v42q66 1 73 16q3 6 5.5 19.5t3.5 40t1.5 67.5t0.5 102q0 21 -0.5 60.5t-1 81t-1 77t-0.5 49.5q-1 28 -2.5 43.5t-9 22.5t-23.5 8.5t-46 1.5v40q27 -1 46.5 -1.5t35.5 -0.5h29h28h32.5t31 0.5t37.5 1t53 1.5v-39q-33 -3 -44 -5.5t-18 -7.5
q-3 -3 -5 -6.5t-3 -10.5t-1.5 -18t-0.5 -29q0 -9 -0.5 -16.5t-0.5 -16v-18.5v-25v-101v-33q36 32 88.5 84.5t126.5 131.5q21 21 33 35t19 24t9 17.5t2 16.5v7t-1 11q19 -1 32.5 -1.5t24 -1t19.5 -0.5h19q23 0 39 0.5t40 2.5v-40q-25 -2 -40 -4t-26 -6t-20.5 -10.5
t-22.5 -18.5q-21 -19 -49.5 -45t-58.5 -53.5t-57.5 -53.5t-47.5 -45q5 -6 11 -12.5t11 -12.5q28 -34 56 -67.5t56 -68.5l96 -111q20 -23 33 -37.5t21 -23t13 -12t9 -4.5q6 -2 13.5 -3t25.5 -2v-42q-27 1 -45.5 1.5t-30.5 1t-19.5 0.5h-14.5q-23 0 -40.5 -1t-41.5 -3
q-27 33 -135 171q-14 18 -28 34.5t-29 33.5t-32 36.5t-39 43.5z" />
    <glyph glyph-name="afii10062" unicode="&#x40e;" horiz-adv-x="649" 
d="M642 648q-9 -11 -15.5 -19t-14 -19.5t-18 -28.5t-27.5 -45q-25 -42 -48.5 -82t-49.5 -84q-13 -23 -22 -38t-19.5 -34.5t-26.5 -48.5t-44 -80q-29 -53 -51.5 -87.5t-44 -55t-43 -29t-46.5 -8.5q-19 0 -34.5 4t-41.5 16q4 16 6.5 27t4.5 20t4 19t5 26h21q11 -20 24 -28
t32 -8q28 0 53 28q14 16 29 36.5t24 37.5l26 46q-64 111 -103.5 177.5t-55.5 91.5q-27 42 -45 67.5t-32.5 39t-28 18t-31.5 4.5h-7t-9 -1v38q13 0 35 3t45.5 7.5t46 9.5t37.5 10q19 -6 38.5 -25t44.5 -58t57.5 -100.5t77.5 -153.5l22.5 45t23.5 46t36.5 70t61.5 116l27 52
h76v-22zM257 906q10 -45 36 -65.5t73 -20.5q90 0 109 86h33q-4 -74 -41.5 -114.5t-100.5 -40.5q-64 0 -101.5 41t-41.5 114h34z" />
    <glyph glyph-name="afii10145" unicode="&#x40f;" horiz-adv-x="764" 
d="M748 -3q-16 1 -30 1t-19 1q-68 3 -89 3q-60 0 -97.5 -5t-60 -19t-32.5 -39.5t-14 -66.5h-51q-5 42 -15 68t-34.5 40t-68 18.5t-113.5 4.5q-21 0 -44 -1t-63 -4v41l15 1q29 1 42.5 4t17.5 11q4 7 5 19.5t2 50.5q0 4 0.5 21t1 40t1 48.5t1 48t0.5 38.5v19q0 82 -0.5 134.5
t-2 83.5t-4.5 44t-7 17q-5 5 -18 7t-53 5v39q50 -1 77.5 -1.5t43 -1t25 -0.5h22.5h29t30 0.5t34.5 1t43.5 1.5v-39q-19 -1 -31 -1.5t-19.5 -2t-12 -4t-7.5 -5.5q-4 -5 -6.5 -17t-4 -37.5t-2 -68t-0.5 -108.5v-114.5v-78.5t0.5 -53.5t1.5 -38.5q1 -23 9.5 -30.5t34.5 -9.5
q6 0 25 -0.5t42.5 -1t47.5 -0.5h39q34 0 49 2t23 8q3 2 4.5 5t2.5 9t1.5 16t1.5 28q1 24 2 40t1.5 28.5t0.5 23.5v25q0 89 -0.5 154t-1 109t-2 68t-3.5 31q-2 6 -4.5 10t-8.5 6t-17.5 3.5t-32.5 3.5h-4.5t-8.5 1v40q41 -2 72 -3t73 -1h36.5t36 0.5t39.5 1t47 1.5v-40h-15
q-21 -1 -33 -2t-18.5 -4t-9 -9t-4.5 -15q-1 -8 -2 -29t-2 -53t-1.5 -73t-0.5 -87q0 -42 0.5 -91.5t1 -92.5t1 -73t1.5 -34q1 -9 4 -14t11 -8t24 -4.5t44 -2.5v-41z" />
    <glyph glyph-name="afii10017" unicode="&#x410;" horiz-adv-x="710" 
d="M214 259q17 -1 29 -1.5t22.5 -0.5h20h21.5h23.5h22t25 0.5t32.5 1.5l-105 247zM384 676l229 -556q11 -25 17 -38t7 -15q3 -8 7.5 -12.5t12 -7.5t19 -5t30.5 -3v-41q-30 1 -50 1.5t-36 0.5h-29h-28h-35t-31 -0.5t-36.5 -1t-51.5 -1.5v42l15 1l31 1q28 2 28 19q0 5 -2 12
t-7 21l-43 110l-23 1l-118 1h-20h-18t-23.5 -0.5t-36.5 -1.5l-34 -95q-5 -12 -7 -18.5t-3.5 -10.5t-1.5 -6.5v-6.5q0 -14 16 -19t61 -7v-42q-14 1 -25 1.5t-22 0.5h-24h-30h-38t-29 -0.5t-25 -1t-27 -1.5v44q46 1 56 10q9 5 38 74l217 551h70z" />
    <glyph glyph-name="afii10018" unicode="&#x411;" horiz-adv-x="602" 
d="M238 52q13 -2 21.5 -2.5t19.5 -0.5q142 0 142 151q0 74 -34 108t-108 34h-17.5t-24.5 -1q-1 -13 -1 -20.5v-9.5zM57 20q27 14 36 26t9 32v32.5t1 58.5q1 28 1 51v52q0 59 -0.5 117t-1 104.5t-1.5 76.5t-2 33q-4 14 -19 19t-57 7v41q34 -1 59 -2t43.5 -1.5t32 -0.5h25.5
h26.5t40.5 1q22 0 40.5 0.5t38.5 0.5h44.5h57.5q31 0 50 -0.5t42 -1.5q-7 -31 -11 -70.5t-5 -73.5h-37q0 21 -0.5 34t-1 20.5t-2 11t-3.5 6.5q-8 10 -36.5 14t-94.5 4h-23.5h-17.5t-20.5 -0.5t-32.5 -0.5v-21l-1 -101v-96q22 1 41 1.5t30 0.5q62 0 108 -11t81 -34
q33 -22 52.5 -60t19.5 -80q0 -53 -29 -100.5t-80 -77.5q-56 -34 -161 -34h-4t-13 0.5t-29 1t-52 1.5q-17 1 -28 1h-19q-17 0 -39 -1t-58 -4v23z" />
    <glyph glyph-name="afii10019" unicode="&#x412;" horiz-adv-x="608" 
d="M242 52q13 -2 21.5 -2.5t19.5 -0.5q142 0 142 151q0 74 -34 108t-108 34h-19.5t-22.5 -1q-1 -13 -1 -20.5v-9.5zM260 392q78 0 111.5 27.5t33.5 93.5q0 57 -25 82t-81 25q-14 0 -26 -1t-29 -4q-1 -23 -1.5 -41t-1 -34t-0.5 -31v-32v-85h19zM61 20q26 14 35.5 26t8.5 32
v29.5t1 61.5q0 11 0.5 21.5t0.5 24v31v43.5q0 82 -0.5 139t-1 94t-2 56.5t-3.5 27.5q-2 6 -5.5 10.5t-11.5 7t-22.5 4t-37.5 2.5v40q11 -1 17 -1h8l77 -2q9 -1 22 -1h30q32 0 61 0.5t72 2.5q18 1 33.5 1.5t24.5 0.5q89 0 135 -33.5t46 -98.5q0 -64 -40.5 -104t-126.5 -60
q21 -2 36 -4.5t27 -5t22.5 -6t21.5 -8.5q39 -17 61.5 -54.5t22.5 -85.5q0 -54 -29 -101.5t-80 -77.5q-56 -34 -161 -34h-4t-13 0.5t-29 1t-52 1.5q-17 1 -28 1h-19q-17 0 -39 -1t-58 -4v23z" />
    <glyph glyph-name="afii10020" unicode="&#x413;" horiz-adv-x="542" 
d="M321 -3q-34 1 -58.5 1.5t-43.5 1t-34 0.5h-31h-32.5t-31 -0.5t-33.5 -1t-40 -1.5v40l10 1q33 2 44.5 4t16.5 7q4 5 6 19t3.5 44.5t2 80.5t0.5 128l-1 268q0 12 -3 19t-11.5 11.5t-23.5 6.5t-40 3v41q34 -1 59 -2t43.5 -1.5t32.5 -0.5h27h27.5t42.5 1q23 0 41.5 0.5
t38.5 0.5h44h57q31 0 49.5 -0.5t42.5 -1.5q-7 -31 -11.5 -70.5t-4.5 -73.5h-38v34t-1 20.5t-2 11t-3 6.5q-8 10 -36.5 14t-94.5 4h-23.5h-17.5t-20.5 -0.5t-32.5 -0.5v-25v-19.5t-0.5 -22t-0.5 -33.5q-1 -64 -1.5 -103t-0.5 -60q0 -97 0.5 -153.5t1.5 -86.5t3 -41t5 -16
q4 -7 17.5 -9.5t55.5 -4.5v-40z" />
    <glyph glyph-name="afii10021" unicode="&#x414;" horiz-adv-x="774" 
d="M232 320q1 -49 -1.5 -86t-9.5 -67t-19 -55t-30 -50q53 -1 89.5 -1.5t62 -0.5h43.5h35q33 0 54 0.5t33 2t17.5 4t8.5 6.5t4.5 14.5t3 29.5t2.5 48t1 70q1 59 1 92v59q0 98 -3 149t-9 60q-9 13 -67 13q-77 0 -128 -1.5t-62 -3.5q-10 -2 -15.5 -6t-8 -19.5t-3 -48
t-0.5 -92.5v-29zM748 630q-40 -3 -54.5 -5t-20.5 -7q-3 -2 -4.5 -4.5t-2.5 -8.5t-1.5 -16.5t-0.5 -28.5q-1 -45 -1.5 -78t-0.5 -60.5v-54.5v-61q0 -27 0.5 -63.5t1 -70t1 -58.5t1.5 -28q1 -9 3.5 -14t11 -8t24 -4.5t43.5 -2.5q-3 -11 -7 -33t-7 -48t-5 -51t-2 -41v-12h-43
q-1 8 -1.5 15t-0.5 9q-2 35 -4 55t-8.5 30.5t-19.5 13.5t-35 5q-9 1 -35.5 1.5t-60 1.5t-69.5 1.5t-64 0.5q-20 0 -47 -0.5t-56.5 -1l-59 -1t-54.5 -1.5q-29 -1 -45.5 -3.5t-24.5 -13t-11 -31t-5 -57.5v-9t-1 -15h-44q1 4 1 7v5q0 16 -2 41t-5.5 51t-7.5 48t-7 33l16 1
q5 0 12 0.5t16 1.5l30 2q36 12 53 56q10 25 14.5 81t4.5 152q0 24 -0.5 62.5t-1.5 76.5t-1.5 67t-1.5 34q-1 10 -3 16.5t-8 10t-18 5.5t-32 4q-2 0 -8 0.5t-14 1.5v40q7 -1 28.5 -1.5t50.5 -1t62.5 -1.5t65 -1.5t57 -1t39.5 -0.5q24 0 49.5 0.5t65 1t100 2.5t155.5 5v-41z
" />
    <glyph glyph-name="afii10022" unicode="&#x415;" horiz-adv-x="555" 
d="M44 22q39 17 46 28q2 3 3.5 24t2.5 56.5t1.5 83t0.5 104.5q0 41 -0.5 88.5t-1 89.5t-1 71t-1.5 32q-3 17 -17.5 22.5t-59.5 7.5v41q34 -1 59 -2t43.5 -1.5t32.5 -0.5h27h28t42 1q23 0 42 0.5t38.5 0.5h43.5h57h50.5t41.5 -2q-7 -31 -11 -70.5t-4 -73.5h-38q0 21 -0.5 34
t-1 20.5t-2 11t-3.5 6.5q-7 10 -36 14t-95 4h-23h-18t-20.5 -0.5t-32.5 -0.5v-71l-1 -31l-2 -108v-27q18 -2 31.5 -2.5t35.5 -0.5h48t28 0.5t14.5 1.5t8.5 3q7 4 10 16t5 36v7.5t1 13.5h39q-1 -27 -1.5 -45t-1 -29.5t-0.5 -18v-12.5v-17t0.5 -21t1 -28.5t1.5 -41.5h-42
q-1 8 -1 14v8q-1 31 -5 42.5t-15 14.5q-9 3 -32.5 4.5t-55.5 1.5q-19 0 -33.5 -0.5t-35.5 -2.5q-1 -17 -1 -27v-15q0 -89 1 -139.5t3 -80.5q35 -2 53 -2h36q60 0 95.5 3t42.5 9q2 2 4 5.5t4.5 13.5t6.5 28t11 50h39q-3 -15 -5 -36.5t-4 -44.5t-3 -45t-1 -37
q-29 -2 -47.5 -2.5t-40.5 -0.5q-6 0 -28 0.5t-55 1.5l-167 1h-30t-27.5 -0.5t-32.5 -1t-45 -1.5v25z" />
    <glyph glyph-name="afii10024" unicode="&#x416;" horiz-adv-x="1164" 
d="M719 629q-33 -3 -44 -5.5t-18 -7.5q-4 -3 -6.5 -11t-3.5 -32t-1 -70.5v-125.5q1 -11 1 -19v-9v-17.5t-1 -17.5q19 16 50 45t65 61.5t65.5 64l51.5 51.5q27 28 43.5 46t25 30t11.5 21t3 18v7t-1 11q35 -2 55.5 -2.5t39.5 -0.5q22 0 38.5 0.5t40.5 2.5v-40q-25 -2 -39.5 -4
t-25 -5.5t-20 -10t-23.5 -18.5q-20 -18 -48.5 -44.5t-58.5 -54t-57.5 -53t-45.5 -43.5q5 -6 10 -12.5t10 -11.5l108 -138q23 -28 45.5 -56t45.5 -56q18 -23 30 -37t20 -22.5t14 -12.5t13 -6q8 -3 16 -3.5t29 -1.5v-42q-33 1 -51.5 1.5t-29 1t-16.5 0.5h-14q-22 0 -39 -1
t-42 -3q-30 42 -62 85t-64 88q-7 9 -13.5 17.5t-17.5 22.5t-30 38t-51 63l-80 -62v-70q0 -42 0.5 -67.5t2 -39t3.5 -18t6 -6.5q13 -8 62 -8v-43q-45 1 -69.5 2t-37.5 1.5t-19 0.5h-13h-14t-19 -0.5t-37 -1.5t-68 -2v43q51 0 63 9q3 2 5 7t3 19t1.5 38.5t0.5 65.5v70l-79 62
l-51 -63q-23 -29 -38 -48.5t-23 -29.5q-23 -32 -47 -64.5t-48 -65.5q-8 -11 -15.5 -21.5t-15.5 -21.5q-25 2 -42 3t-39 1h-13.5t-16 -0.5t-29.5 -1t-53 -1.5v42q17 0 27.5 1t18 3.5t13.5 6.5t14 12q20 23 35.5 41.5t30.5 36.5t31 38t37 47t49 62.5t66 84.5q8 9 12.5 15.5
t7.5 8.5q-19 18 -46.5 44.5t-57.5 54t-58.5 53.5t-47.5 43q-14 12 -23 18.5t-19.5 10t-25.5 5.5t-40 4v40q24 -2 40.5 -2.5t38.5 -0.5q19 0 39.5 0.5t55.5 2.5q-1 -8 -1 -12v-6q0 -15 6 -26t27 -35q11 -13 31.5 -34.5t46 -47t54 -53.5t56 -54.5t52 -49t41.5 -37.5v42
q-1 13 -1.5 24t-0.5 26t0.5 37t0.5 58q0 39 -0.5 61t-2 34t-4.5 16t-9 7q-7 4 -17 6t-39 4v39q37 -1 58.5 -1.5t35 -1t22.5 -0.5h21h20.5t21.5 0.5t34.5 1t60.5 1.5v-39z" />
    <glyph glyph-name="afii10025" unicode="&#x417;" horiz-adv-x="643" 
d="M43 500q1 22 2 36.5t2 27t1.5 26t1.5 35.5q30 16 58 26.5t56 17.5t59 10t67 3q66 0 115.5 -11.5t89.5 -35.5q44 -26 66.5 -61t22.5 -76q0 -32 -14.5 -60t-40.5 -48q-11 -9 -26 -16.5t-40 -16.5q32 -9 47.5 -15.5t29.5 -15.5q32 -20 50 -55t18 -75q0 -49 -23 -89
t-65 -68.5t-100.5 -44.5t-129.5 -16t-125 14.5t-107 49.5q-4 9 -6.5 15.5t-4.5 13.5t-4.5 16.5t-5.5 23.5l21 6q26 -22 50.5 -37.5t50 -25t53.5 -14t61 -4.5q82 0 130.5 39.5t48.5 106.5q0 60 -39.5 94.5t-109.5 34.5h-12t-16 -1l14 64q32 1 49 4.5t33 11.5q26 14 41 41.5
t15 58.5q0 58 -45.5 92.5t-122.5 34.5q-45 0 -80 -12t-57 -35q-12 -12 -20 -27t-19 -43h-40z" />
    <glyph glyph-name="afii10026" unicode="&#x418;" horiz-adv-x="764" 
d="M387 300q-27 -47 -49.5 -84t-43 -71t-42 -67.5t-46.5 -73.5q-19 -3 -31.5 -5.5t-23.5 -5t-23 -5.5t-30 -7q1 85 1.5 138t1 86.5t0.5 56v47.5q0 39 -0.5 81.5t-1 81t-1.5 70t-2 48.5q-1 11 -3.5 18t-9.5 11.5t-19.5 6t-32.5 2.5h-14v41q19 -1 35 -2t31 -1.5t30.5 -0.5
h33.5h44.5t41 1t42.5 2t48 3v-42q-36 -2 -52 -5t-22 -9q-3 -3 -5 -9.5t-2.5 -26.5t-1 -59t-0.5 -106v-58.5v-48.5t-0.5 -34.5t-0.5 -16.5v-58v-8.5t1 -13.5q16 23 28 40.5t25.5 39.5t31 52t45.5 79q13 22 30.5 52t40.5 68q8 13 16 27t18 32t23.5 43t32.5 60q26 -2 43.5 -2.5
t31.5 -0.5t41 0.5t71 2.5q5 1 11 1t19 1v-41q-41 -3 -55.5 -5.5t-20.5 -6.5q-3 -2 -4.5 -4.5t-2.5 -8.5t-1.5 -16.5t-0.5 -28.5q-1 -62 -1.5 -126.5t-0.5 -112.5q0 -72 0.5 -121.5t2 -80.5t3.5 -46.5t5 -20.5q3 -4 6 -6.5t10.5 -4t21 -2.5t37.5 -2v-40q-25 1 -45 2
t-38.5 1.5t-36.5 0.5h-39h-40t-34.5 -0.5t-33.5 -1.5t-37 -2v40l13 1q21 1 33 2.5t18 4.5t8.5 7.5t4.5 13.5q1 11 2 23t1.5 44t1 94.5t1.5 175.5q-1 45 -1 74.5v38.5v10t1 11z" />
    <glyph glyph-name="afii10027" unicode="&#x419;" horiz-adv-x="764" 
d="M285 906q20 -86 109 -86q47 0 73 20.5t36 65.5h34q-4 -74 -41.5 -114.5t-101.5 -40.5q-63 0 -100.5 41t-41.5 114h33zM387 300q-27 -47 -49.5 -84t-43 -71t-42 -67.5t-46.5 -73.5q-19 -3 -31.5 -5.5t-23.5 -5t-23 -5.5t-30 -7q1 85 1.5 138t1 86.5t0.5 56v47.5
q0 39 -0.5 81.5t-1 81t-1.5 70t-2 48.5q-1 11 -3.5 18t-9.5 11.5t-19.5 6t-32.5 2.5h-14v41q19 -1 35 -2t31 -1.5t30.5 -0.5h33.5h44.5t41 1t42.5 2t48 3v-42q-36 -2 -52 -5t-22 -9q-3 -3 -5 -9.5t-2.5 -26.5t-1 -59t-0.5 -106v-58.5v-48.5t-0.5 -34.5t-0.5 -16.5v-58v-8.5
t1 -13.5q16 23 28 40.5t25.5 39.5t31 52t45.5 79q13 22 30.5 52t40.5 68q8 13 16 27t18 32t23.5 43t32.5 60q26 -2 43.5 -2.5t31.5 -0.5t41 0.5t71 2.5q5 1 11 1t19 1v-41q-41 -3 -55.5 -5.5t-20.5 -6.5q-3 -2 -4.5 -4.5t-2.5 -8.5t-1.5 -16.5t-0.5 -28.5
q-1 -62 -1.5 -126.5t-0.5 -112.5q0 -72 0.5 -121.5t2 -80.5t3.5 -46.5t5 -20.5q3 -4 6 -6.5t10.5 -4t21 -2.5t37.5 -2v-40q-25 1 -45 2t-38.5 1.5t-36.5 0.5h-39h-40t-34.5 -0.5t-33.5 -1.5t-37 -2v40l13 1q21 1 33 2.5t18 4.5t8.5 7.5t4.5 13.5q1 11 2 23t1.5 44t1 94.5
t1.5 175.5q-1 45 -1 74.5v38.5v10t1 11z" />
    <glyph glyph-name="afii10028" unicode="&#x41a;" horiz-adv-x="704" 
d="M237 299v-45q0 -32 0.5 -64t1 -58.5t1 -45t1.5 -23.5q3 -14 15.5 -18.5t54.5 -5.5v-43q-35 1 -59 2t-40.5 1.5t-28 0.5h-21.5h-27t-29 -0.5t-37.5 -1.5t-51.5 -2v42q66 1 73 16q3 6 5.5 19.5t3.5 40t1.5 67.5t0.5 102q0 21 -0.5 60.5t-1 81t-1 77t-0.5 49.5
q-1 28 -2.5 43.5t-9 22.5t-23.5 8.5t-46 1.5v40q27 -1 46.5 -1.5t35.5 -0.5h29h28h32.5t31 0.5t37.5 1t53 1.5v-39q-33 -3 -44 -5.5t-18 -7.5q-3 -3 -5 -6.5t-3 -10.5t-1.5 -18t-0.5 -29q0 -9 -0.5 -16.5t-0.5 -16v-18.5v-25v-101v-33q36 32 88.5 84.5t126.5 131.5
q21 21 33 35t19 24t9 17.5t2 16.5v7t-1 11q19 -1 32.5 -1.5t24 -1t19.5 -0.5h19q23 0 39 0.5t40 2.5v-40q-25 -2 -40 -4t-26 -6t-20.5 -10.5t-22.5 -18.5q-21 -19 -49.5 -45t-58.5 -53.5t-57.5 -53.5t-47.5 -45q5 -6 11 -12.5t11 -12.5q28 -34 56 -67.5t56 -68.5l96 -111
q20 -23 33 -37.5t21 -23t13 -12t9 -4.5q6 -2 13.5 -3t25.5 -2v-42q-27 1 -45.5 1.5t-30.5 1t-19.5 0.5h-14.5q-23 0 -40.5 -1t-41.5 -3q-27 33 -135 171q-14 18 -28 34.5t-29 33.5t-32 36.5t-39 43.5z" />
    <glyph glyph-name="afii10029" unicode="&#x41b;" horiz-adv-x="783" 
d="M251 290q0 -93 -20.5 -154t-66.5 -105q-28 -27 -56.5 -39t-63.5 -12q-11 0 -18.5 1t-18.5 5q1 15 1.5 26t0.5 19t-0.5 18t-1.5 24l19 13q16 -16 29.5 -22t30.5 -6q53 0 77 60q10 25 14.5 81.5t4.5 151.5q0 24 -0.5 62.5t-1.5 76.5t-1.5 67t-1.5 34q-1 10 -3 16.5t-8 10
t-18 5.5t-32 4q-2 0 -8 0.5t-14 1.5v40q7 -1 26.5 -1.5t45 -1.5t54.5 -2t55.5 -1.5t46 -1t27.5 -0.5q78 0 181 2.5t237 7.5v-41q-40 -3 -54.5 -5t-20.5 -7q-3 -2 -4.5 -4.5t-2.5 -8.5t-1.5 -16.5t-0.5 -28.5q-1 -46 -1.5 -79t-0.5 -61v-54v-57q0 -216 8 -248q3 -14 14 -18
t49 -5l15 -1v-40q-26 1 -46.5 2t-39 1.5t-36.5 0.5h-37h-39t-34.5 -0.5t-33.5 -1.5t-38 -2v40l13 1q22 2 34 3.5t18 4t8 7.5t4 13q3 14 4.5 106t1.5 250q0 34 -1 63.5t-2.5 52t-3.5 37.5t-5 19q-5 7 -20.5 10t-47.5 3q-79 0 -128.5 -1.5t-60.5 -3.5q-10 -2 -15 -5.5
t-7.5 -20.5t-3 -53t-0.5 -102v-13v-118z" />
    <glyph glyph-name="afii10030" unicode="&#x41c;" horiz-adv-x="917" 
d="M405 -11q-96 214 -160 352.5t-101 210.5v-46q2 -85 3 -164.5t2 -154.5q1 -47 1.5 -74t3 -41t6 -19t10.5 -7q8 -3 20.5 -4.5t38.5 -2.5v-40q-16 1 -29 1.5t-26 0.5h-28.5h-35.5h-53t-47 -2v39q4 1 6.5 1h4.5q33 2 43.5 4t15.5 8q5 7 6.5 18.5t3.5 42.5q0 4 0.5 20.5
t1 39.5t1 49.5t1 50.5t0.5 41.5v23.5q0 96 -0.5 151t-2 83t-4.5 36.5t-8 12.5q-3 3 -7 4.5t-11.5 2.5t-19.5 1.5t-31 1.5v41q19 -1 34.5 -1.5t30.5 -1t31 -0.5h36h29.5t23.5 0.5t21.5 1t22.5 1.5q11 -28 20.5 -50t21 -48t28.5 -61.5t43 -90.5q18 -38 32.5 -68t27 -57
t24.5 -53t25 -56q16 31 36 73t42 88t44.5 94.5t42 91.5t35 79t24.5 58q24 -1 41 -1.5t31.5 -1t28 -0.5h30.5q28 0 46 0.5t42 2.5v-39q-37 -3 -53 -6.5t-19 -11.5q-5 -9 -7 -73t-2 -176q0 -153 2.5 -227.5t8.5 -84.5q4 -6 20 -9t50 -4v-42q-16 1 -30 1.5t-29 1t-32.5 0.5
h-39.5h-47.5t-40.5 -0.5t-37.5 -1t-39.5 -1.5v41h14q26 1 37 3.5t16 8.5q7 5 9 31.5t2 95.5v49.5t1 98.5v212q-8 -17 -16 -33t-16 -33q-38 -83 -76.5 -166.5t-77.5 -169.5l-22 -50q-6 -12 -10 -20.5t-8.5 -18.5t-10 -23.5t-14.5 -34.5h-31z" />
    <glyph glyph-name="afii10031" unicode="&#x41d;" horiz-adv-x="764" 
d="M18 37q21 1 33.5 2t20 2.5t11 3t6.5 3.5q4 4 6.5 18t4 47.5t2 90.5t0.5 146q0 26 -0.5 61t-1.5 70t-1.5 64.5t-1.5 44.5q-1 11 -3.5 18t-9.5 11.5t-19.5 6t-32.5 2.5h-15v41q19 -1 35 -2t31 -1.5t30 -0.5h34h43.5t41.5 1t43 2t48 3v-42q-25 -1 -40.5 -3t-23.5 -5
t-11.5 -8.5t-4.5 -14.5t-1.5 -19.5t-1 -33t-0.5 -62.5v-106q26 -1 45.5 -1.5t35 -0.5h28h24.5h29.5t32 0.5t39.5 1t53 1.5q0 63 -1 107t-2.5 71.5t-3.5 41.5t-5 17q-5 7 -21 10t-51 4v41q24 -1 42.5 -2t34.5 -1.5t30.5 -0.5h30.5h27.5t33.5 1t44.5 1.5t61.5 2.5v-41
q-39 -3 -54 -5t-22 -7q-3 -2 -4.5 -4.5t-2 -9t-1 -19.5t-0.5 -36q-1 -47 -1.5 -79t-0.5 -59v-53v-60q0 -109 1.5 -165.5t5.5 -71.5q2 -7 5 -11.5t9.5 -6.5t18 -3t30.5 -2l15 -1v-40q-28 1 -49 2t-39 1.5t-35.5 0.5h-36.5h-38.5t-34 -0.5t-33.5 -1.5t-38 -2v40l13 1
q21 1 33 2.5t18.5 4.5t9 7.5t4.5 13.5q2 20 3 83t2 169q-24 1 -42 1.5t-33 0.5h-29.5h-32.5h-39.5h-33t-34.5 -0.5t-42 -1.5v-30q0 -34 0.5 -66.5t1 -60.5t1 -50t1.5 -34q1 -13 4 -20.5t11 -11.5t23 -5.5t41 -2.5v-40q-23 1 -41.5 2t-35 1.5t-32 0.5h-33.5h-25.5t-32 -0.5
t-44 -1.5t-61.5 -2v40z" />
    <glyph glyph-name="afii10032" unicode="&#x41e;" horiz-adv-x="791" 
d="M391 630q-100 0 -151.5 -71.5t-51.5 -208.5q0 -152 55 -234t157 -82q100 0 152 74.5t52 217.5q0 148 -56 230q-50 74 -157 74zM409 685q78 0 137.5 -19t106.5 -61q102 -90 102 -254q0 -86 -25.5 -154.5t-73 -117.5t-115 -75t-151.5 -26q-171 0 -262 91t-91 262
q0 149 82 242q53 59 121.5 85.5t168.5 26.5z" />
    <glyph glyph-name="afii10033" unicode="&#x41f;" horiz-adv-x="764" 
d="M748 630q-40 -3 -54.5 -5t-21.5 -7q-3 -2 -4.5 -4.5t-2.5 -8.5t-1.5 -16.5t-0.5 -28.5q-1 -46 -1.5 -79t-0.5 -61v-54v-57q0 -216 8 -248q3 -14 14 -18t49 -5l15 -1v-40q-26 1 -46.5 2t-39 1.5t-36.5 0.5h-37q-42 0 -73 -1t-72 -3v40l13 1q22 2 34 3.5t18 4t8 7.5t4 13
q3 14 4.5 103t1.5 240q0 80 -3 128.5t-9 56.5q-5 8 -21.5 10.5t-53.5 2.5q-47 0 -79.5 -0.5t-54 -1.5t-33 -2.5t-16.5 -3.5q-4 -2 -6.5 -4.5t-4.5 -11.5t-3 -27.5t-1.5 -51.5t-0.5 -84v-125q0 -75 1 -134t3 -84q1 -13 4 -20.5t11 -11.5t23 -5.5t41 -2.5v-40q-28 1 -47 2
t-34 1.5t-28 0.5h-29h-22.5t-25.5 -0.5t-43.5 -1.5t-75.5 -2v40q40 2 53.5 4t18.5 7q4 4 6.5 17.5t4 44.5t2 83t0.5 132q0 28 -0.5 67t-1.5 77.5t-2 71.5t-2 49q-1 11 -3.5 18t-9.5 11.5t-19.5 6t-32.5 2.5h-15v41q9 -1 33.5 -1.5t57.5 -1.5t71.5 -2t75 -1.5t67.5 -1
t49 -0.5q15 0 42.5 0.5t61.5 1t72 2t75 2.5t70 2t56 2v-41z" />
    <glyph glyph-name="afii10034" unicode="&#x420;" horiz-adv-x="561" 
d="M17 37l14 1q36 2 46.5 6.5t14.5 18.5q1 6 2.5 32.5t2.5 69t1.5 97.5t0.5 118q0 117 -3 172t-10 63q-5 5 -18 8t-50 5v41q38 -2 59 -2.5t34.5 -1t23 -0.5h23.5h27t23 0.5t29 1t46 2.5q20 1 37.5 1.5t32.5 0.5q105 0 152.5 -35.5t47.5 -113.5q0 -45 -16.5 -83.5
t-45.5 -66.5t-68.5 -44t-86.5 -16q-15 0 -26 1.5t-28 6.5q-5 12 -7.5 17t-9.5 16l11 13q12 -5 20 -6.5t16 -1.5q44 0 71.5 36t27.5 93q0 131 -116 131q-17 0 -28 -1t-27 -5q-2 -21 -3 -37.5t-1.5 -39.5t-0.5 -58.5v-93.5q0 -62 0.5 -116.5t1.5 -97t2 -70.5t2 -35
q1 -8 5.5 -12.5t14 -7.5t26 -4.5t43.5 -2.5v-40q-18 1 -33 2t-29 1.5t-30 0.5h-37q-45 0 -87 -1t-97 -3v40z" />
    <glyph glyph-name="afii10035" unicode="&#x421;" horiz-adv-x="679" 
d="M600 474l-2 57q-1 20 -3 26.5t-10 14.5q-28 26 -70 40.5t-90 14.5q-55 0 -99 -19t-74.5 -55t-47 -87t-16.5 -114q0 -131 69 -215q38 -47 88 -69t119 -22q49 0 90.5 11t91.5 37l11 -11q-4 -8 -6.5 -13.5l-5 -11t-4.5 -11.5l-5 -15q-51 -28 -103 -41t-115 -13
q-87 0 -157.5 25.5t-120 72t-76.5 112.5t-27 148q0 80 27 144.5t77.5 109.5t121.5 69.5t160 24.5q33 0 62.5 -2.5t58 -8.5t58 -15.5t61.5 -22.5q-5 -16 -8.5 -28t-6 -26.5t-4 -34.5t-2.5 -51l-1 -21h-41z" />
    <glyph glyph-name="afii10036" unicode="&#x422;" horiz-adv-x="621" 
d="M152 37q21 1 34.5 2t21.5 2.5t12 3.5t7 5t5 14t3.5 34t2.5 61t1.5 95.5t0.5 137v185.5v30h-29q-37 0 -62 -0.5t-41 -1.5t-24.5 -3t-12.5 -5q-7 -5 -9.5 -18t-4.5 -44l-1 -28h-41v25q0 30 -2 67.5t-5 72.5q42 -3 76 -5.5t67 -3.5t68.5 -1.5t81.5 -0.5t84.5 0.5t75 1.5
t73 2.5t79.5 3.5q-3 -14 -5 -34t-4 -42t-3 -44.5t-1 -41.5h-40q-2 31 -3 48.5t-3 26t-5 11.5t-9 6q-9 3 -17 4t-24 2t-44 1.5t-76 0.5v-33l-2 -421q0 -56 2.5 -77.5t9.5 -26.5q3 -2 5.5 -3.5t9.5 -3t20 -2.5t36 -3v-40q-27 1 -47 2t-36.5 1.5t-32 0.5h-33.5h-33.5
t-33.5 -0.5t-40 -1.5t-52 -2v40z" />
    <glyph glyph-name="afii10037" unicode="&#x423;" horiz-adv-x="649" 
d="M642 648q-9 -11 -15.5 -19t-14 -19.5t-18 -28.5t-27.5 -45q-25 -42 -48.5 -82t-49.5 -84q-13 -23 -22 -38t-19.5 -34.5t-26.5 -48.5t-44 -80q-29 -53 -51.5 -87.5t-44 -55t-43 -29t-46.5 -8.5q-19 0 -34.5 4t-41.5 16q4 16 6.5 27t4.5 20t4 19t5 26h21q11 -20 24 -28
t32 -8q28 0 53 28q14 16 29 36.5t24 37.5l26 46q-64 111 -103.5 177.5t-55.5 91.5q-27 42 -45 67.5t-32.5 39t-28 18t-31.5 4.5h-7t-9 -1v38q13 0 35 3t45.5 7.5t46 9.5t37.5 10q19 -6 38.5 -25t44.5 -58t57.5 -100.5t77.5 -153.5l22.5 45t23.5 46t36.5 70t61.5 116l27 52
h76v-22z" />
    <glyph glyph-name="afii10038" unicode="&#x424;" horiz-adv-x="858" 
d="M498 568q-1 -51 -1.5 -92.5t-0.5 -82.5v-293v-9v-9q89 8 135 70.5t46 174.5q0 114 -45.5 179t-133.5 76v-14zM363 583q-35 -4 -59.5 -12.5t-44.5 -23.5q-38 -28 -58.5 -80.5t-20.5 -121.5q0 -114 47.5 -182t135.5 -80q0 7 0.5 28t0.5 51t0.5 66t0.5 71.5v68v56.5v61.5
v37.5t-0.5 27.5t-1.5 32.5zM362 639l-1 7q0 10 -2.5 16.5t-8.5 10t-18 5t-31 3.5l-19 1v42q22 -2 42 -3l40 -2t42.5 -1h51.5q42 0 67 1t55 3v-39q-40 -3 -54.5 -5.5t-19.5 -7.5q-7 -7 -7 -35v-4q60 -3 101 -12t78 -29q143 -77 143 -243q0 -86 -36.5 -153t-105.5 -109
q-38 -22 -80.5 -34.5t-100.5 -17.5q1 -17 3.5 -26t10 -14t23.5 -6.5t44 -2.5v-41q-42 1 -67 2t-41.5 1.5t-28.5 0.5h-27q-35 0 -63 -1t-71 -2v40h10q24 1 37.5 2.5t20.5 6.5t9 14t3 25q-80 5 -132.5 22t-92.5 49q-100 81 -100 224q0 88 37.5 153.5t112.5 105.5q35 20 76 30
t100 15v8z" />
    <glyph glyph-name="afii10039" unicode="&#x425;" horiz-adv-x="641" 
d="M7 40q16 1 25 1.5t14.5 1t8.5 1t7 2.5t7.5 4t8 7t11.5 14.5t20 26.5l162 214l-75 130q-27 46 -51.5 83.5t-40.5 57.5q-12 15 -25.5 21t-35.5 6h-9.5t-20.5 -1l-3 38l187 34q13 -10 22.5 -19t18.5 -21.5t19.5 -30t24.5 -44.5l73 -138l114 172q9 13 14.5 22t8 15.5
t3.5 11.5t1 12v6q22 -1 39 -1.5t28 -0.5t26.5 0.5t36.5 1.5v-37q-5 -1 -8 -1h-5q-24 -2 -34 -5.5t-23 -15.5q-2 -3 -6.5 -8.5t-10.5 -13.5q-8 -10 -16.5 -20t-16.5 -21l-126 -167l131 -233q8 -14 16.5 -29t16.5 -27.5t13.5 -21t7.5 -9.5q4 -5 8.5 -8.5t10.5 -5t15 -2.5
t23 -1l12 -1v-41q-42 1 -79 1.5t-57 0.5h-30.5t-32.5 -2q-19 34 -31 55t-17 30l-93 176l-95 -140q-34 -52 -47.5 -79t-12.5 -42q-28 1 -49.5 1.5t-35.5 0.5h-19.5t-27.5 -1v40z" />
    <glyph glyph-name="afii10040" unicode="&#x426;" horiz-adv-x="767" 
d="M732 630q-21 -1 -33 -2t-18.5 -4t-9 -9t-4.5 -15q-2 -8 -3 -28.5t-1.5 -51.5t-1 -71t-0.5 -86q0 -40 0.5 -86.5t1 -88t1 -70t1.5 -32.5q1 -9 3.5 -14t11 -8t24 -4.5t43.5 -2.5q-3 -11 -6.5 -33t-7 -48t-5.5 -51t-2 -41v-12h-43q-1 8 -1 15t-1 9q-2 36 -4 56.5t-9 31
t-21 13t-39 4.5q-9 1 -40.5 1.5t-70.5 1.5t-77.5 1.5t-62.5 0.5q-16 0 -45.5 -0.5t-64.5 -1t-72.5 -1.5t-69.5 -1.5t-56 -1.5t-32 -2v41l15 1q29 1 42.5 4t17.5 11q2 4 3 8t2 11.5t1.5 19t0.5 31.5q1 17 1.5 48.5t1 65.5t1 65.5t0.5 49.5q0 73 -0.5 122.5t-2 80t-4 45
t-6.5 17.5q-5 5 -18.5 7t-53.5 5v39q46 -1 72.5 -1.5t43 -1t27 -0.5h24.5h30.5t28 0.5t33 1t46.5 1.5v-39q-19 -1 -31 -1.5t-19.5 -2t-12 -4t-7.5 -5.5t-5 -8t-3 -13.5t-2 -22.5t-1 -35q0 -6 -0.5 -28.5t-1 -49t-0.5 -51.5v-37v-104.5v-75t0.5 -53t1.5 -38.5
q1 -23 9.5 -30.5t34.5 -9.5l158 -2q33 0 49 3t21 10q12 18 12 197q0 155 -1.5 239.5t-5.5 97.5q-2 6 -4.5 10t-8.5 6t-17.5 3.5t-32.5 3.5h-5t-8 1v40q43 -2 74.5 -3t70.5 -1h36.5t35.5 0.5t39 1t48 1.5v-40h-15z" />
    <glyph glyph-name="afii10041" unicode="&#x427;" horiz-adv-x="723" 
d="M418 38q21 1 33.5 2t19.5 3.5t9.5 7.5t4.5 13q1 8 2 18.5t2 27.5t1 41.5v60.5q-36 -5 -63.5 -6.5t-56.5 -1.5q-285 0 -285 213q0 5 0.5 34.5t1.5 77.5v13q0 27 -2 43t-8.5 25t-18.5 12t-32 5h-7t-12 1v41q41 -2 69.5 -3t62.5 -1h28.5t32.5 0.5t41 1t55 1.5v-40
q-20 -1 -32 -2t-19 -3t-10 -5t-5 -7q-3 -6 -5 -23t-4 -41.5t-3 -55.5t-1 -64q0 -162 186 -162q34 0 88 6q0 39 0.5 61t0.5 34.5v20.5v20q0 103 -1.5 150t-6.5 55q-3 7 -15.5 10.5t-40.5 5.5h-7.5t-11.5 1v42q22 -2 41.5 -3t40 -2t42.5 -1h51q42 0 67 1t55 3v-40
q-22 -2 -36 -3t-22.5 -3t-12.5 -4.5t-5 -5.5q-4 -9 -6 -89t-2 -236q0 -74 0.5 -118.5t1.5 -69t3 -34.5t5 -15q5 -7 18.5 -9.5t54.5 -4.5v-40q-41 1 -65.5 1.5t-41 1t-28.5 0.5h-29q-32 0 -60.5 -1t-72.5 -2v40z" />
    <glyph glyph-name="afii10042" unicode="&#x428;" horiz-adv-x="1095" 
d="M1079 -2q-23 1 -40 2t-41.5 1.5t-62.5 0.5h-102h-570h-100.5t-62.5 -0.5t-42.5 -1.5t-40.5 -2v41l15 1q29 1 42.5 4t17.5 11q2 4 3 8t2 11.5t1.5 19t0.5 31.5q1 15 1.5 45.5t1 64.5t1 64t0.5 43q0 80 -0.5 132t-2 83t-4 44.5t-6.5 17.5q-3 3 -7 4.5t-12 2.5t-20.5 2
t-32.5 3v39q46 -1 72.5 -1.5t43 -1t27 -0.5h24.5h30.5t28 0.5t33 1t46.5 1.5v-39q-19 -1 -31 -1.5t-19.5 -2t-12 -4t-7.5 -5.5t-5 -8t-3 -13.5t-2 -22.5t-1 -35q0 -6 -0.5 -28.5t-1 -49t-0.5 -51.5v-37v-161t1 -87.5t3 -38.5t6 -13q3 -4 11.5 -6.5t27 -4t48.5 -2t76 -0.5
q23 0 37.5 3.5t18.5 9.5q2 3 3.5 6t2 9.5t1.5 19t2 35.5q1 19 1.5 32t1 23t0.5 19.5v22.5v9.5v13.5t-0.5 26t-0.5 49v10v14t-0.5 23.5t-0.5 37.5q0 60 -0.5 96.5t-1.5 57t-3.5 29t-5.5 11.5t-6 5t-8.5 3t-16 2t-28.5 3h-4.5t-8.5 1v40q21 -1 39 -2t35 -1.5t34.5 -0.5h38.5
h38.5t33.5 0.5t37 1t49 1.5v-39q-19 -1 -31 -1.5t-19.5 -2t-12 -4t-7.5 -5.5t-5 -8t-3 -13.5t-2 -22.5t-1 -35q0 -6 -0.5 -28.5t-1 -49t-0.5 -51.5v-37v-161t1 -87.5t3 -38.5t6 -13q3 -4 11.5 -6.5t27 -4t48.5 -2t76 -0.5q23 0 37.5 3.5t18.5 9.5q12 18 12 194
q0 56 -0.5 108t-1 94.5t-1 74t-1.5 46.5q-2 26 -15 32q-6 3 -14 4t-38 4h-4.5t-8.5 1v40q41 -2 72 -3t73 -1h36t36 0.5t40 1t47 1.5v-40h-15q-20 -1 -32 -2t-19 -4t-9.5 -9t-4.5 -15q-2 -14 -3.5 -64t-1.5 -119q0 -62 0.5 -122t2 -109.5l2.5 -82.5t3 -39q3 -14 15.5 -18
t47.5 -6l14 -1v-41z" />
    <glyph glyph-name="afii10043" unicode="&#x429;" horiz-adv-x="1099" 
d="M1064 630q-21 -1 -33 -2t-18.5 -4.5t-9 -9t-4.5 -15.5q-1 -7 -2 -27.5t-2 -52t-1.5 -71t-0.5 -84.5q0 -39 0.5 -86t1 -88.5t1 -71t1.5 -33.5q1 -8 3.5 -13t11 -8t24 -4.5t43.5 -3.5q-3 -10 -6.5 -32t-7 -48t-5.5 -51t-2 -41v-12h-43q-1 8 -1 15t-1 9q-1 24 -2 39t-2.5 25
t-4 15.5t-6.5 9.5q-17 17 -81 17h-140h-295h-199.5t-125.5 -0.5t-72 -1t-39.5 -1t-28.5 -1.5v41h15q29 2 42.5 5t17.5 11q2 3 3 7t2 11.5t1.5 19.5t0.5 32q1 14 1.5 45t1 64.5t1 64t0.5 43.5q0 80 -0.5 132t-2 83t-4 44.5t-6.5 17.5q-3 3 -7 4.5t-12 2.5t-20.5 2t-32.5 3v39
q46 -1 72.5 -1.5t43 -1t27 -0.5h24.5h30.5t28 0.5t33 1t46.5 1.5v-39q-19 -1 -31 -1.5t-19.5 -2t-12 -4t-7.5 -5.5t-5 -8t-3 -13.5t-2 -22.5t-1 -35q0 -6 -0.5 -28.5t-1 -49t-0.5 -51.5v-37v-161t1 -87.5t3 -38.5t6 -13q3 -4 11.5 -6.5t27 -4t48.5 -2t76 -0.5q23 0 37.5 3.5
t18.5 9.5q2 3 3.5 6t2 9.5t1.5 19t2 35.5q1 19 1.5 32t1 23t0.5 19.5v22.5v9.5v13.5t-0.5 26t-0.5 49l-1 85q0 60 -0.5 96.5t-1.5 57t-3.5 29t-5.5 11.5t-6 5t-8.5 3t-16 2t-28.5 3h-5t-8 1v40q21 -1 39 -2t35 -1.5t34.5 -0.5h38.5h38.5t33.5 0.5t37 1t49 1.5v-39
q-19 -1 -31 -1.5t-19.5 -2t-12 -4t-7.5 -5.5t-5 -8t-3 -13.5t-2 -22.5t-1 -35q0 -6 -0.5 -28.5t-1 -49t-0.5 -51.5v-37v-161t1 -87.5t3 -38.5t5 -13t12 -6.5t27.5 -4t48.5 -2t76 -0.5q22 0 36.5 3.5t18.5 9.5q12 18 12 194q0 56 -0.5 107.5t-1 94t-1 74t-1.5 47.5
q-1 26 -15 32q-5 3 -13.5 4t-37.5 4h-5t-8 1v40q41 -2 72 -3t73 -1h36.5t36 0.5t39.5 1t47 1.5v-40h-15z" />
    <glyph glyph-name="afii10044" unicode="&#x42a;" horiz-adv-x="728" 
d="M369 311v-20v-42.5t0.5 -55.5t0.5 -58t0.5 -50.5t0.5 -32.5q13 -2 21 -2.5t20 -0.5q141 0 141 151q0 74 -34 108t-108 34h-19t-23 -1v-30zM28 488q0 42 -3.5 83t-11.5 95q24 2 39.5 2.5t35.5 0.5h10t26 -0.5t61 -1.5t116 -2h39h29.5t26.5 0.5t26 1.5t29 2v-40
q-23 -2 -37 -3t-22 -3t-12 -4.5t-6 -5.5q-2 -5 -3 -11t-1.5 -27.5t-1 -64.5t-0.5 -121q21 1 37 1h26q65 0 105.5 -5.5t69.5 -18.5q95 -42 95 -150q0 -58 -28 -105t-80 -79q-58 -34 -162 -34l-144 4q-17 0 -41.5 -1.5t-56.5 -3.5v23q27 14 36.5 26t8.5 32v28.5t1 61.5
q1 20 1 60.5v104.5q0 79 -0.5 128t-1 77.5t-2 40.5t-3.5 15q-11 17 -83 17q-60 0 -74 -23q-2 -3 -3 -9.5t-2 -17.5t-1 -29v-44h-38z" />
    <glyph glyph-name="afii10045" unicode="&#x42b;" horiz-adv-x="925" 
d="M604 37l10 1q21 1 33.5 2t19.5 3.5t9.5 7.5t4.5 13q3 14 4.5 101t1.5 253q0 95 -1.5 140.5t-5.5 53.5q-4 7 -16.5 10.5t-39.5 5.5h-7.5t-11.5 1v42q22 -2 42 -3t40.5 -2t44 -1h53.5h38.5t30.5 0.5t27 1.5t28 2v-40q-22 -2 -36 -3t-22.5 -3t-12.5 -4.5t-5 -5.5
q-3 -6 -4 -15t-1 -38q0 -6 -0.5 -23.5t-1 -41t-0.5 -49.5t-0.5 -48.5t-0.5 -39v-19.5q0 -96 0.5 -151t1.5 -83.5t3 -38.5t5 -15q4 -7 17.5 -9.5t55.5 -4.5v-40q-34 1 -58.5 1.5t-43.5 1t-34 0.5h-31q-35 0 -64 -1t-73 -2v40zM233 194v-68.5v-38t0.5 -20t0.5 -15.5
q13 -2 21 -2.5t20 -0.5q141 0 141 151q0 74 -34 108t-108 34h-19.5t-21.5 -1q-1 -13 -1 -20.5v-9.5zM52 20q37 19 43 36q1 4 2 20.5t2 49.5t1 84v125q0 84 -0.5 136t-1 82t-2 42t-3.5 17q-4 7 -16.5 10.5t-40.5 5.5h-7.5t-11.5 1v42q22 -2 41.5 -3t40 -2t42.5 -1h51
q41 0 66.5 1t55.5 3v-40q-23 -2 -37 -3t-22 -3t-12 -4.5t-6 -5.5q-2 -5 -3 -11t-1.5 -27.5t-1 -64.5t-0.5 -121q21 1 36.5 1h26.5q65 0 105.5 -5.5t69.5 -18.5q95 -42 95 -150q0 -58 -28 -105t-80 -79q-56 -34 -162 -34h-4t-13 0.5t-29 1t-52 1.5q-16 1 -27 1h-19
q-17 0 -39 -1t-59 -4v23z" />
    <glyph glyph-name="afii10046" unicode="&#x42c;" horiz-adv-x="591" 
d="M233 194v-68.5v-38t0.5 -20t0.5 -15.5q13 -2 21 -2.5t20 -0.5q141 0 141 151q0 74 -34 108t-108 34h-19.5t-21.5 -1q-1 -13 -1 -20.5v-9.5zM52 20q37 19 43 36q1 4 2 20.5t2 49.5t1 84v125q0 84 -0.5 136t-1 82t-2 42t-3.5 17q-4 7 -16.5 10.5t-40.5 5.5h-7.5t-11.5 1v42
q22 -2 41.5 -3t40 -2t42.5 -1h51q41 0 66.5 1t55.5 3v-40q-23 -2 -37 -3t-22 -3t-12 -4.5t-6 -5.5q-2 -5 -3 -11t-1.5 -27.5t-1 -64.5t-0.5 -121q21 1 36.5 1h26.5q65 0 105.5 -5.5t69.5 -18.5q95 -42 95 -150q0 -58 -28 -105t-80 -79q-56 -34 -162 -34h-4t-13 0.5t-29 1
t-52 1.5q-16 1 -27 1h-19q-17 0 -39 -1t-59 -4v23z" />
    <glyph glyph-name="afii10047" unicode="&#x42d;" horiz-adv-x="710" 
d="M63 117q26 -23 50.5 -38t50.5 -25t54.5 -14t62.5 -4q76 0 126.5 28.5t82.5 90.5q15 30 23 62.5t10 77.5q-30 -23 -48 -31.5t-34 -8.5q-11 0 -21 3t-31 11q-83 35 -118 35q-20 0 -40.5 -8.5t-52.5 -28.5v43q28 27 47 43.5t32.5 25.5t23 12.5t20.5 3.5t27 -5t53 -19
q40 -16 62 -21.5t42 -5.5q16 0 36 7q-13 125 -84 195t-184 70q-45 0 -80 -12t-57 -35q-12 -12 -20 -27t-19 -43h-40q1 22 2 36.5t2 27t1.5 26.5t1.5 35q31 16 58.5 27t56.5 17.5t60.5 9.5t69.5 3q89 0 153 -19.5t115 -62.5q57 -48 87 -118.5t30 -155.5q0 -79 -27 -143.5
t-77 -110t-120 -70t-157 -24.5q-70 0 -123.5 15t-106.5 49q-4 9 -6.5 15.5t-4.5 14t-4.5 16.5t-5.5 23z" />
    <glyph glyph-name="afii10048" unicode="&#x42e;" horiz-adv-x="1163" 
d="M763 630q-100 0 -151.5 -71.5t-51.5 -208.5q0 -152 55 -234t157 -82q100 0 152 74.5t52 217.5q0 148 -56 230q-50 74 -157 74zM411 375q5 51 16.5 86t32.5 70q48 78 126.5 116t193.5 38q82 0 146.5 -22.5t109 -65.5t68 -105t23.5 -140q0 -86 -25.5 -155.5t-73 -118
t-115.5 -74.5t-152 -26q-167 0 -258.5 89t-93.5 253h-48h-27.5t-26.5 -0.5t-30 -1t-37 -0.5v-29q0 -33 0.5 -65.5t1 -61t1 -51t1.5 -34.5q1 -13 4 -20.5t11 -11.5t23 -5.5t41 -2.5v-40q-47 2 -77 3t-64 1h-23t-25.5 -0.5t-42.5 -1.5t-73 -2v40q20 1 32.5 2t20.5 2.5t12 3
t6 3.5q4 4 7 19.5t4.5 47.5t2 82.5t0.5 125.5q0 23 -0.5 63t-1.5 81t-2 75.5t-2 47.5q-1 11 -3.5 18t-9.5 11.5t-19.5 6t-32.5 2.5h-15v41q19 -1 34.5 -2t30.5 -1.5t30.5 -0.5h33.5h46t41.5 1t42 2t47.5 3v-42q-25 -1 -40.5 -3t-23.5 -5t-11.5 -8.5t-4.5 -14.5
q-1 -1 -1.5 -11.5t-1 -27t-0.5 -38.5v-45v-99q43 -2 73.5 -2h65.5h32z" />
    <glyph glyph-name="afii10049" unicode="&#x42f;" horiz-adv-x="668" 
d="M388 317q-48 -75 -84 -130.5t-59 -93.5q-18 -29 -33 -52.5t-27 -42.5q-37 2 -55 3t-32 1h-8h-15t-26.5 -0.5t-41.5 -0.5v38q3 -1 5 -1q11 -1 19.5 2t18 11.5t21 24t27.5 41.5q58 89 98.5 150t55.5 83q-73 26 -111.5 71.5t-38.5 105.5q0 41 18.5 74.5t48.5 49.5
q11 5 23 8.5t26 6t32.5 3.5t42.5 1h20.5t22 -0.5t35.5 -1.5t60 -2l120 -1q14 0 36.5 0.5t64.5 2.5v-40q-6 -1 -10.5 -1h-6.5q-26 -2 -37.5 -5t-16.5 -10q-8 -11 -11 -69.5t-3 -173.5q0 -53 0.5 -102t1.5 -89t2 -68.5t2 -40.5q1 -9 4 -15t11 -9t23 -4.5t41 -2.5v-40
q-53 1 -91.5 2t-82.5 1h-38t-29.5 -0.5t-27.5 -1.5t-31 -2v41l13 1q28 2 38.5 4.5t15.5 7.5q6 9 8.5 49t2.5 132v142t-0.5 106t-1.5 76.5t-2 54.5q-17 3 -29.5 4t-24.5 1q-127 0 -127 -122q0 -62 36 -100.5t93 -38.5h9.5t12.5 2l7 -17z" />
    <glyph glyph-name="afii10065" unicode="&#x430;" horiz-adv-x="470" 
d="M278 237q-35 -8 -59 -17t-39 -21t-21.5 -27.5t-6.5 -35.5q0 -28 15 -45.5t38 -17.5q35 0 73 45v119zM77 335l3 61q32 22 53.5 36t39 21t34 9.5t38.5 2.5q42 0 75 -12t51 -35q15 -18 21.5 -46.5t6.5 -73.5v-13l-5 -165q0 -29 0.5 -44.5t5 -23t14.5 -9.5t28 -4l12 -1v-38
q-27 0 -41.5 0.5t-22.5 0.5h-12h-8q-25 0 -45 -0.5t-48 -2.5l-5 6l5 66q-6 -5 -19.5 -16t-33.5 -28q-8 -8 -15.5 -14t-13.5 -11q-8 -7 -18.5 -9t-36.5 -2q-54 0 -82 30.5t-28 88.5q0 36 10 61t37.5 43t75.5 32t124 29q0 2 0.5 2.5t0.5 1.5v1q1 17 -3.5 39t-11.5 32
q-12 20 -33 30.5t-47 10.5q-12 0 -20.5 -2t-20.5 -7l-30 -55z" />
    <glyph glyph-name="afii10066" unicode="&#x431;" horiz-adv-x="512" 
d="M252 418q-89 0 -89 -164q0 -115 24.5 -169t75.5 -54q45 0 65.5 39.5t20.5 127.5q0 117 -23 168.5t-74 51.5zM462 603q-30 -43 -53 -59t-54 -16q-10 0 -16.5 0.5t-16.5 2.5t-25.5 6.5t-43.5 13.5q-12 3 -23 5t-22 2q-26 0 -41 -21t-15 -58v-11t1 -13l1 -7q45 18 107 18
q113 0 167 -55.5t54 -173.5q0 -122 -61 -188t-173 -66q-218 0 -218 256q0 211 65 303q30 42 77 64.5t103 22.5q18 0 34 -2.5t35 -7.5q16 -4 23.5 -5.5t14.5 -1.5q13 0 24 4.5t28 17.5z" />
    <glyph glyph-name="afii10067" unicode="&#x432;" horiz-adv-x="463" 
d="M212 42q8 -2 13.5 -2h14.5q95 0 95 98q0 92 -95 92h-12t-17 -2v-19zM224 265h16q81 1 81 78q0 36 -17 52.5t-55 16.5q-10 0 -17.5 -0.5t-18.5 -2.5q-1 -15 -1.5 -26.5t-0.5 -21v-19v-20.5v-13v-10.5t0.5 -13.5t0.5 -20h12zM20 36q33 2 45.5 3.5t17.5 6.5q3 3 5 12t3 27.5
t1.5 49t0.5 76.5v29q0 46 -0.5 76t-1.5 49t-3 28t-5 12q-5 5 -17.5 6.5t-45.5 3.5v38q42 -1 89.5 -1.5t89.5 -0.5h27.5t31.5 1q14 1 24.5 1h15.5q66 0 101 -24t35 -69q0 -82 -112 -109q27 -3 41.5 -6t29.5 -10q26 -11 41.5 -36t15.5 -57q0 -36 -21 -68t-58 -52
q-43 -23 -118 -23h-12.5t-20.5 1q-13 1 -25 1h-19q-10 0 -31.5 -0.5t-45.5 -1t-46 -1t-33 -0.5v38z" />
    <glyph glyph-name="afii10068" unicode="&#x433;" horiz-adv-x="439" 
d="M279 -1h-23l-119 1h-22h-20.5t-28.5 -0.5t-46 -1.5v38q33 2 45.5 3.5t17.5 6.5q3 3 5 12t3 27.5t1.5 49t0.5 76.5v29q0 46 -0.5 76t-1.5 49t-3 28t-5 12q-5 5 -17.5 6.5t-45.5 3.5v38q20 -1 51 -1.5t67.5 -1t75 -0.5h72.5h54.5t77.5 1l15 -1q-3 -11 -6.5 -30.5t-6.5 -42
t-5 -44.5t-2 -38v-9l-38 1l-1 22q-2 33 -4.5 51.5t-10 28t-22.5 11.5t-42 2h-14q-9 0 -25.5 -0.5t-42.5 -1.5q0 -14 -0.5 -32.5t-1 -44t-0.5 -59.5v-80q0 -71 2 -101t7 -35t15 -6.5t44 -3.5v-39z" />
    <glyph glyph-name="afii10069" unicode="&#x434;" horiz-adv-x="601" 
d="M191 270q1 -25 1 -36.5v-25.5q0 -57 -8 -94t-25 -65q19 -1 36 -1.5t33.5 -1t34.5 -0.5h40q8 0 18.5 0.5t20 1t17.5 1.5t11 2q7 2 11 7t6 24.5t2.5 59t0.5 110.5q0 40 -0.5 64.5t-1.5 49.5q-1 11 -2.5 17.5t-6 10t-13 5t-23.5 2.5q-11 1 -18 1.5t-13.5 0.5h-15h-22.5
q-27 0 -48 -3t-26 -7q-9 -11 -9 -109v-14zM59 453q12 0 45 -0.5t70.5 -1t71.5 -1t49 -0.5q28 0 69.5 0.5t84 1t78.5 1t54 0.5v-38q-33 -2 -45.5 -3.5t-17.5 -6.5q-3 -3 -5 -12t-3 -28t-1.5 -49t-0.5 -76v-29q0 -41 0.5 -69.5t1.5 -46.5t3 -27t5 -12q5 -5 17.5 -6.5
t45.5 -2.5q-3 -10 -6.5 -30.5t-6.5 -44.5t-5 -47t-2 -38v-10h-41q-1 8 -1 14v8q-1 25 -2.5 40.5t-4.5 24.5t-8 14t-13 8q-10 4 -25 6.5t-38 4t-56 2t-78 0.5q-48 0 -82 -1t-57.5 -2.5t-38.5 -5t-24 -7.5q-12 -5 -16.5 -21t-6.5 -63v-8t-1 -14h-41v10q0 15 -2 38t-5 47
t-6.5 45t-6.5 30q30 1 46.5 1.5t25.5 1.5t13 2t9 3q12 6 18.5 19t8.5 37q1 8 1.5 26t1 39t1 43t0.5 38q0 130 -8 146q-4 6 -17 8t-48 4v38z" />
    <glyph glyph-name="afii10070" unicode="&#x435;" horiz-adv-x="463" 
d="M153 272q19 -1 33.5 -1h34.5h26h20.5t18.5 0.5t20 1.5q0 75 -17 106.5t-56 31.5t-57.5 -32t-22.5 -107zM421 75l-22 -46q-68 -46 -151 -46q-46 0 -86 14.5t-69 42.5q-63 60 -63 177q0 51 10 91.5t27 63.5q18 22 83 57q37 20 62 28t53 8q38 0 72.5 -15t55.5 -41
q19 -22 29.5 -57t10.5 -74q0 -5 -0.5 -15t-1.5 -22q-29 -6 -48 -9.5t-34 -5.5t-28.5 -2.5t-29.5 -0.5h-133q2 -74 41.5 -119t102.5 -45q61 0 105 31z" />
    <glyph glyph-name="afii10072" unicode="&#x436;" horiz-adv-x="934" 
d="M408 236v4q0 45 -0.5 75.5t-1.5 49.5t-3 28t-5 12q-5 5 -17.5 6.5t-45.5 3.5v38q23 -1 41 -1.5t33 -0.5h29h29h29h29t33 0.5t41 1.5v-38q-33 -2 -45.5 -3.5t-17.5 -6.5q-3 -3 -5 -12t-3 -28t-1.5 -49.5t-0.5 -75.5v-4v-10q22 18 39 32t36 30.5t43.5 38.5t60.5 55
q14 13 22.5 22.5t13.5 17.5t7 15t2 15q25 -1 40 -1.5t32 -0.5h29t40 2v-39q-8 -1 -14 -1h-8q-15 0 -25.5 -1.5t-19.5 -5.5t-18.5 -10.5t-22.5 -16.5l-123 -109l183 -184q16 -16 27.5 -25.5t21.5 -14.5t19.5 -6t22.5 -1v-40q-30 1 -55.5 1.5t-54.5 0.5h-32.5t-32.5 -1
q-54 63 -101 112t-92 90l-40 -36q1 -53 2 -76.5t3 -33.5q2 -11 14.5 -14.5t53.5 -4.5v-38q-22 1 -39.5 1.5t-32.5 0.5h-29.5h-30.5h-31h-29t-32.5 -0.5t-39.5 -1.5v38q22 1 35 2.5t20.5 3.5t10 6.5t3.5 11.5t1.5 15t1 20t1 29t0.5 41l-40 36q-45 -41 -92 -90t-101 -112
q-20 1 -32 1h-32q-23 0 -53 -0.5t-58 -1.5v40q13 0 22.5 1t19.5 6t21 14.5t28 25.5l183 184l-123 109q-13 10 -22.5 16.5t-18.5 10.5t-19.5 5.5t-25.5 1.5h-8t-14 1v39q25 -2 40 -2h29q17 0 32 0.5t40 1.5q0 -8 2 -15t7 -15t13.5 -17.5t22.5 -22.5q36 -33 60.5 -55
t43.5 -38.5t36 -30.5t39 -32v10z" />
    <glyph glyph-name="afii10073" unicode="&#x437;" horiz-adv-x="430" 
d="M154 262q5 -1 7 -1h4q94 0 94 66q0 36 -25 58t-66 22q-34 0 -60 -11t-58 -40q-1 13 -1.5 21t-1 15t-1 13t-1.5 14q36 26 70.5 36.5t80.5 10.5q86 0 137.5 -35.5t51.5 -93.5q0 -74 -80 -104q49 -21 69 -45.5t20 -64.5q0 -63 -52 -101t-138 -38q-45 0 -78 8t-70 28l-19 49
l9 11q33 -21 57 -29t53 -8q45 0 71 21.5t26 59.5q0 39 -23.5 60t-66.5 21h-12.5t-14.5 -1z" />
    <glyph glyph-name="afii10074" unicode="&#x438;" horiz-adv-x="604" 
d="M392 341q-48 -74 -82.5 -128t-59.5 -93.5t-41 -67.5l-28 -49q-20 -2 -32.5 -3t-22.5 -2t-19.5 -2.5t-22.5 -4.5l-3 7q0 18 0.5 30t0.5 22.5t0.5 21.5t0.5 27v118v31q0 42 -0.5 71t-1.5 47t-3 27t-5 12q-5 5 -17.5 6.5t-45.5 3.5v38q32 -1 49.5 -1.5t28.5 -0.5h19h20
l119 1h23v-39q-20 -1 -32 -2t-18.5 -3.5t-9 -7t-3.5 -11.5q-1 -12 -1.5 -22t-1 -29.5t-0.5 -53.5v-93q-1 -24 -1 -32v-20q22 32 36 51.5t28 41t32.5 51t51.5 82.5q14 22 26.5 43t26.5 42q38 1 62.5 1h37.5q11 0 19.5 0.5t16.5 0.5t18.5 0.5t26.5 0.5v-38q-33 -2 -45.5 -3.5
t-17.5 -6.5q-3 -3 -5 -12t-3 -28t-1.5 -49t-0.5 -76v-29q0 -46 0.5 -76.5t1.5 -49t3 -27.5t5 -12q5 -5 17.5 -6.5t45.5 -3.5v-38q-31 1 -48 1.5t-28 0.5h-19.5h-21.5l-119 -1h-23v39q21 1 33 2t18.5 3.5t9 7t3.5 12.5q1 18 2 31.5t1.5 34.5t0.5 56v97v35t-1 14v10z" />
    <glyph glyph-name="afii10075" unicode="&#x439;" horiz-adv-x="604" 
d="M209 689q19 -85 109 -85t109 85h33q-4 -73 -41.5 -113.5t-100.5 -40.5q-64 0 -101.5 40.5t-40.5 113.5h33zM392 341q-48 -74 -82.5 -128t-59.5 -93.5t-41 -67.5l-28 -49q-20 -2 -32.5 -3t-22.5 -2t-19.5 -2.5t-22.5 -4.5l-3 7q0 18 0.5 30t0.5 22.5t0.5 21.5t0.5 27v118
v31q0 42 -0.5 71t-1.5 47t-3 27t-5 12q-5 5 -17.5 6.5t-45.5 3.5v38q32 -1 49.5 -1.5t28.5 -0.5h19h20l119 1h23v-39q-20 -1 -32 -2t-18.5 -3.5t-9 -7t-3.5 -11.5q-1 -12 -1.5 -22t-1 -29.5t-0.5 -53.5v-93q-1 -24 -1 -32v-20q22 32 36 51.5t28 41t32.5 51t51.5 82.5
q14 22 26.5 43t26.5 42q38 1 62.5 1h37.5q11 0 19.5 0.5t16.5 0.5t18.5 0.5t26.5 0.5v-38q-33 -2 -45.5 -3.5t-17.5 -6.5q-3 -3 -5 -12t-3 -28t-1.5 -49t-0.5 -76v-29q0 -46 0.5 -76.5t1.5 -49t3 -27.5t5 -12q5 -5 17.5 -6.5t45.5 -3.5v-38q-31 1 -48 1.5t-28 0.5h-19.5
h-21.5l-119 -1h-23v39q21 1 33 2t18.5 3.5t9 7t3.5 12.5q1 18 2 31.5t1.5 34.5t0.5 56v97v35t-1 14v10z" />
    <glyph glyph-name="afii10076" unicode="&#x43a;" horiz-adv-x="593" 
d="M213 459q-1 -52 -1.5 -85t-0.5 -55v-38v-34q58 49 97 84t62.5 59.5t32.5 39t6 22.5q25 -1 40 -1.5t32 -0.5h29t40 2v-39l-22 -1q-15 0 -25.5 -1.5t-19.5 -5.5t-18.5 -10.5t-22.5 -16.5l-122 -109l182 -184q16 -16 27.5 -25.5t21.5 -14.5t19.5 -6t22.5 -1v-40
q-28 1 -58 1.5t-53 0.5h-32t-32 -1q-59 66 -109 117t-98 94l1 -89q0 -30 1.5 -46t6 -24t14 -10t26.5 -3h19v-39q-30 1 -49 1.5t-31.5 0.5h-21.5h-21h-22.5t-23 -0.5t-34 -1t-54.5 -1.5v40q32 0 43 1t17 6q5 3 6.5 11.5t2.5 31.5l2 225q0 60 -7 66q-3 2 -5 3.5t-8.5 2
t-18.5 1.5t-34 2v40q63 5 106.5 15t70.5 24z" />
    <glyph glyph-name="afii10077" unicode="&#x43b;" horiz-adv-x="593" 
d="M573 415q-33 -2 -45.5 -3.5t-17.5 -6.5q-3 -3 -5 -12t-3 -28t-1.5 -49t-0.5 -76v-29q0 -46 0.5 -76.5t1.5 -49t3 -27.5t5 -12q5 -5 17.5 -6.5t45.5 -3.5v-38q-31 1 -48 1.5t-28 0.5h-19.5h-21.5l-119 -1h-23v39q32 2 43 3.5t16 6.5t7 35t2 102q0 75 -0.5 117t-2.5 62
t-6 25.5t-11 7.5q-9 2 -33 3.5t-59 1.5q-30 0 -51.5 -2.5t-26.5 -7.5q-9 -11 -9 -108v-4.5v-9.5t0.5 -21t0.5 -40q0 -11 -0.5 -26t-2 -30t-3.5 -28.5t-4 -22.5q-6 -26 -22 -50.5t-41 -44.5q-15 -13 -26.5 -17t-32.5 -4q-9 0 -16 0.5t-17 2.5v19q0 20 -12 59l26 5
q19 -18 41 -18q28 0 40 30q5 11 7.5 58t2.5 116q0 74 -2.5 108t-7.5 39t-17.5 6.5t-45.5 3.5v38q14 0 22.5 -0.5t17.5 -0.5t22 -0.5t36 -0.5h21h14.5t15 -0.5t23.5 -0.5l58 -1h37t53 0.5t60.5 1t59.5 1t50 1t32 0.5v-38z" />
    <glyph glyph-name="afii10078" unicode="&#x43c;" horiz-adv-x="720" 
d="M314 -7q-58 126 -102 219t-67 135v-25q1 -35 1.5 -76t0.5 -89q1 -39 1.5 -61.5t2.5 -33.5t5 -15t9 -5q6 -2 19 -3.5t36 -2.5v-38q-15 1 -27.5 1t-17.5 1q-23 1 -35 1h-23l-74 -2h-18v39q33 2 44 3.5t15 6.5q5 5 7.5 34t2.5 95v93.5t-1 64.5t-2 40.5t-3 20.5t-4.5 9t-10 5
t-20 3t-33.5 2v38q9 0 34.5 -0.5t54 -1t53.5 -1t35 -0.5q6 0 21 3q7 -18 13.5 -31.5t14.5 -30t19 -38.5l28 -56q13 -25 22.5 -44.5t17.5 -36t15.5 -32.5t16.5 -34q13 27 32.5 70t39 87.5t36 84t24.5 59.5q11 -1 17.5 -1h10.5q12 0 36 0.5t51 1t51.5 1t36.5 0.5v-38
q-33 -2 -45.5 -3.5t-17.5 -6.5q-3 -3 -5 -12t-3 -28t-1.5 -49t-0.5 -76v-29q0 -46 0.5 -76.5t1.5 -49t3 -27.5t5 -12q5 -5 17.5 -6.5t45.5 -3.5v-38q-32 1 -50 1.5t-29 0.5h-17.5h-14.5l-148 -1v39q32 2 43 3.5t16 6.5q10 10 10 124v15t-1 27l-1 94v12.5v8t-0.5 8t-0.5 11.5
q-45 -97 -85 -185.5t-76 -169.5h-32z" />
    <glyph glyph-name="afii10079" unicode="&#x43d;" horiz-adv-x="614" 
d="M211 256q29 -2 45 -2h36h23.5h21.5t26.5 0.5t39.5 1.5v11v11q0 33 -0.5 56t-1.5 37.5t-2.5 22t-4.5 10.5q-5 5 -16 6t-43 3v39h23l119 -1h20h19t28.5 0.5t49.5 1.5v-38q-33 -2 -45.5 -3.5t-17.5 -6.5q-3 -3 -5 -12t-3 -28t-1.5 -49t-0.5 -76v-29q0 -46 0.5 -76.5t1.5 -49
t3 -27.5t5 -12q5 -5 17.5 -6.5t45.5 -3.5v-38q-31 1 -48 1.5t-28 0.5h-19.5h-21.5l-119 -1h-23v39q23 1 35.5 2t19 4.5t8 10.5t2.5 19q3 49 3 132q-26 0 -42 0.5t-28 0.5h-22h-23h-41t-36 -1q0 -81 3 -132q1 -12 2.5 -19t8 -10.5t19 -4.5t35.5 -2v-39h-23l-119 1h-21.5
h-19.5t-28 -0.5t-48 -1.5v38q33 2 45.5 3.5t17.5 6.5q3 3 5 12t3 27.5t1.5 49t0.5 76.5v29q0 46 -0.5 76t-1.5 49t-3 28t-5 12q-5 5 -17.5 6.5t-45.5 3.5v38q32 -1 49.5 -1.5t28.5 -0.5h19h20l119 1h23v-39q-32 -2 -43 -3t-16 -6q-3 -3 -4.5 -10.5t-2.5 -22t-1.5 -37.5
t-0.5 -56v-11v-11z" />
    <glyph glyph-name="afii10080" unicode="&#x43e;" horiz-adv-x="512" 
d="M252 418q-89 0 -89 -164q0 -115 24.5 -169t75.5 -54q45 0 65.5 39.5t20.5 127.5q0 117 -23 168.5t-74 51.5zM260 466q115 0 168.5 -55.5t53.5 -173.5q0 -123 -61 -188.5t-175 -65.5q-216 0 -216 250q0 113 59 173t171 60z" />
    <glyph glyph-name="afii10081" unicode="&#x43f;" horiz-adv-x="614" 
d="M594 415q-33 -2 -45.5 -3.5t-17.5 -6.5q-3 -3 -5 -12t-3 -28t-1.5 -49t-0.5 -76v-29q0 -46 0.5 -76.5t1.5 -49t3 -27.5t5 -12q5 -5 17.5 -6.5t45.5 -3.5v-38q-31 1 -48 1.5t-28 0.5h-19.5h-21.5l-119 -1h-23v39q32 2 43 3.5t16 6.5t7 35t2 102q0 75 -0.5 117t-2.5 62
t-6 25.5t-11 7.5q-8 2 -34.5 3.5t-56.5 1.5q-6 0 -15 -0.5t-18.5 -1.5t-17 -1.5t-10.5 -1.5q-7 -2 -11 -7.5t-6 -25.5t-2.5 -62t-0.5 -117q0 -72 2 -102t7 -35t16 -6.5t43 -3.5v-39h-23l-119 1h-21.5h-19.5t-28 -0.5t-48 -1.5v38q33 2 45.5 3.5t17.5 6.5q3 3 5 12t3 27.5
t1.5 49t0.5 76.5v29q0 46 -0.5 76t-1.5 49t-3 28t-5 12q-5 5 -17.5 6.5t-45.5 3.5v38q10 0 31.5 -0.5t49 -1t58 -1t59 -1t51 -0.5h34.5h36.5t52.5 0.5t60.5 1t59.5 1t50 1t32 0.5v-38z" />
    <glyph glyph-name="afii10082" unicode="&#x440;" horiz-adv-x="558" 
d="M203 103q39 -48 92 -48q51 0 80 44.5t29 122.5q0 72 -29 115t-79 43q-22 0 -40.5 -8t-39.5 -26q-9 -8 -11 -10t-2 -4v-229zM10 426q28 3 51 6.5t44.5 8t41.5 10.5t42 14l13 -7l1 -78l70 60q16 14 33.5 19t49.5 5q39 0 70.5 -13.5t54 -38.5t35 -60.5t12.5 -78.5
q0 -42 -12.5 -83.5t-32.5 -67.5q-13 -16 -43 -41.5t-68 -53.5q-26 -19 -47 -27t-44 -8q-40 0 -79 18v-37q0 -56 0.5 -91t1.5 -55t3.5 -29t5.5 -13q5 -6 18.5 -8t48.5 -3v-39q-30 1 -50.5 1.5t-36 1t-29 0.5h-28.5h-30t-28.5 -0.5t-31 -1t-37.5 -1.5v39q37 1 47.5 3t14.5 8
q2 3 3.5 6.5t2 12t1 23.5t1.5 41q2 78 2.5 156t0.5 149q0 30 -0.5 62.5t-1 59.5t-1 46t-0.5 22q-2 9 -3.5 14.5t-8.5 7.5t-20 3t-37 1v37z" />
    <glyph glyph-name="afii10083" unicode="&#x441;" horiz-adv-x="428" 
d="M335 290q-2 37 -6 52.5t-15 26.5q-25 23 -68 23q-48 0 -70.5 -31.5t-22.5 -100.5q0 -95 40.5 -150t109.5 -55q49 0 86 25l9 -12l-19 -49q-35 -19 -67.5 -27.5t-70.5 -8.5q-92 0 -151 56q-60 59 -60 171q0 67 20 110.5t65 72.5q42 27 66 42t39.5 22t28 8t32.5 1
q31 0 57 -6t59 -22q-10 -26 -15 -61t-7 -87h-40z" />
    <glyph glyph-name="afii10084" unicode="&#x442;" horiz-adv-x="455" 
d="M290 360v-33l-1 -58v-39q0 -75 1.5 -119.5t4.5 -55.5q1 -5 4 -8.5t10 -5.5t20 -3t34 -2v-38q-22 1 -39.5 1.5t-32.5 0.5h-30h-31q-32 0 -60 -0.5t-72 -1.5v38q35 2 47 3.5t17 6.5q3 3 5 12t3 27.5t1.5 49t0.5 76.5v29l-1 87v22v50l-60 -1q-23 0 -35 -1t-18 -8t-7.5 -21
t-2.5 -39q-1 -3 -1 -10.5t-1 -16.5h-34q1 7 1 13v8q0 71 -6 136q29 -3 50.5 -4.5t44 -2t48.5 -1t64 -0.5h76t58 1t49.5 1.5t51.5 2.5q-4 -20 -7 -62t-4 -92h-33q-2 35 -3 52t-2 22q-2 8 -6.5 12.5t-16 7t-32 3t-55.5 0.5v-39z" />
    <glyph glyph-name="afii10085" unicode="&#x443;" horiz-adv-x="492" 
d="M19 -148q24 -17 44 -24.5t41 -7.5q17 0 30.5 6t26.5 22t27 44t33 73l-143 363q-15 40 -22.5 55t-14.5 21q-5 4 -16 6t-33 4v40q44 -2 75.5 -3t69.5 -1h24h23.5t28 0.5t38.5 1.5v-38q-21 -2 -33.5 -3t-18.5 -3t-7.5 -5.5t-1.5 -9.5q0 -4 0.5 -8t3.5 -13t9.5 -26.5
t17.5 -48.5l61 -171h4l69 176q10 25 16 40.5t9 25t4 15t1 10.5q0 11 -9.5 14.5t-38.5 5.5h-4.5t-6.5 1v38q25 -2 44 -2.5t47 -0.5q26 0 45 0.5t44 1.5v-37q-18 -2 -25 -4t-13 -4q-4 -3 -7 -6t-6.5 -9t-8.5 -17.5t-13 -30.5q-5 -11 -10 -24.5t-13 -30.5l-154 -362
q-13 -30 -23.5 -52.5t-20.5 -40t-19.5 -30.5t-20.5 -25q-47 -50 -127 -50q-19 0 -30.5 2t-27.5 8q4 19 7 32t5 24t3.5 23t4.5 31z" />
    <glyph glyph-name="afii10086" unicode="&#x444;" horiz-adv-x="739" 
d="M424 252v-68v-36t1 -82q23 -35 65 -35q45 0 65.5 39.5t20.5 126.5q0 117 -22.5 169t-73.5 52q-32 0 -56 -23v-143zM310 393q-13 14 -26 19.5t-32 5.5q-45 0 -67 -40.5t-22 -125.5q0 -113 24 -167.5t75 -54.5q15 0 25.5 3.5t22.5 13.5q0 4 1 7q2 18 2 80.5t-3 161.5
q-1 42 0 87v10zM310 -11q-32 -7 -67 -7q-104 0 -158.5 63t-54.5 183q0 63 15.5 106t47.5 74q59 58 162 58q11 0 24.5 -1t30.5 -3q-1 45 -1.5 73.5t-1 44.5t-1 22t-1.5 8q-2 6 -4 9.5t-7.5 5.5t-15 3t-25.5 1h-7t-11 1v37q17 2 28 3.5t19.5 2.5t15 2t14.5 2t13 2.5t13 3
t20.5 5t35.5 9.5q2 1 7.5 2t11.5 3l14 -7q-1 -37 -1.5 -95.5t-0.5 -139.5q31 6 64 6q112 0 166 -56t54 -173q0 -122 -61 -188t-173 -66q-13 0 -24.5 1t-25.5 3v-107q0 -33 0.5 -51.5t2 -28t4 -13t7.5 -6.5q7 -3 18 -4t36 -1v-41q-14 1 -26 1h-17q-36 1 -59.5 1.5t-31.5 0.5
h-19.5t-21 -0.5t-31.5 -1t-52 -1.5v40h16q16 0 26 1t16 4t8.5 8t4.5 13q1 1 1.5 24t1.5 56z" />
    <glyph glyph-name="afii10087" unicode="&#x445;" horiz-adv-x="499" 
d="M120 465q29 -4 50.5 -21.5t49.5 -59.5l56 -82l60 84q8 11 12.5 17.5t6.5 12t2.5 11t0.5 13.5l1 12q40 -3 63 -3q9 0 22.5 0.5t31.5 1.5v-39q-17 0 -27.5 -2t-20.5 -8t-21 -17.5t-28 -32.5l-77 -93l99 -149q26 -42 47 -57t51 -15v-39q-24 1 -42 1h-32q-13 0 -35 -0.5
t-51 -1.5q-17 13 -30 29.5t-34 51.5l-49 79l-67 -99q-12 -17 -15.5 -22.5t-5.5 -10.5q-4 -8 -4 -28q-31 2 -43 2h-20h-18.5t-35.5 -2v37q17 1 28 2.5t20.5 7t19 14.5t23.5 25l94 119q-41 61 -67 97t-46 54t-40 23t-49 6v33z" />
    <glyph glyph-name="afii10088" unicode="&#x446;" horiz-adv-x="621" 
d="M521 211q0 -41 0.5 -69.5t1.5 -46.5t3 -27t5 -12q5 -5 17.5 -6.5t45.5 -2.5q-3 -13 -6.5 -34t-6.5 -45t-5 -48t-2 -43h-41q-1 8 -1 14v8q-1 27 -2.5 43t-4.5 25.5t-8 14t-13 7.5q-19 7 -59.5 10t-112.5 3h-39.5t-56.5 -0.5t-64.5 -1t-63.5 -1t-53.5 -1t-34.5 -0.5v38
q33 2 45.5 3.5t17.5 6.5q3 3 5 12t3 27.5t1.5 49t0.5 76.5v29q0 46 -0.5 76t-1.5 49t-3 28t-5 12q-5 5 -17.5 6.5t-45.5 3.5v38q32 -1 49.5 -1.5t28.5 -0.5h19h20l119 1h23v-39q-32 -2 -43 -3t-16 -6q-3 -3 -4.5 -11.5t-2.5 -24.5t-1.5 -41t-0.5 -61v-85.5t1 -57t1.5 -35
t2.5 -18.5q2 -10 7.5 -13t22.5 -5q3 0 10 -0.5t14.5 -1t13.5 -1t8 -0.5q36 0 61 1.5t34 4.5q6 2 9 8.5t4.5 27.5t2 62t0.5 113q0 36 -0.5 61t-1.5 41t-2.5 24.5t-4.5 11.5q-5 5 -16 6t-43 3v39h23l119 -1h20h19t28.5 0.5t49.5 1.5v-38q-33 -2 -45.5 -3.5t-17.5 -6.5
q-3 -3 -5 -12t-3 -28t-1.5 -49t-0.5 -76v-29z" />
    <glyph glyph-name="afii10089" unicode="&#x447;" horiz-adv-x="598" 
d="M320 38q31 1 42.5 3t16.5 7q5 3 6.5 23.5t2.5 73.5q-38 -10 -68 -14t-59 -4q-55 0 -99 16.5t-62 45.5q-11 17 -15.5 35.5t-4.5 53.5q0 37 -1 60.5t-2 38t-2.5 20.5t-4.5 8q-4 5 -17.5 6.5t-45.5 3.5v38q27 -1 44.5 -1.5t29 -0.5h19.5h18l148 1v-39q-34 -2 -44 -3t-14 -6
q-10 -10 -10 -116q0 -35 6.5 -53t24.5 -33q17 -14 37 -20.5t52 -6.5q21 0 35.5 2t34.5 7q1 11 1 18.5v9.5q0 75 -1.5 123t-3.5 59q-2 6 -4 9t-8.5 5t-18.5 3t-33 2v39h20l128 -1h18h19t28 0.5t46 1.5v-38q-33 -2 -45.5 -3.5t-17.5 -6.5q-3 -3 -5 -12t-3 -28t-1.5 -49
t-0.5 -76v-29q0 -46 0.5 -76.5t1.5 -49t3 -27.5t5 -12q5 -5 17.5 -6.5t45.5 -3.5v-38q-27 1 -44 1.5t-28.5 0.5h-20h-18.5l-148 -1v39z" />
    <glyph glyph-name="afii10090" unicode="&#x448;" horiz-adv-x="840" 
d="M820 -2q-21 1 -67 1.5t-102 1t-116 1t-111 0.5q-53 0 -114.5 -0.5t-118.5 -1t-103 -1t-68 -1.5v38q33 2 45.5 3.5t17.5 6.5q3 3 5 12t3 27.5t1.5 49t0.5 76.5v29q0 46 -0.5 76.5t-1.5 49t-3 27.5t-5 12q-5 5 -17.5 6.5t-45.5 3.5v38q32 -1 49.5 -1.5t29 -0.5h19.5h21
l127 1v-39l-8 -1l-19 -2q-10 -1 -15.5 -4.5t-8.5 -18t-3.5 -42.5t-0.5 -77q0 -64 0.5 -103t1.5 -61t3 -31.5t5 -13.5t22 -7t40 -3q6 0 14.5 0.5t17.5 1t16 1.5t10 2q7 2 11 7t6 25.5t2.5 63t0.5 118.5q0 35 -0.5 59.5t-1.5 40t-3 24t-5 12.5q-2 4 -8 5t-29 3l-8 1v39l113 -1
l115 1v-39l-8 -1l-19 -2q-10 -1 -15.5 -4.5t-8.5 -18t-3.5 -42.5t-0.5 -77q0 -64 0.5 -103t1.5 -61t3 -31.5t5 -13.5t22 -7t41 -3q6 0 14.5 0.5t17.5 1t16 1.5t10 2q7 2 11 7t6 25.5t2.5 63t0.5 118.5q0 35 -0.5 59.5t-1.5 40t-3 24t-5 12.5q-2 4 -8 5t-29 3l-8 1v39l127 -1
h20h19.5t29 0.5t49.5 1.5v-38q-33 -2 -45.5 -3.5t-17.5 -6.5q-3 -3 -5 -12t-3 -28t-1.5 -49.5t-0.5 -75.5v-29q0 -45 0.5 -75.5t1.5 -49.5t3 -28t5 -12q5 -5 17.5 -6.5t45.5 -3.5v-38z" />
    <glyph glyph-name="afii10091" unicode="&#x449;" horiz-adv-x="847" 
d="M747 211q0 -41 0.5 -69.5t1.5 -46.5t3 -27t5 -12q5 -5 17.5 -6.5t45.5 -2.5q-3 -12 -6.5 -33t-6.5 -45t-5 -48.5t-2 -43.5h-41l-1 22q-1 27 -2.5 43t-4.5 25.5t-8 14t-13 7.5q-9 4 -23.5 6.5t-36.5 4t-52 2t-72 0.5h-98.5t-106 -0.5t-104.5 -1t-94.5 -1t-75.5 -1
t-47 -0.5v38q33 2 45.5 3.5t17.5 6.5q3 3 5 12t3 27.5t1.5 49t0.5 76.5v29q0 46 -0.5 76.5t-1.5 49t-3 27.5t-5 12q-5 5 -17.5 6.5t-45.5 3.5v38q32 -1 49.5 -1.5t29 -0.5h19.5h21l127 1v-39l-8 -1l-19 -2q-10 -1 -15.5 -4.5t-8.5 -18t-3.5 -42.5t-0.5 -77q0 -64 0.5 -103
t1.5 -61t3 -31.5t5 -13.5t22 -7t40 -3q6 0 14.5 0.5t17.5 1t16 1.5t10 2q7 2 11 7t6 25.5t2.5 63t0.5 118.5q0 35 -0.5 59.5t-1.5 40t-3 24t-5 12.5q-2 4 -8 5t-29 3l-8 1v39l113 -1l115 1v-39l-8 -1l-19 -2q-10 -1 -15.5 -4.5t-8.5 -18t-3.5 -42.5t-0.5 -77q0 -64 0.5 -103
t1.5 -61t3 -31.5t5 -13.5t22 -7t41 -3q6 0 14.5 0.5t17.5 1t16 1.5t10 2q7 2 11 7t6 25.5t2.5 63t0.5 118.5q0 35 -0.5 59.5t-1.5 40t-3 24t-5 12.5q-2 4 -8 5t-29 3l-8 1v39l127 -1h20h19.5t29 0.5t49.5 1.5v-38q-33 -2 -45.5 -3.5t-17.5 -6.5q-3 -3 -5 -12t-3 -28
t-1.5 -49.5t-0.5 -75.5v-29z" />
    <glyph glyph-name="afii10092" unicode="&#x44a;" horiz-adv-x="570" 
d="M325 133v-45v-24.5t0.5 -12.5t0.5 -9q8 -2 13.5 -2h13.5q95 0 95 97q0 92 -95 92h-12t-16 -1q-1 -8 -1 -13v-6zM21 451q46 -1 80.5 -1h57.5h51t57 1q49 1 70.5 1h28.5h27v-39q-14 -1 -23 -1.5t-14 -1t-8.5 -1t-6.5 -1.5q-10 -3 -13 -20t-3 -64q0 -9 0.5 -23.5t1.5 -34.5
q14 1 24.5 1h18.5q194 0 194 -122q0 -38 -20.5 -70.5t-58.5 -52.5q-43 -23 -117 -23h-14t-20 1q-14 1 -25 1h-21q-9 0 -30 -0.5t-45 -1t-46 -1t-33 -0.5v38q33 2 45.5 3.5t17.5 6.5q3 3 5 12t3 27.5t1.5 49t0.5 76.5v29q0 64 -1.5 99.5t-3.5 46.5q-3 10 -16.5 14t-42.5 4
q-22 0 -39.5 -4.5t-24.5 -11.5q-6 -8 -8.5 -23t-4.5 -56q-1 -2 -1 -8t-1 -14l-38 -1q1 3 1 6v4q0 15 -2 37t-5 44t-6.5 42t-6.5 31z" />
    <glyph glyph-name="afii10093" unicode="&#x44b;" horiz-adv-x="738" 
d="M718 415q-33 -2 -45.5 -3.5t-17.5 -6.5q-3 -3 -5 -12t-3 -28t-1.5 -49.5t-0.5 -75.5v-29q0 -45 0.5 -75.5t1.5 -49.5t3 -28t5 -12q5 -5 17.5 -6.5t45.5 -3.5v-38q-26 1 -43.5 1.5t-32 0.5h-28h-29.5h-29.5h-26.5t-32 -0.5t-44 -1.5v38q33 2 45.5 3.5t17.5 6.5q3 3 5 12
t3 28t1.5 49.5t0.5 75.5v29q0 45 -0.5 75.5t-1.5 49.5t-3 28t-5 12q-5 5 -17.5 6.5t-45.5 3.5v38q26 -1 44 -1.5t32 -0.5h27h29h29h27.5t32.5 0.5t44 1.5v-38zM211 133v-45v-24.5t0.5 -12.5t0.5 -9q8 -2 13.5 -2h13.5q95 0 95 98q0 92 -95 92h-12t-16 -2q-1 -8 -1 -13v-6z
M20 453q28 -1 45.5 -1.5t29 -0.5h21h21.5l119 1h23v-39h-14q-22 -2 -31.5 -3.5t-13.5 -5.5q-5 -5 -7 -24t-2 -54q0 -10 0.5 -25t1.5 -35q14 1 25 1h17q195 0 195 -122q0 -38 -20.5 -70.5t-58.5 -52.5q-43 -23 -118 -23h-33q-10 1 -23.5 1h-18.5h-35.5t-45 -0.5t-44.5 -1
t-33 -0.5v38q33 2 45.5 3.5t17.5 6.5q3 3 5 12t3 27.5t1.5 49t0.5 76.5v29q0 46 -0.5 76t-1.5 49t-3 28t-5 12q-5 5 -17.5 6.5t-45.5 3.5v38z" />
    <glyph glyph-name="afii10094" unicode="&#x44c;" horiz-adv-x="456" 
d="M211 133v-45v-24.5t0.5 -12.5t0.5 -9q8 -2 13.5 -2h13.5q95 0 95 98q0 92 -95 92h-12t-16 -2q-1 -8 -1 -13v-6zM20 453q28 -1 45.5 -1.5t29 -0.5h21h21.5l119 1h23v-39h-14q-22 -2 -31.5 -3.5t-13.5 -5.5q-5 -5 -7 -24t-2 -54q0 -10 0.5 -25t1.5 -35q14 1 25 1h17
q195 0 195 -122q0 -38 -20.5 -70.5t-58.5 -52.5q-43 -23 -118 -23h-33q-10 1 -23.5 1h-18.5h-35.5t-45 -0.5t-44.5 -1t-33 -0.5v38q33 2 45.5 3.5t17.5 6.5q3 3 5 12t3 27.5t1.5 49t0.5 76.5v29q0 46 -0.5 76t-1.5 49t-3 28t-5 12q-5 5 -17.5 6.5t-45.5 3.5v38z" />
    <glyph glyph-name="afii10095" unicode="&#x44d;" horiz-adv-x="451" 
d="M39 80q17 -11 31 -18.5t27 -11.5t27 -5.5t32 -1.5q140 0 143 146q-3 1 -5.5 1h-4.5q-17 1 -52 -0.5t-91 -6.5l18 62q8 -2 16 -3.5t22 -2.5t36.5 -1h58.5q-21 170 -138 170q-34 0 -60 -11.5t-57 -39.5q-1 12 -1.5 20.5t-1 15t-1.5 13t-2 14.5q37 26 71.5 36.5t82.5 10.5
q112 0 168 -57q63 -63 63 -176q0 -56 -17 -102t-48 -79t-74 -51.5t-95 -18.5q-71 0 -138 37l-19 48z" />
    <glyph glyph-name="afii10096" unicode="&#x44e;" horiz-adv-x="797" 
d="M538 418q-89 0 -89 -164q0 -115 24.5 -169t75.5 -54q45 0 65.5 39.5t20.5 127.5q0 117 -23 168.5t-74 51.5zM211 260h14.5t8.5 -1h23h19l41 1q3 42 11.5 69t25.5 51q60 86 191 86q115 0 169 -55.5t54 -173.5q0 -122 -61 -188t-173 -66q-208 0 -218 229h-32h-24h-15h-34
q0 -86 3 -138q1 -12 2.5 -19t8 -10.5t19 -4.5t35.5 -2v-39h-23l-119 1h-21.5h-19.5t-28 -0.5t-48 -1.5v38q33 2 45.5 3.5t17.5 6.5q3 3 5 12t3 27.5t1.5 49t0.5 76.5v29q0 46 -0.5 76t-1.5 49t-3 28t-5 12q-5 5 -17.5 6.5t-45.5 3.5v38q32 -1 49.5 -1.5t28.5 -0.5h19h20
l119 1h23v-39q-21 -1 -33.5 -2t-19 -3.5t-8.5 -7t-3 -12.5q-2 -14 -3 -45.5t-1 -74.5v-8z" />
    <glyph glyph-name="afii10097" unicode="&#x44f;" horiz-adv-x="543" 
d="M305 221q-18 -21 -30 -35.5t-26.5 -34t-36 -48.5t-57.5 -78q-12 -15 -21 -27q-14 1 -26.5 1.5t-29.5 0.5h-37.5t-40.5 -2v39q14 0 24.5 2t21 9t22 20t28.5 35l81 110q-59 14 -90.5 47t-31.5 81q0 35 17.5 62t48.5 39q21 8 43.5 11.5t61.5 3.5h19.5t25.5 -0.5t48 -2
t87 -3.5h31t86 2v-38q-33 -2 -45.5 -3.5t-17.5 -6.5q-3 -3 -5 -12t-3 -28t-1.5 -49t-0.5 -76v-29q0 -46 0.5 -76.5t1.5 -49t3 -27.5t5 -12q5 -5 17.5 -6.5t45.5 -3.5v-38q-29 1 -46 1.5t-28.5 0.5h-20.5h-22l-119 -1h-23v39q21 1 33.5 2t19 3.5t8.5 7t4 12.5q1 10 1.5 20
t1 23t0.5 31.5v46.5v89.5t-0.5 58.5t-1.5 38.5t-2 30.5q-19 8 -32 10.5t-30 2.5q-46 0 -72 -21t-26 -57q0 -42 30.5 -67.5t80.5 -25.5q5 0 10.5 0.5t15.5 1.5v-24z" />
    <glyph glyph-name="afii10071" unicode="&#x451;" horiz-adv-x="463" 
d="M333 665q26 0 43.5 -18t17.5 -44t-18 -43.5t-44 -17.5q-25 0 -43 18t-18 43q0 26 18 44t44 18zM145 666q26 0 44 -18t18 -44t-18.5 -44t-44.5 -18q-25 0 -43 18t-18 44t18 44t44 18zM153 272q19 -1 33.5 -1h34.5h26h20.5t18.5 0.5t20 1.5q0 75 -17 106.5t-56 31.5
t-57.5 -32t-22.5 -107zM421 75l-22 -46q-68 -46 -151 -46q-46 0 -86 14.5t-69 42.5q-63 60 -63 177q0 51 10 91.5t27 63.5q18 22 83 57q37 20 62 28t53 8q38 0 72.5 -15t55.5 -41q19 -22 29.5 -57t10.5 -74q0 -5 -0.5 -15t-1.5 -22q-29 -6 -48 -9.5t-34 -5.5t-28.5 -2.5
t-29.5 -0.5h-133q2 -74 41.5 -119t102.5 -45q61 0 105 31z" />
    <glyph glyph-name="afii10099" unicode="&#x452;" horiz-adv-x="527" 
d="M204 575q55 1 94.5 1t65.5 1v-46q-25 0 -40.5 0.5t-30.5 0.5h-35h-54v-153l62 61q10 9 35.5 16t50.5 7q34 0 64 -12t47 -32q16 -19 23 -47t7 -71l-1 -188q-2 -92 -24.5 -154.5t-70.5 -100.5q-23 -19 -51.5 -30t-54.5 -11q-3 0 -9.5 0.5t-14.5 1.5l-19 31l4 6
q32 0 51.5 6.5t33.5 22.5q15 16 21.5 41.5t8.5 76.5q1 14 1.5 39t1 53t1 55t0.5 46q0 53 -5 91t-13 56q-8 15 -25.5 24.5t-38.5 9.5q-24 0 -44 -11.5t-31 -32.5q-7 -12 -9 -27.5t-2 -50.5q0 -55 0.5 -92.5t1.5 -61t2.5 -35.5t4.5 -16q4 -5 16.5 -7t45.5 -4v-41
q-24 1 -42.5 1.5t-33 1t-26.5 0.5h-25h-27.5t-29 -0.5t-34 -1.5t-42.5 -2v42h15q30 2 39 5.5t12 16.5q1 5 2 18t1.5 40t0.5 72v114v55.5v50t-0.5 54t-1.5 67.5l-68 -1l-1 45h33h35l-1 17q0 12 -2 19t-7 10.5t-14.5 5t-25.5 2.5q-2 1 -7 1h-11v36q54 5 101 15t76 24l14 -8
v-80v-13v-30z" />
    <glyph glyph-name="afii10100" unicode="&#x453;" horiz-adv-x="439" 
d="M149 527l113 111q16 16 27.5 26t21 16t17.5 8.5t16 2.5q19 0 31 -11t12 -28q0 -8 -3 -14.5t-10.5 -13.5t-21 -15t-34.5 -20l-119 -62h-50zM279 -1h-23l-119 1h-22h-20.5t-28.5 -0.5t-46 -1.5v38q33 2 45.5 3.5t17.5 6.5q3 3 5 12t3 27.5t1.5 49t0.5 76.5v29q0 46 -0.5 76
t-1.5 49t-3 28t-5 12q-5 5 -17.5 6.5t-45.5 3.5v38q20 -1 51 -1.5t67.5 -1t75 -0.5h72.5h54.5t77.5 1l15 -1q-3 -11 -6.5 -30.5t-6.5 -42t-5 -44.5t-2 -38v-9l-38 1l-1 22q-2 33 -4.5 51.5t-10 28t-22.5 11.5t-42 2h-14q-9 0 -25.5 -0.5t-42.5 -1.5q0 -14 -0.5 -32.5t-1 -44
t-0.5 -59.5v-80q0 -71 2 -101t7 -35t15 -6.5t44 -3.5v-39z" />
    <glyph glyph-name="afii10101" unicode="&#x454;" horiz-adv-x="428" 
d="M153 238q8 -1 15 -1h9q18 0 32.5 0.5t28 1.5t28 2.5t31.5 3.5l-14 -62q-28 3 -60 4.5t-63 1.5q15 -66 51 -100t92 -34q49 0 86 25l9 -12l-19 -49q-35 -19 -67.5 -27.5t-70.5 -8.5q-92 0 -151 56q-60 59 -60 171q0 66 19 108.5t61 71.5q24 16 49.5 32t45.5 27
q17 10 32.5 13.5t43.5 3.5q31 0 57 -6t59 -22q-10 -26 -15 -61t-7 -87h-40q-2 37 -6 52.5t-15 26.5q-25 23 -68 23q-48 0 -70.5 -31.5t-22.5 -100.5v-22z" />
    <glyph glyph-name="afii10102" unicode="&#x455;" horiz-adv-x="426" 
d="M90 151q1 -5 1 -10v-7q0 -30 5 -45.5t19 -27.5q15 -14 36.5 -21t45.5 -7q40 0 63 18.5t23 50.5q0 37 -32 54l-11 5.5t-12 5t-19.5 6t-33.5 9.5q-34 10 -53 18.5t-33 19.5q-42 34 -42 95q0 69 50.5 109.5t137.5 40.5q35 0 65 -6.5t62 -20.5q-5 -23 -7 -50t-4 -71h-35
l-1 20q-1 23 -5 33.5t-15 21.5q-27 24 -70 24q-35 0 -55.5 -16t-20.5 -43q0 -28 20.5 -43t77.5 -29q41 -10 59.5 -16t35.5 -15q54 -30 54 -103q0 -37 -15.5 -68t-42.5 -53.5t-64.5 -35t-81.5 -12.5q-67 0 -149 33q2 10 3 20t2 24t1.5 36t0.5 56h40z" />
    <glyph glyph-name="afii10103" unicode="&#x456;" horiz-adv-x="281" 
d="M146 690q29 0 50.5 -21.5t21.5 -51.5t-21.5 -51.5t-51.5 -21.5t-51.5 21.5t-21.5 51.5q0 31 21.5 52t52.5 21zM15 428q124 10 178 39l15 -8q-1 -74 -1.5 -133t-0.5 -104q0 -46 0.5 -78t2 -52t3 -30.5t4.5 -13.5q5 -5 15 -6.5t44 -3.5v-39h-23l-119 1h-22h-20.5
t-28.5 -0.5t-46 -1.5v38q33 2 45.5 3.5t17.5 6.5q3 3 5 12.5t3 29t1.5 52t0.5 82.5v72.5t-1 46t-2 25.5t-3 11t-3.5 4.5t-8 2.5t-19.5 1.5t-37 2.5v40z" />
    <glyph glyph-name="afii10104" unicode="&#x457;" horiz-adv-x="281" 
d="M222 665q26 0 43.5 -18t17.5 -44t-18 -43.5t-44 -17.5q-25 0 -43 18t-18 43q0 26 18 44t44 18zM61 666q26 0 44 -18t18 -44t-18.5 -44t-44.5 -18q-25 0 -43 18t-18 44t18 44t44 18zM15 428q64 5 107 15t70 24l15 -8q-1 -74 -1.5 -133t-0.5 -104q0 -46 0.5 -78t2 -52
t3 -30.5t4.5 -13.5q5 -5 15 -6.5t44 -3.5v-39h-23l-119 1h-22h-20.5t-28.5 -0.5t-46 -1.5v38q33 2 45.5 3.5t17.5 6.5q3 3 5 12.5t3 29t1.5 52t0.5 82.5v72.5t-1 46t-2 25.5t-3 11t-3.5 4.5t-8 2.5t-19 1.5t-36.5 2.5v40z" />
    <glyph glyph-name="afii10105" unicode="&#x458;" horiz-adv-x="279" 
d="M150 690q29 0 50.5 -21.5t21.5 -51.5t-21.5 -51.5t-51.5 -21.5t-51.5 21.5t-21.5 51.5q0 31 21.5 52t52.5 21zM-32 -232l4 7q32 0 51.5 6.5t33.5 21.5q14 17 21 42.5t9 75.5q1 13 1.5 42t1 65t1 73.5t0.5 67.5q0 57 -0.5 95.5t-1.5 62.5t-2.5 35.5t-3.5 15.5
q-2 2 -4.5 3.5t-9.5 2.5t-20 1.5t-35 1.5v38q49 3 99 13.5t85 25.5l16 -9q0 -27 -0.5 -47.5t-1 -39.5t-0.5 -39.5v-48.5v-173q0 -35 -0.5 -60t-1.5 -44.5t-3.5 -36t-5.5 -33.5q-12 -63 -38 -104.5t-70 -67.5q-41 -25 -82 -25q-4 0 -9.5 0.5t-13.5 1.5z" />
    <glyph glyph-name="afii10106" unicode="&#x459;" horiz-adv-x="752" 
d="M506 133v-45v-24.5t0.5 -12.5t0.5 -9q8 -2 13.5 -2h13.5q95 0 95 98q0 92 -95 92h-12t-16 -2q-1 -8 -1 -12.5v-6.5zM25 5q0 11 -2.5 26t-9.5 36l26 5q19 -19 41 -19q28 0 40 30q5 11 7.5 58t2.5 117q0 74 -2.5 108t-7.5 39t-17.5 6.5t-45.5 3.5v38q14 0 22.5 -0.5
t17.5 -0.5t22 -0.5t36 -0.5h21h15.5t17.5 -0.5t28 -0.5q14 0 26 -0.5t22 -0.5h21q20 0 53 0.5t90 1.5q21 0 35.5 0.5t27.5 0.5h27.5h34.5v-39h-14q-21 -2 -30.5 -3.5t-13.5 -5.5q-9 -9 -9 -78v-26.5t1 -33.5q14 1 25 1h17q195 0 195 -122q0 -38 -20.5 -70.5t-58.5 -52.5
q-43 -23 -117 -23h-34q-9 1 -23 1h-19h-35.5t-44.5 -0.5t-44 -1t-33 -0.5v38q33 2 45.5 3.5t17.5 6.5q3 3 5 12t3 28t1.5 49.5t0.5 75.5v29q0 119 -5 142q-2 6 -4 9t-7.5 5t-15.5 3t-28 2q-11 1 -22 1h-31q-30 0 -51.5 -2.5t-26.5 -7.5q-9 -11 -9 -108v-15q1 -24 1 -36.5
v-23.5q0 -63 -9 -101t-29 -66q-21 -29 -50 -48q-9 -5 -18 -7t-26 -2q-16 0 -33 4v16z" />
    <glyph glyph-name="afii10107" unicode="&#x45a;" horiz-adv-x="764" 
d="M403 267v11q0 34 -0.5 56.5t-1.5 37t-2.5 22t-4.5 10.5q-5 5 -16 6t-43 3v39h21l105 -1l105 1h21v-39h-14q-22 -2 -31.5 -3.5t-13.5 -5.5q-5 -5 -7 -24t-2 -54q0 -11 0.5 -25.5t1.5 -34.5q14 1 25 1h17q195 0 195 -122q0 -38 -20.5 -70.5t-58.5 -52.5q-43 -23 -118 -23
h-33q-11 1 -24 1h-20l-149 -1v39q25 1 35 2t17 4q4 1 7 4.5t4.5 12t2.5 23t1 37.5l1 75q1 4 0 10q-21 1 -36 1h-41h-23.5h-21t-27.5 -0.5t-43 -0.5q0 -81 3 -132q1 -12 2.5 -19t8 -10.5t19 -4.5t35.5 -2v-39h-23l-119 1h-21.5h-19.5t-28 -0.5t-48 -1.5v38q33 2 45.5 3.5
t17.5 6.5q3 3 5 12t3 27.5t1.5 49t0.5 76.5v29q0 46 -0.5 76t-1.5 49t-3 28t-5 12q-5 5 -17.5 6.5t-45.5 3.5v38q32 -1 49.5 -1.5t28.5 -0.5h19h20l119 1h23v-39q-32 -2 -43 -3t-16 -6q-3 -3 -4.5 -10.5t-2.5 -22t-1.5 -37.5t-0.5 -56v-11v-11q23 -1 38.5 -1.5t27 -0.5h22
h23.5h36t45 2v11zM519 42q8 -2 14 -2.5t14 -0.5q95 0 95 98q0 92 -95 92h-12.5t-16.5 -1v-19l1 -76v-91z" />
    <glyph glyph-name="afii10108" unicode="&#x45b;" horiz-adv-x="565" 
d="M204 575q55 1 95 1t65 1v-46q-25 0 -40.5 0.5t-30.5 0.5h-35h-54v-153l62 61q10 9 35.5 16t50.5 7q34 0 64 -12t47 -32t23.5 -48.5t6.5 -77.5v-27.5t-1 -36.5q-1 -38 -1 -62.5v-41.5q0 -46 2.5 -60.5t11.5 -18.5q7 -3 17 -4.5t33 -1.5v-42q-30 2 -51 2h-50h-25t-21 -0.5
l-20 -1t-22 -1.5l-5 9q3 36 4.5 62t2 47.5l1 43t0.5 48.5q0 30 -1 52t-2.5 37.5t-5 26.5t-7.5 20q-8 16 -25.5 25t-38.5 9q-24 0 -44 -11.5t-31 -32.5q-7 -12 -9 -27.5t-2 -50.5q0 -55 0.5 -92.5t1.5 -61t2.5 -35.5t4.5 -16q4 -5 16.5 -7t45.5 -4v-41q-24 1 -42.5 1.5t-33 1
t-26.5 0.5h-25h-27.5t-29 -0.5t-34 -1.5t-42.5 -2v42h15q30 2 39 5.5t12 16.5q1 5 2 18t1.5 40t0.5 72v114v55.5v50t-0.5 54t-1.5 67.5l-68 -1l-1 45h33h35l-1 17q0 12 -2 19t-7 10.5t-14.5 5t-25.5 2.5q-2 1 -7 1h-11v36q54 5 101 15t76 24l14 -8v-80v-13v-30z" />
    <glyph glyph-name="afii10109" unicode="&#x45c;" horiz-adv-x="593" 
d="M246 527l113 111q32 31 49 42t34 11q19 0 31 -11t12 -28q0 -8 -3 -14.5t-10.5 -13.5t-21 -15t-35.5 -20l-118 -62h-51zM213 459q-1 -52 -1.5 -85t-0.5 -55v-38v-34q58 49 97 84t62.5 59.5t32.5 39t6 22.5q25 -1 40 -1.5t32 -0.5h29t40 2v-39l-22 -1q-15 0 -25.5 -1.5
t-19.5 -5.5t-18.5 -10.5t-22.5 -16.5l-122 -109l182 -184q16 -16 27.5 -25.5t21.5 -14.5t19.5 -6t22.5 -1v-40q-28 1 -58 1.5t-53 0.5h-32t-32 -1q-59 66 -109 117t-98 94l1 -89q0 -30 1.5 -46t6 -24t14 -10t26.5 -3h19v-39q-30 1 -49 1.5t-31.5 0.5h-21.5h-21h-22.5
t-23 -0.5t-34 -1t-54.5 -1.5v40q32 0 43 1t17 6q5 3 6.5 11.5t2.5 31.5l2 225q0 60 -7 66q-3 2 -5 3.5t-8.5 2t-18.5 1.5t-34 2v40q63 5 106.5 15t70.5 24z" />
    <glyph glyph-name="afii10110" unicode="&#x45e;" horiz-adv-x="492" 
d="M153 689q19 -85 109 -85t109 85h33q-4 -73 -41 -113.5t-101 -40.5q-63 0 -100.5 40.5t-41.5 113.5h33zM19 -148q24 -17 44 -24.5t41 -7.5q17 0 30.5 6t26.5 22t27 44t33 73l-143 363q-15 40 -22.5 55t-14.5 21q-5 4 -16 6t-33 4v40q44 -2 75.5 -3t69.5 -1h24h23.5t28 0.5
t38.5 1.5v-38q-21 -2 -33.5 -3t-18.5 -3t-7.5 -5.5t-1.5 -9.5q0 -4 0.5 -8t3.5 -13t9.5 -26.5t17.5 -48.5l61 -171h4l69 176q10 25 16 40.5t9 25t4 15t1 10.5q0 11 -9.5 14.5t-38.5 5.5h-4.5t-6.5 1v38q25 -2 44 -2.5t47 -0.5q26 0 45 0.5t44 1.5v-37q-18 -2 -25 -4t-13 -4
q-4 -3 -7 -6t-6.5 -9t-8.5 -17.5t-13 -30.5q-5 -11 -10 -24.5t-13 -30.5l-154 -362q-13 -30 -23.5 -52.5t-20.5 -40t-19.5 -30.5t-20.5 -25q-47 -50 -127 -50q-19 0 -30.5 2t-27.5 8q4 19 7 32t5 24t3.5 23t4.5 31z" />
    <glyph glyph-name="afii10193" unicode="&#x45f;" horiz-adv-x="614" 
d="M20 36q33 2 45.5 3.5t17.5 6.5q3 3 5 12t3 28t1.5 49.5t0.5 76.5v28q0 46 -0.5 76t-1.5 49t-3 28t-5 12q-5 5 -17.5 6.5t-45.5 3.5v38q32 -1 49.5 -1.5t28.5 -0.5h19h20l119 1h23v-39q-32 -2 -43 -3t-15 -6q-5 -6 -7.5 -35t-2.5 -90v-91.5t1 -61.5t1.5 -37t2.5 -19
q2 -10 7.5 -13t22.5 -5q4 0 11 -0.5t14.5 -1t13 -1t7.5 -0.5q36 0 61 1.5t34 4.5q6 2 9 8.5t4.5 29t2 66t0.5 120.5q0 61 -2.5 90t-7.5 35q-4 5 -15 6t-43 3v39h23l119 -1h20h19t28.5 0.5t49.5 1.5v-38q-33 -2 -45.5 -3.5t-17.5 -6.5q-3 -3 -5 -12t-3 -28t-1.5 -49t-0.5 -76
v-28q0 -46 0.5 -76.5t1.5 -49.5t3 -28t5 -12q5 -5 17.5 -6.5t45.5 -3.5v-38q-31 1 -49.5 1.5t-30.5 0.5h-20.5h-20.5q-46 0 -73.5 -4t-42.5 -17t-21 -37.5t-8 -64.5h-42q-2 42 -8 66t-21.5 37t-45 16.5t-78.5 3.5h-22.5h-23t-28.5 -0.5t-39 -1.5v38z" />
    <glyph glyph-name="afii10050" unicode="&#x490;" horiz-adv-x="533" 
d="M321 -3q-34 1 -58.5 1.5t-43.5 1t-34 0.5h-31h-32.5t-31 -0.5t-33.5 -1t-40 -1.5v40l10 1q34 2 45.5 4t15.5 7t6 19t3.5 44.5t2 80.5t0.5 128v108.5t-0.5 86t-1 58t-0.5 24.5q-2 9 -5.5 14.5t-12 9t-23 5t-36.5 2.5v41q34 -1 58.5 -2t43 -1.5t32 -0.5h25.5l71 1
q26 2 47 2.5t22 -0.5q38 1 61 2t36.5 4t20.5 7.5t13 12.5q2 3 3 9t2 18t1 30.5v46.5h45q0 -44 4 -94t11 -90q-15 -1 -23.5 -1.5l-17 -1t-19 -0.5h-28.5l-74 1q-26 0 -54.5 -0.5t-59.5 -1.5v-25v-20t-0.5 -22.5t-0.5 -32.5q-1 -63 -1.5 -103t-0.5 -60q0 -97 0.5 -153.5
t1.5 -86.5t3 -41t5 -16q4 -7 17.5 -9.5t55.5 -4.5v-40z" />
    <glyph glyph-name="afii10098" unicode="&#x491;" horiz-adv-x="416" 
d="M279 -1h-23l-119 1h-22h-20.5t-28.5 -0.5t-46 -1.5v38q33 2 45.5 3.5t17.5 6.5q3 3 5 12t3 27.5t1.5 49t0.5 76.5v29q0 46 -0.5 76t-1.5 49t-3 28t-5 12q-5 5 -17.5 6.5t-45.5 3.5v38q22 0 38 -0.5t30.5 -1t29.5 -0.5h35h68t35 -1h15q27 0 42.5 2.5t23.5 12t10.5 28.5
t3.5 53v8t1 14l38 2q0 -16 1.5 -41.5t4.5 -51.5t6.5 -47t6.5 -28l-14 -1q-31 1 -50 1h-41q-11 0 -36 -0.5t-55 -1.5q0 -14 -0.5 -32.5t-1 -44t-0.5 -59.5v-80q0 -71 2 -101t7 -35t15 -6.5t44 -3.5v-39z" />
    <glyph glyph-name="endash" unicode="&#x2013;" horiz-adv-x="508" 
d="M17 188q13 25 19.5 44.5t11.5 48.5q24 -1 46.5 -1.5t50 -1t63 -0.5h86.5h64.5t47.5 0.5t39.5 1t39.5 1.5l6 -10q-11 -24 -17.5 -42.5t-14.5 -49.5q-36 1 -63.5 2t-52 2t-49.5 1h-56h-53.5t-47.5 -1t-51 -2t-63 -2z" />
    <glyph glyph-name="emdash" unicode="&#x2014;" horiz-adv-x="684" 
d="M0 188q13 25 19.5 44.5t11.5 48.5q22 -1 53.5 -1.5t77 -1t106 -0.5h140.5h113t68.5 0.5t45 1t43.5 1.5l6 -10q-11 -24 -17.5 -42.5t-14.5 -49.5q-24 1 -49.5 2t-62 1.5t-90 0.5h-133.5h-123t-82.5 -0.5t-57.5 -1.5l-48 -2z" />
    <glyph glyph-name="quoteleft" unicode="&#x2018;" horiz-adv-x="269" 
d="M227 691q-24 -57 -39.5 -121.5t-21.5 -132.5q-38 -5 -67 -12.5t-58 -18.5l-13 15q20 43 37 78t32.5 65.5t30 57.5t30.5 54q5 2 8.5 4.5t7.5 4.5q14 8 19 10.5l17 8.5z" />
    <glyph glyph-name="quoteright" unicode="&#x2019;" horiz-adv-x="269" 
d="M22 420q26 57 42 121t21 132q38 5 67 12.5t57 18.5l12 -14q-19 -43 -35.5 -78t-31.5 -65.5t-30 -57.5t-31 -54q-4 -3 -8 -5.5t-8 -4.5q-15 -8 -20 -10.5t-18 -8.5z" />
    <glyph glyph-name="quotesinglbase" unicode="&#x201a;" horiz-adv-x="269" 
d="M22 -144q26 57 42 121t21 132q38 6 67 13t57 18l12 -14q-19 -43 -35.5 -78t-31.5 -65t-30 -57.5t-31 -54.5l-16 -9q-8 -4 -12 -6.5t-8 -4t-8 -3.5l-10 -5z" />
    <glyph glyph-name="quotedblleft" unicode="&#x201c;" horiz-adv-x="437" 
d="M227 691q-24 -57 -39.5 -121.5t-21.5 -132.5q-38 -5 -67 -12.5t-58 -18.5l-13 15q20 43 37 78t32.5 65.5t30 57.5t30.5 54q5 2 8.5 4.5t7.5 4.5q14 8 19 10.5l17 8.5zM395 691q-26 -57 -42 -121.5t-22 -132.5q-38 -5 -66 -12.5t-56 -18.5l-13 15q19 43 35.5 78t31.5 65
t29.5 57t30.5 55q5 2 9 4.5t8 4.5q7 4 11.5 6.5t8.5 4t8 3.5l10 5z" />
    <glyph glyph-name="quotedblright" unicode="&#x201d;" horiz-adv-x="437" 
d="M190 420q26 57 42 121t21 132q38 5 67 12.5t57 18.5l12 -14q-19 -43 -35.5 -78t-31.5 -65.5t-30 -57.5t-31 -54q-4 -3 -8 -5.5t-8 -4.5q-15 -8 -20 -10.5t-18 -8.5zM22 420q26 56 43 120.5t23 132.5q37 5 65 12.5t56 18.5l12 -14q-19 -44 -35 -79.5t-31 -65.5
t-29.5 -56.5t-29.5 -53.5l-18 -10q-8 -4 -12.5 -6t-8 -4t-7.5 -4t-11 -5z" />
    <glyph glyph-name="quotedblbase" unicode="&#x201e;" horiz-adv-x="437" 
d="M190 -144q26 57 42 121t21 132q38 6 67 13t57 18l12 -14q-19 -43 -35.5 -78t-31.5 -65t-30 -57.5t-31 -54.5l-16 -9q-8 -4 -12 -6.5t-8 -4t-8 -3.5l-10 -5zM22 -144q26 57 43 121.5t23 131.5q37 6 65 13t56 18l12 -14q-18 -42 -34 -77t-31 -65.5t-29.5 -58t-30.5 -54.5
q-5 -2 -9 -4.5t-8 -4.5q-8 -4 -12.5 -6.5t-8.5 -4t-8 -3.5t-11 -5z" />
    <glyph glyph-name="dagger" unicode="&#x2020;" 
d="M312 262q0 -75 0.5 -125.5t2 -89.5t4.5 -74t8 -80q-26 3 -39.5 4t-25.5 1q-13 0 -50 -3q-2 0 -9.5 -0.5t-15.5 -1.5q3 27 5.5 48.5t4 47t2 58t1 81.5t1 118.5t0.5 167.5q-33 -1 -55.5 -1.5t-40 -2t-32.5 -3t-31 -3.5q4 20 5 32t1 23q0 13 -1 23.5t-5 30.5q27 -5 66.5 -7
t92.5 -4q-2 69 -5 120.5t-8 86.5q26 -4 40.5 -5t28.5 -1t28 1t39 5q-4 -32 -7.5 -86.5t-5.5 -120.5q52 1 92.5 3.5t67.5 7.5q-5 -19 -6 -29.5t-1 -23.5t1 -24.5t5 -31.5q-16 2 -30.5 3.5t-32.5 3t-40.5 2t-55.5 1.5z" />
    <glyph glyph-name="daggerdbl" unicode="&#x2021;" 
d="M201 414q-33 -1 -55.5 -1.5t-40.5 -2t-32.5 -3t-30.5 -3.5q4 20 5 32t1 23t-1 22.5t-5 31.5q26 -5 65.5 -7t93.5 -4q-2 69 -5 120.5t-8 86.5q26 -3 40 -4t28 -1t28.5 1t39.5 4q-4 -32 -7.5 -86.5t-5.5 -120.5q52 1 92.5 3.5t67.5 7.5q-5 -19 -6 -29.5t-1 -23.5
q0 -12 1 -24t5 -32q-16 2 -30.5 3.5t-32.5 3t-40.5 2t-55.5 1.5v-172q33 1 55.5 1.5t40.5 2t32.5 3t30.5 3.5q-4 -20 -5 -31.5t-1 -24.5t1 -23.5t6 -29.5q-27 5 -67.5 7.5t-92.5 3.5q1 -14 1.5 -45t2.5 -82q1 -23 1.5 -40.5t1.5 -32.5t2.5 -29.5t3.5 -31.5q-25 4 -39 5
t-29 1q-14 0 -28 -1t-40 -5q2 17 3.5 32t2.5 30.5t1.5 32.5t1.5 39l3 100l1 27q-54 -2 -93.5 -4t-65.5 -7q4 20 5 31.5t1 22.5t-1 23t-5 32q16 -2 30.5 -3.5t32.5 -3t40.5 -2t55.5 -1.5v172z" />
    <glyph glyph-name="bullet" unicode="&#x2022;" horiz-adv-x="482" 
d="M241 465q25 0 47.5 -9.5t39.5 -26t26.5 -39t9.5 -47.5q0 -26 -9.5 -48t-26.5 -39t-39.5 -26.5t-47.5 -9.5t-47.5 10t-39 27t-26 39.5t-9.5 48.5q0 24 10 46t26.5 38.5t38.5 26t47 9.5z" />
    <glyph glyph-name="ellipsis" unicode="&#x2026;" horiz-adv-x="865" 
d="M721 136q30 0 51 -22.5t21 -54.5t-21.5 -54.5t-51.5 -22.5q-29 0 -50 22.5t-21 53.5q0 32 21 55t51 23zM433 136q30 0 51 -22.5t21 -54.5t-21.5 -54.5t-51.5 -22.5q-15 0 -28 6t-22.5 16.5t-15.5 24.5t-6 29q0 32 21 55t52 23zM144 136q30 0 51 -22.5t21 -54.5
t-21.5 -54.5t-51.5 -22.5q-29 0 -50 22.5t-21 53.5q0 32 21 55t51 23z" />
    <glyph glyph-name="perthousand" unicode="&#x2030;" horiz-adv-x="1143" 
d="M951 293q-65 0 -65 -144q0 -123 63 -123q31 0 47.5 36.5t16.5 102.5q0 128 -62 128zM956 323q72 0 114 -43t42 -115q0 -39 -11.5 -70t-33.5 -53t-52.5 -34t-67.5 -12q-75 0 -117.5 43t-42.5 117q0 37 12 68t34 53t53.5 34t69.5 12zM575 293q-65 0 -65 -144
q0 -123 62 -123q31 0 47.5 36.5t16.5 102.5q0 128 -61 128zM580 323q71 0 113 -43t42 -115q0 -39 -11.5 -70t-33.5 -53t-52.5 -34t-67.5 -12q-74 0 -116.5 43t-42.5 117q0 37 12 68t34 53t53.5 34t69.5 12zM280 53q-9 -18 -14 -29t-9 -19t-7 -16.5t-8 -21.5q-11 1 -19.5 1.5
t-13.5 0.5h-11t-14 -1q7 12 12 21t11 20t13 25.5t18 37.5l254 539l16 33q2 4 3.5 8t3.5 9.5t5.5 14t9.5 23.5q11 -1 18.5 -1.5t13.5 -0.5q5 0 12.5 0.5t17.5 1.5q-7 -13 -12.5 -22.5t-11 -21t-13 -25.5t-17.5 -36zM196 641q-65 0 -65 -145q0 -123 62 -123q31 0 47.5 36.5
t16.5 103.5q0 128 -61 128zM201 671q71 0 113 -43t42 -115q0 -39 -11.5 -70t-33.5 -53.5t-52.5 -34.5t-67.5 -12q-74 0 -116.5 43t-42.5 118q0 37 12 68t34 53t53.5 34t69.5 12z" />
    <glyph glyph-name="guilsinglleft" unicode="&#x2039;" horiz-adv-x="288" 
d="M249 403l-107 -169q17 -28 31 -50.5t26.5 -43.5t24.5 -41t25 -42l-27 -20q-54 57 -96.5 100t-85.5 82v25q19 17 42.5 39t47.5 46t48 48.5t44 45.5z" />
    <glyph glyph-name="guilsinglright" unicode="&#x203a;" horiz-adv-x="288" 
d="M40 57q20 32 46.5 74t60.5 95q-17 27 -31 50t-26.5 43.5t-24.5 40.5t-25 42l27 21q54 -57 96.5 -100t85.5 -82v-25q-20 -18 -43 -40t-47.5 -46t-48 -48t-43.5 -45z" />
    <glyph glyph-name="Euro" unicode="&#x20ac;" 
d="M53 416q18 128 86.5 198t175.5 70q47 0 86.5 -11.5t85.5 -37.5q-6 -12 -9.5 -21t-5.5 -20t-4 -26t-3 -39l-1 -16h-42q0 18 -0.5 29t-1.5 17.5t-2.5 10t-3.5 7.5q-14 23 -39.5 36.5t-51.5 13.5q-101 0 -122 -211h207l-19 -51h-191v-12q0 -9 0.5 -27.5t1.5 -25.5h165
l-19 -50h-140q1 -9 1.5 -14.5t2.5 -13.5q38 -176 148 -176q24 0 46.5 8t48.5 28l7 -10l-3 -44q-35 -26 -70 -38t-77 -12q-84 0 -145.5 48.5t-90.5 136.5q-7 20 -11 40.5t-9 46.5h-51l18 50h28q-1 7 -1 17.5v18.5v22v4v3h-46l18 51h33z" />
    <glyph glyph-name="afii61352" unicode="&#x2116;" horiz-adv-x="1114" 
d="M936 481q-57 0 -57 -102q0 -73 16 -107.5t49 -34.5q29 0 42 24.5t13 80.5q0 74 -14.5 106.5t-48.5 32.5zM941 519q80 0 118 -37t38 -115q0 -81 -43 -125t-123 -44q-151 0 -151 166q0 75 41.5 115t119.5 40zM15 38q19 1 31.5 1.5t20 1.5t11.5 2.5t7 4.5q7 5 9 15.5t4 39.5
q0 9 0.5 43.5t1 77.5l1 86t0.5 70q0 75 -0.5 120t-2 69.5t-4.5 34t-7 12.5q-3 2 -5.5 3.5t-9.5 2.5t-20.5 2.5t-37.5 4.5v40q32 -2 57 -2.5t57 -0.5q26 0 43 0.5t40 2.5q90 -115 151 -192t105 -131t76.5 -91.5t65.5 -73.5l-1 276q-1 49 -2 80t-2.5 48.5t-3.5 24.5t-6 9
q-3 2 -6 3.5t-8.5 2.5t-15.5 1.5t-29 2.5h-5t-7 1v40q31 -2 53 -3t48 -1h24.5t26 0.5t32 1.5t42.5 2v-40q-35 -1 -51 -4.5t-22 -11.5q-3 -3 -4.5 -7.5t-2.5 -13t-1.5 -22.5t-0.5 -38l-1 -262v-49.5t0.5 -55t1 -75.5t1.5 -110q-15 3 -24.5 5.5t-18 4t-18.5 3t-25 3.5
q-98 115 -167.5 197.5t-119 142.5t-82.5 102t-57 77q0 -25 0.5 -47t0.5 -44.5v-48.5v-58q0 -77 1 -126.5t2 -79.5t3 -44t5 -18q4 -5 14.5 -7t43.5 -5h13v-41q-31 2 -53 3t-52 1q-27 0 -54 -1t-66 -3v41zM1100 65q-32 2 -55.5 3.5t-42 2t-32.5 1t-26 0.5q-25 0 -60.5 -1.5
t-101.5 -5.5q3 12 4 19t1 12q0 6 -1 13t-4 19q33 -2 57.5 -3.5t43 -2.5t33 -1.5t26.5 -0.5q13 0 27 0.5t32 1.5t42 2.5t57 3.5q-3 -12 -4 -19t-1 -13q0 -5 1 -12t4 -19z" />
    <glyph glyph-name="trademark" unicode="&#x2122;" horiz-adv-x="1007" 
d="M675 260q-55 119 -96 204t-63 125q2 -57 3 -124.5t3 -147.5q0 -8 1.5 -12t6.5 -6.5t14 -3.5t25 -1v-28q-13 0 -22.5 0.5t-17.5 0.5h-16.5h-19.5h-19h-15t-14 -0.5t-16 -0.5v27q3 1 5.5 1h3.5q20 1 26 2t9 5q4 5 6 46t2 122v83.5t-1 48.5t-2 23t-3 9q-3 4 -10 5.5t-23 1.5
l-13 1v28q23 -1 42 -1.5t43 -0.5h32.5t28.5 2q7 -17 13 -30.5t13 -29t17.5 -36.5l26.5 -53q12 -23 21 -41t16.5 -33.5t14 -30.5t14.5 -31q14 26 34 66.5t40 82.5t37.5 79t25.5 57q33 -2 49 -2h34t29 0.5t27 1.5v-27q-23 -2 -33 -4t-12 -6q-2 -5 -3.5 -45t-1.5 -103
q0 -172 7 -183q3 -6 44 -7v-29q-21 2 -37.5 2h-45.5h-55.5t-49.5 -1v28h11q16 1 22.5 2t8.5 4q4 3 5.5 18.5t0.5 57.5v29.5t1 56.5v118q-44 -91 -82 -170.5t-70 -149.5h-22zM106 292q17 1 27 2t14.5 3t6 5t2.5 9q2 30 2.5 109t1.5 207q-53 0 -73 -0.5t-22 -2.5
q-8 -2 -10.5 -8.5t-3.5 -29.5l-1 -18h-29v16q0 20 -1.5 43.5t-3.5 42.5q27 -2 49 -3.5t43 -2.5t43.5 -1h50.5h51.5t46 1t46 1.5t50.5 2.5q-4 -18 -6.5 -46.5t-2.5 -53.5h-29q-2 26 -2 33t-1 13q-1 7 -12 9.5t-38 2.5l-55 1q0 -16 -0.5 -30t-0.5 -30.5v-37.5v-50v-120
q0 -34 1 -45.5t6 -14.5q2 -1 4 -1.5l6 -1.5t12 -1.5t22 -1.5v-28q-35 2 -53 2h-41h-21.5h-20.5t-25 -0.5t-33 -1.5v27z" />
    <glyph glyph-name="glyph222" horiz-adv-x="0" 
 />
    </font>
</defs>
</svg>
